<?xml version="1.0" encoding="UTF-8"?>
<svg xmlns="http://www.w3.org/2000/svg" xmlns:xlink="http://www.w3.org/1999/xlink" width="50px" height="50px" viewBox="0 0 50 49" version="1.1">
<g id="surface1">
<path style=" stroke:none;fill-rule:nonzero;fill:rgb(9.019608%,64.705884%,29.019609%);fill-opacity:1;" d="M 30.230469 6.972656 C 30.398438 6.972656 30.5625 6.972656 30.730469 6.972656 C 31.179688 6.972656 31.625 6.972656 32.074219 6.972656 C 32.449219 6.972656 32.824219 6.972656 33.195312 6.96875 C 34.082031 6.96875 34.964844 6.96875 35.847656 6.96875 C 36.757812 6.96875 37.667969 6.96875 38.578125 6.96875 C 39.363281 6.964844 40.148438 6.964844 40.929688 6.964844 C 41.398438 6.964844 41.867188 6.964844 42.332031 6.964844 C 42.773438 6.960938 43.210938 6.960938 43.648438 6.964844 C 43.808594 6.964844 43.96875 6.964844 44.132812 6.964844 C 44.351562 6.960938 44.570312 6.964844 44.789062 6.964844 C 44.972656 6.964844 44.972656 6.964844 45.164062 6.964844 C 45.765625 7.027344 46.3125 7.285156 46.777344 7.671875 C 47.332031 8.429688 47.527344 9.433594 47.785156 10.320312 C 47.871094 10.621094 47.964844 10.917969 48.058594 11.214844 C 48.089844 11.308594 48.121094 11.40625 48.152344 11.507812 C 48.179688 11.601562 48.210938 11.695312 48.242188 11.792969 C 48.308594 12.003906 48.371094 12.210938 48.4375 12.417969 C 48.488281 12.574219 48.488281 12.574219 48.535156 12.734375 C 48.597656 12.929688 48.660156 13.125 48.71875 13.324219 C 48.933594 14.003906 49.152344 14.6875 49.371094 15.367188 C 49.398438 15.453125 49.429688 15.542969 49.457031 15.632812 C 49.5 15.761719 49.5 15.761719 49.542969 15.894531 C 49.570312 15.980469 49.597656 16.0625 49.625 16.148438 C 49.726562 16.457031 49.835938 16.761719 49.945312 17.066406 C 50.035156 17.390625 50.019531 17.691406 50 18.027344 C 49.476562 18.171875 49.019531 18.242188 48.472656 18.246094 C 48.398438 18.246094 48.328125 18.246094 48.253906 18.246094 C 48.019531 18.246094 47.785156 18.246094 47.546875 18.246094 C 47.378906 18.246094 47.207031 18.246094 47.039062 18.246094 C 46.578125 18.25 46.117188 18.25 45.660156 18.25 C 45.273438 18.246094 44.890625 18.25 44.503906 18.25 C 43.597656 18.25 42.6875 18.25 41.78125 18.25 C 40.847656 18.25 39.910156 18.25 38.976562 18.253906 C 38.171875 18.253906 37.367188 18.253906 36.5625 18.253906 C 36.082031 18.253906 35.605469 18.253906 35.125 18.253906 C 34.671875 18.257812 34.222656 18.257812 33.769531 18.253906 C 33.605469 18.253906 33.441406 18.253906 33.273438 18.257812 C 32.195312 18.261719 31.183594 18.261719 30.347656 17.488281 C 30.019531 17.054688 29.890625 16.535156 29.746094 16.019531 C 29.648438 15.6875 29.542969 15.359375 29.4375 15.03125 C 29.417969 14.964844 29.394531 14.902344 29.375 14.835938 C 29.234375 14.386719 29.074219 13.949219 28.910156 13.511719 C 28.761719 13.101562 28.628906 12.683594 28.5 12.265625 C 28.398438 11.941406 28.292969 11.617188 28.183594 11.296875 C 27.957031 10.636719 27.746094 9.976562 27.535156 9.316406 C 27.503906 9.214844 27.46875 9.113281 27.433594 9.007812 C 27.402344 8.910156 27.371094 8.8125 27.339844 8.710938 C 27.257812 8.472656 27.167969 8.242188 27.070312 8.011719 C 26.949219 7.660156 26.960938 7.539062 27.050781 7.191406 C 28.117188 7.023438 29.152344 6.972656 30.230469 6.972656 Z M 30.230469 6.972656 "/>
<path style=" stroke:none;fill-rule:nonzero;fill:rgb(9.019608%,64.705884%,29.019609%);fill-opacity:1;" d="M 3.222656 15.054688 C 3.625 15.105469 3.855469 15.226562 4.175781 15.46875 C 4.269531 15.539062 4.363281 15.605469 4.457031 15.675781 C 4.511719 15.714844 4.5625 15.753906 4.613281 15.792969 C 4.9375 16.027344 5.269531 16.253906 5.597656 16.480469 C 6.109375 16.835938 6.621094 17.191406 7.128906 17.546875 C 7.765625 17.996094 8.402344 18.4375 9.042969 18.878906 C 9.339844 19.085938 9.640625 19.296875 9.941406 19.503906 C 10.015625 19.554688 10.09375 19.609375 10.171875 19.664062 C 10.316406 19.765625 10.464844 19.867188 10.609375 19.96875 C 10.675781 20.015625 10.742188 20.0625 10.808594 20.109375 C 10.894531 20.167969 10.894531 20.167969 10.984375 20.230469 C 11.136719 20.335938 11.136719 20.335938 11.328125 20.425781 C 11.328125 20.488281 11.328125 20.550781 11.328125 20.617188 C 11.394531 20.640625 11.460938 20.660156 11.53125 20.683594 C 11.878906 20.835938 12.164062 21.039062 12.464844 21.265625 C 12.59375 21.359375 12.722656 21.453125 12.855469 21.550781 C 12.925781 21.601562 12.992188 21.652344 13.0625 21.703125 C 13.363281 21.921875 13.664062 22.140625 13.96875 22.359375 C 14.882812 23.019531 15.792969 23.683594 16.699219 24.355469 C 16.757812 24.402344 16.820312 24.445312 16.882812 24.492188 C 17.054688 24.621094 17.226562 24.75 17.402344 24.878906 C 17.5 24.949219 17.597656 25.023438 17.699219 25.097656 C 17.96875 25.316406 18.214844 25.546875 18.457031 25.792969 C 18.546875 25.882812 18.632812 25.96875 18.726562 26.058594 C 19.015625 26.46875 19.074219 26.742188 19.042969 27.234375 C 18.996094 27.417969 18.9375 27.605469 18.878906 27.785156 C 18.84375 27.898438 18.804688 28.007812 18.769531 28.121094 C 18.710938 28.296875 18.710938 28.296875 18.652344 28.480469 C 18.570312 28.734375 18.492188 28.992188 18.414062 29.25 C 18.371094 29.382812 18.332031 29.519531 18.289062 29.652344 C 18.246094 29.789062 18.207031 29.925781 18.164062 30.0625 C 18.019531 30.527344 17.878906 30.992188 17.734375 31.457031 C 17.679688 31.636719 17.625 31.816406 17.570312 31.992188 C 17.414062 32.488281 17.257812 32.976562 17.066406 33.460938 C 16.902344 33.894531 16.757812 34.335938 16.609375 34.777344 C 16.574219 34.878906 16.539062 34.980469 16.503906 35.085938 C 16.285156 35.722656 16.085938 36.355469 15.917969 37.003906 C 15.820312 37.207031 15.820312 37.207031 15.644531 37.28125 C 15.347656 37.308594 15.253906 37.214844 15.019531 37.039062 C 14.941406 36.984375 14.863281 36.925781 14.785156 36.867188 C 14.703125 36.804688 14.621094 36.742188 14.539062 36.679688 C 14.371094 36.550781 14.199219 36.425781 14.03125 36.300781 C 13.953125 36.242188 13.871094 36.179688 13.789062 36.117188 C 13.554688 35.945312 13.316406 35.777344 13.074219 35.609375 C 12.652344 35.324219 12.234375 35.039062 11.816406 34.75 C 11.746094 34.699219 11.675781 34.652344 11.605469 34.601562 C 10.988281 34.171875 10.375 33.738281 9.761719 33.300781 C 9.476562 33.09375 9.195312 32.898438 8.886719 32.722656 C 8.789062 32.664062 8.789062 32.664062 8.691406 32.601562 C 8.691406 32.539062 8.691406 32.476562 8.691406 32.410156 C 8.59375 32.378906 8.59375 32.378906 8.492188 32.347656 C 8.117188 32.179688 7.824219 31.953125 7.5 31.710938 C 7.363281 31.605469 7.222656 31.5 7.085938 31.398438 C 7.011719 31.34375 6.941406 31.289062 6.863281 31.234375 C 6.488281 30.957031 6.105469 30.683594 5.726562 30.414062 C 5.648438 30.363281 5.574219 30.308594 5.5 30.253906 C 5.050781 29.9375 4.597656 29.625 4.144531 29.316406 C 3.734375 29.035156 3.328125 28.746094 2.921875 28.460938 C 2.644531 28.265625 2.367188 28.074219 2.089844 27.882812 C 0.265625 26.632812 0.265625 26.632812 0 26.082031 C -0.132812 25.304688 -0.0195312 24.59375 0.292969 23.875 C 0.492188 23.371094 0.667969 22.859375 0.828125 22.34375 C 0.972656 21.894531 1.117188 21.449219 1.289062 21.011719 C 1.851562 19.535156 2.3125 18.007812 2.746094 16.488281 C 2.855469 16.132812 2.988281 15.785156 3.125 15.4375 C 3.160156 15.3125 3.191406 15.183594 3.222656 15.054688 Z M 3.222656 15.054688 "/>
<path style=" stroke:none;fill-rule:nonzero;fill:rgb(9.019608%,64.705884%,29.019609%);fill-opacity:1;" d="M 30.84375 34.4375 C 31.179688 34.695312 31.179688 34.695312 31.542969 34.902344 C 31.542969 34.96875 31.542969 35.03125 31.542969 35.097656 C 31.609375 35.117188 31.679688 35.140625 31.75 35.164062 C 32.089844 35.3125 32.359375 35.523438 32.648438 35.753906 C 33.03125 36.058594 33.417969 36.359375 33.816406 36.648438 C 33.886719 36.699219 33.957031 36.746094 34.027344 36.800781 C 34.164062 36.894531 34.296875 36.992188 34.433594 37.085938 C 34.835938 37.378906 35.152344 37.671875 35.449219 38.070312 C 35.460938 38.273438 35.460938 38.273438 35.351562 38.453125 C 34.929688 38.835938 34.929688 38.835938 34.667969 38.835938 C 34.667969 38.898438 34.667969 38.960938 34.667969 39.027344 C 34.535156 39.121094 34.398438 39.210938 34.257812 39.296875 C 33.941406 39.5 33.640625 39.730469 33.335938 39.957031 C 33.234375 40.03125 33.234375 40.03125 33.128906 40.109375 C 32.871094 40.300781 32.613281 40.492188 32.355469 40.683594 C 31.695312 41.171875 31.027344 41.652344 30.355469 42.121094 C 29.941406 42.410156 29.535156 42.699219 29.125 42.988281 C 29.015625 43.066406 29.015625 43.066406 28.90625 43.144531 C 28.515625 43.421875 28.128906 43.699219 27.742188 43.972656 C 27.660156 44.027344 27.582031 44.085938 27.503906 44.144531 C 27.351562 44.25 27.203125 44.355469 27.050781 44.464844 C 25.929688 45.261719 25.929688 45.261719 25.683594 45.261719 C 25.683594 45.324219 25.683594 45.386719 25.683594 45.453125 C 25.488281 45.589844 25.488281 45.589844 25.214844 45.75 C 24.722656 46.050781 24.257812 46.367188 23.792969 46.703125 C 23.386719 46.996094 22.972656 47.28125 22.558594 47.5625 C 22.488281 47.609375 22.414062 47.660156 22.339844 47.710938 C 22.09375 47.878906 21.84375 48.046875 21.59375 48.214844 C 21.511719 48.269531 21.429688 48.324219 21.347656 48.382812 C 21.269531 48.433594 21.191406 48.488281 21.113281 48.539062 C 21.042969 48.585938 20.972656 48.632812 20.902344 48.683594 C 20.328125 49.046875 19.820312 49.140625 19.140625 49 C 18.734375 48.761719 18.390625 48.476562 18.03125 48.171875 C 17.773438 47.960938 17.5 47.78125 17.222656 47.597656 C 16.652344 47.210938 16.089844 46.8125 15.527344 46.410156 C 15.359375 46.292969 15.191406 46.171875 15.019531 46.050781 C 14.578125 45.734375 14.140625 45.414062 13.703125 45.09375 C 13.636719 45.042969 13.570312 44.996094 13.503906 44.945312 C 13.15625 44.6875 12.808594 44.433594 12.460938 44.171875 C 12.390625 44.121094 12.320312 44.070312 12.25 44.015625 C 12.113281 43.917969 11.980469 43.816406 11.847656 43.71875 C 11.582031 43.523438 11.328125 43.339844 11.039062 43.179688 C 10.941406 43.117188 10.941406 43.117188 10.839844 43.054688 C 10.839844 42.992188 10.839844 42.929688 10.839844 42.863281 C 10.679688 42.800781 10.515625 42.738281 10.351562 42.671875 C 10.382812 42.390625 10.4375 42.300781 10.65625 42.109375 C 10.746094 42.050781 10.832031 41.988281 10.925781 41.929688 C 11.023438 41.859375 11.121094 41.792969 11.222656 41.726562 C 11.371094 41.625 11.371094 41.625 11.523438 41.519531 C 11.695312 41.398438 11.871094 41.273438 12.042969 41.148438 C 12.441406 40.863281 12.839844 40.582031 13.238281 40.304688 C 14.070312 39.722656 14.894531 39.136719 15.722656 38.546875 C 16.761719 37.808594 17.804688 37.074219 18.847656 36.34375 C 18.9375 36.277344 18.9375 36.277344 19.03125 36.210938 C 19.511719 35.863281 19.511719 35.863281 19.726562 35.863281 C 19.726562 35.800781 19.726562 35.738281 19.726562 35.671875 C 19.917969 35.539062 19.917969 35.539062 20.183594 35.382812 C 20.625 35.117188 21.039062 34.828125 21.449219 34.515625 C 22.8125 33.464844 22.8125 33.464844 23.144531 33.464844 C 23.144531 33.402344 23.144531 33.339844 23.144531 33.273438 C 26.308594 31.050781 28.09375 32.390625 30.84375 34.4375 Z M 30.84375 34.4375 "/>
<path style=" stroke:none;fill-rule:nonzero;fill:rgb(9.019608%,64.705884%,29.019609%);fill-opacity:1;" d="M 42.871094 19.464844 C 43.082031 19.921875 43.242188 20.378906 43.382812 20.859375 C 43.464844 21.121094 43.5625 21.375 43.664062 21.628906 C 43.808594 22.019531 43.929688 22.421875 44.054688 22.824219 C 44.175781 23.210938 44.308594 23.59375 44.457031 23.972656 C 44.582031 24.296875 44.699219 24.625 44.816406 24.957031 C 44.84375 25.027344 44.867188 25.097656 44.894531 25.171875 C 45.21875 26.074219 45.523438 26.984375 45.808594 27.902344 C 45.976562 28.441406 46.160156 28.972656 46.359375 29.5 C 46.617188 30.195312 46.855469 30.894531 47.089844 31.59375 C 47.167969 31.824219 47.246094 32.050781 47.320312 32.277344 C 48.792969 36.609375 48.792969 36.609375 48.253906 37.804688 C 47.117188 39.699219 44.578125 41.023438 42.777344 42.246094 C 42.578125 42.382812 42.382812 42.523438 42.1875 42.664062 C 41.894531 42.863281 41.894531 42.863281 41.699219 42.863281 C 41.699219 42.925781 41.699219 42.988281 41.699219 43.054688 C 41.496094 43.195312 41.496094 43.195312 41.21875 43.359375 C 40.765625 43.632812 40.351562 43.925781 39.949219 44.265625 C 39.71875 44.414062 39.53125 44.457031 39.257812 44.492188 C 39.238281 44.417969 39.222656 44.34375 39.203125 44.269531 C 39.179688 44.167969 39.15625 44.070312 39.128906 43.964844 C 39.105469 43.867188 39.082031 43.769531 39.058594 43.667969 C 38.96875 43.363281 38.867188 43.070312 38.75 42.773438 C 38.621094 42.445312 38.503906 42.113281 38.386719 41.785156 C 38.359375 41.714844 38.335938 41.640625 38.308594 41.570312 C 37.984375 40.664062 37.679688 39.753906 37.394531 38.839844 C 37.222656 38.292969 37.039062 37.75 36.835938 37.214844 C 36.601562 36.582031 36.390625 35.941406 36.179688 35.300781 C 36.144531 35.1875 36.109375 35.074219 36.070312 34.957031 C 35.824219 34.207031 35.585938 33.453125 35.351562 32.699219 C 35.125 31.976562 34.898438 31.253906 34.648438 30.539062 C 34.515625 30.136719 34.390625 29.734375 34.261719 29.332031 C 34.148438 28.972656 34.03125 28.617188 33.910156 28.265625 C 33.65625 27.507812 33.585938 26.789062 33.78125 26.003906 C 34.0625 25.578125 34.425781 25.292969 34.863281 25.027344 C 34.929688 25.027344 34.992188 25.027344 35.058594 25.027344 C 35.058594 24.964844 35.058594 24.902344 35.058594 24.835938 C 35.191406 24.742188 35.328125 24.652344 35.464844 24.566406 C 35.648438 24.449219 35.824219 24.324219 36 24.195312 C 36.0625 24.144531 36.128906 24.097656 36.195312 24.046875 C 36.375 23.914062 36.550781 23.78125 36.730469 23.648438 C 36.835938 23.566406 36.941406 23.488281 37.046875 23.410156 C 37.148438 23.335938 37.246094 23.257812 37.351562 23.183594 C 37.597656 23.015625 37.597656 23.015625 37.792969 23.015625 C 37.792969 22.949219 37.792969 22.886719 37.792969 22.820312 C 37.925781 22.730469 38.0625 22.636719 38.199219 22.550781 C 38.535156 22.339844 38.855469 22.105469 39.179688 21.875 C 39.292969 21.792969 39.292969 21.792969 39.40625 21.710938 C 40.066406 21.246094 40.71875 20.773438 41.371094 20.296875 C 41.578125 20.148438 41.785156 19.996094 41.992188 19.847656 C 42.050781 19.808594 42.105469 19.769531 42.164062 19.726562 C 42.425781 19.546875 42.546875 19.464844 42.871094 19.464844 Z M 42.871094 19.464844 "/>
<path style=" stroke:none;fill-rule:nonzero;fill:rgb(9.019608%,64.705884%,29.019609%);fill-opacity:1;" d="M 17.070312 -0.0351562 C 17.164062 -0.0351562 17.257812 -0.0351562 17.355469 -0.0351562 C 17.460938 -0.0351562 17.5625 -0.0351562 17.667969 -0.03125 C 17.832031 -0.03125 17.832031 -0.03125 17.996094 -0.03125 C 18.355469 -0.03125 18.714844 -0.03125 19.074219 -0.0273438 C 19.324219 -0.0273438 19.574219 -0.0273438 19.820312 -0.0273438 C 20.410156 -0.0273438 21 -0.0234375 21.589844 -0.0195312 C 22.257812 -0.015625 22.929688 -0.015625 23.597656 -0.015625 C 24.976562 -0.0117188 26.355469 -0.0078125 27.734375 0 C 27.703125 0.183594 27.675781 0.367188 27.644531 0.546875 C 27.628906 0.652344 27.613281 0.753906 27.59375 0.855469 C 27.535156 1.179688 27.441406 1.476562 27.328125 1.785156 C 27 2.691406 26.746094 3.621094 26.484375 4.546875 C 26.347656 5.015625 26.203125 5.480469 26.042969 5.945312 C 25.953125 6.199219 25.875 6.460938 25.792969 6.71875 C 25.640625 7.203125 25.488281 7.691406 25.335938 8.175781 C 25.316406 8.234375 25.296875 8.296875 25.277344 8.359375 C 25.152344 8.757812 25.019531 9.152344 24.882812 9.542969 C 24.445312 10.84375 24.023438 12.148438 23.632812 13.460938 C 23.5 13.894531 23.363281 14.320312 23.214844 14.75 C 23.128906 15.007812 23.046875 15.269531 22.964844 15.53125 C 22.761719 16.183594 22.539062 16.824219 22.265625 17.453125 C 22.199219 17.453125 22.136719 17.453125 22.070312 17.453125 C 22.050781 17.507812 22.03125 17.5625 22.007812 17.621094 C 21.800781 17.957031 21.484375 18.15625 21.101562 18.277344 C 20.878906 18.320312 20.667969 18.328125 20.441406 18.328125 C 20.347656 18.328125 20.257812 18.328125 20.160156 18.328125 C 20.0625 18.328125 19.960938 18.328125 19.859375 18.324219 C 19.753906 18.324219 19.648438 18.324219 19.539062 18.324219 C 19.1875 18.324219 18.839844 18.324219 18.488281 18.324219 C 18.246094 18.324219 18.003906 18.324219 17.761719 18.324219 C 17.1875 18.324219 16.617188 18.324219 16.042969 18.320312 C 15.324219 18.320312 14.609375 18.320312 13.894531 18.320312 C 12.613281 18.320312 11.335938 18.316406 10.058594 18.316406 C 10.160156 17.582031 10.160156 17.582031 10.285156 17.242188 C 10.3125 17.167969 10.335938 17.09375 10.363281 17.019531 C 10.390625 16.941406 10.421875 16.863281 10.449219 16.78125 C 10.507812 16.601562 10.570312 16.421875 10.628906 16.238281 C 10.660156 16.144531 10.691406 16.046875 10.722656 15.949219 C 10.753906 15.851562 10.789062 15.75 10.820312 15.648438 C 10.855469 15.542969 10.890625 15.441406 10.925781 15.332031 C 11.167969 14.589844 11.398438 13.84375 11.621094 13.09375 C 11.746094 12.683594 11.882812 12.289062 12.039062 11.890625 C 12.160156 11.558594 12.257812 11.222656 12.351562 10.882812 C 12.46875 10.480469 12.589844 10.082031 12.742188 9.691406 C 12.910156 9.257812 13.042969 8.816406 13.175781 8.371094 C 13.230469 8.203125 13.28125 8.03125 13.332031 7.863281 C 13.355469 7.78125 13.382812 7.699219 13.40625 7.613281 C 13.5 7.308594 13.59375 7 13.691406 6.695312 C 13.730469 6.5625 13.730469 6.5625 13.773438 6.425781 C 13.898438 6.039062 14.027344 5.65625 14.160156 5.273438 C 14.21875 5.097656 14.28125 4.921875 14.339844 4.746094 C 14.4375 4.457031 14.535156 4.164062 14.636719 3.875 C 14.796875 3.402344 14.957031 2.929688 15.113281 2.460938 C 15.136719 2.382812 15.164062 2.304688 15.191406 2.222656 C 15.238281 2.082031 15.285156 1.9375 15.332031 1.792969 C 15.464844 1.402344 15.621094 1.035156 15.820312 0.671875 C 15.882812 0.671875 15.949219 0.671875 16.015625 0.671875 C 16.039062 0.613281 16.0625 0.554688 16.089844 0.496094 C 16.328125 0.0898438 16.601562 -0.0351562 17.070312 -0.0351562 Z M 17.070312 -0.0351562 "/>
</g>
</svg>
