<?xml version="1.0" encoding="UTF-8"?>
<svg xmlns="http://www.w3.org/2000/svg" xmlns:xlink="http://www.w3.org/1999/xlink" width="50px" height="20px" viewBox="0 0 50 20" version="1.1">
<defs>
<clipPath id="clip1">
  <path d="M 16 0 L 34 0 L 34 19.886719 L 16 19.886719 Z M 16 0 "/>
</clipPath>
<clipPath id="clip2">
  <path d="M 36 2 L 49.96875 2 L 49.96875 18 L 36 18 Z M 36 2 "/>
</clipPath>
</defs>
<g id="surface1">
<g clip-path="url(#clip1)" clip-rule="nonzero">
<path style=" stroke:none;fill-rule:evenodd;fill:rgb(98.823529%,78.431374%,0%);fill-opacity:1;" d="M 17.769531 0 L 32.101562 0 C 32.992188 0 33.722656 0.730469 33.722656 1.621094 L 33.722656 18.269531 C 33.722656 19.15625 32.992188 19.886719 32.101562 19.886719 L 17.769531 19.886719 C 16.878906 19.886719 16.148438 19.15625 16.148438 18.269531 L 16.148438 1.621094 C 16.148438 0.730469 16.878906 0 17.769531 0 Z M 29.59375 5.101562 L 24.851562 15.734375 L 21.746094 15.734375 L 25.554688 7.351562 L 21 7.347656 L 21 5.101562 Z M 29.59375 5.101562 "/>
</g>
<path style=" stroke:none;fill-rule:evenodd;fill:rgb(98.823529%,78.431374%,0%);fill-opacity:1;" d="M 1.246094 2.308594 L 12.25 2.308594 C 12.9375 2.308594 13.496094 2.867188 13.496094 3.546875 L 13.496094 16.335938 C 13.496094 17.023438 12.941406 17.582031 12.25 17.582031 L 1.246094 17.582031 C 0.558594 17.582031 0 17.023438 0 16.335938 L 0 3.550781 C 0 2.867188 0.558594 2.308594 1.246094 2.308594 Z M 10.757812 5.976562 L 6.800781 14.855469 L 4.203125 14.855469 L 7.386719 7.855469 L 3.582031 7.851562 L 3.582031 5.976562 Z M 10.757812 5.976562 "/>
<g clip-path="url(#clip2)" clip-rule="nonzero">
<path style=" stroke:none;fill-rule:evenodd;fill:rgb(98.823529%,78.431374%,0%);fill-opacity:1;" d="M 37.71875 2.308594 L 48.730469 2.308594 C 49.410156 2.308594 49.96875 2.867188 49.96875 3.546875 L 49.96875 16.335938 C 49.96875 17.023438 49.410156 17.582031 48.730469 17.582031 L 37.71875 17.582031 C 37.035156 17.582031 36.472656 17.023438 36.472656 16.335938 L 36.472656 3.550781 C 36.472656 2.867188 37.035156 2.308594 37.71875 2.308594 Z M 47.253906 5.976562 L 43.289062 14.855469 L 40.699219 14.855469 L 43.875 7.855469 L 40.070312 7.851562 L 40.070312 5.976562 Z M 47.253906 5.976562 "/>
</g>
</g>
</svg>
