<?xml version="1.0" encoding="UTF-8"?>
<svg version="1.1" xmlns="http://www.w3.org/2000/svg" width="50" height="50">
<path d="M0 0 C10.56 0 21.12 0 32 0 C32.495 8.415 32.495 8.415 33 17 C33.33 17 33.66 17 34 17 C34 22.28 34 27.56 34 33 C33.67 33 33.34 33 33 33 C32.67 38.61 32.34 44.22 32 50 C21.44 50 10.88 50 0 50 C-0.33 44.39 -0.66 38.78 -1 33 C-1.33 33 -1.66 33 -2 33 C-2 27.72 -2 22.44 -2 17 C-1.67 17 -1.34 17 -1 17 C-0.67 11.39 -0.34 5.78 0 0 Z " fill="#060605" transform="translate(9,0)"/>
<path d="M0 0 C3.96 0 7.92 0 12 0 C12.0809723 2.43816585 12.14046972 4.87364384 12.1875 7.3125 C12.22520508 8.34793945 12.22520508 8.34793945 12.26367188 9.40429688 C12.29296875 11.42578125 12.29296875 11.42578125 12 15 C11.01 15.99 10.02 16.98 9 18 C6.03 18 3.06 18 0 18 C0 12.06 0 6.12 0 0 Z " fill="#F7F7F6" transform="translate(19,26)"/>
<path d="M0 0 C8 0 8 0 10.48046875 1.58203125 C12.49090049 4.78115014 12.43436247 6.93497643 12.3125 10.6875 C12.28800781 11.84636719 12.26351563 13.00523438 12.23828125 14.19921875 C12 17 12 17 11 18 C7.3308423 18.14310287 3.67284559 18.04221662 0 18 C0 12.06 0 6.12 0 0 Z " fill="#F4F4F4" transform="translate(19,6)"/>
<path d="M0 0 C5.625 5.625 5.625 5.625 7 9 C6.02433888 10.16959987 5.044375 11.33561177 4.0625 12.5 C3.51722656 13.1496875 2.97195312 13.799375 2.41015625 14.46875 C1.94480469 14.9740625 1.47945312 15.479375 1 16 C0.67 16 0.34 16 0 16 C0 10.72 0 5.44 0 0 Z " fill="#F6E207" transform="translate(7,17)"/>
<path d="M0 0 C0.33 0 0.66 0 1 0 C1 5.28 1 10.56 1 16 C-4.625 10.375 -4.625 10.375 -6 7 C-5.02433888 5.83040013 -4.044375 4.66438823 -3.0625 3.5 C-2.51722656 2.8503125 -1.97195312 2.200625 -1.41015625 1.53125 C-0.71212891 0.77328125 -0.71212891 0.77328125 0 0 Z " fill="#FAE508" transform="translate(42,17)"/>
<path d="M0 0 C1.32 0.33 2.64 0.66 4 1 C4 4.63 4 8.26 4 12 C2.68 12.33 1.36 12.66 0 13 C0 8.71 0 4.42 0 0 Z " fill="#090908" transform="translate(23,27)"/>
<path d="M0 0 C1.32 0.33 2.64 0.66 4 1 C4 4.63 4 8.26 4 12 C2.68 12.33 1.36 12.66 0 13 C0 8.71 0 4.42 0 0 Z " fill="#1D1D1D" transform="translate(23,10)"/>
</svg>
