<?xml version="1.0" encoding="UTF-8"?>
<svg xmlns="http://www.w3.org/2000/svg" xmlns:xlink="http://www.w3.org/1999/xlink" width="42px" height="50px" viewBox="0 0 42 50" version="1.1">
<defs>
<radialGradient id="radial0" gradientUnits="userSpaceOnUse" cx="409.299988" cy="927.599976" fx="409.299988" fy="927.599976" r="1400.900024" gradientTransform="matrix(0.021875,0,0,0.0217675,0,0.00217622)">
<stop offset="0" style="stop-color:rgb(24.705882%,98.823529%,100%);stop-opacity:1;"/>
<stop offset="0.6" style="stop-color:rgb(98.431373%,69.019608%,23.137255%);stop-opacity:1;"/>
<stop offset="1" style="stop-color:rgb(96.470588%,23.137255%,32.156863%);stop-opacity:1;"/>
</radialGradient>
</defs>
<g id="surface1">
<path style=" stroke:none;fill-rule:nonzero;fill:url(#radial0);" d="M 38.238281 2.457031 C 37.96875 2.003906 37.503906 2.355469 37.144531 2.46875 C 33.125 3.769531 29.355469 8.355469 28.851562 12.621094 C 28.597656 14.753906 28.1875 16.898438 26.582031 18.554688 C 26.429688 18.710938 26.261719 18.945312 26.019531 18.824219 C 25.761719 18.695312 25.851562 18.4375 25.953125 18.238281 C 27.332031 15.53125 26.671875 12.277344 28.285156 9.585938 C 26.855469 10.207031 26.003906 11.359375 25.304688 12.601562 C 23.957031 14.996094 21.867188 16.035156 19.203125 16.175781 C 14.132812 16.445312 9.96875 18.519531 6.925781 22.578125 C 1.269531 30.121094 3.445312 39.933594 10.519531 44.972656 C 10.796875 45.167969 11.050781 45.3125 11.292969 45.402344 C 16.507812 48.671875 23 48.472656 28.085938 45.296875 C 28.363281 45.226562 28.660156 45.066406 28.996094 44.828125 C 33.675781 41.511719 35.421875 36.78125 35.644531 31.324219 C 35.835938 26.605469 34.445312 22.085938 33.683594 17.5 C 32.777344 12.054688 33.476562 7.222656 37.742188 3.316406 C 37.996094 3.089844 38.449219 2.816406 38.238281 2.457031 Z M 38.238281 2.457031 "/>
<path style=" stroke:none;fill-rule:nonzero;fill:rgb(9.411765%,10.588235%,12.54902%);fill-opacity:1;" d="M 25.015625 28.332031 C 26.058594 29.042969 26.878906 30.027344 27.476562 31.28125 C 28.074219 32.535156 28.375 33.933594 28.375 35.472656 C 28.375 37.015625 28.050781 38.414062 27.410156 39.667969 C 26.769531 40.925781 25.878906 41.914062 24.75 42.632812 C 23.617188 43.355469 22.363281 43.714844 20.988281 43.714844 C 19.617188 43.714844 18.371094 43.355469 17.253906 42.632812 C 16.140625 41.914062 15.253906 40.925781 14.605469 39.667969 C 13.953125 38.414062 13.628906 37.015625 13.628906 35.472656 L 13.628906 21.957031 C 13.628906 21.503906 13.757812 21.136719 14.015625 20.859375 C 14.273438 20.582031 14.597656 20.445312 14.992188 20.445312 C 15.386719 20.445312 15.734375 20.582031 15.984375 20.859375 C 16.234375 21.136719 16.359375 21.503906 16.359375 21.957031 L 16.359375 29.960938 C 16.980469 29.113281 17.742188 28.449219 18.632812 27.976562 C 19.527344 27.5 20.488281 27.265625 21.523438 27.265625 C 22.558594 27.265625 23.972656 27.617188 25.015625 28.332031 Z M 23.410156 40.320312 C 24.128906 39.839844 24.703125 39.171875 25.121094 38.320312 C 25.542969 37.472656 25.75 36.523438 25.75 35.476562 C 25.75 34.429688 25.539062 33.484375 25.121094 32.644531 C 24.703125 31.804688 24.128906 31.144531 23.410156 30.660156 C 22.6875 30.175781 21.878906 29.933594 20.988281 29.933594 C 20.09375 29.933594 19.289062 30.175781 18.566406 30.660156 C 17.84375 31.144531 17.277344 31.808594 16.867188 32.644531 C 16.453125 33.484375 16.25 34.429688 16.25 35.476562 C 16.25 36.523438 16.457031 37.472656 16.867188 38.320312 C 17.277344 39.171875 17.84375 39.839844 18.566406 40.320312 C 19.289062 40.808594 20.09375 41.050781 20.988281 41.050781 C 21.878906 41.050781 22.6875 40.808594 23.410156 40.320312 Z M 23.410156 40.320312 "/>
</g>
</svg>
