<?xml version="1.0" encoding="UTF-8"?>
<svg xmlns="http://www.w3.org/2000/svg" xmlns:xlink="http://www.w3.org/1999/xlink" width="50px" height="50px" viewBox="0 0 50 50" version="1.1">
<defs>
<linearGradient id="linear0" gradientUnits="userSpaceOnUse" x1="9.3" y1="25" x2="40.799999" y2="25" gradientTransform="matrix(1,0,0,-1,0,50)">
<stop offset="0" style="stop-color:rgb(81.568627%,67.058824%,32.54902%);stop-opacity:1;"/>
<stop offset="0.5" style="stop-color:rgb(91.764706%,75.686275%,38.039216%);stop-opacity:1;"/>
</linearGradient>
</defs>
<g id="surface1">
<path style=" stroke:none;fill-rule:nonzero;fill:rgb(17.647059%,18.039216%,17.254902%);fill-opacity:1;" d="M 50 25 C 50 11.199219 38.800781 0 25 0 C 11.199219 0 0 11.199219 0 25 C 0 38.800781 11.199219 50 25 50 C 38.800781 50 50 38.800781 50 25 Z M 50 25 "/>
<path style=" stroke:none;fill-rule:nonzero;fill:url(#linear0);" d="M 40.699219 18.898438 C 40.699219 19.101562 40.5 19.300781 40.398438 19.5 C 40.300781 19.699219 40.101562 19.898438 39.898438 20.101562 C 39.601562 20.5 39.199219 20.898438 38.699219 21.199219 C 38.699219 21 38.800781 20.800781 38.800781 20.601562 C 38.800781 20.300781 38.699219 20.199219 38.398438 20.199219 C 38.199219 20.199219 38.101562 20.199219 38 20.199219 C 37.699219 20.300781 37.601562 20.199219 37.601562 20 C 37.300781 19.5 37 19.398438 36.5 19.601562 C 36.300781 19.699219 36.101562 19.601562 36.101562 19.398438 C 36 19.199219 35.800781 19 35.5 18.898438 L 35.300781 18.898438 C 35.300781 18.898438 35.101562 19.101562 35 18.898438 C 35 18.699219 34.800781 18.601562 34.699219 18.398438 C 34.5 18.199219 34.300781 17.898438 34.101562 17.699219 C 33.5 17.300781 32.800781 17.300781 32.199219 17.699219 C 32 17.800781 31.800781 18 31.601562 18.199219 C 31.5 18.398438 31.398438 18.601562 31.300781 18.898438 C 31.300781 19 31.300781 19.101562 31.300781 19.300781 C 31.300781 19.300781 31.300781 19.5 31.300781 19.601562 C 31.300781 19.800781 31.5 20.101562 31.5 20.300781 C 31.699219 20.5 31.699219 20.699219 31.898438 20.898438 C 32.800781 21.5 33.601562 21.300781 34.398438 20.699219 C 34.398438 21.101562 34.601562 21.5 34.898438 21.800781 C 35.398438 22.300781 36.101562 22.398438 36.800781 22.300781 C 36.800781 22.5 36.699219 22.5 36.601562 22.601562 C 36.398438 22.898438 36.101562 23.199219 35.800781 23.398438 C 35.101562 24 34.300781 24.300781 33.398438 24.101562 C 33.300781 24.101562 33.199219 24.101562 33.199219 23.898438 C 33.199219 23.699219 33.199219 23.601562 33.199219 23.398438 C 33.199219 23.101562 33 22.898438 32.800781 22.699219 C 32.398438 22.398438 31.898438 22.199219 31.5 22 C 30.800781 21.800781 30.101562 21.800781 29.398438 21.601562 C 29.101562 21.601562 28.800781 21.398438 28.601562 21.101562 C 28.398438 20.898438 28.300781 20.601562 28.101562 20.398438 C 28 20.199219 27.800781 20 27.601562 19.800781 C 27.398438 19.601562 27.199219 19.398438 27 19.199219 C 26.601562 18.898438 26.199219 18.699219 25.800781 18.5 C 25.300781 18.398438 24.800781 18.300781 24.199219 18.199219 C 24.398438 18 24.5 17.898438 24.699219 17.800781 C 25.199219 17.5 25.800781 17.5 26.398438 17.601562 C 26.199219 17.398438 26.101562 17.398438 26 17.398438 C 25.601562 17.300781 25.199219 17.199219 24.699219 17.101562 C 24.199219 17.101562 23.800781 17.101562 23.300781 17.101562 C 21.300781 17.101562 19.898438 18.101562 19.101562 19.898438 C 18.699219 20.898438 18.699219 22 19 23.101562 C 19.199219 23.699219 19.398438 24.300781 19.699219 24.898438 C 20.101562 25.5 20.601562 26.101562 21.101562 26.601562 C 21.300781 26.800781 21.300781 26.964844 21.101562 27.101562 C 20 27.898438 18.898438 28.601562 17.898438 29.398438 C 17.601562 29.601562 17.300781 29.800781 17 30.101562 C 17 30.101562 16.898438 30.199219 16.800781 30.101562 C 15.898438 29.398438 15.199219 28.601562 14.601562 27.601562 C 13.800781 26.398438 13 25.398438 11.699219 24.800781 C 11.398438 24.601562 11 24.5 10.601562 24.398438 C 10.300781 24.398438 10 24.398438 9.699219 24.300781 C 10 23.898438 10.398438 23.699219 10.898438 23.601562 C 11.601562 23.398438 12.199219 23.398438 12.898438 23.601562 C 12.898438 23.601562 12.898438 23.601562 13 23.601562 C 12.800781 23.300781 12.5 23 12.300781 22.699219 C 11.898438 22.398438 11.398438 22.199219 10.800781 22.101562 C 10.199219 22.101562 9.699219 22.101562 9.101562 22.101562 C 9.300781 21.800781 9.5 21.601562 9.699219 21.5 C 9.898438 21.300781 10.199219 21.101562 10.398438 20.898438 C 10.699219 20.699219 11.101562 20.5 11.398438 20.398438 C 12.101562 20.101562 12.800781 19.898438 13.5 19.898438 C 14.101562 19.898438 14.800781 19.898438 15.5 19.898438 C 15.601562 19.898438 15.699219 19.898438 15.699219 19.800781 C 15.5 19.601562 15.199219 19.398438 14.898438 19.199219 C 14.398438 19 13.800781 18.800781 13.300781 18.800781 C 12.199219 18.800781 11.101562 19 10.101562 19.398438 C 10.300781 19.101562 10.398438 18.800781 10.699219 18.601562 C 10.898438 18.398438 11.101562 18.199219 11.398438 18 C 11.699219 17.699219 12.101562 17.5 12.5 17.398438 C 12.898438 17.199219 13.398438 17 13.898438 16.898438 C 14.5 16.699219 15.199219 16.601562 15.898438 16.5 C 16.300781 16.5 16.699219 16.398438 17.101562 16.398438 C 17.199219 16.398438 17.300781 16.398438 17.398438 16.398438 C 17.601562 16.398438 17.800781 16.398438 18.101562 16.398438 C 18 16.300781 17.800781 16.300781 17.699219 16.199219 C 17.101562 16 16.398438 15.800781 15.800781 15.800781 C 14.800781 15.699219 13.800781 15.699219 12.800781 15.800781 C 12.898438 15.601562 13 15.5 13.199219 15.398438 C 13.398438 15.199219 13.699219 15 13.898438 14.898438 C 14.199219 14.699219 14.601562 14.601562 14.898438 14.5 C 15.800781 14.199219 16.800781 14.101562 17.800781 14 C 17.898438 14 18.101562 14 18.199219 14 C 18.300781 14 18.398438 14 18.601562 14 C 18.601562 14 18.699219 14 18.601562 14 C 18.398438 13.898438 18.101562 13.800781 17.898438 13.699219 C 17.199219 13.5 16.5 13.199219 15.800781 13 C 15.5 13 15.101562 12.898438 14.800781 12.800781 C 16.800781 12.199219 18.699219 12.199219 20.699219 12.601562 C 20.699219 12.601562 20.800781 12.601562 20.800781 12.601562 C 20.5 12.398438 20.199219 12.199219 19.898438 12 C 19.300781 11.699219 18.699219 11.398438 18 11.101562 C 19.199219 11 20.398438 11.101562 21.5 11.601562 C 21.601562 11.601562 21.800781 11.699219 21.898438 11.800781 C 22.101562 11.898438 22.199219 12 22.398438 12.101562 C 22.398438 12.101562 22.398438 12 22.398438 11.898438 C 22.101562 11.300781 21.699219 10.800781 21.101562 10.398438 C 21.5 10.398438 21.898438 10.398438 22.199219 10.601562 C 22.699219 10.898438 23.199219 11.199219 23.601562 11.699219 C 23.601562 11.699219 23.699219 11.699219 23.699219 11.800781 C 23.699219 11.800781 23.800781 12 23.898438 12 C 23.898438 11.898438 23.898438 11.800781 23.898438 11.800781 C 23.800781 11.300781 23.5 10.898438 23.199219 10.5 C 24 10.699219 24.601562 11.199219 25.101562 11.699219 C 25.300781 11.800781 25.5 12.101562 25.699219 12.300781 C 25.601562 11.898438 25.398438 11.601562 25.101562 11.300781 C 25.699219 11.5 26.101562 11.800781 26.5 12.199219 C 26.5 12 26.5 11.898438 26.5 11.699219 C 25.699219 9.800781 24.300781 8.5 22.5 7.5 C 25.101562 8 26.898438 9.601562 28.398438 11.601562 C 28.398438 11.601562 28.398438 11.398438 28.398438 11.300781 C 28.398438 11.199219 28.398438 11.101562 28.398438 11 C 27.300781 8.398438 25.398438 6.398438 23.398438 4.398438 C 23.5 4.398438 23.601562 4.398438 23.699219 4.398438 C 24.699219 4.898438 25.601562 5.601562 26.300781 6.300781 C 27.699219 7.601562 28.898438 9.101562 29.800781 10.800781 C 30 11 30 11.398438 30.300781 11.5 C 30.601562 11.800781 30.898438 12 31.101562 12.300781 C 31.300781 12.398438 31.398438 12.601562 31.601562 12.699219 C 31.800781 12.898438 32.101562 13.101562 32.398438 13.300781 C 32.699219 13.5 33 13.699219 33.199219 13.898438 C 33.5 14 33.699219 14.300781 33.898438 14.398438 C 34.199219 14.5 34.300781 14.800781 34.601562 14.898438 C 34.800781 15 35 15.199219 35.199219 15.398438 C 35.5 15.601562 35.699219 15.898438 35.898438 16.101562 C 36.101562 16.199219 36.300781 16.398438 36.398438 16.601562 C 36.5 16.601562 36.5 16.800781 36.601562 16.898438 C 36.800781 17 36.898438 17.199219 37 17.300781 C 37.300781 17.5 37.601562 17.800781 38 18 C 38.5 18.300781 39.101562 18.5 39.601562 18.601562 C 39.699219 18.601562 39.898438 18.601562 40 18.601562 C 40.300781 18.601562 40.5 18.601562 40.699219 18.800781 C 40.800781 18.800781 40.898438 19 40.800781 19.199219 Z M 31.699219 36.800781 C 31.601562 36.398438 31.5 36.101562 31.300781 35.898438 C 31.199219 35.5 31 35.199219 30.800781 34.800781 C 30.601562 34.398438 30.398438 34.101562 30.101562 33.699219 C 29.898438 33.300781 29.699219 33 29.300781 32.699219 C 29 32.300781 28.699219 32 28.300781 31.699219 C 28.300781 31.699219 28.199219 31.5 28.101562 31.5 C 27.300781 30.699219 26.398438 30.101562 25.5 29.398438 C 25.398438 29.398438 25.300781 29.101562 25.101562 29.199219 C 24.5 29.699219 23.898438 30.199219 23.300781 30.800781 C 22.800781 31.199219 22.398438 31.699219 21.898438 32.101562 C 21.699219 32.300781 21.5 32.601562 21.199219 32.800781 C 21.601562 33 22 33.199219 22.398438 33.5 C 23.101562 34 23.800781 34.601562 24.398438 35.300781 C 25 36 25.300781 36.699219 25.5 37.5 C 25.5 38.300781 25.398438 39.101562 24.800781 39.800781 C 24.398438 40.300781 23.898438 40.601562 23.398438 40.800781 C 22.800781 41 22.101562 41 21.5 40.898438 C 21.101562 40.898438 20.699219 40.699219 20.300781 40.5 C 19.699219 40.199219 19.199219 39.800781 18.800781 39.300781 C 18.5 38.898438 18.398438 38.5 18.199219 38.101562 C 17.898438 37 17.898438 35.898438 18.398438 34.898438 C 18.601562 34.5 18.898438 34.101562 19.101562 33.699219 C 19.300781 33.398438 19.601562 33.101562 19.800781 32.800781 C 20.101562 32.5 20.398438 32.300781 20.601562 32 C 20.898438 31.800781 21.101562 31.601562 21.300781 31.300781 C 21.601562 31.101562 21.800781 30.898438 22 30.601562 C 22.300781 30.398438 22.601562 30.101562 22.898438 29.800781 C 23.199219 29.5 23.601562 29.199219 23.898438 28.898438 C 24.199219 28.601562 24.5 28.300781 24.800781 28 C 25.101562 27.800781 25.300781 27.5 25.601562 27.199219 C 25.800781 27 26.101562 26.800781 26.300781 26.5 C 26.5 26.199219 26.800781 26 27 25.601562 C 27.199219 25.398438 27.300781 25.199219 27.398438 24.898438 C 27.601562 24.699219 27.699219 24.398438 27.699219 24.101562 C 27.800781 23.800781 27.898438 23.601562 27.800781 23.300781 C 27.800781 23 27.800781 22.601562 27.699219 22.300781 C 27.699219 21.898438 27.5 21.601562 27.199219 21.300781 C 26.601562 20.398438 25.800781 19.898438 24.699219 19.898438 C 23.800781 19.898438 23 20.5 22.699219 21.300781 C 22.601562 21.601562 22.5 22 22.699219 22.300781 C 22.699219 22.601562 22.898438 23 23.101562 23.199219 C 23.398438 23.601562 23.699219 23.898438 24.199219 24.101562 C 24.601562 24.300781 25 24.300781 25.398438 24.398438 C 25.398438 24.398438 25.199219 24.601562 25.101562 24.601562 C 24.800781 24.800781 24.398438 25.101562 24.101562 25.300781 C 23.699219 25.5 23.300781 25.800781 22.898438 26.101562 C 22.5 26.300781 22.199219 26.601562 21.800781 26.800781 C 21.398438 27.101562 21 27.300781 20.699219 27.601562 C 20.300781 27.898438 19.800781 28.199219 19.398438 28.5 C 18.898438 28.800781 18.5 29.101562 18.101562 29.398438 C 17.699219 29.601562 17.398438 29.898438 17.101562 30.199219 C 16.898438 30.398438 16.601562 30.601562 16.398438 30.898438 C 16.199219 31.101562 16 31.300781 15.898438 31.601562 C 15.699219 31.898438 15.601562 32.199219 15.5 32.5 C 15.300781 32.800781 15.300781 33.101562 15.199219 33.5 C 15.101562 33.898438 15 34.300781 15 34.699219 C 15 34.898438 15 35.101562 15 35.300781 C 14.601562 34.898438 14.5 34.398438 14.398438 33.898438 C 13.800781 35.601562 13.601562 37.199219 13.898438 38.898438 C 14.300781 40.898438 15.300781 42.601562 16.898438 43.898438 C 17.699219 44.601562 18.601562 45.101562 19.601562 45.5 C 19.800781 45.5 19.898438 45.601562 20.101562 45.699219 C 21.199219 46 22.199219 46 23.300781 45.800781 C 24.199219 45.699219 25 45.398438 25.699219 44.898438 C 26.199219 44.699219 26.601562 44.300781 27 44 C 27.398438 43.699219 27.699219 43.398438 28 43 C 28.199219 42.800781 28.300781 42.601562 28.5 42.398438 C 28.5 42.398438 28.5 42.199219 28.699219 42.300781 C 28.699219 42.300781 28.699219 42.398438 28.699219 42.5 C 28.699219 42.601562 28.699219 42.699219 28.800781 42.800781 C 28.800781 43 28.800781 43.199219 29 43.398438 C 29.101562 43.199219 29.300781 43 29.300781 42.800781 C 29.300781 42.601562 29.5 42.398438 29.5 42.199219 C 29.601562 41.898438 29.699219 41.699219 29.800781 41.398438 C 29.800781 41.101562 29.898438 40.800781 30 40.5 C 30 40.199219 30 39.898438 30 39.5 C 30 39.398438 30 39.199219 30 39.101562 C 30.199219 39.300781 30.398438 39.398438 30.699219 39.601562 C 30.699219 39.199219 30.699219 38.800781 30.699219 38.5 C 30.699219 38.101562 30.699219 37.800781 30.5 37.398438 C 30.5 37.101562 30.398438 36.699219 30.300781 36.398438 C 30.300781 36.199219 30.199219 35.898438 30.101562 35.601562 C 30.5 35.800781 30.800781 36.101562 31.199219 36.300781 Z M 31.699219 36.800781 "/>
</g>
</svg>
