<?xml version="1.0" encoding="UTF-8"?>
<svg xmlns="http://www.w3.org/2000/svg" xmlns:xlink="http://www.w3.org/1999/xlink" width="50px" height="21px" viewBox="0 0 49 21" version="1.1">
<g id="surface1">
<path style=" stroke:none;fill-rule:nonzero;fill:rgb(85.882354%,85.882354%,85.882354%);fill-opacity:1;" d="M 33.566406 0.00390625 C 35.386719 0.0351562 37.207031 0.0703125 39.085938 0.105469 C 40.914062 0.128906 42.761719 0.15625 44.625 0.183594 C 46.035156 0.21875 47.457031 0.25 48.894531 0.285156 L 48.894531 4.628906 C 43.246094 5.105469 37.535156 5.589844 31.773438 6.078125 L 31.773438 14.765625 C 36.011719 15.242188 40.25 15.722656 44.613281 16.214844 L 44.613281 11.867188 L 36.054688 11.867188 L 36.054688 7.523438 L 48.894531 7.523438 C 48.988281 13.464844 48.988281 17.324219 48.894531 19.109375 C 46.222656 21.820312 41.851562 20.808594 38.28125 20.828125 C 36.605469 20.847656 34.929688 20.871094 33.203125 20.890625 C 30.347656 20.667969 27.96875 19.59375 26.0625 17.660156 C 25.8125 15.429688 25.691406 13.015625 25.707031 10.421875 C 25.699219 9.136719 25.691406 7.851562 25.683594 6.53125 C 26.324219 0.894531 28.179688 0.332031 33.566406 0.00390625 Z M 33.566406 0.00390625 "/>
<path style=" stroke:none;fill-rule:nonzero;fill:rgb(85.490197%,85.490197%,85.490197%);fill-opacity:1;" d="M 7.570312 0.00390625 C 9.257812 0.0351562 10.964844 0.0703125 12.6875 0.105469 C 14.382812 0.128906 16.09375 0.15625 17.824219 0.183594 C 19.132812 0.21875 20.4375 0.25 21.785156 0.285156 L 21.785156 4.628906 C 16.605469 5.105469 11.425781 5.585938 6.085938 6.078125 C 11.265625 6.554688 16.445312 7.03125 21.785156 7.523438 L 21.785156 11.867188 L 4.660156 11.867188 C 5.132812 12.824219 5.601562 13.78125 6.085938 14.765625 C 8.546875 15.21875 11.191406 15.519531 14.023438 15.671875 C 15.46875 15.777344 16.914062 15.886719 18.402344 16 C 19.515625 16.070312 20.644531 16.140625 21.785156 16.214844 L 21.785156 20.558594 C 18.75 20.636719 15.71875 20.691406 12.6875 20.738281 C 11 20.773438 9.292969 20.804688 7.570312 20.839844 C 4.679688 20.652344 2.28125 19.59375 0.378906 17.660156 C 0.125 15.429688 0.0078125 13.015625 0.0234375 10.421875 C 0.015625 9.136719 0.0078125 7.851562 0 6.53125 C 0.613281 1.09375 2.34375 0.34375 7.570312 0.00390625 Z M 7.570312 0.00390625 "/>
</g>
</svg>
