<?xml version="1.0" encoding="UTF-8"?>
<svg xmlns="http://www.w3.org/2000/svg" xmlns:xlink="http://www.w3.org/1999/xlink" width="50px" height="29px" viewBox="0 0 50 29" version="1.1">
<defs>
<linearGradient id="linear0" gradientUnits="userSpaceOnUse" x1="99.709999" y1="0.65" x2="99.709999" y2="263.369995" gradientTransform="matrix(0.108106,0,0,-0.109965,-0.000000000000003069,29.050551)">
<stop offset="0" style="stop-color:rgb(49.411765%,27.058824%,11.372549%);stop-opacity:1;"/>
<stop offset="0.35" style="stop-color:rgb(70.980392%,42.745098%,16.078431%);stop-opacity:1;"/>
<stop offset="0.82" style="stop-color:rgb(86.27451%,63.529412%,15.294118%);stop-opacity:1;"/>
<stop offset="1" style="stop-color:rgb(98.823529%,88.627451%,44.313725%);stop-opacity:1;"/>
</linearGradient>
<linearGradient id="linear1" gradientUnits="userSpaceOnUse" x1="345.579987" y1="1.27" x2="345.579987" y2="264.140015" gradientTransform="matrix(0.108106,0,0,-0.109965,-0.000000000000003069,29.050551)">
<stop offset="0" style="stop-color:rgb(49.411765%,27.058824%,11.372549%);stop-opacity:1;"/>
<stop offset="0.35" style="stop-color:rgb(70.980392%,42.745098%,16.078431%);stop-opacity:1;"/>
<stop offset="0.82" style="stop-color:rgb(86.27451%,63.529412%,15.294118%);stop-opacity:1;"/>
<stop offset="1" style="stop-color:rgb(98.823529%,88.627451%,44.313725%);stop-opacity:1;"/>
</linearGradient>
</defs>
<g id="surface1">
<path style=" stroke:none;fill-rule:nonzero;fill:url(#linear0);" d="M 0 0.0898438 L 21.558594 0.0898438 L 21.558594 6.363281 L 7.347656 6.363281 L 7.347656 11.980469 L 19.125 11.980469 L 19.125 18.257812 L 7.347656 18.257812 L 7.347656 28.980469 L 0 28.980469 Z M 0 0.0898438 "/>
<path style=" stroke:none;fill-rule:nonzero;fill:rgb(97.254902%,68.235296%,25.098041%);fill-opacity:1;" d="M 7.347656 7.191406 L 6.535156 7.191406 L 6.535156 12.804688 L 18.316406 12.804688 L 18.316406 18.257812 L 19.128906 18.257812 L 19.128906 11.980469 L 7.347656 11.980469 Z M 7.347656 7.191406 "/>
<path style=" stroke:none;fill-rule:nonzero;fill:rgb(97.254902%,68.235296%,25.098041%);fill-opacity:1;" d="M 6.535156 19.082031 L 7.347656 19.082031 L 7.347656 28.996094 L 6.535156 28.996094 Z M 6.535156 19.082031 "/>
<path style=" stroke:none;fill-rule:nonzero;fill:rgb(97.254902%,68.235296%,25.098041%);fill-opacity:1;" d="M 0 0.914062 L 20.75 0.914062 L 20.75 6.363281 L 21.558594 6.363281 L 21.558594 0.0898438 L 0 0.0898438 Z M 0 0.914062 "/>
<path style=" stroke:none;fill-rule:nonzero;fill:url(#linear1);" d="M 41.398438 0.00390625 L 24.734375 0.00390625 L 24.734375 6.816406 L 25.992188 6.816406 C 25.992188 6.816406 26.074219 10.527344 28.074219 10.527344 C 28.070312 7.59375 30.40625 5.214844 33.289062 5.210938 C 38.054688 5.210938 42.125 11.171875 44.824219 13.984375 C 44.933594 14.101562 44.933594 14.28125 44.824219 14.398438 C 42.125 17.21875 38.054688 23.171875 33.289062 23.171875 C 30.410156 23.160156 28.085938 20.777344 28.089844 17.851562 C 28.089844 17.851562 25.992188 17.851562 25.992188 21.570312 L 24.71875 21.570312 L 24.71875 28.910156 L 41.398438 28.910156 C 46.878906 28.910156 50 25.359375 50 21.066406 L 50 7.804688 C 50.023438 3.511719 46.902344 0.00390625 41.398438 0.00390625 Z M 41.398438 0.00390625 "/>
<path style=" stroke:none;fill-rule:nonzero;fill:rgb(97.254902%,68.235296%,25.098041%);fill-opacity:1;" d="M 26.59375 18.890625 C 26.804688 18.769531 27.039062 18.699219 27.28125 18.675781 C 27.277344 21.605469 29.601562 23.980469 32.476562 23.996094 C 35.355469 23.996094 37.984375 21.820312 40.203125 19.46875 C 38.160156 21.472656 35.828125 23.171875 33.289062 23.171875 C 30.410156 23.160156 28.085938 20.777344 28.089844 17.851562 C 27.453125 17.921875 26.890625 18.3125 26.59375 18.890625 Z M 26.59375 18.890625 "/>
<path style=" stroke:none;fill-rule:nonzero;fill:rgb(97.254902%,68.235296%,25.098041%);fill-opacity:1;" d="M 25.179688 22.398438 C 25.183594 22.121094 25.199219 21.84375 25.230469 21.570312 L 24.71875 21.570312 L 24.71875 22.398438 Z M 25.179688 22.398438 "/>
<path style=" stroke:none;fill-rule:nonzero;fill:rgb(97.254902%,68.235296%,25.098041%);fill-opacity:1;" d="M 27.378906 10.332031 C 27.59375 10.460938 27.839844 10.53125 28.089844 10.527344 C 28.09375 9.328125 28.496094 8.167969 29.234375 7.230469 C 28.277344 8.007812 27.621094 9.105469 27.378906 10.332031 Z M 27.378906 10.332031 "/>
<path style=" stroke:none;fill-rule:nonzero;fill:rgb(97.254902%,68.235296%,25.098041%);fill-opacity:1;" d="M 41.398438 0.00390625 L 24.734375 0.00390625 L 24.734375 0.828125 L 40.585938 0.828125 C 46.066406 0.828125 49.1875 4.335938 49.1875 8.632812 L 49.1875 21.894531 C 49.214844 23.695312 48.609375 25.453125 47.476562 26.839844 C 49.117188 25.390625 50.039062 23.277344 50 21.066406 L 50 7.804688 C 50.023438 3.511719 46.902344 0.00390625 41.398438 0.00390625 Z M 41.398438 0.00390625 "/>
</g>
</svg>
