<?xml version="1.0" encoding="UTF-8"?>
<svg xmlns="http://www.w3.org/2000/svg" xmlns:xlink="http://www.w3.org/1999/xlink" width="48px" height="50px" viewBox="0 0 48 49" version="1.1">
<defs>
<clipPath id="clip1">
  <path d="M 0 19 L 18 19 L 18 36 L 0 36 Z M 0 19 "/>
</clipPath>
<clipPath id="clip2">
  <path d="M 13.386719 30.058594 C 13.339844 29.914062 13.285156 29.785156 13.230469 29.664062 C 13.839844 29.738281 14.480469 29.683594 15.097656 29.476562 C 17.308594 28.738281 18.488281 26.34375 17.75 24.152344 C 17.007812 21.949219 14.613281 20.769531 12.414062 21.507812 C 11.796875 21.71875 11.253906 22.058594 10.8125 22.488281 C 10.78125 22.355469 10.746094 22.234375 10.703125 22.101562 C 9.960938 19.898438 7.566406 18.722656 5.367188 19.457031 C 3.160156 20.195312 1.976562 22.589844 2.714844 24.78125 C 2.980469 25.574219 3.46875 26.246094 4.085938 26.730469 C 4.582031 27.140625 5.101562 27.414062 5.796875 27.570312 C 2.859375 28.328125 0.363281 25.71875 0.363281 25.71875 L 3.058594 33.332031 C 3.058594 33.332031 3.929688 29.011719 6.261719 28.558594 C 6.007812 28.859375 5.796875 29.167969 5.632812 29.484375 C 5.136719 30.457031 5.015625 31.625 5.390625 32.738281 C 6.128906 34.941406 8.527344 36.121094 10.722656 35.382812 C 12.933594 34.644531 14.113281 32.25 13.375 30.058594 Z M 13.386719 30.058594 "/>
</clipPath>
<linearGradient id="linear0" gradientUnits="userSpaceOnUse" x1="10.06" y1="45.919998" x2="10.16" y2="45.919998" gradientTransform="matrix(-176.021159,0.000000000000021505,0.000000000000021556,175.604442,1788.209834,-8035.812634)">
<stop offset="0" style="stop-color:rgb(28.235294%,7.058824%,10.196078%);stop-opacity:1;"/>
<stop offset="1" style="stop-color:rgb(49.019608%,7.058824%,15.294118%);stop-opacity:1;"/>
</linearGradient>
<clipPath id="clip3">
  <path d="M 6 0 L 48 0 L 48 49 L 6 49 Z M 6 0 "/>
</clipPath>
<clipPath id="clip4">
  <path d="M 41.949219 15.832031 C 45.03125 15.425781 47.636719 17.949219 47.636719 17.949219 L 44.125 9.078125 C 44.125 9.078125 43.4375 13.210938 41.328125 14.511719 C 43.140625 10.269531 39.054688 6.058594 34.480469 7.382812 C 28.925781 8.980469 28.449219 13.675781 23.390625 20.703125 C 23.515625 20.132812 23.648438 19.589844 23.777344 19.0625 C 25.269531 14.929688 26.914062 11.910156 29.910156 7.515625 C 23.183594 5.53125 19.78125 3.921875 13.972656 -0.0117188 C 11.984375 6.699219 10.371094 10.09375 6.425781 15.890625 C 10.570312 17.113281 16.578125 19.425781 16.578125 19.425781 C 18.941406 20.40625 20.113281 21.253906 20.785156 23.226562 C 20.796875 23.269531 20.875 23.523438 20.894531 23.613281 C 21.328125 25.308594 20.632812 26.652344 19.738281 28.296875 C 18.410156 30.742188 16.863281 33.640625 14.921875 37.320312 C 12.359375 42.179688 12.105469 45.078125 12.027344 47.644531 C 11.996094 48.546875 12.269531 49.023438 12.777344 48.976562 L 14.015625 48.976562 C 14.523438 48.933594 14.765625 48.539062 14.8125 47.898438 C 14.988281 45.429688 14.820312 43.171875 16.699219 37.96875 C 18.246094 33.671875 20.101562 29.15625 21.214844 26.300781 C 19.292969 34.125 17.054688 37.164062 19.570312 42.003906 C 21.921875 46.53125 28.515625 46.265625 29.808594 41.054688 C 34.347656 43.953125 39.308594 39.613281 37.894531 34.71875 C 36.292969 29.175781 31.585938 28.703125 24.542969 23.65625 C 33.53125 25.628906 36.644531 28.316406 41.804688 25.652344 C 45.988281 23.480469 46.078125 17.71875 41.957031 15.824219 Z M 41.949219 15.832031 "/>
</clipPath>
<linearGradient id="linear1" gradientUnits="userSpaceOnUse" x1="3.47" y1="47.549999" x2="3.57" y2="47.549999" gradientTransform="matrix(-411.993555,0.000000000000050335,0.000000000000050455,411.018191,1477.232185,-19520.488611)">
<stop offset="0" style="stop-color:rgb(28.235294%,7.058824%,10.196078%);stop-opacity:1;"/>
<stop offset="1" style="stop-color:rgb(49.019608%,7.058824%,15.294118%);stop-opacity:1;"/>
</linearGradient>
</defs>
<g id="surface1">
<g clip-path="url(#clip1)" clip-rule="nonzero">
<g clip-path="url(#clip2)" clip-rule="nonzero">
<path style=" stroke:none;fill-rule:nonzero;fill:url(#linear0);" d="M 13.386719 30.058594 C 13.339844 29.914062 13.285156 29.785156 13.230469 29.664062 C 13.839844 29.738281 14.480469 29.683594 15.097656 29.476562 C 17.308594 28.738281 18.488281 26.34375 17.75 24.152344 C 17.007812 21.949219 14.613281 20.769531 12.414062 21.507812 C 11.796875 21.71875 11.253906 22.058594 10.8125 22.488281 C 10.78125 22.355469 10.746094 22.234375 10.703125 22.101562 C 9.960938 19.898438 7.566406 18.722656 5.367188 19.457031 C 3.160156 20.195312 1.976562 22.589844 2.714844 24.78125 C 2.980469 25.574219 3.46875 26.246094 4.085938 26.730469 C 4.582031 27.140625 5.101562 27.414062 5.796875 27.570312 C 2.871094 28.339844 0.375 25.730469 0.375 25.730469 L 3.070312 33.34375 C 3.070312 33.34375 3.941406 29.023438 6.273438 28.570312 C 6.019531 28.867188 5.808594 29.175781 5.644531 29.496094 C 5.148438 30.464844 5.023438 31.632812 5.402344 32.746094 C 6.140625 34.953125 8.539062 36.128906 10.734375 35.390625 C 12.945312 34.652344 14.125 32.261719 13.386719 30.070312 "/>
</g>
</g>
<g clip-path="url(#clip3)" clip-rule="nonzero">
<g clip-path="url(#clip4)" clip-rule="nonzero">
<path style=" stroke:none;fill-rule:nonzero;fill:url(#linear1);" d="M 41.949219 15.832031 C 45.03125 15.425781 47.636719 17.949219 47.636719 17.949219 L 44.125 9.078125 C 44.125 9.078125 43.4375 13.210938 41.328125 14.511719 C 43.140625 10.269531 39.054688 6.058594 34.480469 7.382812 C 28.925781 8.980469 28.449219 13.675781 23.390625 20.703125 C 23.515625 20.132812 23.648438 19.589844 23.777344 19.0625 C 25.269531 14.929688 26.914062 11.910156 29.910156 7.515625 C 23.183594 5.542969 19.78125 3.933594 13.972656 0 C 11.984375 6.710938 10.371094 10.105469 6.425781 15.898438 C 10.570312 17.121094 16.578125 19.4375 16.578125 19.4375 C 18.941406 20.417969 20.113281 21.265625 20.785156 23.238281 C 20.796875 23.28125 20.875 23.535156 20.894531 23.625 C 21.328125 25.320312 20.632812 26.664062 19.738281 28.308594 C 18.410156 30.753906 16.863281 33.652344 14.921875 37.332031 C 12.359375 42.191406 12.105469 45.089844 12.027344 47.65625 C 11.996094 48.558594 12.269531 49.03125 12.777344 48.988281 L 14.015625 48.988281 C 14.523438 48.945312 14.765625 48.546875 14.8125 47.910156 C 14.988281 45.441406 14.820312 43.183594 16.699219 37.980469 C 18.246094 33.683594 20.101562 29.167969 21.214844 26.3125 C 19.292969 34.136719 17.054688 37.175781 19.570312 42.015625 C 21.921875 46.542969 28.515625 46.277344 29.808594 41.066406 C 34.347656 43.964844 39.308594 39.625 37.894531 34.730469 C 36.292969 29.1875 31.585938 28.714844 24.542969 23.667969 C 33.53125 25.640625 36.644531 28.328125 41.804688 25.664062 C 45.988281 23.492188 46.078125 17.730469 41.957031 15.832031 "/>
</g>
</g>
</g>
</svg>
