<?xml version="1.0" encoding="UTF-8"?>
<svg xmlns="http://www.w3.org/2000/svg" xmlns:xlink="http://www.w3.org/1999/xlink" width="50px" height="37px" viewBox="0 0 49 37" version="1.1">
<g id="surface1">
<path style=" stroke:none;fill-rule:nonzero;fill:rgb(28.235295%,68.235296%,88.627452%);fill-opacity:1;" d="M 43.953125 0.230469 C 43.953125 0.230469 43.996094 0.230469 44.015625 0.230469 C 44.636719 0.230469 45.257812 0.292969 47.339844 1.25 C 47.339844 1.25 47.359375 1.269531 47.367188 1.269531 C 47.492188 1.359375 47.601562 1.472656 47.707031 1.578125 C 47.714844 1.585938 47.734375 1.605469 47.746094 1.617188 C 47.746094 1.617188 47.765625 1.636719 47.777344 1.648438 C 47.777344 1.648438 47.777344 1.648438 47.785156 1.660156 C 47.816406 1.691406 47.839844 1.71875 47.867188 1.75 C 47.867188 1.75 47.878906 1.761719 47.890625 1.773438 C 47.96875 1.863281 48.050781 1.964844 48.132812 2.070312 C 48.132812 2.078125 48.152344 2.101562 48.164062 2.109375 C 48.214844 2.171875 48.257812 2.234375 48.296875 2.304688 C 48.296875 2.304688 48.296875 2.316406 48.308594 2.324219 C 48.398438 2.460938 48.46875 2.59375 48.542969 2.734375 C 48.542969 2.734375 48.542969 2.746094 48.542969 2.757812 C 48.777344 3.230469 48.898438 3.742188 48.96875 4.523438 C 48.96875 4.523438 48.96875 4.53125 48.96875 4.542969 C 49 5.179688 48.929688 5.824219 48.144531 8.523438 C 48.144531 8.523438 48.144531 8.523438 48.144531 8.535156 C 48.082031 8.679688 48.03125 8.8125 47.96875 8.957031 C 47.96875 8.957031 47.96875 8.964844 47.96875 8.976562 C 47.878906 9.171875 47.796875 9.375 47.695312 9.570312 C 47.675781 9.613281 47.664062 9.644531 47.644531 9.683594 C 47.582031 9.808594 47.523438 9.941406 47.449219 10.0625 C 47.429688 10.09375 47.421875 10.125 47.398438 10.15625 C 47.359375 10.238281 47.316406 10.320312 47.277344 10.390625 C 47.265625 10.414062 47.246094 10.445312 47.238281 10.464844 C 47.195312 10.535156 47.15625 10.609375 47.125 10.679688 C 47.105469 10.710938 47.082031 10.742188 47.074219 10.78125 C 47.03125 10.863281 46.980469 10.945312 46.941406 11.027344 C 46.929688 11.050781 46.921875 11.070312 46.910156 11.089844 C 46.820312 11.246094 46.738281 11.386719 46.644531 11.542969 C 46.625 11.574219 46.613281 11.59375 46.59375 11.625 C 46.542969 11.707031 46.503906 11.777344 46.453125 11.859375 C 46.453125 11.871094 46.441406 11.878906 46.429688 11.890625 C 46.410156 11.921875 46.390625 11.953125 46.371094 11.984375 C 46.359375 12.003906 46.351562 12.023438 46.328125 12.042969 C 46.277344 12.117188 46.226562 12.199219 46.1875 12.269531 C 46.15625 12.320312 46.125 12.375 46.085938 12.414062 C 46.085938 12.414062 46.085938 12.425781 46.074219 12.433594 C 46.054688 12.457031 46.042969 12.484375 46.023438 12.507812 C 45.972656 12.578125 45.933594 12.648438 45.878906 12.722656 C 45.871094 12.742188 45.851562 12.761719 45.839844 12.785156 C 45.839844 12.785156 45.828125 12.804688 45.820312 12.8125 C 45.808594 12.835938 45.800781 12.84375 45.789062 12.867188 C 45.71875 12.96875 45.65625 13.0625 45.585938 13.164062 C 45.574219 13.183594 45.554688 13.203125 45.542969 13.214844 C 45.503906 13.277344 45.453125 13.335938 45.410156 13.398438 C 45.402344 13.410156 45.390625 13.429688 45.382812 13.441406 C 45.339844 13.492188 45.300781 13.554688 45.257812 13.605469 C 45.238281 13.636719 45.21875 13.667969 45.199219 13.695312 C 45.15625 13.75 45.117188 13.800781 45.074219 13.859375 C 45.046875 13.902344 45.015625 13.933594 44.992188 13.972656 C 44.953125 14.027344 44.914062 14.078125 44.871094 14.128906 C 44.851562 14.148438 44.832031 14.179688 44.820312 14.199219 C 44.789062 14.242188 44.757812 14.28125 44.730469 14.324219 C 44.71875 14.332031 44.707031 14.355469 44.699219 14.363281 C 44.636719 14.445312 44.566406 14.539062 44.503906 14.621094 C 44.496094 14.632812 44.484375 14.652344 44.472656 14.660156 C 44.445312 14.703125 44.402344 14.753906 44.363281 14.796875 C 44.339844 14.824219 44.320312 14.855469 44.289062 14.878906 C 44.261719 14.917969 44.21875 14.960938 44.1875 15 C 44.167969 15.019531 44.15625 15.042969 44.136719 15.0625 C 44.117188 15.09375 44.097656 15.113281 44.066406 15.144531 C 44.046875 15.164062 44.035156 15.183594 44.015625 15.207031 C 43.953125 15.289062 43.882812 15.359375 43.820312 15.441406 C 43.800781 15.472656 43.769531 15.492188 43.75 15.523438 C 43.730469 15.542969 43.710938 15.574219 43.6875 15.59375 C 43.667969 15.617188 43.648438 15.636719 43.636719 15.667969 C 43.609375 15.699219 43.578125 15.738281 43.546875 15.769531 C 43.527344 15.789062 43.503906 15.8125 43.496094 15.832031 C 43.464844 15.871094 43.425781 15.914062 43.394531 15.953125 C 43.382812 15.964844 43.363281 15.984375 43.351562 15.996094 C 43.351562 15.996094 43.34375 16.007812 43.332031 16.015625 C 43.3125 16.035156 43.300781 16.058594 43.28125 16.078125 C 43.25 16.109375 43.21875 16.148438 43.191406 16.179688 C 43.167969 16.199219 43.148438 16.222656 43.128906 16.253906 C 43.097656 16.285156 43.078125 16.3125 43.046875 16.355469 C 43.015625 16.386719 42.996094 16.417969 42.964844 16.449219 C 42.925781 16.488281 42.894531 16.53125 42.851562 16.570312 C 42.832031 16.589844 42.8125 16.613281 42.792969 16.640625 C 42.773438 16.671875 42.742188 16.695312 42.722656 16.722656 C 42.722656 16.734375 42.699219 16.746094 42.691406 16.753906 C 42.648438 16.796875 42.625 16.824219 42.617188 16.835938 C 42.617188 16.835938 42.597656 16.859375 42.589844 16.867188 C 42.558594 16.898438 42.527344 16.929688 42.496094 16.972656 C 42.476562 16.992188 42.457031 17.011719 42.445312 17.03125 C 42.414062 17.0625 42.382812 17.105469 42.355469 17.136719 C 42.355469 17.136719 42.332031 17.15625 42.324219 17.164062 C 42.28125 17.207031 42.25 17.246094 42.210938 17.289062 C 42.199219 17.300781 42.179688 17.320312 42.171875 17.328125 C 42.128906 17.371094 42.089844 17.414062 42.046875 17.464844 C 42.027344 17.484375 42.007812 17.503906 41.988281 17.535156 C 41.988281 17.535156 41.988281 17.535156 41.976562 17.546875 C 41.976562 17.546875 41.964844 17.566406 41.957031 17.566406 C 41.9375 17.585938 41.914062 17.605469 41.90625 17.628906 C 41.894531 17.636719 41.875 17.660156 41.863281 17.679688 C 41.84375 17.699219 41.824219 17.71875 41.804688 17.742188 C 41.78125 17.761719 41.761719 17.78125 41.753906 17.800781 C 41.722656 17.832031 41.703125 17.863281 41.671875 17.882812 C 41.652344 17.90625 41.628906 17.925781 41.621094 17.945312 C 41.589844 17.988281 41.546875 18.019531 41.519531 18.058594 C 41.519531 18.058594 41.507812 18.070312 41.496094 18.078125 C 41.496094 18.078125 41.496094 18.078125 41.488281 18.089844 C 41.476562 18.101562 41.457031 18.121094 41.445312 18.128906 C 41.425781 18.160156 41.394531 18.183594 41.375 18.203125 C 41.375 18.203125 41.375 18.203125 41.363281 18.210938 C 41.34375 18.234375 41.324219 18.253906 41.3125 18.265625 C 41.304688 18.273438 41.285156 18.292969 41.273438 18.304688 C 41.273438 18.304688 41.269531 18.308594 41.261719 18.316406 C 41.261719 18.316406 41.222656 18.355469 41.210938 18.375 C 41.179688 18.40625 41.152344 18.4375 41.121094 18.46875 C 41.121094 18.46875 41.109375 18.480469 41.101562 18.488281 C 41.078125 18.511719 41.070312 18.519531 41.050781 18.542969 C 41.027344 18.5625 41.019531 18.570312 41 18.59375 C 40.96875 18.625 40.9375 18.652344 40.90625 18.683594 C 40.875 18.714844 40.835938 18.757812 40.804688 18.789062 C 40.773438 18.816406 40.742188 18.847656 40.710938 18.878906 C 40.691406 18.898438 40.683594 18.910156 40.660156 18.929688 C 40.640625 18.953125 40.632812 18.960938 40.609375 18.980469 C 40.609375 18.980469 40.589844 19.003906 40.582031 19.011719 C 40.550781 19.042969 40.519531 19.066406 40.488281 19.09375 C 40.46875 19.117188 40.449219 19.136719 40.425781 19.15625 C 40.425781 19.15625 40.425781 19.15625 40.417969 19.167969 C 40.40625 19.175781 40.386719 19.199219 40.375 19.207031 C 40.355469 19.230469 40.335938 19.25 40.324219 19.257812 C 40.324219 19.257812 40.324219 19.257812 40.316406 19.269531 C 40.292969 19.289062 40.265625 19.320312 40.234375 19.339844 C 40.222656 19.351562 40.203125 19.371094 40.191406 19.382812 C 40.191406 19.382812 40.183594 19.394531 40.171875 19.402344 C 40.171875 19.402344 40.164062 19.410156 40.152344 19.421875 C 40.152344 19.421875 40.082031 19.496094 40.050781 19.527344 C 40.03125 19.546875 40.007812 19.566406 39.988281 19.585938 C 39.957031 19.617188 39.9375 19.640625 39.90625 19.671875 C 39.886719 19.691406 39.867188 19.710938 39.847656 19.730469 C 39.824219 19.753906 39.804688 19.773438 39.773438 19.792969 C 39.753906 19.8125 39.734375 19.835938 39.714844 19.855469 C 39.695312 19.875 39.671875 19.886719 39.664062 19.90625 C 39.640625 19.925781 39.621094 19.945312 39.613281 19.957031 C 39.589844 19.976562 39.570312 19.988281 39.5625 20.007812 C 39.539062 20.027344 39.519531 20.050781 39.488281 20.070312 C 39.488281 20.070312 39.46875 20.089844 39.457031 20.101562 C 39.457031 20.101562 39.457031 20.101562 39.449219 20.109375 C 39.386719 20.164062 39.335938 20.214844 39.277344 20.277344 C 39.253906 20.296875 39.234375 20.316406 39.214844 20.335938 C 39.171875 20.367188 39.144531 20.410156 39.101562 20.441406 C 39.101562 20.441406 39.082031 20.460938 39.070312 20.46875 C 39.039062 20.5 39 20.53125 38.96875 20.574219 C 38.949219 20.59375 38.929688 20.605469 38.917969 20.625 C 38.886719 20.65625 38.847656 20.6875 38.816406 20.714844 C 38.804688 20.714844 38.796875 20.738281 38.785156 20.746094 C 38.746094 20.789062 38.71875 20.8125 38.703125 20.820312 C 38.703125 20.820312 38.683594 20.839844 38.675781 20.851562 C 38.644531 20.882812 38.613281 20.902344 38.582031 20.933594 C 38.5625 20.941406 38.550781 20.964844 38.53125 20.972656 C 38.511719 20.992188 38.480469 21.015625 38.460938 21.035156 C 38.441406 21.046875 38.429688 21.066406 38.410156 21.074219 C 38.378906 21.105469 38.335938 21.136719 38.308594 21.167969 C 38.265625 21.199219 38.234375 21.230469 38.195312 21.261719 C 38.175781 21.28125 38.152344 21.300781 38.125 21.324219 C 38.09375 21.34375 38.074219 21.363281 38.042969 21.394531 C 38.011719 21.425781 37.980469 21.457031 37.949219 21.476562 C 37.929688 21.488281 37.910156 21.507812 37.898438 21.527344 C 37.867188 21.558594 37.839844 21.578125 37.808594 21.597656 C 37.789062 21.621094 37.765625 21.628906 37.757812 21.652344 C 37.726562 21.679688 37.695312 21.703125 37.664062 21.734375 C 37.644531 21.742188 37.632812 21.761719 37.613281 21.773438 C 37.582031 21.792969 37.5625 21.824219 37.53125 21.84375 C 37.511719 21.867188 37.480469 21.886719 37.460938 21.90625 C 37.429688 21.9375 37.390625 21.96875 37.359375 21.988281 C 37.339844 22.011719 37.316406 22.03125 37.289062 22.050781 C 37.257812 22.082031 37.214844 22.113281 37.1875 22.132812 C 37.164062 22.152344 37.144531 22.175781 37.125 22.183594 C 37.09375 22.214844 37.0625 22.234375 37.023438 22.265625 C 37.003906 22.285156 36.972656 22.308594 36.953125 22.328125 C 36.953125 22.328125 36.949219 22.332031 36.941406 22.339844 C 36.941406 22.339844 36.878906 22.390625 36.847656 22.410156 C 36.820312 22.429688 36.789062 22.460938 36.769531 22.480469 C 36.746094 22.503906 36.71875 22.523438 36.695312 22.542969 C 36.695312 22.542969 36.695312 22.542969 36.6875 22.554688 C 36.664062 22.574219 36.636719 22.59375 36.613281 22.617188 C 36.5625 22.65625 36.523438 22.6875 36.472656 22.726562 C 36.441406 22.75 36.410156 22.78125 36.378906 22.800781 C 36.359375 22.820312 36.328125 22.839844 36.300781 22.863281 C 36.277344 22.882812 36.257812 22.902344 36.226562 22.914062 C 36.1875 22.945312 36.15625 22.972656 36.117188 23.003906 C 36.085938 23.027344 36.054688 23.058594 36.023438 23.078125 C 35.984375 23.109375 35.933594 23.148438 35.890625 23.179688 C 35.871094 23.191406 35.851562 23.210938 35.828125 23.222656 C 35.828125 23.222656 35.828125 23.222656 35.820312 23.222656 C 35.789062 23.242188 35.769531 23.261719 35.738281 23.292969 C 35.699219 23.324219 35.65625 23.363281 35.605469 23.394531 C 35.59375 23.394531 35.585938 23.414062 35.574219 23.425781 C 35.515625 23.46875 35.464844 23.519531 35.402344 23.558594 C 35.382812 23.582031 35.359375 23.589844 35.339844 23.609375 C 35.339844 23.609375 35.320312 23.621094 35.308594 23.632812 C 35.289062 23.652344 35.257812 23.671875 35.238281 23.691406 C 35.175781 23.734375 35.125 23.785156 35.066406 23.828125 C 35.046875 23.847656 35.023438 23.855469 34.996094 23.878906 C 34.902344 23.949219 34.820312 24.011719 34.730469 24.082031 C 34.6875 24.113281 34.65625 24.132812 34.628906 24.164062 C 34.585938 24.195312 34.535156 24.238281 34.496094 24.269531 C 34.453125 24.296875 34.414062 24.328125 34.371094 24.359375 C 34.332031 24.390625 34.289062 24.421875 34.25 24.453125 C 34.21875 24.472656 34.179688 24.503906 34.148438 24.535156 C 34.105469 24.566406 34.066406 24.597656 34.027344 24.625 C 33.996094 24.648438 33.964844 24.667969 33.933594 24.699219 C 33.933594 24.699219 33.925781 24.699219 33.914062 24.710938 C 33.894531 24.71875 33.882812 24.730469 33.863281 24.738281 C 33.792969 24.792969 33.710938 24.851562 33.636719 24.902344 C 33.617188 24.925781 33.585938 24.933594 33.566406 24.957031 C 33.566406 24.957031 33.546875 24.964844 33.535156 24.976562 C 33.535156 24.976562 33.535156 24.976562 33.527344 24.984375 C 33.476562 25.027344 33.414062 25.066406 33.363281 25.097656 C 33.363281 25.097656 33.363281 25.097656 33.351562 25.109375 C 33.351562 25.109375 33.332031 25.121094 33.324219 25.128906 C 33.300781 25.148438 33.269531 25.160156 33.25 25.179688 C 33.199219 25.222656 33.148438 25.253906 33.097656 25.285156 C 33.058594 25.316406 33.027344 25.335938 32.984375 25.367188 C 32.933594 25.40625 32.894531 25.4375 32.84375 25.46875 C 32.8125 25.488281 32.78125 25.507812 32.761719 25.53125 C 32.761719 25.53125 32.742188 25.539062 32.730469 25.550781 C 32.730469 25.550781 32.730469 25.550781 32.722656 25.550781 C 32.640625 25.613281 32.546875 25.671875 32.464844 25.734375 C 32.445312 25.753906 32.414062 25.765625 32.394531 25.785156 C 32.324219 25.839844 32.253906 25.890625 32.179688 25.929688 C 32.148438 25.949219 32.121094 25.972656 32.089844 25.992188 C 32.046875 26.023438 32.007812 26.054688 31.957031 26.085938 C 31.914062 26.113281 31.875 26.144531 31.835938 26.167969 C 31.761719 26.21875 31.691406 26.257812 31.628906 26.308594 C 31.621094 26.308594 31.609375 26.332031 31.601562 26.332031 C 31.578125 26.339844 31.558594 26.359375 31.527344 26.371094 C 31.507812 26.382812 31.488281 26.402344 31.457031 26.414062 C 31.386719 26.464844 31.304688 26.515625 31.234375 26.554688 C 31.171875 26.597656 31.109375 26.636719 31.050781 26.679688 C 31.007812 26.710938 30.96875 26.742188 30.917969 26.761719 C 30.917969 26.761719 30.917969 26.761719 30.90625 26.761719 C 30.855469 26.800781 30.792969 26.832031 30.742188 26.875 C 30.722656 26.894531 30.691406 26.90625 30.671875 26.925781 C 30.601562 26.976562 30.519531 27.027344 30.449219 27.070312 C 30.417969 27.089844 30.375 27.109375 30.347656 27.132812 C 30.335938 27.132812 30.316406 27.152344 30.304688 27.160156 C 30.273438 27.183594 30.253906 27.191406 30.222656 27.214844 C 30.140625 27.265625 30.070312 27.316406 29.988281 27.355469 C 29.957031 27.378906 29.9375 27.386719 29.90625 27.40625 C 29.898438 27.40625 29.886719 27.417969 29.878906 27.429688 C 29.878906 27.429688 29.867188 27.429688 29.855469 27.429688 L 29.804688 27.460938 C 29.804688 27.460938 29.796875 27.460938 29.785156 27.460938 C 29.773438 27.460938 29.765625 27.46875 29.753906 27.480469 C 29.734375 27.5 29.703125 27.511719 29.683594 27.53125 C 29.601562 27.582031 29.53125 27.625 29.449219 27.675781 C 29.429688 27.683594 29.40625 27.695312 29.386719 27.714844 C 29.316406 27.765625 29.234375 27.808594 29.164062 27.859375 C 29.113281 27.890625 29.070312 27.921875 29.019531 27.953125 C 28.960938 27.992188 28.910156 28.023438 28.847656 28.054688 C 28.808594 28.074219 28.765625 28.105469 28.726562 28.125 C 28.652344 28.167969 28.59375 28.207031 28.519531 28.25 C 28.5 28.261719 28.46875 28.28125 28.449219 28.289062 C 28.378906 28.332031 28.308594 28.371094 28.246094 28.414062 C 28.207031 28.433594 28.164062 28.464844 28.132812 28.484375 C 28.050781 28.535156 27.960938 28.589844 27.878906 28.640625 C 27.816406 28.679688 27.757812 28.710938 27.695312 28.753906 C 27.59375 28.8125 27.492188 28.875 27.398438 28.9375 C 27.398438 28.9375 27.390625 28.9375 27.378906 28.949219 C 27.347656 28.96875 27.308594 28.988281 27.277344 29.007812 C 27.257812 29.007812 27.246094 29.03125 27.226562 29.039062 C 27.136719 29.089844 27.054688 29.140625 26.960938 29.195312 C 26.929688 29.214844 26.902344 29.226562 26.878906 29.246094 C 26.796875 29.296875 26.71875 29.347656 26.636719 29.390625 C 26.585938 29.417969 26.542969 29.441406 26.492188 29.472656 C 26.433594 29.5 26.371094 29.542969 26.308594 29.574219 C 26.257812 29.605469 26.207031 29.636719 26.144531 29.664062 C 26.085938 29.695312 26.023438 29.738281 25.960938 29.769531 C 25.921875 29.789062 25.882812 29.820312 25.832031 29.839844 C 25.726562 29.902344 25.617188 29.964844 25.515625 30.023438 C 25.472656 30.046875 25.421875 30.078125 25.382812 30.097656 C 25.300781 30.136719 25.230469 30.1875 25.148438 30.230469 C 25.117188 30.242188 25.097656 30.261719 25.066406 30.269531 C 25.066406 30.269531 25.046875 30.28125 25.035156 30.292969 C 25.015625 30.300781 24.984375 30.324219 24.964844 30.332031 C 24.773438 30.441406 24.628906 30.519531 24.527344 30.570312 C 24.527344 30.570312 24.433594 30.621094 24.394531 30.640625 C 24.332031 30.671875 24.269531 30.703125 24.21875 30.734375 C 24.179688 30.753906 24.128906 30.773438 24.085938 30.804688 C 24.015625 30.847656 23.945312 30.886719 23.863281 30.929688 C 23.832031 30.9375 23.8125 30.960938 23.78125 30.96875 C 23.699219 31.011719 23.628906 31.050781 23.546875 31.09375 C 23.507812 31.113281 23.464844 31.132812 23.425781 31.152344 C 23.34375 31.195312 23.261719 31.246094 23.179688 31.289062 C 23.179688 31.289062 23.167969 31.289062 23.160156 31.289062 C 23.160156 31.289062 23.160156 31.289062 23.148438 31.289062 C 23.117188 31.308594 23.078125 31.328125 23.046875 31.339844 C 22.984375 31.371094 22.914062 31.410156 22.855469 31.441406 C 22.8125 31.460938 22.761719 31.492188 22.722656 31.511719 C 22.648438 31.554688 22.566406 31.59375 22.488281 31.636719 C 22.488281 31.636719 22.476562 31.636719 22.464844 31.636719 C 22.261719 31.738281 22.058594 31.839844 21.863281 31.945312 C 21.824219 31.964844 21.773438 31.984375 21.734375 32.015625 C 21.691406 32.035156 21.640625 32.058594 21.601562 32.078125 C 21.570312 32.089844 21.550781 32.109375 21.519531 32.117188 C 21.417969 32.171875 21.316406 32.222656 21.210938 32.273438 C 21.183594 32.292969 21.140625 32.304688 21.109375 32.324219 C 21.109375 32.324219 21.101562 32.324219 21.089844 32.324219 C 21.082031 32.324219 21.070312 32.335938 21.058594 32.34375 C 20.96875 32.394531 20.875 32.4375 20.773438 32.476562 C 20.714844 32.507812 20.652344 32.539062 20.589844 32.558594 C 20.519531 32.601562 20.4375 32.632812 20.367188 32.671875 C 20.304688 32.703125 20.253906 32.722656 20.191406 32.753906 C 20.113281 32.796875 20.019531 32.835938 19.9375 32.878906 C 19.867188 32.910156 19.804688 32.941406 19.746094 32.96875 C 19.664062 33.011719 19.582031 33.042969 19.5 33.082031 C 19.460938 33.105469 19.417969 33.113281 19.386719 33.136719 C 19.265625 33.195312 19.132812 33.246094 19.011719 33.308594 C 19 33.308594 18.992188 33.308594 18.980469 33.320312 C 18.980469 33.320312 18.96875 33.320312 18.960938 33.320312 C 18.910156 33.339844 18.859375 33.359375 18.808594 33.390625 C 18.695312 33.441406 18.574219 33.492188 18.460938 33.546875 C 18.410156 33.566406 18.359375 33.585938 18.316406 33.605469 C 18.132812 33.6875 17.960938 33.761719 17.777344 33.832031 C 17.757812 33.832031 17.746094 33.84375 17.726562 33.851562 C 17.644531 33.882812 17.574219 33.914062 17.492188 33.957031 C 17.492188 33.957031 17.484375 33.957031 17.472656 33.957031 C 17.113281 34.097656 16.757812 34.242188 16.390625 34.386719 C 16.371094 34.386719 16.351562 34.40625 16.328125 34.40625 C 15.648438 34.675781 14.953125 34.921875 13.457031 35.414062 C 13.433594 35.414062 13.40625 35.421875 13.382812 35.433594 C 12.875 35.585938 12.355469 35.742188 10.367188 36.222656 C 10.367188 36.222656 10.347656 36.222656 10.347656 36.222656 C 9.878906 36.316406 9.410156 36.410156 7.144531 36.65625 C 7.144531 36.65625 7.125 36.65625 7.125 36.65625 C 6.941406 36.65625 6.769531 36.664062 6.585938 36.664062 C 6.585938 36.664062 6.566406 36.664062 6.554688 36.664062 C 6.503906 36.664062 6.460938 36.664062 6.410156 36.664062 C 6.371094 36.664062 6.339844 36.664062 6.300781 36.664062 C 6.074219 36.664062 5.851562 36.664062 5.625 36.65625 C 5.625 36.65625 5.605469 36.65625 5.597656 36.65625 C 5.546875 36.65625 5.496094 36.65625 5.441406 36.644531 C 5.441406 36.644531 5.4375 36.644531 5.421875 36.644531 C 4.738281 36.59375 4.058594 36.492188 3.34375 36.265625 C 3.34375 36.265625 3.339844 36.265625 3.332031 36.265625 C 3.015625 36.164062 2.710938 36.039062 2.414062 35.886719 C 2.414062 35.886719 2.414062 35.886719 2.40625 35.886719 C 2.292969 35.832031 2.191406 35.773438 2.089844 35.710938 C 2.089844 35.710938 2.078125 35.710938 2.070312 35.699219 C 1.925781 35.617188 1.792969 35.527344 1.671875 35.433594 C 1.671875 35.433594 1.671875 35.433594 1.652344 35.421875 C 1.589844 35.382812 1.539062 35.332031 1.488281 35.289062 C 1.46875 35.28125 1.457031 35.257812 1.4375 35.25 C 1.398438 35.207031 1.34375 35.167969 1.304688 35.136719 C 1.292969 35.125 1.273438 35.105469 1.253906 35.09375 C 1.191406 35.042969 1.132812 34.980469 1.082031 34.921875 C 1.070312 34.898438 1.050781 34.890625 1.039062 34.871094 C 1.007812 34.828125 0.96875 34.796875 0.9375 34.757812 C 0.925781 34.734375 0.90625 34.726562 0.898438 34.703125 C 0.742188 34.53125 0.613281 34.335938 0.5 34.128906 C 0.5 34.128906 0.5 34.121094 0.488281 34.109375 C 0.246094 33.65625 0.101562 33.15625 0.0507812 32.652344 C 0.0507812 32.652344 0.0507812 32.640625 0.0507812 32.621094 C 0.0117188 32.292969 0.0195312 31.933594 0.0507812 31.59375 C 0.0507812 31.574219 0.0507812 31.566406 0.0507812 31.542969 C 0.113281 30.886719 0.273438 30.25 0.742188 28.949219 C 0.742188 28.925781 0.765625 28.90625 0.773438 28.886719 C 0.855469 28.691406 0.9375 28.496094 1.03125 28.3125 C 1.03125 28.289062 1.050781 28.28125 1.050781 28.261719 C 1.089844 28.167969 1.140625 28.074219 1.183594 27.984375 C 1.191406 27.960938 1.203125 27.941406 1.214844 27.910156 C 1.253906 27.820312 1.304688 27.738281 1.34375 27.65625 C 1.367188 27.625 1.375 27.59375 1.398438 27.5625 C 1.425781 27.5 1.457031 27.449219 1.488281 27.386719 C 1.488281 27.367188 1.507812 27.347656 1.519531 27.335938 C 1.570312 27.242188 1.621094 27.160156 1.671875 27.070312 C 1.683594 27.050781 1.703125 27.027344 1.710938 26.996094 C 1.761719 26.90625 1.824219 26.8125 1.875 26.71875 C 1.886719 26.699219 1.894531 26.679688 1.917969 26.660156 C 1.96875 26.578125 2.019531 26.484375 2.078125 26.402344 C 2.089844 26.382812 2.101562 26.371094 2.109375 26.351562 C 2.171875 26.257812 2.230469 26.167969 2.292969 26.0625 C 2.3125 26.023438 2.34375 25.992188 2.363281 25.949219 C 2.363281 25.941406 2.375 25.929688 2.386719 25.921875 C 2.394531 25.898438 2.40625 25.890625 2.414062 25.867188 C 2.46875 25.796875 2.507812 25.726562 2.558594 25.664062 C 2.558594 25.664062 2.558594 25.652344 2.570312 25.644531 C 2.578125 25.621094 2.589844 25.601562 2.609375 25.589844 C 2.609375 25.589844 2.613281 25.585938 2.621094 25.570312 C 2.679688 25.480469 2.742188 25.386719 2.8125 25.304688 C 2.824219 25.292969 2.832031 25.273438 2.84375 25.261719 C 2.894531 25.203125 2.9375 25.128906 2.988281 25.066406 C 2.996094 25.046875 3.007812 25.039062 3.015625 25.015625 C 3.058594 24.957031 3.109375 24.894531 3.148438 24.832031 C 3.179688 24.792969 3.210938 24.75 3.242188 24.710938 C 3.28125 24.65625 3.3125 24.617188 3.355469 24.566406 C 3.363281 24.542969 3.382812 24.523438 3.394531 24.515625 C 3.394531 24.515625 3.394531 24.515625 3.394531 24.503906 C 3.414062 24.484375 3.425781 24.460938 3.445312 24.441406 C 3.484375 24.390625 3.527344 24.339844 3.566406 24.289062 C 3.589844 24.257812 3.609375 24.238281 3.640625 24.207031 C 3.679688 24.15625 3.71875 24.101562 3.761719 24.050781 C 3.761719 24.050781 3.773438 24.042969 3.78125 24.03125 C 3.792969 24.011719 3.8125 24 3.824219 23.980469 C 3.824219 23.980469 3.824219 23.972656 3.832031 23.960938 C 3.832031 23.960938 3.851562 23.929688 3.875 23.917969 C 3.875 23.917969 3.882812 23.898438 3.894531 23.898438 C 3.933594 23.847656 3.984375 23.796875 4.027344 23.746094 C 4.046875 23.714844 4.078125 23.683594 4.097656 23.664062 C 4.117188 23.632812 4.136719 23.609375 4.160156 23.589844 C 4.179688 23.570312 4.199219 23.539062 4.21875 23.519531 C 4.242188 23.488281 4.269531 23.457031 4.300781 23.425781 C 4.320312 23.40625 4.332031 23.394531 4.34375 23.375 C 4.363281 23.34375 4.394531 23.3125 4.425781 23.28125 C 4.445312 23.261719 4.453125 23.25 4.464844 23.230469 C 4.496094 23.191406 4.527344 23.160156 4.554688 23.117188 C 4.578125 23.097656 4.597656 23.078125 4.609375 23.058594 C 4.617188 23.046875 4.636719 23.027344 4.648438 23.015625 C 4.667969 22.996094 4.679688 22.972656 4.699219 22.953125 C 4.71875 22.921875 4.738281 22.902344 4.769531 22.882812 C 4.789062 22.863281 4.800781 22.839844 4.820312 22.832031 C 4.871094 22.78125 4.914062 22.726562 4.964844 22.675781 C 4.984375 22.65625 5.003906 22.625 5.023438 22.605469 C 5.035156 22.585938 5.054688 22.574219 5.066406 22.554688 C 5.105469 22.503906 5.15625 22.460938 5.199219 22.410156 C 5.21875 22.390625 5.230469 22.367188 5.25 22.347656 C 5.304688 22.292969 5.339844 22.253906 5.363281 22.226562 C 5.363281 22.226562 5.382812 22.203125 5.390625 22.183594 C 5.421875 22.152344 5.453125 22.121094 5.484375 22.09375 C 5.484375 22.09375 5.484375 22.09375 5.496094 22.082031 C 5.496094 22.082031 5.496094 22.082031 5.503906 22.070312 C 5.515625 22.0625 5.523438 22.050781 5.535156 22.03125 C 5.566406 22 5.597656 21.96875 5.625 21.9375 C 5.625 21.9375 5.632812 21.929688 5.648438 21.917969 C 5.648438 21.917969 5.6875 21.875 5.707031 21.855469 C 5.730469 21.835938 5.75 21.816406 5.769531 21.792969 C 5.769531 21.792969 5.78125 21.785156 5.789062 21.773438 C 5.820312 21.742188 5.839844 21.710938 5.871094 21.691406 C 5.890625 21.671875 5.902344 21.652344 5.921875 21.640625 C 5.921875 21.640625 5.921875 21.640625 5.933594 21.628906 C 5.933594 21.628906 5.953125 21.609375 5.953125 21.609375 C 5.964844 21.597656 5.972656 21.589844 5.984375 21.578125 C 5.984375 21.578125 6.003906 21.570312 6.003906 21.558594 C 6.003906 21.558594 6.007812 21.554688 6.015625 21.546875 C 6.015625 21.546875 6.054688 21.515625 6.074219 21.496094 C 6.105469 21.464844 6.136719 21.445312 6.15625 21.414062 C 6.15625 21.414062 6.167969 21.40625 6.175781 21.394531 C 6.199219 21.375 6.207031 21.363281 6.226562 21.34375 C 6.25 21.324219 6.269531 21.300781 6.300781 21.269531 C 6.300781 21.269531 6.304688 21.265625 6.308594 21.261719 C 6.308594 21.261719 6.359375 21.210938 6.390625 21.179688 C 6.402344 21.167969 6.421875 21.148438 6.433594 21.136719 C 6.433594 21.136719 6.441406 21.128906 6.453125 21.117188 C 6.453125 21.117188 6.460938 21.105469 6.472656 21.097656 C 6.503906 21.066406 6.542969 21.023438 6.574219 20.992188 C 6.59375 20.984375 6.605469 20.964844 6.625 20.941406 C 6.644531 20.921875 6.675781 20.890625 6.695312 20.871094 C 6.71875 20.851562 6.738281 20.828125 6.757812 20.820312 C 6.777344 20.800781 6.800781 20.789062 6.808594 20.769531 C 6.828125 20.757812 6.839844 20.738281 6.851562 20.726562 C 6.859375 20.714844 6.871094 20.707031 6.890625 20.695312 C 6.921875 20.675781 6.941406 20.644531 6.972656 20.625 C 7.011719 20.582031 7.0625 20.542969 7.105469 20.5 C 7.105469 20.5 7.113281 20.492188 7.125 20.480469 C 7.15625 20.449219 7.195312 20.417969 7.226562 20.378906 C 7.246094 20.359375 7.269531 20.347656 7.277344 20.328125 C 7.320312 20.285156 7.359375 20.246094 7.410156 20.214844 C 7.429688 20.195312 7.453125 20.171875 7.472656 20.164062 C 7.492188 20.140625 7.523438 20.121094 7.542969 20.089844 C 7.554688 20.082031 7.574219 20.058594 7.582031 20.050781 C 7.605469 20.027344 7.625 20.007812 7.65625 19.988281 C 7.6875 19.96875 7.707031 19.945312 7.726562 19.925781 C 7.757812 19.894531 7.789062 19.875 7.820312 19.84375 C 7.847656 19.824219 7.871094 19.792969 7.898438 19.773438 C 7.898438 19.773438 7.898438 19.78125 7.898438 19.804688 C 7.898438 19.804688 7.898438 19.804688 7.890625 19.8125 C 7.890625 19.8125 7.886719 19.816406 7.878906 19.824219 C 7.878906 19.824219 7.878906 19.824219 7.871094 19.835938 C 7.847656 19.855469 7.820312 19.886719 7.796875 19.90625 C 7.765625 19.9375 7.738281 19.96875 7.707031 20 C 7.675781 20.027344 7.65625 20.050781 7.636719 20.082031 C 7.613281 20.101562 7.605469 20.121094 7.582031 20.132812 C 7.554688 20.164062 7.53125 20.183594 7.503906 20.214844 C 7.480469 20.234375 7.460938 20.253906 7.441406 20.277344 C 7.429688 20.285156 7.410156 20.304688 7.402344 20.316406 C 7.378906 20.347656 7.347656 20.367188 7.328125 20.386719 C 7.308594 20.410156 7.296875 20.429688 7.277344 20.441406 C 7.269531 20.460938 7.246094 20.46875 7.238281 20.492188 C 7.226562 20.5 7.21875 20.511719 7.207031 20.53125 C 7.1875 20.550781 7.164062 20.574219 7.144531 20.59375 C 7.136719 20.605469 7.125 20.613281 7.113281 20.632812 C 7.09375 20.664062 7.0625 20.6875 7.042969 20.714844 C 7.003906 20.757812 6.960938 20.808594 6.921875 20.851562 C 6.921875 20.851562 6.910156 20.859375 6.902344 20.871094 C 6.871094 20.902344 6.851562 20.933594 6.820312 20.964844 C 6.800781 20.992188 6.769531 21.015625 6.75 21.035156 C 6.726562 21.066406 6.695312 21.085938 6.675781 21.117188 C 6.65625 21.136719 6.644531 21.15625 6.625 21.179688 C 6.605469 21.210938 6.574219 21.230469 6.554688 21.261719 C 6.523438 21.292969 6.492188 21.324219 6.472656 21.351562 C 6.433594 21.394531 6.402344 21.433594 6.371094 21.476562 C 6.339844 21.515625 6.308594 21.546875 6.269531 21.589844 C 6.238281 21.621094 6.21875 21.652344 6.1875 21.679688 C 6.167969 21.703125 6.15625 21.722656 6.136719 21.742188 C 6.105469 21.773438 6.085938 21.804688 6.054688 21.835938 C 6.042969 21.855469 6.023438 21.875 6.003906 21.886719 C 5.972656 21.917969 5.953125 21.949219 5.921875 21.980469 C 5.914062 22 5.890625 22.011719 5.882812 22.03125 C 5.859375 22.0625 5.832031 22.082031 5.808594 22.113281 C 5.789062 22.132812 5.769531 22.152344 5.757812 22.175781 C 5.707031 22.234375 5.65625 22.296875 5.605469 22.359375 C 5.585938 22.378906 5.574219 22.398438 5.554688 22.421875 C 5.535156 22.453125 5.503906 22.480469 5.484375 22.511719 C 5.464844 22.542969 5.433594 22.574219 5.414062 22.605469 C 5.382812 22.636719 5.351562 22.675781 5.332031 22.707031 C 5.3125 22.738281 5.28125 22.769531 5.261719 22.800781 C 5.199219 22.882812 5.136719 22.953125 5.078125 23.035156 C 5.066406 23.058594 5.046875 23.078125 5.035156 23.097656 C 5.035156 23.097656 5.023438 23.109375 5.015625 23.117188 C 5.003906 23.128906 4.996094 23.148438 4.984375 23.160156 C 4.964844 23.179688 4.945312 23.210938 4.933594 23.230469 C 4.933594 23.230469 4.933594 23.230469 4.921875 23.242188 C 4.871094 23.304688 4.832031 23.363281 4.78125 23.425781 C 4.75 23.46875 4.730469 23.496094 4.699219 23.539062 C 4.660156 23.589844 4.617188 23.652344 4.578125 23.703125 C 4.566406 23.722656 4.546875 23.746094 4.527344 23.765625 C 4.484375 23.828125 4.433594 23.886719 4.394531 23.949219 C 4.382812 23.96875 4.363281 23.992188 4.351562 24.011719 C 4.351562 24.011719 4.34375 24.03125 4.332031 24.042969 C 4.3125 24.0625 4.300781 24.09375 4.28125 24.113281 C 4.242188 24.164062 4.210938 24.214844 4.167969 24.269531 C 4.148438 24.296875 4.128906 24.328125 4.109375 24.351562 C 4.058594 24.421875 4.015625 24.484375 3.964844 24.554688 C 3.945312 24.585938 3.925781 24.617188 3.902344 24.65625 C 3.902344 24.667969 3.894531 24.679688 3.882812 24.6875 C 3.875 24.710938 3.863281 24.71875 3.851562 24.738281 C 3.792969 24.832031 3.730469 24.925781 3.667969 25.015625 C 3.667969 25.015625 3.667969 25.027344 3.667969 25.039062 C 3.558594 25.222656 3.445312 25.40625 3.332031 25.601562 C 3.332031 25.601562 3.332031 25.601562 3.332031 25.613281 C 3.273438 25.714844 3.210938 25.828125 3.160156 25.929688 C 3.160156 25.949219 3.140625 25.972656 3.128906 25.980469 C 3.078125 26.074219 3.027344 26.175781 2.976562 26.277344 C 2.976562 26.289062 2.964844 26.308594 2.957031 26.320312 C 2.894531 26.445312 2.832031 26.566406 2.78125 26.691406 C 2.78125 26.710938 2.761719 26.730469 2.753906 26.75 C 2.539062 27.234375 2.363281 27.738281 2.242188 28.507812 C 2.242188 28.507812 2.242188 28.527344 2.242188 28.527344 C 2.242188 28.558594 2.242188 28.578125 2.242188 28.609375 C 2.242188 28.609375 2.242188 28.617188 2.242188 28.628906 C 2.230469 28.742188 2.230469 28.855469 2.230469 28.96875 C 2.230469 28.96875 2.230469 28.988281 2.230469 29 C 2.230469 29.121094 2.230469 29.253906 2.253906 29.378906 C 2.253906 29.378906 2.253906 29.398438 2.253906 29.398438 C 2.292969 29.664062 2.363281 29.921875 2.476562 30.167969 C 2.476562 30.167969 2.480469 30.175781 2.488281 30.1875 C 2.578125 30.363281 2.679688 30.539062 2.8125 30.683594 C 2.8125 30.683594 2.8125 30.691406 2.824219 30.703125 C 2.875 30.765625 2.925781 30.816406 2.976562 30.867188 C 2.976562 30.867188 2.976562 30.867188 2.988281 30.875 C 3.039062 30.929688 3.078125 30.96875 3.128906 31.011719 C 3.128906 31.011719 3.140625 31.019531 3.148438 31.03125 C 3.558594 31.390625 4.097656 31.605469 6.542969 31.953125 C 6.566406 31.953125 6.585938 31.953125 6.605469 31.953125 C 6.800781 31.953125 6.992188 31.953125 7.1875 31.945312 C 7.207031 31.945312 7.226562 31.945312 7.246094 31.945312 C 7.820312 31.914062 8.390625 31.839844 10.957031 31.339844 C 10.957031 31.339844 10.957031 31.339844 10.96875 31.339844 C 11.425781 31.226562 11.886719 31.101562 13.433594 30.628906 C 13.433594 30.628906 13.457031 30.628906 13.457031 30.628906 C 13.78125 30.527344 14.109375 30.414062 14.433594 30.300781 C 14.476562 30.28125 14.527344 30.269531 14.566406 30.25 C 15.003906 30.097656 15.441406 29.933594 15.882812 29.757812 C 15.882812 29.757812 15.886719 29.757812 15.902344 29.757812 C 16.25 29.625 16.59375 29.480469 16.941406 29.335938 C 16.941406 29.335938 16.941406 29.335938 16.953125 29.335938 C 17.023438 29.308594 17.09375 29.277344 17.175781 29.246094 C 17.175781 29.246094 17.175781 29.246094 17.1875 29.246094 C 17.554688 29.089844 17.921875 28.925781 18.285156 28.761719 C 18.308594 28.761719 18.328125 28.742188 18.339844 28.742188 C 18.46875 28.679688 18.59375 28.628906 18.726562 28.566406 C 18.785156 28.535156 18.859375 28.507812 18.929688 28.476562 C 19.042969 28.425781 19.144531 28.371094 19.253906 28.320312 C 19.296875 28.300781 19.347656 28.28125 19.386719 28.261719 C 19.386719 28.261719 19.398438 28.261719 19.410156 28.25 C 19.417969 28.25 19.4375 28.238281 19.449219 28.230469 C 19.652344 28.136719 19.855469 28.035156 20.0625 27.941406 C 20.101562 27.921875 20.140625 27.902344 20.171875 27.890625 C 20.253906 27.847656 20.324219 27.820312 20.40625 27.777344 C 20.4375 27.765625 20.46875 27.746094 20.5 27.738281 C 20.722656 27.625 20.949219 27.519531 21.160156 27.40625 C 21.203125 27.386719 21.242188 27.367188 21.285156 27.347656 C 21.324219 27.324219 21.367188 27.304688 21.40625 27.285156 C 21.425781 27.273438 21.457031 27.265625 21.476562 27.242188 C 21.570312 27.191406 21.671875 27.140625 21.761719 27.101562 C 21.792969 27.089844 21.8125 27.070312 21.84375 27.058594 C 21.84375 27.058594 21.855469 27.058594 21.863281 27.058594 C 21.886719 27.050781 21.914062 27.027344 21.9375 27.019531 C 22.007812 26.976562 22.089844 26.9375 22.160156 26.90625 C 22.203125 26.882812 22.242188 26.863281 22.273438 26.84375 C 22.375 26.792969 22.488281 26.730469 22.589844 26.679688 C 22.640625 26.648438 22.691406 26.617188 22.75 26.597656 C 22.804688 26.566406 22.855469 26.546875 22.914062 26.515625 C 22.964844 26.484375 23.027344 26.453125 23.078125 26.421875 C 23.148438 26.382812 23.222656 26.351562 23.292969 26.308594 C 23.3125 26.300781 23.34375 26.277344 23.363281 26.269531 C 23.425781 26.238281 23.496094 26.195312 23.558594 26.167969 C 23.609375 26.136719 23.667969 26.105469 23.71875 26.074219 C 23.78125 26.042969 23.84375 26.003906 23.902344 25.972656 C 23.953125 25.941406 24.003906 25.910156 24.054688 25.890625 C 24.136719 25.847656 24.21875 25.796875 24.292969 25.753906 C 24.3125 25.746094 24.332031 25.734375 24.351562 25.726562 C 24.433594 25.683594 24.515625 25.632812 24.597656 25.589844 C 24.628906 25.570312 24.65625 25.550781 24.6875 25.539062 C 24.699219 25.539062 24.707031 25.53125 24.71875 25.519531 C 24.75 25.5 24.789062 25.480469 24.820312 25.457031 C 24.921875 25.398438 25.015625 25.34375 25.117188 25.285156 C 25.136719 25.273438 25.15625 25.261719 25.179688 25.242188 C 25.320312 25.160156 25.453125 25.078125 25.585938 24.996094 C 25.585938 24.996094 25.585938 24.996094 25.597656 24.996094 C 25.597656 24.996094 25.597656 24.996094 25.605469 24.996094 C 25.636719 24.976562 25.667969 24.964844 25.6875 24.945312 C 25.769531 24.894531 25.851562 24.851562 25.933594 24.800781 C 25.984375 24.769531 26.023438 24.738281 26.074219 24.71875 C 26.15625 24.667969 26.226562 24.625 26.308594 24.574219 C 26.308594 24.574219 26.308594 24.574219 26.320312 24.574219 C 26.320312 24.574219 26.320312 24.574219 26.328125 24.574219 C 26.371094 24.554688 26.402344 24.523438 26.441406 24.503906 C 26.523438 24.453125 26.59375 24.410156 26.667969 24.359375 C 26.695312 24.339844 26.71875 24.328125 26.746094 24.308594 C 26.820312 24.269531 26.902344 24.214844 26.972656 24.175781 C 27.011719 24.144531 27.054688 24.125 27.09375 24.101562 C 27.15625 24.074219 27.207031 24.03125 27.265625 24 C 27.320312 23.96875 27.371094 23.9375 27.410156 23.910156 C 27.460938 23.878906 27.523438 23.847656 27.574219 23.804688 C 27.613281 23.773438 27.65625 23.753906 27.695312 23.722656 C 27.757812 23.683594 27.816406 23.640625 27.878906 23.601562 C 27.890625 23.601562 27.910156 23.582031 27.917969 23.570312 C 27.992188 23.519531 28.0625 23.476562 28.132812 23.425781 C 28.15625 23.40625 28.183594 23.394531 28.207031 23.375 C 28.214844 23.375 28.226562 23.363281 28.246094 23.355469 C 28.277344 23.332031 28.308594 23.3125 28.335938 23.292969 C 28.398438 23.25 28.449219 23.222656 28.511719 23.179688 C 28.550781 23.148438 28.59375 23.128906 28.632812 23.097656 C 28.703125 23.046875 28.777344 23.003906 28.847656 22.953125 C 28.867188 22.933594 28.898438 22.921875 28.917969 22.902344 C 29.0625 22.808594 29.203125 22.707031 29.355469 22.617188 C 29.355469 22.617188 29.363281 22.613281 29.378906 22.605469 C 29.4375 22.5625 29.511719 22.523438 29.570312 22.472656 C 29.589844 22.460938 29.613281 22.441406 29.632812 22.429688 C 29.734375 22.359375 29.847656 22.285156 29.949219 22.214844 C 30 22.175781 30.058594 22.144531 30.113281 22.101562 C 30.152344 22.070312 30.191406 22.050781 30.234375 22.019531 C 30.234375 22.019531 30.253906 22.011719 30.253906 22 C 30.367188 21.917969 30.476562 21.84375 30.589844 21.761719 C 30.589844 21.761719 30.589844 21.761719 30.601562 21.761719 C 30.660156 21.722656 30.722656 21.679688 30.785156 21.628906 C 30.824219 21.609375 30.855469 21.578125 30.894531 21.558594 C 31 21.488281 31.109375 21.414062 31.210938 21.332031 C 31.234375 21.324219 31.242188 21.3125 31.261719 21.300781 C 31.324219 21.261719 31.394531 21.210938 31.457031 21.167969 C 31.46875 21.167969 31.488281 21.148438 31.496094 21.136719 C 31.546875 21.105469 31.589844 21.066406 31.640625 21.035156 C 31.679688 21.003906 31.722656 20.972656 31.761719 20.953125 C 31.804688 20.921875 31.84375 20.890625 31.886719 20.859375 C 31.914062 20.828125 31.957031 20.808594 31.996094 20.777344 C 32.046875 20.746094 32.097656 20.707031 32.140625 20.675781 C 32.160156 20.65625 32.191406 20.644531 32.210938 20.625 C 32.210938 20.625 32.210938 20.625 32.222656 20.613281 C 32.242188 20.59375 32.273438 20.582031 32.292969 20.5625 C 32.34375 20.523438 32.40625 20.480469 32.457031 20.441406 C 32.488281 20.410156 32.527344 20.386719 32.558594 20.359375 C 32.609375 20.316406 32.671875 20.277344 32.722656 20.234375 C 32.742188 20.222656 32.75 20.214844 32.773438 20.203125 C 32.832031 20.164062 32.882812 20.121094 32.945312 20.070312 C 32.984375 20.039062 33.015625 20.019531 33.058594 19.988281 C 33.109375 19.945312 33.160156 19.917969 33.210938 19.875 C 33.25 19.84375 33.28125 19.8125 33.324219 19.792969 C 33.375 19.753906 33.425781 19.722656 33.464844 19.679688 C 33.507812 19.648438 33.546875 19.617188 33.585938 19.585938 C 33.636719 19.558594 33.679688 19.515625 33.730469 19.476562 C 33.761719 19.445312 33.800781 19.421875 33.832031 19.394531 C 33.851562 19.371094 33.882812 19.363281 33.902344 19.339844 C 33.925781 19.320312 33.953125 19.300781 33.976562 19.28125 C 34.027344 19.238281 34.078125 19.207031 34.117188 19.167969 C 34.148438 19.148438 34.179688 19.125 34.199219 19.105469 C 34.25 19.066406 34.289062 19.035156 34.339844 18.992188 C 34.351562 18.980469 34.371094 18.972656 34.382812 18.960938 C 34.433594 18.921875 34.496094 18.871094 34.546875 18.828125 C 34.554688 18.816406 34.578125 18.808594 34.585938 18.796875 C 34.585938 18.796875 34.597656 18.789062 34.605469 18.777344 C 34.628906 18.765625 34.648438 18.746094 34.667969 18.734375 C 34.707031 18.707031 34.75 18.675781 34.789062 18.632812 C 34.832031 18.601562 34.863281 18.570312 34.902344 18.542969 C 34.933594 18.519531 34.964844 18.488281 34.996094 18.46875 C 35.023438 18.449219 35.054688 18.429688 35.074219 18.398438 C 35.117188 18.367188 35.15625 18.324219 35.199219 18.292969 C 35.21875 18.273438 35.25 18.253906 35.269531 18.234375 C 35.289062 18.210938 35.308594 18.191406 35.339844 18.183594 C 35.371094 18.152344 35.410156 18.128906 35.441406 18.101562 C 35.472656 18.070312 35.515625 18.046875 35.542969 18.019531 C 35.574219 17.996094 35.59375 17.976562 35.625 17.957031 C 35.65625 17.933594 35.6875 17.90625 35.71875 17.882812 C 35.726562 17.882812 35.738281 17.863281 35.75 17.851562 C 35.757812 17.84375 35.777344 17.832031 35.789062 17.824219 C 35.789062 17.824219 35.789062 17.824219 35.800781 17.8125 C 35.851562 17.769531 35.890625 17.730469 35.941406 17.6875 C 35.972656 17.667969 36.003906 17.636719 36.023438 17.617188 C 36.066406 17.585938 36.09375 17.554688 36.136719 17.523438 C 36.167969 17.503906 36.195312 17.472656 36.226562 17.453125 C 36.246094 17.433594 36.269531 17.414062 36.289062 17.402344 C 36.320312 17.371094 36.351562 17.351562 36.390625 17.320312 C 36.421875 17.300781 36.441406 17.277344 36.460938 17.257812 C 36.480469 17.238281 36.511719 17.21875 36.535156 17.195312 C 36.574219 17.164062 36.613281 17.125 36.65625 17.09375 C 36.707031 17.054688 36.746094 17.011719 36.796875 16.972656 C 36.828125 16.949219 36.847656 16.917969 36.878906 16.898438 C 36.898438 16.890625 36.910156 16.867188 36.929688 16.859375 C 36.960938 16.835938 36.992188 16.804688 37.023438 16.777344 C 37.042969 16.753906 37.054688 16.746094 37.074219 16.734375 C 37.105469 16.714844 37.136719 16.683594 37.15625 16.664062 C 37.175781 16.640625 37.195312 16.621094 37.214844 16.613281 C 37.246094 16.582031 37.277344 16.558594 37.308594 16.53125 C 37.339844 16.5 37.371094 16.476562 37.398438 16.449219 C 37.441406 16.417969 37.480469 16.375 37.523438 16.34375 C 37.542969 16.324219 37.5625 16.304688 37.582031 16.292969 C 37.625 16.261719 37.65625 16.230469 37.695312 16.191406 C 37.714844 16.171875 37.734375 16.148438 37.757812 16.140625 C 37.777344 16.128906 37.789062 16.109375 37.808594 16.097656 C 37.828125 16.078125 37.847656 16.058594 37.867188 16.046875 C 37.898438 16.027344 37.917969 16.007812 37.941406 15.976562 C 37.960938 15.953125 37.980469 15.933594 38.011719 15.914062 C 38.03125 15.894531 38.050781 15.871094 38.074219 15.851562 C 38.09375 15.832031 38.101562 15.820312 38.125 15.800781 C 38.152344 15.769531 38.183594 15.75 38.214844 15.71875 C 38.234375 15.699219 38.265625 15.675781 38.285156 15.648438 C 38.316406 15.617188 38.347656 15.59375 38.378906 15.566406 C 38.398438 15.542969 38.417969 15.535156 38.429688 15.511719 C 38.429688 15.511719 38.429688 15.511719 38.441406 15.511719 C 38.460938 15.492188 38.492188 15.472656 38.511719 15.453125 C 38.542969 15.421875 38.582031 15.390625 38.613281 15.359375 C 38.644531 15.339844 38.664062 15.308594 38.695312 15.289062 C 38.734375 15.246094 38.777344 15.214844 38.816406 15.175781 C 38.835938 15.15625 38.859375 15.144531 38.867188 15.125 C 38.910156 15.082031 38.949219 15.050781 38.988281 15.011719 C 39 15 39.011719 14.988281 39.03125 14.980469 C 39.050781 14.960938 39.070312 14.9375 39.09375 14.917969 C 39.113281 14.898438 39.132812 14.878906 39.152344 14.855469 C 39.183594 14.824219 39.214844 14.796875 39.246094 14.773438 C 39.265625 14.753906 39.285156 14.734375 39.304688 14.714844 C 39.335938 14.683594 39.367188 14.652344 39.398438 14.621094 C 39.40625 14.609375 39.417969 14.601562 39.429688 14.589844 C 39.429688 14.589844 39.4375 14.578125 39.449219 14.570312 C 39.457031 14.558594 39.480469 14.539062 39.488281 14.527344 C 39.519531 14.496094 39.550781 14.476562 39.570312 14.445312 C 39.570312 14.445312 39.578125 14.4375 39.589844 14.425781 C 39.589844 14.425781 39.621094 14.394531 39.640625 14.375 C 39.664062 14.355469 39.683594 14.332031 39.714844 14.300781 C 39.714844 14.300781 39.722656 14.292969 39.734375 14.28125 C 39.753906 14.261719 39.773438 14.242188 39.804688 14.21875 C 39.847656 14.179688 39.886719 14.136719 39.929688 14.097656 C 39.929688 14.097656 39.949219 14.078125 39.957031 14.066406 C 39.980469 14.046875 40 14.027344 40.019531 14.003906 C 40.039062 13.984375 40.070312 13.953125 40.089844 13.933594 C 40.109375 13.914062 40.132812 13.890625 40.152344 13.871094 C 40.152344 13.871094 40.171875 13.851562 40.183594 13.839844 C 40.222656 13.800781 40.265625 13.757812 40.304688 13.71875 C 40.304688 13.71875 40.347656 13.675781 40.367188 13.65625 C 40.367188 13.65625 40.367188 13.65625 40.375 13.644531 C 40.398438 13.625 40.417969 13.605469 40.4375 13.585938 C 40.457031 13.5625 40.46875 13.554688 40.488281 13.53125 C 40.488281 13.53125 40.488281 13.53125 40.5 13.523438 C 40.527344 13.492188 40.550781 13.472656 40.570312 13.441406 C 40.582031 13.429688 40.601562 13.410156 40.609375 13.398438 C 40.609375 13.398438 40.621094 13.390625 40.632812 13.378906 C 40.640625 13.367188 40.652344 13.359375 40.660156 13.347656 C 40.691406 13.316406 40.710938 13.296875 40.742188 13.265625 C 40.765625 13.246094 40.785156 13.226562 40.804688 13.203125 C 40.835938 13.171875 40.855469 13.152344 40.886719 13.121094 C 40.90625 13.101562 40.925781 13.082031 40.945312 13.0625 C 40.96875 13.039062 40.988281 13.019531 41.007812 12.988281 C 41.027344 12.96875 41.039062 12.957031 41.058594 12.9375 C 41.078125 12.917969 41.089844 12.90625 41.109375 12.886719 C 41.121094 12.867188 41.140625 12.855469 41.152344 12.835938 C 41.160156 12.824219 41.171875 12.8125 41.179688 12.792969 C 41.203125 12.761719 41.234375 12.742188 41.253906 12.710938 C 41.292969 12.671875 41.335938 12.621094 41.375 12.578125 C 41.386719 12.566406 41.394531 12.546875 41.417969 12.539062 C 41.417969 12.539062 41.425781 12.527344 41.4375 12.515625 C 41.445312 12.507812 41.457031 12.484375 41.476562 12.476562 C 41.476562 12.476562 41.5 12.449219 41.546875 12.394531 C 41.546875 12.394531 41.589844 12.34375 41.609375 12.320312 C 41.628906 12.289062 41.660156 12.269531 41.679688 12.238281 C 41.691406 12.230469 41.710938 12.207031 41.722656 12.199219 C 41.722656 12.199219 41.722656 12.1875 41.730469 12.179688 C 41.730469 12.167969 41.753906 12.15625 41.761719 12.148438 C 41.78125 12.117188 41.8125 12.097656 41.835938 12.066406 C 41.863281 12.035156 41.886719 12.003906 41.914062 11.972656 C 41.945312 11.941406 41.964844 11.910156 41.988281 11.878906 C 42.007812 11.859375 42.015625 11.839844 42.039062 11.820312 C 42.070312 11.789062 42.089844 11.757812 42.121094 11.726562 C 42.128906 11.707031 42.148438 11.683594 42.171875 11.675781 C 42.199219 11.644531 42.222656 11.613281 42.242188 11.582031 C 42.261719 11.5625 42.28125 11.542969 42.304688 11.511719 C 42.34375 11.46875 42.375 11.429688 42.40625 11.386719 C 42.40625 11.378906 42.425781 11.367188 42.433594 11.355469 C 42.464844 11.316406 42.496094 11.273438 42.539062 11.246094 C 42.558594 11.222656 42.566406 11.203125 42.589844 11.183594 C 42.617188 11.152344 42.640625 11.121094 42.660156 11.089844 C 42.679688 11.058594 42.710938 11.027344 42.730469 10.996094 C 42.75 10.976562 42.773438 10.945312 42.792969 10.925781 C 42.792969 10.925781 42.792969 10.925781 42.792969 10.914062 C 42.832031 10.863281 42.875 10.8125 42.914062 10.761719 C 42.933594 10.730469 42.964844 10.699219 42.984375 10.667969 C 43.015625 10.628906 43.046875 10.585938 43.085938 10.546875 C 43.109375 10.527344 43.117188 10.503906 43.140625 10.472656 C 43.140625 10.472656 43.140625 10.472656 43.148438 10.464844 C 43.167969 10.445312 43.191406 10.414062 43.210938 10.390625 C 43.261719 10.332031 43.300781 10.269531 43.351562 10.207031 C 43.363281 10.1875 43.375 10.175781 43.394531 10.15625 C 43.445312 10.085938 43.496094 10.011719 43.558594 9.941406 C 43.566406 9.921875 43.578125 9.910156 43.585938 9.890625 C 43.636719 9.828125 43.679688 9.757812 43.730469 9.695312 C 43.738281 9.683594 43.75 9.664062 43.761719 9.652344 C 43.800781 9.59375 43.851562 9.53125 43.894531 9.46875 C 43.894531 9.457031 43.914062 9.4375 43.921875 9.425781 C 43.945312 9.398438 43.964844 9.367188 43.984375 9.34375 C 43.984375 9.34375 43.984375 9.335938 43.996094 9.324219 C 44.066406 9.222656 44.136719 9.121094 44.199219 9.015625 C 44.21875 8.988281 44.238281 8.945312 44.269531 8.914062 C 44.332031 8.824219 44.390625 8.738281 44.445312 8.648438 C 44.445312 8.648438 44.445312 8.648438 44.453125 8.628906 C 44.679688 8.269531 44.902344 7.898438 45.097656 7.527344 C 45.105469 7.507812 45.117188 7.488281 45.125 7.46875 C 45.175781 7.363281 45.226562 7.273438 45.28125 7.167969 C 45.28125 7.148438 45.300781 7.128906 45.308594 7.109375 C 45.390625 6.945312 45.460938 6.789062 45.535156 6.617188 C 45.535156 6.617188 45.535156 6.613281 45.535156 6.605469 C 45.726562 6.164062 45.890625 5.722656 46.003906 5.25 C 46.003906 5.25 46.003906 5.242188 46.003906 5.230469 C 46.0625 4.984375 46.117188 4.726562 46.144531 4.472656 C 46.144531 4.460938 46.144531 4.441406 46.144531 4.429688 C 46.175781 4.140625 46.1875 3.835938 46.144531 3.558594 C 46.144531 3.558594 46.144531 3.558594 46.144531 3.546875 C 46.105469 3.25 46.035156 2.960938 45.910156 2.695312 C 45.910156 2.695312 45.910156 2.683594 45.910156 2.675781 C 45.789062 2.40625 45.605469 2.152344 45.410156 1.925781 C 45.410156 1.914062 45.390625 1.90625 45.382812 1.894531 C 45.351562 1.855469 45.308594 1.8125 45.28125 1.78125 C 45.269531 1.773438 45.257812 1.75 45.238281 1.742188 C 45.207031 1.699219 45.167969 1.667969 45.125 1.628906 C 45.105469 1.617188 45.097656 1.597656 45.085938 1.585938 C 45.046875 1.546875 45.003906 1.515625 44.964844 1.472656 C 44.964844 1.472656 44.964844 1.472656 44.953125 1.472656 C 44.800781 1.351562 44.648438 1.25 44.472656 1.15625 C 44.464844 1.15625 44.445312 1.136719 44.433594 1.136719 C 43.964844 0.878906 43.425781 0.753906 42.28125 0.683594 C 42.28125 0.683594 42.261719 0.683594 42.261719 0.683594 C 41.539062 0.683594 40.824219 0.777344 39.101562 1.125 C 39.101562 1.125 39.097656 1.125 39.09375 1.125 C 39.09375 1.125 39.050781 1.125 39.03125 1.136719 C 38.980469 1.144531 38.917969 1.15625 38.867188 1.167969 C 38.867188 1.167969 38.875 1.160156 38.886719 1.144531 C 38.886719 1.144531 38.898438 1.144531 38.910156 1.144531 C 38.910156 1.144531 38.929688 1.144531 38.929688 1.144531 C 38.929688 1.144531 38.949219 1.144531 38.960938 1.144531 C 38.960938 1.144531 38.980469 1.144531 38.988281 1.144531 C 39.011719 1.144531 39.039062 1.136719 39.0625 1.125 C 39.082031 1.125 39.09375 1.125 39.113281 1.113281 C 39.589844 0.980469 40.082031 0.847656 43.179688 0.3125 C 43.199219 0.3125 43.21875 0.3125 43.242188 0.3125 C 43.453125 0.292969 43.667969 0.292969 43.894531 0.292969 Z M 43.953125 0.230469 "/>
<path style=" stroke:none;fill-rule:nonzero;fill:rgb(100%,100%,100%);fill-opacity:1;" d="M 31.304688 1.90625 C 31.355469 1.90625 31.40625 1.90625 31.457031 1.90625 C 31.558594 1.90625 31.660156 1.90625 31.761719 1.90625 C 31.855469 1.90625 31.945312 1.90625 32.039062 1.90625 L 32.058594 1.90625 C 32.058594 1.90625 32.109375 1.90625 32.128906 1.90625 C 32.355469 1.90625 32.589844 1.90625 32.8125 1.90625 C 33.015625 1.90625 33.21875 1.90625 33.425781 1.90625 C 33.648438 1.90625 33.882812 1.90625 34.105469 1.90625 C 34.128906 1.90625 34.160156 1.90625 34.179688 1.90625 L 34.199219 1.90625 C 34.289062 1.90625 34.382812 1.90625 34.464844 1.90625 C 34.566406 1.90625 34.667969 1.90625 34.769531 1.90625 C 34.820312 1.90625 34.871094 1.90625 34.921875 1.90625 C 35.515625 1.90625 36.09375 1.925781 36.941406 2.070312 C 36.941406 2.070312 36.953125 2.070312 36.960938 2.070312 C 37.5625 2.191406 38.164062 2.378906 39.214844 3.09375 C 39.214844 3.09375 39.234375 3.117188 39.246094 3.117188 C 39.285156 3.148438 39.328125 3.1875 39.355469 3.230469 C 39.367188 3.238281 39.378906 3.25 39.386719 3.257812 C 39.429688 3.300781 39.457031 3.332031 39.5 3.371094 C 39.5 3.371094 39.511719 3.382812 39.519531 3.394531 C 39.570312 3.453125 39.613281 3.507812 39.664062 3.566406 C 39.664062 3.566406 39.664062 3.566406 39.671875 3.578125 C 40.019531 4.050781 40.222656 4.625 40.386719 5.898438 C 40.386719 5.898438 40.386719 5.917969 40.386719 5.917969 C 40.386719 6.039062 40.386719 6.164062 40.386719 6.289062 C 40.386719 6.289062 40.386719 6.296875 40.386719 6.308594 C 40.355469 6.976562 40.265625 7.632812 40.03125 8.585938 C 39.988281 8.730469 39.957031 8.875 39.917969 9.015625 C 39.835938 9.34375 39.746094 9.675781 39.640625 9.992188 C 39.640625 9.992188 39.640625 10.003906 39.640625 10.011719 C 39.511719 10.453125 39.347656 10.894531 39.164062 11.316406 C 39.164062 11.316406 39.164062 11.316406 39.164062 11.328125 C 39.082031 11.511719 38.988281 11.707031 38.898438 11.878906 C 38.898438 11.902344 38.878906 11.910156 38.867188 11.933594 C 38.816406 12.023438 38.765625 12.117188 38.714844 12.207031 C 38.714844 12.207031 38.714844 12.21875 38.714844 12.230469 C 38.613281 12.402344 38.511719 12.566406 38.386719 12.722656 C 38.386719 12.722656 38.386719 12.730469 38.386719 12.742188 C 38.386719 12.742188 38.429688 12.824219 38.449219 12.867188 C 38.449219 12.867188 38.449219 12.875 38.449219 12.886719 C 38.449219 12.90625 38.449219 12.90625 38.449219 12.925781 C 38.449219 12.925781 38.441406 12.933594 38.429688 12.949219 C 38.429688 12.949219 38.429688 12.949219 38.417969 12.957031 C 38.417969 12.957031 38.417969 12.957031 38.410156 12.96875 C 38.410156 12.96875 38.40625 12.972656 38.398438 12.980469 C 38.398438 12.980469 38.378906 13 38.367188 13.007812 C 38.347656 13.019531 38.335938 13.039062 38.316406 13.0625 C 38.316406 13.0625 38.296875 13.082031 38.285156 13.089844 C 38.285156 13.089844 38.285156 13.089844 38.277344 13.101562 C 38.257812 13.121094 38.234375 13.144531 38.214844 13.164062 C 38.183594 13.195312 38.152344 13.214844 38.132812 13.246094 C 38.132812 13.246094 38.128906 13.253906 38.113281 13.265625 C 38.113281 13.265625 38.082031 13.296875 38.0625 13.316406 C 38.042969 13.335938 38.023438 13.359375 37.992188 13.390625 C 37.992188 13.390625 37.980469 13.398438 37.96875 13.410156 C 37.941406 13.441406 37.917969 13.460938 37.890625 13.492188 C 37.867188 13.503906 37.859375 13.523438 37.839844 13.53125 C 37.839844 13.53125 37.816406 13.554688 37.808594 13.5625 C 37.765625 13.605469 37.734375 13.636719 37.695312 13.667969 C 37.675781 13.6875 37.65625 13.707031 37.632812 13.726562 C 37.605469 13.757812 37.574219 13.789062 37.542969 13.820312 C 37.523438 13.839844 37.5 13.851562 37.492188 13.871094 C 37.460938 13.902344 37.441406 13.921875 37.410156 13.953125 C 37.390625 13.972656 37.371094 13.996094 37.347656 14.003906 C 37.339844 14.015625 37.316406 14.027344 37.308594 14.046875 C 37.277344 14.066406 37.257812 14.097656 37.238281 14.117188 C 37.214844 14.136719 37.195312 14.148438 37.1875 14.167969 C 37.164062 14.179688 37.15625 14.199219 37.144531 14.210938 C 37.136719 14.21875 37.125 14.230469 37.105469 14.242188 C 37.074219 14.261719 37.054688 14.292969 37.023438 14.3125 C 36.980469 14.34375 36.953125 14.382812 36.910156 14.414062 C 36.878906 14.4375 36.859375 14.464844 36.828125 14.488281 C 36.796875 14.519531 36.769531 14.546875 36.726562 14.578125 C 36.707031 14.601562 36.6875 14.609375 36.675781 14.632812 C 36.65625 14.652344 36.625 14.671875 36.605469 14.691406 C 36.585938 14.714844 36.554688 14.734375 36.535156 14.765625 C 36.503906 14.796875 36.460938 14.824219 36.421875 14.867188 C 36.410156 14.867188 36.402344 14.886719 36.390625 14.898438 C 36.371094 14.917969 36.351562 14.929688 36.328125 14.949219 C 36.308594 14.96875 36.289062 14.988281 36.269531 15.011719 C 36.238281 15.03125 36.21875 15.0625 36.1875 15.082031 C 36.167969 15.09375 36.15625 15.113281 36.144531 15.125 C 36.117188 15.15625 36.074219 15.183594 36.042969 15.214844 C 36.003906 15.257812 35.953125 15.296875 35.910156 15.328125 C 35.882812 15.359375 35.851562 15.378906 35.820312 15.410156 C 35.820312 15.410156 35.800781 15.421875 35.800781 15.429688 C 35.800781 15.429688 35.796875 15.433594 35.789062 15.441406 C 35.789062 15.441406 35.75 15.484375 35.71875 15.503906 C 35.699219 15.523438 35.675781 15.542969 35.648438 15.566406 C 35.617188 15.585938 35.59375 15.605469 35.574219 15.625 C 35.542969 15.65625 35.515625 15.675781 35.484375 15.707031 C 35.464844 15.71875 35.453125 15.738281 35.433594 15.75 C 35.402344 15.78125 35.371094 15.800781 35.339844 15.820312 C 35.320312 15.832031 35.308594 15.851562 35.289062 15.863281 C 35.269531 15.882812 35.25 15.902344 35.21875 15.925781 C 35.1875 15.945312 35.15625 15.976562 35.136719 15.996094 C 35.085938 16.046875 35.023438 16.097656 34.964844 16.140625 C 34.933594 16.160156 34.914062 16.179688 34.882812 16.210938 C 34.851562 16.242188 34.820312 16.261719 34.78125 16.292969 C 34.757812 16.3125 34.738281 16.324219 34.71875 16.34375 C 34.679688 16.386719 34.628906 16.417969 34.585938 16.457031 C 34.554688 16.488281 34.523438 16.507812 34.484375 16.539062 C 34.453125 16.558594 34.421875 16.589844 34.394531 16.613281 C 34.371094 16.632812 34.339844 16.652344 34.320312 16.671875 C 34.320312 16.671875 34.316406 16.675781 34.3125 16.683594 C 34.3125 16.683594 34.25 16.734375 34.21875 16.753906 C 34.1875 16.785156 34.160156 16.804688 34.128906 16.835938 C 34.105469 16.847656 34.085938 16.867188 34.078125 16.878906 C 34.035156 16.917969 33.984375 16.949219 33.945312 16.992188 C 33.914062 17.011719 33.882812 17.042969 33.851562 17.0625 C 33.8125 17.09375 33.761719 17.136719 33.71875 17.164062 C 33.699219 17.175781 33.679688 17.195312 33.660156 17.207031 C 33.660156 17.207031 33.648438 17.21875 33.636719 17.226562 C 33.636719 17.226562 33.636719 17.226562 33.628906 17.226562 C 33.585938 17.257812 33.546875 17.289062 33.507812 17.328125 C 33.507812 17.328125 33.507812 17.328125 33.496094 17.328125 C 33.496094 17.328125 33.484375 17.339844 33.476562 17.351562 C 33.453125 17.359375 33.433594 17.382812 33.414062 17.390625 C 33.332031 17.453125 33.25 17.523438 33.167969 17.585938 C 33.140625 17.605469 33.109375 17.628906 33.089844 17.648438 C 33.089844 17.648438 33.089844 17.648438 33.078125 17.660156 C 33.078125 17.660156 33.078125 17.660156 33.066406 17.667969 C 33.066406 17.667969 33.066406 17.667969 33.058594 17.679688 C 33.046875 17.679688 33.035156 17.699219 33.027344 17.699219 C 33.027344 17.699219 33.015625 17.703125 32.996094 17.710938 C 33.015625 17.628906 33.035156 17.546875 33.058594 17.464844 C 33.058594 17.453125 33.058594 17.441406 33.058594 17.421875 C 33.058594 17.390625 33.078125 17.359375 33.078125 17.328125 C 33.078125 17.300781 33.097656 17.269531 33.109375 17.226562 C 33.140625 17.113281 33.167969 17 33.199219 16.890625 C 33.199219 16.867188 33.210938 16.847656 33.21875 16.828125 C 33.21875 16.828125 33.21875 16.828125 33.21875 16.816406 C 33.21875 16.816406 33.21875 16.796875 33.21875 16.785156 C 33.21875 16.753906 33.230469 16.722656 33.242188 16.703125 C 33.242188 16.695312 33.242188 16.671875 33.25 16.664062 C 33.25 16.640625 33.25 16.632812 33.261719 16.613281 C 33.28125 16.542969 33.296875 16.472656 33.300781 16.394531 C 33.300781 16.394531 33.300781 16.386719 33.300781 16.375 C 33.300781 16.304688 33.28125 16.242188 33.230469 16.191406 C 33.148438 16.117188 33.046875 16.097656 32.933594 16.109375 C 32.933594 16.109375 32.914062 16.109375 32.914062 16.109375 C 32.894531 16.109375 32.863281 16.109375 32.84375 16.109375 C 32.824219 16.109375 32.792969 16.109375 32.773438 16.109375 C 32.730469 16.109375 32.679688 16.109375 32.640625 16.109375 C 32.578125 16.109375 32.507812 16.109375 32.445312 16.109375 C 32.332031 16.109375 32.222656 16.109375 32.121094 16.109375 C 31.964844 16.109375 31.8125 16.109375 31.671875 16.109375 C 31.601562 16.109375 31.527344 16.109375 31.457031 16.109375 C 31.457031 16.109375 31.445312 16.109375 31.4375 16.109375 C 31.273438 16.109375 31.101562 16.109375 30.9375 16.109375 C 30.9375 16.109375 30.925781 16.109375 30.917969 16.109375 C 30.804688 16.109375 30.691406 16.109375 30.582031 16.109375 C 30.457031 16.109375 30.347656 16.109375 30.222656 16.109375 C 30.222656 16.109375 30.214844 16.109375 30.203125 16.109375 C 30.039062 16.109375 29.867188 16.109375 29.703125 16.109375 C 29.703125 16.109375 29.695312 16.109375 29.683594 16.109375 C 29.613281 16.109375 29.539062 16.109375 29.46875 16.109375 C 29.316406 16.109375 29.171875 16.109375 29.019531 16.109375 C 28.910156 16.109375 28.808594 16.109375 28.695312 16.109375 C 28.632812 16.109375 28.5625 16.109375 28.5 16.109375 C 28.460938 16.109375 28.410156 16.109375 28.367188 16.109375 C 28.347656 16.109375 28.316406 16.109375 28.296875 16.109375 C 28.011719 16.109375 27.695312 16.109375 27.472656 15.894531 C 27.347656 15.761719 27.308594 15.59375 27.308594 15.421875 C 27.308594 15.421875 27.308594 15.417969 27.308594 15.410156 C 27.308594 15.296875 27.320312 15.195312 27.347656 15.09375 C 27.347656 15.09375 27.347656 15.082031 27.347656 15.070312 C 27.359375 15.011719 27.378906 14.9375 27.398438 14.878906 C 27.398438 14.867188 27.398438 14.847656 27.410156 14.835938 C 27.410156 14.804688 27.421875 14.785156 27.429688 14.753906 C 27.441406 14.714844 27.449219 14.660156 27.460938 14.621094 C 27.472656 14.570312 27.492188 14.507812 27.503906 14.457031 C 27.523438 14.363281 27.554688 14.261719 27.574219 14.167969 C 27.574219 14.167969 27.574219 14.160156 27.574219 14.148438 C 27.574219 14.117188 27.59375 14.078125 27.605469 14.046875 C 27.625 13.984375 27.632812 13.921875 27.65625 13.859375 C 27.65625 13.832031 27.675781 13.789062 27.683594 13.757812 C 27.683594 13.757812 27.683594 13.75 27.683594 13.738281 C 27.707031 13.667969 27.726562 13.59375 27.746094 13.523438 C 27.828125 13.207031 27.886719 12.988281 27.917969 12.867188 C 27.917969 12.867188 27.917969 12.867188 27.917969 12.84375 C 27.929688 12.792969 27.949219 12.730469 27.960938 12.679688 C 27.960938 12.648438 27.972656 12.628906 27.980469 12.597656 C 27.980469 12.597656 27.980469 12.589844 27.980469 12.578125 C 28 12.496094 28.023438 12.402344 28.050781 12.320312 C 28.0625 12.269531 28.082031 12.21875 28.09375 12.15625 C 28.101562 12.117188 28.113281 12.066406 28.125 12.023438 C 28.125 11.992188 28.132812 11.972656 28.144531 11.941406 C 28.144531 11.933594 28.144531 11.921875 28.144531 11.902344 C 28.183594 11.738281 28.222656 11.617188 28.257812 11.542969 C 28.257812 11.542969 28.257812 11.53125 28.257812 11.519531 C 28.277344 11.46875 28.308594 11.410156 28.335938 11.355469 C 28.335938 11.355469 28.335938 11.355469 28.335938 11.347656 C 28.5 11.050781 28.753906 10.824219 29.082031 10.722656 C 29.183594 10.691406 29.277344 10.667969 29.378906 10.660156 C 29.378906 10.660156 29.386719 10.660156 29.398438 10.660156 C 29.480469 10.660156 29.5625 10.660156 29.632812 10.660156 C 29.652344 10.660156 29.664062 10.660156 29.683594 10.660156 C 29.722656 10.660156 29.753906 10.660156 29.796875 10.660156 C 29.847656 10.660156 29.90625 10.660156 29.957031 10.660156 C 30.050781 10.660156 30.132812 10.660156 30.222656 10.660156 C 30.367188 10.660156 30.507812 10.660156 30.640625 10.660156 C 30.671875 10.660156 30.703125 10.660156 30.734375 10.660156 C 30.734375 10.660156 30.742188 10.660156 30.753906 10.660156 L 30.792969 10.660156 C 30.792969 10.660156 30.816406 10.660156 30.835938 10.660156 C 30.976562 10.660156 31.121094 10.660156 31.261719 10.660156 C 31.261719 10.660156 31.273438 10.660156 31.285156 10.660156 C 31.488281 10.660156 31.691406 10.660156 31.894531 10.660156 C 32.097656 10.660156 32.3125 10.660156 32.515625 10.660156 C 32.546875 10.660156 32.578125 10.660156 32.609375 10.660156 C 32.609375 10.660156 32.617188 10.660156 32.628906 10.660156 C 32.722656 10.660156 32.8125 10.660156 32.90625 10.660156 C 32.996094 10.660156 33.089844 10.660156 33.191406 10.660156 C 33.242188 10.660156 33.300781 10.660156 33.351562 10.660156 C 33.394531 10.660156 33.425781 10.660156 33.464844 10.660156 C 33.484375 10.660156 33.507812 10.660156 33.527344 10.660156 C 33.710938 10.660156 33.871094 10.628906 34.003906 10.496094 C 34.097656 10.390625 34.136719 10.28125 34.167969 10.144531 C 34.167969 10.117188 34.179688 10.085938 34.1875 10.0625 C 34.1875 10.054688 34.1875 10.03125 34.199219 10.023438 C 34.21875 9.949219 34.238281 9.878906 34.261719 9.808594 C 34.261719 9.796875 34.261719 9.785156 34.261719 9.765625 C 34.261719 9.734375 34.269531 9.714844 34.28125 9.683594 C 34.300781 9.613281 34.320312 9.539062 34.339844 9.46875 C 34.339844 9.46875 34.339844 9.457031 34.339844 9.449219 C 34.382812 9.285156 34.433594 9.109375 34.472656 8.933594 C 34.546875 8.679688 34.605469 8.433594 34.679688 8.175781 C 34.679688 8.175781 34.679688 8.167969 34.679688 8.15625 C 34.679688 8.15625 34.699219 8.074219 34.707031 8.03125 C 34.707031 8.011719 34.707031 7.992188 34.71875 7.980469 C 34.730469 7.929688 34.75 7.878906 34.757812 7.828125 C 34.757812 7.828125 34.757812 7.820312 34.757812 7.804688 C 34.757812 7.804688 34.757812 7.773438 34.769531 7.765625 C 34.800781 7.664062 34.800781 7.550781 34.75 7.445312 C 34.699219 7.375 34.628906 7.34375 34.546875 7.324219 C 34.515625 7.324219 34.484375 7.324219 34.453125 7.324219 C 34.453125 7.324219 34.433594 7.324219 34.433594 7.324219 C 34.433594 7.324219 34.414062 7.324219 34.402344 7.324219 C 34.402344 7.324219 34.382812 7.324219 34.371094 7.324219 C 34.339844 7.324219 34.320312 7.324219 34.289062 7.324219 C 34.261719 7.324219 34.230469 7.324219 34.199219 7.324219 C 34.136719 7.324219 34.085938 7.324219 34.027344 7.324219 C 33.953125 7.324219 33.882812 7.324219 33.8125 7.324219 C 33.636719 7.324219 33.476562 7.324219 33.300781 7.324219 C 33.21875 7.324219 33.140625 7.324219 33.066406 7.324219 C 32.792969 7.324219 32.515625 7.324219 32.253906 7.324219 C 32.230469 7.324219 32.222656 7.324219 32.199219 7.324219 C 32.199219 7.324219 32.179688 7.324219 32.171875 7.324219 C 32.128906 7.324219 32.089844 7.324219 32.039062 7.324219 C 32.039062 7.324219 32.019531 7.324219 32.007812 7.324219 C 31.730469 7.324219 31.457031 7.324219 31.171875 7.324219 C 30.875 7.324219 30.582031 7.324219 30.296875 7.324219 C 30.265625 7.324219 30.234375 7.324219 30.203125 7.324219 C 30.203125 7.324219 30.183594 7.324219 30.183594 7.324219 C 30.050781 7.324219 29.929688 7.324219 29.796875 7.324219 C 29.664062 7.324219 29.539062 7.324219 29.40625 7.324219 C 29.335938 7.324219 29.253906 7.324219 29.183594 7.324219 C 29.132812 7.324219 29.082031 7.324219 29.03125 7.324219 C 29 7.324219 28.96875 7.324219 28.9375 7.324219 C 28.910156 7.324219 28.886719 7.324219 28.859375 7.324219 C 28.859375 7.324219 28.835938 7.324219 28.828125 7.324219 C 28.734375 7.324219 28.652344 7.335938 28.574219 7.375 C 28.574219 7.375 28.574219 7.375 28.5625 7.375 C 28.429688 7.445312 28.335938 7.558594 28.285156 7.691406 C 28.277344 7.734375 28.265625 7.773438 28.257812 7.816406 C 28.257812 7.828125 28.257812 7.835938 28.257812 7.847656 C 28.257812 7.878906 28.246094 7.910156 28.234375 7.941406 C 28.234375 7.96875 28.226562 8 28.214844 8.03125 C 28.195312 8.113281 28.175781 8.195312 28.164062 8.269531 C 28.15625 8.320312 28.144531 8.359375 28.132812 8.410156 C 28.132812 8.433594 28.132812 8.453125 28.125 8.464844 C 28.113281 8.523438 28.09375 8.574219 28.082031 8.636719 C 28.082031 8.636719 28.082031 8.644531 28.082031 8.65625 C 28.011719 8.964844 27.789062 9.234375 27.523438 9.386719 C 27.144531 9.613281 26.746094 9.726562 26.308594 9.726562 C 26.289062 9.726562 26.277344 9.726562 26.257812 9.726562 C 26.21875 9.726562 26.1875 9.726562 26.144531 9.726562 C 26.085938 9.726562 26.035156 9.726562 25.972656 9.726562 C 25.882812 9.726562 25.777344 9.726562 25.6875 9.726562 C 25.597656 9.726562 25.503906 9.726562 25.402344 9.726562 C 25.402344 9.726562 25.390625 9.726562 25.382812 9.726562 L 25.289062 9.726562 C 25.074219 9.726562 24.871094 9.726562 24.65625 9.726562 C 24.453125 9.726562 24.25 9.726562 24.046875 9.726562 C 24.046875 9.726562 24.035156 9.726562 24.027344 9.726562 C 23.964844 9.726562 23.902344 9.726562 23.832031 9.726562 C 23.699219 9.726562 23.578125 9.726562 23.445312 9.726562 C 23.445312 9.726562 23.4375 9.726562 23.425781 9.726562 C 23.027344 9.726562 22.628906 9.726562 22.242188 9.726562 C 22.25 9.683594 22.253906 9.652344 22.261719 9.632812 C 22.261719 9.632812 22.261719 9.632812 22.261719 9.621094 C 22.261719 9.621094 22.261719 9.613281 22.261719 9.601562 C 22.261719 9.601562 22.261719 9.59375 22.261719 9.582031 C 22.261719 9.582031 22.273438 9.539062 22.28125 9.519531 C 22.28125 9.511719 22.28125 9.488281 22.292969 9.480469 C 22.292969 9.449219 22.3125 9.417969 22.324219 9.386719 C 22.34375 9.335938 22.355469 9.292969 22.375 9.242188 C 22.394531 9.171875 22.414062 9.109375 22.445312 9.039062 C 22.445312 9.039062 22.445312 9.035156 22.445312 9.027344 C 22.445312 9.027344 22.476562 8.945312 22.488281 8.914062 C 22.488281 8.894531 22.507812 8.863281 22.507812 8.84375 C 22.507812 8.84375 22.507812 8.84375 22.507812 8.832031 C 22.527344 8.761719 22.558594 8.6875 22.578125 8.617188 C 22.589844 8.574219 22.609375 8.535156 22.621094 8.492188 C 22.679688 8.320312 22.730469 8.15625 22.78125 7.980469 C 22.804688 7.917969 22.824219 7.847656 22.84375 7.785156 C 22.84375 7.785156 22.84375 7.773438 22.84375 7.765625 C 22.957031 7.425781 23.078125 7.085938 23.222656 6.769531 C 23.222656 6.75 23.230469 6.738281 23.242188 6.71875 C 23.3125 6.554688 23.382812 6.398438 23.464844 6.246094 C 23.464844 6.246094 23.464844 6.238281 23.464844 6.226562 C 23.496094 6.164062 23.527344 6.101562 23.558594 6.039062 C 23.558594 6.03125 23.566406 6.019531 23.578125 6 C 23.578125 6 23.578125 5.988281 23.578125 5.980469 C 23.578125 5.957031 23.597656 5.949219 23.609375 5.929688 C 23.660156 5.835938 23.710938 5.753906 23.761719 5.660156 C 23.761719 5.660156 23.761719 5.652344 23.769531 5.640625 C 23.851562 5.507812 23.933594 5.382812 24.015625 5.25 C 24.015625 5.25 24.015625 5.242188 24.027344 5.230469 C 24.078125 5.160156 24.128906 5.085938 24.179688 5.015625 C 24.1875 4.996094 24.210938 4.972656 24.21875 4.953125 C 24.261719 4.890625 24.3125 4.828125 24.351562 4.777344 C 24.351562 4.769531 24.371094 4.757812 24.382812 4.738281 C 24.453125 4.644531 24.527344 4.5625 24.597656 4.480469 C 24.597656 4.472656 24.617188 4.460938 24.628906 4.449219 C 24.667969 4.398438 24.707031 4.347656 24.761719 4.304688 C 24.78125 4.285156 24.789062 4.265625 24.8125 4.246094 C 24.832031 4.214844 24.863281 4.195312 24.890625 4.164062 C 24.914062 4.140625 24.921875 4.132812 24.945312 4.113281 C 24.984375 4.058594 25.023438 4.019531 25.074219 3.976562 C 25.097656 3.957031 25.117188 3.9375 25.136719 3.925781 C 25.167969 3.894531 25.1875 3.875 25.21875 3.855469 C 25.230469 3.84375 25.25 3.824219 25.257812 3.8125 C 25.289062 3.78125 25.332031 3.753906 25.371094 3.722656 C 25.390625 3.710938 25.402344 3.691406 25.421875 3.671875 C 25.453125 3.640625 25.484375 3.617188 25.515625 3.589844 C 25.542969 3.566406 25.574219 3.535156 25.605469 3.515625 C 25.65625 3.476562 25.699219 3.445312 25.75 3.402344 C 25.757812 3.394531 25.777344 3.382812 25.789062 3.371094 C 25.851562 3.320312 25.921875 3.28125 25.984375 3.230469 C 25.984375 3.230469 25.992188 3.230469 26.003906 3.21875 C 26.484375 2.902344 26.992188 2.632812 28.480469 2.121094 C 28.5 2.121094 28.511719 2.121094 28.53125 2.109375 C 29.082031 1.976562 29.644531 1.894531 30.214844 1.855469 C 30.234375 1.855469 30.242188 1.855469 30.265625 1.855469 C 30.589844 1.832031 30.917969 1.824219 31.242188 1.832031 Z M 31.304688 1.90625 "/>
<path style=" stroke:none;fill-rule:nonzero;fill:rgb(100%,100%,100%);fill-opacity:1;" d="M 11.273438 10.238281 L 18.765625 10.238281 C 18.757812 10.320312 18.753906 10.371094 18.746094 10.390625 C 18.746094 10.390625 18.746094 10.390625 18.746094 10.402344 C 18.746094 10.414062 18.746094 10.433594 18.746094 10.445312 C 18.746094 10.453125 18.746094 10.464844 18.746094 10.472656 C 18.746094 10.503906 18.746094 10.535156 18.734375 10.566406 C 18.734375 10.597656 18.726562 10.628906 18.714844 10.660156 C 18.714844 10.710938 18.695312 10.773438 18.683594 10.824219 C 18.675781 10.914062 18.652344 11.007812 18.644531 11.101562 C 18.644531 11.132812 18.632812 11.160156 18.625 11.191406 C 18.625 11.191406 18.625 11.214844 18.625 11.214844 C 18.625 11.273438 18.601562 11.328125 18.59375 11.386719 C 18.550781 11.625 18.523438 11.859375 18.480469 12.097656 C 18.480469 12.097656 18.480469 12.117188 18.480469 12.117188 C 18.46875 12.207031 18.449219 12.300781 18.441406 12.394531 C 18.410156 12.558594 18.390625 12.710938 18.359375 12.875 C 18.359375 12.898438 18.359375 12.90625 18.359375 12.925781 C 18.296875 13.277344 18.246094 13.625 18.183594 13.984375 C 18.164062 14.109375 18.144531 14.21875 18.125 14.34375 C 18.125 14.34375 18.125 14.351562 18.125 14.363281 C 18.074219 14.671875 18.023438 14.96875 17.972656 15.277344 C 17.972656 15.296875 17.972656 15.320312 17.972656 15.339844 C 17.941406 15.511719 17.921875 15.675781 17.890625 15.851562 C 17.839844 16.148438 17.796875 16.4375 17.746094 16.734375 L 17.746094 16.816406 C 17.65625 17.328125 17.574219 17.832031 17.492188 18.347656 C 17.480469 18.4375 17.460938 18.53125 17.453125 18.613281 C 17.453125 18.613281 17.453125 18.625 17.453125 18.632812 C 17.398438 18.953125 17.347656 19.269531 17.296875 19.585938 C 17.296875 19.585938 17.296875 19.597656 17.296875 19.609375 C 17.296875 19.640625 17.296875 19.660156 17.289062 19.691406 C 17.277344 19.761719 17.269531 19.835938 17.246094 19.90625 C 17.246094 19.90625 17.246094 19.917969 17.246094 19.925781 C 17.214844 20.132812 17.175781 20.335938 17.144531 20.542969 C 17.144531 20.542969 17.144531 20.550781 17.144531 20.5625 C 17.125 20.675781 17.113281 20.777344 17.09375 20.890625 C 17.035156 21.238281 16.980469 21.597656 16.921875 21.949219 C 16.921875 21.949219 16.921875 21.957031 16.921875 21.96875 C 16.910156 22.0625 16.890625 22.152344 16.878906 22.246094 C 16.878906 22.277344 16.871094 22.316406 16.859375 22.347656 C 16.859375 22.347656 16.859375 22.367188 16.859375 22.378906 C 16.777344 22.882812 16.695312 23.386719 16.617188 23.886719 C 16.542969 24.320312 16.472656 24.75 16.402344 25.179688 C 16.382812 25.304688 16.359375 25.417969 16.339844 25.539062 C 16.339844 25.5625 16.339844 25.570312 16.339844 25.589844 C 16.328125 25.664062 16.320312 25.726562 16.308594 25.796875 C 16.277344 25.992188 16.25 26.1875 16.21875 26.371094 C 16.199219 26.503906 16.175781 26.648438 16.144531 26.78125 C 16.136719 26.863281 16.117188 26.945312 16.105469 27.027344 C 16.105469 27.078125 16.085938 27.140625 16.074219 27.191406 C 16.074219 27.222656 16.066406 27.253906 16.054688 27.285156 C 16.054688 27.316406 16.054688 27.347656 16.042969 27.378906 C 16.042969 27.386719 16.042969 27.398438 16.042969 27.40625 C 16.042969 27.429688 16.042969 27.460938 16.035156 27.480469 C 16.035156 27.5 16.035156 27.519531 16.035156 27.53125 C 16.035156 27.53125 16.035156 27.550781 16.035156 27.5625 C 16.035156 27.5625 16.035156 27.582031 16.035156 27.59375 C 16.035156 27.59375 16.027344 27.601562 16.015625 27.625 C 16.015625 27.625 15.972656 27.632812 15.953125 27.644531 C 15.933594 27.644531 15.910156 27.65625 15.902344 27.664062 C 15.902344 27.664062 15.882812 27.664062 15.871094 27.675781 C 15.871094 27.675781 15.859375 27.675781 15.851562 27.675781 C 15.851562 27.675781 15.84375 27.675781 15.832031 27.675781 C 15.832031 27.675781 15.808594 27.675781 15.800781 27.683594 C 15.769531 27.695312 15.738281 27.707031 15.707031 27.714844 C 15.6875 27.714844 15.667969 27.726562 15.65625 27.738281 C 15.371094 27.839844 15.085938 27.941406 14.800781 28.042969 C 14.78125 28.042969 14.761719 28.054688 14.738281 28.066406 C 14.421875 28.179688 14.109375 28.28125 13.792969 28.382812 C 13.75 28.394531 13.699219 28.414062 13.660156 28.425781 C 13.515625 28.464844 13.375 28.515625 13.230469 28.558594 C 13.230469 28.558594 13.222656 28.558594 13.210938 28.558594 C 12.832031 28.671875 12.457031 28.773438 12.070312 28.875 C 12.070312 28.875 12.046875 28.875 12.046875 28.875 C 11.628906 28.988281 11.203125 29.082031 10.785156 29.171875 C 10.773438 29.171875 10.753906 29.171875 10.742188 29.171875 C 10.183594 29.285156 9.621094 29.378906 8.347656 29.492188 C 8.234375 29.492188 8.125 29.5 8.011719 29.511719 C 7.898438 29.523438 7.777344 29.523438 7.664062 29.523438 C 7.644531 29.523438 7.625 29.523438 7.605469 29.523438 C 7.238281 29.523438 6.769531 29.5 6.484375 29.234375 C 6.441406 29.183594 6.402344 29.132812 6.402344 29.070312 C 6.402344 29.007812 6.421875 28.96875 6.460938 28.925781 C 6.542969 28.855469 6.667969 28.824219 6.769531 28.824219 C 6.769531 28.824219 6.789062 28.824219 6.800781 28.824219 C 6.800781 28.824219 6.800781 28.824219 6.808594 28.824219 C 7.09375 28.804688 7.328125 28.703125 7.542969 28.515625 C 7.542969 28.515625 7.542969 28.515625 7.554688 28.515625 C 7.636719 28.445312 7.714844 28.363281 7.777344 28.269531 C 7.777344 28.261719 7.796875 28.238281 7.808594 28.230469 C 8.125 27.820312 8.328125 27.324219 8.757812 25.980469 C 8.757812 25.980469 8.757812 25.972656 8.757812 25.960938 C 8.777344 25.878906 8.796875 25.796875 8.808594 25.714844 C 8.808594 25.714844 8.808594 25.714844 8.808594 25.703125 C 8.828125 25.589844 8.847656 25.480469 8.867188 25.355469 C 8.867188 25.324219 8.878906 25.292969 8.890625 25.261719 C 8.890625 25.203125 8.910156 25.140625 8.917969 25.078125 C 8.929688 25.007812 8.941406 24.933594 8.960938 24.851562 C 8.992188 24.65625 9.019531 24.472656 9.050781 24.277344 C 9.050781 24.277344 9.050781 24.269531 9.050781 24.257812 C 9.09375 24.019531 9.125 23.796875 9.164062 23.558594 C 9.234375 23.128906 9.304688 22.707031 9.367188 22.277344 C 9.367188 22.265625 9.367188 22.246094 9.367188 22.234375 C 9.367188 22.214844 9.367188 22.195312 9.378906 22.164062 C 9.386719 22.09375 9.398438 22.019531 9.417969 21.9375 C 9.417969 21.929688 9.417969 21.90625 9.417969 21.898438 C 9.46875 21.609375 9.511719 21.332031 9.5625 21.046875 C 9.5625 21.023438 9.5625 21.015625 9.5625 20.992188 C 9.582031 20.882812 9.601562 20.769531 9.621094 20.644531 C 9.664062 20.367188 9.714844 20.089844 9.753906 19.8125 C 9.753906 19.761719 9.777344 19.722656 9.777344 19.671875 C 9.867188 19.125 9.949219 18.582031 10.039062 18.046875 C 10.050781 17.964844 10.070312 17.882812 10.082031 17.800781 C 10.082031 17.800781 10.082031 17.796875 10.082031 17.78125 C 10.121094 17.535156 10.164062 17.277344 10.203125 17.03125 C 10.203125 17.03125 10.203125 17.011719 10.203125 17.011719 C 10.222656 16.890625 10.246094 16.777344 10.265625 16.652344 C 10.285156 16.53125 10.304688 16.394531 10.324219 16.273438 C 10.324219 16.273438 10.324219 16.253906 10.324219 16.253906 C 10.367188 16.007812 10.40625 15.75 10.449219 15.503906 C 10.449219 15.484375 10.449219 15.472656 10.449219 15.453125 C 10.46875 15.320312 10.488281 15.183594 10.507812 15.0625 C 10.570312 14.691406 10.632812 14.324219 10.691406 13.953125 C 10.691406 13.933594 10.691406 13.921875 10.691406 13.902344 C 10.714844 13.777344 10.734375 13.65625 10.753906 13.523438 C 10.804688 13.183594 10.867188 12.84375 10.917969 12.515625 C 10.917969 12.515625 10.917969 12.507812 10.917969 12.496094 C 10.9375 12.382812 10.957031 12.269531 10.96875 12.15625 C 11.019531 11.839844 11.070312 11.519531 11.121094 11.203125 C 11.121094 11.203125 11.121094 11.191406 11.121094 11.183594 C 11.140625 11.039062 11.171875 10.886719 11.191406 10.742188 C 11.191406 10.691406 11.210938 10.640625 11.222656 10.578125 C 11.222656 10.535156 11.234375 10.503906 11.242188 10.464844 C 11.242188 10.445312 11.242188 10.421875 11.253906 10.390625 C 11.253906 10.390625 11.253906 10.371094 11.253906 10.363281 C 11.253906 10.351562 11.253906 10.332031 11.253906 10.320312 L 11.253906 10.300781 C 11.253906 10.300781 11.265625 10.238281 11.273438 10.199219 Z M 11.273438 10.238281 "/>
<path style=" stroke:none;fill-rule:nonzero;fill:rgb(100%,100%,100%);fill-opacity:1;" d="M 20.40625 17.144531 C 20.824219 17.144531 21.242188 17.144531 21.660156 17.144531 L 21.679688 17.144531 C 21.8125 17.144531 21.945312 17.144531 22.078125 17.144531 C 22.140625 17.144531 22.210938 17.144531 22.273438 17.144531 L 22.292969 17.144531 C 22.507812 17.144531 22.722656 17.144531 22.925781 17.144531 C 23.140625 17.144531 23.363281 17.144531 23.578125 17.144531 C 23.609375 17.144531 23.636719 17.144531 23.667969 17.144531 L 23.691406 17.144531 C 23.792969 17.144531 23.882812 17.144531 23.984375 17.144531 C 24.085938 17.144531 24.179688 17.144531 24.28125 17.144531 C 24.34375 17.144531 24.394531 17.144531 24.453125 17.144531 C 24.496094 17.144531 24.535156 17.144531 24.566406 17.144531 C 24.585938 17.144531 24.605469 17.144531 24.636719 17.144531 C 24.871094 17.144531 25.125 17.15625 25.332031 17.300781 C 25.332031 17.300781 25.332031 17.300781 25.339844 17.300781 C 25.464844 17.390625 25.542969 17.515625 25.566406 17.660156 C 25.566406 17.699219 25.566406 17.730469 25.574219 17.769531 C 25.574219 17.792969 25.574219 17.800781 25.574219 17.824219 C 25.574219 17.863281 25.574219 17.894531 25.574219 17.933594 C 25.574219 17.933594 25.574219 17.941406 25.574219 17.957031 C 25.574219 18.058594 25.554688 18.152344 25.515625 18.242188 C 25.453125 18.429688 25.402344 18.613281 25.363281 18.796875 C 25.363281 18.816406 25.351562 18.839844 25.339844 18.871094 C 25.339844 18.890625 25.332031 18.910156 25.320312 18.929688 C 25.320312 18.941406 25.320312 18.953125 25.320312 18.960938 C 25.28125 19.105469 25.277344 19.246094 25.308594 19.382812 C 25.363281 19.453125 25.433594 19.484375 25.515625 19.503906 C 25.574219 19.503906 25.636719 19.515625 25.699219 19.515625 C 25.699219 19.515625 25.707031 19.515625 25.726562 19.515625 C 25.726562 19.515625 25.777344 19.515625 25.800781 19.515625 C 25.832031 19.515625 25.851562 19.515625 25.882812 19.515625 C 25.921875 19.515625 25.972656 19.515625 26.015625 19.515625 C 26.085938 19.515625 26.144531 19.515625 26.21875 19.515625 C 26.328125 19.515625 26.441406 19.515625 26.554688 19.515625 C 26.667969 19.515625 26.777344 19.515625 26.890625 19.515625 C 26.890625 19.515625 26.902344 19.515625 26.910156 19.515625 C 26.941406 19.515625 26.980469 19.515625 27.011719 19.515625 C 27.257812 19.515625 27.511719 19.515625 27.757812 19.515625 C 28 19.515625 28.234375 19.515625 28.480469 19.515625 C 28.480469 19.515625 28.492188 19.515625 28.5 19.515625 C 28.574219 19.515625 28.652344 19.515625 28.726562 19.515625 C 28.878906 19.515625 29.03125 19.515625 29.183594 19.515625 C 29.183594 19.515625 29.195312 19.515625 29.203125 19.515625 C 29.671875 19.515625 30.140625 19.515625 30.601562 19.515625 C 30.582031 19.535156 30.570312 19.546875 30.550781 19.558594 C 30.550781 19.558594 30.539062 19.558594 30.53125 19.566406 C 30.53125 19.566406 30.519531 19.566406 30.507812 19.578125 C 30.5 19.578125 30.488281 19.597656 30.476562 19.597656 C 30.476562 19.597656 30.46875 19.597656 30.457031 19.609375 C 30.4375 19.628906 30.40625 19.640625 30.386719 19.660156 C 30.386719 19.660156 30.367188 19.671875 30.355469 19.679688 C 30.355469 19.679688 30.335938 19.691406 30.324219 19.699219 C 30.253906 19.753906 30.171875 19.804688 30.101562 19.863281 C 30.082031 19.875 30.070312 19.886719 30.050781 19.894531 C 29.9375 19.976562 29.824219 20.058594 29.714844 20.132812 C 29.695312 20.140625 29.683594 20.152344 29.664062 20.164062 C 29.5 20.277344 29.328125 20.386719 29.164062 20.511719 C 29.152344 20.511719 29.132812 20.53125 29.121094 20.542969 C 28.980469 20.644531 28.835938 20.738281 28.683594 20.828125 C 28.613281 20.882812 28.542969 20.921875 28.46875 20.972656 C 28.328125 21.066406 28.183594 21.15625 28.042969 21.261719 C 28.023438 21.269531 28 21.292969 27.980469 21.300781 C 27.949219 21.324219 27.929688 21.332031 27.898438 21.351562 C 27.898438 21.351562 27.898438 21.351562 27.890625 21.351562 C 27.808594 21.40625 27.726562 21.457031 27.65625 21.507812 C 27.632812 21.515625 27.613281 21.539062 27.59375 21.546875 C 27.53125 21.589844 27.460938 21.628906 27.390625 21.671875 C 27.359375 21.691406 27.328125 21.710938 27.289062 21.734375 C 27.214844 21.785156 27.136719 21.824219 27.0625 21.875 C 27.03125 21.898438 27.011719 21.90625 26.980469 21.929688 C 26.972656 21.929688 26.953125 21.949219 26.941406 21.949219 C 26.910156 21.96875 26.878906 21.988281 26.839844 22.011719 C 26.769531 22.050781 26.695312 22.101562 26.625 22.144531 C 26.585938 22.175781 26.535156 22.195312 26.492188 22.226562 C 26.421875 22.277344 26.339844 22.316406 26.269531 22.367188 C 26.238281 22.390625 26.21875 22.398438 26.1875 22.421875 C 26.117188 22.460938 26.042969 22.511719 25.972656 22.554688 C 25.941406 22.574219 25.910156 22.59375 25.882812 22.605469 C 25.800781 22.65625 25.71875 22.707031 25.636719 22.757812 C 25.585938 22.789062 25.523438 22.820312 25.472656 22.851562 C 25.402344 22.890625 25.332031 22.933594 25.257812 22.972656 C 25.257812 22.972656 25.257812 22.972656 25.25 22.972656 C 25.25 22.972656 25.25 22.972656 25.238281 22.972656 C 25.199219 22.996094 25.167969 23.015625 25.125 23.035156 C 25.015625 23.097656 24.902344 23.167969 24.789062 23.230469 C 24.738281 23.261719 24.699219 23.28125 24.648438 23.3125 C 24.527344 23.386719 24.414062 23.445312 24.292969 23.519531 C 24.25 23.550781 24.199219 23.570312 24.160156 23.601562 C 24.078125 23.652344 23.996094 23.691406 23.914062 23.746094 C 23.882812 23.765625 23.84375 23.785156 23.8125 23.804688 C 23.8125 23.804688 23.800781 23.804688 23.792969 23.816406 C 23.75 23.835938 23.710938 23.855469 23.679688 23.878906 C 23.597656 23.929688 23.515625 23.96875 23.433594 24.019531 C 23.402344 24.042969 23.375 24.050781 23.351562 24.074219 C 23.273438 24.113281 23.191406 24.164062 23.109375 24.207031 C 23.066406 24.226562 23.027344 24.257812 22.984375 24.277344 C 22.914062 24.320312 22.84375 24.359375 22.761719 24.402344 C 22.710938 24.433594 22.660156 24.460938 22.597656 24.484375 C 22.597656 24.484375 22.589844 24.484375 22.578125 24.484375 C 22.546875 24.492188 22.527344 24.515625 22.496094 24.535156 C 22.496094 24.535156 22.488281 24.535156 22.476562 24.535156 C 22.476562 24.535156 22.457031 24.542969 22.445312 24.554688 C 22.445312 24.554688 22.441406 24.554688 22.4375 24.554688 C 22.4375 24.554688 22.4375 24.554688 22.425781 24.554688 C 22.394531 24.554688 22.355469 24.554688 22.324219 24.535156 C 22.324219 24.535156 22.324219 24.535156 22.3125 24.535156 C 22.304688 24.535156 22.28125 24.535156 22.273438 24.523438 C 22.273438 24.523438 22.273438 24.523438 22.261719 24.523438 C 21.9375 24.410156 21.609375 24.257812 21.324219 24.074219 C 21.324219 24.074219 21.324219 24.074219 21.316406 24.074219 C 21.210938 24.011719 21.121094 23.9375 21.027344 23.855469 C 21.027344 23.855469 21.007812 23.835938 21 23.835938 C 20.957031 23.804688 20.917969 23.765625 20.875 23.734375 C 20.855469 23.714844 20.84375 23.703125 20.824219 23.691406 C 20.753906 23.632812 20.683594 23.558594 20.621094 23.476562 C 20.609375 23.457031 20.589844 23.445312 20.582031 23.425781 C 20.539062 23.375 20.5 23.324219 20.457031 23.273438 C 20.457031 23.273438 20.453125 23.269531 20.449219 23.261719 C 20.367188 23.148438 20.296875 23.035156 20.234375 22.921875 C 20.234375 22.921875 20.234375 22.914062 20.234375 22.902344 C 20.140625 22.726562 20.0625 22.554688 20 22.367188 C 20 22.367188 20 22.359375 20 22.347656 C 19.878906 21.988281 19.804688 21.609375 19.773438 21.230469 C 19.773438 21.210938 19.773438 21.199219 19.773438 21.179688 C 19.753906 20.890625 19.753906 20.582031 19.773438 20.296875 C 19.773438 20.277344 19.773438 20.265625 19.773438 20.246094 C 19.816406 19.699219 19.898438 19.15625 20.019531 18.625 C 20.019531 18.613281 20.019531 18.59375 20.03125 18.582031 C 20.0625 18.429688 20.113281 18.285156 20.152344 18.128906 C 20.203125 17.964844 20.246094 17.792969 20.285156 17.628906 C 20.285156 17.628906 20.285156 17.621094 20.285156 17.605469 C 20.285156 17.605469 20.304688 17.515625 20.324219 17.464844 C 20.347656 17.382812 20.367188 17.300781 20.386719 17.21875 C 20.386719 17.207031 20.386719 17.195312 20.386719 17.175781 C 20.386719 17.144531 20.40625 17.113281 20.40625 17.082031 Z M 20.40625 17.144531 "/>
<path style=" stroke:none;fill-rule:nonzero;fill:rgb(100%,100%,100%);fill-opacity:1;" d="M 16.289062 1.964844 C 16.289062 1.964844 16.320312 1.964844 16.339844 1.964844 C 16.371094 1.964844 16.410156 1.964844 16.441406 1.964844 C 16.492188 1.964844 16.542969 1.964844 16.59375 1.964844 C 16.6875 1.964844 16.769531 1.964844 16.859375 1.964844 C 16.941406 1.964844 17.035156 1.964844 17.113281 1.964844 L 17.136719 1.964844 C 17.136719 1.964844 17.1875 1.964844 17.214844 1.964844 C 17.410156 1.964844 17.605469 1.964844 17.796875 1.964844 C 17.980469 1.964844 18.175781 1.964844 18.359375 1.964844 L 18.378906 1.964844 C 18.441406 1.964844 18.492188 1.964844 18.550781 1.964844 C 18.675781 1.964844 18.785156 1.964844 18.910156 1.964844 L 18.929688 1.964844 C 19.296875 1.964844 19.652344 1.964844 20.019531 1.964844 C 19.96875 2.253906 19.929688 2.550781 19.878906 2.839844 C 19.878906 2.878906 19.867188 2.921875 19.855469 2.953125 C 19.847656 3.011719 19.835938 3.085938 19.828125 3.148438 C 19.804688 3.25 19.796875 3.351562 19.773438 3.445312 C 19.773438 3.484375 19.765625 3.527344 19.753906 3.566406 C 19.753906 3.566406 19.753906 3.566406 19.753906 3.578125 C 19.746094 3.648438 19.734375 3.710938 19.722656 3.78125 C 19.695312 4 19.652344 4.214844 19.621094 4.417969 C 19.621094 4.417969 19.621094 4.425781 19.621094 4.441406 C 19.613281 4.523438 19.59375 4.605469 19.582031 4.6875 C 19.570312 4.777344 19.550781 4.871094 19.539062 4.964844 L 19.539062 5.054688 C 19.5 5.230469 19.46875 5.394531 19.449219 5.570312 C 19.429688 5.671875 19.417969 5.785156 19.398438 5.886719 C 19.398438 5.917969 19.386719 5.949219 19.378906 5.980469 C 19.335938 6.257812 19.285156 6.535156 19.246094 6.820312 C 19.246094 6.839844 19.246094 6.851562 19.246094 6.871094 C 19.226562 6.976562 19.214844 7.085938 19.195312 7.191406 C 19.195312 7.230469 19.183594 7.273438 19.175781 7.3125 C 19.175781 7.34375 19.175781 7.363281 19.164062 7.394531 C 19.164062 7.417969 19.164062 7.4375 19.164062 7.457031 C 19.164062 7.457031 19.164062 7.46875 19.164062 7.476562 C 19.164062 7.476562 19.164062 7.488281 19.164062 7.5 C 19.164062 7.5 19.164062 7.507812 19.164062 7.519531 C 19.164062 7.539062 19.164062 7.550781 19.164062 7.570312 L 11.671875 7.570312 C 11.679688 7.488281 11.683594 7.425781 11.691406 7.386719 C 11.691406 7.386719 11.691406 7.375 11.691406 7.363281 C 11.691406 7.34375 11.691406 7.324219 11.691406 7.304688 C 11.691406 7.292969 11.691406 7.273438 11.691406 7.261719 C 11.691406 7.222656 11.703125 7.179688 11.710938 7.140625 C 11.710938 7.097656 11.722656 7.058594 11.734375 7.015625 C 11.742188 6.945312 11.753906 6.871094 11.761719 6.800781 C 11.773438 6.730469 11.785156 6.65625 11.792969 6.585938 C 11.792969 6.585938 11.792969 6.585938 11.792969 6.574219 C 11.792969 6.574219 11.792969 6.570312 11.792969 6.5625 C 11.804688 6.480469 11.8125 6.410156 11.835938 6.328125 C 11.835938 6.296875 11.84375 6.265625 11.855469 6.226562 C 11.875 6.082031 11.90625 5.929688 11.925781 5.785156 C 11.925781 5.773438 11.925781 5.765625 11.925781 5.753906 C 11.945312 5.652344 11.96875 5.546875 11.988281 5.445312 C 11.988281 5.445312 11.988281 5.425781 11.988281 5.425781 C 12.058594 5.148438 12.152344 4.882812 12.273438 4.625 C 12.273438 4.605469 12.292969 4.582031 12.304688 4.5625 C 12.34375 4.472656 12.386719 4.386719 12.4375 4.304688 C 12.4375 4.285156 12.457031 4.277344 12.464844 4.253906 C 12.507812 4.183594 12.546875 4.121094 12.589844 4.050781 C 12.589844 4.050781 12.589844 4.039062 12.597656 4.03125 C 12.679688 3.90625 12.761719 3.792969 12.855469 3.679688 C 12.863281 3.660156 12.882812 3.648438 12.894531 3.628906 C 12.914062 3.597656 12.945312 3.578125 12.964844 3.546875 C 12.964844 3.546875 12.964844 3.546875 12.964844 3.535156 C 13.039062 3.453125 13.109375 3.382812 13.179688 3.3125 C 13.191406 3.300781 13.210938 3.28125 13.222656 3.269531 C 13.222656 3.269531 13.242188 3.25 13.25 3.238281 C 13.25 3.238281 13.25 3.238281 13.261719 3.230469 C 13.28125 3.207031 13.3125 3.175781 13.332031 3.15625 C 13.34375 3.148438 13.363281 3.136719 13.375 3.117188 C 13.394531 3.09375 13.414062 3.074219 13.445312 3.054688 C 13.464844 3.035156 13.496094 3.011719 13.515625 2.992188 C 13.546875 2.960938 13.578125 2.941406 13.609375 2.910156 C 13.628906 2.890625 13.660156 2.871094 13.679688 2.847656 C 13.8125 2.734375 13.953125 2.644531 14.097656 2.5625 C 14.097656 2.5625 14.097656 2.5625 14.109375 2.5625 C 14.585938 2.273438 15.117188 2.078125 16.269531 1.964844 Z M 16.289062 1.964844 "/>
</g>
</svg>
