<?xml version="1.0" encoding="UTF-8"?>
<svg xmlns="http://www.w3.org/2000/svg" xmlns:xlink="http://www.w3.org/1999/xlink" width="50px" height="50px" viewBox="0 0 50 49" version="1.1">
<g id="surface1">
<path style=" stroke:none;fill-rule:nonzero;fill:rgb(99.215686%,34.509805%,15.294118%);fill-opacity:1;" d="M 23.855469 23.75 C 23.855469 23.75 25.007812 19.816406 25.9375 15.863281 C 27.335938 9.910156 28.070312 2.460938 23.359375 0.667969 C 15.539062 -2.3125 13.691406 5.742188 13.691406 5.742188 C 13.691406 5.742188 5.222656 2.75 5.035156 12.167969 C 4.957031 15.941406 7.96875 17.90625 11.699219 19.503906 C 17.300781 21.910156 23.855469 23.75 23.855469 23.75 Z M 23.855469 23.75 "/>
<path style=" stroke:none;fill-rule:nonzero;fill:rgb(5.098039%,23.137255%,33.333334%);fill-opacity:1;" d="M 37.996094 4.75 C 28.289062 3.960938 25.660156 23.332031 25.660156 23.332031 C 25.660156 23.332031 45.503906 31.535156 49.101562 23.949219 C 52.703125 16.359375 44.304688 14.078125 44.304688 14.078125 C 44.304688 14.078125 47.714844 5.539062 37.996094 4.75 Z M 37.996094 4.75 "/>
<path style=" stroke:none;fill-rule:nonzero;fill:rgb(99.215686%,34.509805%,15.294118%);fill-opacity:1;" d="M 25.125 24.648438 C 25.125 24.648438 17.71875 45.324219 25.441406 48.289062 C 33.613281 51.425781 35.777344 43.097656 35.777344 43.097656 C 35.777344 43.097656 46.386719 46.039062 44.976562 36.375 C 43.707031 27.707031 25.125 24.648438 25.125 24.648438 Z M 25.125 24.648438 "/>
<path style=" stroke:none;fill-rule:nonzero;fill:rgb(99.215686%,34.509805%,15.294118%);fill-opacity:1;" d="M 23.460938 24.542969 C 23.460938 24.542969 5.640625 16.535156 1.21875 24.902344 C -3.203125 33.269531 5.828125 34.964844 5.828125 34.964844 C 5.828125 34.964844 3.765625 43.222656 12.105469 44.257812 C 20.445312 45.289062 23.457031 24.542969 23.457031 24.542969 Z M 23.460938 24.542969 "/>
</g>
</svg>
