<?xml version="1.0" encoding="UTF-8"?>
<svg xmlns="http://www.w3.org/2000/svg" xmlns:xlink="http://www.w3.org/1999/xlink" width="43px" height="50px" viewBox="0 0 43 50" version="1.1">
<g id="surface1">
<path style=" stroke:none;fill-rule:nonzero;fill:rgb(100%,100%,100%);fill-opacity:1;" d="M 0 8.871094 C 0 17.851562 0.03125 18.574219 0.398438 19.554688 C 0.496094 19.789062 0.515625 19.765625 0.902344 19.179688 C 1.140625 18.839844 1.753906 18.136719 2.269531 17.628906 L 3.226562 16.691406 L 3.226562 3.191406 L 39.773438 3.191406 L 39.773438 10.265625 C 39.773438 18.265625 39.773438 18.320312 38.992188 19.894531 C 38.128906 21.628906 36.257812 23.128906 34.390625 23.5625 C 33.484375 23.765625 31.722656 23.765625 30.90625 23.5625 C 30.066406 23.339844 29.230469 22.957031 28.585938 22.5 C 28.292969 22.296875 28.015625 22.128906 27.972656 22.128906 C 27.84375 22.128906 27.230469 23.191406 27.035156 23.765625 C 26.941406 24.054688 26.84375 24.488281 26.800781 24.734375 L 26.746094 25.191406 L 27.371094 25.554688 C 33.078125 28.851562 40.300781 26.210938 42.429688 20.054688 C 42.988281 18.425781 43 18.203125 43 8.765625 L 43 0 L 0 0 Z M 0 8.871094 "/>
<path style=" stroke:none;fill-rule:nonzero;fill:rgb(100%,100%,100%);fill-opacity:1;" d="M 10.511719 4.296875 C 10.289062 4.382812 9.988281 4.519531 9.847656 4.617188 C 9.652344 4.734375 9.449219 4.765625 9.105469 4.722656 C 7.535156 4.511719 6 6.105469 6.320312 7.597656 C 6.480469 8.363281 6.933594 9.011719 7.523438 9.339844 C 7.933594 9.5625 8.09375 9.722656 8.222656 10.074219 C 8.460938 10.671875 9.105469 11.222656 9.792969 11.425781 C 10.492188 11.636719 10.578125 11.636719 11.296875 11.425781 C 11.738281 11.296875 11.996094 11.128906 12.394531 10.710938 L 12.910156 10.171875 L 13.578125 10.5 C 17.039062 12.191406 18.414062 16.53125 16.585938 20.03125 C 16.015625 21.117188 14.628906 22.480469 13.546875 23 C 12.277344 23.617188 11.566406 23.753906 9.996094 23.703125 C 8.4375 23.636719 7.609375 23.394531 6.386719 22.597656 C 5.988281 22.339844 5.632812 22.128906 5.601562 22.128906 C 5.472656 22.128906 4.847656 23.246094 4.664062 23.820312 C 4.558594 24.136719 4.472656 24.585938 4.472656 24.820312 C 4.460938 25.234375 4.472656 25.234375 5.320312 25.703125 C 7.191406 26.722656 9.351562 27.160156 11.375 26.925781 C 13.867188 26.636719 15.910156 25.660156 17.683594 23.894531 C 19.007812 22.585938 19.875 21.0625 20.382812 19.203125 C 20.703125 18.042969 20.671875 15.253906 20.339844 14.097656 C 20.015625 13 19.371094 11.636719 18.769531 10.820312 C 17.757812 9.414062 15.835938 7.871094 14.425781 7.328125 C 14.019531 7.171875 13.808594 6.941406 13.804688 6.636719 C 13.78125 5.542969 13.070312 4.617188 12.027344 4.320312 C 11.351562 4.117188 11.039062 4.117188 10.511719 4.296875 Z M 10.511719 4.296875 "/>
<path style=" stroke:none;fill-rule:nonzero;fill:rgb(100%,100%,100%);fill-opacity:1;" d="M 30.90625 4.320312 C 29.929688 4.660156 29.230469 5.585938 29.207031 6.585938 L 29.1875 7.097656 L 28.574219 7.328125 C 27.164062 7.871094 25.242188 9.414062 24.230469 10.820312 C 23.640625 11.628906 22.984375 12.988281 22.683594 14.042969 C 22.261719 15.46875 22.261719 17.902344 22.691406 19.394531 L 22.800781 19.789062 L 23.425781 18.96875 C 23.769531 18.511719 24.390625 17.820312 24.8125 17.425781 C 25.507812 16.777344 25.585938 16.671875 25.585938 16.296875 C 25.585938 15.203125 26.328125 13.328125 27.1875 12.265625 C 27.703125 11.628906 28.714844 10.839844 29.53125 10.445312 L 30.078125 10.179688 L 30.617188 10.722656 C 31.015625 11.117188 31.292969 11.296875 31.710938 11.425781 C 32.421875 11.636719 32.507812 11.636719 33.207031 11.425781 C 33.894531 11.222656 34.539062 10.671875 34.777344 10.074219 C 34.90625 9.722656 35.066406 9.5625 35.476562 9.339844 C 36.378906 8.839844 36.863281 7.765625 36.648438 6.722656 C 36.410156 5.53125 35.367188 4.734375 34.078125 4.734375 C 33.617188 4.734375 33.28125 4.679688 33.109375 4.5625 C 32.433594 4.136719 31.660156 4.054688 30.90625 4.320312 Z M 30.90625 4.320312 "/>
<path style=" stroke:none;fill-rule:nonzero;fill:rgb(100%,100%,100%);fill-opacity:1;" d="M 9.191406 15.53125 C 4.589844 16.085938 0.976562 19.46875 0.160156 24.019531 C 0.03125 24.679688 0.0117188 27.203125 0 37.414062 L 0 50 L 43 50 L 43 37.339844 C 43 26.308594 42.976562 24.5625 42.828125 23.871094 C 42.558594 22.554688 42.558594 22.5625 42.140625 23.210938 C 41.9375 23.519531 41.324219 24.234375 40.773438 24.789062 L 39.773438 25.796875 L 39.773438 39.363281 L 3.214844 39.363281 L 3.246094 31.882812 L 3.277344 24.414062 L 3.578125 23.542969 C 4.355469 21.289062 6.265625 19.511719 8.558594 18.9375 C 9.558594 18.679688 11.050781 18.660156 12.019531 18.882812 C 12.769531 19.0625 14.050781 19.660156 14.640625 20.128906 L 15.039062 20.4375 L 15.308594 20.03125 C 15.695312 19.457031 16.125 18.351562 16.199219 17.777344 L 16.253906 17.289062 L 15.671875 16.945312 C 13.792969 15.828125 11.296875 15.289062 9.191406 15.53125 Z M 4.847656 43.828125 C 5.460938 44.882812 6 45.734375 6.042969 45.722656 C 6.09375 45.703125 6.601562 44.851562 7.179688 43.828125 C 7.761719 42.796875 8.300781 41.957031 8.394531 41.9375 C 8.535156 41.914062 8.578125 42.085938 8.632812 43.105469 C 8.675781 43.765625 8.707031 44.96875 8.707031 45.765625 L 8.707031 47.234375 L 7.859375 47.234375 L 7.824219 45.746094 L 7.792969 44.246094 L 6.988281 45.765625 C 6.492188 46.691406 6.117188 47.289062 6.019531 47.289062 C 5.921875 47.289062 5.535156 46.703125 5.050781 45.828125 C 4.570312 44.957031 4.214844 44.425781 4.171875 44.5 C 4.128906 44.574219 4.085938 45.210938 4.085938 45.925781 L 4.085938 47.234375 L 3.191406 47.234375 L 3.257812 46.097656 C 3.300781 45.480469 3.332031 44.277344 3.332031 43.4375 C 3.332031 41.308594 3.40625 41.328125 4.847656 43.828125 Z M 14.265625 42.136719 C 14.585938 42.296875 14.824219 42.511719 15.027344 42.851562 C 15.308594 43.339844 15.320312 43.402344 15.351562 45.289062 L 15.394531 47.234375 L 14.523438 47.234375 L 14.492188 46.617188 L 14.457031 46.011719 L 11.878906 46.011719 L 11.847656 46.617188 L 11.8125 47.234375 L 10.964844 47.234375 L 10.964844 45.371094 C 10.964844 43.4375 11.039062 43 11.480469 42.511719 C 12.019531 41.914062 13.40625 41.722656 14.265625 42.136719 Z M 20.015625 42.019531 C 20.511719 42.160156 20.554688 42.234375 20.414062 42.648438 C 20.328125 42.902344 20.242188 42.980469 20.113281 42.925781 C 19.1875 42.5625 18.457031 42.648438 18.273438 43.136719 C 18.101562 43.585938 18.308594 43.796875 19.394531 44.308594 C 20.554688 44.851562 20.789062 45.117188 20.789062 45.882812 C 20.789062 46.46875 20.554688 46.851562 19.996094 47.136719 C 19.382812 47.46875 17.910156 47.382812 17.371094 46.988281 C 17.199219 46.863281 17.1875 46.796875 17.296875 46.457031 L 17.425781 46.074219 L 17.878906 46.289062 C 18.5 46.5625 19.394531 46.554688 19.671875 46.277344 C 20.15625 45.796875 19.917969 45.480469 18.671875 44.894531 C 17.621094 44.402344 17.308594 44.0625 17.308594 43.394531 C 17.308594 42.902344 17.683594 42.339844 18.167969 42.105469 C 18.585938 41.894531 19.414062 41.863281 20.015625 42.019531 Z M 26.746094 42.171875 C 26.941406 42.265625 27.089844 42.363281 27.089844 42.394531 C 27.089844 42.425781 26.875 42.945312 26.820312 43.0625 C 26.808594 43.074219 26.59375 43.011719 26.335938 42.925781 C 25.769531 42.722656 24.941406 42.722656 24.476562 42.914062 C 24.027344 43.097656 23.476562 43.722656 23.382812 44.148438 C 23.1875 45.03125 23.683594 46.011719 24.476562 46.339844 C 24.929688 46.53125 25.875 46.53125 26.421875 46.339844 L 26.863281 46.179688 L 26.972656 46.511719 C 27.085938 46.828125 26.941406 47.054688 26.542969 47.179688 C 25.734375 47.445312 24.511719 47.371094 23.8125 47.011719 C 21.640625 45.894531 22.003906 42.789062 24.402344 42.011719 C 24.832031 41.863281 26.359375 41.980469 26.746094 42.171875 Z M 32.273438 42.019531 C 32.839844 42.179688 33.550781 42.746094 33.839844 43.277344 C 34.140625 43.820312 34.261719 44.765625 34.089844 45.382812 C 33.917969 46 33.421875 46.636719 32.839844 46.980469 C 32.261719 47.308594 31.175781 47.4375 30.464844 47.246094 C 28.628906 46.753906 27.894531 44.46875 29.078125 42.9375 C 29.496094 42.382812 30.519531 41.914062 31.273438 41.914062 C 31.605469 41.914062 32.054688 41.96875 32.273438 42.019531 Z M 39.773438 42.394531 L 39.773438 42.753906 L 38.894531 42.789062 L 38 42.820312 L 37.96875 45.019531 L 37.949219 47.234375 L 37.085938 47.234375 L 37.085938 42.765625 L 35.261719 42.765625 L 35.261719 42.019531 L 39.773438 42.019531 Z M 39.773438 42.394531 "/>
<path style=" stroke:none;fill-rule:nonzero;fill:rgb(100%,100%,100%);fill-opacity:1;" d="M 12.375 42.9375 C 12.007812 43.191406 11.824219 43.734375 11.824219 44.574219 L 11.824219 45.320312 L 14.425781 45.320312 L 14.382812 44.351562 C 14.351562 43.414062 14.339844 43.371094 13.996094 43.074219 C 13.71875 42.828125 13.554688 42.765625 13.136719 42.765625 C 12.835938 42.765625 12.523438 42.839844 12.375 42.9375 Z M 12.375 42.9375 "/>
<path style=" stroke:none;fill-rule:nonzero;fill:rgb(100%,100%,100%);fill-opacity:1;" d="M 30.710938 42.808594 C 30.175781 43 29.894531 43.253906 29.660156 43.777344 C 29.046875 45.085938 29.9375 46.53125 31.335938 46.53125 C 32.734375 46.53125 33.625 45.085938 33.011719 43.777344 C 32.777344 43.265625 32.539062 43.042969 32.003906 42.820312 C 31.53125 42.628906 31.25 42.628906 30.710938 42.808594 Z M 30.710938 42.808594 "/>
<path style=" stroke:none;fill-rule:nonzero;fill:rgb(100%,100%,100%);fill-opacity:1;" d="M 31.488281 15.53125 C 27.273438 16.042969 23.800781 19.011719 22.671875 23.03125 C 22.339844 24.222656 22.261719 26.457031 22.519531 27.671875 C 22.898438 29.542969 23.777344 31.234375 25.058594 32.597656 C 26.078125 33.679688 27.015625 34.382812 28.1875 34.925781 C 29.035156 35.328125 29.121094 35.402344 29.132812 35.671875 C 29.144531 37.128906 30.335938 38.296875 31.789062 38.296875 C 32.25 38.296875 32.894531 38.097656 33.183594 37.851562 C 33.269531 37.789062 33.691406 37.722656 34.109375 37.710938 C 35.023438 37.703125 35.605469 37.445312 36.097656 36.863281 C 36.636719 36.203125 36.828125 35.074219 36.507812 34.320312 C 36.304688 33.839844 35.753906 33.246094 35.324219 33.042969 C 35.066406 32.925781 34.882812 32.710938 34.667969 32.277344 C 33.863281 30.636719 31.507812 30.445312 30.421875 31.925781 L 30.121094 32.339844 L 29.335938 31.945312 C 28.164062 31.351562 26.941406 30.117188 26.359375 28.9375 C 26.113281 28.4375 25.832031 27.746094 25.746094 27.394531 C 25.542969 26.585938 25.542969 24.925781 25.746094 24.054688 C 26.21875 22.105469 27.550781 20.457031 29.464844 19.46875 C 30.496094 18.9375 31.390625 18.722656 32.636719 18.722656 C 34.207031 18.722656 35.421875 19.097656 36.777344 20 L 37.378906 20.402344 L 37.710938 19.863281 C 38.066406 19.277344 38.398438 18.402344 38.527344 17.746094 C 38.578125 17.476562 38.378906 17.199219 37.925781 16.914062 C 36.25 15.863281 33.527344 15.277344 31.488281 15.53125 Z M 31.488281 15.53125 "/>
<path style=" stroke:none;fill-rule:nonzero;fill:rgb(100%,100%,100%);fill-opacity:1;" d="M 19.78125 23.210938 C 19.585938 23.519531 18.964844 24.222656 18.414062 24.777344 C 17.511719 25.671875 17.414062 25.820312 17.414062 26.171875 C 17.414062 26.765625 17.039062 28.085938 16.652344 28.839844 C 15.964844 30.210938 14.8125 31.339844 13.46875 32 L 12.921875 32.265625 L 12.394531 31.734375 C 11.511719 30.839844 10.417969 30.636719 9.375 31.160156 C 8.867188 31.414062 8.34375 31.988281 8.171875 32.480469 C 8.074219 32.722656 7.890625 32.902344 7.566406 33.085938 C 5.828125 33.988281 5.902344 36.53125 7.6875 37.4375 C 8.09375 37.648438 8.375 37.710938 8.921875 37.710938 C 9.382812 37.710938 9.71875 37.765625 9.890625 37.882812 C 10.578125 38.320312 11.277344 38.394531 12.050781 38.136719 C 13.0625 37.796875 13.769531 36.882812 13.792969 35.863281 C 13.8125 35.363281 13.824219 35.351562 14.296875 35.160156 C 15.78125 34.574219 17.554688 33.203125 18.617188 31.820312 C 19.265625 30.96875 20.003906 29.480469 20.328125 28.402344 C 20.652344 27.265625 20.738281 25.03125 20.480469 23.820312 C 20.230469 22.574219 20.210938 22.554688 19.78125 23.210938 Z M 19.78125 23.210938 "/>
</g>
</svg>
