<?xml version="1.0" encoding="UTF-8"?>
<svg xmlns="http://www.w3.org/2000/svg" xmlns:xlink="http://www.w3.org/1999/xlink" width="50px" height="47px" viewBox="0 0 49 47" version="1.1">
<defs>
<linearGradient id="linear0" gradientUnits="userSpaceOnUse" x1="25.959999" y1="30.1" x2="9" y2="8.83" gradientTransform="matrix(1.223069,0,0,-1.234892,-4.553999,43.98686)">
<stop offset="0.17" style="stop-color:rgb(51.372549%,10.196078%,10.196078%);stop-opacity:1;"/>
<stop offset="0.28" style="stop-color:rgb(60%,13.333333%,12.156863%);stop-opacity:1;"/>
<stop offset="0.42" style="stop-color:rgb(68.627451%,15.686275%,14.117647%);stop-opacity:1;"/>
<stop offset="0.57" style="stop-color:rgb(74.509804%,18.823529%,15.686275%);stop-opacity:1;"/>
<stop offset="0.75" style="stop-color:rgb(78.431373%,19.607843%,16.078431%);stop-opacity:1;"/>
<stop offset="1" style="stop-color:rgb(79.215686%,20%,16.470588%);stop-opacity:1;"/>
</linearGradient>
<linearGradient id="linear1" gradientUnits="userSpaceOnUse" x1="54.970001" y1="12.35" x2="13.62" y2="17.860001" gradientTransform="matrix(1.223069,0,0,-1.234892,-4.553999,43.98686)">
<stop offset="0" style="stop-color:rgb(74.117647%,18.823529%,15.686275%);stop-opacity:1;"/>
<stop offset="0.1" style="stop-color:rgb(63.529412%,14.117647%,13.333333%);stop-opacity:1;"/>
<stop offset="0.2" style="stop-color:rgb(54.509804%,10.980392%,10.588235%);stop-opacity:1;"/>
<stop offset="0.27" style="stop-color:rgb(51.372549%,10.196078%,10.196078%);stop-opacity:1;"/>
<stop offset="0.75" style="stop-color:rgb(69.803922%,16.862745%,14.509804%);stop-opacity:1;"/>
<stop offset="1" style="stop-color:rgb(79.215686%,20%,16.470588%);stop-opacity:1;"/>
</linearGradient>
<linearGradient id="linear2" gradientUnits="userSpaceOnUse" x1="27.98" y1="26.77" x2="27.120001" y2="19.459999" gradientTransform="matrix(1.223069,0,0,-1.234892,-4.553999,43.98686)">
<stop offset="0" style="stop-color:rgb(58.039216%,11.372549%,12.156863%);stop-opacity:1;"/>
<stop offset="0.08" style="stop-color:rgb(62.745098%,13.72549%,12.941176%);stop-opacity:1;"/>
<stop offset="0.26" style="stop-color:rgb(70.980392%,18.431373%,15.294118%);stop-opacity:1;"/>
<stop offset="0.46" style="stop-color:rgb(77.254902%,20.392157%,16.862745%);stop-opacity:1;"/>
<stop offset="0.68" style="stop-color:rgb(80.784314%,22.352941%,17.647059%);stop-opacity:1;"/>
<stop offset="1" style="stop-color:rgb(81.960784%,23.137255%,17.647059%);stop-opacity:1;"/>
</linearGradient>
<linearGradient id="linear3" gradientUnits="userSpaceOnUse" x1="26.25" y1="26.18" x2="20.799999" y2="9.18" gradientTransform="matrix(1.223069,0,0,-1.234892,-4.553999,43.98686)">
<stop offset="0" style="stop-color:rgb(58.039216%,11.372549%,12.156863%);stop-opacity:1;"/>
<stop offset="0.08" style="stop-color:rgb(62.745098%,13.72549%,12.941176%);stop-opacity:1;"/>
<stop offset="0.26" style="stop-color:rgb(70.980392%,18.431373%,15.294118%);stop-opacity:1;"/>
<stop offset="0.46" style="stop-color:rgb(77.254902%,20.392157%,16.862745%);stop-opacity:1;"/>
<stop offset="0.68" style="stop-color:rgb(80.784314%,22.352941%,17.647059%);stop-opacity:1;"/>
<stop offset="1" style="stop-color:rgb(81.960784%,23.137255%,17.647059%);stop-opacity:1;"/>
</linearGradient>
<linearGradient id="linear4" gradientUnits="userSpaceOnUse" x1="25.17" y1="29.209999" x2="22.34" y2="5.11" gradientTransform="matrix(1.223069,0,0,-1.234892,-4.553999,43.98686)">
<stop offset="0" style="stop-color:rgb(58.039216%,11.372549%,12.156863%);stop-opacity:1;"/>
<stop offset="0.08" style="stop-color:rgb(62.745098%,13.72549%,12.941176%);stop-opacity:1;"/>
<stop offset="0.26" style="stop-color:rgb(70.980392%,18.431373%,15.294118%);stop-opacity:1;"/>
<stop offset="0.46" style="stop-color:rgb(77.254902%,20.392157%,16.862745%);stop-opacity:1;"/>
<stop offset="0.68" style="stop-color:rgb(80.784314%,22.352941%,17.647059%);stop-opacity:1;"/>
<stop offset="1" style="stop-color:rgb(81.960784%,23.137255%,17.647059%);stop-opacity:1;"/>
</linearGradient>
<radialGradient id="radial0" gradientUnits="userSpaceOnUse" cx="44.830002" cy="30.15" fx="44.830002" fy="30.15" r="15.75" gradientTransform="matrix(1.223069,0,0,-1.234892,-4.553999,43.98686)">
<stop offset="0" style="stop-color:rgb(92.156863%,52.156863%,50.980392%);stop-opacity:1;"/>
<stop offset="0.21" style="stop-color:rgb(92.54902%,53.72549%,52.54902%);stop-opacity:0.721569;"/>
<stop offset="0.52" style="stop-color:rgb(93.72549%,56.862745%,55.686275%);stop-opacity:0.341176;"/>
<stop offset="0.74" style="stop-color:rgb(93.72549%,58.039216%,56.470588%);stop-opacity:0.0901961;"/>
<stop offset="0.85" style="stop-color:rgb(93.72549%,58.823529%,57.254902%);stop-opacity:0;"/>
</radialGradient>
</defs>
<g id="surface1">
<path style=" stroke:none;fill-rule:nonzero;fill:url(#linear0);" d="M 35.5 21.066406 C 35.5 21.003906 35.5 20.929688 35.5 20.871094 L 35.5 20.757812 C 35.171875 14.71875 30.058594 10.089844 24.078125 10.410156 C 23.636719 10.433594 23.199219 10.484375 22.757812 10.570312 C 16.679688 11.484375 12.496094 17.203125 13.402344 23.328125 C 14.304688 29.464844 19.96875 33.6875 26.035156 32.773438 C 29.09375 32.316406 31.832031 30.589844 33.582031 27.996094 C 31.355469 31.339844 27.429688 34.109375 23.820312 35.269531 C 18.78125 36.898438 14.183594 36.304688 9.070312 32.601562 C 5.179688 29.796875 1.621094 23.847656 0.0820312 19.015625 C 0.0585938 18.707031 0.03125 18.398438 0.0195312 18.089844 C -0.175781 13.113281 1.792969 7.816406 6.820312 4.558594 C 7.628906 4.027344 8.472656 3.554688 9.339844 3.136719 C 10.34375 2.742188 11.394531 2.46875 12.457031 2.332031 C 14.808594 2.050781 19.246094 2.296875 23.675781 4.273438 C 27.550781 6.101562 30.792969 9.078125 32.957031 12.792969 C 34.15625 14.992188 35.441406 17.484375 35.488281 21.066406 Z M 35.5 21.066406 "/>
<path style=" stroke:none;fill-rule:nonzero;fill:url(#linear1);" d="M 47.585938 21.460938 C 46.621094 28.167969 42.082031 34.316406 40.46875 36.183594 C 37.3125 39.910156 33.484375 43 29.191406 45.296875 L 29.152344 45.296875 L 28.519531 45.628906 C 28.519531 45.628906 26.21875 46.765625 25.179688 46.925781 C 24.578125 47.011719 23.980469 46.988281 23.382812 46.851562 C 22.792969 46.667969 22.230469 46.445312 21.679688 46.183594 C 21.058594 45.914062 20.3125 45.554688 19.429688 45.074219 C 14.695312 42.554688 10.503906 39.109375 7.089844 34.933594 C 2.785156 29.75 0.507812 23.847656 0.0820312 19.015625 C 1.621094 23.847656 5.179688 29.796875 9.070312 32.613281 C 14.183594 36.316406 18.78125 36.910156 23.820312 35.28125 C 27.417969 34.121094 31.355469 31.355469 33.582031 28.007812 C 33.605469 27.984375 33.617188 27.957031 33.628906 27.933594 C 33.800781 27.675781 33.972656 27.402344 34.121094 27.128906 L 34.191406 26.996094 L 34.289062 26.796875 L 34.363281 26.648438 C 34.742188 25.894531 35.035156 25.082031 35.207031 24.253906 C 35.402344 23.414062 35.5 22.5625 35.5 21.710938 L 35.5 21.117188 C 35.429688 17.511719 34.15625 15.015625 32.957031 12.816406 C 30.78125 9.101562 27.550781 6.125 23.675781 4.296875 C 19.246094 2.308594 14.796875 2.0625 12.457031 2.347656 C 11.394531 2.480469 10.34375 2.742188 9.339844 3.148438 C 12.347656 1.730469 15.554688 0.789062 18.84375 0.371094 C 23.480469 0.0234375 28.136719 0.417969 32.652344 1.53125 C 41.398438 3.792969 44.367188 8.238281 45.578125 10.226562 C 46.789062 12.214844 48.539062 14.769531 47.5625 21.476562 Z M 47.585938 21.460938 "/>
<path style=" stroke:none;fill-rule:nonzero;fill:rgb(80.784315%,27.843139%,22.745098%);fill-opacity:1;" d="M 46.570312 27.585938 C 43.660156 34.070312 38.496094 38.851562 36.417969 40.554688 C 34.191406 42.40625 31.757812 44 29.191406 45.320312 C 33.484375 43.023438 37.3125 39.925781 40.46875 36.195312 C 42.09375 34.34375 46.621094 28.179688 47.585938 21.476562 C 48.550781 14.769531 46.816406 12.214844 45.605469 10.226562 C 44.394531 8.238281 41.421875 3.792969 32.675781 1.53125 C 28.152344 0.394531 23.492188 0 18.855469 0.359375 C 20.445312 0.148438 22.058594 0.0351562 23.664062 0.0351562 C 23.664062 0.0351562 31.464844 -0.480469 38.890625 2.753906 C 46.3125 5.988281 48.0625 11.300781 48.625 13.917969 C 49.1875 16.535156 49.480469 21.09375 46.570312 27.585938 Z M 46.570312 27.585938 "/>
<path style=" stroke:none;fill-rule:nonzero;fill:url(#linear2);" d="M 35.488281 20.757812 C 35 14.929688 30.167969 10.445312 24.382812 10.460938 C 23.832031 10.460938 23.296875 10.496094 22.746094 10.582031 C 28.640625 9.519531 34.277344 13.484375 35.332031 19.4375 C 35.402344 19.882812 35.464844 20.328125 35.488281 20.769531 Z M 35.488281 20.757812 "/>
<path style=" stroke:none;fill-rule:nonzero;fill:url(#linear3);" d="M 35.367188 23.375 C 35.367188 23.5 35.332031 23.625 35.316406 23.746094 C 35.304688 23.871094 35.269531 24.066406 35.234375 24.214844 C 35.035156 25.042969 34.753906 25.847656 34.386719 26.613281 L 34.316406 26.761719 L 34.21875 26.957031 L 34.144531 27.09375 C 33.996094 27.363281 33.824219 27.625 33.65625 27.894531 C 33.640625 27.921875 33.617188 27.945312 33.605469 27.96875 C 30.167969 33.121094 23.257812 34.492188 18.144531 31.019531 C 13.046875 27.550781 11.6875 20.574219 15.125 15.410156 C 16.875 12.78125 19.636719 11.027344 22.746094 10.558594 C 17.558594 11.535156 13.816406 16.101562 13.828125 21.425781 C 13.878906 27.527344 18.792969 32.453125 24.835938 32.464844 C 30.121094 32.527344 34.621094 28.625 35.378906 23.351562 Z M 35.367188 23.375 "/>
<path style=" stroke:none;fill-rule:nonzero;fill:url(#linear4);" d="M 35.488281 20.871094 L 35.488281 20.757812 C 35 14.929688 30.167969 10.445312 24.371094 10.460938 C 23.820312 10.460938 23.28125 10.496094 22.734375 10.582031 C 17.546875 11.546875 13.78125 16.128906 13.804688 21.449219 C 13.851562 27.550781 18.769531 32.476562 24.8125 32.488281 C 30.09375 32.550781 34.597656 28.648438 35.355469 23.375 C 35.441406 22.699219 35.488281 22.003906 35.488281 21.328125 C 35.488281 21.140625 35.488281 21.003906 35.476562 20.882812 Z M 24.945312 32.230469 C 19.1875 32.21875 14.527344 27.488281 14.550781 21.671875 C 14.574219 15.855469 19.246094 11.152344 25.007812 11.175781 C 30.757812 11.1875 35.402344 15.90625 35.402344 21.710938 C 35.402344 27.539062 30.71875 32.242188 24.945312 32.242188 Z M 24.945312 32.230469 "/>
<path style=" stroke:none;fill-rule:nonzero;fill:url(#radial0);" d="M 48.625 13.917969 C 48.074219 11.300781 46.324219 5.988281 38.890625 2.753906 C 31.453125 -0.480469 23.664062 0.0507812 23.664062 0.0507812 C 22.058594 0.0507812 20.445312 0.148438 18.855469 0.359375 C 15.566406 0.777344 12.359375 1.714844 9.351562 3.136719 C 8.484375 3.554688 7.640625 4.027344 6.832031 4.558594 C 1.78125 7.792969 -0.175781 13.113281 0.03125 18.105469 C 0.03125 18.398438 0.0703125 18.707031 0.09375 19.03125 C 0.523438 23.859375 2.796875 29.761719 7.101562 34.960938 C 10.503906 39.121094 14.671875 42.566406 19.394531 45.074219 C 20.261719 45.542969 21.03125 45.914062 21.644531 46.183594 C 22.207031 46.457031 22.78125 46.691406 23.367188 46.875 C 23.957031 47.011719 24.566406 47.035156 25.167969 46.949219 C 26.207031 46.777344 28.503906 45.652344 28.503906 45.652344 L 29.140625 45.320312 L 29.179688 45.320312 C 31.746094 44 34.179688 42.394531 36.40625 40.554688 C 38.484375 38.851562 43.648438 34.070312 46.558594 27.585938 C 49.46875 21.105469 49.164062 16.558594 48.625 13.917969 Z M 24.933594 11.164062 C 30.695312 11.175781 35.355469 15.90625 35.332031 21.722656 C 35.304688 27.539062 30.632812 32.242188 24.871094 32.21875 C 19.125 32.207031 14.476562 27.488281 14.476562 21.683594 C 14.488281 15.855469 19.171875 11.152344 24.933594 11.152344 Z M 24.933594 11.164062 "/>
</g>
</svg>
