<svg width="512" height="512" viewBox="0 0 512 512" fill="none" xmlns="http://www.w3.org/2000/svg">
<path d="M141.441 154.367C141.505 187.903 141.569 215.679 141.505 216.063C141.441 216.575 139.329 216.831 135.233 216.895C123.649 217.087 100.545 217.919 88.641 218.559C85.505 218.751 79.553 219.071 75.521 219.263C71.489 219.455 66.561 219.711 64.641 219.839C62.721 219.967 58.177 220.223 54.657 220.415C51.073 220.607 46.465 220.927 44.417 221.055C42.305 221.247 37.633 221.567 33.921 221.823C30.209 222.015 25.921 222.335 24.321 222.399C19.649 222.783 8.70502 223.487 7.87302 223.551C7.42502 223.551 7.04102 223.807 7.04102 224.063C7.04102 224.319 9.72902 224.575 12.993 224.639C19.393 224.767 25.089 225.023 34.753 225.535C38.145 225.727 44.353 226.047 48.513 226.239C52.609 226.431 58.049 226.751 60.481 226.879C62.977 227.071 67.841 227.327 71.361 227.519C74.881 227.711 80.513 228.031 83.841 228.223C87.169 228.415 92.225 228.671 95.041 228.799C97.857 228.927 100.161 229.119 100.161 229.119C100.161 229.183 102.465 229.311 105.281 229.439C108.097 229.567 112.577 229.823 115.201 230.015C126.593 230.783 131.201 231.103 135.873 231.295C138.625 231.423 141.057 231.743 141.313 231.999C141.569 232.191 141.761 274.303 141.761 325.503L141.697 418.623L227.201 418.367C274.177 418.175 313.793 417.919 315.201 417.727C317.633 417.471 322.753 416.831 327.681 416.319C328.897 416.191 330.497 415.935 331.201 415.807C331.905 415.615 333.889 415.295 335.553 415.103C338.561 414.655 343.169 413.823 346.241 413.119C347.137 412.863 348.737 412.607 349.761 412.415C353.601 411.711 364.929 408.255 369.857 406.271C370.753 405.887 371.841 405.503 372.225 405.375C374.017 405.055 389.121 397.375 392.257 395.263C394.113 393.983 395.777 392.959 395.969 392.959C396.097 392.959 396.609 392.575 397.057 392.127C397.505 391.743 398.721 390.783 399.681 390.079C402.561 388.095 413.505 377.023 416.449 373.119C424.321 362.751 428.993 349.055 429.825 334.079C430.273 326.911 430.273 327.999 429.825 321.279C428.545 301.119 420.993 283.519 408.001 270.399C397.185 259.519 384.513 251.583 365.057 243.583C357.697 240.575 336.257 233.791 330.369 232.639C329.793 232.575 328.129 232.127 326.721 231.807C325.313 231.423 323.457 230.975 322.561 230.783C321.665 230.655 318.209 229.951 314.881 229.183C308.033 227.711 301.121 226.495 295.361 225.599C293.953 225.407 291.969 225.087 290.881 224.959C289.857 224.767 287.937 224.511 286.721 224.319C285.505 224.191 283.777 223.935 282.881 223.743C281.153 223.423 274.753 222.655 271.681 222.335C270.657 222.271 268.609 222.015 267.201 221.823C265.793 221.631 262.785 221.311 260.481 221.119C252.801 220.351 251.841 220.287 251.841 220.159C251.841 220.095 249.857 219.967 247.361 219.839C244.929 219.711 241.025 219.455 238.721 219.263C236.417 219.071 232.257 218.751 229.505 218.559C226.689 218.367 224.321 218.111 224.129 217.983C224.001 217.791 223.809 203.839 223.745 186.943L223.617 156.159H228.801C231.617 156.159 234.945 156.223 236.161 156.223C237.377 156.287 238.785 156.287 239.233 156.223C239.617 156.159 240.513 156.159 241.153 156.159C241.729 156.159 244.097 156.095 246.401 156.095C248.705 156.031 250.945 156.031 251.393 156.095C251.777 156.095 254.849 156.159 258.113 156.159C261.313 156.159 265.153 156.159 266.561 156.223C267.969 156.223 269.505 156.223 269.953 156.223C270.337 156.159 271.105 156.159 271.553 156.095C273.281 155.967 289.793 156.799 292.481 157.119C296.705 157.695 304.769 159.295 306.241 159.935C306.945 160.255 309.249 161.151 311.361 161.919C313.473 162.751 315.969 163.903 316.929 164.607C317.825 165.247 318.849 165.759 319.105 165.759C320.321 165.759 326.657 173.183 328.065 176.255C331.585 183.999 331.201 194.943 327.105 202.559C324.609 207.231 317.633 212.927 309.569 216.895C307.841 217.663 306.561 218.431 306.689 218.559C306.817 218.687 308.033 218.879 309.441 219.135C312.001 219.455 313.089 219.711 316.161 220.415C317.761 220.799 320.001 221.247 323.521 221.823C324.609 222.015 328.769 223.039 332.801 224.063C336.833 225.087 340.737 226.047 341.441 226.175C342.145 226.303 343.489 226.751 344.513 227.135C345.473 227.519 346.241 227.647 346.241 227.455C346.241 227.199 346.625 227.327 347.073 227.711C347.521 228.095 348.609 228.543 349.441 228.735C351.809 229.183 361.793 232.511 368.321 235.071C377.089 238.463 376.513 238.463 380.993 235.711C385.857 232.767 387.393 231.487 394.049 224.767C407.041 211.647 412.865 197.119 412.929 177.919C412.929 173.183 412.737 167.999 412.481 166.399C412.225 164.799 411.969 162.815 411.841 161.919C410.241 148.927 403.073 134.719 393.409 125.311C387.585 119.615 377.473 111.999 375.745 111.999C375.425 111.999 375.041 111.807 374.913 111.487C374.721 111.039 365.761 106.623 364.865 106.495C364.673 106.495 363.393 105.983 361.985 105.407C360.641 104.831 359.297 104.319 358.977 104.319C358.657 104.319 357.889 104.063 357.249 103.679C354.433 102.079 337.025 97.855 329.281 96.959C328.257 96.831 326.337 96.575 325.121 96.383C322.945 96.063 321.025 95.871 312.321 94.975C310.017 94.783 306.753 94.399 304.961 94.271C303.233 94.079 265.665 93.823 221.569 93.631L141.377 93.375L141.441 154.367ZM226.177 245.439C229.953 246.335 234.113 247.231 235.393 247.423C236.673 247.615 238.273 248.063 238.913 248.447C239.553 248.767 240.257 248.895 240.449 248.703C240.641 248.511 241.409 248.703 242.113 249.087C242.881 249.471 244.353 249.855 245.441 249.919C246.465 250.047 247.425 250.175 247.553 250.239C247.681 250.431 247.809 250.431 250.561 251.135C259.841 253.567 274.049 257.919 275.073 258.687C275.457 259.071 275.841 259.199 275.841 258.943C275.841 258.623 278.849 259.583 282.881 261.247C283.777 261.631 285.057 262.143 285.761 262.399C299.457 267.519 312.705 274.111 321.857 280.255C323.713 281.535 325.697 282.815 326.273 283.199C330.753 286.015 339.073 294.591 341.697 299.071C347.713 309.375 349.185 320.127 345.793 330.175C344.833 333.055 342.849 336.831 341.441 338.303C341.121 338.751 340.353 339.583 339.777 340.223C338.049 342.335 334.145 345.599 333.441 345.599C333.121 345.599 332.801 345.855 332.801 346.111C332.801 347.391 320.065 352.831 315.393 353.599C314.241 353.791 312.449 354.111 311.361 354.367C310.337 354.559 308.865 354.879 308.161 355.007C307.137 355.135 282.817 355.967 280.641 355.903C271.105 355.647 256.001 355.775 255.425 356.095C255.041 356.351 254.721 356.351 254.721 356.031C254.721 355.455 230.977 355.455 229.441 356.031C228.929 356.287 228.353 356.159 228.161 355.775C227.905 355.455 227.521 355.327 227.201 355.519C226.945 355.711 226.177 355.647 225.601 355.455C224.641 355.071 224.577 351.743 224.833 315.903C225.025 294.399 225.217 276.479 225.281 276.159C225.345 275.775 225.409 275.391 225.281 275.199C225.025 274.431 224.961 270.079 225.281 270.079C225.665 270.079 225.537 266.751 225.025 262.399C224.065 254.783 222.913 251.903 218.689 247.039C215.297 243.071 215.297 243.135 217.409 243.519C218.497 243.647 222.465 244.543 226.177 245.439Z" fill="#EE3536"/>
<path d="M4.86453 223.871C4.67253 224.191 4.92853 224.447 5.44053 224.447C5.95253 224.447 6.20853 224.191 6.01653 223.871C5.82453 223.615 5.56853 223.359 5.44053 223.359C5.31253 223.359 5.05653 223.615 4.86453 223.871Z" fill="black"/>
</svg>
