<svg width="192" height="100" viewBox="0 0 192 100" fill="none" xmlns="http://www.w3.org/2000/svg">
<g clip-path="url(#clip0_5455_1002)">
<path d="M126.252 2.58639C128.314 10.6493 130.357 18.6495 132.4 26.6471C132.445 26.6471 132.492 26.6418 132.536 26.6392V25.9093C132.536 18.8326 132.531 11.7586 132.539 4.68192C132.539 3.37647 132.591 2.07363 132.62 0.768173C133.944 0.731547 135.268 0.68969 136.591 0.663528C137.279 0.650448 137.965 0.663528 138.71 0.663528V44.6383C137.13 44.6383 135.587 44.6487 134.046 44.633C133.243 44.6252 132.233 44.8606 131.702 44.4656C131.205 44.0967 131.202 43.0477 131.006 42.2916C128.5 32.5988 125.996 22.906 123.49 13.2132C123.456 13.0797 123.403 12.9489 123.267 12.8234V42.7494C123.063 42.7049 122.927 42.6971 122.81 42.6448C121.038 41.8861 119.265 41.1352 117.509 40.3399C117.3 40.2458 117.072 39.903 117.072 39.6754C117.049 31.432 117.051 23.1885 117.062 14.945C117.062 14.7253 117.135 14.4663 117.266 14.2936C120.17 10.4584 123.084 6.63095 126.001 2.80353C126.043 2.74859 126.103 2.71197 126.25 2.58378L126.252 2.58639Z" fill="white"/>
<path d="M163.812 15.4735H157.193C157.175 15.1805 157.144 14.9084 157.141 14.6363C157.125 13.0169 157.162 11.3949 157.097 9.77816C156.974 6.76437 154.878 5.99784 152.602 6.4949C151.383 6.76175 150.59 7.76897 150.405 9.18953C150.334 9.73107 150.295 10.2805 150.295 10.8272C150.287 18.7358 150.287 26.6444 150.295 34.553C150.295 35.1469 150.323 35.7486 150.433 36.3294C150.784 38.1921 152.032 39.0293 154.174 38.8958C155.883 38.7886 157.008 37.6584 157.076 35.7878C157.157 33.551 157.154 31.309 157.118 29.0722C157.104 28.3397 157.316 28.1435 158.038 28.1644C159.891 28.2167 161.746 28.1827 163.718 28.1827C163.718 29.0199 163.726 29.7943 163.718 30.5686C163.705 31.5916 163.946 32.7217 163.585 33.6034C163.234 34.4589 162.269 35.0684 161.565 35.7774C158.588 38.7624 155.603 41.7396 152.636 44.7351C152.286 45.0882 151.964 45.2321 151.448 45.1432C146.781 44.3322 144.053 41.4649 143.498 36.7323C143.417 36.0468 143.359 35.3562 143.359 34.6681C143.351 26.5686 143.33 18.469 143.38 10.372C143.388 9.07965 143.592 7.75065 143.951 6.5106C145.034 2.7512 147.658 0.707997 151.482 0.153375C153.193 -0.0951585 154.907 -0.0480676 156.594 0.341738C160.424 1.22861 162.925 3.89446 163.48 8.05936C163.802 10.4741 163.713 12.9411 163.812 15.4761V15.4735Z" fill="white"/>
<path d="M191.035 44.0365H184.126V24.3579H176.775V44.0156H169.808C169.808 43.8116 169.808 43.5866 169.808 43.3616C169.808 38.7415 169.798 34.1214 169.826 29.5013C169.826 29.1481 170.009 28.7112 170.258 28.4574C173.57 25.1009 176.9 21.7627 180.254 18.4481C180.519 18.1864 180.982 18.0321 181.364 18.0033C182.237 17.9379 183.119 17.9824 184.105 17.9824C184.105 16.9961 184.084 16.0517 184.118 15.1125C184.129 14.8325 184.215 14.4794 184.398 14.291C186.499 12.1484 188.626 10.0319 190.748 7.90762C190.81 7.84483 190.892 7.80559 191.03 7.70618V44.0365H191.035Z" fill="white"/>
<path d="M23.9848 12.5355C24.3301 16.1641 23.3987 20.227 19.7728 21.8804C19.7859 21.917 19.7885 21.9798 19.812 21.9903C22.5851 23.0864 24.0842 25.229 24.4923 28.078C24.9789 31.4816 25.0731 34.9297 24.4033 38.3176C23.6316 42.2183 20.6832 44.8004 16.6255 45.1693C14.3783 45.3733 12.1075 45.3132 9.84451 45.3393C7.72805 45.3629 5.61159 45.3446 3.43234 45.3446C3.41926 45.0699 3.39572 44.8397 3.39572 44.612C3.39572 39.9893 3.39833 35.3666 3.38525 30.7439C3.38525 30.307 3.4899 30.0035 3.84046 29.7053C10.3337 24.1774 16.8165 18.6311 23.3019 13.0928C23.5139 12.9122 23.731 12.7396 23.9821 12.5355H23.9848ZM10.3861 25.6372V38.99C11.9296 38.99 13.4312 39.0789 14.9172 38.9664C16.5968 38.8408 17.5883 37.9095 17.6694 36.2273C17.7871 33.81 17.8054 31.3744 17.6511 28.9597C17.5177 26.8929 16.3927 25.8438 14.3652 25.6607C13.0676 25.543 11.7517 25.6398 10.3861 25.6398V25.6372Z" fill="white"/>
<path d="M46.274 7.71401C44.0738 7.71401 42.0018 7.71401 39.9324 7.71401C39.3202 7.71401 39.0142 7.40181 39.0142 6.77743C39.0142 5.01938 39.0142 3.26133 39.0142 1.4248C39.3202 1.40649 39.5688 1.37771 39.8199 1.37771C43.9168 1.37509 48.0137 1.36725 52.1106 1.38817C52.4637 1.38817 52.8849 1.48759 53.1544 1.69688C55.4959 3.53341 57.8085 5.40918 60.1317 7.27188C60.2206 7.34251 60.3017 7.42362 60.5712 7.66692H53.2146V45.287H46.274V7.71139V7.71401Z" fill="white"/>
<path d="M0.0026157 30.6341V1.98993C0.256381 1.97685 0.504915 1.95068 0.753448 1.95068C3.99223 1.95068 7.23102 1.91667 10.4672 1.96638C11.6968 1.98469 12.9499 2.07888 14.1481 2.33526C17.7244 3.09656 19.867 5.44323 20.419 9.13461C20.5864 10.2596 20.623 11.408 20.6597 12.5487C20.6675 12.8103 20.5106 13.1635 20.3117 13.3335C13.6458 19.055 6.96417 24.7582 0.282543 30.464C0.23022 30.5085 0.162201 30.5373 0 30.6341H0.0026157ZM6.96155 8.32099V19.7378C8.19899 19.7378 9.38933 19.8189 10.564 19.7169C12.1886 19.5756 13.3292 18.6574 13.4705 17.0615C13.6536 14.9922 13.6406 12.8862 13.4705 10.8142C13.3476 9.31251 12.3142 8.42564 10.9407 8.33669C9.64048 8.25297 8.3298 8.31837 6.96155 8.31837V8.32099Z" fill="white"/>
<path d="M35.5902 45.3158H28.7019V44.5153C28.7019 32.7453 28.7045 20.9753 28.6914 9.20523C28.6914 8.67677 28.8431 8.33406 29.246 7.99396C31.1663 6.39026 33.0577 4.75517 34.9623 3.13055C35.135 2.98404 35.3233 2.85324 35.5902 2.65179V45.3132V45.3158Z" fill="white"/>
<path d="M63.6196 43.2334V10.1601C63.8106 10.2752 63.9728 10.3511 64.1088 10.4583C66.0971 12.0489 68.0932 13.6343 70.058 15.2563C70.3039 15.4604 70.5001 15.8737 70.5079 16.1955C70.5524 17.8097 70.5289 19.4265 70.5289 21.1557C72.5197 20.9569 74.5446 21.6685 76.321 20.2479C78.0895 21.6633 79.8502 23.076 81.6632 24.5279C78.584 27.84 74.5656 27.4659 70.5707 27.4659C70.555 27.7693 70.5289 28.0414 70.5289 28.3135C70.5262 32.4104 70.5158 36.5073 70.5393 40.6041C70.5419 41.1954 70.3981 41.4806 69.7833 41.6297C67.9363 42.077 66.105 42.5976 64.2684 43.0869C64.0696 43.1392 63.8655 43.1758 63.6196 43.2308V43.2334Z" fill="white"/>
<path d="M83.7298 24.3867C81.9586 22.9688 80.2163 21.5717 78.4321 20.1433C79.3059 18.8719 79.3033 17.4409 79.2876 16.0151C79.2666 14.1602 79.2928 12.3001 79.1672 10.4505C79.0364 8.52767 77.969 7.61463 76.0305 7.58062C74.9421 7.55969 73.8512 7.578 72.6766 7.578V15.4709C72.3652 15.2511 72.1743 15.1282 71.999 14.9869C70.0473 13.4251 68.0905 11.8685 66.1571 10.2857C65.9505 10.1157 65.7543 9.79388 65.7516 9.54011C65.7229 6.89781 65.7333 4.2555 65.7359 1.61058C65.7359 1.51902 65.7569 1.42745 65.7726 1.29403C65.8929 1.2731 66.0054 1.23909 66.1153 1.23909C69.8302 1.24956 73.5477 1.1763 77.2574 1.30188C80.1587 1.40129 82.6964 2.4399 84.4204 4.9514C85.5584 6.61003 86.1052 8.49889 86.1575 10.4636C86.2308 13.3152 86.1837 16.1746 86.0424 19.0236C85.9404 21.093 84.9253 23.2147 83.7324 24.3867H83.7298Z" fill="white"/>
<path d="M96.7057 34.7152C96.486 34.5713 96.3421 34.4954 96.2191 34.3986C94.2308 32.808 92.2321 31.2279 90.27 29.6032C90.0058 29.3861 89.7886 28.9414 89.7886 28.6013C89.7625 19.7195 89.7677 10.835 89.7703 1.95324C89.7703 1.74395 89.7965 1.53727 89.8122 1.28351H96.7083V34.7178L96.7057 34.7152Z" fill="white"/>
<path d="M178.609 18.5291C174.954 22.1656 171.391 25.7078 167.852 29.2318V0.69751H174.742V18.5291H178.607H178.609Z" fill="white"/>
<path d="M103.774 30.3489V1.28094H110.367C110.38 1.52163 110.401 1.77278 110.404 2.02393C110.404 8.33668 110.414 14.6494 110.388 20.9622C110.388 21.3965 110.215 21.904 109.959 22.2519C108.102 24.7582 106.2 27.2331 104.311 29.7132C104.172 29.8937 104.02 30.0611 103.777 30.3489H103.774Z" fill="white"/>
<path d="M182.136 15.1596V0.744655C182.298 0.715878 182.452 0.66617 182.609 0.66617C184.564 0.660938 186.515 0.67402 188.469 0.653091C188.932 0.647859 189.095 0.791745 189.089 1.26265C189.071 3.40527 189.089 5.55051 189.071 7.69313C189.071 7.95474 188.985 8.29223 188.812 8.46751C186.643 10.6703 184.448 12.8522 182.138 15.1596H182.136Z" fill="white"/>
<path d="M111.859 37.9252C109.69 36.9912 107.704 36.1462 105.732 35.2672C105.58 35.1992 105.449 34.9009 105.446 34.7099C105.425 33.2344 105.425 31.7589 105.446 30.2834C105.449 30.0375 105.517 29.7497 105.661 29.5588C107.725 26.8249 109.805 24.1041 111.885 21.3807C111.911 21.3467 111.958 21.3336 112.149 21.2159C111.981 26.7987 112.395 32.2926 111.861 37.9252H111.859Z" fill="white"/>
<path d="M115.364 15.115V1.28089C115.608 1.26519 115.835 1.23641 116.06 1.23641C118.491 1.2338 120.918 1.24688 123.349 1.22333C123.859 1.2181 124.066 1.37245 124.241 1.86952C124.563 2.77994 124.345 3.43136 123.759 4.18219C121.107 7.57794 118.522 11.026 115.911 14.4558C115.772 14.6363 115.621 14.8063 115.364 15.115Z" fill="white"/>
<path d="M92.5932 36.1698C92.5958 38.4929 92.8391 40.5466 95.675 40.9469C94.7646 42.5793 93.8882 44.1569 93.0118 45.7318C92.5688 46.5254 91.9296 46.7416 91.0942 46.3806C88.0411 45.0464 86.529 42.5558 85.909 39.4138C85.6395 38.0456 85.6604 38.0377 86.9947 37.6767C88.826 37.1822 90.6573 36.6904 92.5932 36.1698Z" fill="white"/>
<path d="M72.7415 93.4529C72.7415 95.3077 72.7415 97.1625 72.7415 99.02C72.7415 99.8755 72.3909 100.142 71.5537 99.8781C71.4151 99.8336 71.2555 99.5772 71.2555 99.4177C71.2398 96.0821 71.2372 92.7465 71.2633 89.4109C71.2633 89.2461 71.5433 88.9557 71.7055 88.9452C72.1397 88.9217 72.6656 88.7203 72.888 89.3952C73.3798 90.8864 73.9161 92.3645 74.4341 93.8479C74.5178 94.0886 74.612 94.3266 74.7742 94.7583C74.9312 94.3947 75.0306 94.2037 75.1012 93.9996C75.6192 92.5163 76.1712 91.0434 76.6264 89.5417C76.8462 88.8171 77.338 88.906 77.856 88.9243C78.4813 88.9452 78.3138 89.4292 78.3138 89.7719C78.3243 92.893 78.3086 96.0141 78.3295 99.1351C78.3348 99.7054 78.1961 99.9304 77.5787 99.9252C76.9848 99.92 76.7939 99.7473 76.8069 99.1508C76.841 97.5314 76.82 95.9094 76.82 94.29C76.82 94.0441 76.82 93.8008 76.82 93.5549C76.752 93.5444 76.684 93.5366 76.616 93.5261C76.2445 94.6406 75.8704 95.7577 75.4989 96.8722C75.4309 97.0762 75.4099 97.3117 75.287 97.4739C75.1509 97.6518 74.9338 97.8558 74.7376 97.8715C74.5963 97.8846 74.3504 97.6361 74.2876 97.4556C73.8926 96.3332 73.542 95.1978 73.1679 94.0676C73.0973 93.8505 72.9978 93.6412 72.9115 93.4267C72.8539 93.4345 72.7964 93.4424 72.7388 93.4502L72.7415 93.4529Z" fill="white"/>
<path d="M165.67 33.3339C166.18 40.5388 161.84 45.5042 154.35 44.5624C158.117 40.8239 161.913 37.0593 165.67 33.3339Z" fill="white"/>
<path d="M105.231 43.427C102.809 46.1975 97.0978 46.4303 94.4346 45.4754C94.5235 45.2844 94.5968 45.0935 94.6962 44.9156C95.5726 43.3354 96.4673 41.7683 97.3228 40.1777C97.5425 39.767 97.7989 39.5812 98.2698 39.6126C98.5707 39.6336 98.916 39.6231 99.1776 39.4923C99.8134 39.1784 100.25 39.3929 100.753 39.8141C102.207 41.0358 103.709 42.2052 105.231 43.427Z" fill="white"/>
<path d="M103.68 99.9016C103.68 98.4628 103.68 97.1364 103.68 95.8074C103.68 94.9362 103.675 94.9362 102.665 94.9362C101.629 94.9362 101.627 94.9362 101.621 95.7943C101.616 96.9611 101.593 98.1279 101.632 99.2921C101.653 99.9121 101.313 99.9069 100.871 99.9095C100.418 99.9121 100.107 99.8964 100.112 99.2842C100.135 96.0481 100.133 92.8093 100.112 89.5731C100.109 89.0054 100.36 88.9008 100.847 88.9034C101.344 88.906 101.655 88.9766 101.632 89.5993C101.59 90.6928 101.645 91.789 101.611 92.8825C101.593 93.4633 101.781 93.6857 102.383 93.6726C103.913 93.636 103.659 93.7485 103.678 92.3619C103.691 91.4096 103.706 90.4574 103.672 89.5051C103.652 88.9321 103.976 88.9007 104.397 88.9086C104.813 88.9164 105.198 88.8667 105.195 89.5051C105.174 92.791 105.182 96.0742 105.19 99.3601C105.19 99.7525 105.064 99.9356 104.656 99.9043C104.376 99.8833 104.091 99.899 103.683 99.899L103.68 99.9016Z" fill="white"/>
<path d="M125.486 94.447C125.486 96.0428 125.457 97.6387 125.499 99.2319C125.515 99.8598 125.227 99.9121 124.727 99.9147C124.217 99.9173 123.94 99.8415 123.966 99.2214C124.016 98.0573 123.956 96.8878 123.99 95.7237C124.005 95.1533 123.848 94.9179 123.236 94.9231C121.92 94.9336 121.92 94.9048 121.92 96.2338C121.92 97.2332 121.884 98.2352 121.933 99.2319C121.965 99.8624 121.654 99.9147 121.156 99.9121C120.688 99.9121 120.406 99.8676 120.408 99.2711C120.432 96.035 120.432 92.7962 120.408 89.56C120.406 88.9792 120.683 88.8955 121.156 88.9034C121.604 88.9112 121.944 88.9322 121.926 89.5365C121.892 90.6771 121.936 91.823 121.91 92.9636C121.897 93.4921 122.098 93.6752 122.621 93.6674C124.241 93.6438 123.956 93.7459 123.977 92.3488C123.99 91.4201 124.008 90.4914 123.969 89.5653C123.943 88.9819 124.233 88.9034 124.707 88.9034C125.196 88.9034 125.512 88.9557 125.497 89.5888C125.457 91.2056 125.484 92.825 125.484 94.4444L125.486 94.447Z" fill="white"/>
<path d="M60.7102 95.1559C60.5899 94.2909 60.9239 93.8575 61.7122 93.8557C63.4101 93.8557 63.4232 93.8557 63.4075 95.5379C63.3996 96.3672 63.4258 97.2122 63.2871 98.0258C63.0726 99.2999 61.9163 100.053 60.5245 99.9487C59.219 99.8493 58.2223 98.8866 58.1987 97.5968C58.1647 95.4777 58.1621 93.3587 58.1961 91.2422C58.2197 89.7772 59.3786 88.7726 60.896 88.817C62.3218 88.8589 63.4022 89.9786 63.4127 91.4018C63.4153 91.7968 63.2688 92.0061 62.8764 91.9564C62.5075 91.9093 61.9921 92.1971 61.8953 91.4803C61.7802 90.6222 61.414 90.2978 60.7338 90.3292C60.1294 90.3579 59.7082 90.6562 59.703 91.2841C59.6795 93.3534 59.6821 95.4254 59.6978 97.4948C59.703 98.1305 60.1399 98.4392 60.7207 98.4732C61.2701 98.5046 61.7514 98.2587 61.8273 97.6779C61.9163 96.9742 61.8979 96.2547 61.8718 95.5458C61.8666 95.4254 61.6128 95.2606 61.4454 95.2109C61.2282 95.1455 60.9823 95.1743 60.7102 95.1612V95.1559Z" fill="white"/>
<path d="M85.4562 96.8721H86.8035C86.8454 97.1259 86.8689 97.3588 86.9239 97.5811C87.0808 98.2195 87.5387 98.5465 88.1875 98.4837C88.8284 98.4235 89.1816 98.0677 89.2208 97.4215C89.2391 97.1128 89.2156 96.8015 89.2365 96.4928C89.2836 95.7812 88.988 95.3077 88.3104 95.0644C87.9755 94.9441 87.6485 94.7949 87.3215 94.6563C85.4457 93.8636 84.8231 91.2972 86.1181 89.6987C86.7957 88.8641 88.0409 88.5607 89.1136 88.974C90.181 89.3847 90.7957 90.358 90.7539 91.4855C90.7382 91.9067 90.5524 92.0558 90.1836 92.0009C89.8356 91.9486 89.3176 92.2468 89.2365 91.5771C89.2104 91.3678 89.1685 91.1533 89.0926 90.9571C88.9069 90.4678 88.4935 90.201 88.0226 90.3449C87.6668 90.4548 87.2299 90.7478 87.0991 91.0695C86.6518 92.1605 87.0494 92.9401 88.1482 93.3901C88.2136 93.4162 88.279 93.4502 88.347 93.4686C90.7722 94.1383 91.1751 95.5144 90.4766 98.4131C90.1679 99.7002 88.6976 100.273 87.2483 99.8755C86.0004 99.5328 85.2417 98.3006 85.4588 96.8721H85.4562Z" fill="white"/>
<path d="M107.39 43.3538C105.614 41.9306 103.893 40.5493 102.095 39.1052C103.327 38.3072 103.6 37.096 103.702 35.7643C103.851 35.7905 103.968 35.7879 104.065 35.8297C105.902 36.612 107.73 37.4073 109.57 38.1843C109.912 38.3282 110.046 38.5087 109.941 38.8854C109.475 40.5623 108.725 42.0745 107.39 43.3512V43.3538Z" fill="white"/>
<path d="M70.3769 99.818C70.2435 99.8624 70.2016 99.8886 70.1572 99.8886C68.7209 99.9148 68.9851 100.004 68.7261 98.8238C68.632 98.3948 68.5639 97.7067 68.3128 97.6152C67.7608 97.419 67.0989 97.5105 66.4867 97.5367C66.369 97.5419 66.2173 97.7748 66.1649 97.9317C66.0734 98.1986 66.0446 98.489 65.9923 98.7689C65.8353 99.5956 65.2964 99.9488 64.3755 99.8284C64.3938 99.6113 64.3886 99.3863 64.4357 99.1692C65.1342 96.0089 65.8405 92.8538 66.5364 89.6935C66.6411 89.2121 66.7719 88.8799 67.3919 88.893C67.9988 88.9034 68.0643 89.254 68.1637 89.6961C68.8517 92.8093 69.5555 95.9173 70.2487 99.0279C70.3037 99.279 70.3351 99.5354 70.3821 99.818H70.3769ZM66.5181 96.0036H68.1689C67.9099 94.6799 67.6744 93.4712 67.439 92.2625C67.3736 92.2625 67.3082 92.2625 67.2428 92.2625C67.0047 93.4974 66.764 94.7348 66.5207 96.0036H66.5181Z" fill="white"/>
<path d="M112.28 99.8414C112.107 99.8676 111.995 99.8938 111.879 99.899C110.846 99.9435 110.87 99.9382 110.642 98.9389C110.268 97.2933 110.686 97.5314 108.85 97.4843C108.28 97.4686 108.005 97.6648 107.979 98.2325C107.971 98.4209 107.911 98.6066 107.877 98.7924C107.641 100.017 107.618 100.032 106.257 99.8153C106.273 99.6191 106.265 99.4124 106.31 99.2188C107.013 96.0376 107.73 92.8563 108.426 89.6725C108.536 89.1728 108.701 88.8824 109.3 88.8955C109.865 88.9086 109.946 89.2304 110.04 89.649C110.736 92.7831 111.443 95.9172 112.141 99.0514C112.196 99.3025 112.23 99.5563 112.28 99.8414ZM109.331 92.2625C109.263 92.2625 109.195 92.2625 109.127 92.2599C108.889 93.5078 108.651 94.7583 108.405 96.0454H110.056C109.805 94.7321 109.567 93.4973 109.331 92.2625Z" fill="white"/>
<path d="M79.9626 94.413C79.9626 92.8407 79.9835 91.271 79.9521 89.6987C79.9417 89.1258 80.0986 88.8798 80.7108 88.9034C81.8044 88.9426 82.9005 88.9322 83.9967 88.9086C84.5252 88.8982 84.6298 89.1572 84.6246 89.6124C84.622 90.0519 84.5696 90.3501 84.0124 90.3187C83.3714 90.2821 82.7279 90.324 82.0843 90.3083C81.6814 90.2978 81.4538 90.4103 81.4643 90.8629C81.4826 91.6242 81.4381 92.3881 81.493 93.1468C81.5061 93.3299 81.8018 93.6151 81.9927 93.636C82.5552 93.704 83.1334 93.6752 83.7037 93.6648C84.2714 93.6543 84.1903 94.0546 84.2034 94.4051C84.2138 94.7662 84.1851 95.0723 83.6854 95.0513C83.1386 95.0278 82.5892 95.0592 82.0424 95.0461C81.6657 95.0356 81.459 95.1612 81.4643 95.5719C81.4747 96.3332 81.4747 97.0945 81.4643 97.8558C81.459 98.2483 81.6291 98.4105 82.0215 98.4026C82.7122 98.3869 83.4028 98.4235 84.0935 98.3948C84.6586 98.3712 84.6324 98.7375 84.6115 99.1011C84.5906 99.4438 84.7711 99.9121 84.1223 99.9043C82.9084 99.8912 81.6945 99.886 80.4806 99.9069C79.9861 99.9147 79.96 99.6348 79.96 99.2659C79.9678 97.6465 79.9626 96.0272 79.9626 94.4104V94.413Z" fill="white"/>
<path d="M32.1395 2.00037C32.32 2.72765 32.1918 3.2535 31.577 3.7558C29.4998 5.45891 27.4802 7.23003 25.3428 9.05348V2.00037H32.1369H32.1395Z" fill="white"/>
<path d="M87.7061 36.7872V29.3757C89.9873 31.2017 92.232 33.0016 94.6205 34.914C92.2634 35.5524 90.058 36.1489 87.7061 36.7846V36.7872Z" fill="white"/>
<path d="M62.5837 7.43404C59.9623 5.33328 57.5215 3.37641 54.9629 1.32535C55.2664 1.28088 55.4338 1.2364 55.6038 1.2364C57.6968 1.23117 59.7897 1.24687 61.8826 1.22332C62.3849 1.21809 62.6046 1.32535 62.5942 1.88782C62.5628 3.66157 62.5811 5.43793 62.5811 7.43404H62.5837Z" fill="white"/>
<path d="M96.0595 95.1272C96.0595 93.8191 96.0307 92.5084 96.0699 91.2003C96.0909 90.5385 95.9156 90.1957 95.2014 90.3082C95.1072 90.3239 95.0104 90.3004 94.9162 90.3109C94.4061 90.3763 94.1994 90.1957 94.1968 89.6437C94.1968 89.0787 94.3877 88.8929 94.9424 88.9034C96.1798 88.9321 97.4172 88.9269 98.6547 88.9034C99.1753 88.8929 99.3689 89.0787 99.3689 89.6071C99.3689 90.1173 99.2224 90.3789 98.6782 90.3082C98.537 90.2899 98.3905 90.3239 98.2518 90.303C97.6736 90.2193 97.514 90.4992 97.5167 91.0355C97.5324 93.3901 97.5219 95.7472 97.5219 98.1017C97.5219 98.4104 97.5219 98.7191 97.5219 99.0305C97.5167 99.8624 97.1635 100.142 96.3734 99.865C96.219 99.8101 96.0804 99.4726 96.0752 99.2633C96.049 97.8846 96.0621 96.5033 96.0621 95.1219L96.0595 95.1272Z" fill="white"/>
<path d="M113.357 95.0801C113.357 93.8427 113.357 92.6052 113.357 91.3678C113.357 90.3187 113.355 90.2821 112.313 90.324C111.691 90.3475 111.461 90.167 111.5 89.526C111.529 89.0551 111.701 88.906 112.146 88.9113C113.431 88.927 114.715 88.9348 116 88.9086C116.57 88.8956 116.659 89.1807 116.664 89.6595C116.669 90.1513 116.499 90.3214 116 90.324C114.82 90.324 114.817 90.3501 114.817 91.5169C114.817 94.0389 114.817 96.5609 114.817 99.0828C114.817 99.8441 114.325 100.184 113.627 99.8624C113.472 99.7918 113.373 99.4438 113.37 99.2215C113.347 97.8428 113.36 96.4614 113.357 95.0801Z" fill="white"/>
<path d="M132.9 90.3108C132.874 90.7216 132.837 91.0486 132.835 91.3756C132.829 93.9447 132.835 96.5163 132.829 99.0854C132.829 99.8415 132.327 100.192 131.639 99.8598C131.474 99.7787 131.385 99.3941 131.383 99.1482C131.364 96.7936 131.372 94.4365 131.372 92.082C131.372 91.8674 131.372 91.6529 131.372 91.4384C131.38 90.0806 131.312 90.3108 130.252 90.3213C129.768 90.3265 129.502 90.2481 129.512 89.6673C129.522 89.1362 129.648 88.8903 130.234 88.906C131.495 88.94 132.756 88.9348 134.017 88.9086C134.59 88.8955 134.671 89.1885 134.679 89.662C134.687 90.1565 134.509 90.3579 134.012 90.3161C133.664 90.2873 133.308 90.3108 132.9 90.3108Z" fill="white"/>
<path d="M61.6443 46.5742C61.4856 45.2277 62.0236 44.3888 63.2585 44.0575C64.7706 43.652 66.2853 43.2517 67.8001 42.8488C68.0015 42.7965 68.2082 42.752 68.4751 42.6918V46.5742H61.6443Z" fill="white"/>
<path d="M115.367 45.1589V40.7533C115.589 40.8292 115.783 40.8789 115.963 40.9574C117.559 41.6428 119.139 42.3596 120.751 43.0032C121.345 43.2412 121.651 43.5316 121.538 44.1961C121.488 44.4918 121.53 44.8057 121.53 45.1589H115.367Z" fill="white"/>
<path d="M127.09 94.3607C127.09 92.791 127.108 91.2213 127.079 89.6516C127.069 89.0944 127.252 88.9008 127.812 88.9008C128.382 88.9008 128.549 89.1258 128.547 89.6673C128.531 92.8538 128.526 96.0428 128.549 99.2293C128.555 99.8441 128.264 99.9043 127.762 99.92C127.215 99.9383 127.069 99.7316 127.076 99.2162C127.103 97.5994 127.087 95.9827 127.087 94.3633L127.09 94.3607Z" fill="white"/>
</g>
<defs>
<clipPath id="clip0_5455_1002">
<rect width="192" height="100" fill="white"/>
</clipPath>
</defs>
</svg>
