<?xml version="1.0" encoding="UTF-8"?>
<svg id="Layer_1" data-name="Layer 1" xmlns="http://www.w3.org/2000/svg" viewBox="0 0 110 46">
  <defs>
    <style>
      .cls-1 {
        fill: #fff;
      }

      .cls-2 {
        fill: none;
      }

      .cls-3 {
        fill: #cf001c;
      }
    </style>
  </defs>
  <g id="EGTD_logo_sign_with_font" data-name="EGTD logo sign with font">
    <g id="egtLogo">
      <circle id="whitebackground" class="cls-1" cx="29.46" cy="23" r="12.77"/>
      <g id="EGTLogoShapes">
        <path id="Path_24" data-name="Path 24" class="cls-3" d="M31.91,29.63c-3.9,1.3-7.66,1.93-10.8,1.94,3.14,3.13,7.78,4.22,11.98,2.83,4.25-1.42,7.2-5.05,8.03-9.25-2.46,1.71-5.63,3.29-9.21,4.48Z"/>
        <path id="Path_25" data-name="Path 25" class="cls-3" d="M32.05,25.42l-.32.77h.64l-.32-.77Z"/>
        <path id="Path_26" data-name="Path 26" class="cls-3" d="M23.43,25.34h-.42v1.25h.42c.34.03.65-.23.67-.57.03-.34-.23-.65-.57-.67-.03,0-.07,0-.1,0Z"/>
        <path id="Path_27" data-name="Path 27" class="cls-3" d="M27.65,16.18c3.67-1.19,7.23-1.83,10.28-1.93-4.98-4.59-12.73-4.27-17.32.7-1.59,1.72-2.65,3.86-3.06,6.16,2.61-1.88,6.1-3.64,10.1-4.94Z"/>
        <path id="Path_28" data-name="Path 28" class="cls-3" d="M34.07,28.02c2.53-.82,4.94-1.95,7.19-3.36.23-1.81.07-3.65-.49-5.39-.55-1.75-1.49-3.35-2.73-4.68-2.63.21-5.23.75-7.73,1.6-2.25.74-4.42,1.71-6.46,2.91h2.4v.93h-2.57v1.08h2.27v.9h-2.27v1.15h2.66v.93h-3.78v-4.17c-3.37,2.3-5.23,4.89-4.59,6.91,1.04,3.27,8.25,3.81,16.1,1.2ZM28.83,27.09h-.45v-2.01h.45v2.01ZM30.93,25.46h-.63v1.63h-.45v-1.63h-.63v-.38h1.71v.38ZM34.94,27.09h-1.44v-2.01h.45v1.63h.98v.38ZM31.93,19.09h4.25v.94h-1.56v4.04h-1.13v-4.04h-1.56v-.94ZM32.28,25.08l.88,2.01h-.48l-.17-.43h-.91l-.17.43h-.47l.88-2.01h.45ZM27.08,20.25c.23-.39.56-.71.96-.92.42-.22.9-.34,1.38-.33.4,0,.79.07,1.16.22.34.14.64.36.88.64l-.72.68c-.32-.36-.78-.57-1.26-.56-.29,0-.58.06-.83.2-.24.13-.43.32-.56.56-.27.52-.27,1.14,0,1.66.13.24.32.43.56.57.25.14.53.21.82.2.31,0,.61-.07.88-.21v-1.46h1.03v2.02c-.28.21-.59.37-.92.47-.34.11-.7.16-1.05.16-.48,0-.95-.11-1.37-.33-.4-.21-.73-.53-.95-.92-.46-.83-.46-1.83,0-2.66h0ZM26.09,25.55c.09-.16.23-.29.39-.37.17-.09.36-.14.56-.13.16,0,.32.03.47.09.14.06.26.15.35.26l-.29.28c-.13-.15-.31-.23-.51-.23-.12,0-.23.03-.33.08-.1.05-.17.13-.23.23-.11.21-.11.46,0,.67.05.1.13.18.23.23.1.06.21.08.33.08.12,0,.24-.03.35-.09v-.59h.42v.82c-.11.08-.24.15-.37.19-.14.04-.28.07-.42.07-.19,0-.38-.04-.55-.13-.16-.09-.29-.21-.38-.37-.19-.33-.19-.74,0-1.07h0ZM25.02,25.08h.45v2.01h-.45v-2.01ZM24.4,26.62c-.09.15-.22.27-.38.35-.18.09-.37.13-.57.13h-.89v-2.01h.89c.2,0,.39.04.57.13.16.08.29.2.38.35.18.33.18.73,0,1.06h0Z"/>
      </g>
    </g>
    <g id="egtDigital">
      <path id="egt" class="cls-1" d="M47.94,13.66h5.54v1.37h-3.84v1.59h3.4v1.32h-3.4v1.69h3.98v1.37h-5.67v-7.33ZM62.02,13.68h6.39v1.38h-2.34v5.93h-1.69v-5.95h-2.34v-1.37h-.02ZM54.72,15.39c.34-.58.84-1.05,1.44-1.35,1.19-.58,2.57-.64,3.81-.15.51.21.96.53,1.32.94l-1.09,1.01c-.49-.53-1.18-.83-1.9-.82-.43,0-.86.09-1.25.29-.36.19-.65.47-.85.82-.21.38-.32.8-.31,1.23,0,.42.1.84.31,1.21.2.35.49.64.84.84.38.2.8.3,1.23.29.46,0,.91-.1,1.32-.31v-2.15h1.55v2.97c-.41.31-.88.55-1.38.68-.52.16-1.05.24-1.59.24-.71.02-1.42-.15-2.05-.48-.59-.31-1.09-.78-1.44-1.35-.34-.59-.52-1.26-.51-1.95.03-.69.22-1.36.56-1.96h0Z"/>
      <path id="digital" class="cls-1" d="M71.22,32.14h-1.69v-7.28h1.69v7.28ZM78.98,26.21h-2.32v5.93h-1.69v-5.93h-2.32v-1.39h6.33v1.39ZM93.82,32.14h-5.31v-7.28h1.69v5.93h3.67v1.35h-.04ZM84,24.83l3.25,7.28h-1.77l-.63-1.56h-3.37l-.63,1.56h-1.77l3.25-7.28h1.69ZM61.06,26.55c.33-.58.83-1.05,1.43-1.35.63-.34,1.35-.52,2.07-.5.59,0,1.18.11,1.73.34.5.21.94.53,1.31.93l-1.1,1.01c-.48-.54-1.17-.85-1.9-.84-.43-.02-.85.08-1.22.29-.36.19-.65.48-.84.84-.21.37-.31.79-.3,1.22-.01.43.09.85.3,1.22.42.74,1.22,1.17,2.07,1.14.45.02.9-.08,1.31-.29v-2.14h1.52v2.94c-.41.32-.88.55-1.39.67-.5.17-1.03.25-1.56.25-.71.01-1.41-.16-2.02-.5-.59-.31-1.09-.78-1.43-1.35-.34-.59-.51-1.26-.51-1.93,0-.68.19-1.35.55-1.93h0ZM57.05,24.83h1.69v7.28h-1.69v-7.28ZM54.77,30.38c-.34.56-.84,1-1.43,1.26-.66.32-1.38.47-2.11.46h-3.29v-7.28h3.29c.73,0,1.45.15,2.11.46.59.28,1.08.72,1.43,1.26.67,1.19.67,2.64,0,3.83h0ZM83.16,26.51l-1.18,2.78h2.32l-1.14-2.78ZM51.19,26.22h-1.52v4.5h1.52c.63.03,1.25-.18,1.73-.59.43-.44.66-1.03.63-1.64.03-.61-.2-1.21-.63-1.64-.47-.44-1.09-.66-1.73-.63h0Z"/>
    </g>
    <rect id="container" class="cls-2" x="16.13" y="9.3" width="77.73" height="27.39"/>
  </g>
</svg>