<?xml version="1.0" encoding="UTF-8"?>
<svg id="Layer_1" data-name="Layer 1" xmlns="http://www.w3.org/2000/svg" viewBox="0 0 110 46">
  <defs>
    <style>
      .cls-1 {
        fill: #eb2027;
      }
    </style>
  </defs>
  <path class="cls-1" d="M23.92,18.25c-.26.27-.65.29-1.03.36.08.39.01.8-.23,1-.36.3-.76.14-1.08-.16-.49.5-1.01,1.06-1.75,1.02l.11-.84-.2-.32c-.05-.08.08-.3.15-.37l1.12-1.19-.62-.4,1.23.04c.13,0,.38-.07.53-.13l-1.65-.64c.78-.6,2.17-.4,3.04-.65-1.32-.19-2.52-.37-3.69-1.07l2.45-.04-.83-.44c-1.62-.85-2.15-.04-4.46-.36-.66-.09-1.34-.05-1.93.25l-1.04.54,2.38.06c-1.14.69-2.31.85-3.61,1.06.89.27,2.15.05,2.99.64-.63.29-1.12.46-1.72.64.63.27,1.1.05,1.85.1l-.63.4,1.11,1.19c.08.08.21.3.17.38s-.12.19-.22.32l.12.84c-.72,0-1.27-.47-1.74-1.03-.26.24-.59.39-.85.29-.35-.13-.55-.47-.5-.84l.03-.22c.02-.17-.85-.07-1.09-.45h.85c.86.03,1.55.48,2.04,1.14-.18-.57-.6-.99-1.17-1.2-1.26-.46-2.06.18-2.39-1.06-.02-.07-.13-.21-.16-.25-.04-.05-.17.18-.16.26.12.75.59,1.69,1.16,2.28.47.48,1.06.74,1.68.91,1.89.54.95,2.46,1.43,3.43.32.66,1.07,1.05,1.71,1.31,1.04.42.54,1.75.4,1.81-.88.37-1.7.74-2.61.94-.57.12-1.24-.46-1.58-.87l1.42-.31-.83-.27c-.23-.08-.5-.32-.53-.52l1.74.27-.92-.6c-.39-.26-.77-.56-.71-1.12l.75.59c.28.22.66.28,1.07.25l-1.66-1.38c1.25-.34.61-.82.98-1.71-1.04.25-.26.93-1.02,1.45-1.29.88-1.63,2.69-1.07,3.92,1.09.26,1.19,1.51.99,2.32l-.45,1.79c.9-.13,1.52-.3,2.17.2-1.07-.11-1.82.09-2.7.75l-.05-1.15c0-.15-.21-.39-.34-.42-.84-.17-.52,2.11-.56,2.58l-1.25-2.71-.15.7c-.92-1.34-1.81-2.53-2.61-3.91-.58-.99-.28-3.61.31-4.67l.34,3.01c.12,1.1,1.1,3.63,2.48,3.74l-.98-2.08c-.45-.95-.65-1.94-.92-2.97l1.03.3c-.21-1.02-.56-1.88-.68-3,.51.96.96,1.93,1.42,2.95-.69.62-.6,1.54.02,2.13s.99,1.35,1.2,2.25c.11-.72.07-1.53-.27-2.23-.84-1.74.16-1.99.33-2.24.07-.1-.03-.35-.09-.53,1.34-.43.71-1.07,1.7-1.55-1.04-.38-1.22,1.39-2.46.8-.26-.12-.43-.63-.32-.87.44-.17.97-.16,1.11-.68l-.82-.08c-.37-.04-.63-.65-.54-.94.33.1.61.22.84.02-.9-1.22-1.46-2.57-1.75-4.08-.19.2-.3.36-.5.68-.19-.05-.54-.18-.77-.33-.28-.19-.35-.65-.26-.89l.62.24c-.06-.15-.18-.38-.29-.48-1.16-1.03-1.39-2.98-.71-3.54.24-.19.64-.21.95-.09,2.18.9,2.09.95,4.62,1.21-.42.08-.93.24-1.36.2-.87-.07-2.39-.89-3.1-.15l.69.65-.41.13c1.4,1.72.76,2.91,2.45,4.89.16.19.4.36.6.46-.74-1.03-1.32-2.06-1.52-3.31l-.26-1.61c.36.02.56.03.95,0l-1.4-.71c.7-.47,1.33-.1,2.05,0,1.04.15,4.95-2.37,10.83-.24,2.02.73,1.83-.51,3.29.25l-1.48.73h1.03s-.28,1.7-.28,1.7c-.2,1.19-.76,2.15-1.48,3.18.17-.08.4-.24.55-.4,1.77-2.05,1.03-3.17,2.51-4.94l-.5-.09.73-.66c-.31-.32-.72-.39-1.12-.3l-1.88.43c-.41.09-.98-.11-1.4-.2l1.93-.25c1.27-.17,2.71-1.29,3.43-.97.89.39.46,2.39.05,2.91l-.97,1.24.72-.27c.14.79-.38,1.04-1.03,1.23l-.51-.7c-.33,1.58-.84,2.88-1.77,4.09.23.22.47.13.82,0,.13.28-.1.9-.5.93l-.84.07c.15.5.64.54,1.1.67.15.2-.01.72-.26.86-.52.29-1.09.06-1.42-.38-.26-.35-.7-.55-1.11-.38.97.28.42,1.13,1.72,1.52l-.07.49c-.03.21,1.26.47.35,2.26-.37.73-.36,1.57-.33,2.35.24-.93.59-1.71,1.26-2.36.6-.58.69-1.5,0-2.11l1.48-3.08c-.18,1.11-.47,2.02-.73,3.12l1.02-.3c-.38,1.8-1.01,3.4-1.93,5.05.48,0,.87-.32,1.19-.69,1.51-1.82,1.4-3.91,1.65-6.21.5,1.15.94,3.72.32,4.8-.8,1.39-1.71,2.6-2.61,3.94l-.2-.6-1.19,2.54c-.09-.5.26-2.58-.55-2.52-.16.01-.38.27-.38.42l-.05,1.14c-.86-.62-1.6-.85-2.7-.75.62-.48,1.28-.32,2.18-.19l-.44-1.68c-.23-.89-.15-2.14.98-2.44.54-1.29.19-3.06-1.12-3.94-.7-.47.03-1.18-.98-1.43.35.92-.27,1.39.97,1.71l-1.6,1.34c.38.11.74,0,1.05-.23l.69-.52c.18.92-1.07,1.17-1.52,1.65.59-.03,1.1-.14,1.73-.27-.27.63-.87.61-1.49.79.41.16.86.22,1.45.32-.22.43-.98,1.02-1.56.89-.92-.21-1.75-.6-2.63-.94-.26-.62-.38-1.46.4-1.79.67-.29,1.45-.65,1.77-1.36.45-1.01-.44-2.85,1.39-3.39.63-.19,1.2-.43,1.69-.9.61-.59,1.09-1.67,1.22-2.37.01-.08-.15-.28-.18-.23-.23.33-.37,1.01-.76,1.06l-1.22.15c-.75.09-1.45.51-1.67,1.23.53-.57,1.12-1.01,1.93-1.01h.84Z"/>
  <path class="cls-1" d="M79.45,24.57v-2.16s5.44,0,5.44,0c-.03.79-.05,1.46-.2,2.18-.31,1.53-1.3,2.89-2.74,3.54-1.56.7-3.34.68-4.91.04-2.86-1.17-3.75-4.45-2.83-7.2.97-2.9,4.06-4.03,6.85-3.38,1.5.35,2.7,1.39,3.26,2.8l-2.58,1.08c-.36-.84-.96-1.46-1.75-1.61-.9-.18-1.81.08-2.4.81-1.02,1.24-1.12,3.01-.33,4.4.61,1.08,1.8,1.54,2.98,1.22.81-.22,1.4-.83,1.43-1.7h-2.21Z"/>
  <path class="cls-1" d="M52.57,28.27c-1.46.07-2.8.03-4.18.01v-10.52s4.05.01,4.05.01c2.86,0,5.1,2.33,5.17,5.11s-2.11,5.24-5.04,5.38ZM54.75,23.08c.02-1.44-.78-2.61-2.18-2.89-.46-.09-.96-.1-1.44-.09v5.86c.48,0,.96,0,1.42-.09,1.37-.25,2.17-1.37,2.19-2.79Z"/>
  <path class="cls-1" d="M40.01,28.29h-3.42s-2.58-4.03-2.58-4.03l-.02,4.03h-2.74s0-10.53,0-10.53l4.41.02c1.08,0,2.09.42,2.78,1.23.7,1.08.76,2.46.19,3.6-.38.77-1.06,1.2-1.89,1.39l3.28,4.3ZM35.64,22.18c.42-.25.52-.71.5-1.13-.06-1.06-1.18-1.22-2.14-1.17v2.58c.58.02,1.15.01,1.64-.28Z"/>
  <path class="cls-1" d="M102.52,28.27l-3.4.04-2.58-4.03-.02,4.03h-2.76s0-10.54,0-10.54l4.48.02c1.11,0,2.12.47,2.79,1.32.59,1.01.66,2.26.2,3.33-.36.83-1.05,1.36-1.97,1.55l3.26,4.28ZM98.14,22.2c.4-.23.53-.66.52-1.04s-.14-.78-.51-.99c-.48-.27-1.04-.29-1.61-.27v2.57c.55.03,1.1.01,1.6-.27Z"/>
  <polygon class="cls-1" points="91.94 24.16 88.88 24.18 88.9 25.97 92.11 25.98 92.1 28.3 86.12 28.3 86.12 17.76 92.1 17.76 92.11 20.09 88.89 20.1 88.9 21.83 91.93 21.83 91.94 24.16"/>
  <polygon class="cls-1" points="46.56 24.15 43.49 24.17 43.48 25.97 46.72 25.97 46.73 28.3 40.71 28.31 40.71 17.76 46.72 17.76 46.73 20.09 43.49 20.1 43.48 21.82 46.55 21.84 46.56 24.15"/>
  <polygon class="cls-1" points="66.66 28.3 63.92 28.31 63.91 20.1 61.66 20.09 61.65 17.76 68.92 17.76 68.92 20.09 66.66 20.1 66.66 28.3"/>
  <rect class="cls-1" x="69.89" y="17.76" width="2.74" height="10.55"/>
  <path class="cls-1" d="M18.15,31.3c-.48.6-1.1.53-1.71.39-.66-.14-1.1-.53-1.15-1.23-.14-.18-.57-.1-.74.05l-.57.52c.1-1.1.91-1.88,1.93-2.27,2-.77,5.84-.57,6.41,2.11-.19.3-.57-.84-1.3-.43-.05.68-.44,1.09-1.1,1.24-.62.14-1.27.25-1.76-.38Z"/>
  <path class="cls-1" d="M20.04,22.69l.23.24c.08.08,0,.45-.12.5-1.89.82-4.27.21-4.14-.33.03-.12.17-.33.25-.42.21.3.4.55.73.62.65.15,2.7.39,3.06-.61Z"/>
</svg>