<?xml version="1.0" encoding="UTF-8"?>
<svg id="Layer_1" data-name="Layer 1" xmlns="http://www.w3.org/2000/svg" viewBox="0 0 110 46">
  <defs>
    <style>
      .cls-1 {
        fill: #fff;
      }

      .cls-2 {
        fill: #ff002a;
      }
    </style>
  </defs>
  <path class="cls-1" d="M42.64,20.26c-.14-.33-.37-.62-.68-.82-.14-.1-.32-.19-.49-.23-.17-.06-.36-.09-.56-.09h-5.11c-.2,0-.4.09-.55.23-.14.14-.23.34-.23.55v6.21c0,.43.34.78.78.78s.78-.34.78-.78v-1.81h4.34c.26,0,.5-.06.72-.14.33-.14.62-.37.82-.68.1-.14.19-.32.23-.49.06-.17.09-.36.09-.56v-1.44c.01-.26-.04-.5-.13-.73ZM41.24,22.43s-.01.09-.03.11c-.03.06-.06.1-.11.14-.03.01-.06.03-.09.04-.03.01-.06.01-.09.01h-4.34v-2.07h4.34s.09.01.11.03c.06.03.1.06.14.11.01.03.03.06.04.09.01.03.01.06.01.09v1.44Z"/>
  <path class="cls-1" d="M79.78,22.55c-.14-.1-.32-.19-.49-.23-.17-.06-.36-.09-.56-.09h-4.55s-.09-.01-.12-.03c-.06-.03-.1-.06-.14-.11-.01-.03-.03-.06-.04-.09-.01-.03-.01-.06-.01-.09v-.93s.01-.09.03-.11c.03-.06.06-.1.11-.14.03-.01.06-.03.09-.04.03-.01.06-.01.09-.01h5.37c.43,0,.78-.34.78-.78s-.34-.78-.78-.78h-5.37c-.26,0-.5.06-.72.14-.33.14-.62.37-.82.68-.1.14-.19.32-.23.49-.06.17-.09.36-.09.56v.93c0,.26.06.5.14.72.14.33.37.62.67.82.14.1.32.19.49.23.17.06.36.09.56.09h4.55s.09.01.12.03c.06.03.1.06.14.11.01.03.03.06.04.09.01.03.01.06.01.09v.93s-.01.09-.03.11c-.03.06-.06.1-.11.14-.03.01-.06.03-.09.04-.03.01-.06.01-.09.01h-5.37c-.43,0-.78.34-.78.78s.34.78.78.78h5.37c.26,0,.5-.06.72-.14.33-.14.62-.37.82-.68.1-.14.19-.32.23-.49.06-.17.09-.36.09-.56v-.93c0-.26-.06-.5-.14-.72-.14-.33-.39-.62-.67-.82Z"/>
  <path class="cls-1" d="M70.46,19.31c-.32-.29-.82-.24-1.09.07l-3.03,3.48-3.05-3.48c-.29-.32-.78-.36-1.09-.07-.32.29-.36.78-.07,1.09l3.42,3.92v1.78c0,.43.35.78.78.78s.78-.34.78-.78v-1.78l3.43-3.92c.27-.32.24-.8-.07-1.09Z"/>
  <path class="cls-1" d="M90.77,20.26c-.14-.33-.37-.62-.68-.82-.14-.1-.32-.19-.49-.23-.17-.06-.36-.09-.56-.09h-4.54c-.26,0-.5.06-.72.14-.33.14-.62.37-.82.68-.1.14-.19.32-.23.49-.06.17-.09.36-.09.56v4.04c0,.26.06.5.14.72.14.33.37.62.68.82.14.1.32.19.49.23.17.06.36.09.56.09h4.55c.26,0,.5-.06.72-.14.33-.14.62-.37.82-.68.1-.14.19-.32.23-.49.06-.17.09-.36.09-.56v-4.02c-.01-.26-.07-.5-.16-.73ZM89.37,25.02s-.01.09-.03.11c-.03.06-.06.1-.11.14-.03.01-.06.03-.09.04-.03.01-.06.01-.09.01h-4.54s-.09-.01-.12-.03c-.06-.03-.1-.06-.14-.11-.01-.03-.03-.06-.04-.09-.01-.03-.01-.06-.01-.09v-4.02s.01-.09.03-.11c.03-.06.06-.1.11-.14.03-.01.06-.03.09-.04.03-.01.06-.01.09-.01h4.55s.09.01.11.03c.06.03.1.06.14.11.01.03.03.06.04.09.01.03.01.06.01.09v4.02h-.01Z"/>
  <path class="cls-1" d="M100.57,19.13c-.43,0-.78.34-.78.78v4.44l-5.42-5c-.23-.22-.56-.26-.83-.14-.29.13-.46.4-.46.7v6.21c0,.43.35.78.78.78s.78-.34.78-.78v-4.44l5.42,5c.23.22.56.26.83.14.29-.13.46-.4.46-.7v-6.21c0-.43-.34-.78-.78-.78Z"/>
  <path class="cls-1" d="M51.01,25.33h-4.65v-5.43c0-.43-.34-.78-.78-.78s-.78.34-.78.78v6.21c0,.2.09.4.23.55.14.14.34.23.55.23h5.43c.43,0,.78-.34.78-.78s-.34-.78-.78-.78Z"/>
  <path class="cls-1" d="M61.56,26.89c-.27,0-.53-.14-.68-.39l-2.95-5.06-2.95,5.06c-.22.37-.69.49-1.06.27-.37-.22-.49-.69-.27-1.06l3.62-6.21c.14-.24.39-.39.68-.39s.53.14.68.39l3.61,6.22c.22.37.09.85-.27,1.06-.13.07-.27.1-.4.1Z"/>
  <path class="cls-2" d="M11.17,30.55v-13.05l11.01,5.5-6.24,3.12v-3.12c0-.69-.56-1.25-1.25-1.25s-1.25.56-1.25,1.25v5.14c0,.43.23.83.59,1.06.37.23.83.24,1.22.06l10.3-5.14c.43-.22.69-.65.69-1.12s-.27-.91-.69-1.12l-15.07-7.54c-.4-.19-.86-.17-1.24.06-.36.23-.59.63-.59,1.06v15.07c0,.69.56,1.25,1.25,1.25.7.01,1.26-.55,1.26-1.24Z"/>
</svg>