<?xml version="1.0" encoding="UTF-8"?>
<svg id="Layer_1" data-name="Layer 1" xmlns="http://www.w3.org/2000/svg" viewBox="0 0 110 46">
  <defs>
    <style>
      .cls-1 {
        fill: #fff;
      }

      .cls-2 {
        fill: #fffa02;
      }
    </style>
  </defs>
  <g>
    <path class="cls-2" d="M70.65,15.47c.37-.31.77-.59,1.11-.93,2.38-2.39,7.22-1.95,8.84,1.65.36.81.6,1.64.73,2.5.01.08,0,.16,0,.27-.16,0-.3.02-.45.02-.62,0-1.24,0-1.86,0-.28,0-.39-.06-.43-.37-.17-1.16-.64-2.16-1.82-2.6-1.68-.63-4.27-.19-4.64,2.66-.03.25-.12.3-.35.3-.69,0-1.38-.01-2.07,0-.27,0-.38-.08-.42-.36-.14-.9-.51-1.7-1.25-2.27-1.93-1.47-4.8-.23-5.16,2.23-.04.3-.13.41-.44.4-.68-.02-1.36-.01-2.04,0-.22,0-.31-.07-.28-.31.26-1.74.89-3.28,2.29-4.42.94-.76,2.05-1.1,3.25-1.19,2.03-.16,3.58.68,4.81,2.23.06.08.13.16.2.24.01.02.04.02.06.03l-.07-.11Z"/>
    <path class="cls-2" d="M25.5,19.79c.33,0,.67.01,1,0,.29-.01.39.09.38.38-.04.79.07,1.56.46,2.27.59,1.07,1.47,1.75,2.69,1.94,1.17.19,2.31.13,3.35-.47,1.25-.73,1.91-1.85,1.95-3.32.02-.79.01-.79.81-.79.55,0,1.1,0,1.66,0,.18,0,.27.05.28.25.07,2.05-.49,3.87-1.94,5.36-.95.97-2.16,1.48-3.48,1.69-1.31.21-2.61.18-3.9-.19-1.97-.56-3.3-1.83-4.08-3.7-.42-1-.58-2.05-.54-3.14,0-.18.07-.27.27-.27.37,0,.74,0,1.1,0,0,0,0,0,0,0Z"/>
    <path class="cls-2" d="M24.12,18.99c.4-2.4,1.43-4.31,3.68-5.27,2.41-1.03,4.86-.99,7.18.29,1.79.99,2.68,2.65,3.03,4.62.04.25-.02.36-.3.35-.69-.01-1.38,0-2.07,0-.19,0-.32-.04-.37-.26-.34-1.68-1.47-2.55-3.07-2.84-1.08-.2-2.18-.15-3.22.29-1.1.47-1.79,1.29-2.05,2.46-.06.27-.17.36-.44.35-.77-.01-1.53,0-2.38,0Z"/>
    <path class="cls-2" d="M13.01,13.17c1.01,0,2.04-.12,3.03.03,2.11.31,3.84,1.29,4.73,3.34.29.67.35,1.44.5,2.17.04.17-.03.29-.24.28-.75,0-1.5,0-2.24,0-.2,0-.23-.11-.27-.27-.15-.54-.24-1.12-.5-1.59-.53-.94-1.47-1.28-2.51-1.32-.8-.03-1.61,0-2.42-.01-.28,0-.36.1-.36.36.01.82,0,1.63,0,2.45,0,.27-.07.4-.36.39-.69-.02-1.38-.01-2.07,0-.22,0-.31-.07-.31-.3,0-1.76,0-3.52,0-5.28,0-.27.15-.29.35-.29.89,0,1.77,0,2.66,0,0,.02,0,.03,0,.05Z"/>
    <path class="cls-2" d="M45.51,27.19c-1.31,0-2.62,0-3.93,0-.25,0-.34-.07-.34-.33,0-2.25,0-4.51,0-6.76,0-.24.08-.33.32-.32.69.01,1.38.01,2.07,0,.26,0,.33.1.33.35,0,1.3,0,2.6-.01,3.9,0,.34.11.43.44.43,1.67-.01,3.34,0,5-.01.36,0,.45.12.44.46-.02.65-.02,1.31,0,1.97,0,.26-.09.34-.34.33-1.32,0-2.65,0-3.97,0Z"/>
    <path class="cls-2" d="M95.37,13.05c1.4,0,2.81.01,4.21,0,.35,0,.43.12.42.44-.02.63-.02,1.27,0,1.9,0,.3-.07.43-.4.42-.78-.02-1.56,0-2.35,0q-.45,0-.45.46c0,.78,0,1.57,0,2.35,0,.27-.08.39-.37.39-.68-.02-1.36-.01-2.04,0-.25,0-.34-.08-.34-.34.01-.83,0-1.66,0-2.49,0-.29-.1-.38-.38-.38-.85.01-1.7,0-2.55.01-.27,0-.39-.06-.38-.36.02-.67.02-1.34,0-2-.01-.32.11-.39.4-.39,1.4.01,2.81,0,4.21,0Z"/>
    <path class="cls-2" d="M56.22,23.49c0,1.1,0,2.21,0,3.31,0,.29-.06.41-.38.4-.69-.02-1.38-.01-2.07,0-.22,0-.3-.07-.3-.3,0-2.26,0-4.53,0-6.79,0-.27.11-.34.35-.33.69,0,1.38.01,2.07,0,.26,0,.34.08.33.34-.01,1.13,0,2.25,0,3.38h0Z"/>
    <path class="cls-2" d="M72.1,23.49c0,1.1,0,2.21,0,3.31,0,.29-.07.41-.38.4-.68-.02-1.36-.02-2.03,0-.25,0-.34-.06-.34-.33,0-2.24.01-4.48,0-6.72,0-.28.09-.38.38-.37.67.02,1.33.02,2,0,.28,0,.38.09.38.37-.01,1.11,0,2.23,0,3.35h0Z"/>
    <path class="cls-2" d="M78.61,23.49c0-1.1,0-2.21,0-3.31,0-.29.07-.41.38-.4.69.02,1.38.01,2.07,0,.22,0,.31.07.31.3,0,2.28,0,4.56,0,6.84,0,.24-.1.29-.31.29-.71,0-1.43-.01-2.14,0-.25,0-.31-.1-.31-.33,0-1.13,0-2.26,0-3.38Z"/>
    <path class="cls-2" d="M87.55,23.52c0,1.1,0,2.21,0,3.31,0,.28-.08.38-.37.38-.69-.02-1.38-.01-2.07,0-.24,0-.32-.08-.32-.32,0-2.25,0-4.51,0-6.76,0-.28.11-.35.37-.35.68.01,1.36.02,2.03,0,.28,0,.35.1.35.36,0,1.13,0,2.25,0,3.38h0Z"/>
    <path class="cls-2" d="M94.08,23.46c0-1.09,0-2.19,0-3.28,0-.29.06-.41.38-.4.67.02,1.33.02,2,0,.25,0,.36.07.36.33,0,2.27,0,4.53,0,6.8,0,.2-.07.29-.29.28-.71,0-1.43-.01-2.14,0-.25,0-.31-.09-.31-.32,0-1.14,0-2.28,0-3.42Z"/>
    <path class="cls-2" d="M21.28,23.55c0,1.1,0,2.21,0,3.31,0,.25-.06.35-.33.34-.7-.02-1.4-.01-2.1,0-.23,0-.32-.06-.32-.31,0-2.23,0-4.46,0-6.69,0-.23.06-.33.31-.33.71.01,1.43.01,2.14,0,.26,0,.31.1.31.33,0,1.12,0,2.23,0,3.35h0Z"/>
    <path class="cls-2" d="M12.69,27.09h-2.65c-.01-.14-.03-.27-.03-.41,0-2.17,0-4.35,0-6.52,0-.27.06-.4.36-.39.68.02,1.36,0,2.04,0,.18,0,.34,0,.34.27,0,2.31,0,4.62-.01,6.94,0,.02-.01.04-.03.11Z"/>
    <path class="cls-2" d="M62.81,23.51c0,1.09,0,2.18,0,3.28,0,.3-.06.43-.4.42-.65-.03-1.31-.02-1.97,0-.26,0-.36-.07-.36-.35.01-2.23.01-4.46,0-6.69,0-.28.09-.38.37-.38.65.02,1.31.01,1.97,0,.28,0,.38.09.38.38-.01,1.12,0,2.23,0,3.35h0Z"/>
    <path class="cls-2" d="M53.48,16.04c0-.87,0-1.75,0-2.62,0-.29.1-.38.38-.37.68.02,1.36.01,2.03,0,.25,0,.34.07.34.33-.01,1.76-.01,3.52,0,5.27,0,.26-.08.34-.34.34-.69-.01-1.38-.01-2.07,0-.27,0-.35-.1-.35-.37.01-.86,0-1.72,0-2.59Z"/>
    <path class="cls-2" d="M87.51,13.06c.02.16.04.3.04.43,0,1.69,0,3.38,0,5.07,0,.32-.07.45-.42.44-.67-.03-1.33-.01-2,0-.25,0-.35-.08-.34-.33,0-1.76,0-3.52.01-5.27,0-.11.13-.31.2-.31.82-.02,1.65-.01,2.5-.01Z"/>
    <path class="cls-2" d="M43.95,16.01c0,.87,0,1.75,0,2.62,0,.28-.09.36-.36.36-.68-.02-1.36-.01-2.04,0-.24,0-.33-.09-.32-.32,0-1.76,0-3.52,0-5.28,0-.26.09-.34.35-.33.68.01,1.36.01,2.04,0,.26,0,.34.09.34.34-.01.87,0,1.75,0,2.62Z"/>
  </g>
  <g>
    <path class="cls-1" d="M32.51,33.1s-.38-.14-.58-.2c-.79-.25-1.48.12-1.61.92-.08.47-.05.96.02,1.43.09.55.49.87,1.05.85.43-.01.86-.11,1.32-.17,0,.22.02.45-.01.67-.01.08-.13.19-.21.22-.6.2-1.22.24-1.84.09-.56-.13-.98-.48-1.21-1-.39-.89-.42-1.82-.03-2.72.45-1.02,1.49-1.47,2.7-1.16.89.23.91.11.4,1.07Z"/>
    <path class="cls-1" d="M75.5,32.02c.31,0,.58.01.84,0,.21-.01.3.08.39.26.27.57.56,1.13.88,1.75.3-.59.6-1.1.84-1.64.13-.29.28-.41.6-.37.21.03.43,0,.71,0-.31.58-.6,1.11-.88,1.64-.2.37-.42.74-.6,1.12-.08.17-.13.37-.14.55-.02.51,0,1.03,0,1.57h-1.03c0-.5.02-1,0-1.5-.01-.22-.07-.45-.17-.65-.43-.84-.88-1.66-1.33-2.49-.03-.06-.05-.13-.09-.25Z"/>
    <path class="cls-1" d="M60.93,32.89h-1.26c-.03-.05-.05-.07-.05-.09q-.06-.78.72-.78c.85,0,1.7,0,2.55,0,.12,0,.25,0,.36,0,.03.07.05.1.05.13q.05.75-.7.75c-.19,0-.39,0-.63,0,0,.17,0,.3,0,.44,0,1.08,0,2.16,0,3.24,0,.27-.06.36-.34.35-.7-.02-.7,0-.7-.71,0-.95,0-1.91,0-2.86,0-.14,0-.27,0-.47Z"/>
    <path class="cls-1" d="M46.79,32.03c.01.11.03.17.03.24,0,1.46,0,2.92,0,4.38,0,.21-.05.29-.27.28-.92-.02-.77.15-.78-.74,0-1.28,0-2.55,0-3.83,0-.25.06-.36.33-.33.22.02.43,0,.69,0Z"/>
  </g>
</svg>