<?xml version="1.0" encoding="UTF-8"?>
<svg id="Layer_1" data-name="Layer 1" xmlns="http://www.w3.org/2000/svg" viewBox="0 0 110 46">
  <defs>
    <style>
      .cls-1 {
        fill: #fff;
      }

      .cls-2 {
        fill: #f26739;
      }
    </style>
  </defs>
  <g id="b">
    <g id="c">
      <path id="d" class="cls-1" d="M95.37,18.31h1.74v6.34h3.68v1.59h-5.42v-7.93ZM92.19,26.25h1.74v-7.93h-1.74v7.93ZM84.62,25.04c.95.85,2.16,1.27,3.35,1.27,1.7,0,2.9-.88,2.9-2.46v-.02c0-1.38-.9-1.96-2.51-2.38-1.37-.35-1.7-.52-1.7-1.04v-.02c0-.38.35-.69,1.02-.69s1.35.3,2.05.78l.9-1.31c-.8-.65-1.78-1.01-2.94-1.01s-2.77.95-2.77,2.39v.02c0,1.58,1.02,2.02,2.62,2.42,1.32.34,1.59.57,1.59,1.01v.02c0,.46-.43.75-1.14.75s-1.65-.38-2.36-.96l-1.02,1.23M84.27,26.27l-3.39-7.99h-1.6l-3.39,7.99h1.77l2.39-5.89,1.04,2.56h-1.39l-.62,1.54h2.63l.73,1.8h1.83ZM63.48,18.31c2.49,0,4.2,1.71,4.2,3.95v.02c0,2.23-1.72,3.97-4.2,3.97h-2.71v-7.93h2.71M65.86,22.28c0-1.41-.96-2.39-2.38-2.39h-.98v4.78h.98c1.42,0,2.38-.96,2.38-2.37v-.02ZM56.88,22.12v1.37h.82v.84c-.44.32-1,.48-1.64.48-1.4,0-2.39-1.06-2.39-2.52v-.02c0-1.35,1-2.47,2.27-2.47s1.45.3,2.07.8l1.1-1.33c-.82-.7-1.68-1.09-3.1-1.09-2.39,0-4.14,1.85-4.14,4.1v.02c0,2.34,1.69,4.08,4.16,4.08s2.56-.57,3.37-1.26v-3.01h-2.51ZM48.21,22.12v1.37h.82v.84c-.44.32-1,.48-1.64.48-1.4,0-2.39-1.06-2.39-2.52v-.02c0-1.35,1-2.47,2.27-2.47s1.45.3,2.07.8l1.1-1.33c-.82-.7-1.68-1.09-3.1-1.09-2.39,0-4.14,1.85-4.14,4.1v.02c0,2.34,1.69,4.08,4.16,4.08s2.56-.57,3.37-1.26v-3.01h-2.51ZM38.6,26.25h1.74v-2.56l3.04-5.37h-1.97l-1.92,3.53-1.89-3.53h-2.03l3.04,5.41v2.53ZM73.43,23.41c1-.38,1.69-1.18,1.69-2.46v-.02c0-.75-.24-1.37-.68-1.81-.52-.52-1.3-.8-2.3-.8h-3.35v7.93h1.74v-6.36h1.47c.85,0,1.37.38,1.37,1.13v.02c0,.67-.48,1.12-1.33,1.12h-.86v1.54h.46l1.69,2.54h2.03l-1.93-2.84h0Z"/>
      <path id="e" class="cls-2" d="M31.36,23.65c-.05.88-.21,1.74-.48,2.6-4.19-.25-7.93-2.14-10.6-5.04-2.67,2.9-6.41,4.79-10.59,5.04-.26-.84-.42-1.72-.48-2.6,1.4-.05,2.75-.32,4.01-.78-1.11-.92-2.4-1.64-3.81-2.09.17-.85.44-1.68.81-2.49,2.1.67,3.99,1.83,5.52,3.33.94-.59,1.79-1.31,2.55-2.11-2.59-.45-4.88-1.75-6.57-3.61.57-.69,1.21-1.29,1.89-1.81,1,1.11,2.26,1.97,3.7,2.47-.51-1.24-.87-2.57-1.05-3.95.83-.31,1.69-.53,2.56-.65.18,1.71.69,3.32,1.46,4.77.77-1.45,1.28-3.06,1.46-4.77.87.11,1.72.33,2.56.66-.18,1.38-.54,2.7-1.05,3.95,1.43-.51,2.7-1.36,3.7-2.47.71.54,1.35,1.14,1.89,1.8-1.69,1.86-3.98,3.17-6.57,3.62.75.81,1.61,1.52,2.55,2.11,1.54-1.51,3.43-2.66,5.52-3.33.37.79.64,1.64.81,2.49-1.41.45-2.7,1.17-3.81,2.09,1.26.46,2.61.73,4.01.78h0ZM21.59,33.97v-3.72l3.76-4.9c-.81-.36-1.59-.78-2.33-1.27l-2.74,3.57-2.74-3.57c-.74.48-1.52.91-2.33,1.27l3.76,4.9v3.72c.88.1,1.75.1,2.62,0h0Z"/>
    </g>
  </g>
</svg>