<?xml version="1.0" encoding="UTF-8"?>
<svg id="Layer_1" data-name="Layer 1" xmlns="http://www.w3.org/2000/svg" viewBox="0 0 110 46">
  <defs>
    <style>
      .cls-1 {
        fill: #fff;
      }
    </style>
  </defs>
  <path class="cls-1" d="M69.76,12.07v3.28c.52-.37,1.04-.74,1.56-1.11.31-.22.62-.43.93-.64.54-.39,1-.83,1.61-1.12,1.37-.64,2.82-.42,4.35-.44s3.22,0,4.83,0h1.86c.18,0,.36.02.66.03-3.27,2.71-6.47,5.35-9.69,8.01,3.24,2.72,6.45,5.42,9.66,8.11-.12.17-.26.1-.38.1h-10.52c-.32,0-.55-.08-.8-.29-1.32-1.12-2.64-2.22-4.05-3.39v3.54c-.22.19-.41.14-.57.14-13.15.02-26.29.04-39.43.05-3.28,0-5.35-2.09-5.35-5.37v-5.87c0-3.07,2.06-5.11,5.11-5.11,7.03,0,14.06,0,21.09,0h.64v9.06h10.35v-8.98h8.14-.02ZM74.35,20.07c2.82-2.33,5.59-4.63,8.46-7-.2-.03-.28-.04-.35-.04h-7.51c-.21,0-.38.08-.54.2-1.09.79-2.19,1.57-3.28,2.36-.76.54-1.53,1.09-2.37,1.68v-4.21c-.18,0-.32-.02-.46-.02-1.73,0-3.45.02-5.18,0-.46,0-.53.15-.53.56.02,2.63,0,5.26,0,7.89v.53h-12.3v-9.08h-.64c-6.68,0-13.37,0-20.04,0-2.61,0-4.2,1.6-4.19,4.23v5.67c0,2.89,1.59,4.51,4.46,4.51,12.6,0,25.21-.02,37.82-.03h1.11v-4.81c.22.17.37.29.51.42,1.65,1.38,3.3,2.76,4.96,4.15.2.17.41.25.66.25h8.07c-2.97-2.49-5.79-4.87-8.65-7.26h0Z"/>
  <path class="cls-1" d="M74.51,33.71c.03,1.32-.86,2.28-2.11,2.29-1.26.02-2.16-.89-2.2-2.22-.04-1.29.87-2.27,2.12-2.29,1.27-.02,2.16.89,2.19,2.22h0ZM73.96,33.73c0-1.03-.68-1.75-1.61-1.74-.93,0-1.57.73-1.57,1.77s.66,1.74,1.6,1.73c.94,0,1.58-.74,1.57-1.77h0Z"/>
  <path class="cls-1" d="M53.9,35.92v-4.31c.71-.03,1.4-.1,2.07.04,1.05.22,1.71,1.18,1.63,2.27-.08,1.1-.84,1.9-1.95,2-.56.05-1.15,0-1.75,0h0ZM54.46,35.43c.89,0,1.79.15,2.31-.76.38-.64.37-1.34-.07-1.95-.56-.81-1.41-.64-2.25-.61v3.32h0Z"/>
  <path class="cls-1" d="M25.98,35.28c.11-.13.21-.24.32-.37.49.43,1.03.66,1.68.54.36-.07.62-.25.68-.61.07-.41-.2-.6-.52-.72-.39-.14-.78-.24-1.17-.37-.5-.18-.87-.48-.85-1.07.02-.57.37-.93.9-1.1.61-.2,1.2-.1,1.76.21.37.21.44.42.03.67-.46-.37-.98-.6-1.59-.41-.29.09-.49.26-.51.58-.02.33.22.46.46.55.46.17.94.3,1.39.47.47.19.71.56.69,1.08-.03.52-.29.89-.78,1.09-.81.33-1.82.11-2.48-.57h0Z"/>
  <path class="cls-1" d="M83.42,32.12c-.03.16-.15.25-.28.36-.41-.32-.85-.55-1.38-.47-.36.05-.68.19-.73.61-.04.41.28.52.57.63.42.15.84.27,1.26.43.47.18.73.55.72,1.07,0,.52-.27.9-.75,1.11-.81.36-1.88.12-2.49-.55.09-.11.17-.23.29-.37.47.39.99.65,1.62.56.4-.06.69-.22.76-.64.07-.45-.26-.61-.59-.73-.37-.14-.75-.22-1.13-.35-.48-.17-.84-.47-.83-1.03,0-.58.35-.94.87-1.13.74-.27,1.63-.04,2.11.52v-.02Z"/>
  <path class="cls-1" d="M47.12,31.6h.55c-.03,1.09.11,2.17-.09,3.23-.15.74-.78,1.16-1.67,1.17-.87,0-1.53-.4-1.7-1.13-.23-1.02-.09-2.06-.09-3.09,0-.35.31-.18.55-.2,0,.89,0,1.78,0,2.66.02.89.59,1.36,1.45,1.23.63-.1.97-.52.99-1.32.02-.83,0-1.67,0-2.56h0Z"/>
  <path class="cls-1" d="M36.84,32.08v3.76c-.18.13-.35.1-.55.04v-3.8h-1.05c-.16,0-.34.03-.34-.24,0-.24.13-.27.32-.27h2.71c.16,0,.3,0,.3.23s-.11.28-.31.28h-1.08,0Z"/>
  <path class="cls-1" d="M64.16,35.91h-.49v-4.25c.14-.12.31-.04.49-.06v4.31Z"/>
  <path class="cls-1" d="M43.94,13.92v3.37h-12.15c-.85,0-1.11.29-1.02,1.21h13.15v3.34h-13.14c-.11.86.16,1.18.95,1.18h12.24c0,1.09.03,2.14,0,3.19,0,.28-.31.23-.48.23h-13.63c-2.29,0-3.54-1.26-3.54-3.54v-5.72c0-1.49.75-2.69,1.92-3.1.47-.16.97-.21,1.46-.21,4.62,0,9.23.02,13.85.03h.41v.02Z"/>
  <path class="cls-1" d="M67.84,20.53v5.8h-4.26v-12.36h4.2v5.14c.82-.58,1.56-1.12,2.31-1.64,1.52-1.09,3.05-2.18,4.56-3.27.24-.17.47-.26.77-.26,1.55,0,3.12,0,4.85,0-2.53,2.1-4.94,4.09-7.39,6.11,2.48,2.09,4.94,4.15,7.51,6.31h-1.92c-.95,0-1.91-.04-2.86.02-.56.03-.96-.18-1.36-.52-2.05-1.73-4.11-3.44-6.15-5.16-.06-.05-.13-.08-.25-.17h0Z"/>
  <path class="cls-1" d="M44.99,26.43v-12.57h4.15c.29,0,.23.31.23.49v8.62h13.37c0,1.11.02,2.17,0,3.23,0,.24-.27.23-.45.24h-17.3,0Z"/>
</svg>