<?xml version="1.0" encoding="UTF-8"?>
<svg id="Layer_1" data-name="Layer 1" xmlns="http://www.w3.org/2000/svg" xmlns:xlink="http://www.w3.org/1999/xlink" viewBox="0 0 110 46">
  <defs>
    <style>
      .cls-1 {
        fill: #ee212e;
      }

      .cls-2 {
        fill: none;
      }

      .cls-3 {
        fill: #2899d5;
      }

      .cls-4 {
        fill: #fbad18;
      }

      .cls-5 {
        fill: #fffef9;
      }

      .cls-6 {
        clip-path: url(#clippath);
      }
    </style>
    <clipPath id="clippath">
      <path class="cls-2" d="M24.2,36.11c-1.09-1.58-1.18-3.22.11-5.42s5.5-5.02,5.5-5.02c0,0,2.42-1.29,2.42-2.58s0-.06,0-.09v-.09c0-1.28-2.42-2.58-2.42-2.58h0c-.2-.14-4.25-2.86-5.49-5.02-1.28-2.21-1.19-3.84-.11-5.42,1.09-1.58,3.77-2.58,7.84-2.31,4.08.26,8.57,1.5,11.93,4.53,0,0-2.87-5.1-10.18-6.53-7.31-1.42-12.93,1.45-16.17,4.4-.86.78-1.3,1.53-1.45,2.24-.4,1.98,1.47,3.68,3.02,5.14,2.07,1.95,2.98,3.89,2.97,5.63.02,1.74-.9,3.68-2.97,5.63-1.55,1.46-3.42,3.17-3.02,5.14.15.71.59,1.46,1.45,2.24,3.24,2.95,8.86,5.83,16.17,4.4,7.31-1.42,10.18-6.53,10.18-6.53-3.37,3.03-7.85,4.27-11.93,4.53s-6.76-.73-7.84-2.31h0Z"/>
    </clipPath>
  </defs>
  <g id="Layer_2" data-name="Layer 2">
    <g class="cls-6">
      <g>
        <path class="cls-3" d="M21.29,16.36l8.51,3.97c-.2-.13-4.25-2.86-5.49-5.02-1.28-2.21-1.19-3.84-.11-5.42,1.09-1.58,3.77-2.58,7.84-2.31,4.08.26,8.57,1.5,11.93,4.53,0,0-2.87-5.1-10.18-6.53-7.31-1.42-12.93,1.45-16.17,4.4-.86.78-1.3,1.53-1.45,2.24.07,2.17,5.11,4.14,5.11,4.14h0Z"/>
        <path class="cls-4" d="M24.2,36.11c-1.09-1.58-1.18-3.22.11-5.42s5.5-5.02,5.5-5.02l-8.52,3.97s-5.05,1.97-5.11,4.14c.15.71.59,1.46,1.45,2.24,3.24,2.95,8.86,5.83,16.17,4.4,7.31-1.42,10.18-6.53,10.18-6.53-3.37,3.03-7.85,4.27-11.93,4.53s-6.76-.73-7.84-2.31h0Z"/>
        <path class="cls-1" d="M21.29,29.63l8.52-3.97s2.42-1.29,2.42-2.58,0-.06,0-.09v-.09c0-1.28-2.42-2.58-2.42-2.58h0s-8.51-3.97-8.51-3.97c0,0-5.05-1.96-5.11-4.14-.4,1.98,1.47,3.68,3.02,5.14,2.07,1.95,2.98,3.89,2.97,5.63.02,1.74-.9,3.68-2.97,5.63-1.55,1.46-3.42,3.17-3.02,5.14.06-2.17,5.11-4.14,5.11-4.14h0Z"/>
      </g>
    </g>
    <g>
      <path class="cls-5" d="M37.01,23.86c0,.2.1.36.31.45.2.1.46.15.77.16.31,0,.62-.01.91-.04.3-.03.58-.06.84-.1.27-.04.42-.06.45-.06.03.57-.09.97-.34,1.21-.25.24-.76.35-1.52.35s-1.82-.21-2.31-.64c-.49-.43-.74-1.16-.74-2.21s.07-.97.2-1.33c.13-.36.33-.64.59-.83.26-.19.55-.33.86-.4s.69-.12,1.11-.12c.81,0,1.41.17,1.79.52.38.35.58.89.58,1.65s-.05.52-.17.69c-.11.17-.26.29-.44.35-.18.06-.4.1-.65.13s-.5.04-.75.02c-.25-.01-.51,0-.8.04-.29.03-.53.09-.73.17h0ZM36.96,22.83c.11-.08.29-.13.55-.16s.49-.04.71-.04c.22,0,.42-.05.58-.14.17-.09.25-.23.25-.42,0-.17-.13-.31-.4-.42-.37-.16-.74-.17-1.09-.04-.49.18-.69.58-.59,1.22h0Z"/>
      <path class="cls-5" d="M46.86,22.17v3.58c-.23.01-.43.01-.59,0-.16-.02-.32-.05-.47-.11-.15-.06-.25-.16-.33-.29s-.1-.3-.09-.51v-2.63c-.1-.48-.55-.67-1.34-.57-.41.05-.65.09-.72.12.02.11.03.24.03.39v2.69c0,.2-.03.37-.1.51s-.18.23-.33.29-.3.1-.46.11-.36.02-.59,0v-4.78c0-.43.69-.65,2.06-.69,1.94-.05,2.91.58,2.92,1.9h0Z"/>
      <path class="cls-5" d="M52,18.17c.1.07.22.12.37.14s.28.03.4.03.24.02.35.05.2.12.26.26.09.34.09.6v5.8s-.04.04-.09.11c-.05.07-.11.13-.15.17-.05.04-.13.1-.25.17s-.26.12-.41.16-.35.07-.61.11c-.25.03-.55.05-.86.05-1.01,0-1.73-.22-2.17-.65-.44-.44-.66-1.16-.66-2.18s.05-.75.16-1.06.24-.56.42-.76c.17-.2.38-.36.62-.49.24-.13.47-.22.72-.27s.49-.08.76-.08c.51,0,.86.08,1.08.24v-2.39h0ZM52,23.08v-1.4c-.09-.03-.18-.05-.28-.07-.1-.02-.23-.04-.38-.04-.15-.01-.29,0-.43,0s-.27.05-.42.12c-.15.07-.27.15-.37.26-.11.11-.19.26-.25.45s-.1.42-.1.68.04.47.12.65c.08.18.18.33.29.42s.25.17.42.22.32.08.45.09.28,0,.44-.01c.16-.02.27-.03.33-.04s.12-.03.17-.04h0s0-.43,0-1.3h0Z"/>
      <path class="cls-5" d="M54.87,23.02s-.01-.09-.02-.16c0-.07,0-.19.03-.38.02-.19.06-.37.11-.55.05-.17.15-.36.27-.58.13-.21.29-.39.49-.54.19-.15.45-.28.78-.38.33-.1.7-.15,1.12-.15s.56.02.82.07c.25.05.46.11.64.19s.34.18.48.29c.14.12.26.24.35.35s.17.25.23.41.11.29.14.41c.03.11.05.25.07.4.01.15.02.27.02.35v.3c0,.12,0,.19,0,.2,0,.11,0,.2-.01.29,0,.09-.03.22-.06.4s-.08.35-.14.49c-.06.15-.15.3-.28.47-.13.17-.28.31-.45.43s-.4.21-.68.29c-.28.08-.59.12-.94.12s-.68-.02-.96-.07-.52-.11-.72-.18c-.2-.07-.37-.18-.52-.31-.15-.13-.27-.27-.36-.4-.09-.14-.17-.31-.23-.51s-.1-.4-.13-.58-.05-.41-.07-.66h0ZM56.33,23.11c.02.23.05.41.08.55s.1.27.2.4.24.23.43.29.43.09.73.09.43-.04.59-.11c.16-.07.29-.15.36-.25.08-.09.14-.2.19-.33.05-.13.07-.23.08-.29s.01-.14.01-.22v-.26s0-.11-.01-.19c0-.09-.02-.16-.04-.22s-.04-.14-.07-.22c-.03-.09-.07-.16-.11-.22-.04-.06-.1-.13-.17-.19s-.15-.12-.23-.16c-.09-.04-.19-.08-.31-.1-.12-.03-.25-.04-.4-.04-.26,0-.49.04-.67.11-.18.07-.32.16-.4.25-.09.09-.15.22-.2.37s-.07.27-.07.36c0,.09,0,.19,0,.33v.08h0Z"/>
      <path class="cls-5" d="M65.41,20.29s0,.08,0,.21,0,.24,0,.36c-.01.11-.04.24-.08.37-.04.13-.12.24-.24.31s-.28.12-.47.12c-.27,0-.49.01-.64.03-.15.02-.29.07-.4.15s-.2.19-.24.33-.06.34-.06.59v3.15c-.12-.09-.27-.15-.47-.2-.19-.05-.36-.09-.49-.11s-.25-.1-.36-.23c-.11-.13-.16-.31-.16-.56v-2.63s0-.09,0-.16c0-.07.02-.16.04-.29s.05-.24.1-.36.11-.25.21-.38c.09-.13.2-.25.33-.35s.3-.18.51-.25.44-.1.69-.1h1.72,0Z"/>
      <path class="cls-5" d="M68.08,27.91c-.12-.09-.27-.14-.47-.15s-.36-.02-.49-.02-.25-.07-.36-.21c-.11-.14-.16-.37-.16-.69v-5.8s.04-.04.09-.11c.05-.07.11-.12.15-.16.05-.04.13-.09.25-.17.13-.07.26-.13.41-.17s.35-.07.61-.11c.25-.03.55-.05.86-.05,1.01,0,1.73.22,2.17.65.44.44.66,1.16.66,2.18s-.08.92-.24,1.28c-.16.36-.37.64-.64.83-.27.19-.55.33-.84.42s-.62.13-.95.13-.81-.05-1.08-.14v2.29h0ZM68.08,23v1.4c.11.03.22.06.34.08.12.02.27.04.45.05.18.01.35,0,.51-.06s.31-.13.45-.23.26-.25.35-.47c.09-.22.13-.47.13-.78s-.04-.47-.12-.65c-.08-.18-.18-.33-.29-.42s-.25-.17-.43-.22c-.18-.05-.33-.08-.44-.09s-.27,0-.44.02-.29.03-.33.04-.1.02-.18.04h0s0,.43,0,1.3h0Z"/>
      <path class="cls-5" d="M74.68,20.48c.32-.13.86-.2,1.61-.2s.68.06.94.19c.26.13.45.27.57.43.12.16.21.35.27.55.06.21.1.36.1.46,0,.1,0,.19,0,.26v3.58c-.98.13-1.47-.17-1.47-.91v-1.08c0-.98-.04-1.57-.14-1.78-.1-.21-.41-.33-.92-.34-.32,0-.64.06-.96.18v3.03c.01.39-.11.65-.37.77-.26.12-.63.17-1.11.14v-7.66c.12.09.27.14.47.15s.36.02.49.02.25.07.36.21c.11.14.16.37.16.69v1.32h0Z"/>
      <path class="cls-5" d="M79.83,19.73c-.15-.16-.23-.35-.23-.56s.08-.4.23-.56c.15-.15.34-.23.56-.23s.4.08.56.23c.15.15.23.34.23.56s-.08.4-.23.56c-.15.15-.34.23-.56.23s-.4-.07-.56-.23h0ZM81.11,21.27c0-.32-.05-.55-.16-.69-.11-.14-.22-.21-.36-.21s-.3,0-.49-.02c-.19-.02-.35-.07-.47-.15v5.55c.48.03.85-.02,1.11-.14s.38-.38.37-.77v-3.56h0Z"/>
      <path class="cls-5" d="M87.54,22.17v3.58c-.23.01-.43.01-.59,0-.16-.02-.32-.05-.47-.11s-.25-.16-.33-.29-.1-.3-.09-.51v-2.63c-.1-.48-.55-.67-1.34-.57-.41.05-.65.09-.72.12.02.11.03.24.03.39v2.69c0,.2-.03.37-.1.51s-.18.23-.33.29c-.15.06-.3.1-.46.11-.16.02-.36.02-.59,0v-4.78c0-.43.69-.65,2.06-.69,1.94-.05,2.91.58,2.92,1.9h0Z"/>
      <path class="cls-5" d="M89.33,21.67s0-.05,0-.08,0-.1,0-.19c0-.09.01-.18.03-.27.02-.09.05-.18.1-.29.05-.11.11-.2.2-.27s.19-.14.33-.19c.14-.05.31-.08.5-.08h.27c.17,0,.35,0,.53,0s.36.02.54.02c.18.01.36.04.53.08.17.05.33.1.49.17s.29.16.42.28c.13.12.24.26.33.42s.17.35.22.58c.05.23.08.49.08.78v1.08c0,.27-.03.51-.09.73-.06.22-.13.4-.22.54-.09.14-.2.26-.33.36-.13.11-.25.18-.37.23-.11.05-.25.09-.4.12-.15.03-.27.05-.35.05-.08,0-.18,0-.29,0h-1.36s-.05,0-.09,0c-.04,0-.11-.01-.22-.03-.11-.02-.21-.04-.31-.07-.1-.03-.21-.09-.33-.16-.12-.07-.22-.16-.31-.27-.09-.1-.16-.24-.22-.4-.06-.16-.09-.35-.09-.55,0-.36.05-.66.14-.91s.23-.44.42-.57c.19-.13.4-.23.62-.28s.51-.08.84-.08c.57,0,.96-.04,1.16-.11s.31-.19.31-.35c0-.22-.22-.37-.64-.45-.43-.08-.88-.09-1.36-.05-.48.05-.84.11-1.07.21h0ZM92.44,23.15s-.06.07-.11.12c-.05.05-.16.11-.33.18-.17.07-.35.11-.53.11-.32,0-.58.04-.78.12s-.3.19-.3.33.07.3.22.38.43.13.86.13.31,0,.41,0c.09,0,.18-.03.27-.07s.14-.09.17-.13c.03-.04.06-.12.08-.25.02-.13.04-.25.04-.37,0-.12,0-.3,0-.55h0Z"/>
    </g>
  </g>
</svg>