<?xml version="1.0" encoding="UTF-8"?>
<svg id="Layer_1" data-name="Layer 1" xmlns="http://www.w3.org/2000/svg" xmlns:xlink="http://www.w3.org/1999/xlink" viewBox="0 0 110 46">
  <defs>
    <style>
      .cls-1, .cls-2 {
        fill: #fff;
      }

      .cls-2, .cls-3, .cls-4 {
        fill-rule: evenodd;
      }

      .cls-5 {
        fill: #383367;
      }

      .cls-3 {
        fill: #e4007c;
      }

      .cls-4 {
        fill: url(#linear-gradient);
      }
    </style>
    <linearGradient id="linear-gradient" x1="61.62" y1="-533.57" x2="61.62" y2="-545.97" gradientTransform="translate(0 -515.48) scale(1 -1)" gradientUnits="userSpaceOnUse">
      <stop offset=".06" stop-color="#ffed2f"/>
      <stop offset=".1" stop-color="#fee222"/>
      <stop offset=".15" stop-color="#fed30f"/>
      <stop offset=".22" stop-color="#fdca04"/>
      <stop offset=".28" stop-color="#fdc700"/>
      <stop offset=".67" stop-color="#f08f34"/>
      <stop offset=".89" stop-color="#e96131"/>
      <stop offset="1" stop-color="#e1312e"/>
    </linearGradient>
  </defs>
  <path class="cls-3" d="M21.23,36.97c-.31,0-.61-.12-.73-.37-.18-.24-.24-.55-.12-.85l6.1-17.45h-7.08c-.49,0-.92-.43-.92-.92l-.06-7.44c0-.24.06-.49.24-.67s.43-.24.67-.24h20.5c.31,0,.61.12.73.37.18.24.24.55.12.85l-9.27,26.11c-.12.37-.49.61-.85.61h-9.33Z"/>
  <path class="cls-5" d="M41.49,8.72c-.37-.55-.98-.85-1.65-.85h-20.5c-.55,0-1.1.24-1.46.61-.37.37-.61.92-.61,1.46l.06,7.44c0,1.16.92,2.07,2.07,2.07h5.43l-5.55,15.92c-.24.61-.12,1.34.24,1.89.37.55,1.04.85,1.71.85h9.33c.85,0,1.65-.55,1.95-1.4l9.27-26.11c.18-.61.12-1.34-.31-1.89ZM39.53,10.19l-9.15,25.69h-8.85l6.53-18.67h-8.48v-7.02h19.95Z"/>
  <path class="cls-5" d="M92.73,25.2c0-.24-.06-1.4-.61-2.62-.18-.37-.37-.67-.55-.98.12-.31.18-.61.18-.92v-3.6c0-1.16-.92-2.14-2.14-2.14h-7.02c-.24,0-1.34.12-2.5.85-.49.31-.92.67-1.28,1.16-.67-.55-1.4-.98-2.2-1.34-1.04-.43-2.14-.67-3.29-.67s-2.26.24-3.29.67c-.43.18-.79.37-1.16.61-.31-.73-1.04-1.22-1.89-1.22h-4.45c-1.16,0-2.14.92-2.14,2.14v1.53c-.31-.43-.61-.85-.98-1.22-.79-.79-1.71-1.4-2.68-1.83-1.04-.43-2.14-.67-3.29-.67s-2.26.24-3.29.67c-.43.18-.85.43-1.28.67-.31-.79-1.1-1.28-1.95-1.28h-4.45c-.85,0-1.46.55-1.95,1.22-.18.24-.67.98-.67.98l-1.1-1.4c-.43-.55-1.04-.85-1.65-.85h-4.45c-1.16,0-2.14.92-2.14,2.14v12.75c0,1.16.92,2.14,2.14,2.14h4.45c1.16,0,2.14-.92,2.14-2.14v-.79c.18.06.43.12.61.12h0c.18,0,.37,0,.49-.06v.73c0,1.16.92,2.14,2.14,2.14h4.45c.92,0,1.71-.61,1.95-1.4.37.24.79.49,1.22.67,1.04.43,2.14.67,3.29.67s2.26-.24,3.29-.67c.37-.18.73-.31,1.04-.55.31.73,1.1,1.28,1.95,1.28h2.56c.49,0,2.14-.24,3.66-1.28.55-.37,1.04-.79,1.46-1.28l.06.06c.79.79,1.71,1.4,2.68,1.83,1.04.43,2.14.67,3.29.67s2.26-.24,3.29-.67c.67-.31,1.34-.67,1.89-1.1.12,1.04,1.04,1.83,2.07,1.83h7.02c.24,0,1.34-.12,2.5-.85.73-.49,1.34-1.1,1.77-1.83.49-.85.79-1.89.79-3.05v-1.1c0,.06,0,0,0,0Z"/>
  <path class="cls-4" d="M62.53,17.08h4.45v6.96c0,5.25-4.51,5.8-4.76,5.8h-2.56v-4.58h1.95s.85-.06.85-1.59l.06-6.59h0ZM87.55,21.66h-2.68s-.49-.06-.49-.49.55-.49.55-.49h4.76v-3.6h-6.89s-3.05.18-3.05,3.6c0,4.27,2.26,4.51,3.05,4.51h2.68s.49.06.49.49-.55.49-.55.49h-4.76v3.6h6.89s3.05-.18,3.05-3.6v-.92s-.06-3.6-3.05-3.6ZM39.84,20.68l-2.75-3.6h-4.45v12.75h4.45v-6.28l2.75,3.54,2.62-3.36v6.1h4.45v-12.75h-4.45l-2.62,3.6ZM59.79,23.43c0,3.48-2.87,6.35-6.35,6.35s-6.35-2.87-6.35-6.35,2.87-6.35,6.35-6.35c3.48,0,6.35,2.87,6.35,6.35ZM55.21,23.49c0-.98-.79-1.83-1.77-1.83s-1.83.79-1.83,1.83c0,.98.79,1.77,1.77,1.83,1.04-.06,1.83-.85,1.83-1.83ZM79.74,23.43c0,3.48-2.87,6.35-6.35,6.35s-6.35-2.87-6.35-6.35,2.87-6.35,6.35-6.35c3.48,0,6.35,2.87,6.35,6.35ZM75.16,23.49c0-.98-.79-1.83-1.77-1.83s-1.83.79-1.83,1.83c0,.98.79,1.77,1.77,1.83,1.04-.06,1.83-.85,1.83-1.83Z"/>
  <path id="Shape_3_copy_5" data-name="Shape 3 copy 5" class="cls-2" d="M52.83,24.71l1.77-.06-.61-.73.73.61.06-1.71.06,1.71.73-.67-.67.79,1.77.06-1.77.06.61.73-.73-.61-.12,1.77-.06-1.77-.67.67.67-.79-1.77-.06Z"/>
  <path id="Shape_3_copy_4" data-name="Shape 3 copy 4" class="cls-2" d="M30.57,17.08l1.89-.06-.67-.79.79.67.06-1.83.06,1.83.79-.73-.67.85,1.89.06-1.89.06.67.73-.79-.67-.12,1.89-.06-1.89-.85.73.73-.85h-1.83Z"/>
  <path id="Shape_3_copy_3" data-name="Shape 3 copy 3" class="cls-2" d="M66.99,19.1l1.65-.06-.61-.67.67.55.06-1.59.06,1.59.73-.61-.61.73,1.65.06-1.65.06.55.67-.67-.61-.12,1.65-.06-1.65-.73.67.61-.73-1.53-.06Z"/>
  <path class="cls-1" d="M21.35,12.02l-1.53-1.65c.06-.06.18-.12.31-.12l.79-.06h.24l-1.1-.06c-.12,0-.18-.06-.24-.12l1.53-1.65-1.65,1.59c-.06-.12-.06-.24-.12-.37v-.79.12-.31l-.12,1.16c0,.06-.06.12-.06.18l-1.65-1.59,1.53,1.65c-.06.06-.12.12-.24.12l-.85.06h-.24l1.16.06c.06.06.12.06.18.12l-1.53,1.65,1.65-1.53c.06.06.06.12.12.24l.06,1.1.06-1.04c0-.12.06-.18.12-.24l1.59,1.46Z"/>
</svg>