<svg width="100" height="80" viewBox="0 0 100 80" fill="none" xmlns="http://www.w3.org/2000/svg">
<g filter="url(#filter0_d_1534_37310)">
<path d="M59.6053 5L69.4477 8.06191C69.7092 11.528 69.8957 13.7543 70.0072 14.7408C70.6034 13.9045 71.2033 13.0683 71.836 12.2576C72.3777 11.574 72.9558 10.9232 73.6211 10.3561C75.2245 9.28716 77.0532 8.68362 78.9947 8.91995C80.6114 9.09023 83.278 10.5441 85.1971 12.2576C86.7608 13.6537 87.7478 15.3287 87.9241 15.7515C87.2515 16.635 86.6298 17.5766 86.019 18.5038C87.0479 18.5619 88.1851 18.4892 89.2141 18.5692C89.2433 18.6565 89.8082 20.4764 89.6767 22.3752C89.5191 24.6522 88.6094 27.1459 87.9241 28.2893C85.1971 32.8395 81.6052 33.5662 80.0821 33.8861L80.1748 33.8862C81.0933 33.8881 83.8783 33.9426 85.9608 35.4956C86.529 35.9194 87.4603 36.637 88.7545 37.6484C87.3913 39.1713 86.4601 40.1873 85.9608 40.6963C86.8079 40.7254 87.6514 40.7508 88.4949 40.7872C88.4673 41.646 88.3622 43.8239 87.9241 45.7771C87.4961 47.6854 86.7385 49.3718 86.4044 50.0401C85.9478 50.9586 84.5522 53.6517 82.1718 55.2174C79.6995 56.8437 76.2203 57.3183 74.6755 56.8608C71.9341 56.1373 69.4477 54.3085 68.8292 49.1058C68.7166 49.6929 68.5383 50.6541 68.3397 51.6407L68.2764 51.9526C68.0103 53.2526 67.7175 54.533 67.5022 54.9993C66.9277 54.6696 64.5972 53.3608 60.5106 51.0727V56.1362C58.5643 56.2993 57.2554 56.4221 56.584 56.5045C55.0389 56.6717 53.4864 56.7735 51.9303 56.8535C51.7012 56.3081 51.4722 55.7555 51.225 55.2174C49.2908 55.7337 45.1387 57.817 44.7752 57.9079C44.6831 57.7576 44.0039 56.5578 42.7377 54.3085H40.4086C40.2293 56.2354 40.0487 57.594 39.8669 58.3842C37.0201 57.3298 34.1038 56.25 31.337 54.9993C31.0657 54.856 31.244 53.8086 31.8719 51.8573C31.0721 53.1345 30.2547 53.9516 29.4197 54.3085C27.5718 55.0983 25.7912 55.1606 24.9168 55.2174C22.1254 55.3987 19.1966 55.0902 18.2052 55.0902C16.2667 53.0206 14.1194 49.42 12.9443 45.5936C11.6422 41.3537 11.4154 36.9567 11.4173 36.6643C11.9299 36.5152 12.4389 36.3661 12.9443 36.2025C13.7914 36.0033 16.141 35.6461 18.5406 35.3253L18.9408 35.2722C20.5895 35.0551 22.2237 34.8602 23.3732 34.7505C26.1291 34.8582 28.8954 35.0495 30.2577 35.4826C31.9956 36.0498 33.5407 37.2423 33.8316 39.1475C34.1225 41.0635 32.5876 43.6215 31.1003 44.9934C32.8921 45.3541 32.9597 47.0169 32.9623 47.6579L32.9624 47.7284C34.3607 43.7033 36.1148 39.0893 37.7509 35.9226C38.1328 35.1771 38.7977 34.0659 39.7457 32.5884C39.911 32.8306 40.0875 33.0873 40.2729 33.3558L40.5576 33.767C41.1881 34.6754 41.9033 35.6934 42.6336 36.7267L42.8939 37.0947L43.1547 37.463L43.4495 37.8788L43.5476 38.017L43.7431 38.2924C43.8082 38.384 43.8731 38.4753 43.9377 38.5663L44.1311 38.8382C45.0941 40.1922 45.9986 41.4576 46.6767 42.407L46.8093 42.5926C47.3054 43.2874 47.6619 43.7875 47.8032 43.9905C47.8044 43.9901 47.8056 43.9898 47.8069 43.9895L49.9493 47.1493L49.2852 43.2335C49.2936 43.1823 49.2847 43.1306 49.2586 43.0786L49.046 41.8303L47.8032 33.6195L48.0602 33.758C56.5022 38.3054 60.7662 40.5718 60.8521 40.5571L62.4267 31.8687C62.503 31.4761 62.5794 31.0834 62.6594 30.6907C65.7025 31.876 68.6983 33.1558 71.6978 34.4501C71.6287 35.3808 71.5487 36.3116 71.4906 37.2423C72.7594 36.2134 75.2934 34.6573 77.2368 34.2538C75.474 34.0522 71.6978 33.1776 70.2762 29.6488C70.147 29.7965 70.1735 30.1878 70.2123 30.5982L70.232 30.8039C70.271 31.2145 70.2983 31.6067 70.1708 31.756C68.9177 31.2173 66.8275 30.2161 63.9004 28.7525L63.496 28.55C62.677 28.1394 61.7957 27.6944 60.8521 27.215L59.5605 36.6772L54.1554 34.4501C53.4375 34.1442 52.5521 33.7617 51.4976 33.3025V30.8858C47.658 32.7675 45.0619 33.9387 43.7094 34.3992C43.4517 34.0241 42.8767 33.1677 41.9843 31.83L41.8186 31.5814C41.5365 31.1583 41.2253 30.6911 40.8849 30.1796C39.5543 30.3181 38.7217 30.4201 38.3872 30.4855C37.2553 33.3419 36.5148 35.1857 36.1657 36.0171C34.6872 35.5445 31.7776 34.6396 27.4369 33.3025C27.8824 31.8929 28.4555 30.4034 29.156 28.834C28.1853 30.4478 25.8245 32.2835 22.8906 33.3025C20.6283 34.0882 17.8768 34.3992 16.6927 34.5321L16.7128 34.53C13.9509 34.5864 11.4609 34.5986 11.1046 34.2938C10.9992 32.1523 10.941 30.0181 11.0901 27.8767C11.5918 23.8701 12.8243 20.0889 14.3768 16.3768C15.1694 14.7117 15.6747 12.8211 17.558 12.1049C20.5066 10.8651 24.0478 9.68345 27.2727 10.1016C28.1208 10.2061 29.9803 10.7766 30.6721 12.1049C31.3032 13.3162 30.8137 15.2752 30.6721 15.7515C30.3495 16.837 29.5701 18.0538 28.3341 19.4018C29.8128 20.6743 30.5522 22.3616 30.5522 24.4636C30.6721 23.3164 31.472 20.6888 31.8719 19.8417C32.3228 18.8855 32.7809 17.9329 33.2608 16.9913C33.7262 16.0823 34.2243 15.1916 34.7551 14.319C35.7949 12.672 36.9256 11.0832 38.0709 9.50894C38.7689 8.64727 39.5143 7.82195 40.2778 7.01846C40.6959 6.61125 41.1322 6.21859 41.5648 5.82593C41.7188 6.11358 43.1689 9.7033 46.2462 15.9653C46.2929 16.0603 46.3418 16.1591 46.3928 16.2617L46.5521 16.5806C47.4915 18.4517 49.0491 21.4088 51.225 25.452C51.2208 21.7059 51.2178 18.486 51.216 15.7922L51.2156 15.2424C51.2155 14.9712 51.2153 14.7057 51.2152 14.4458L51.2149 13.9335C51.2149 13.8494 51.2148 13.7659 51.2148 13.683L51.2146 13.1933C51.2146 13.1129 51.2145 13.0331 51.2145 12.954L51.2142 11.8141C51.2142 11.7412 51.2141 11.669 51.2141 11.5974V9.99868C51.2141 9.93707 51.2142 9.87609 51.2142 9.81574L51.2145 8.95733C51.2145 8.90323 51.2146 8.84976 51.2146 8.79691L51.2148 8.48734C51.2148 8.43699 51.2149 8.38727 51.2149 8.33818L51.2152 8.05113C51.2153 7.91135 51.2155 7.77721 51.2156 7.6487L51.216 7.39918C51.2178 6.22948 51.2208 5.58593 51.225 5.46854C51.6228 5.82696 53.8182 7.88154 55.9356 9.85242L56.1997 10.0982C58.0878 11.8548 59.8507 13.4846 60.1398 13.7082C60.1412 13.6424 60.142 13.5722 60.1423 13.4977L60.1421 13.3428C60.1342 11.9231 59.9553 9.14219 59.6053 5Z" fill="#CCCCCC"/>
</g>
<path d="M59.6053 5L69.4477 8.06191C69.7092 11.528 69.8957 13.7543 70.0072 14.7408C70.6034 13.9045 71.2033 13.0683 71.836 12.2576C72.3777 11.574 72.9558 10.9232 73.6211 10.3561C75.2245 9.28716 77.0532 8.68362 78.9947 8.91995C80.6114 9.09023 83.278 10.5441 85.1971 12.2576C86.7608 13.6537 87.7478 15.3287 87.9241 15.7515C87.2515 16.635 86.6298 17.5766 86.019 18.5038C87.0479 18.5619 88.1851 18.4892 89.2141 18.5692C89.2433 18.6565 89.8082 20.4764 89.6767 22.3752C89.5191 24.6522 88.6094 27.1459 87.9241 28.2893C85.1971 32.8395 81.6052 33.5662 80.0821 33.8861L80.1748 33.8862C81.0933 33.8881 83.8783 33.9426 85.9608 35.4956C86.529 35.9194 87.4603 36.637 88.7545 37.6484C87.3913 39.1713 86.4601 40.1873 85.9608 40.6963C86.8079 40.7254 87.6514 40.7508 88.4949 40.7872C88.4673 41.646 88.3622 43.8239 87.9241 45.7771C87.4961 47.6854 86.7385 49.3718 86.4044 50.0401C85.9478 50.9586 84.5522 53.6517 82.1718 55.2174C79.6995 56.8437 76.2203 57.3183 74.6755 56.8608C71.9341 56.1373 69.4477 54.3085 68.8292 49.1058C68.7166 49.6929 68.5383 50.6541 68.3397 51.6407L68.2764 51.9526C68.0103 53.2526 67.7175 54.533 67.5022 54.9993C66.9277 54.6696 64.5972 53.3608 60.5106 51.0727V56.1362C58.5643 56.2993 57.2554 56.4221 56.584 56.5045C55.0389 56.6717 53.4864 56.7735 51.9303 56.8535C51.7012 56.3081 51.4722 55.7555 51.225 55.2174C49.2908 55.7337 45.1387 57.817 44.7752 57.9079C44.6831 57.7576 44.0039 56.5578 42.7377 54.3085H40.4086C40.2293 56.2354 40.0487 57.594 39.8669 58.3842C37.0201 57.3298 34.1038 56.25 31.337 54.9993C31.0657 54.856 31.244 53.8086 31.8719 51.8573C31.0721 53.1345 30.2547 53.9516 29.4197 54.3085C27.5718 55.0983 25.7912 55.1606 24.9168 55.2174C22.1254 55.3987 19.1966 55.0902 18.2052 55.0902C16.2667 53.0206 14.1194 49.42 12.9443 45.5936C11.6422 41.3537 11.4154 36.9567 11.4173 36.6643C11.9299 36.5152 12.4389 36.3661 12.9443 36.2025C13.7914 36.0033 16.141 35.6461 18.5406 35.3253L18.9408 35.2722C20.5895 35.0551 22.2237 34.8602 23.3732 34.7505C26.1291 34.8582 28.8954 35.0495 30.2577 35.4826C31.9956 36.0498 33.5407 37.2423 33.8316 39.1475C34.1225 41.0635 32.5876 43.6215 31.1003 44.9934C32.8921 45.3541 32.9597 47.0169 32.9623 47.6579L32.9624 47.7284C34.3607 43.7033 36.1148 39.0893 37.7509 35.9226C38.1328 35.1771 38.7977 34.0659 39.7457 32.5884C39.911 32.8306 40.0875 33.0873 40.2729 33.3558L40.5576 33.767C41.1881 34.6754 41.9033 35.6934 42.6336 36.7267L42.8939 37.0947L43.1547 37.463L43.4495 37.8788L43.5476 38.017L43.7431 38.2924C43.8082 38.384 43.8731 38.4753 43.9377 38.5663L44.1311 38.8382C45.0941 40.1922 45.9986 41.4576 46.6767 42.407L46.8093 42.5926C47.3054 43.2874 47.6619 43.7875 47.8032 43.9905C47.8044 43.9901 47.8056 43.9898 47.8069 43.9895L49.9493 47.1493L49.2852 43.2335C49.2936 43.1823 49.2847 43.1306 49.2586 43.0786L49.046 41.8303L47.8032 33.6195L48.0602 33.758C56.5022 38.3054 60.7662 40.5718 60.8521 40.5571L62.4267 31.8687C62.503 31.4761 62.5794 31.0834 62.6594 30.6907C65.7025 31.876 68.6983 33.1558 71.6978 34.4501C71.6287 35.3808 71.5487 36.3116 71.4906 37.2423C72.7594 36.2134 75.2934 34.6573 77.2368 34.2538C75.474 34.0522 71.6978 33.1776 70.2762 29.6488C70.147 29.7965 70.1735 30.1878 70.2123 30.5982L70.232 30.8039C70.271 31.2145 70.2983 31.6067 70.1708 31.756C68.9177 31.2173 66.8275 30.2161 63.9004 28.7525L63.496 28.55C62.677 28.1394 61.7957 27.6944 60.8521 27.215L59.5605 36.6772L54.1554 34.4501C53.4375 34.1442 52.5521 33.7617 51.4976 33.3025V30.8858C47.658 32.7675 45.0619 33.9387 43.7094 34.3992C43.4517 34.0241 42.8767 33.1677 41.9843 31.83L41.8186 31.5814C41.5365 31.1583 41.2253 30.6911 40.8849 30.1796C39.5543 30.3181 38.7217 30.4201 38.3872 30.4855C37.2553 33.3419 36.5148 35.1857 36.1657 36.0171C34.6872 35.5445 31.7776 34.6396 27.4369 33.3025C27.8824 31.8929 28.4555 30.4034 29.156 28.834C28.1853 30.4478 25.8245 32.2835 22.8906 33.3025C20.6283 34.0882 17.8768 34.3992 16.6927 34.5321L16.7128 34.53C13.9509 34.5864 11.4609 34.5986 11.1046 34.2938C10.9992 32.1523 10.941 30.0181 11.0901 27.8767C11.5918 23.8701 12.8243 20.0889 14.3768 16.3768C15.1694 14.7117 15.6747 12.8211 17.558 12.1049C20.5066 10.8651 24.0478 9.68345 27.2727 10.1016C28.1208 10.2061 29.9803 10.7766 30.6721 12.1049C31.3032 13.3162 30.8137 15.2752 30.6721 15.7515C30.3495 16.837 29.5701 18.0538 28.3341 19.4018C29.8128 20.6743 30.5522 22.3616 30.5522 24.4636C30.6721 23.3164 31.472 20.6888 31.8719 19.8417C32.3228 18.8855 32.7809 17.9329 33.2608 16.9913C33.7262 16.0823 34.2243 15.1916 34.7551 14.319C35.7949 12.672 36.9256 11.0832 38.0709 9.50894C38.7689 8.64727 39.5143 7.82195 40.2778 7.01846C40.6959 6.61125 41.1322 6.21859 41.5648 5.82593C41.7188 6.11358 43.1689 9.7033 46.2462 15.9653C46.2929 16.0603 46.3418 16.1591 46.3928 16.2617L46.5521 16.5806C47.4915 18.4517 49.0491 21.4088 51.225 25.452C51.2208 21.7059 51.2178 18.486 51.216 15.7922L51.2156 15.2424C51.2155 14.9712 51.2153 14.7057 51.2152 14.4458L51.2149 13.9335C51.2149 13.8494 51.2148 13.7659 51.2148 13.683L51.2146 13.1933C51.2146 13.1129 51.2145 13.0331 51.2145 12.954L51.2142 11.8141C51.2142 11.7412 51.2141 11.669 51.2141 11.5974V9.99868C51.2141 9.93707 51.2142 9.87609 51.2142 9.81574L51.2145 8.95733C51.2145 8.90323 51.2146 8.84976 51.2146 8.79691L51.2148 8.48734C51.2148 8.43699 51.2149 8.38727 51.2149 8.33818L51.2152 8.05113C51.2153 7.91135 51.2155 7.77721 51.2156 7.6487L51.216 7.39918C51.2178 6.22948 51.2208 5.58593 51.225 5.46854C51.6228 5.82696 53.8182 7.88154 55.9356 9.85242L56.1997 10.0982C58.0878 11.8548 59.8507 13.4846 60.1398 13.7082C60.1412 13.6424 60.142 13.5722 60.1423 13.4977L60.1421 13.3428C60.1342 11.9231 59.9553 9.14219 59.6053 5Z" fill="#CCCCCC"/>
<path d="M61.2353 7.13818C63.5658 7.70899 65.7981 8.6761 68.1032 9.35235C68.4413 16.0239 68.7503 22.7064 68.9212 29.3816C65.7472 28 62.7295 26.3131 59.501 25.0478C58.9956 28.1564 58.6575 31.2868 58.1812 34.3989C56.3997 33.6463 54.6437 32.8174 52.8912 31.9921C52.7094 28.7599 52.8222 25.5532 52.7967 22.3174C52.8258 17.9181 52.724 13.5116 52.8621 9.11239C55.8653 11.8574 58.792 14.8605 61.9697 17.4128C61.9842 13.9625 61.3625 10.574 61.2353 7.13818Z" fill="white"/>
<path d="M41.1578 8.3667C44.51 15.3037 47.644 22.2879 51.4979 28.9886C49.0874 30.2175 46.6005 31.2718 44.1537 32.4244C43.5683 31.3482 43.0411 30.1957 42.3103 29.2104C42.1322 28.945 41.885 28.8105 41.5687 28.8032C40.078 28.745 38.5728 28.9922 37.0822 29.0904C36.5586 30.8246 35.9514 32.5298 35.3843 34.2532C33.3119 33.5951 31.2359 32.9516 29.1562 32.3153C29.4871 30.6865 29.8434 29.0722 30.4033 27.5089C32.3593 21.6517 34.9734 16.0236 38.7146 11.0826C39.4563 10.1155 40.2707 9.20292 41.1578 8.3667Z" fill="white"/>
<path d="M79.9224 10.534C82.6492 11.3956 84.4671 13.2935 86.3104 15.3586C85.4669 16.7256 84.598 18.0781 83.7072 19.4161C82.7801 18.718 81.6639 17.6891 80.4823 17.5546C79.2171 17.5873 78.3409 18.5544 77.7882 19.5979C76.9738 21.2158 76.563 23.2518 77.0356 25.0296C77.2538 25.8113 77.7737 26.5094 78.6681 26.4621C80.0315 26.3603 81.1986 25.1351 82.1511 24.2552C81.2713 24.3061 80.3987 24.4079 79.5225 24.4843C79.5443 23.1827 79.5443 21.8847 79.5334 20.5868C82.4093 20.2923 85.2851 20.0378 88.1792 20.0123C88.2882 21.8666 88.2955 23.6553 87.5902 25.4078C86.0377 29.5416 82.1184 32.821 77.5665 32.712C74.8833 32.7338 72.6364 30.6905 71.4802 28.4218C69.7605 24.9497 69.7896 20.7686 70.9385 17.1256C71.6547 14.875 72.9054 12.6209 74.9051 11.272C76.403 10.2649 78.1954 9.99951 79.9224 10.534Z" fill="white"/>
<path d="M27.3102 11.5592C28.5209 11.7591 29.4117 12.6608 29.2917 13.9369C29.0808 15.8857 27.6629 17.7981 26.6012 19.3978C27.9828 20.9903 29.5207 22.5936 29.4117 24.866C29.3099 27.2219 27.3647 29.0471 25.496 30.225C21.573 32.5992 16.9629 33.6026 12.3964 33.2245C12.0583 26.7493 13.8434 20.6194 16.6938 14.8677C17.301 13.5697 18.4644 13.2643 19.6933 12.7735C22.0384 11.9446 24.8124 11.1483 27.3102 11.5592Z" fill="white"/>
<path d="M20.6801 16.2677C21.5236 15.8823 22.6652 16.0714 23.5705 16.0859C23.236 16.704 22.9924 17.6093 22.418 18.042C21.6799 18.4274 20.7092 18.4346 19.8984 18.5692C20.1311 17.802 20.3347 16.9912 20.6801 16.2677Z" fill="#CCCCCC"/>
<path d="M39.9174 19.4023C40.4809 20.9112 40.8845 22.5 41.2299 24.0706C40.2809 24.0634 39.3356 24.0488 38.3867 24.0488C38.9066 22.5036 39.3538 20.933 39.9174 19.4023Z" fill="#CCCCCC"/>
<path d="M23.1702 24.1136C22.7521 24.8517 22.374 25.9024 21.6469 26.3859C20.6688 26.9495 19.36 27.0295 18.2656 27.2149C18.4801 26.3569 18.5274 25.2298 19.04 24.4954C20.3598 23.5137 21.6832 23.6919 23.1702 24.1136Z" fill="#CCCCCC"/>
<path d="M63.8416 32.8394C66.0521 33.2902 68.1718 34.5336 70.2769 35.3807C69.1025 41.2016 67.9573 47.0333 66.7138 52.8395C64.1906 51.4616 61.7365 49.971 59.1515 48.7057C59.1151 50.6763 59.0315 52.6469 58.9443 54.6174C56.9664 54.9192 54.9813 55.1882 52.9889 55.3591C52.0109 49.0438 50.942 42.754 49.8477 36.4569C54.0506 38.5838 58.0681 41.0707 62.2891 43.1503C62.9218 39.7327 63.1399 36.2388 63.8416 32.8394Z" fill="white"/>
<path d="M40.0077 34.6573C41.5675 36.9224 42.9854 39.2856 44.4906 41.5871C46.912 45.3828 49.4425 49.1639 51.5403 53.1487C49.4898 54.1849 47.4247 55.1774 45.3305 56.1227C44.6615 55.032 43.9925 53.9377 43.3381 52.836C41.9238 52.836 40.5131 52.8615 39.0988 52.8869C39.0043 54.0649 38.917 55.2429 38.837 56.4209C36.761 55.5047 34.4814 54.9157 32.5036 53.8068C32.22 53.305 32.569 52.4906 32.6563 51.9489C33.8743 47.5606 35.7467 43.2559 37.6918 39.1475C38.4117 37.6314 39.1461 36.0971 40.0077 34.6573Z" fill="white"/>
<path d="M79.035 35.1481C81.8745 35.1773 84.2123 36.3662 86.5356 37.875C85.2776 39.3111 83.9578 40.6818 82.6344 42.0561C81.6891 41.4635 80.5511 40.5582 79.4095 40.5036C78.177 40.5582 77.2499 41.4708 76.6354 42.4597C75.7774 43.8776 75.2902 45.6446 75.5156 47.2988C75.6393 48.0333 76.0246 48.8513 76.8863 48.8513C78.2243 48.9095 79.5549 47.6224 80.5548 46.8444C79.5586 46.9425 78.566 47.0807 77.5735 47.2079C77.7443 45.95 77.908 44.692 78.057 43.4341C81.0638 43.0014 84.0342 42.5797 87.0555 42.3033C86.8773 46.6917 84.834 51.3309 81.3219 54.054C79.0859 55.8065 75.981 56.2537 73.4833 54.7739C71.4945 53.5705 70.4038 51.4145 70.0293 49.1749C69.4258 45.3646 70.2838 41.2417 72.7598 38.224C74.3049 36.3444 76.5773 35.1337 79.035 35.1481Z" fill="white"/>
<path d="M23.0257 36.2317C25.4944 36.1736 28.3848 36.199 30.6717 37.2388C31.8242 37.7551 32.6677 38.744 32.4714 40.0747C32.1732 42.0235 30.4135 43.7904 29.1519 45.2156C30.2645 46.1319 31.5951 46.979 31.7987 48.5351C31.9551 50.2039 30.7953 51.5491 29.4355 52.3417C26.8796 53.8469 23.7165 53.8578 20.8406 53.716C19.7826 53.5815 18.7646 53.6906 18.0993 52.7089C15.0125 48.4042 13.3546 42.9288 12.8711 37.6933C16.216 36.9116 19.5899 36.359 23.0257 36.2317Z" fill="white"/>
<path d="M22.3678 42.7033C23.2222 42.5761 24.0584 42.6124 24.9165 42.6379C24.7456 43.2269 24.6438 43.8631 24.3856 44.4194C23.8403 44.9357 22.8986 45.0847 22.2188 45.3683C22.2369 44.4776 22.2406 43.5832 22.3678 42.7033Z" fill="#CCCCCC"/>
<path d="M40.7178 45.5938C41.2195 46.5427 41.6303 47.5389 42.063 48.5205C41.2777 48.7205 40.4924 48.9095 39.707 49.1059C40.0161 47.9279 40.3287 46.7463 40.7178 45.5938Z" fill="#CCCCCC"/>
<path d="M22.6406 48.495C23.8041 48.2914 24.9457 48.4004 26.1091 48.5422C25.9382 49.0185 25.9201 49.942 25.4147 50.1892C24.6257 50.4219 23.7568 50.4474 22.9388 50.5274C22.8879 49.8402 22.7388 49.1749 22.6406 48.495Z" fill="#CCCCCC"/>
<g filter="url(#filter1_d_1534_37310)">
<path d="M30.0508 60.0308C31.7487 60.4743 33.0685 61.4596 34.4937 62.4231C34.3592 63.1684 34.3192 63.9101 34.2865 64.6627C34.9151 63.3635 35.7028 61.7904 36.6497 59.9435H42.0633C43.234 62.2219 44.1223 63.8871 44.7283 64.939C44.841 63.3429 44.9174 61.7505 44.9501 60.1507C46.7207 60.1071 48.5495 59.9144 50.3164 60.118C50.8642 60.1544 51.5768 60.6064 52.4542 61.4742C53.2856 60.5264 54.0225 60.0562 54.6648 60.0635C55.74 60.0029 60.062 59.9435 68.4392 59.9435C68.878 59.9435 69.6044 60.0695 70.6184 60.3216C73.5552 59.607 76.0815 59.607 78.1975 60.3216C79.9127 60.9009 81.0487 61.7771 81.6056 62.9503L79.7841 65.2262C80.9028 66.1434 81.5099 67.136 81.6056 68.2039C81.8766 71.2296 80.6388 72.3717 79.3935 73.102C77.1833 74.3981 73.0416 73.8542 72.2763 73.7957C69.9312 73.6102 67.5862 73.8866 65.2193 73.8357C62.8682 73.7969 59.3428 73.7981 54.643 73.8393L52.516 72.8358L49.9856 73.8575L42.2778 73.8466L39.5401 72.8358L37.2278 73.8029C35.2814 73.7981 33.8259 73.8017 32.8613 73.8138C30.6653 73.8029 28.4729 74.0793 26.2987 73.9775C25.6935 73.7946 23.9533 73.326 22.6863 72.0178C21.4341 70.7247 20.652 68.5974 20.5586 67.484C20.3678 65.2097 21.0674 63.6156 22.2194 62.2922C22.8012 61.7105 23.239 61.3396 23.9116 60.8597C25.8458 59.9835 27.9639 59.4999 30.0508 60.0308Z" fill="#CCCCCC"/>
</g>
<path d="M30.0508 60.0308C31.7487 60.4743 33.0685 61.4596 34.4937 62.4231C34.3592 63.1684 34.3192 63.9101 34.2865 64.6627C34.9151 63.3635 35.7028 61.7904 36.6497 59.9435H42.0633C43.234 62.2219 44.1223 63.8871 44.7283 64.939C44.841 63.3429 44.9174 61.7505 44.9501 60.1507C46.7207 60.1071 48.5495 59.9144 50.3164 60.118C50.8642 60.1544 51.5768 60.6064 52.4542 61.4742C53.2856 60.5264 54.0225 60.0562 54.6648 60.0635C55.74 60.0029 60.062 59.9435 68.4392 59.9435C68.878 59.9435 69.6044 60.0695 70.6184 60.3216C73.5552 59.607 76.0815 59.607 78.1975 60.3216C79.9127 60.9009 81.0487 61.7771 81.6056 62.9503L79.7841 65.2262C80.9028 66.1434 81.5099 67.136 81.6056 68.2039C81.8766 71.2296 80.6388 72.3717 79.3935 73.102C77.1833 74.3981 73.0416 73.8542 72.2763 73.7957C69.9312 73.6102 67.5862 73.8866 65.2193 73.8357C62.8682 73.7969 59.3428 73.7981 54.643 73.8393L52.516 72.8358L49.9856 73.8575L42.2778 73.8466L39.5401 72.8358L37.2278 73.8029C35.2814 73.7981 33.8259 73.8017 32.8613 73.8138C30.6653 73.8029 28.4729 74.0793 26.2987 73.9775C25.6935 73.7946 23.9533 73.326 22.6863 72.0178C21.4341 70.7247 20.652 68.5974 20.5586 67.484C20.3678 65.2097 21.0674 63.6156 22.2194 62.2922C22.8012 61.7105 23.239 61.3396 23.9116 60.8597C25.8458 59.9835 27.9639 59.4999 30.0508 60.0308Z" fill="#CCCCCC"/>
<path d="M32.2854 63.0378C31.6491 63.754 31.0347 64.4848 30.4421 65.2374C29.4204 64.9284 28.0425 64.2521 27.0063 64.7866C25.392 65.5646 25.3302 68.1823 26.8754 69.0658C27.6171 69.5057 28.3879 69.4221 29.2023 69.284C29.824 68.3169 28.2206 68.2078 27.6971 67.6552C27.5989 67.1025 27.5844 66.5244 27.5553 65.9645C29.2096 65.9864 30.8638 65.9864 32.5181 65.9754C32.5145 67.5497 32.7653 69.3203 32.329 70.8437C29.8131 72.847 25.3084 72.7634 23.3051 70.0402C21.5163 67.6661 22.1453 64.0667 24.6831 62.4888C27.1699 60.9727 29.9549 61.5071 32.2854 63.0378Z" fill="white"/>
<path d="M79.1977 62.937C78.656 63.6823 78.1179 64.4276 77.5871 65.1802C76.1655 64.6058 75.0621 63.8867 73.3188 64.5112C74.4814 65.0384 74.4814 65.0384 75.0621 65.3065C76.2619 65.7682 77.3435 65.8237 78.3688 66.6018C79.8049 67.6125 79.6595 70.0339 78.3724 71.1028C77.1217 72.2044 75.1439 72.3244 73.5696 72.1281C72.0826 71.9681 70.861 71.3028 69.5703 70.6047C70.1738 69.8921 70.7628 69.1686 71.3373 68.4306C73.017 69.0414 74.4313 70.063 76.1655 68.9796C74.5367 68.3033 72.4644 68.107 71.0537 67.0417C69.4794 65.6201 70.1738 63.0278 71.9735 62.1553C74.3949 61.09 76.9872 61.6463 79.1977 62.937Z" fill="white"/>
<path d="M46.6732 61.8201C47.8693 61.8419 49.0655 61.8455 50.2616 61.831C50.9561 63.0053 51.6723 64.1615 52.4249 65.2958C53.1775 64.1324 53.9083 62.958 54.6391 61.7837C55.8243 61.831 57.0096 61.8528 58.1948 61.8528C58.1621 65.2413 58.1766 68.6334 58.1839 72.0219C57.0459 72.0001 55.9116 72.0001 54.7736 72.0219C54.7736 70.4367 54.7663 68.8552 54.6791 67.2737C53.8865 68.328 53.1521 69.4187 52.4067 70.5058C51.6323 69.4224 50.8724 68.3317 50.0835 67.2591C50.0326 68.8443 50.0071 70.4331 49.9672 72.0219C48.8837 72.0074 47.7966 72.0074 46.7132 72.0183C46.5823 68.6189 46.6223 65.2231 46.6732 61.8201Z" fill="white"/>
<path d="M60.0599 61.8415C62.9685 61.7942 65.8734 61.7797 68.782 61.8597C68.7784 62.765 68.7784 63.6666 68.782 64.5683C67.0114 64.6156 65.2445 64.6337 63.4739 64.6083C63.4593 64.9391 63.4411 65.27 63.4266 65.6008C65.0881 65.6408 66.746 65.6481 68.4039 65.659C68.4039 66.4625 68.4039 67.266 68.4075 68.0695C66.7497 68.0877 65.0954 68.095 63.4375 68.1459C63.4411 68.4913 63.4411 68.833 63.4448 69.1748C65.2408 69.1675 67.0369 69.182 68.8293 69.2439C68.8184 70.1673 68.8148 71.0908 68.8111 72.0143C65.9025 72.0034 62.9903 71.9961 60.0817 72.0179C60.0054 68.6258 60.0308 65.2373 60.0599 61.8415Z" fill="white"/>
<path fill-rule="evenodd" clip-rule="evenodd" d="M41.1528 61.6816H37.8591L33.5469 72.0253H37.0913L37.8591 70.7128H41.1528L42.0618 72.018C43.6251 72.0108 44.7813 72.0132 45.5303 72.0253C44.5656 69.7227 43.1064 66.2748 41.1528 61.6816ZM40.6411 68.2041L39.539 65.3054L38.4883 68.2041H40.6411Z" fill="white"/>
<defs>
<filter id="filter0_d_1534_37310" x="7.02717" y="2.35145" width="86.641" height="61.3298" filterUnits="userSpaceOnUse" color-interpolation-filters="sRGB">
<feFlood flood-opacity="0" result="BackgroundImageFix"/>
<feColorMatrix in="SourceAlpha" type="matrix" values="0 0 0 0 0 0 0 0 0 0 0 0 0 0 0 0 0 0 127 0" result="hardAlpha"/>
<feOffset dy="1.32428"/>
<feGaussianBlur stdDeviation="1.98641"/>
<feColorMatrix type="matrix" values="0 0 0 0 0 0 0 0 0 0 0 0 0 0 0 0 0 0 0.455556 0"/>
<feBlend mode="normal" in2="BackgroundImageFix" result="effect1_dropShadow_1534_37310"/>
<feBlend mode="normal" in="SourceGraphic" in2="effect1_dropShadow_1534_37310" result="shape"/>
</filter>
<filter id="filter1_d_1534_37310" x="16.5545" y="57.1371" width="69.0628" height="22.16" filterUnits="userSpaceOnUse" color-interpolation-filters="sRGB">
<feFlood flood-opacity="0" result="BackgroundImageFix"/>
<feColorMatrix in="SourceAlpha" type="matrix" values="0 0 0 0 0 0 0 0 0 0 0 0 0 0 0 0 0 0 127 0" result="hardAlpha"/>
<feOffset dy="1.32428"/>
<feGaussianBlur stdDeviation="1.98641"/>
<feColorMatrix type="matrix" values="0 0 0 0 0 0 0 0 0 0 0 0 0 0 0 0 0 0 0.455556 0"/>
<feBlend mode="normal" in2="BackgroundImageFix" result="effect1_dropShadow_1534_37310"/>
<feBlend mode="normal" in="SourceGraphic" in2="effect1_dropShadow_1534_37310" result="shape"/>
</filter>
</defs>
</svg>
