<?xml version="1.0" encoding="UTF-8"?>
<svg id="Layer_1" data-name="Layer 1" xmlns="http://www.w3.org/2000/svg" viewBox="0 0 110 46">
  <defs>
    <style>
      .cls-1 {
        fill: #fff;
      }

      .cls-2 {
        fill: #ffdf00;
      }
    </style>
  </defs>
  <g>
    <path class="cls-1" d="M9.43,13.76c0-.55.43-1.03,1.25-1.1.55-.1,1.13-.14,1.65-.14,3.96,0,6.14,1.89,6.14,5.13,0,3.62-2.16,5.18-5.8,5.18-.38,0-.77-.05-1.13-.12v5.99c0,.58-.46,1.06-1.05,1.06s-1.05-.46-1.05-1.06v-14.94ZM11.54,20.9c.38.12.89.14,1.25.14,2.33,0,3.5-1.41,3.5-3.4s-1.17-3.36-3.5-3.36c-.36,0-.84,0-1.25.12v6.5Z"/>
    <path class="cls-1" d="M23.8,28.29c-.58.96-1.61,1.46-2.88,1.46-2.52,0-3.96-1.89-3.96-4.32s1.41-4.32,4.03-4.32c1.27,0,2.21.53,2.76,1.29v-.34c0-.53.38-.96.98-.96.5,0,.91.31.91.96v6.71c0,.65-.38.96-.91.96s-.94-.29-.94-.96v-.5ZM23.73,25.43c0-1.41-.84-2.61-2.37-2.61s-2.4,1.17-2.4,2.64.89,2.59,2.37,2.59,2.4-1.2,2.4-2.61Z"/>
    <path class="cls-1" d="M30.27,27.09c0,.84.38.96.7.96s.5-.12.62-.17c.43-.14.79.36.79.84,0,.24-.1.5-.31.62-.41.24-.86.41-1.61.41-1.39,0-2.11-.62-2.11-2.37v-4.36h-.62c-.5,0-.82-.29-.82-.82s.34-.82.82-.82h.62v-1.15c0-.67.48-1.03.96-1.03s.96.36.96,1.03v1.15h1.1c.55,0,.84.36.84.82,0,.55-.34.82-.86.82h-1.08v4.08Z"/>
    <path class="cls-1" d="M35.43,25.91c.07,1.32,1.05,2.35,2.73,2.35.98,0,1.65-.29,2.25-.65.62-.31,1.17.14,1.17.65,0,.24-.12.48-.38.65-.74.5-1.94.84-3.24.84-3.21,0-4.58-2.04-4.58-4.27s1.46-4.36,4.24-4.36c2.64,0,4.12,1.8,4.12,3.93,0,.48-.31.86-1.01.86h-5.32ZM39.91,24.62c-.1-1.03-.84-2.04-2.23-2.04s-2.13,1.01-2.23,2.04h4.46Z"/>
    <path class="cls-1" d="M43.6,22.1c0-.55.41-.98.96-.98.43,0,.91.29.91.98v.65c.53-.96,1.58-1.63,2.83-1.63,2.45,0,3.98,1.89,3.98,4.32s-1.53,4.34-3.96,4.34c-1.17,0-2.21-.6-2.81-1.61v4.89c0,.72-.48.98-.96.98s-.96-.29-.96-.98v-10.96ZM50.32,25.46c0-1.63-1.01-2.61-2.4-2.61s-2.4,1.2-2.4,2.64.98,2.59,2.4,2.59,2.4-1.01,2.4-2.61Z"/>
    <path class="cls-1" d="M53.86,12.89c0-.7.43-1.01.94-1.01s.98.31.98,1.01v14.1c0,.72.07,1.13.67,1.17.29.02.5.19.5.79s-.31.79-.98.79c-1.65,0-2.11-1.06-2.11-2.49v-14.36Z"/>
    <path class="cls-1" d="M64.63,28.29c-.58.96-1.61,1.46-2.88,1.46-2.52,0-3.96-1.89-3.96-4.32s1.41-4.32,4.03-4.32c1.27,0,2.21.53,2.76,1.29v-.34c0-.53.38-.96.98-.96.5,0,.91.31.91.96v6.71c0,.65-.38.96-.91.96s-.94-.29-.94-.96v-.5ZM64.56,25.43c0-1.41-.84-2.61-2.37-2.61s-2.4,1.17-2.4,2.64.89,2.59,2.37,2.59,2.4-1.2,2.4-2.61Z"/>
    <path class="cls-1" d="M70.91,29.01l-2.78-6.31c-.07-.17-.22-.41-.22-.67,0-.5.41-.91.91-.91s.77.43.96.91l2.21,5.25,2.18-5.25c.19-.48.48-.91.98-.91s.86.36.86.84c0,.29-.1.58-.19.74l-4.68,10.17c-.38.79-.72,1.25-1.22,1.25s-.94-.38-.94-.89c0-.31.26-.77.34-.96l1.58-3.26Z"/>
  </g>
  <g id="LOGO">
    <g>
      <path class="cls-2" d="M81.29,21.06h-2.24c-.66,0-1.19.53-1.19,1.19h0c0,.69.56,1.25,1.25,1.25h2.28c.81,4.83,6.34,8.09,11.67,4.85,1.64-1,2.97-3.4,2.97-5.32v-1.97h-14.75Z"/>
      <path class="cls-2" d="M97.94,17.45c-.86-3.97-5.56-6.53-10.01-3.56-1.36.91-2.16,2.45-2.16,4.08v2.08h13.42c.76,0,1.37-.61,1.37-1.37h0c0-.68-.55-1.23-1.23-1.23h-1.39ZM93.88,18.2c-.57,0-1.04-.46-1.04-1.04s.46-1.04,1.04-1.04,1.04.46,1.04,1.04-.46,1.04-1.04,1.04Z"/>
    </g>
  </g>
</svg>