<?xml version="1.0" encoding="UTF-8"?>
<svg id="Layer_1" data-name="Layer 1" xmlns="http://www.w3.org/2000/svg" viewBox="0 0 110 46">
  <defs>
    <style>
      .cls-1 {
        fill: #fff;
      }

      .cls-2 {
        fill: #ff8c00;
      }
    </style>
  </defs>
  <g id="A_AMATIC_ONLINE_VEKTOR" data-name="A AMATIC ONLINE VEKTOR">
    <g id="AMATIC">
      <path class="cls-1" d="M42.96,29.96h-4.91v-.37c.71,0,1.35-.02,1.35-.73,0-.31-.25-.94-.37-1.21l-.79-1.85h-5.04l-.89,2.25c-.1.25-.15.52-.15.73,0,.81.9.81,1.31.81v.37h-3.81v-.37c.31-.02.64-.06.98-.42.44-.48,1.04-1.89,1.41-2.73l4-9.45h.38l4.79,10.93c.62,1.41.89,1.62,1.73,1.67v.37h0ZM37.97,25.01l-2.23-5.29-2.21,5.29h4.45Z"/>
      <path class="cls-1" d="M59.88,17.58c-1.21.1-1.67.21-1.67,1.73v8.55c0,1.48.44,1.66,1.67,1.73v.37h-5.39v-.37c1.5-.08,1.75-.37,1.75-1.94v-8.64h-.04l-4.89,10.95h-.27l-4.79-10.51h-.04v7.68c0,1.98.4,2.41,1.81,2.46v.37h-4.52v-.37c1.46-.1,1.87-.38,1.87-2.46v-7.82c0-1.5-.4-1.66-1.83-1.73v-.37h3.81l4.45,9.72,4.25-9.72h3.83v.37h0Z"/>
      <path class="cls-1" d="M73.97,29.96h-4.91v-.37c.71,0,1.35-.02,1.35-.73,0-.31-.25-.94-.37-1.21l-.79-1.85h-5.04l-.89,2.25c-.1.25-.15.52-.15.73,0,.81.9.81,1.31.81v.37h-3.81v-.37c.31-.02.64-.06.98-.42.44-.48,1.04-1.89,1.41-2.73l4-9.45h.38l4.79,10.93c.62,1.41.89,1.62,1.73,1.67v.37h0ZM68.98,25.01l-2.23-5.29-2.21,5.29h4.45Z"/>
      <path class="cls-1" d="M80.84,29.96h-5.62v-.37c1.75-.08,1.81-.52,1.81-1.94v-9.63h-1.04c-2.12,0-2.64.37-3.06,2.46h-.46l.12-3.27h10.86l.12,3.27h-.46c-.4-2.12-.94-2.46-3.06-2.46h-1.04v9.84c0,1.31.23,1.67,1.85,1.73v.37h0Z"/>
      <path class="cls-1" d="M84.25,29.59c1.64-.04,1.87-.37,1.87-1.73v-8.55c0-1.42-.27-1.66-1.87-1.73v-.37h5.72v.37c-1.41.06-1.89.19-1.89,1.73v8.55c0,1.5.46,1.69,1.89,1.73v.37h-5.72v-.37Z"/>
      <path class="cls-1" d="M101.81,21.28c-.48-2.02-1.87-3.56-4.24-3.56-.96,0-2.08.38-2.89,1.17-.75.73-1.6,1.96-1.6,4.74,0,4.08,2.29,5.76,4.72,5.76s3.75-1.37,4.35-1.94l.35.35s-1.67,2.44-5.22,2.44c-3.1,0-6.43-1.85-6.43-6.64,0-4.31,3.23-6.64,6.55-6.64,1.71,0,2.96.64,3.39.64.1,0,.73,0,.89-.64h.4l.17,4.33h-.44Z"/>
    </g>
    <g id="A">
      <path class="cls-2" d="M25.78,29.96h-4.91v-.37c.71,0,1.35-.02,1.35-.73,0-.31-.25-.94-.37-1.21l-.79-1.85h-5.04l-.89,2.25c-.1.25-.15.52-.15.73,0,.81.9.81,1.31.81v.37h-3.81v-.37c.31-.02.64-.06.98-.42.44-.48,1.04-1.89,1.41-2.73l4-9.45h.38l4.79,10.93c.62,1.41.89,1.62,1.73,1.67v.37h0ZM20.79,25.01l-2.23-5.29-2.21,5.29h4.45Z"/>
    </g>
    <g id="ONLINE">
      <path class="cls-2" d="M83.36,32.53c-.09-.22-.22-.41-.39-.58-.17-.16-.37-.29-.6-.38-.23-.09-.49-.14-.76-.14s-.53.05-.76.14c-.23.09-.43.22-.6.38-.17.16-.3.36-.39.58-.09.22-.14.46-.14.72s.05.5.14.72c.09.22.22.41.39.58.17.16.37.29.6.38.23.09.49.14.76.14s.53-.05.76-.14c.23-.09.43-.22.6-.38s.3-.36.39-.58c.09-.22.14-.46.14-.72s-.05-.5-.14-.72h0ZM81.61,34.49c-.19,0-.36-.03-.51-.1-.15-.07-.28-.16-.39-.27s-.19-.24-.25-.39c-.06-.15-.09-.32-.09-.49s.03-.33.09-.49c.06-.15.14-.28.25-.39s.24-.2.39-.27c.15-.07.32-.1.51-.1s.36.03.51.1c.15.07.28.16.39.27.11.11.19.24.25.39.06.15.09.32.09.49s-.03.33-.09.49c-.06.15-.14.28-.25.39-.11.11-.24.2-.39.27-.15.07-.32.1-.51.1h0Z"/>
      <polygon class="cls-2" points="87.41 34.1 85.59 31.51 84.86 31.51 84.86 34.97 85.48 34.97 85.48 32.39 87.32 34.97 88.03 34.97 88.03 31.51 87.41 31.51 87.41 34.1"/>
      <polygon class="cls-2" points="90.23 31.51 89.61 31.51 89.61 34.97 91.83 34.97 91.83 34.4 90.23 34.4 90.23 31.51"/>
      <rect class="cls-2" x="92.99" y="31.51" width=".62" height="3.45"/>
      <polygon class="cls-2" points="97.74 34.1 95.92 31.51 95.19 31.51 95.19 34.97 95.81 34.97 95.81 32.39 97.65 34.97 98.36 34.97 98.36 31.51 97.74 31.51 97.74 34.1"/>
      <polygon class="cls-2" points="100.55 34.4 100.55 33.49 102.21 33.49 102.21 32.92 100.55 32.92 100.55 32.08 102.33 32.08 102.33 31.51 99.94 31.51 99.94 34.97 102.42 34.97 102.42 34.4 100.55 34.4"/>
    </g>
    <g id="SCHWUNG_CUT" data-name="SCHWUNG CUT">
      <path class="cls-2" d="M22.39,16.98c2.7.82,3.58,3.54,1.91,6.78-.24.47-.53.93-.85,1.37l.43.96c.37-.51.69-1.03.96-1.58,1.84-3.69.84-6.76-2.45-7.53h0Z"/>
      <path class="cls-2" d="M21.07,27.67c-2.26,1.89-5.09,3.13-7.58,3.13-3.96,0-5.63-3.15-3.74-7.03,1.2-2.47,3.48-4.64,6.1-5.89-3.14,1.34-6.04,3.81-7.47,6.64-2.15,4.26-.25,7.72,4.25,7.72,2.9,0,6.24-1.41,8.83-3.57l-.39-.98Z"/>
    </g>
  </g>
</svg>