<?xml version="1.0" encoding="UTF-8"?>
<svg id="Layer_1" data-name="Layer 1" xmlns="http://www.w3.org/2000/svg" viewBox="0 0 110 46">
  <defs>
    <style>
      .cls-1 {
        fill: #fff;
      }
    </style>
  </defs>
  <path class="cls-1" d="M100.33,17.1c.2.04.77-.06.89.02s.47,1.45.61,1.34c.07-.17.41-1.29.46-1.34s.73.02.89,0v2.48h-.6v-1.5l-.57,1.5c-.15-.02-.41.05-.52-.08l-.49-1.28v1.35h-.68v-2.48h0Z"/>
  <polygon class="cls-1" points="100.1 17.1 100.1 17.63 99.43 17.63 99.43 19.58 98.75 19.58 98.75 17.63 98.07 17.63 98.07 17.1 100.1 17.1"/>
  <g>
    <path class="cls-1" d="M7.96,17.11l29.93-.02c1.25.13,1.84,1.4,1.05,2.4l-9.01,9.01c-1.12.86-2.47.24-2.59-1.16s.12-3.29-.02-4.86c-.24-.79-1.23-1.08-1.86-.54l-6.42,6.41c-.83.65-1.8.75-2.67.11l-9.31-9.31c-.59-.8-.05-1.89.88-2.04h0Z"/>
    <path class="cls-1" d="M43.19,17.1v8.41l5.82-8.41h1.69v8.41c1.97-2.77,3.92-5.56,5.78-8.41h2.55l-.84,1.3-7.23,10.34h-2.44v-7.2c-.29.26-.51.63-.74.95-1.45,2.07-2.91,4.15-4.3,6.25h-2.48v-11.64h2.18Z"/>
    <path class="cls-1" d="M80.65,17.1v11.64h-2.1s-.08-.67-.08-.75l-1,.62c-3.81,1.43-6.65-2.29-5.17-5.84,1-2.4,4.36-3.11,6.17-1.22v-4.42h2.18ZM78.49,24.68c0-1.21-.98-2.19-2.19-2.19s-2.19.98-2.19,2.19.98,2.19,2.19,2.19,2.19-.98,2.19-2.19Z"/>
    <path class="cls-1" d="M62.33,28.73s-.08-.64-.08-.75l-1,.62c-7.33,2.26-7.4-10.02-.05-7.86l1.05.64c0-.08.04-.75.08-.75h2.1v8.1c-.28-.05-2.03.08-2.1,0ZM62.27,24.68c0-1.21-.98-2.19-2.19-2.19s-2.19.98-2.19,2.19.98,2.19,2.19,2.19,2.19-.98,2.19-2.19Z"/>
    <path class="cls-1" d="M88.01,28.73s-.08-.64-.08-.75l-1,.62c-7.33,2.26-7.4-10.02-.05-7.86l1.05.64c0-.08.04-.75.08-.75h2.1v8.1c-.28-.05-2.03.08-2.1,0ZM87.95,24.68c0-1.21-.98-2.19-2.19-2.19s-2.19.98-2.19,2.19.98,2.19,2.19,2.19,2.19-.98,2.19-2.19Z"/>
    <path class="cls-1" d="M98.82,28.73h-2.18v-4.84c0-.09-.22-.58-.29-.69-.6-.97-2.28-.84-2.85.11s-.24.51-.24.59v4.84h-2.18v-8.1h1.92c.19.2.1.56.19.83,1.53-1.53,4.48-1.31,5.39.8.06.14.23.62.23.74v5.74h0Z"/>
    <polygon class="cls-1" points="71.57 20.63 71.57 22.24 67.82 26.86 71.8 26.86 71.8 28.73 65.19 28.73 65.19 27.19 68.94 22.5 65.26 22.5 65.26 20.63 71.57 20.63"/>
  </g>
</svg>