<svg width="100" height="80" viewBox="0 0 100 80" fill="none" xmlns="http://www.w3.org/2000/svg">
<path d="M47.8141 24.8233C47.834 23.5231 47.5951 22.2319 47.1113 21.0249C46.6275 19.8178 45.9084 18.7191 44.996 17.7926C44.0835 16.8661 42.9959 16.1303 41.7964 15.6281C40.597 15.1258 39.3096 14.8672 38.0092 14.8672C36.7088 14.8672 35.4214 15.1258 34.2219 15.6281C33.0225 16.1303 31.9348 16.8661 31.0224 17.7926C30.11 18.7191 29.3909 19.8178 28.9071 21.0249C28.4233 22.2319 28.1844 23.5231 28.2043 24.8233V67.1294C28.2471 69.7039 29.3009 72.1582 31.1379 73.9624C32.975 75.7666 35.4479 76.7759 38.0228 76.7723C40.5976 76.7686 43.0677 75.7524 44.8997 73.9431C46.7317 72.1338 47.7785 69.6765 47.8141 67.1019V61.9393H40.3275V67.1019C40.3373 67.4124 40.2846 67.7218 40.1724 68.0116C40.0603 68.3014 39.8911 68.5658 39.6749 68.7889C39.4587 69.0121 39.1998 69.1895 38.9136 69.3107C38.6275 69.4319 38.3199 69.4943 38.0092 69.4943C37.6985 69.4943 37.3909 69.4319 37.1047 69.3107C36.8186 69.1895 36.5597 69.0121 36.3435 68.7889C36.1272 68.5658 35.958 68.3014 35.8459 68.0116C35.7338 67.7218 35.6811 67.4124 35.6909 67.1019V57.824H47.8141V50.3397V24.8233ZM35.6909 50.3397V24.8233C35.6811 24.5127 35.7338 24.2033 35.8459 23.9135C35.958 23.6237 36.1272 23.3594 36.3435 23.1362C36.5597 22.9131 36.8186 22.7356 37.1047 22.6145C37.3909 22.4933 37.6985 22.4309 38.0092 22.4309C38.3199 22.4309 38.6275 22.4933 38.9136 22.6145C39.1998 22.7356 39.4587 22.9131 39.6749 23.1362C39.8911 23.3594 40.0603 23.6237 40.1724 23.9135C40.2846 24.2033 40.3373 24.5127 40.3275 24.8233V50.3397H35.6909Z" fill="#F7941D"/>
<path d="M19.8665 33.5742C18.8738 33.5742 17.9216 33.9686 17.2196 34.6706C16.5176 35.3726 16.1233 36.3247 16.1233 37.3175V67.1008C16.133 67.4114 16.0803 67.7208 15.9682 68.0106C15.8561 68.3004 15.6869 68.5647 15.4706 68.7879C15.2544 69.0111 14.9955 69.1885 14.7094 69.3097C14.4232 69.4308 14.1157 69.4933 13.8049 69.4933C13.4942 69.4933 13.1866 69.4308 12.9005 69.3097C12.6143 69.1885 12.3555 69.0111 12.1392 68.7879C11.923 68.5647 11.7538 68.3004 11.6417 68.0106C11.5296 67.7208 11.4768 67.4114 11.4866 67.1008V54.0797C11.4866 53.0869 11.0922 52.1348 10.3902 51.4328C9.68823 50.7308 8.7361 50.3364 7.74332 50.3364C6.75054 50.3364 5.79842 50.7308 5.09642 51.4328C4.39441 52.1348 4.00003 53.0869 4.00003 54.0797V67.1008C3.99701 68.3883 4.2476 69.6637 4.7375 70.8543C5.2274 72.0449 5.94701 73.1274 6.85524 74.0398C7.76347 74.9523 8.84254 75.677 10.0308 76.1725C11.2191 76.668 12.4934 76.9245 13.7808 76.9275C16.3809 76.9336 18.877 75.9066 20.7198 74.0723C21.6323 73.1641 22.357 72.085 22.8525 70.8967C23.348 69.7084 23.6045 68.4342 23.6075 67.1467V37.3175C23.6075 36.3251 23.2135 35.3734 22.512 34.6714C21.8105 33.9695 20.8589 33.5748 19.8665 33.5742Z" fill="#F7941D"/>
<path d="M56.1691 2C55.6776 1.9997 55.1909 2.09624 54.7367 2.28411C54.2826 2.47198 53.8699 2.74749 53.5223 3.0949C53.1747 3.44232 52.8989 3.85482 52.7108 4.30885C52.5226 4.76288 52.4258 5.24953 52.4258 5.741V73.1662C52.4258 74.159 52.8202 75.1111 53.5222 75.8131C54.2242 76.5152 55.1763 76.9095 56.1691 76.9095C57.1619 76.9095 58.114 76.5152 58.816 75.8131C59.518 75.1111 59.9124 74.159 59.9124 73.1662V5.7387C59.9121 5.24743 59.815 4.76102 59.6267 4.30726C59.4385 3.8535 59.1626 3.44126 58.815 3.09409C58.4674 2.74692 58.0549 2.47161 57.6009 2.28389C57.1469 2.09616 56.6604 1.9997 56.1691 2Z" fill="#F7941D"/>
<path d="M68.2265 15.0215C67.7351 15.0215 67.2484 15.1183 66.7944 15.3065C66.3403 15.4946 65.9278 15.7704 65.5804 16.118C65.233 16.4656 64.9575 16.8783 64.7696 17.3325C64.5818 17.7866 64.4852 18.2733 64.4855 18.7648V73.1643C64.4732 73.6635 64.5608 74.1601 64.7433 74.625C64.9258 75.0898 65.1995 75.5134 65.5482 75.8709C65.8969 76.2284 66.3136 76.5124 66.7738 76.7064C67.234 76.9003 67.7283 77.0003 68.2277 77.0003C68.7271 77.0003 69.2214 76.9003 69.6816 76.7064C70.1417 76.5124 70.5585 76.2284 70.9072 75.8709C71.2559 75.5134 71.5296 75.0898 71.7121 74.625C71.8946 74.1601 71.9822 73.6635 71.9698 73.1643V18.7648C71.9701 18.2731 71.8735 17.7862 71.6855 17.3319C71.4975 16.8776 71.2218 16.4649 70.8741 16.1172C70.5265 15.7695 70.1137 15.4938 69.6594 15.3058C69.2051 15.1178 68.7182 15.0212 68.2265 15.0215Z" fill="#F7941D"/>
<path d="M92.429 50.3364C91.4362 50.3364 90.4841 50.7308 89.7821 51.4328C89.0801 52.1348 88.6857 53.0869 88.6857 54.0797V57.823C88.6955 58.1336 88.6428 58.4429 88.5307 58.7327C88.4186 59.0226 88.2494 59.2869 88.0331 59.51C87.8169 59.7332 87.558 59.9106 87.2719 60.0318C86.9857 60.153 86.6781 60.2154 86.3674 60.2154C86.0567 60.2154 85.7491 60.153 85.463 60.0318C85.1768 59.9106 84.9179 59.7332 84.7017 59.51C84.4855 59.2869 84.3163 59.0226 84.2042 58.7327C84.092 58.4429 84.0393 58.1336 84.0491 57.823V37.3175C84.0491 36.3247 83.6547 35.3726 82.9527 34.6706C82.2507 33.9686 81.2986 33.5742 80.3058 33.5742C79.313 33.5742 78.3609 33.9686 77.6589 34.6706C76.9569 35.3726 76.5625 36.3247 76.5625 37.3175V57.823C76.5629 59.7641 77.1393 61.6616 78.2185 63.2751C79.2977 64.8886 80.8313 66.1457 82.6253 66.8873V73.1636C82.6253 74.1564 83.0196 75.1085 83.7217 75.8105C84.4237 76.5125 85.3758 76.9069 86.3686 76.9069C87.3613 76.9069 88.3135 76.5125 89.0155 75.8105C89.7175 75.1085 90.1119 74.1564 90.1119 73.1636V66.8873C91.9003 66.1481 93.4301 64.8963 94.5085 63.2894C95.587 61.6826 96.1659 59.7926 96.1723 57.8574V54.0797C96.1723 53.0869 95.7779 52.1348 95.0759 51.4328C94.3739 50.7308 93.4218 50.3364 92.429 50.3364Z" fill="#F7941D"/>
</svg>
