<?xml version="1.0" encoding="UTF-8"?>
<svg id="Layer_1" data-name="Layer 1" xmlns="http://www.w3.org/2000/svg" viewBox="0 0 110 46">
  <defs>
    <style>
      .cls-1 {
        fill-rule: evenodd;
      }

      .cls-1, .cls-2 {
        fill: #a6ce39;
      }
    </style>
  </defs>
  <path class="cls-2" d="M75.39,27.43v-8.9c0-.14.09-.23.23-.23h1.77s.14.05.18.09l4.27,5.13v-4.99c0-.14.09-.23.23-.23h2.04c.14,0,.23.09.23.23v8.9c0,.14-.09.23-.23.23h-1.77s-.14-.05-.18-.09l-4.27-5.13v4.99c0,.14-.09.23-.23.23h-2c-.18,0-.27-.14-.27-.23Z"/>
  <path class="cls-2" d="M86.19,27.43v-8.9c0-.14.09-.23.23-.23h6.85c.14,0,.23.09.23.23v1.54c0,.14-.09.23-.23.23h-4.58v1.72h3.99c.14,0,.23.09.23.23v1.41c0,.14-.09.23-.23.23h-3.99v1.86h4.77c.14,0,.23.09.23.23v1.54c0,.14-.09.23-.23.23h-7.04c-.14-.09-.23-.23-.23-.32Z"/>
  <path class="cls-2" d="M97.5,27.43v-7.13h-2.68c-.14,0-.23-.09-.23-.23v-1.54c0-.14.09-.23.23-.23h7.9c.14,0,.23.09.23.23v1.54c0,.14-.09.23-.23.23h-2.68v7.13c0,.14-.09.23-.23.23h-2.09c-.14,0-.23-.14-.23-.23Z"/>
  <g>
    <circle class="cls-2" cx="18.47" cy="22.67" r="3.77"/>
    <path class="cls-1" d="M24.5,25.62c-.09.05-.23-.05-.14-.14,1.91-2.22,2.54-4.86,1.41-6.81-1.41-2.41-5.04-2.91-8.58-1.63-3.77,1.36-6.22,4.22-5.72,7.13,1,5.9,12.71,5.4,16.8,5.08.14,0,.14.18.05.18-10.49,2.41-19.75.95-21.11-4.31-1.32-5.08,6.26-8.03,9.67-8.94,4.68-1.23,10.67-1.18,11.89,2.22.82,2.18-1,4.99-4.27,7.22Z"/>
  </g>
  <path class="cls-2" d="M31.81,27.34l3.95-8.9c.05-.09.14-.14.23-.14h2.22c.09,0,.18.05.23.14l3.95,8.9c.05.14-.05.32-.23.32h-2.13c-.09,0-.18-.05-.23-.14l-.68-1.68h-4.13l-.68,1.68c-.05.09-.14.14-.23.14h-2.09c-.14,0-.23-.18-.18-.32ZM38.39,23.98l-1.36-3.36-1.36,3.36h2.72Z"/>
  <path class="cls-2" d="M43.34,27.43v-8.9c0-.14.09-.23.23-.23h1.72c.09,0,.14.05.18.09l3.27,5.45,3.27-5.45s.09-.09.18-.09h1.72c.14,0,.23.09.23.23v8.9c0,.14-.09.23-.23.23h-1.86c-.14,0-.23-.09-.23-.23v-5.04l-2.5,4.22s-.09.09-.18.09h-.86c-.09,0-.14-.05-.18-.09l-2.5-4.09v4.9c0,.14-.09.23-.23.23h-1.86c-.09,0-.18-.14-.18-.23Z"/>
  <path class="cls-2" d="M60.5,27.84c-1.36,0-2.45-.36-3.22-1.13-.77-.77-1.13-1.82-1.13-3.22v-4.95c0-.14.09-.23.23-.23h2.09c.14,0,.23.09.23.23v4.86c0,1.59.59,2.36,1.86,2.36s1.91-.82,1.91-2.36v-4.86c0-.14.09-.23.23-.23h2.04c.14,0,.23.09.23.23v4.95c0,1.36-.41,2.45-1.13,3.22-.86.73-1.95,1.13-3.31,1.13Z"/>
  <path class="cls-2" d="M69.99,27.84c-.77,0-1.5-.09-2.22-.27-.59-.14-1.13-.36-1.54-.59-.09-.05-.14-.18-.09-.27l.64-1.45s.05-.09.14-.09c.09-.05.14,0,.18,0,.36.23.77.36,1.23.5.54.18,1.13.27,1.68.27,1.09,0,1.63-.27,1.63-.86,0-.23-.09-.5-.5-.68-.32-.14-.77-.27-1.45-.41-.73-.14-1.32-.32-1.77-.5-.45-.18-.86-.45-1.18-.82-.32-.36-.5-.86-.5-1.5,0-.54.14-1.09.45-1.5.32-.45.77-.82,1.36-1.09.64-.27,1.36-.41,2.27-.41.64,0,1.23.09,1.82.23.5.14.95.27,1.36.5.09.05.14.18.09.27l-.59,1.45s-.05.09-.14.14h-.14c-.82-.41-1.59-.59-2.41-.59-.54,0-.95.09-1.23.27-.27.18-.41.41-.41.68,0,.18.09.45.5.64.27.14.77.27,1.41.41.73.14,1.32.32,1.77.5.45.18.86.45,1.18.82.32.36.5.86.5,1.5,0,.54-.14,1.04-.45,1.5-.32.45-.77.82-1.41,1.09-.5.14-1.27.27-2.18.27Z"/>
</svg>