<?xml version="1.0" encoding="UTF-8"?>
<svg id="Layer_1" data-name="Layer 1" xmlns="http://www.w3.org/2000/svg" viewBox="0 0 110 46">
  <defs>
    <style>
      .cls-1 {
        fill: #e81845;
      }

      .cls-2 {
        fill: #f4f4f4;
      }
    </style>
  </defs>
  <g>
    <path class="cls-2" d="M99.92,26.27c.17,2.13,2.73-.56,2.45,1.95-.05.41-.59.41-1.06.5-1.59.28-3.32-.35-3.34-2.08l-.07-5.2c-1.11-.1-2.09-.09-3.24,0l-.05,7.1c-.63.16-1.21.16-1.88,0l-.04-7.08c-.52-.17-.95,0-1.33-.18-.18-.08-.11-.52-.06-.68.27-.72,1.49-.11,1.43-1.43-.04-.89.21-1.94,1.05-2.41,1.03-.58,2.47-.69,3.46-.09.26.16-.08.84-.16,1.05-.2.53-1.67-.23-2.19.54-.21.31-.44,1.26-.11,1.53.97.22,2.06.03,3.09.08.36-.57.16-1.3.5-1.76.2-.27,1.18-.28,1.37,0,.31.43-.02,1.19.21,1.73.67.2,1.5-.16,2.17.11.34.13.35,1.22.01,1.35-.69.26-1.47-.09-2.25.16-.01,1.57-.11,3.12.03,4.81Z"/>
    <path class="cls-2" d="M47.47,28.34c-.01.54-1.28.28-1.78.21l-.19-6.17c-.03-.92-1.09-1.13-1.76-1.04-.89.12-1.53.75-1.56,1.72l-.16,5.37c-.22.39-1.21.22-1.83.13l.02-8.4c0-.4.88-.32,1.14-.27.29.06.38.48.68.9,1.53-1.44,3.9-1.53,5.23.23.81-.92,1.76-1.31,2.94-1.3,1.61.02,2.78,1.04,2.79,2.7v6.14c-.72.14-1.31.14-1.9-.05-.47-2.62,1.23-7.79-2.06-7.14-.89.17-1.41.89-1.43,1.84l-.12,5.13Z"/>
    <path class="cls-2" d="M61.77,28.43c-.02.36-1,.17-1.26.21-.34.06-.63-.35-.81-.78-1,.89-2.18,1.11-3.4.76-2.48-.69-2.81-4.28-2.12-6.49.39-1.25,1.39-2.14,2.44-2.33,1.35-.25,2.49.15,3.36,1.07.13-.48.24-.93.55-.98s1.26-.16,1.27.24c.06,2.82.11,5.44-.02,8.3ZM59.67,22.39c-.28-.77-1.04-1.03-1.65-1.05s-1.34.1-1.69.78c-.67,1.3-.69,3.02,0,4.31.39.74,1.21.81,1.93.75,2.12-.2,1.89-3.47,1.41-4.79Z"/>
    <path class="cls-2" d="M36.83,28.5c-1.75.49-3.48.29-5.05-.3-.1-.65-.07-1.2,0-1.84,1.48.61,4.91,1.47,5.34-.36.18-.78-.17-1.47-.91-1.82l-2.68-1.27c-1.35-.64-1.9-2.06-1.62-3.54.55-2.9,4.9-2.85,6.89-1.7.12.44-.2,1.34-.57,1.5-1.21-.36-3.91-1.17-4.38.45-.82,2.81,5.4,1.96,5.29,5.87-.04,1.35-.77,2.59-2.32,3.02Z"/>
    <path class="cls-2" d="M80.21,28.46c-1.65.48-3.49.44-4.97-.27-.39-.3-.16-1.31-.13-1.83,1.43.62,5.16,1.55,5.36-.61.06-.67-.27-1.25-.94-1.57l-2.72-1.3c-1.27-.6-1.8-1.93-1.64-3.26.16-1.23,1.06-2.26,2.48-2.54s3.17-.11,4.43.54c.22.38-.17,1.41-.58,1.5-1.31-.3-3.88-1.21-4.35.59-.7,2.67,5.42,1.85,5.32,5.8-.03,1.25-.75,2.51-2.25,2.94Z"/>
    <path class="cls-2" d="M90.09,27.4c-1.51,1.89-4.68,1.83-6.17.09s-1.56-4.68-.05-6.47,4.7-1.78,6.2.05c1.4,1.7,1.48,4.51.03,6.33ZM88.7,26.2c.57-1.26.6-2.79-.05-3.99s-2.66-1.23-3.35-.07c-.73,1.23-.64,2.82-.11,4.05.33.74,1.08.98,1.68.99.64.02,1.46-.16,1.83-.97Z"/>
    <path class="cls-2" d="M71.55,21.4c0,1.3-.34,5.03.33,5.55.6.47,1.79.04,2.03.19.19.12.26.72.09,1.03-.52.95-1.84.94-2.79.65-1-.31-1.67-1.53-1.67-2.67v-8.11c.73-.18,1.3-.14,1.92.02.09.62-.03,1.17.14,1.82l2.28.03c.18.42.13.9.04,1.39-.7.16-1.28.01-2.36.1Z"/>
    <path class="cls-2" d="M65.24,28.45c-.45.35-1.26.19-1.89.07l.03-8.35c0-.45.99-.34,1.29-.23.39.14.21.7.57,1.34.71-1.3,2.13-1.95,3.39-1.38.26.28.24,1.22-.05,1.43-.8.08-1.71.04-2.33.59-1.67,1.48-.67,3.91-1.01,6.53Z"/>
  </g>
  <g>
    <path class="cls-1" d="M12.9,18.3c-2.1,1.92-2.36,4.87-1.07,7.4-.42.41-.85-.12-1.19-.23-2.21-.75-3.08-2.6-3.04-4.81.04-2.04.71-3.89,2.59-4.92l5.27-2.9c1.21-.67,2.72-.65,3.91.11,2.09,1.35,4.31,2.41,6.28,3.93.56.43-.12,1.48-.5,1.82-1.6,1.41-3.75-.14-5.45-1.03-2.2-1.15-4.84-1.16-6.8.64Z"/>
    <path class="cls-1" d="M8.45,29.18c-.62-.97,1.26-2.07,2.2-2.01,2.54.16,5.29,3.31,8.78,1.29,1.49-.86,2.09-2.52,1.21-4.11,1.23.16,2.19,1.14,2.64,2.07.55,1.14.26,2.47-.35,3.54-.78,1.37-2.14,1.98-3.47,2.77s-2.99,1.36-4.45.47c-2.12-1.3-4.52-2.35-6.57-4.01Z"/>
    <path class="cls-1" d="M26.47,25.03c.02,2.01-.6,3.82-2.55,4.72.86-2.49.03-4.83-2.32-5.83l-5.78-2.46c-.64-.27-.99-.84-.99-1.41s.31-1.2.92-1.54c.91-.49,2.08-.43,3.03.02l5.4,2.56c1.5.71,2.27,2.18,2.29,3.94Z"/>
    <path class="cls-1" d="M17.38,23.83c1.07.44,1.51,1.41,1.29,2.41-.18.83-.97,1.57-2.03,1.59-1.86.04-3.46-1-4.27-2.65-.92-1.88-.93-4.13.41-5.74.02,1.57.66,2.78,2.04,3.34l2.56,1.05Z"/>
  </g>
</svg>