<?xml version="1.0" encoding="UTF-8"?>
<svg id="Layer_1" data-name="Layer 1" xmlns="http://www.w3.org/2000/svg" xmlns:xlink="http://www.w3.org/1999/xlink" viewBox="0 0 110 46">
  <defs>
    <style>
      .cls-1 {
        fill: #fff;
      }

      .cls-2 {
        fill: url(#linear-gradient-3);
      }

      .cls-2, .cls-3, .cls-4, .cls-5, .cls-6 {
        fill-rule: evenodd;
      }

      .cls-3 {
        fill: url(#linear-gradient-5);
      }

      .cls-4 {
        fill: url(#linear-gradient-2);
      }

      .cls-5 {
        fill: url(#linear-gradient-4);
      }

      .cls-6 {
        fill: url(#linear-gradient);
      }
    </style>
    <linearGradient id="linear-gradient" x1="4.47" y1="-529.6" x2="18.18" y2="-529.6" gradientTransform="translate(0 -515.48) scale(1 -1)" gradientUnits="userSpaceOnUse">
      <stop offset="0" stop-color="#ee344d"/>
      <stop offset="1" stop-color="#f89927"/>
    </linearGradient>
    <linearGradient id="linear-gradient-2" x1="4.97" y1="-530.83" x2="18.56" y2="-530.83" xlink:href="#linear-gradient"/>
    <linearGradient id="linear-gradient-3" x1="4.66" y1="-528.41" x2="18.31" y2="-528.41" xlink:href="#linear-gradient"/>
    <linearGradient id="linear-gradient-4" x1="4.58" y1="-531.86" x2="18.11" y2="-531.86" xlink:href="#linear-gradient"/>
    <linearGradient id="linear-gradient-5" x1="4.26" y1="-540.27" x2="18.14" y2="-540.27" xlink:href="#linear-gradient"/>
  </defs>
  <g>
    <g>
      <path class="cls-1" d="M102.13,22.59h-.58v-1.67h-.55v-.5h1.72v.5h-.59v1.67Z"/>
      <path class="cls-1" d="M105.74,22.59h-.57l.04-1.67h-.02l-.54,1.67h-.5l-.55-1.67h-.02l.05,1.67h-.57v-2.18h.92l.41,1.37h.02l.39-1.37h.94v2.18h0Z"/>
    </g>
    <g>
      <path class="cls-1" d="M34.12,29.51h-2.48v-3.64h-3.22v3.64h-2.48v-9.26h2.48v3.5h3.22v-3.5h2.48v9.26Z"/>
      <path class="cls-1" d="M38.08,27.91l-.44,1.6h-2.58l2.78-9.26h3.76l2.82,9.26h-2.53l-.49-1.6h-3.32ZM39.74,22.1l-1.14,4.02h2.3l-1.17-4.02Z"/>
      <path class="cls-1" d="M45.33,20.25h5.04c.84,0,1.51.17,2.01.48.5.31.75.94.75,1.89,0,.54-.07,1-.21,1.39-.14.39-.55.65-1.23.76v.07c.63.07,1.05.26,1.27.6s.33.81.33,1.42c0,1.04-.21,1.74-.62,2.1-.41.37-1.16.55-2.25.55h-5.08v-9.26ZM49.4,23.96s.07.01.11.01h.1c.3,0,.55-.05.76-.12s.31-.29.31-.67c0-.33-.06-.56-.17-.69-.12-.13-.34-.19-.67-.19h-2.01v1.65h1.58ZM49.47,27.47c.39,0,.71-.03.96-.1.25-.08.38-.34.38-.8s-.1-.69-.3-.77c-.2-.08-.49-.12-.88-.12h-1.82v1.79h1.65Z"/>
      <path class="cls-1" d="M56.59,27.91l-.44,1.6h-2.58l2.78-9.26h3.76l2.82,9.26h-2.53l-.49-1.6h-3.32ZM58.25,22.1l-1.14,4.02h2.3l-1.17-4.02Z"/>
      <path class="cls-1" d="M72.81,29.51h-4.2l-2.61-7.12h-.11l.11,7.12h-2.43v-9.26h4.18l2.61,7.04h.1l-.1-7.04h2.46v9.26Z"/>
      <path class="cls-1" d="M76.51,23.96h3.94v1.72h-3.94v1.79h4.3v2.04h-6.79v-9.26h6.7v2.04h-4.22v1.66Z"/>
      <path class="cls-1" d="M81.98,20.25h4.66c1.18,0,2.03.21,2.54.6.51.39.76,1.21.76,2.45,0,.69-.08,1.26-.23,1.69-.15.43-.66.74-1.52.92v.08c.57.04,1,.21,1.27.52.27.31.41.75.41,1.31v1.68h-2.53v-1.23c0-.37-.07-.66-.21-.88-.14-.22-.42-.33-.83-.33h-1.85v2.44h-2.48v-9.26h0ZM86.43,24.94c.45,0,.73-.09.83-.31.1-.21.15-.52.15-.92,0-.45-.05-.79-.15-1-.1-.21-.42-.32-.94-.32h-1.85s0,2.54,0,2.54h1.97Z"/>
      <path class="cls-1" d="M90.92,24.39c0-.19,0-.38.01-.56,0-.18.02-.37.04-.56.02-.19.04-.38.07-.56.18-1.04.65-1.71,1.42-2.01.77-.3,1.6-.47,2.48-.49h.28c1.6,0,2.72.27,3.36.81.64.54.96,1.65.96,3.32s-.19,3.01-.56,3.9c-.37.89-1.6,1.33-3.68,1.33-.15,0-.3,0-.46,0-.16,0-.31-.01-.47-.02-.7-.03-1.36-.17-1.98-.43-.62-.26-1.04-.78-1.26-1.55-.09-.31-.15-.63-.17-.96-.02-.32-.03-.65-.03-.97v-.69c0-.18,0-.36,0-.55ZM93.46,24.9v.55c0,.66.07,1.16.21,1.5.14.34.59.51,1.36.51.85,0,1.39-.14,1.62-.41s.34-.8.34-1.59v-.33c0-.11,0-.23.01-.35v-.67c0-.62-.09-1.07-.26-1.36-.18-.29-.6-.43-1.26-.43-.96,0-1.53.13-1.71.39-.18.26-.28.97-.3,2.14v.06h0s0-.01,0-.01Z"/>
    </g>
  </g>
  <g>
    <path class="cls-6" d="M12.13,15.26c.26,0,.46-.21.46-.46v-1.34c0-.26-.21-.46-.46-.46s-.46.21-.46.46v1.34c0,.26.21.46.46.46Z"/>
    <path class="cls-4" d="M10.28,16.48c.26,0,.46-.21.46-.46v-1.34c0-.26-.21-.46-.46-.46s-.46.21-.46.46v1.34c0,.26.21.46.46.46Z"/>
    <path class="cls-2" d="M10.28,13.39c.26,0,.46-.21.46-.46h0c0-.25-.21-.45-.46-.45s-.46.21-.46.46h0c0,.25.21.45.46.45Z"/>
    <path class="cls-5" d="M13.98,16.84c.26,0,.46-.21.46-.46h0c0-.24-.21-.45-.46-.45s-.46.21-.46.46h0c0,.25.21.45.46.45Z"/>
    <path class="cls-3" d="M17.68,20.27c-.26,0-.46.21-.46.46v.23c-.02.24-.22.43-.46.43s-.46-.21-.46-.46v-1.15c0-.26-.21-.46-.46-.46s-.46.21-.46.46v.03c0,.26-.21.46-.46.46s-.46-.21-.46-.46v-1.93c0-.26-.21-.46-.46-.46s-.46.21-.46.46v.74c0,.26-.23.46-.46.46-.26,0-.46-.21-.46-.46v-2.08c0-.26-.21-.46-.46-.46s-.46.21-.46.46v1.81c0,.26-.21.46-.46.46s-.46-.21-.46-.46v-.65c0-.26-.21-.46-.46-.46s-.46.21-.46.46v1.39c0,.26-.21.46-.46.46s-.46-.21-.46-.46v-1.93c0-.26-.21-.46-.46-.46s-.46.21-.46.46v2.96c0,.26-.21.46-.46.46s-.46-.21-.46-.46v-.78c0-.26-.21-.46-.46-.46s-.46.21-.46.46v2.18c0,.26-.21.46-.46.46s-.46-.21-.46-.46v-.72c0-.26-.21-.46-.46-.46s-.46.21-.46.46v.71s0,8.02,0,8.02l6.94,4.01,6.94-4.01v-5.07s0-.01,0-.02v-3.69c0-.26-.21-.46-.46-.46ZM14.47,28.13h-2.18v-1.66h-2.18v1.66h-2.18v-5.2h2.18v1.75h2.18v-1.75h2.18v5.2h0Z"/>
  </g>
</svg>