<?xml version="1.0" encoding="UTF-8"?>
<svg id="Layer_1" data-name="Layer 1" xmlns="http://www.w3.org/2000/svg" viewBox="0 0 110 46">
  <defs>
    <style>
      .cls-1 {
        fill: #fff;
      }

      .cls-2 {
        fill: #78be20;
      }
    </style>
  </defs>
  <polygon class="cls-2" points="57.16 6.57 56.23 6.57 56.23 39.43 57.16 39.43 57.16 33.12 69.14 33.12 69.14 29.3 59.91 29.3 59.91 24.86 67.81 24.86 67.81 21 59.91 21 59.91 16.74 69.14 16.74 69.14 12.88 57.16 12.88 57.16 6.57"/>
  <polygon class="cls-1" points="19.86 25.29 16.47 19.77 12.1 12.95 12.03 12.88 8.42 12.88 8.42 33.12 12.42 33.12 12.42 20.67 15.42 25.51 20.25 33.12 23.9 33.12 23.9 12.88 19.86 12.88 19.86 25.29"/>
  <polygon class="cls-1" points="26.14 33.12 39.41 33.12 39.41 29.3 30.18 29.3 30.18 24.86 38.08 24.86 38.08 21 30.18 21 30.18 16.74 39.41 16.74 39.41 12.88 26.14 12.88 26.14 33.12"/>
  <polygon class="cls-1" points="41.04 16.78 45.69 16.78 45.69 33.12 49.73 33.12 49.73 16.78 54.31 16.78 54.31 12.88 41.04 12.88 41.04 16.78"/>
  <polygon class="cls-2" points="82.6 25.33 79.21 19.81 74.84 12.99 74.77 12.92 71.16 12.92 71.16 33.16 75.17 33.16 75.17 20.71 78.16 25.54 83 33.16 86.64 33.16 86.64 12.92 82.6 12.92 82.6 25.33"/>
  <polygon class="cls-2" points="88.3 12.92 88.3 16.81 92.92 16.81 92.92 33.16 96.96 33.16 96.96 16.81 101.58 16.81 101.58 12.92 88.3 12.92"/>
</svg>