<?xml version="1.0" encoding="UTF-8"?>
<svg id="Layer_1" data-name="Layer 1" xmlns="http://www.w3.org/2000/svg" viewBox="0 0 110 46">
  <defs>
    <style>
      .cls-1 {
        fill: #fff;
      }

      .cls-2 {
        fill: #ffcc29;
      }
    </style>
  </defs>
  <rect class="cls-2" x="32.23" y="14.33" width=".74" height="17.31"/>
  <rect class="cls-2" x="46.56" y="14.33" width=".81" height="17.31"/>
  <polygon class="cls-2" points="104.19 31.67 105 31.67 105 14.33 104.19 14.33 104.19 31.67"/>
  <rect class="cls-2" x="89.76" y="14.33" width=".81" height="17.31"/>
  <rect class="cls-2" x="60.98" y="14.33" width=".79" height="17.31"/>
  <rect class="cls-2" x="75.36" y="14.33" width=".81" height="17.31"/>
  <path class="cls-1" d="M39.02,17.24l-3.57,11.52h1.65l.84-2.9h3.69l.84,2.9h1.62l-3.52-11.52s-1.55,0-1.55,0ZM38.28,24.6l1.45-5.02h.05l1.43,5.02h-2.93Z"/>
  <path class="cls-1" d="M25.65,24.13v-1.23h3.57v4.19h0c-.32.52-.76.96-1.28,1.26-.69.42-1.48.57-2.26.57-1.08,0-2.17-.34-2.93-1.11-.74-.71-1.11-1.8-1.11-3.15v-3.37c0-1.33.37-2.36,1.06-3.08.71-.76,1.72-1.13,2.78-1.13s1.97.22,2.71.91c.69.64,1.01,1.55,1.03,2.49v.05h-1.55c.02-.59-.17-1.21-.57-1.65-.39-.42-.98-.57-1.6-.57s-1.26.27-1.65.79c-.42.52-.59,1.23-.59,2.22v3.45c0,.98.22,1.72.66,2.24.44.52,1.08.79,1.77.79.44,0,.91-.07,1.28-.3.3-.17.49-.44.64-.74v-2.61h-1.97Z"/>
  <polygon class="cls-1" points="56.62 17.24 58.74 17.24 58.74 28.76 57.12 28.76 57.12 24.33 57.26 19.9 57.22 19.9 54.7 28.76 53.62 28.76 51.11 19.9 51.09 19.9 51.21 24.33 51.21 28.76 49.61 28.76 49.61 17.24 51.68 17.24 54.16 26.35 54.16 26.35 56.62 17.24"/>
  <polygon class="cls-1" points="85.18 17.24 86.78 17.24 86.78 28.76 85.18 28.76 80.82 20.19 80.75 20.19 80.75 28.76 79.15 28.76 79.15 17.24 80.75 17.24 85.11 25.81 85.18 25.78 85.18 17.24"/>
  <polygon class="cls-1" points="65.83 17.24 71.27 17.24 71.27 18.49 69.35 18.49 69.35 27.48 71.27 27.48 71.27 28.76 65.83 28.76 65.83 27.46 67.75 27.46 67.75 18.47 65.83 18.47 65.83 17.24"/>
  <g>
    <path class="cls-2" d="M5.74,31.67h12.11c.42,0,.74-.32.74-.74v-15.85c0-.42-.32-.74-.74-.74H5.74c-.42,0-.74.32-.74.74v15.83c0,.42.34.76.74.76Z"/>
    <path d="M15.44,23.71c-.3-.49-.79-.81-1.35-.94.47-.2.86-.52,1.11-.96s.37-.96.37-1.45c0-.94-.3-1.8-1.01-2.34s-1.55-.79-2.54-.79h-3.67v11.55h4.14c.89,0,1.77-.3,2.44-.89.64-.54.96-1.4.96-2.51,0-.66-.15-1.18-.44-1.67ZM10.49,19.04h1.13c.49,0,.84.1,1.13.39s.39.74.37,1.16c0,.39-.07.81-.37,1.11-.27.27-.59.42-1.03.42h-1.26v-3.08h.02ZM13.1,26.59c-.27.3-.71.37-1.11.37h-1.48v-3.3h1.65c.42,0,.81.12,1.03.44.25.37.3.81.3,1.26-.02.44-.1.91-.39,1.23Z"/>
  </g>
  <path class="cls-1" d="M97.61,24.13v-1.23h3.57v4.19h0c-.32.52-.76.96-1.28,1.26-.69.42-1.48.57-2.26.57-1.08,0-2.17-.34-2.93-1.11-.74-.71-1.11-1.8-1.11-3.15v-3.4c0-1.33.37-2.36,1.06-3.08.71-.76,1.72-1.13,2.78-1.13s1.97.22,2.71.91c.69.64,1.01,1.55,1.03,2.49v.05h-1.55c.02-.59-.17-1.21-.57-1.65-.39-.42-.98-.57-1.6-.57s-1.26.27-1.65.79c-.42.52-.59,1.23-.59,2.22v3.45c0,.98.22,1.72.66,2.24.44.52,1.08.79,1.77.79.44,0,.91-.07,1.28-.3.3-.17.49-.44.64-.74v-2.58h-1.97Z"/>
</svg>