<?xml version="1.0" encoding="UTF-8"?>
<svg id="Layer_1" data-name="Layer 1" xmlns="http://www.w3.org/2000/svg" viewBox="0 0 110 46">
  <defs>
    <style>
      .cls-1 {
        fill: #bd0808;
      }
    </style>
  </defs>
  <g id="_Слой_2" data-name="Слой 2">
    <g id="Camada_1" data-name="Camada 1">
      <path class="cls-1" d="M101.27,22.87h-.02c0-1.94.06-3.89-.02-5.83-.08-2.2-1.24-3.6-3.42-3.94-3.37-.54-6.81-.54-10.19,0-2.12.34-3.26,1.58-3.38,3.73-.23,4.03-.23,8.07,0,12.09.14,2.37,1.3,3.6,3.65,4.01,3.05.5,6.15.52,9.21.08,2.93-.39,4.09-1.86,4.16-4.85.04-1.76,0-3.52,0-5.29ZM94.1,30.25s0-.03,0-.04c0,.01,0,.03,0,.04ZM93.92,30.03c.08.03.14.1.17.17-.03-.08-.09-.15-.17-.18h0ZM93.29,15.42h0l.46.34c.1.35.26.66.26,1.05-.02,4.15,0,8.29-.02,12.44-.02.25-.06.51-.12.75l-.36.44c-1.02.49-1.7.14-2.13-.86v-13.19l.17-.46c.48-.51,1.02-.78,1.73-.51h0ZM93.51,30.59s0-.09,0-.14h0s0,.09,0,.13h0Z"/>
      <path class="cls-1" d="M25.64,26.96c-.36-1.96-2.09-3.54-3.95-3.76-.18-.14-.3-.28-.01-.44,2.13-.05,3.51-1.1,3.92-3.13.15-.76.21-1.53.17-2.3-.16-3.06-1.37-4.26-4.42-4.49-.15,0-.29-.02-.44-.02-3.93-.02-7.86-.04-11.78-.05-.14.02-.28.05-.41.09v20.28h7.22v-15.82c-.02-.33,0-.66.05-.98.16-.63.59-1.04,1.26-1.03.62-.02,1.15.44,1.23,1.05.05.33.06.66.04.99v14.65c0,.38-.14.8.17,1.15h7.12c-.05-2.11.21-4.16-.17-6.19Z"/>
      <path class="cls-1" d="M45.82,33.14h14.36v-5.02h-9.28v-2.62h9.28v-5.01h-14.36v12.65Z"/>
      <path class="cls-1" d="M33.7,17.86h9.28v-5.05h-14.34v12.68h14.36v-5.09h-9.29v-2.54Z"/>
      <path class="cls-1" d="M28.63,33.16h14.33v-5.01h-14.33v5.01Z"/>
      <path class="cls-1" d="M62.97,12.81l1.88,20.35h7.27l-1.87-20.35h-7.28Z"/>
      <path class="cls-1" d="M74.61,18.13l-.02.44-1.43,14.59h7.31l1.88-20.34h-7.3l-.43,5.31Z"/>
      <path class="cls-1" d="M60.17,12.84h-14.36v4.98h14.37v-4.98Z"/>
    </g>
  </g>
</svg>