<?xml version="1.0" encoding="UTF-8"?>
<svg id="Layer_1" data-name="Layer 1" xmlns="http://www.w3.org/2000/svg" xmlns:xlink="http://www.w3.org/1999/xlink" viewBox="0 0 110 46">
  <defs>
    <style>
      .cls-1 {
        fill: #fff;
      }

      .cls-2 {
        fill: url(#linear-gradient);
      }
    </style>
    <linearGradient id="linear-gradient" x1="23.93" y1="-261.31" x2="23.93" y2="-266.23" gradientTransform="translate(7.6 -241.41) scale(1 -1)" gradientUnits="userSpaceOnUse">
      <stop offset="0" stop-color="#16307c"/>
      <stop offset=".95" stop-color="#28bcea"/>
    </linearGradient>
  </defs>
  <g id="White">
    <g>
      <path class="cls-1" d="M59.22,36.08c-.23,0-.44-.06-.63-.17-.19-.11-.34-.26-.45-.45s-.17-.4-.17-.63v-4.43c0-.23.06-.44.17-.63.11-.19.26-.34.45-.45.19-.11.4-.17.63-.17h5.66v1.04h-5.52c-.1,0-.19.03-.25.1-.07.07-.1.15-.1.25v4.14c0,.1.03.19.1.25.07.07.15.1.25.1h5.52v1.04h-5.66Z"/>
      <path class="cls-1" d="M69.05,36.08c-.23,0-.44-.06-.63-.17-.19-.11-.34-.26-.45-.45s-.17-.4-.17-.63v-4.43c0-.23.06-.44.17-.63.11-.19.26-.34.45-.45.19-.11.4-.17.63-.17h4.43c.23,0,.44.06.63.17.19.11.34.26.45.45s.17.4.17.63v4.43c0,.23-.06.44-.17.63-.11.19-.26.34-.45.45-.19.11-.4.17-.63.17h-4.43ZM69.07,35.04h4.37c.06,0,.12-.02.16-.07.04-.05.07-.1.07-.17v-4.37c0-.06-.02-.12-.07-.17-.05-.05-.1-.07-.16-.07h-4.37c-.06,0-.12.02-.17.07s-.07.1-.07.17v4.37c0,.06.02.12.07.17s.1.07.17.07Z"/>
      <path class="cls-1" d="M77.71,36.08v-6.92h5.67c.23,0,.44.06.64.17s.35.27.46.46.17.4.17.62v1.95c0,.23-.06.44-.17.63-.11.19-.26.34-.46.45-.19.11-.4.17-.64.17h-4.63v2.48h-1.04ZM78.99,32.56h4.37c.06,0,.12-.02.16-.07s.07-.1.07-.16v-1.89c0-.06-.02-.12-.07-.17-.05-.05-.1-.07-.16-.07h-4.37c-.06,0-.12.02-.17.07-.05.05-.07.1-.07.17v1.89c0,.06.02.12.07.16.05.05.1.07.17.07ZM83.39,36.08l-2.17-2.59h1.36l2.02,2.4v.19h-1.21Z"/>
      <path class="cls-1" d="M87.58,36.08v-6.92h5.67c.23,0,.44.06.64.17s.35.27.46.46.17.4.17.62v1.95c0,.23-.06.44-.17.63-.11.19-.26.34-.46.45-.19.11-.4.17-.64.17h-4.63v2.48h-1.04ZM88.86,32.56h4.37c.06,0,.12-.02.16-.07s.07-.1.07-.16v-1.89c0-.06-.02-.12-.07-.17-.05-.05-.1-.07-.16-.07h-4.37c-.06,0-.12.02-.17.07-.05.05-.07.1-.07.17v1.89c0,.06.02.12.07.16.05.05.1.07.17.07Z"/>
      <path class="cls-1" d="M98.34,36.08c-.23,0-.44-.06-.63-.17-.19-.11-.34-.26-.45-.45s-.17-.4-.17-.63v-.4h1.04v.38c0,.06.02.12.07.17s.1.07.17.07h4.37c.06,0,.12-.02.16-.07.05-.05.07-.1.07-.17v-1.43c0-.07-.02-.13-.07-.17s-.1-.07-.16-.07h-4.4c-.23,0-.44-.06-.63-.17-.19-.11-.34-.26-.45-.45-.11-.19-.17-.4-.17-.63v-1.48c0-.23.06-.44.17-.63.11-.19.26-.34.45-.45.19-.11.4-.17.63-.17h4.43c.23,0,.44.06.63.17.19.11.34.26.45.45.11.19.17.4.17.63v.4h-1.05v-.38c0-.06-.02-.12-.07-.17s-.1-.07-.16-.07h-4.37c-.06,0-.12.02-.17.07s-.07.1-.07.17v1.43c0,.07.02.13.07.17.05.05.1.07.17.07h4.4c.23,0,.44.06.63.17.19.11.34.26.45.45.11.19.17.4.17.63v1.48c0,.23-.06.44-.17.63-.11.19-.26.34-.45.45s-.4.17-.63.17h-4.43Z"/>
    </g>
    <path class="cls-1" d="M17.17,22.74v-1.47h-3.67l1.7-2.94h5.65v7.35h-10.96c-2.42,0-4.41-1.98-4.41-4.41v-2.94c0-2.42,1.98-4.41,4.41-4.41h10.96v2.94h-9.84c-1.02,0-1.85.83-1.85,1.85v2.18c0,1.02.83,1.85,1.85,1.85h6.17Z"/>
    <path class="cls-1" d="M22.62,25.68l6.79-11.76h4.24l6.79,11.76h-4.24l-4.67-8.08-4.67,8.08h-4.24Z"/>
    <path class="cls-1" d="M42.35,25.68v-11.76h3.67l5.85,7.13,5.85-7.13h3.67v11.76h-3.67v-7.12l-5.85,7.12-5.85-7.12v7.12h-3.67,0Z"/>
    <path class="cls-1" d="M64.19,13.92h3.67v11.76h-3.67v-11.76Z"/>
    <path class="cls-1" d="M70.66,25.68v-11.76h3.68l8.74,7.82v-7.82h3.67v11.76h-3.68l-8.74-7.82v7.82h-3.67Z"/>
    <path class="cls-1" d="M100.85,22.74v-1.47h-3.67l1.7-2.94h5.65v7.35h-10.96c-2.42,0-4.41-1.98-4.41-4.41v-2.94c0-2.42,1.98-4.41,4.41-4.41h10.96v2.94h-9.84c-1.02,0-1.85.83-1.85,1.85v2.18c0,1.02.83,1.85,1.85,1.85h6.17Z"/>
    <path class="cls-2" d="M28.49,25.71l3.04-5.26s3.23,5.18,3.04,5.26c-.19.07-6.07,0-6.07,0Z"/>
  </g>
</svg>