<?xml version="1.0" encoding="UTF-8"?>
<svg id="Layer_1" data-name="Layer 1" xmlns="http://www.w3.org/2000/svg" viewBox="0 0 110 46">
  <defs>
    <style>
      .cls-1 {
        fill: #fff;
      }
    </style>
  </defs>
  <path class="cls-1" d="M8.84,26.46c1.02-.02,2.04,0,3.07,0,.2,0,.41-.02.6.08.3.14.52.48.44.81-.38,1.71-.76,3.42-1.14,5.13-.13.58-.71.99-1.3.98-1.08,0-2.16,0-3.24,0-.39,0-.82-.3-.79-.72v-.09c.02-.29.1-.57.16-.85.32-1.42.64-2.84.95-4.26.09-.59.66-1.06,1.25-1.06M95.15,12.54c.43-.07.86-.05,1.29-.05,2.19,0,4.38,0,6.57,0,.21,0,.42.13.5.33.03.13.01.26,0,.39-.94,4.19-1.89,8.37-2.85,12.56-.09.36-.43.66-.81.64-.42,0-.85,0-1.27,0-.28,0-.5-.3-.45-.57.3-1.33.59-2.66.91-3.98.05-.22.08-.48-.06-.67-.11-.16-.31-.21-.49-.21-.92,0-1.84.01-2.76,0-.36,0-.57-.44-.43-.75.33-.8.95-1.48,1.72-1.87.72-.38,1.55-.43,2.35-.44.32,0,.62-.24.68-.55.18-.83.4-1.65.54-2.49.07-.31-.23-.59-.53-.58-1.18,0-2.36,0-3.55,0-.31-.01-.61.16-.76.43-.08.13-.1.28-.13.42-.78,3.48-1.58,6.95-2.36,10.42-.04.28-.17.55-.41.71-.17.12-.38.13-.58.13-.72,0-1.43,0-2.14,0-.26.01-.49-.23-.49-.49,0-.1.04-.2.06-.3.65-2.93,1.33-5.85,1.99-8.78.2-.83.3-1.7.75-2.44.54-1,1.58-1.7,2.7-1.85M83.23,14.33c-.29.07-.55.3-.63.59-.6,2.69-1.21,5.38-1.82,8.07-.09.4-.22.79-.22,1.21.02.25.27.42.5.43,1.14,0,2.27,0,3.41,0,.14,0,.3.01.44-.03.28-.09.5-.32.56-.61.17-.79.36-1.57.52-2.36.05-.27-.12-.62-.42-.63-.98-.02-1.96,0-2.94,0-.29,0-.58-.25-.54-.55.07-.47.35-.86.65-1.21.67-.82,1.74-1.24,2.78-1.27.37,0,.77.04,1.11-.14.16-.08.28-.24.32-.42.17-.72.34-1.44.5-2.17.04-.22.12-.48-.02-.68-.15-.22-.44-.25-.68-.24-1.17.02-2.35-.03-3.52.03M82.07,12.57c.58-.08,1.17-.05,1.76-.07,2.04,0,4.08,0,6.13,0,.25,0,.5.23.49.49-.01.12-.05.23-.07.35-.24,1-.45,2.02-.68,3.02-.12.52-.27,1.03-.5,1.51-.32.7-.95,1.2-1.64,1.5.55.39.87,1.06.92,1.72.05.43-.05.85-.13,1.27-.17.83-.38,1.66-.8,2.39-.58,1.01-1.73,1.63-2.88,1.66-2.53,0-5.05,0-7.58,0-.24,0-.46-.19-.5-.43-.02-.17.05-.32.08-.48.66-2.96,1.35-5.92,2.01-8.88.14-.54.21-1.09.4-1.61.25-.67.68-1.28,1.25-1.72.5-.4,1.12-.64,1.75-.73M68.99,12.54c.43-.07.86-.05,1.29-.05,2.17,0,4.35,0,6.52,0,.22,0,.45.12.54.32.05.11.03.24.01.36-.91,4.06-1.83,8.12-2.75,12.18-.06.33-.12.71-.43.91-.21.17-.49.15-.74.15-.36-.01-.73.02-1.09-.02-.24-.05-.39-.33-.34-.56.77-3.49,1.59-6.97,2.37-10.46.05-.22.11-.44.09-.66-.01-.12-.07-.26-.18-.32-.36-.22-.91,0-1.01.41-.43,1.85-.83,3.7-1.26,5.55-.1.41-.54.64-.94.62-.38-.02-.76.01-1.14-.02-.28-.03-.49-.33-.42-.6.4-1.81.8-3.62,1.22-5.43.05-.19,0-.42-.18-.53-.33-.17-.79-.06-.98.27-.11.19-.15.42-.2.63-.78,3.49-1.58,6.98-2.37,10.47-.08.37-.42.66-.8.66-.77,0-1.55,0-2.32,0-.28-.01-.51-.31-.44-.58.77-3.47,1.58-6.93,2.35-10.41.22-.87.73-1.68,1.46-2.21.5-.37,1.11-.58,1.73-.67M55.89,12.51c.54-.05,1.08-.01,1.61-.02,2.03,0,4.05,0,6.08,0,.2,0,.4.14.48.33.05.25-.04.5-.09.74-.9,4.02-1.82,8.04-2.73,12.06-.04.37-.33.72-.71.76-.45.02-.91,0-1.36,0-.31.02-.55-.32-.47-.61.26-1.16.52-2.31.78-3.47.07-.3.18-.6.15-.91-.02-.24-.26-.43-.5-.43-.95-.01-1.9.01-2.85,0-.33-.02-.55-.41-.43-.7.39-1.01,1.27-1.83,2.31-2.14.58-.18,1.2-.19,1.8-.21.31,0,.59-.25.65-.54.18-.83.4-1.66.54-2.5.06-.29-.21-.57-.5-.57-1.2,0-2.39,0-3.59,0-.38-.01-.74.26-.83.62-.81,3.61-1.64,7.21-2.45,10.82-.08.36-.41.67-.79.66-.76,0-1.52,0-2.28,0-.32.03-.59-.31-.5-.61.73-3.24,1.48-6.48,2.21-9.73.1-.47.21-.94.42-1.37.28-.6.7-1.14,1.25-1.51.53-.37,1.16-.58,1.8-.65M45.07,12.52c.14-.03.29-.02.43-.03.68,0,1.37,0,2.06,0,.3-.01.59.29.5.59-.68,3.11-1.4,6.21-2.1,9.32-.06.21-.11.45-.02.66.05.16.21.29.39.28.95.01,1.9,0,2.85,0,.34,0,.65.35.54.68-.26.67-.72,1.26-1.3,1.68-.64.46-1.43.67-2.21.69-1.36.01-2.72.01-4.07,0-.3.02-.58-.29-.51-.59.95-4.23,1.94-8.45,2.87-12.69.07-.28.31-.51.58-.6M33.92,12.54c.35-.06.72-.04,1.07-.05,2.26,0,4.53,0,6.79,0,.23,0,.47.17.49.41.02.18-.03.37-.07.54-.89,3.98-1.8,7.95-2.7,11.93-.06.26-.1.56-.29.76-.16.17-.39.27-.63.26-.42,0-.85,0-1.27,0-.29-.02-.49-.34-.42-.62.31-1.35.6-2.71.93-4.06.08-.3-.09-.71-.44-.73-.97-.03-1.95.01-2.92-.02-.32-.02-.54-.4-.42-.7.25-.65.7-1.21,1.26-1.62.49-.36,1.07-.58,1.67-.66.39-.05.78-.06,1.18-.07.31,0,.6-.25.66-.55.17-.76.35-1.51.51-2.27.03-.18.08-.38-.02-.55-.12-.2-.36-.27-.58-.26-1.18,0-2.36,0-3.55,0-.36.03-.68.31-.75.66-.8,3.59-1.63,7.18-2.44,10.77-.08.37-.42.68-.8.67-.77,0-1.55,0-2.33,0-.28,0-.51-.3-.45-.57.73-3.27,1.5-6.54,2.22-9.81.1-.45.21-.91.41-1.33.23-.48.54-.93.95-1.28.54-.47,1.22-.77,1.93-.87M24.62,12.53c.11-.03.22-.04.34-.04,1.11,0,2.22,0,3.33,0,.41,0,.78.38.75.8-.01.13-.05.25-.08.38-.32,1.44-.64,2.87-.96,4.3-.19.84-.67,1.6-1.32,2.16-.95.79-2.08,1.33-3.26,1.69-.95.3-1.93.5-2.91.69-.09.02-.19.05-.26.12-.04.09.03.19.12.2.27.07.55.08.82.12.87.14,1.73.4,2.51.83.43.25.86.53,1.19.91.62.71.97,1.68.83,2.62-.27,1.72-.72,3.41-1.08,5.11-.09.42-.41.78-.81.93-.25.11-.53.08-.79.08-1.01,0-2.02,0-3.02,0-.45.01-.84-.44-.74-.88.24-1.11.5-2.22.74-3.33.13-.62.23-1.25.17-1.88-.1-.56-.26-1.16-.7-1.55-.53-.44-1.14-.81-1.82-.99-.62-.18-1.28-.23-1.87-.5-.25-.12-.49-.26-.66-.48-.36-.48-.38-1.18-.07-1.69.15-.27.43-.45.7-.58.51-.23,1.07-.3,1.62-.39,1.08-.17,2.19-.31,3.18-.8.66-.31,1.31-.73,1.72-1.35.14-.21.24-.44.3-.69.37-1.62.73-3.24,1.1-4.86.1-.46.5-.83.95-.94M11.79,12.53c.2-.05.4-.04.6-.04,1.03,0,2.07,0,3.11,0,.44,0,.81.45.71.88-.38,1.71-.77,3.42-1.14,5.13-.14.56-.7.97-1.28.97-1.06,0-2.13,0-3.19,0-.29,0-.61-.12-.77-.38-.12-.19-.12-.43-.07-.64.36-1.6.71-3.19,1.07-4.79.03-.15.06-.31.13-.45.16-.34.48-.59.84-.69"/>
  <path class="cls-1" d="M80.36,28.57c1.12-.01,2.24,0,3.36,0-.05.26-.11.52-.16.78-.82,0-1.64,0-2.45,0-.08.41-.17.82-.25,1.24.78,0,1.56,0,2.34,0-.05.27-.11.54-.16.81-.78,0-1.57,0-2.35,0-.08.43-.17.86-.26,1.29.84,0,1.67,0,2.51,0-.05.26-.11.52-.16.78-1.13,0-2.27,0-3.4,0,.32-1.63.66-3.26.97-4.9M61.32,33.47c.32-1.64.65-3.27.98-4.91.31,0,.63,0,.94,0,.31,1.24.62,2.48.92,3.72.79-1.24,1.58-2.48,2.37-3.72.31,0,.61,0,.92,0-.33,1.63-.65,3.27-.98,4.9-.28,0-.56,0-.84,0,.23-1.14.46-2.28.68-3.42-.67,1.14-1.34,2.28-2.02,3.42-.26,0-.51,0-.77,0-.23-1.14-.45-2.28-.67-3.41-.23,1.14-.46,2.28-.68,3.41-.28,0-.56,0-.84,0M43.58,33.48c1.02-1.64,2.04-3.27,3.06-4.91.33,0,.65,0,.98,0,.38,1.64.76,3.27,1.14,4.91-.31,0-.63,0-.94,0-.1-.44-.19-.89-.29-1.33-.54,0-1.09,0-1.63,0,.15-.26.31-.52.46-.78.33-.01.67,0,1,0-.14-.6-.26-1.21-.41-1.81-.25.36-.46.75-.7,1.12-.57.94-1.14,1.88-1.7,2.82-.32,0-.65,0-.97,0M96.91,28.83c.96-.43,2.07-.37,3.06-.07-.05.28-.11.55-.16.83-.73-.26-1.55-.37-2.3-.16-.31.1-.59.38-.59.73-.03.17.07.38.26.41.52.07,1.06-.03,1.57.09.25.06.52.17.66.4.15.21.17.48.13.73-.04.42-.21.84-.52,1.14-.34.33-.8.5-1.27.56-.74.11-1.49.01-2.2-.19.05-.28.1-.55.16-.83.54.19,1.11.28,1.69.26.26-.01.54-.02.77-.16.26-.14.45-.43.45-.73,0-.16-.11-.33-.28-.36-.54-.12-1.1.03-1.64-.1-.31-.06-.6-.28-.68-.59-.17-.74.2-1.59.89-1.93M29.97,28.59c.72-.12,1.48-.08,2.17.17-.06.27-.11.55-.17.82-.62-.25-1.32-.35-1.98-.19-.35.09-.7.24-.94.52-.4.46-.55,1.09-.54,1.69,0,.35.15.73.47.91.44.26.99.22,1.47.14.1-.48.19-.97.29-1.45.3,0,.6,0,.91,0-.14.69-.27,1.37-.42,2.06-.85.29-1.8.37-2.66.08-.66-.2-1.07-.89-1.02-1.56,0-.8.21-1.62.71-2.26.42-.52,1.06-.82,1.71-.93M10.97,20.99c.63-.11,1.29.12,1.75.55.37.34.58.84.61,1.34.03.62-.24,1.24-.7,1.65-.3.27-.68.43-1.07.49-.78.1-1.6-.3-2-.98-.27-.43-.32-.96-.24-1.46.15-.8.84-1.45,1.64-1.59"/>
</svg>