<?xml version="1.0" encoding="UTF-8"?>
<svg id="Layer_1" data-name="Layer 1" xmlns="http://www.w3.org/2000/svg" viewBox="0 0 110 46">
  <defs>
    <style>
      .cls-1 {
        fill: #fff;
      }
    </style>
  </defs>
  <polygon class="cls-1" points="24.78 24.16 28.93 24.16 26.83 21.1 24.78 24.16"/>
  <path class="cls-1" d="M63.16,16.97l-.11-.17H6.33v12.4h50.92l1.41-2.1h8.04l1.34,1.95.1.15h3.39l-.37-.54-8.01-11.68ZM19.55,22.54v3.51l-.09.08c-1.13.96-2.78,1.45-4.94,1.45-3.75,0-5.99-1.71-5.99-4.57,0-1.46.61-2.66,1.76-3.47,1.06-.75,2.52-1.14,4.24-1.14,2.08,0,3.55.41,4.66,1.3l.21.17-.17.21-.73.92-.17.21-.21-.18c-.73-.61-1.62-1.02-3.61-1.02-2.65,0-4,1-4,2.97s1.31,2.98,4,2.98c1.42,0,2.49-.24,3.26-.73v-1.31h-4.14v-1.66h5.94v.27ZM32.8,27.42h-1.62l-.08-.11-1.03-1.5h-6.4l-1,1.5-.08.12h-2.06l.28-.41,5.77-8.59.08-.12h.39l.08.11,5.88,8.59.29.41h-.51ZM46.8,18.69v8.73h-1.91v-5.26l-3.69,3.54-.07.07h-.32l-.07-.07-3.9-3.56v5.28h-1.91v-9h.49l.07.07,5.48,5.01,5.26-5.01.07-.07h.49v.26ZM59.91,18.97l-.78,1.19-.08.12h-7.32v1.77h6.17l-.27.41-.74,1.14-.08.12h-5.08v1.99h3.77l-.27.41-.78,1.19-.08.12h-4.56v-8.88h10.36l-.27.41ZM60.45,24.43l2.19-3.25,2.23,3.25h-4.42Z"/>
  <polygon class="cls-1" points="103.31 16.8 89.28 16.8 88.93 16.8 88.93 17.16 88.93 19.27 88.93 19.62 89.28 19.62 94.75 19.62 94.75 28.84 94.75 29.2 95.1 29.2 97.48 29.2 97.84 29.2 97.84 28.84 97.84 19.62 103.31 19.62 103.67 19.62 103.67 19.27 103.67 17.16 103.67 16.8 103.31 16.8"/>
  <path class="cls-1" d="M84.09,24.46c2.78-.72,3.22-2.61,3.22-3.71,0-1.33-.52-2.34-1.56-3s-2.45-.94-4.43-.94h-8.42v12.4h3.08v-4.43h4.48l3.92,4.32.1.11h3.88l-.54-.6-3.75-4.14ZM81.13,22.09h-5.13v-2.53h5.13c3.04,0,3.04.67,3.04,1.25s0,1.27-3.04,1.27h0Z"/>
</svg>