<?xml version="1.0" encoding="UTF-8"?>
<svg id="Layer_1" data-name="Layer 1" xmlns="http://www.w3.org/2000/svg" viewBox="0 0 110 46">
  <defs>
    <style>
      .cls-1 {
        fill: #fff;
      }

      .cls-2 {
        fill: #25b7bc;
      }
    </style>
  </defs>
  <path class="cls-2" d="M14.21,17.98h-3.63l-.02-.04s.09-.1.14-.15c1.02-1.02,2.05-2.05,3.07-3.07.21-.21.43-.41.62-.63.46-.5,1.26-.5,1.75,0,.77.79,1.55,1.56,2.33,2.33.46.46.92.92,1.38,1.38.04.04.09.09.13.13,0,.01-.01.02-.02.04-.07,0-.14,0-.2,0-.8,0-1.61,0-2.41.02-.5.01-.99.09-1.46.24-.67.21-1.19.67-1.45,1.33-.3.75-.26,1.61-.27,2.39-.02.92,0,1.85.03,2.77.01.54.03,1.05.2,1.57.22.67.66,1.13,1.32,1.39.43.17.89.25,1.35.28.91.07,1.82.02,2.73.04.06,0,.13,0,.22,0-.03.04-.04.06-.06.08-1.28,1.28-2.55,2.56-3.83,3.83-.35.35-.77.45-1.24.28-.14-.05-.27-.15-.39-.23-.04-.02-.07-.06-.1-.1-2.67-2.66-5.33-5.33-7.99-7.99-.19-.19-.33-.4-.38-.67-.07-.41.03-.76.32-1.06.43-.44.88-.88,1.31-1.32.27-.27.54-.53.8-.8.08-.08.16-.12.28-.12.76,0,1.52,0,2.28,0,.56,0,1.12-.07,1.66-.25.54-.18,1-.48,1.29-.99.12-.21.21-.42.26-.69Z"/>
  <path class="cls-2" d="M19.84,19.92c.11,0,.23,0,.34,0,.52,0,1.03,0,1.55.01.26,0,.35.1.53.28.21.21.43.43.64.64.43.43.85.85,1.28,1.28.5.5.51,1.21.01,1.71-.71.72-1.43,1.43-2.14,2.14-.11.11-.27.08-.42.08-.2,0-.39,0-.59,0-.39,0-.79,0-1.18,0-.47,0-.93,0-1.4-.02-.44,0-.85,0-1.28-.1-.36-.08-.59-.32-.69-.69-.07-.26-.06-.53-.07-.79,0-.29-.01-.57-.02-.86,0-.66.01-1.33.01-1.99,0-.3,0-.6.07-.9.1-.37.33-.6.69-.71.45-.13.96-.1,1.43-.11.41,0,.81,0,1.22,0h0ZM19.56,22.48v1.79c.07,0,.61,0,.64,0v-1.79h-.64ZM19.56,22.13c.25,0,.4,0,.63,0,0-.06,0-.59,0-.59-.1,0-.59,0-.63,0v.59Z"/>
  <path class="cls-1" d="M45.92,20.43c.19,0,.35,0,.51,0,.59.01,1.19.03,1.78.05.18,0,.3.09.38.26.45,1.05.91,2.09,1.36,3.13.05.13.1.25.2.37v-3.75c.63-.13,1.23-.04,1.83-.05.08.27.12,5.72.05,6.19-.3.13-2.26.11-2.69-.03-.52-1.19-.99-2.44-1.65-3.6-.08,1.23.06,2.45-.02,3.68h-1.76c-.04-.71.04-1.39.02-2.07-.01-.69,0-1.37,0-2.06v-2.13h0Z"/>
  <path class="cls-1" d="M64.3,20.45c.17-.01.28-.03.4-.03,1.12,0,2.24,0,3.36,0,.23,0,.47.02.69.08.53.14.94.44,1.18.95.27.57.31,1.18.17,1.77-.15.66-.63,1.07-1.24,1.32-.1.04-.21.08-.35.14.53.65,1.1,1.33,1.63,1.97-.04,0-1.44,0-2.02-.01-.18,0-.28-.12-.39-.26-.45-.55-.91-1.09-1.37-1.63-.05-.06-.12-.11-.22-.2v2.11h-1.84v-6.22h0ZM68,23.04c.23-.42.13-.78-.24-.87-.55-.13-1.1-.06-1.67-.06v1.02c.65-.04,1.28.07,1.9-.1h0Z"/>
  <path class="cls-1" d="M98.76,20.45c-.05.19-.07.35-.13.49-.46,1.31-.92,2.61-1.38,3.92-.13.36-.23.73-.35,1.1-.07.22-.17.43-.26.67-.11.03-.22.08-.33.08-.76,0-1.52,0-2.28,0-.03,0-.07-.02-.1-.03-.23-.69-.46-1.38-.7-2.07-.23-.68-.48-1.36-.71-2.05-.23-.69-.54-1.35-.73-2.11.73-.03,1.38-.02,2.07.05.06.15.14.29.19.44.29.97.58,1.94.87,2.91.1.33.22.66.4.99.45-1.43.91-2.86,1.38-4.34.64-.13,1.32,0,2.06-.04h0Z"/>
  <path class="cls-1" d="M63.65,26.69h-4.6c-.11-.28-.12-5.89,0-6.26,1.49-.02,3,0,4.55,0,.09.53.05,1.05-.03,1.6h-2.75v.89h1.99c.03.44.03.84,0,1.28h-1.99v.8h2.84c.03.58.04,1.11,0,1.69h0Z"/>
  <path class="cls-1" d="M99.35,20.43c1.55,0,3.07-.01,4.6,0v1.6h-2.79v.87c.64.07,1.3-.04,1.97.09.01.4.04.79-.03,1.21h-1.94v.82h2.84c0,.57.03,1.1-.01,1.61-.27.11-4.01.14-4.63.05-.02-.11-.05-.23-.05-.35,0-1.84,0-3.68,0-5.52,0-.11.02-.22.04-.38h0Z"/>
  <path class="cls-1" d="M71.98,26.66s-.08.02-.12.02h-1.19c-.11,0-.39,0-.38-.01.13-.38.35-.74.52-1.1s.35-.74.52-1.11c.35-.74.7-1.47,1.05-2.21.28-.58.55-1.16.83-1.75.51-.07,1.03-.1,1.54-.02.06,0,.22.47.25.53.09.19.17.37.26.56.17.37.35.74.52,1.11.35.74.69,1.48,1.04,2.21.17.37.35.74.52,1.11.04.09.08.18.12.27.04.08.1.15.12.24.04.17-.17.14-.28.15-.2.01-3.41.07-4.21.03-.05,0-.1-.01-.12-.06,0-.03,0-.05,0-.08.13-.36.26-.72.39-1.08.02-.04.03-.09.07-.12.04-.02.08-.03.13-.03.54,0,1.07-.02,1.61-.03l-1.25-2.92c-.62,1.39-1.23,2.77-1.85,4.16-.02.04-.04.09-.08.12,0,0,0,0-.02,0h0Z"/>
  <path class="cls-1" d="M82.67,20.5v1.54h-.42c-.76,0-1.52,0-2.27,0-.48,0-.71.16-.75.63-.04.54-.04,1.09,0,1.64.04.46.33.68.85.7.51.02,1.03.01,1.54.02.23,0,.47,0,.7,0,.11,0,.23.02.35.04v1.58c-.11.02-.18.05-.26.04-1-.01-2,0-3-.05-.69-.04-1.29-.31-1.7-.89-.2-.28-.33-.59-.34-.94-.02-.8-.09-1.61-.03-2.4.08-1.08.76-1.74,1.9-1.91,1.11-.17,2.23-.08,3.35-.05.02,0,.04.02.09.05h0Z"/>
  <path class="cls-1" d="M33.33,25.06v1.6c-.09.02-.17.04-.24.04-.99-.01-1.98,0-2.97-.06-.37-.02-.75-.17-1.11-.29-.31-.11-.52-.34-.67-.63-.19-.39-.32-.8-.33-1.24-.02-.6-.02-1.21,0-1.82,0-.22.05-.44.1-.65.19-.8.67-1.31,1.5-1.46.29-.05.57-.11.86-.12.89-.01,1.77,0,2.66,0,.07,0,.13.02.22.03v1.56c-.14,0-.25.02-.36.02-.82,0-1.63,0-2.45,0-.45,0-.58.09-.7.52-.17.63-.17,1.27,0,1.9.08.31.27.51.61.54.21.02.42.04.63.04.62,0,1.24,0,1.85,0,.12,0,.25.02.39.03h0Z"/>
  <path class="cls-1" d="M58.33,20.46v1.56c-.64,0-1.29-.04-1.93,0-.09,0-.04,1.64-.04,1.77,0,.78.02,1.55.02,2.33v.46s0,.06-.02.08c-.02.01-.04.02-.06.02-.58.06-1.15.03-1.73,0-.06-.52-.01-1.04-.01-1.56,0-1.02,0-2.04,0-3.06-.64-.05-1.24,0-1.87-.03v-1.55c.13-.02.27-.05.4-.05,1.67,0,3.33,0,5,0,.07,0,.13.02.24.03h0Z"/>
  <path class="cls-1" d="M34.01,22.05v-1.54c.27-.1,5.15-.12,5.59-.02.08.49.04.99,0,1.54h-1.87c-.02.17-.04.31-.04.44,0,1.25,0,2.49,0,3.74,0,.14-.01.27-.02.46-.61.08-1.19.03-1.82.04v-4.66h-1.84,0Z"/>
  <path class="cls-1" d="M85.16,22.05h-1.86v-1.53c.29-.11,4.5-.15,5.56-.06.14.5.05,1.02.06,1.58h-1.94v4.64c-.62.07-1.21.02-1.83.03v-4.66h0Z"/>
  <path class="cls-1" d="M44.63,20.5c.08.27.1,5.81.01,6.19-.58.02-1.16.06-1.77-.05v-6.11c.26-.14,1.38-.16,1.76-.03h0Z"/>
  <path class="cls-1" d="M91.24,26.68h-1.73v-6.24h1.73v6.24Z"/>
</svg>