<?xml version="1.0" encoding="UTF-8"?>
<svg id="Layer_1" data-name="Layer 1" xmlns="http://www.w3.org/2000/svg" xmlns:xlink="http://www.w3.org/1999/xlink" viewBox="0 0 110 46">
  <defs>
    <style>
      .cls-1 {
        fill: #e50539;
        fill-rule: evenodd;
      }

      .cls-2 {
        mask: url(#mask-1);
      }

      .cls-3 {
        fill: #fff;
      }

      .cls-4 {
        mask: url(#mask);
      }

      .cls-5 {
        fill: none;
      }

      .cls-6 {
        clip-path: url(#clippath);
      }
    </style>
    <clipPath id="clippath">
      <rect class="cls-5" x="33.4" y="3.92" width="43.2" height="38.16"/>
    </clipPath>
    <mask id="mask" x="70.09" y="28.85" width="6.45" height="7.51" maskUnits="userSpaceOnUse">
      <g id="mask0_6_65" data-name="mask0 6 65">
        <path class="cls-3" d="M70.09,28.85h6.45v7.51h-6.45v-7.51Z"/>
      </g>
    </mask>
    <mask id="mask-1" x="64.72" y="4.03" width="3.75" height="7.09" maskUnits="userSpaceOnUse">
      <g id="mask1_6_65" data-name="mask1 6 65">
        <path class="cls-3" d="M64.72,4.03h3.75v7.09h-3.75v-7.09Z"/>
      </g>
    </mask>
  </defs>
  <g class="cls-6">
    <g>
      <path class="cls-1" d="M47.73,28.85l-1.27,5.06c-.11.4-.34.75-.72,1.04-.37.29-.77.44-1.18.44l1.65-6.53h-2.04l-.21.99-1.63,6.53h1.98c.97,0,1.88-.36,2.75-1.07.87-.71,1.42-1.55,1.66-2.52l.74-2.94.25-.99h-1.98Z"/>
      <path class="cls-1" d="M53.22,25.77c-.17-.2-.39-.3-.66-.3s-.53.1-.76.3c-.23.2-.37.43-.41.71-.05.29.01.53.18.72.16.2.38.3.66.3s.53-.1.76-.3c.23-.2.37-.44.41-.72.04-.28-.01-.51-.18-.71h0ZM51.36,34.65s0-.04.02-.07c.01-.03.02-.05.02-.06l1.42-5.66h-3.28l-.25.99h1.31l-1.18,4.67s-.03.1-.04.18c-.08.51.05.92.39,1.22.34.3.86.45,1.54.45h.29l.25-.99c-.39-.06-.56-.3-.49-.72h0ZM56.82,34.26c-.08.3-.26.57-.53.78-.27.22-.56.32-.87.32-.57,0-.81-.28-.72-.83,0,0,0-.03.02-.07.01-.04.02-.07.02-.09l.95-3.8c.13-.49.4-.74.82-.74h1.42l-1.11,4.42ZM58.67,34.83s0-.04.02-.06c0-.02.01-.04.02-.06l1.46-5.85h-3.41c-.71,0-1.37.2-1.98.6-.61.4-.99.9-1.14,1.5l-.82,3.31c-.02.06-.04.13-.04.19-.09.55.07,1.01.48,1.37.41.36.96.54,1.63.54h.31c.58,0,1.12-.2,1.62-.61.25.4.72.61,1.41.61h.7l.25-.99c-.38-.02-.54-.2-.49-.55ZM68.27,30.79l-.03.16-.82,3.31c-.09.35-.23.63-.43.82-.2.19-.41.29-.62.29-.2,0-.35-.09-.45-.27-.1-.18-.13-.4-.09-.68,0-.03.01-.05.02-.08,0-.03.02-.06.02-.08l.82-3.31c.08-.32.22-.59.41-.79.19-.2.4-.3.64-.3.2,0,.35.08.45.24.1.16.13.39.08.69ZM69.78,29.39c-.41-.36-.95-.54-1.62-.54h-.31c-.73,0-1.4.2-2,.61-.6.4-.98.9-1.12,1.49l-.84,3.31c-.02.06-.04.13-.04.19-.09.56.07,1.02.48,1.37.41.35.96.53,1.64.53h.29c.72,0,1.38-.21,1.99-.61.61-.41.99-.9,1.13-1.49l.84-3.31.03-.19c.09-.55-.07-1.01-.48-1.37"/>
      <g class="cls-4">
        <path class="cls-1" d="M75.88,28.85c-.8,0-1.49.21-2.07.64l.15-.64h-1.97l-1.89,7.51h1.98l1.03-4.11c.13-.5.39-.97.77-1.41.38-.44.81-.74,1.3-.91l-.24.98h1.08l.53-2.06h-.66Z"/>
      </g>
      <path class="cls-1" d="M38.47,31.05v-.02s.91-3.55.91-3.55c.07-.3.21-.54.42-.73.21-.19.46-.29.72-.29.25,0,.43.08.55.25.12.17.16.38.12.63l-.02.13-.91,3.55v.02h-1.79ZM42.6,26.03c-.45-.37-1.06-.56-1.83-.56-.84,0-1.57.21-2.22.63-.64.42-1.05.97-1.22,1.66l-.82,3.26c-.69,0-1.34,0-1.84,0-.71,0-1.28.58-1.28,1.29h2.79l-1.02,4.05h1.96l1.02-4.05h1.79l-.63,2.51s-.03.11-.04.19c-.07.42.01.76.25.99.24.24.6.35,1.08.35h.78l.25-.99c-.28-.02-.4-.17-.35-.46l1.79-7.15s0-.06.03-.12c.02-.06.02-.1.03-.12.1-.62-.07-1.12-.52-1.49ZM63.84,28.85l.45-1.74h-1.98l-.43,1.74h-.97l-.25.99h.97l-1.18,4.68s-.01.05-.02.1c-.01.05-.02.08-.02.1-.08.5.01.9.29,1.19.28.29.7.44,1.26.44h.7l.25-1.01c-.41-.04-.58-.27-.51-.69,0-.02,0-.04.02-.07,0-.03.02-.05.02-.06l1.18-4.68h.84l.25-.99h-.86ZM62.16,15.48l-4.36-.85,4.36-1.75.86.99-.85,1.61ZM42.04,23.3h0s0,0,0,0h0Z"/>
      <path class="cls-1" d="M60.03,16.06c-.16.23-.52.66-1.05.57-.26-.04-10.83-2.19-10.85-2.19-.07-.02-.06-.18.07-.16l11.76,1.62s.03,0,.05.02c.01.01.02.02.03.04,0,.02,0,.03,0,.05,0,.02,0,.03-.02.05h0ZM59.63,12.21l-1.59.81s-.37-.22.05-.41c.11-.05.35-.19.55-.29.11-.06.1-.22-.01-.26l-1.18-.47c.2-.16.51-.25.81-.17.17.05.89.35,1.36.55.14.06.11.19.02.24ZM55.9,13.3c-.17.12-1.28-.09-1.28-.09,0,0,1.23-1.1,2.41-1.24.35-.04,1.05.23,1.05.23,0,0-1.57.66-2.18,1.09ZM67.93,13.24c-.52-1.14-.9-2.12-1.04-2.35-.4-.67-.99-.64-1.5-.55-1.36.23-1.89.47-4.28,1.11-.35.1-1.02.29-1.38.17-.97-.33-1.26-.6-1.73-.55-.72.08-2.2.78-3.81,1.95-.5.36-.44.79-.53,1.08-.02.06.02.12.09.13.23.02,2.79.25,2.9.26-.02,0-.03-.02-.04-.04-.01-.02-.02-.04-.02-.06,0-.03.02-.07.05-.09.73-.39,3.37-1.79,4.97-2.42,2.19-.87,2.71-.96,3.38-1.02.16-.01.37,0,.53,0,.13.01.24.09.28.21.3.89,1.19,2.89,1.65,3.55,0,0-.08.16-.24.17-.12,0-.37-.23-.53-.37-.02-.01-.04-.02-.06-.02-.02,0-.04,0-.06.02-2.62,1.62-4.51,2.32-4.78,2.42-.02,0-.05,0-.07,0l-1.34-.5s.05-.04.18-.29c.03-.06.04-.12.04-.17-.01-.21-.22-.26-.31-.27-.36-.04-9.92-1.46-12.32-1.69-1.02-.1-1.99.42-2.41.96h0s1.36,1.43,1.36,1.43c.01.02.03.03.05.03.02,0,.04,0,.06,0l1.07-.49s.15.45,0,.53c-.89.49-1.75.92-2.58,1.36-.33.18-.33.51-.43.98-.05.2-.07.38-.07.38,0,0,1.86-.93,3.01-1.48.04-.02.08-.01.12.02.16.18.22.22.33.33.01.01.02.02.02.04,0,.02,0,.03,0,.05,0,.02,0,.03-.02.04,0,.01-.02.02-.04.03-.27.14-.55.29-.76.42-.17.1,0,.44,0,.44l3.1-1.47s.19.19-.15.4c-.53.33-5.42,2.83-5.84,2.84-1.11.03-3.2-2.06-3.96-2.38-.64-.27-1.32.17-2.26.72-.25.15-.1.52-.1.52l1.35-.68s.17.19-.02.31c-.65.41-1.6.83-1.75.93-.21.15-.13.87-.13.87l1.28-.59s.09-.01.1,0l2.74,2.61c.16-.04.31-.08.51-.17l-2.28-2.43s-.02-.03-.02-.04c0-.02,0-.03,0-.05,0-.02,0-.03.02-.04s.02-.02.04-.03c.23-.12.51-.21.91.1.33.25,1.49,1.19,2.62,1.09.37-.03.38.08.38.08,0,0-.48.23-1.04.54-.28.16-.05.56-.05.56,2.89-1.19,6.46-2.67,6.96-2.88.02,0,.04,0,.05,0,.02,0,.03,0,.05.02l.84.66c.12.19,6.07-2.1,7.91-3.03.1-.05,1.04,0,1.49-.01.21,0,.2.09.2.09,0,0-14.9,5.94-18.56,5.8h0s-.78.34-.78.34c.46.3.35.82,1.13.42.05.11.1.22.16.34q.15.33,1.14,0c2.8-.95,15.37-4.7,18.19-5.87,1.59-.66,3.79-1.56,5.16-2.41,1.35-.84,1.63-1.27.89-2.87h0ZM67.67,11.23s-.02,0-.03,0c-.01,0-.02.01-.03.02l.11-.03s-.03,0-.05,0ZM71.68,19.6l-.02.03-.02-.03s-1.39-2.05-1.89-2.84c-.15-.24.03-.36.03-.36h.02s.01,0,.01,0c.07.09,1.7,2.21,1.91,2.6.16.29-.03.58-.03.59ZM72.01,19.18c-.09-.35-.74-2.7-1.11-3.56l-1.71-3.06c-.16.22-.35.45-.54.63-.03.03-.07.05-.11.07-.05.02-.1.03-.16.04l.92,3.02c.14.49.46.9.73,1.32.14.21,1.12,1.67,1.49,2.23.08.12.25.12.33,0,.14-.21.2-.46.15-.67Z"/>
      <g class="cls-2">
        <path class="cls-1" d="M66.97,7.62h-.02s-.01,0-.01,0c-.07-.09-1.69-2.21-1.91-2.6-.16-.29.03-.58.04-.59l.02-.03.02.03s1.4,2.06,1.89,2.84c.15.24-.03.35-.03.36ZM67.48,7.83c-.19-.63-.51-1.04-.79-1.47-.14-.21-1.16-1.73-1.51-2.26-.07-.1-.22-.1-.28,0-.15.22-.21.49-.15.72.09.35.72,2.69,1.09,3.55l1.56,2.74s.09-.08.14-.1c.04-.02.08-.03.12-.03.21-.01.53-.01.82,0l-.99-3.15Z"/>
      </g>
      <path class="cls-1" d="M68.02,12.06l-.25-.57s-.04-.08.06-.13c0,0,.02,0,.03-.01,0,0,1.02-.04,1.33.03.17.03.18.09.18.09l-1.35.58h0ZM69.41,11.23c-.42-.09-1.23-.1-1.71-.07-.02,0-.03,0-.05,0-.01,0-.02,0-.03,0-.01,0-.02.01-.03.02-.05.04-.09.12-.06.18.22.56.46,1.1.73,1.64.04.07.14.09.22.05.02,0,.03-.02.04-.03.41-.38.8-.92,1.04-1.46.07-.17.03-.3-.15-.34ZM64.23,11.39s-.19.79-.49,1.71l-.56-.71-.45.21.83,1.05c-.26.71-.57,1.41-.9,1.82l.83-.38c.19-.17.34-.53.46-.95l.45.58.46-.21-.77-.97c.17-.88.21-1.84.15-2.14ZM60.89,39.88h-11.84c-.14,0-.28-.06-.38-.16-.1-.1-.16-.24-.16-.38,0-.14.06-.28.16-.38.1-.1.24-.16.38-.16h11.84c.14,0,.28.06.38.16s.16.24.16.38c0,.14-.06.28-.16.38-.1.1-.24.16-.38.16ZM58.74,42h-7.53c-.14,0-.28-.06-.38-.16-.1-.1-.16-.24-.16-.38,0-.14.06-.28.16-.38.1-.1.24-.16.38-.16h7.53c.14,0,.28.06.38.16.1.1.16.24.16.38,0,.14-.06.28-.16.38-.1.1-.24.16-.38.16Z"/>
    </g>
  </g>
</svg>