<?xml version="1.0" encoding="UTF-8"?>
<svg id="Layer_1" data-name="Layer 1" xmlns="http://www.w3.org/2000/svg" xmlns:xlink="http://www.w3.org/1999/xlink" viewBox="0 0 110 46">
  <defs>
    <style>
      .cls-1 {
        fill: url(#linear-gradient-2);
      }

      .cls-2 {
        fill: #fff;
      }

      .cls-3 {
        fill: url(#linear-gradient);
      }
    </style>
    <linearGradient id="linear-gradient" x1="24.58" y1="16.68" x2="45.46" y2="16.68" gradientTransform="translate(0 4)" gradientUnits="userSpaceOnUse">
      <stop offset="0" stop-color="#ec1c24"/>
      <stop offset=".3" stop-color="#ea2e30"/>
      <stop offset=".7" stop-color="#e93a37"/>
      <stop offset="1" stop-color="#e93e3a"/>
    </linearGradient>
    <linearGradient id="linear-gradient-2" y1="-254.42" y2="-254.42" gradientTransform="translate(0 -233.74) scale(1 -1)" xlink:href="#linear-gradient"/>
  </defs>
  <path class="cls-2" d="M103.13,16.94h-16.97v1.95h7.03v10.11h2.85v-10.05h7.03v-2.01h.06Z"/>
  <g id="mask0_934_4114" data-name="mask0 934 4114">
    <path class="cls-2" d="M103.13,16.94h-16.97v1.95h7.03v10.11h2.85v-10.05h7.03v-2.01h.06Z"/>
  </g>
  <path class="cls-2" d="M69.97,22.97v-1.95c0-.61.06-1.28.11-1.95.95-.06,1.9-.17,2.85-.17h5.69c.95,0,1.9.11,2.85.17.06.67.11,1.34.17,1.95,0,.61.06,1.28.06,1.95s0,1.34-.06,1.95c0,.61-.06,1.28-.17,1.95-.95.06-1.9.17-2.85.17h-5.69c-.95,0-1.9-.11-2.85-.17-.06-.67-.11-1.34-.11-1.95v-1.95ZM84.49,28.78c.06-.95.11-1.95.17-2.9,0-.95.06-1.9.06-2.9s0-1.95-.06-2.9c0-.95-.11-1.9-.17-2.9-2.9-.28-5.81-.45-8.65-.45s-2.9,0-4.3.11c-1.45.06-2.9.17-4.35.33-.06.95-.11,1.95-.17,2.9,0,.95-.06,1.9-.06,2.9s0,1.95.06,2.9c0,.95.11,1.9.17,2.9,1.45.17,2.9.28,4.35.33,1.45.06,2.9.11,4.3.11,2.85,0,5.75-.17,8.65-.45h0Z"/>
  <path class="cls-2" d="M64.22,16.94h-2.85v8.49l-7.76-8.49h-6.59v12.06h2.85v-10.11h2.07l9.44,10.11h2.85s0-12.06,0-12.06Z"/>
  <g id="mask1_934_4114" data-name="mask1 934 4114">
    <path class="cls-2" d="M64.22,16.94h-2.85v8.49l-7.76-8.49h-6.59v12.06h2.85v-10.11h2.07l9.44,10.11h2.85s0-12.06,0-12.06Z"/>
  </g>
  <path class="cls-2" d="M20.61,23.98c.11.95.11,2.01,0,3.01-4.41.33-9.04.28-13.46,0v2.01c1.34.11,2.68.17,4.02.22,1.34,0,2.68.06,4.02.06s2.68,0,4.02-.11c1.34-.06,2.68-.17,4.02-.28.33-2.12.33-4.52,0-6.7-3.01-.5-10.27-.39-13.46-.33-.11-.89-.11-1.84,0-2.74.67-.06,1.4-.11,2.07-.17.67,0,1.4-.06,2.12-.11h4.75c.78,0,1.51,0,2.29.11s1.45.06,2.18.11v-2.01c-1.34-.11-2.68-.17-4.02-.22-1.34,0-2.68-.06-4.02-.06-2.62,0-5.3.11-7.98.39-.39,2.07-.39,4.3,0,6.36,4.47.56,10.16.28,13.46.39v.06Z"/>
  <g id="mask2_934_4114" data-name="mask2 934 4114">
    <path class="cls-2" d="M20.61,23.98c.11.95.11,2.01,0,3.01-4.41.33-9.04.28-13.46,0v2.01c1.34.11,2.68.17,4.02.22,1.34,0,2.68.06,4.02.06s2.68,0,4.02-.11c1.34-.06,2.68-.17,4.02-.28.33-2.12.33-4.52,0-6.7-3.01-.5-10.27-.39-13.46-.33-.11-.89-.11-1.84,0-2.74.67-.06,1.4-.11,2.07-.17.67,0,1.4-.06,2.12-.11h4.75c.78,0,1.51,0,2.29.11s1.45.06,2.18.11v-2.01c-1.34-.11-2.68-.17-4.02-.22-1.34,0-2.68-.06-4.02-.06-2.62,0-5.3.11-7.98.39-.39,2.07-.39,4.3,0,6.36,4.47.56,10.16.28,13.46.39v.06Z"/>
  </g>
  <path class="cls-2" d="M36.47,25.15h-2.9v3.85h2.9v-3.85Z"/>
  <path class="cls-2" d="M36.47,25.15h-2.9v3.85h2.9v-3.85Z"/>
  <g id="mask3_934_4114" data-name="mask3 934 4114">
    <path class="cls-2" d="M36.47,25.15h-2.9v3.85h2.9v-3.85Z"/>
  </g>
  <path class="cls-3" d="M36.47,22.8l5.58-5.86h3.46v1.95h-2.07l-5.25,5.53h-6.25l-5.25-5.53h-2.07v-1.95h3.46l5.58,5.86v-5.86h2.85v5.86h-.06Z"/>
  <g id="mask4_934_4114" data-name="mask4 934 4114">
    <path class="cls-1" d="M36.47,22.8l5.58-5.86h3.46v1.95h-2.07l-5.25,5.53h-6.25l-5.25-5.53h-2.07v-1.95h3.46l5.58,5.86v-5.86h2.85v5.86h-.06Z"/>
  </g>
</svg>