<?xml version="1.0" encoding="UTF-8"?>
<svg id="Layer_1" data-name="Layer 1" xmlns="http://www.w3.org/2000/svg" viewBox="0 0 110 46">
  <defs>
    <style>
      .cls-1 {
        fill: #e40707;
      }
    </style>
  </defs>
  <path class="cls-1" d="M19.05,9.92c.09.04.17.03.28.04,2.88.21,5.58,1.42,7.69,3.38,5.38,4.98,5.6,13.56.52,18.83-2.2,2.28-5.16,3.71-8.33,3.89l-.56.03c-.18,0-.37,0-.55,0l-.56-.03c-3.17-.18-6.13-1.6-8.33-3.89s-3.47-5.25-3.64-8.4c-.18-3.36.83-6.55,2.95-9.14s5.43-4.39,8.91-4.66c.11,0,.18,0,.24-.04h1.39ZM27.34,31.69c4.76-5.12,4.47-13.13-.54-17.92-4.58-4.38-11.81-4.56-16.6-.3-3.05,2.72-4.65,6.79-4.19,10.92.39,3.57,2.26,6.83,5.19,8.94,5.07,3.64,11.94,2.88,16.14-1.63Z"/>
  <path class="cls-1" d="M38.09,24.36c.45.65.5,1.53.13,2.21-.26.48-.71.77-1.19.98-.5.2-1.01.24-1.56.24h-2.24s.03-7.32.03-7.32l1.65-.06c.57-.02,1.12-.01,1.67.13.34.12.67.24.93.5.49.49.64,1.26.34,1.89-.16.33-.46.52-.77.72.38.18.76.34,1.01.72ZM36.58,22.67c.1-.31.07-.68-.2-.89-.22-.18-.55-.26-.84-.25h-.91s0,1.75,0,1.75c.63.03,1.7.14,1.94-.6ZM36.51,24.5c-.6-.26-1.24-.2-1.87-.18v2.38c.68.07,1.9.17,2.27-.6.28-.59.11-1.38-.4-1.6Z"/>
  <path class="cls-1" d="M85.92,27.82v-1.54s-.02-2.06-.02-2.06c0-.23-.09-.44-.26-.58-.78-.64-1.68.15-1.68.39v3.78s-1.33,0-1.33,0v-5.37s.93,0,.93,0l.31.43c.85-.77,2.22-.69,3.09,0,.7-.55,1.62-.7,2.45-.4.64.23,1.01.77,1.1,1.45v3.88s-1.32,0-1.32,0v-3.48c-.01-.29-.13-.61-.36-.76-.52-.35-1.21-.18-1.57.33v2.64s-.02,1.26-.02,1.26h-1.32Z"/>
  <path class="cls-1" d="M58.93,27.82v-3.63c0-.24-.12-.46-.31-.59-.76-.54-1.62.17-1.62.47v3.75s-1.33,0-1.33,0v-5.36s.91-.01.91-.01l.24.43c.86-.77,2.2-.69,3.11,0,.8-.61,1.89-.75,2.78-.24.45.26.77.77.77,1.31l.02,3.86h-1.32s0-3.47,0-3.47c0-.27-.1-.58-.31-.74-.52-.39-1.24-.22-1.59.31v3.89s-1.33,0-1.33,0Z"/>
  <path class="cls-1" d="M102.65,29.85c-1.13.2-2.25,0-3.2-.66l.83-.98c.71.61,1.64.76,2.49.44.14-.08.31-.2.34-.36.05-.27-.19-.48-.45-.5-.94-.08-1.49.21-2.35-.01-.31-.08-.55-.27-.64-.55-.18-.59.19-.9.65-1.22-.86-.55-1.17-1.69-.68-2.58.23-.42.62-.7,1.05-.88.75-.31,1.57-.26,2.31.05l.51-.55.93.79-.6.43c.35.63.41,1.35.12,2-.37.82-1.22,1.22-2.1,1.12-.29-.03-.92,0-.89.36.11.14.34.14.5.11.77-.14,1.33-.24,2.09.02.55.19.87.65.88,1.23.01,1.08-.84,1.52-1.81,1.75ZM102.8,24.37c0-.55-.45-1-1-1s-1,.45-1,1,.45,1,1,1,1-.45,1-1Z"/>
  <path class="cls-1" d="M41.31,29.2l.84-.99c.71.62,1.68.8,2.52.41.19-.09.32-.22.31-.41s-.14-.36-.35-.4c-.88-.2-1.61.21-2.51-.05-.28-.08-.51-.29-.58-.52-.18-.57.19-.91.67-1.22-.52-.32-.82-.83-.9-1.42-.09-.63.12-1.22.59-1.64.8-.72,2.01-.73,2.97-.34l.49-.57.93.8-.6.42c.39.71.43,1.59-.02,2.28s-1.24.94-2.02.86c-.31-.03-.79,0-.85.3,0,.03.05.1.09.12.44.17,1.08-.21,2.01-.07.38.06.78.16,1.06.45.53.58.46,1.58-.17,2.07-1.19.92-3.17.82-4.47-.07ZM44.65,24.38c0-.56-.45-1.01-1.01-1.01s-1.01.45-1.01,1.01.45,1.01,1.01,1.01,1.01-.45,1.01-1.01Z"/>
  <path class="cls-1" d="M74.47,24.96v-1.12s2.45,0,2.45,0v3.29c-.36.27-.76.44-1.18.58-1.19.33-2.65.37-3.71-.35-.71-.48-1.18-1.2-1.37-2.03s-.19-1.64.04-2.43c.35-1.24,1.34-2.14,2.58-2.41.48-.11.94-.14,1.43-.11.69.05,1.33.27,1.89.71l-.58,1.07c-.52-.35-1.04-.57-1.64-.61-.98-.03-1.84.49-2.2,1.41-.52,1.34-.22,3.29,1.46,3.74.66.18,1.34.09,1.9-.3v-1.44s-1.07,0-1.07,0Z"/>
  <path class="cls-1" d="M68.37,26.41l.52.97c-.77.51-1.63.56-2.5.51s-1.75-.55-2.13-1.39c-.33-.74-.36-1.58-.1-2.35.34-.99,1.22-1.65,2.25-1.78.87-.11,1.76.11,2.4.72s.84,1.57.6,2.44h-4.04c.06.43.23.86.6,1.07.74.42,1.67.34,2.39-.18ZM68.18,24.55c-.04-.19-.08-.33-.14-.48-.29-.74-1.41-.8-1.98-.47-.35.2-.52.57-.62.96h2.74Z"/>
  <path class="cls-1" d="M80.63,27.32c-.83.85-2.83.82-3.35-.32-.25-.55-.22-1.23.1-1.75.57-.93,2.08-1.11,3.11-.96-.06-.56-.32-.78-.88-.88s-1.08,0-1.62.2l-.28-.98c1-.38,2.08-.42,3.08-.03.45.17.75.6.88,1.05.43,1.47-.21,3.09.62,3.9-.29.38-.85.47-1.25.22-.17-.1-.28-.31-.4-.46ZM80.04,26.74c.54-.27.46-.95.46-1.45-.61-.11-1.82-.09-2.01.64-.07.28-.05.64.21.81.38.25.92.21,1.34,0Z"/>
  <path class="cls-1" d="M97.58,23.93c-.33-.76-1.62-.62-2.15-.02v3.89s-1.32,0-1.32,0v-5.35s.96,0,.96,0l.21.46c.69-.67,1.95-.73,2.76-.31.67.35,1.01,1.07,1.01,1.82v3.4s-1.32,0-1.32,0v-3.28c0-.21-.06-.43-.14-.61Z"/>
  <polygon class="cls-1" points="50.56 27.79 49.16 27.81 49.16 21.65 46.71 21.65 46.71 20.47 52.18 20.47 52.19 21.65 50.56 21.65 50.56 27.79"/>
  <polygon class="cls-1" points="39.42 27.81 39.42 23.48 38.7 23.47 38.7 22.45 40.76 22.45 40.76 27.8 39.42 27.81"/>
  <polygon class="cls-1" points="53.34 27.8 53.34 23.48 52.6 23.48 52.6 22.45 54.67 22.45 54.67 27.8 53.34 27.8"/>
  <polygon class="cls-1" points="91.78 27.81 91.77 23.48 91.04 23.47 91.03 22.45 93.1 22.45 93.1 27.8 91.78 27.81"/>
  <rect class="cls-1" x="52.6" y="20.48" width="2.06" height="1.17"/>
  <rect class="cls-1" x="38.7" y="20.48" width="2.07" height="1.17"/>
  <rect class="cls-1" x="91.04" y="20.48" width="2.07" height="1.17"/>
  <path class="cls-1" d="M28.35,29.48c-4.07,1.8-8.96.2-13.18-.15-2.19-.18-4.3-.07-6.34.82-2.03-2.79-2.75-6.32-2.04-9.7.78-3.72,3.27-6.88,6.72-8.46s7.49-1.39,10.78.55c2.64,1.55,4.59,4.07,5.44,7.02.95,3.3.51,7.04-1.39,9.92ZM18.36,15.81l1.86,1.35-.69-2.21,1.86-1.39h-2.3s-.73-2.23-.73-2.23l-.72,2.22-2.29.02,1.85,1.38-.68,2.21,1.84-1.35ZM13.27,16.38c.35.2.6.35.96.5l-.46-1.01.78-.78-1.11.12-.48-.96-.21,1.1-1.12.15.98.55-.18,1.1.82-.77ZM23.47,16.44l.8.76-.17-1.11.97-.55-1.1-.15-.22-1.1-.49.98-1.09-.13.78.79-.46,1.01.98-.51ZM9.83,18.17l.62.12-.39-.5.32-.56-.6.23-.41-.48.03.66-.62.25.63.17.06.64.35-.52ZM26.88,18.17l.34.52.07-.65.63-.16-.6-.26.04-.66-.43.49-.58-.23.32.56-.41.5.63-.12ZM25.74,24.31v1.76c-.66.47-1.77.44-2.42.09-1.46-.78-1.64-2.73-1.19-4.15.2-.63.59-1.13,1.15-1.46.64-.33,1.36-.37,2.04-.13.43.16.81.38,1.17.68l.83-1.62c-.44-.42-.98-.69-1.56-.85-.72-.2-1.44-.2-2.17-.07-1.54.27-2.77,1.31-3.31,2.78-.34.91-.4,1.86-.3,2.83.23,2.14,1.62,3.86,3.85,4.03,1.25.09,2.87-.24,3.84-1.08v-4.55s-3.17,0-3.17,0v1.74s1.24,0,1.24,0ZM15.84,26.81c.61-.92.68-2.09.14-3.04-.27-.48-.73-.78-1.23-1.04,1.04-.69,1.23-1.73.71-2.8-.39-.7-1.05-1.23-1.85-1.36-.56-.09-1.11-.09-1.67-.04-1.05.09-2.09.53-2.61,1.48v.59s-.01,6.54-.01,6.54c.73.47,1.51.82,2.38.9.77.07,1.53.04,2.29-.09s1.39-.51,1.85-1.14ZM19.16,28.04v-7.61s1.06,0,1.06,0c.62-.89,1.29-1.52,2.31-1.93h-8.09c.89.42,1.31,1.06,1.65,1.93h1.12s0,7.63,0,7.63h1.94Z"/>
  <path class="cls-1" d="M24.36,33.44c-1.01.58-2.06,1.02-3.18,1.3-.21.05-.37.05-.56-.07l-2.62-1.58-2.32-1.4c-.85-.51-1.75-.86-2.7-1.14.88.03,1.7.18,2.53.45l3.64,1.18c1.75.59,3.33,1.07,5.21,1.25Z"/>
  <path class="cls-1" d="M27.95,30.1c-.61.85-1.26,1.57-2.06,2.2-1.39.22-3.87-.34-5.22-.77l-3.85-1.24-1.47-.45c3.4.34,6.36,1.18,9.79.89.97-.08,1.87-.27,2.8-.62Z"/>
  <path class="cls-1" d="M15.36,33.86c.58.38,1.13.73,1.69,1.16-2.2-.27-4.22-1.13-5.96-2.48.81.01,1.59.15,2.37.38.67.25,1.27.56,1.9.94Z"/>
  <path class="cls-1" d="M13.48,23.85c.76.34.85,1.36.42,1.99-.2.29-.47.39-.8.41-.57.04-1.13.05-1.66-.22v-2.33s1.15,0,1.15,0c.31,0,.6.06.89.15Z"/>
  <path class="cls-1" d="M13.28,21.95c-.38.27-1.36.17-1.82.18v-.83c-.01-.23.05-.51.22-.68.49-.48,1.34-.44,1.78.1.3.37.2.96-.18,1.23Z"/>
</svg>