<?xml version="1.0" encoding="UTF-8"?>
<svg id="Layer_1" data-name="Layer 1" xmlns="http://www.w3.org/2000/svg" viewBox="0 0 110 46">
  <defs>
    <style>
      .cls-1 {
        fill: #fff;
      }

      .cls-2 {
        fill: #fec210;
      }
    </style>
  </defs>
  <path class="cls-2" d="M32.88,8.87c.02.9-.36,1.8-.45,2.76-.29,2.97,2.63,2.64,4.09,3.3-.53.53-1.15.46-1.7.53-2.27.29-4.07,1.35-5.34,3.22-.56.83-.89,1.76-1.7,2.61-.2-1.04.32-1.87.39-2.82.1-1.34-.44-2.45-1.79-2.76l-2.25-.52v-.19c.35-.35.9-.34,1.44-.42,3.96-.57,5.26-2.41,6.92-5.72h.37Z"/>
  <path class="cls-1" d="M58.24,37.13h-.78l-1.38-5.04-2,5.04h-1.09l-1.99-5.09-1.39,5.09h-.94c-.04-.41.07-.83.21-1.28l1.47-4.86c.29-.09,1.08-.29,1.22.05l1.97,4.83,2-4.88c.24-.21.86-.09,1.2-.03l1.63,5.46c.08.28-.03.56-.13.72Z"/>
  <path class="cls-1" d="M78.28,37.13h-7.24c.02-.2-.14-.81.12-.89l6.68-.06c.23-.3.26-1.13-.02-1.34l-5.95-1.05c-.71-.13-.86-.88-.87-1.41,0-.47.12-1.37.81-1.42,2.15-.17,4.3-.01,6.4-.06.06.38.14.85-.19.86l-5.86.07c-.27.06-.24,1.05.04,1.1l5.89,1.02c.65.11.85.77.9,1.29.09.88-.17,1.37-.72,1.89Z"/>
  <path class="cls-1" d="M34.68,37.13h-6.04c-.05-.33-.57-.52-.58-.93-.03-1.52-.06-2.93.01-4.44.02-.38.55-.86.91-.86h5.73c.04.37.07.57-.02.86l-5.67.03.03,4.4,5.24-.02c.08-.63.09-1.18-.02-1.77l-3.01-.08c-.15-.18-.13-.68.04-.82l3.96.02c-.01,1.03.44,2.13-.05,2.81l-.56.79Z"/>
  <path class="cls-1" d="M67.82,37.13h-6.1c-.06-.32-.59-.51-.6-.91-.04-1.83-.05-3.55.01-5.33l6.56.04c.21.02.22.83-.05.83l-5.51.03c-.09.55-.1,1.05,0,1.66l5.28.08c.12.26.13.83-.15.83l-5.13.04c-.08.63-.16,1.25.04,1.8h5.61c.08.41.03.67.03.93Z"/>
  <path class="cls-1" d="M46.27,37.13h-.87c-.2-.5-.51-.94-.9-1.49l-4.89.06c-.43.38-.65,1.18-1.17,1.44h-.57c-.1-.42.06-.81.33-1.21l3.35-4.96c.36-.12.69-.12,1.03.02l3.36,4.98c.26.39.42.76.33,1.17ZM43.85,34.66l-1.81-2.79-1.79,2.83,3.6-.04Z"/>
  <g>
    <path class="cls-1" d="M57.6,8.87l1.36,2.28c-.8,1.83-1.39,3.74-2.31,5.52-.44.85-1.49,1.12-2.1,1.84l1.22,2.26-2.37,5.64c-.51,1.2-1.74,1.89-3.07,1.89h-22.26s3.95-9.86,3.95-9.86c.5-1.24,1.77-1.92,3.08-1.95h15.52s1.06-2.73,1.06-2.73l-15.45-.02c-.55,0-1.01-.33-1.23-.59-.34-.41-.43-.95-.24-1.44l1.09-2.83h21.75ZM48.53,23.46l1.13-2.97h-12.29s-1.15,2.97-1.15,2.97h12.31Z"/>
    <path class="cls-1" d="M65.41,8.87h20.45v.14c-.88,1.56-1.26,4.7-4.1,4.71l-14.32.04-1.02,2.69,12.46.07c-.49,1.99-2.2,5.09-4,5.12l-10.66.17-1.78,4.34c-1.15,2.81-4.28,2.11-7,2.06l6.87-17.03,3.1-2.31Z"/>
  </g>
</svg>