<?xml version="1.0" encoding="UTF-8"?>
<svg xmlns="http://www.w3.org/2000/svg" xmlns:xlink="http://www.w3.org/1999/xlink" width="50px" height="50px" viewBox="0 0 50 26" version="1.1">
<g id="surface1">
<path style=" stroke:none;fill-rule:nonzero;fill:rgb(94.509804%,1.176471%,1.176471%);fill-opacity:1;" d="M 25.304688 0.0664062 C 25.46875 0.171875 25.613281 0.296875 25.757812 0.429688 C 25.84375 0.5 25.925781 0.574219 26.011719 0.644531 C 26.050781 0.679688 26.089844 0.714844 26.132812 0.75 C 26.285156 0.878906 26.441406 1.003906 26.597656 1.121094 C 26.957031 1.398438 27.3125 1.679688 27.664062 1.960938 C 27.78125 2.050781 27.894531 2.140625 28.011719 2.234375 C 28.101562 2.304688 28.101562 2.304688 28.195312 2.378906 C 28.359375 2.511719 28.527344 2.644531 28.699219 2.773438 C 28.800781 2.855469 28.902344 2.9375 29.007812 3.015625 C 29.054688 3.054688 29.105469 3.09375 29.15625 3.132812 C 29.433594 3.355469 29.679688 3.570312 29.890625 3.855469 C 29.910156 4.070312 29.910156 4.070312 29.890625 4.246094 C 29.914062 4.269531 29.9375 4.289062 29.960938 4.3125 C 29.96875 4.425781 29.972656 4.539062 29.972656 4.65625 C 29.976562 4.726562 29.976562 4.800781 29.976562 4.875 C 29.980469 4.996094 29.980469 4.996094 29.980469 5.117188 C 29.980469 5.199219 29.984375 5.28125 29.984375 5.363281 C 29.988281 5.578125 29.992188 5.796875 29.996094 6.011719 C 30 6.230469 30.003906 6.453125 30.007812 6.671875 C 30.011719 7.105469 30.019531 7.539062 30.027344 7.96875 C 30.066406 7.941406 30.101562 7.914062 30.140625 7.886719 C 30.316406 7.757812 30.492188 7.632812 30.664062 7.503906 C 30.722656 7.460938 30.785156 7.417969 30.84375 7.371094 C 31.386719 6.976562 31.945312 6.617188 32.523438 6.269531 C 32.566406 6.246094 32.609375 6.21875 32.652344 6.191406 C 37.476562 3.300781 43.316406 1.738281 49.527344 1.109375 C 49.773438 1.214844 49.851562 1.285156 50 1.503906 C 49.972656 1.921875 49.785156 2.34375 49.640625 2.738281 C 49.609375 2.828125 49.609375 2.828125 49.574219 2.917969 C 49.503906 3.109375 49.4375 3.296875 49.367188 3.488281 C 49.320312 3.613281 49.277344 3.738281 49.230469 3.867188 C 49.144531 4.105469 49.054688 4.347656 48.96875 4.585938 C 48.898438 4.769531 48.832031 4.953125 48.769531 5.136719 C 48.746094 5.203125 48.726562 5.265625 48.703125 5.332031 C 48.683594 5.382812 48.667969 5.433594 48.648438 5.484375 C 48.566406 5.65625 48.460938 5.757812 48.3125 5.878906 C 48.246094 5.878906 48.179688 5.878906 48.109375 5.878906 C 48.167969 5.953125 48.167969 5.953125 48.222656 6.03125 C 48.320312 6.292969 48.3125 6.34375 48.234375 6.597656 C 48.203125 6.695312 48.203125 6.695312 48.175781 6.792969 C 48.074219 7.105469 47.964844 7.417969 47.847656 7.726562 C 47.824219 7.796875 47.800781 7.863281 47.773438 7.933594 C 47.722656 8.074219 47.671875 8.214844 47.621094 8.355469 C 47.542969 8.570312 47.464844 8.785156 47.386719 9 C 47.335938 9.136719 47.285156 9.277344 47.234375 9.414062 C 47.199219 9.507812 47.199219 9.507812 47.164062 9.605469 C 46.773438 10.664062 46.773438 10.664062 46.421875 10.84375 C 46.273438 10.890625 46.273438 10.890625 46.152344 10.910156 C 46.1875 10.933594 46.21875 10.957031 46.25 10.980469 C 46.410156 11.167969 46.40625 11.320312 46.421875 11.5625 C 46.378906 11.746094 46.328125 11.910156 46.261719 12.085938 C 46.242188 12.132812 46.226562 12.183594 46.207031 12.234375 C 46.167969 12.332031 46.132812 12.433594 46.09375 12.535156 C 46.035156 12.691406 45.980469 12.84375 45.921875 13 C 45.886719 13.097656 45.851562 13.195312 45.8125 13.296875 C 45.796875 13.339844 45.78125 13.386719 45.761719 13.433594 C 45.601562 13.851562 45.601562 13.851562 45.410156 13.980469 C 45.257812 14.039062 45.257812 14.039062 45.074219 14.085938 C 45.007812 14.101562 44.941406 14.121094 44.871094 14.140625 C 44.765625 14.167969 44.765625 14.167969 44.65625 14.195312 C 42.914062 14.671875 41.316406 15.398438 39.742188 16.265625 C 39.683594 16.300781 39.621094 16.332031 39.558594 16.367188 C 38.554688 16.921875 37.59375 17.53125 36.640625 18.160156 C 36.539062 18.226562 36.441406 18.289062 36.34375 18.355469 C 34.96875 19.253906 33.65625 20.234375 32.371094 21.25 C 32.085938 21.480469 31.792969 21.703125 31.5 21.925781 C 31.078125 22.242188 30.675781 22.570312 30.269531 22.90625 C 30.160156 22.996094 30.050781 23.082031 29.941406 23.171875 C 29.449219 23.570312 28.976562 23.984375 28.507812 24.40625 C 28.308594 24.585938 28.109375 24.757812 27.910156 24.929688 C 27.773438 25.050781 27.640625 25.171875 27.511719 25.292969 C 27.472656 25.328125 27.433594 25.367188 27.394531 25.402344 C 27.316406 25.472656 27.242188 25.542969 27.167969 25.613281 C 26.9375 25.828125 26.773438 25.925781 26.449219 25.933594 C 26.261719 25.851562 26.261719 25.851562 26.113281 25.738281 C 25.449219 23.804688 26.960938 20.984375 27.816406 19.300781 C 28.582031 17.820312 29.578125 16.453125 30.652344 15.167969 C 30.792969 14.996094 30.917969 14.820312 31.039062 14.632812 C 30.988281 14.613281 30.941406 14.597656 30.890625 14.578125 C 30.714844 14.507812 30.558594 14.429688 30.394531 14.339844 C 30.304688 14.292969 30.304688 14.292969 30.210938 14.242188 C 30.148438 14.207031 30.085938 14.171875 30.019531 14.136719 C 29.953125 14.097656 29.882812 14.0625 29.816406 14.023438 C 29.046875 13.601562 28.285156 13.164062 27.527344 12.722656 C 27.398438 12.648438 27.265625 12.574219 27.128906 12.496094 C 27.070312 12.464844 27.011719 12.429688 26.949219 12.394531 C 26.867188 12.351562 26.867188 12.351562 26.789062 12.304688 C 26.589844 12.171875 26.496094 12.03125 26.382812 11.824219 C 26.332031 11.890625 26.332031 11.890625 26.28125 11.960938 C 26.1875 12.089844 26.089844 12.214844 25.992188 12.34375 C 25.898438 12.46875 25.808594 12.589844 25.71875 12.714844 C 25.398438 13.152344 25.398438 13.152344 25.125 13.246094 C 24.851562 13.265625 24.78125 13.21875 24.5625 13.066406 C 24.199219 12.691406 23.902344 12.257812 23.617188 11.824219 C 23.582031 11.882812 23.542969 11.941406 23.507812 12.003906 C 23.355469 12.226562 23.1875 12.332031 22.945312 12.464844 C 22.855469 12.515625 22.765625 12.566406 22.675781 12.617188 C 22.621094 12.644531 22.570312 12.671875 22.515625 12.703125 C 22.175781 12.890625 21.839844 13.082031 21.503906 13.273438 C 21.378906 13.347656 21.25 13.417969 21.121094 13.492188 C 20.421875 13.890625 19.722656 14.292969 19.027344 14.699219 C 19.238281 14.972656 19.449219 15.242188 19.664062 15.511719 C 21.859375 18.292969 23.953125 21.746094 23.980469 25.355469 C 23.949219 25.570312 23.886719 25.695312 23.75 25.871094 C 23.558594 25.96875 23.558594 25.96875 23.347656 26 C 23.035156 25.890625 22.820312 25.628906 22.59375 25.402344 C 22.464844 25.269531 22.464844 25.269531 22.265625 25.152344 C 22.265625 25.109375 22.265625 25.066406 22.265625 25.019531 C 22.226562 25.003906 22.1875 24.984375 22.144531 24.96875 C 21.992188 24.886719 21.898438 24.804688 21.777344 24.679688 C 21.570312 24.476562 21.355469 24.285156 21.128906 24.097656 C 20.972656 23.964844 20.816406 23.828125 20.660156 23.6875 C 20.371094 23.4375 20.074219 23.199219 19.773438 22.964844 C 19.53125 22.769531 19.292969 22.566406 19.054688 22.367188 C 18.746094 22.105469 18.4375 21.855469 18.113281 21.617188 C 17.9375 21.484375 17.765625 21.347656 17.589844 21.207031 C 16.96875 20.714844 16.328125 20.246094 15.679688 19.78125 C 15.53125 19.671875 15.382812 19.5625 15.230469 19.453125 C 14.621094 19.003906 13.996094 18.574219 13.359375 18.160156 C 13.320312 18.132812 13.277344 18.105469 13.234375 18.078125 C 12.070312 17.316406 10.878906 16.597656 9.648438 15.941406 C 9.585938 15.90625 9.527344 15.875 9.460938 15.839844 C 8.148438 15.140625 6.789062 14.582031 5.34375 14.191406 C 4.605469 13.988281 4.605469 13.988281 4.386719 13.71875 C 4.3125 13.554688 4.246094 13.394531 4.1875 13.226562 C 4.160156 13.15625 4.160156 13.15625 4.132812 13.082031 C 4.09375 12.980469 4.058594 12.878906 4.019531 12.777344 C 3.964844 12.621094 3.90625 12.464844 3.847656 12.3125 C 3.8125 12.210938 3.777344 12.113281 3.738281 12.015625 C 3.722656 11.96875 3.703125 11.921875 3.6875 11.875 C 3.585938 11.59375 3.558594 11.394531 3.644531 11.105469 C 3.75 10.984375 3.75 10.984375 3.847656 10.910156 C 3.773438 10.882812 3.699219 10.859375 3.621094 10.832031 C 3.367188 10.742188 3.296875 10.617188 3.171875 10.386719 C 3.089844 10.195312 3.019531 10 2.945312 9.804688 C 2.925781 9.746094 2.90625 9.6875 2.882812 9.628906 C 2.839844 9.507812 2.792969 9.386719 2.75 9.265625 C 2.683594 9.085938 2.617188 8.902344 2.550781 8.722656 C 2.441406 8.425781 2.332031 8.125 2.226562 7.828125 C 2.15625 7.636719 2.085938 7.449219 2.015625 7.261719 C 1.96875 7.136719 1.921875 7.015625 1.878906 6.890625 C 1.84375 6.808594 1.84375 6.808594 1.808594 6.71875 C 1.667969 6.324219 1.667969 6.324219 1.777344 6.035156 C 1.8125 5.984375 1.851562 5.933594 1.890625 5.878906 C 1.847656 5.871094 1.808594 5.867188 1.765625 5.859375 C 1.59375 5.804688 1.535156 5.75 1.417969 5.617188 C 1.355469 5.496094 1.355469 5.496094 1.308594 5.355469 C 1.289062 5.304688 1.269531 5.25 1.25 5.195312 C 1.230469 5.140625 1.210938 5.082031 1.191406 5.023438 C 1.167969 4.964844 1.148438 4.90625 1.125 4.84375 C 1.058594 4.652344 0.992188 4.460938 0.921875 4.269531 C 0.855469 4.082031 0.789062 3.898438 0.722656 3.710938 C 0.679688 3.585938 0.636719 3.464844 0.59375 3.339844 C 0.492188 3.054688 0.390625 2.765625 0.277344 2.484375 C 0.257812 2.433594 0.238281 2.382812 0.21875 2.332031 C 0.183594 2.238281 0.144531 2.144531 0.105469 2.054688 C 0.0195312 1.835938 -0.00390625 1.710938 0.046875 1.480469 C 0.160156 1.257812 0.234375 1.199219 0.472656 1.109375 C 0.964844 1.089844 1.4375 1.148438 1.921875 1.214844 C 2.003906 1.226562 2.085938 1.238281 2.171875 1.25 C 3.851562 1.496094 5.507812 1.808594 7.152344 2.222656 C 7.230469 2.242188 7.308594 2.261719 7.390625 2.28125 C 11.871094 3.410156 16.390625 5.136719 19.972656 8.035156 C 19.972656 7.988281 19.972656 7.941406 19.976562 7.894531 C 19.980469 7.460938 19.988281 7.027344 19.996094 6.59375 C 20 6.367188 20.003906 6.144531 20.007812 5.921875 C 20.011719 5.664062 20.015625 5.410156 20.019531 5.152344 C 20.019531 5.070312 20.019531 4.992188 20.023438 4.910156 C 20.023438 4.835938 20.023438 4.761719 20.027344 4.683594 C 20.027344 4.585938 20.027344 4.585938 20.03125 4.484375 C 20.039062 4.328125 20.066406 4.199219 20.109375 4.050781 C 20.109375 4 20.113281 3.949219 20.117188 3.898438 C 20.265625 3.457031 20.777344 3.15625 21.140625 2.878906 C 21.328125 2.742188 21.507812 2.597656 21.6875 2.453125 C 21.75 2.40625 21.8125 2.355469 21.878906 2.304688 C 21.941406 2.253906 22 2.207031 22.066406 2.15625 C 22.179688 2.066406 22.296875 1.972656 22.410156 1.882812 C 22.683594 1.664062 22.957031 1.449219 23.230469 1.230469 C 23.332031 1.152344 23.429688 1.070312 23.53125 0.992188 C 23.75 0.816406 23.96875 0.640625 24.183594 0.464844 C 24.25 0.414062 24.316406 0.359375 24.382812 0.304688 C 24.441406 0.261719 24.496094 0.214844 24.554688 0.167969 C 24.816406 -0.0234375 24.996094 -0.0195312 25.304688 0.0664062 Z M 24.765625 6.269531 C 24.753906 6.304688 24.742188 6.339844 24.730469 6.378906 C 24.617188 6.714844 24.488281 7.035156 24.335938 7.359375 C 24.25 7.648438 24.355469 7.84375 24.5 8.101562 C 24.554688 8.195312 24.609375 8.289062 24.667969 8.382812 C 24.695312 8.429688 24.722656 8.480469 24.753906 8.527344 C 24.824219 8.648438 24.894531 8.765625 24.964844 8.882812 C 25.496094 8.273438 25.496094 8.273438 25.722656 7.535156 C 25.632812 7.292969 25.535156 7.054688 25.433594 6.820312 C 25.359375 6.636719 25.324219 6.464844 25.304688 6.269531 C 25.125 6.269531 24.949219 6.269531 24.765625 6.269531 Z M 5.464844 6.335938 C 5.734375 6.402344 5.734375 6.402344 5.734375 6.402344 Z M 44.265625 6.335938 C 44.535156 6.402344 44.535156 6.402344 44.535156 6.402344 Z M 5.804688 6.402344 C 6.074219 6.46875 6.074219 6.46875 6.074219 6.46875 Z M 35.15625 9.667969 C 35.148438 9.769531 35.148438 9.867188 35.152344 9.964844 C 35.152344 10.019531 35.152344 10.074219 35.152344 10.128906 C 35.152344 10.171875 35.15625 10.214844 35.15625 10.257812 C 35.425781 10.167969 35.644531 10.035156 35.878906 9.886719 C 38.394531 8.273438 41.328125 7.128906 44.265625 6.46875 C 44.265625 6.445312 44.265625 6.425781 44.265625 6.402344 C 41.851562 6.332031 36.863281 8.011719 35.15625 9.667969 Z M 6.074219 6.46875 C 6.285156 6.578125 6.5 6.648438 6.734375 6.714844 C 6.851562 6.75 6.851562 6.75 6.96875 6.785156 C 7.054688 6.808594 7.136719 6.835938 7.222656 6.859375 C 9.730469 7.601562 12.246094 8.601562 14.40625 10.0625 C 14.605469 10.207031 14.605469 10.207031 14.84375 10.257812 C 14.84375 10.0625 14.84375 9.867188 14.84375 9.667969 C 14.535156 9.496094 14.222656 9.328125 13.910156 9.160156 C 13.785156 9.089844 13.660156 9.023438 13.535156 8.953125 C 11.484375 7.847656 9.179688 7.101562 6.902344 6.570312 C 6.859375 6.558594 6.8125 6.546875 6.765625 6.535156 C 6.53125 6.484375 6.3125 6.457031 6.074219 6.46875 Z M 6.273438 11.300781 C 6.476562 11.40625 6.675781 11.476562 6.894531 11.535156 C 9.628906 12.316406 12.167969 13.445312 14.566406 14.9375 C 14.707031 15.027344 14.707031 15.027344 14.84375 15.089844 C 14.84375 14.875 14.84375 14.660156 14.84375 14.4375 C 10.773438 12.179688 10.773438 12.179688 6.273438 11.300781 Z M 35.15625 14.4375 C 35.15625 14.652344 35.15625 14.867188 35.15625 15.089844 C 35.546875 14.875 35.929688 14.65625 36.308594 14.417969 C 38.53125 13.027344 41.144531 11.9375 43.726562 11.367188 C 43.726562 11.34375 43.726562 11.324219 43.726562 11.300781 C 40.984375 11.214844 37.40625 13.140625 35.15625 14.4375 Z M 35.15625 14.4375 "/>
<path style=" stroke:none;fill-rule:nonzero;fill:rgb(99.607843%,99.215686%,99.215686%);fill-opacity:1;" d="M 49.460938 1.566406 C 49.363281 2.039062 49.21875 2.476562 49.046875 2.925781 C 49.023438 2.996094 48.996094 3.070312 48.96875 3.140625 C 48.914062 3.292969 48.855469 3.441406 48.800781 3.59375 C 48.714844 3.824219 48.628906 4.054688 48.542969 4.285156 C 48.488281 4.429688 48.433594 4.574219 48.378906 4.722656 C 48.351562 4.792969 48.328125 4.859375 48.300781 4.933594 C 48.265625 5.027344 48.265625 5.027344 48.226562 5.125 C 48.207031 5.179688 48.1875 5.238281 48.164062 5.292969 C 48.109375 5.421875 48.109375 5.421875 48.042969 5.488281 C 47.894531 5.503906 47.742188 5.515625 47.589844 5.527344 C 47.496094 5.535156 47.398438 5.542969 47.304688 5.550781 C 47.253906 5.554688 47.203125 5.558594 47.148438 5.5625 C 46.132812 5.640625 45.132812 5.75 44.128906 5.945312 C 44.058594 5.957031 43.988281 5.972656 43.917969 5.984375 C 40.746094 6.597656 37.789062 7.746094 34.972656 9.261719 C 34.816406 9.339844 34.816406 9.339844 34.617188 9.40625 C 34.617188 9.988281 34.617188 10.570312 34.617188 11.171875 C 34.992188 10.964844 34.992188 10.964844 35.355469 10.738281 C 35.402344 10.707031 35.449219 10.675781 35.496094 10.644531 C 35.542969 10.613281 35.59375 10.578125 35.644531 10.546875 C 36.273438 10.136719 36.921875 9.765625 37.585938 9.40625 C 37.628906 9.382812 37.675781 9.355469 37.722656 9.332031 C 40.472656 7.835938 44.464844 6.191406 47.707031 6.335938 C 47.609375 6.824219 47.453125 7.273438 47.277344 7.738281 C 47.234375 7.851562 47.234375 7.851562 47.191406 7.96875 C 47.101562 8.210938 47.011719 8.453125 46.921875 8.691406 C 46.859375 8.855469 46.800781 9.019531 46.738281 9.183594 C 46.589844 9.585938 46.4375 9.988281 46.289062 10.386719 C 46.191406 10.402344 46.191406 10.402344 46.09375 10.417969 C 44.871094 10.613281 43.648438 10.8125 42.441406 11.105469 C 42.394531 11.117188 42.351562 11.128906 42.300781 11.140625 C 42.011719 11.210938 41.71875 11.289062 41.429688 11.367188 C 41.382812 11.378906 41.332031 11.394531 41.285156 11.40625 C 41.128906 11.449219 40.976562 11.492188 40.824219 11.535156 C 40.777344 11.546875 40.730469 11.558594 40.679688 11.574219 C 40.378906 11.660156 40.097656 11.769531 39.8125 11.890625 C 39.691406 11.929688 39.570312 11.96875 39.449219 12.007812 C 38.171875 12.421875 36.9375 12.980469 35.761719 13.609375 C 35.566406 13.714844 35.378906 13.804688 35.164062 13.875 C 34.929688 13.96875 34.835938 14.046875 34.683594 14.242188 C 34.632812 14.433594 34.632812 14.433594 34.625 14.648438 C 34.617188 14.761719 34.617188 14.761719 34.609375 14.878906 C 34.597656 15.234375 34.601562 15.585938 34.617188 15.941406 C 34.972656 15.75 35.308594 15.539062 35.644531 15.316406 C 36.945312 14.46875 38.359375 13.632812 39.839844 13.125 C 39.992188 13.074219 40.128906 13.011719 40.269531 12.9375 C 41.699219 12.21875 43.386719 11.851562 44.949219 11.503906 C 45.011719 11.492188 45.074219 11.476562 45.136719 11.464844 C 45.195312 11.449219 45.253906 11.4375 45.316406 11.425781 C 45.367188 11.414062 45.417969 11.402344 45.46875 11.390625 C 45.613281 11.367188 45.613281 11.367188 45.882812 11.367188 C 45.835938 11.519531 45.789062 11.671875 45.742188 11.824219 C 45.703125 11.953125 45.664062 12.082031 45.625 12.210938 C 45.5625 12.410156 45.5 12.605469 45.4375 12.800781 C 45.40625 12.902344 45.40625 12.902344 45.378906 13.003906 C 45.21875 13.476562 45.21875 13.476562 45.007812 13.605469 C 44.847656 13.65625 44.699219 13.691406 44.535156 13.71875 C 44.445312 13.742188 44.359375 13.765625 44.273438 13.789062 C 44.230469 13.800781 44.1875 13.8125 44.140625 13.824219 C 41.527344 14.527344 39.050781 15.945312 36.835938 17.421875 C 36.691406 17.515625 36.550781 17.609375 36.40625 17.703125 C 35.332031 18.40625 34.289062 19.152344 33.265625 19.925781 C 33.226562 19.953125 33.1875 19.984375 33.148438 20.011719 C 32.679688 20.367188 32.214844 20.722656 31.757812 21.089844 C 31.636719 21.183594 31.519531 21.277344 31.402344 21.371094 C 30.929688 21.738281 30.472656 22.121094 30.015625 22.5 C 29.894531 22.601562 29.773438 22.699219 29.652344 22.800781 C 29.148438 23.214844 28.65625 23.644531 28.171875 24.082031 C 27.96875 24.261719 27.765625 24.4375 27.558594 24.617188 C 27.441406 24.71875 27.324219 24.820312 27.207031 24.925781 C 27.148438 24.980469 27.085938 25.035156 27.023438 25.089844 C 26.96875 25.140625 26.914062 25.1875 26.859375 25.238281 C 26.71875 25.347656 26.71875 25.347656 26.585938 25.347656 C 26.433594 22.417969 28.058594 19.441406 29.757812 17.117188 C 29.808594 17.042969 29.859375 16.96875 29.914062 16.898438 C 30.4375 16.171875 30.988281 15.460938 31.617188 14.8125 C 31.726562 14.695312 31.726562 14.695312 31.78125 14.503906 C 31.734375 14.484375 31.683594 14.46875 31.636719 14.449219 C 31.4375 14.371094 31.261719 14.277344 31.078125 14.171875 C 31.007812 14.132812 30.933594 14.09375 30.863281 14.050781 C 30.75 13.988281 30.75 13.988281 30.632812 13.921875 C 30.515625 13.855469 30.398438 13.789062 30.277344 13.722656 C 30.199219 13.675781 30.117188 13.632812 30.039062 13.585938 C 29.675781 13.382812 29.308594 13.179688 28.941406 12.980469 C 28.773438 12.886719 28.605469 12.792969 28.4375 12.699219 C 28.324219 12.636719 28.214844 12.574219 28.101562 12.515625 C 27.941406 12.425781 27.78125 12.335938 27.617188 12.246094 C 27.570312 12.21875 27.523438 12.191406 27.472656 12.164062 C 27.257812 12.042969 27.128906 11.960938 26.992188 11.757812 C 27.296875 11.332031 27.621094 10.929688 27.984375 10.546875 C 28.082031 10.445312 28.179688 10.339844 28.277344 10.234375 C 28.960938 9.46875 29.746094 8.800781 30.582031 8.1875 C 30.703125 8.097656 30.828125 8.007812 30.949219 7.914062 C 33.175781 6.242188 35.765625 5.011719 38.394531 4.050781 C 38.460938 4.027344 38.527344 4 38.59375 3.976562 C 41.835938 2.78125 45.960938 1.457031 49.460938 1.566406 Z M 49.460938 1.566406 "/>
<path style=" stroke:none;fill-rule:nonzero;fill:rgb(99.607843%,99.215686%,99.215686%);fill-opacity:1;" d="M 0.539062 1.566406 C 5.332031 1.878906 10.511719 3.25 14.765625 5.414062 C 14.9375 5.5 15.113281 5.582031 15.289062 5.667969 C 17.140625 6.558594 18.964844 7.707031 20.457031 9.101562 C 20.632812 9.261719 20.808594 9.414062 20.988281 9.566406 C 21.5625 10.066406 22.070312 10.625 22.550781 11.207031 C 22.582031 11.246094 22.613281 11.285156 22.644531 11.324219 C 22.796875 11.511719 22.894531 11.65625 22.941406 11.890625 C 21.929688 12.476562 20.914062 13.054688 19.886719 13.617188 C 19.425781 13.867188 18.976562 14.132812 18.527344 14.40625 C 18.355469 14.503906 18.355469 14.503906 18.21875 14.503906 C 18.390625 14.8125 18.617188 15.0625 18.851562 15.328125 C 19.320312 15.871094 19.738281 16.441406 20.140625 17.03125 C 20.238281 17.171875 20.335938 17.3125 20.433594 17.457031 C 22.039062 19.78125 23.492188 22.621094 23.414062 25.476562 C 23.257812 25.347656 23.097656 25.214844 22.941406 25.085938 C 22.898438 25.046875 22.851562 25.011719 22.808594 24.972656 C 22.585938 24.789062 22.371094 24.601562 22.164062 24.398438 C 21.917969 24.15625 21.65625 23.933594 21.390625 23.714844 C 21.226562 23.578125 21.0625 23.4375 20.898438 23.300781 C 20.851562 23.265625 20.808594 23.226562 20.761719 23.1875 C 20.503906 22.972656 20.253906 22.753906 20.003906 22.53125 C 19.699219 22.261719 19.382812 22.011719 19.054688 21.769531 C 18.765625 21.554688 18.488281 21.328125 18.214844 21.097656 C 17.847656 20.789062 17.472656 20.5 17.089844 20.21875 C 16.902344 20.082031 16.71875 19.941406 16.535156 19.800781 C 15.617188 19.09375 14.664062 18.421875 13.691406 17.785156 C 13.566406 17.707031 13.445312 17.625 13.320312 17.542969 C 12.605469 17.074219 11.871094 16.636719 11.132812 16.199219 C 11.085938 16.171875 11.035156 16.140625 10.984375 16.113281 C 10.195312 15.644531 9.375 15.242188 8.542969 14.847656 C 8.386719 14.773438 8.230469 14.695312 8.070312 14.617188 C 7.871094 14.519531 7.667969 14.441406 7.457031 14.367188 C 7.242188 14.296875 7.03125 14.222656 6.824219 14.144531 C 6.589844 14.058594 6.355469 13.984375 6.121094 13.914062 C 6.042969 13.890625 5.96875 13.867188 5.890625 13.84375 C 5.671875 13.78125 5.671875 13.78125 5.457031 13.75 C 4.988281 13.671875 4.988281 13.671875 4.820312 13.445312 C 4.726562 13.234375 4.660156 13.023438 4.589844 12.804688 C 4.546875 12.695312 4.507812 12.589844 4.464844 12.484375 C 4.289062 12.039062 4.289062 12.039062 4.207031 11.824219 C 4.191406 11.78125 4.171875 11.734375 4.152344 11.6875 C 4.117188 11.5625 4.117188 11.5625 4.117188 11.367188 C 6.527344 11.695312 8.875 12.515625 11.066406 13.523438 C 11.125 13.550781 11.183594 13.578125 11.246094 13.605469 C 12.46875 14.164062 13.609375 14.84375 14.730469 15.582031 C 14.8125 15.640625 14.8125 15.640625 14.898438 15.695312 C 14.972656 15.746094 14.972656 15.746094 15.050781 15.796875 C 15.1875 15.882812 15.1875 15.882812 15.382812 15.941406 C 15.378906 15.671875 15.371094 15.402344 15.363281 15.136719 C 15.363281 15.058594 15.359375 14.984375 15.359375 14.902344 C 15.355469 14.832031 15.355469 14.757812 15.351562 14.683594 C 15.351562 14.617188 15.347656 14.546875 15.347656 14.480469 C 15.3125 14.28125 15.28125 14.230469 15.113281 14.109375 C 15.011719 14.050781 14.90625 13.992188 14.800781 13.9375 C 14.738281 13.902344 14.675781 13.871094 14.613281 13.835938 C 14.546875 13.804688 14.480469 13.769531 14.414062 13.734375 C 14.347656 13.699219 14.28125 13.664062 14.210938 13.628906 C 14.078125 13.558594 13.945312 13.492188 13.8125 13.421875 C 13.660156 13.34375 13.507812 13.261719 13.355469 13.179688 C 12.980469 12.980469 12.617188 12.8125 12.214844 12.671875 C 12.128906 12.632812 12.046875 12.59375 11.964844 12.550781 C 11.199219 12.171875 10.359375 11.9375 9.542969 11.679688 C 9.441406 11.648438 9.335938 11.613281 9.230469 11.578125 C 7.449219 10.984375 5.566406 10.671875 3.710938 10.386719 C 3.476562 9.757812 3.242188 9.132812 3.007812 8.503906 C 2.902344 8.214844 2.792969 7.925781 2.6875 7.636719 C 2.617188 7.449219 2.546875 7.261719 2.476562 7.074219 C 2.449219 7.007812 2.425781 6.9375 2.398438 6.871094 C 2.375 6.808594 2.351562 6.746094 2.328125 6.683594 C 2.308594 6.628906 2.289062 6.578125 2.269531 6.523438 C 2.226562 6.402344 2.226562 6.402344 2.226562 6.335938 C 4.960938 6.386719 7.859375 7.324219 10.324219 8.425781 C 10.390625 8.457031 10.457031 8.488281 10.527344 8.519531 C 11.949219 9.15625 13.289062 9.863281 14.585938 10.71875 C 14.640625 10.753906 14.640625 10.753906 14.699219 10.792969 C 14.804688 10.863281 14.910156 10.933594 15.011719 11 C 15.179688 11.113281 15.179688 11.113281 15.382812 11.171875 C 15.492188 10.222656 15.492188 10.222656 15.230469 9.339844 C 14.980469 9.121094 14.667969 9.007812 14.355469 8.894531 C 14.152344 8.8125 13.960938 8.71875 13.765625 8.617188 C 11.496094 7.457031 9 6.558594 6.476562 6.074219 C 6.394531 6.058594 6.3125 6.042969 6.226562 6.023438 C 4.941406 5.765625 3.664062 5.601562 2.355469 5.507812 C 2.03125 5.476562 2.03125 5.476562 1.890625 5.421875 C 1.808594 5.261719 1.75 5.113281 1.691406 4.945312 C 1.652344 4.832031 1.609375 4.722656 1.570312 4.609375 C 1.546875 4.542969 1.523438 4.480469 1.5 4.410156 C 1.402344 4.136719 1.296875 3.859375 1.191406 3.585938 C 1.128906 3.425781 1.070312 3.265625 1.011719 3.105469 C 0.96875 2.996094 0.929688 2.890625 0.886719 2.785156 C 0.828125 2.632812 0.773438 2.476562 0.714844 2.324219 C 0.699219 2.28125 0.679688 2.234375 0.660156 2.1875 C 0.578125 1.964844 0.539062 1.808594 0.539062 1.566406 Z M 0.539062 1.566406 "/>
<path style=" stroke:none;fill-rule:nonzero;fill:rgb(99.607843%,98.431373%,98.823529%);fill-opacity:1;" d="M 29.554688 4.507812 C 29.574219 4.988281 29.585938 5.472656 29.59375 5.953125 C 29.597656 6.117188 29.605469 6.28125 29.609375 6.445312 C 29.664062 7.886719 29.664062 7.886719 29.410156 8.191406 C 29.21875 8.339844 29.027344 8.445312 28.8125 8.558594 C 28.699219 8.65625 28.585938 8.757812 28.480469 8.863281 C 28.429688 8.910156 28.375 8.960938 28.320312 9.015625 C 28.242188 9.089844 28.242188 9.089844 28.164062 9.171875 C 28.105469 9.222656 28.050781 9.277344 27.992188 9.335938 C 27.609375 9.710938 27.257812 10.097656 26.921875 10.519531 C 26.8125 10.648438 26.699219 10.777344 26.585938 10.90625 C 26.058594 11.515625 25.582031 12.160156 25.101562 12.804688 C 24.929688 12.78125 24.847656 12.757812 24.730469 12.632812 C 24.699219 12.589844 24.667969 12.546875 24.632812 12.5 C 24.597656 12.449219 24.5625 12.402344 24.527344 12.351562 C 24.488281 12.296875 24.453125 12.246094 24.414062 12.191406 C 24.335938 12.085938 24.257812 11.976562 24.179688 11.871094 C 24.140625 11.816406 24.105469 11.765625 24.066406 11.710938 C 23.871094 11.453125 23.664062 11.214844 23.449219 10.972656 C 23.347656 10.84375 23.347656 10.84375 23.347656 10.714844 C 23.300781 10.714844 23.257812 10.714844 23.210938 10.714844 C 23.007812 10.488281 23.007812 10.488281 23.007812 10.320312 C 22.964844 10.320312 22.921875 10.320312 22.875 10.320312 C 22.792969 10.230469 22.714844 10.132812 22.636719 10.035156 C 22.328125 9.65625 21.984375 9.316406 21.628906 8.972656 C 21.574219 8.921875 21.523438 8.867188 21.464844 8.816406 C 21.214844 8.558594 21.214844 8.558594 20.917969 8.363281 C 20.917969 8.320312 20.917969 8.277344 20.917969 8.230469 C 20.878906 8.214844 20.835938 8.195312 20.796875 8.179688 C 20.640625 8.097656 20.554688 8.035156 20.445312 7.90625 C 20.421875 7.753906 20.421875 7.753906 20.421875 7.570312 C 20.421875 7.503906 20.421875 7.433594 20.421875 7.363281 C 20.421875 7.292969 20.425781 7.21875 20.425781 7.140625 C 20.425781 7.066406 20.425781 6.992188 20.425781 6.914062 C 20.425781 6.675781 20.429688 6.433594 20.433594 6.195312 C 20.433594 6.03125 20.433594 5.867188 20.433594 5.707031 C 20.4375 5.304688 20.441406 4.90625 20.445312 4.507812 C 21.808594 4.492188 23.210938 5.148438 24.222656 6.003906 C 24.335938 6.226562 24.285156 6.433594 24.222656 6.664062 C 24.167969 6.796875 24.105469 6.921875 24.039062 7.050781 C 23.839844 7.464844 23.839844 7.464844 23.859375 7.910156 C 24.003906 8.191406 24.203125 8.433594 24.398438 8.683594 C 24.558594 8.910156 24.664062 9.15625 24.773438 9.40625 C 24.792969 9.453125 24.8125 9.5 24.832031 9.546875 C 24.878906 9.652344 24.921875 9.757812 24.964844 9.863281 C 25.144531 9.605469 25.277344 9.324219 25.417969 9.046875 C 25.53125 8.816406 25.652344 8.597656 25.804688 8.386719 C 26.082031 8.027344 26.082031 8.027344 26.179688 7.597656 C 26.128906 7.425781 26.0625 7.28125 25.976562 7.121094 C 25.929688 7.003906 25.878906 6.890625 25.832031 6.773438 C 25.808594 6.722656 25.785156 6.671875 25.761719 6.621094 C 25.699219 6.445312 25.683594 6.324219 25.707031 6.140625 C 26.3125 5.230469 27.808594 4.78125 28.828125 4.542969 C 28.902344 4.527344 28.902344 4.527344 28.976562 4.507812 C 29.203125 4.460938 29.332031 4.433594 29.554688 4.507812 Z M 29.554688 4.507812 "/>
<path style=" stroke:none;fill-rule:nonzero;fill:rgb(99.215686%,98.823529%,98.823529%);fill-opacity:1;" d="M 25.023438 0.53125 C 25.21875 0.609375 25.351562 0.71875 25.511719 0.847656 C 25.574219 0.902344 25.640625 0.957031 25.707031 1.011719 C 25.808594 1.09375 25.808594 1.09375 25.910156 1.175781 C 26.035156 1.273438 26.15625 1.371094 26.28125 1.46875 C 27.765625 2.644531 27.765625 2.644531 27.949219 2.792969 C 28.078125 2.894531 28.207031 2.992188 28.332031 3.09375 C 28.675781 3.363281 29.015625 3.636719 29.351562 3.917969 C 29.171875 4.097656 29.03125 4.089844 28.777344 4.132812 C 27.511719 4.359375 26.355469 4.820312 25.355469 5.609375 C 25.203125 5.722656 25.074219 5.804688 24.898438 5.878906 C 24.898438 5.835938 24.898438 5.792969 24.898438 5.75 C 24.859375 5.730469 24.820312 5.714844 24.78125 5.695312 C 24.625 5.617188 24.507812 5.523438 24.371094 5.414062 C 23.316406 4.609375 21.972656 4.171875 20.648438 4.050781 C 20.648438 3.984375 20.648438 3.921875 20.648438 3.855469 C 20.753906 3.753906 20.753906 3.753906 20.914062 3.636719 C 20.976562 3.59375 21.035156 3.546875 21.097656 3.5 C 21.132812 3.472656 21.167969 3.449219 21.207031 3.421875 C 21.4375 3.246094 21.664062 3.0625 21.890625 2.878906 C 21.992188 2.796875 22.089844 2.71875 22.191406 2.640625 C 22.238281 2.601562 22.285156 2.5625 22.335938 2.523438 C 22.628906 2.292969 22.917969 2.058594 23.210938 1.828125 C 23.335938 1.730469 23.460938 1.632812 23.582031 1.535156 C 23.671875 1.464844 23.671875 1.464844 23.765625 1.390625 C 23.898438 1.285156 24.027344 1.183594 24.160156 1.078125 C 24.226562 1.027344 24.289062 0.972656 24.359375 0.917969 C 24.417969 0.871094 24.480469 0.824219 24.539062 0.773438 C 24.867188 0.519531 24.867188 0.519531 25.023438 0.53125 Z M 25.023438 0.53125 "/>
<path style=" stroke:none;fill-rule:nonzero;fill:rgb(57.647061%,4.705882%,5.098039%);fill-opacity:1;" d="M 34.617188 9.40625 C 34.660156 9.40625 34.703125 9.40625 34.75 9.40625 C 34.75 9.945312 34.75 10.484375 34.75 11.039062 C 34.792969 11.0625 34.839844 11.082031 34.886719 11.105469 C 34.796875 11.128906 34.707031 11.148438 34.617188 11.171875 C 34.617188 10.589844 34.617188 10.007812 34.617188 9.40625 Z M 34.617188 9.40625 "/>
</g>
</svg>
