<?xml version="1.0" encoding="UTF-8"?>
<svg xmlns="http://www.w3.org/2000/svg" xmlns:xlink="http://www.w3.org/1999/xlink" width="50px" height="48px" viewBox="0 0 50 48" version="1.1">
<g id="surface1">
<path style=" stroke:none;fill-rule:nonzero;fill:rgb(100%,100%,100%);fill-opacity:1;" d="M 49.859375 21.980469 C 49.472656 18.917969 48.535156 16.023438 47.144531 13.402344 C 39.800781 11.839844 33.636719 7.035156 30.214844 0.554688 C 28.523438 0.1875 26.777344 0 24.976562 0 C 23.175781 0 21.277344 0.210938 19.523438 0.597656 C 16.121094 6.992188 10.066406 11.738281 2.835938 13.359375 C 1.488281 15.890625 0.558594 18.675781 0.140625 21.625 C 4.632812 26.1875 7.40625 32.445312 7.40625 39.367188 C 7.40625 40.589844 7.316406 41.785156 7.152344 42.953125 C 9.195312 45.027344 11.59375 46.734375 14.242188 48 C 17.5 46.445312 21.144531 45.570312 25 45.570312 C 28.855469 45.570312 32.464844 46.433594 35.722656 47.988281 C 38.519531 46.65625 41.035156 44.828125 43.144531 42.597656 C 43.011719 41.542969 42.9375 40.464844 42.9375 39.367188 C 42.9375 32.621094 45.574219 26.507812 49.871094 21.980469 Z M 25 43.628906 C 14.851562 43.628906 6.609375 35.363281 6.609375 25.152344 C 6.609375 14.945312 14.839844 6.691406 25 6.691406 C 35.160156 6.691406 43.390625 14.957031 43.390625 25.164062 C 43.390625 35.375 35.160156 43.640625 25 43.640625 Z M 25 43.628906 "/>
<path style=" stroke:none;fill-rule:nonzero;fill:rgb(100%,100%,100%);fill-opacity:1;" d="M 21.445312 34.40625 L 18.382812 25.730469 L 18.382812 24.042969 L 21.101562 24.042969 L 21.101562 18.128906 L 17.601562 18.128906 L 17.601562 34.417969 L 14.828125 34.417969 L 14.828125 15.757812 L 22.195312 15.757812 C 23.308594 15.757812 23.875 16.320312 23.875 17.464844 L 23.875 24.253906 C 23.875 25.363281 23.320312 25.929688 22.21875 25.964844 L 21.265625 25.964844 L 24.328125 34.320312 L 24.328125 34.417969 L 21.433594 34.417969 Z M 21.445312 34.40625 "/>
<path style=" stroke:none;fill-rule:nonzero;fill:rgb(100%,100%,100%);fill-opacity:1;" d="M 33.515625 34.40625 L 27.683594 34.40625 C 26.578125 34.40625 26.027344 33.84375 26.027344 32.699219 L 26.027344 17.464844 C 26.027344 16.320312 26.589844 15.757812 27.707031 15.757812 L 33.515625 15.757812 C 34.652344 15.757812 35.214844 16.320312 35.214844 17.441406 L 35.214844 21.414062 L 32.421875 21.414062 L 32.421875 18.121094 L 28.800781 18.121094 L 28.800781 32.035156 L 32.421875 32.035156 L 32.421875 26.785156 L 30.355469 26.785156 L 30.355469 24.421875 L 35.214844 24.421875 L 35.214844 32.699219 C 35.214844 33.84375 34.652344 34.40625 33.515625 34.40625 Z M 33.515625 34.40625 "/>
</g>
</svg>
