<?xml version="1.0" encoding="UTF-8"?>
<svg xmlns="http://www.w3.org/2000/svg" xmlns:xlink="http://www.w3.org/1999/xlink" width="45px" height="20px" viewBox="0 0 45 20" version="1.1">
<g id="surface1">
<path style=" stroke:none;fill-rule:nonzero;fill:rgb(100%,100%,100%);fill-opacity:1;" d="M 1.527344 8.644531 C 1.527344 6.308594 1.527344 5.878906 1.5 5.386719 C 1.46875 4.867188 1.347656 4.621094 0.847656 4.511719 C 0.726562 4.480469 0.46875 4.464844 0.257812 4.464844 C 0.0898438 4.464844 0 4.4375 0 4.328125 C 0 4.222656 0.105469 4.191406 0.332031 4.191406 C 1.136719 4.191406 2.089844 4.234375 2.40625 4.234375 C 2.921875 4.234375 4.074219 4.191406 4.542969 4.191406 C 5.496094 4.191406 6.507812 4.28125 7.328125 4.851562 C 7.75 5.140625 8.355469 5.925781 8.355469 6.953125 C 8.355469 8.089844 7.886719 9.132812 6.359375 10.394531 C 7.707031 12.113281 8.75 13.480469 9.644531 14.429688 C 10.492188 15.320312 11.113281 15.429688 11.339844 15.476562 C 11.503906 15.503906 11.640625 15.519531 11.761719 15.519531 C 11.882812 15.519531 11.945312 15.566406 11.945312 15.644531 C 11.945312 15.765625 11.835938 15.796875 11.65625 15.796875 L 10.21875 15.796875 C 9.371094 15.796875 8.992188 15.71875 8.597656 15.503906 C 7.945312 15.152344 7.371094 14.429688 6.523438 13.246094 C 5.917969 12.402344 5.222656 11.359375 5.027344 11.128906 C 4.949219 11.035156 4.859375 11.023438 4.753906 11.023438 L 3.4375 10.992188 C 3.359375 10.992188 3.316406 11.023438 3.316406 11.113281 L 3.316406 11.328125 C 3.316406 12.757812 3.316406 13.96875 3.390625 14.613281 C 3.4375 15.058594 3.527344 15.398438 3.980469 15.457031 C 4.207031 15.488281 4.542969 15.519531 4.722656 15.519531 C 4.84375 15.519531 4.902344 15.566406 4.902344 15.640625 C 4.902344 15.75 4.796875 15.796875 4.601562 15.796875 C 3.722656 15.796875 2.601562 15.75 2.375 15.75 C 2.089844 15.75 1.136719 15.796875 0.527344 15.796875 C 0.332031 15.796875 0.226562 15.75 0.226562 15.640625 C 0.226562 15.566406 0.285156 15.519531 0.46875 15.519531 C 0.695312 15.519531 0.878906 15.488281 1.011719 15.457031 C 1.316406 15.398438 1.390625 15.058594 1.453125 14.613281 C 1.527344 13.96875 1.527344 12.757812 1.527344 11.34375 L 1.527344 8.640625 Z M 3.316406 9.855469 C 3.316406 10.023438 3.347656 10.085938 3.453125 10.132812 C 3.769531 10.238281 4.222656 10.285156 4.601562 10.285156 C 5.207031 10.285156 5.40625 10.222656 5.675781 10.023438 C 6.132812 9.6875 6.570312 8.980469 6.570312 7.722656 C 6.570312 5.542969 5.148438 4.914062 4.253906 4.914062 C 3.875 4.914062 3.601562 4.925781 3.453125 4.972656 C 3.347656 5.003906 3.316406 5.066406 3.316406 5.1875 Z M 3.316406 9.855469 "/>
<path style=" stroke:none;fill-rule:nonzero;fill:rgb(100%,100%,100%);fill-opacity:1;" d="M 12.957031 8.644531 C 12.957031 6.308594 12.957031 5.878906 12.929688 5.386719 C 12.898438 4.867188 12.746094 4.605469 12.414062 4.527344 C 12.246094 4.484375 12.050781 4.464844 11.867188 4.464844 C 11.71875 4.464844 11.625 4.4375 11.625 4.3125 C 11.625 4.222656 11.746094 4.191406 11.988281 4.191406 C 12.5625 4.191406 13.519531 4.238281 13.957031 4.238281 C 14.335938 4.238281 15.226562 4.191406 15.804688 4.191406 C 16 4.191406 16.121094 4.222656 16.121094 4.3125 C 16.121094 4.4375 16.03125 4.464844 15.878906 4.464844 C 15.726562 4.464844 15.605469 4.480469 15.425781 4.511719 C 15.015625 4.589844 14.894531 4.851562 14.863281 5.386719 C 14.835938 5.878906 14.835938 6.308594 14.835938 8.644531 L 14.835938 11.34375 C 14.835938 12.835938 14.835938 14.046875 14.894531 14.707031 C 14.941406 15.121094 15.046875 15.398438 15.5 15.460938 C 15.710938 15.492188 16.046875 15.523438 16.273438 15.523438 C 16.441406 15.523438 16.515625 15.566406 16.515625 15.644531 C 16.515625 15.75 16.394531 15.796875 16.226562 15.796875 C 15.226562 15.796875 14.273438 15.75 13.867188 15.75 C 13.519531 15.75 12.566406 15.796875 11.960938 15.796875 C 11.761719 15.796875 11.65625 15.75 11.65625 15.644531 C 11.65625 15.566406 11.71875 15.523438 11.898438 15.523438 C 12.125 15.523438 12.308594 15.492188 12.445312 15.460938 C 12.746094 15.398438 12.839844 15.136719 12.882812 14.691406 C 12.957031 14.046875 12.957031 12.835938 12.957031 11.34375 Z M 12.957031 8.644531 "/>
<path style=" stroke:none;fill-rule:nonzero;fill:rgb(100%,100%,100%);fill-opacity:1;" d="M 28.503906 0.222656 C 28.585938 0.109375 28.640625 0.0078125 29.0625 0.0078125 C 29.121094 0.0078125 29.5625 0.0625 30.023438 0.0546875 C 30.503906 0.046875 31 -0.0273438 31.09375 0.0195312 C 31.140625 0.046875 31.246094 0.164062 31.011719 0.210938 C 31.011719 0.210938 30.726562 0.226562 30.460938 0.25 C 30.257812 0.265625 29.921875 0.4375 29.882812 0.460938 C 29.691406 0.589844 29.546875 0.902344 29.417969 1.164062 C 29.261719 1.476562 29.105469 1.855469 28.746094 2.601562 C 28.394531 3.332031 27.464844 5.523438 27.199219 6.160156 C 26.609375 7.601562 26.324219 8.304688 25.507812 10.195312 C 24.539062 12.433594 23.828125 14.109375 23.496094 14.875 C 23.101562 15.765625 23.011719 16.011719 22.796875 16.011719 C 22.601562 16.011719 22.511719 15.796875 22.222656 15.078125 L 18.410156 5.695312 C 18.058594 4.851562 17.804688 4.683594 17.257812 4.527344 C 17.03125 4.464844 16.789062 4.464844 16.667969 4.464844 C 16.53125 4.464844 16.484375 4.421875 16.484375 4.328125 C 16.484375 4.207031 16.652344 4.191406 16.878906 4.191406 C 17.679688 4.191406 18.542969 4.234375 19.074219 4.234375 C 19.453125 4.234375 20.179688 4.191406 20.9375 4.191406 C 21.117188 4.191406 21.285156 4.222656 21.285156 4.328125 C 21.285156 4.4375 21.195312 4.464844 21.058594 4.464844 C 20.816406 4.464844 20.589844 4.480469 20.46875 4.574219 C 20.359375 4.652344 20.316406 4.757812 20.316406 4.898438 C 20.316406 5.097656 20.453125 5.527344 20.664062 6.078125 L 23.269531 13.050781 L 23.328125 13.050781 C 23.980469 11.359375 26.222656 5.667969 26.3125 5.402344 C 26.421875 5.074219 28.136719 0.75 28.503906 0.222656 Z M 28.503906 0.222656 "/>
<path style=" stroke:none;fill-rule:nonzero;fill:rgb(100%,100%,100%);fill-opacity:1;" d="M 40.398438 11.34375 C 40.398438 13.308594 40.398438 14.371094 40.714844 14.648438 C 40.972656 14.875 41.367188 14.984375 42.546875 14.984375 C 43.351562 14.984375 43.941406 14.96875 44.320312 14.554688 C 44.5 14.355469 44.683594 13.925781 44.710938 13.632812 C 44.726562 13.496094 44.757812 13.402344 44.878906 13.402344 C 44.984375 13.402344 45 13.480469 45 13.664062 C 45 13.832031 44.894531 14.984375 44.773438 15.429688 C 44.683594 15.765625 44.605469 15.84375 43.820312 15.84375 C 42.730469 15.84375 41.941406 15.8125 41.261719 15.796875 C 40.578125 15.769531 40.035156 15.753906 39.414062 15.753906 C 39.246094 15.753906 38.914062 15.753906 38.550781 15.769531 C 38.203125 15.769531 37.808594 15.796875 37.507812 15.796875 C 37.308594 15.796875 37.203125 15.753906 37.203125 15.644531 C 37.203125 15.570312 37.265625 15.523438 37.445312 15.523438 C 37.671875 15.523438 37.855469 15.492188 37.992188 15.460938 C 38.292969 15.398438 38.371094 15.0625 38.429688 14.617188 C 38.503906 13.972656 38.503906 12.757812 38.503906 11.347656 L 38.503906 8.644531 C 38.503906 6.308594 38.503906 5.878906 38.476562 5.390625 C 38.445312 4.867188 38.324219 4.621094 37.824219 4.511719 C 37.703125 4.484375 37.519531 4.46875 37.324219 4.46875 C 37.15625 4.46875 37.066406 4.4375 37.066406 4.328125 C 37.066406 4.222656 37.171875 4.191406 37.398438 4.191406 C 38.109375 4.191406 39.066406 4.238281 39.472656 4.238281 C 39.835938 4.238281 40.941406 4.191406 41.53125 4.191406 C 41.746094 4.191406 41.851562 4.222656 41.851562 4.328125 C 41.851562 4.4375 41.757812 4.46875 41.578125 4.46875 C 41.410156 4.46875 41.167969 4.484375 40.988281 4.511719 C 40.578125 4.589844 40.457031 4.851562 40.425781 5.390625 C 40.398438 5.878906 40.398438 6.308594 40.398438 8.644531 L 40.398438 11.347656 Z M 40.398438 11.34375 "/>
<path style=" stroke:none;fill-rule:nonzero;fill:rgb(100%,100%,100%);fill-opacity:1;" d="M 24.84375 19.777344 C 24.765625 19.890625 24.710938 19.992188 24.289062 19.992188 C 24.230469 19.992188 23.785156 19.9375 23.324219 19.945312 C 22.847656 19.953125 22.351562 20.027344 22.257812 19.980469 C 22.207031 19.953125 22.101562 19.835938 22.335938 19.789062 C 22.335938 19.789062 22.625 19.773438 22.890625 19.75 C 23.09375 19.734375 23.429688 19.5625 23.464844 19.539062 C 23.660156 19.410156 23.804688 19.097656 23.933594 18.835938 C 24.089844 18.523438 24.246094 18.144531 24.605469 17.398438 C 24.957031 16.667969 25.886719 14.476562 26.148438 13.839844 C 26.738281 12.398438 27.023438 11.695312 27.839844 9.804688 C 28.8125 7.566406 29.523438 5.890625 29.855469 5.125 C 30.25 4.234375 30.339844 3.988281 30.550781 3.988281 C 30.75 3.988281 30.839844 4.203125 31.125 4.921875 L 34.941406 14.304688 C 35.289062 15.148438 35.546875 15.316406 36.09375 15.472656 C 36.320312 15.535156 36.5625 15.535156 36.683594 15.535156 C 36.820312 15.535156 36.863281 15.578125 36.863281 15.671875 C 36.863281 15.792969 36.699219 15.808594 36.472656 15.808594 C 35.667969 15.808594 34.804688 15.765625 34.277344 15.765625 C 33.898438 15.765625 33.171875 15.808594 32.414062 15.808594 C 32.230469 15.808594 32.066406 15.777344 32.066406 15.671875 C 32.066406 15.5625 32.15625 15.535156 32.292969 15.535156 C 32.535156 15.535156 32.761719 15.519531 32.882812 15.425781 C 32.988281 15.347656 33.035156 15.242188 33.035156 15.101562 C 33.035156 14.902344 32.898438 14.472656 32.6875 13.921875 L 30.082031 6.949219 L 30.023438 6.949219 C 29.371094 8.640625 27.128906 14.332031 27.039062 14.597656 C 26.929688 14.925781 25.214844 19.25 24.84375 19.777344 Z M 24.84375 19.777344 "/>
<path style=" stroke:none;fill-rule:nonzero;fill:rgb(68.235296%,13.333334%,14.901961%);fill-opacity:1;" d="M 31.253906 12.757812 C 31.3125 12.785156 31.3125 12.824219 31.246094 12.847656 L 30.054688 13.304688 C 29.988281 13.328125 29.886719 13.332031 29.824219 13.308594 L 28.691406 12.875 C 28.628906 12.847656 28.628906 12.808594 28.695312 12.785156 L 29.886719 12.328125 C 29.953125 12.304688 30.058594 12.300781 30.121094 12.324219 Z M 31.253906 12.757812 "/>
</g>
</svg>
