<?xml version="1.0" encoding="UTF-8"?>
<svg xmlns="http://www.w3.org/2000/svg" xmlns:xlink="http://www.w3.org/1999/xlink" width="50px" height="24px" viewBox="0 0 51 24" version="1.1">
<g id="surface1">
<path style=" stroke:none;fill-rule:nonzero;fill:rgb(100%,100%,100%);fill-opacity:1;" d="M 46 12.058594 L 46 12.039062 L 45.992188 12.019531 L 45.992188 12 L 45.984375 11.960938 L 45.976562 11.941406 L 45.96875 11.917969 L 45.960938 11.898438 L 45.957031 11.878906 L 45.945312 11.859375 L 45.9375 11.839844 L 45.929688 11.824219 L 45.90625 11.785156 L 45.894531 11.769531 L 45.882812 11.75 L 45.847656 11.703125 L 45.816406 11.671875 L 45.800781 11.660156 L 45.769531 11.628906 L 45.722656 11.59375 L 45.703125 11.582031 L 45.667969 11.5625 L 45.648438 11.554688 L 45.632812 11.546875 L 45.609375 11.539062 L 45.550781 11.515625 L 45.53125 11.511719 L 45.511719 11.503906 L 45.488281 11.5 L 45.46875 11.5 L 45.429688 11.492188 L 37.960938 11.492188 L 30.847656 11.5 L 21.242188 11.492188 L 5.5625 11.492188 L 5.523438 11.5 L 5.503906 11.5 L 5.484375 11.503906 L 5.464844 11.511719 L 5.441406 11.515625 L 5.324219 11.5625 L 5.289062 11.582031 L 5.269531 11.59375 L 5.222656 11.628906 L 5.191406 11.660156 L 5.175781 11.671875 L 5.160156 11.6875 L 5.148438 11.703125 L 5.132812 11.71875 L 5.109375 11.75 L 5.097656 11.769531 L 5.085938 11.785156 L 5.0625 11.824219 L 5.054688 11.839844 L 5.023438 11.917969 L 5.015625 11.941406 L 5.007812 11.980469 L 5 12 L 5 12.019531 L 4.992188 12.058594 L 4.992188 18.429688 L 4.996094 18.453125 L 5.003906 18.507812 L 5.011719 18.535156 L 5.015625 18.5625 L 5.03125 18.601562 L 5.042969 18.625 L 5.058594 18.664062 L 5.074219 18.683594 L 5.105469 18.730469 L 5.128906 18.761719 L 5.148438 18.785156 L 5.1875 18.824219 L 5.226562 18.859375 L 5.25 18.878906 L 5.285156 18.898438 L 5.304688 18.914062 L 5.332031 18.925781 L 5.367188 18.945312 L 5.394531 18.957031 L 5.417969 18.96875 L 5.445312 18.972656 L 5.5 18.988281 L 5.527344 18.992188 L 5.550781 18.996094 L 5.609375 19 L 21.246094 19 L 30.851562 18.996094 L 37.96875 19 L 45.375 19 L 45.402344 18.996094 L 45.425781 18.996094 L 45.507812 18.984375 L 45.535156 18.976562 L 45.574219 18.964844 L 45.601562 18.953125 L 45.625 18.941406 L 45.664062 18.925781 L 45.6875 18.910156 L 45.722656 18.890625 L 45.746094 18.875 L 45.769531 18.855469 L 45.808594 18.820312 L 45.847656 18.78125 L 45.867188 18.757812 L 45.882812 18.738281 L 45.914062 18.691406 L 45.925781 18.667969 L 45.941406 18.644531 L 45.957031 18.609375 L 45.96875 18.582031 L 45.976562 18.558594 L 45.984375 18.53125 L 45.992188 18.476562 L 46 18.449219 L 46 18.421875 L 46.003906 18.398438 L 46.003906 12.101562 Z M 13.582031 16.0625 L 13.582031 16.105469 L 13.578125 16.140625 L 13.570312 16.21875 L 13.554688 16.296875 L 13.546875 16.332031 L 13.539062 16.371094 L 13.503906 16.476562 L 13.488281 16.511719 L 13.472656 16.550781 L 13.457031 16.582031 L 13.441406 16.617188 L 13.421875 16.652344 L 13.402344 16.683594 L 13.382812 16.71875 L 13.335938 16.78125 L 13.316406 16.8125 L 13.292969 16.839844 L 13.269531 16.871094 L 13.242188 16.894531 L 13.15625 16.980469 L 13.128906 17.003906 L 13.097656 17.027344 L 13.066406 17.046875 L 13.035156 17.070312 L 13.003906 17.089844 L 12.96875 17.113281 L 12.9375 17.132812 L 12.871094 17.167969 L 12.832031 17.183594 L 12.796875 17.199219 L 12.761719 17.210938 L 12.726562 17.226562 L 12.691406 17.238281 L 12.652344 17.246094 L 12.617188 17.257812 L 12.542969 17.273438 L 12.503906 17.28125 L 12.464844 17.285156 L 12.429688 17.285156 L 12.390625 17.289062 L 12.351562 17.289062 L 7.933594 17.292969 L 7.90625 17.292969 L 7.875 17.289062 L 7.820312 17.28125 L 7.792969 17.273438 L 7.738281 17.25 L 7.65625 17.195312 L 7.632812 17.175781 L 7.613281 17.152344 L 7.59375 17.132812 L 7.546875 17.0625 L 7.535156 17.039062 L 7.519531 16.996094 L 7.507812 16.96875 L 7.503906 16.945312 L 7.5 16.914062 L 7.492188 16.859375 L 7.492188 16.839844 L 7.496094 16.824219 L 7.496094 16.808594 L 7.5 16.78125 L 7.523438 16.699219 L 7.546875 16.644531 L 7.59375 16.574219 L 7.648438 16.519531 L 7.660156 16.511719 L 7.683594 16.492188 L 7.730469 16.460938 L 7.785156 16.4375 L 7.8125 16.429688 L 7.839844 16.417969 L 7.894531 16.410156 L 10.648438 16.410156 L 12.414062 16.40625 L 12.445312 16.398438 L 12.464844 16.394531 L 12.496094 16.382812 L 12.515625 16.371094 L 12.535156 16.363281 L 12.554688 16.351562 L 12.582031 16.328125 L 12.628906 16.28125 L 12.652344 16.25 L 12.6875 16.191406 L 12.703125 16.152344 L 12.707031 16.128906 L 12.710938 16.109375 L 12.71875 16.089844 L 12.71875 16.003906 L 12.707031 15.945312 L 12.699219 15.921875 L 12.691406 15.902344 L 12.664062 15.847656 L 12.652344 15.832031 L 12.644531 15.816406 L 12.632812 15.800781 L 12.617188 15.789062 L 12.597656 15.769531 L 12.550781 15.730469 L 12.527344 15.71875 L 12.507812 15.710938 L 12.492188 15.703125 L 12.464844 15.691406 L 12.40625 15.679688 L 8.539062 15.679688 L 8.425781 15.671875 L 8.351562 15.675781 L 8.3125 15.667969 L 8.273438 15.664062 L 8.195312 15.644531 L 8.160156 15.632812 L 8.121094 15.621094 L 8.085938 15.609375 L 7.980469 15.5625 L 7.910156 15.523438 L 7.878906 15.503906 L 7.84375 15.484375 L 7.78125 15.4375 L 7.75 15.417969 L 7.71875 15.390625 L 7.691406 15.363281 L 7.664062 15.339844 L 7.609375 15.285156 L 7.582031 15.253906 L 7.488281 15.128906 L 7.449219 15.066406 L 7.429688 15.027344 L 7.410156 14.996094 L 7.378906 14.925781 L 7.367188 14.886719 L 7.351562 14.851562 L 7.339844 14.816406 L 7.328125 14.777344 L 7.316406 14.742188 L 7.308594 14.703125 L 7.300781 14.667969 L 7.292969 14.628906 L 7.28125 14.511719 L 7.28125 14.390625 L 7.289062 14.3125 L 7.304688 14.234375 L 7.308594 14.195312 L 7.328125 14.121094 L 7.339844 14.085938 L 7.351562 14.046875 L 7.367188 14.011719 L 7.378906 13.976562 L 7.394531 13.9375 L 7.410156 13.902344 L 7.429688 13.871094 L 7.46875 13.800781 L 7.488281 13.769531 L 7.582031 13.644531 L 7.609375 13.617188 L 7.632812 13.585938 L 7.660156 13.558594 L 7.71875 13.507812 L 7.75 13.480469 L 7.8125 13.433594 L 7.84375 13.414062 L 7.878906 13.390625 L 7.945312 13.351562 L 7.980469 13.335938 L 8.015625 13.316406 L 8.085938 13.285156 L 8.121094 13.273438 L 8.160156 13.261719 L 8.195312 13.25 L 8.234375 13.242188 L 8.269531 13.230469 L 8.308594 13.226562 L 8.347656 13.21875 L 8.503906 13.203125 L 12.882812 13.203125 L 12.898438 13.207031 L 12.914062 13.207031 L 12.96875 13.214844 L 13.011719 13.226562 L 13.039062 13.234375 L 13.09375 13.257812 L 13.152344 13.296875 L 13.175781 13.316406 L 13.207031 13.347656 L 13.246094 13.394531 L 13.261719 13.414062 L 13.28125 13.453125 L 13.292969 13.480469 L 13.308594 13.519531 L 13.316406 13.546875 L 13.320312 13.578125 L 13.324219 13.617188 L 13.328125 13.632812 L 13.328125 13.664062 L 13.324219 13.679688 L 13.320312 13.722656 L 13.316406 13.75 L 13.308594 13.777344 L 13.292969 13.816406 L 13.269531 13.871094 L 13.238281 13.917969 L 13.214844 13.9375 L 13.207031 13.949219 L 13.175781 13.980469 L 13.140625 14.007812 L 13.121094 14.023438 L 13.082031 14.042969 L 13.054688 14.054688 L 13.027344 14.0625 L 13 14.074219 L 12.917969 14.089844 L 8.496094 14.089844 L 8.464844 14.097656 L 8.441406 14.101562 L 8.410156 14.113281 L 8.390625 14.121094 L 8.363281 14.136719 L 8.34375 14.148438 L 8.316406 14.167969 L 8.277344 14.207031 L 8.265625 14.222656 L 8.25 14.238281 L 8.226562 14.273438 L 8.210938 14.304688 L 8.195312 14.34375 L 8.191406 14.363281 L 8.183594 14.382812 L 8.179688 14.40625 L 8.179688 14.488281 L 8.183594 14.519531 L 8.191406 14.539062 L 8.199219 14.578125 L 8.210938 14.605469 L 8.222656 14.621094 L 8.230469 14.636719 L 8.242188 14.65625 L 8.257812 14.675781 L 8.277344 14.699219 L 8.3125 14.734375 L 8.34375 14.757812 L 8.363281 14.769531 L 8.378906 14.777344 L 8.40625 14.789062 L 8.421875 14.796875 L 8.441406 14.804688 L 8.496094 14.8125 L 12.46875 14.8125 L 12.550781 14.824219 L 12.585938 14.832031 L 12.625 14.839844 L 12.660156 14.851562 L 12.699219 14.859375 L 12.769531 14.882812 L 12.804688 14.898438 L 12.84375 14.914062 L 12.878906 14.929688 L 12.945312 14.964844 L 12.980469 14.988281 L 13.042969 15.027344 L 13.074219 15.050781 L 13.105469 15.070312 L 13.132812 15.09375 L 13.164062 15.117188 L 13.21875 15.171875 L 13.246094 15.195312 L 13.273438 15.226562 L 13.296875 15.253906 L 13.367188 15.347656 L 13.386719 15.378906 L 13.410156 15.410156 L 13.429688 15.445312 L 13.445312 15.476562 L 13.464844 15.511719 L 13.480469 15.546875 L 13.507812 15.617188 L 13.546875 15.726562 L 13.554688 15.761719 L 13.5625 15.800781 L 13.570312 15.835938 L 13.578125 15.875 L 13.582031 15.910156 L 13.582031 15.949219 L 13.589844 16.027344 Z M 20.796875 14.5 L 20.796875 14.539062 L 20.789062 14.578125 L 20.785156 14.617188 L 20.777344 14.65625 L 20.773438 14.695312 L 20.765625 14.730469 L 20.753906 14.765625 L 20.742188 14.804688 L 20.707031 14.910156 L 20.675781 14.980469 L 20.65625 15.015625 L 20.621094 15.082031 L 20.601562 15.113281 L 20.578125 15.144531 L 20.558594 15.175781 L 20.511719 15.238281 L 20.484375 15.265625 L 20.460938 15.296875 L 20.433594 15.324219 L 20.40625 15.347656 L 20.375 15.375 L 20.347656 15.402344 L 20.285156 15.449219 L 20.253906 15.46875 L 20.222656 15.492188 L 20.1875 15.511719 L 20.125 15.550781 L 20.085938 15.566406 L 20.054688 15.582031 L 20.019531 15.597656 L 19.980469 15.613281 L 19.910156 15.636719 L 19.871094 15.648438 L 19.835938 15.65625 L 19.796875 15.664062 L 19.761719 15.671875 L 19.726562 15.675781 L 19.683594 15.683594 L 19.644531 15.683594 L 19.609375 15.6875 L 19.566406 15.691406 L 17.597656 15.695312 L 15.703125 15.695312 L 15.679688 15.707031 L 15.664062 15.710938 L 15.644531 15.722656 L 15.59375 15.773438 L 15.582031 15.789062 L 15.574219 15.8125 L 15.566406 15.828125 L 15.558594 15.847656 L 15.558594 15.863281 L 15.554688 15.882812 L 15.558594 16.863281 L 15.554688 16.878906 L 15.554688 16.914062 L 15.550781 16.933594 L 15.546875 16.957031 L 15.539062 16.988281 L 15.535156 17.007812 L 15.523438 17.027344 L 15.519531 17.042969 L 15.496094 17.082031 L 15.488281 17.097656 L 15.480469 17.105469 L 15.46875 17.128906 L 15.457031 17.144531 L 15.445312 17.152344 L 15.398438 17.199219 L 15.363281 17.226562 L 15.328125 17.25 L 15.289062 17.269531 L 15.25 17.285156 L 15.207031 17.296875 L 15.167969 17.304688 L 15.0625 17.304688 L 15.019531 17.296875 L 14.992188 17.289062 L 14.96875 17.28125 L 14.925781 17.265625 L 14.898438 17.253906 L 14.863281 17.230469 L 14.828125 17.203125 L 14.816406 17.195312 L 14.785156 17.164062 L 14.777344 17.152344 L 14.765625 17.140625 L 14.726562 17.082031 L 14.707031 17.042969 L 14.695312 17.015625 L 14.683594 16.992188 L 14.667969 16.9375 L 14.667969 16.90625 L 14.664062 16.890625 L 14.664062 15.765625 L 14.667969 15.75 L 14.667969 15.734375 L 14.671875 15.714844 L 14.671875 15.699219 L 14.679688 15.667969 L 14.683594 15.636719 L 14.6875 15.621094 L 14.6875 15.605469 L 14.695312 15.589844 L 14.695312 15.574219 L 14.699219 15.558594 L 14.707031 15.542969 L 14.714844 15.511719 L 14.722656 15.496094 L 14.726562 15.480469 L 14.742188 15.449219 L 14.746094 15.433594 L 14.769531 15.386719 L 14.773438 15.371094 L 14.78125 15.355469 L 14.789062 15.34375 L 14.792969 15.328125 L 14.804688 15.3125 L 14.808594 15.300781 L 14.820312 15.285156 L 14.824219 15.269531 L 14.835938 15.257812 L 14.851562 15.230469 L 14.863281 15.21875 L 14.871094 15.207031 L 14.882812 15.191406 L 14.894531 15.179688 L 14.902344 15.167969 L 14.914062 15.15625 L 14.933594 15.132812 L 14.945312 15.125 L 14.96875 15.101562 L 14.976562 15.089844 L 15 15.066406 L 15.015625 15.054688 L 15.035156 15.035156 L 15.050781 15.023438 L 15.0625 15.015625 L 15.074219 15.003906 L 15.089844 14.996094 L 15.097656 14.988281 L 15.113281 14.976562 L 15.125 14.96875 L 15.15625 14.953125 L 15.167969 14.945312 L 15.183594 14.941406 L 15.214844 14.925781 L 15.226562 14.917969 L 15.242188 14.914062 L 15.257812 14.90625 L 15.289062 14.894531 L 15.304688 14.886719 L 15.320312 14.882812 L 15.335938 14.875 L 15.351562 14.871094 L 15.367188 14.863281 L 15.414062 14.851562 L 15.429688 14.84375 L 15.445312 14.84375 L 15.476562 14.835938 L 15.492188 14.835938 L 15.507812 14.832031 L 15.539062 14.828125 L 15.554688 14.828125 L 15.574219 14.824219 L 19.609375 14.824219 L 19.628906 14.820312 L 19.652344 14.816406 L 19.679688 14.808594 L 19.710938 14.796875 L 19.730469 14.789062 L 19.757812 14.773438 L 19.789062 14.75 L 19.804688 14.734375 L 19.828125 14.714844 L 19.839844 14.699219 L 19.855469 14.683594 L 19.867188 14.664062 L 19.878906 14.648438 L 19.886719 14.628906 L 19.898438 14.609375 L 19.910156 14.582031 L 19.914062 14.5625 L 19.921875 14.53125 L 19.925781 14.511719 L 19.929688 14.476562 L 19.929688 14.445312 L 19.917969 14.386719 L 19.914062 14.359375 L 19.90625 14.335938 L 19.898438 14.316406 L 19.878906 14.277344 L 19.867188 14.261719 L 19.855469 14.242188 L 19.796875 14.183594 L 19.765625 14.160156 L 19.730469 14.140625 L 19.703125 14.128906 L 19.683594 14.121094 L 19.660156 14.109375 L 19.632812 14.105469 L 19.617188 14.101562 L 19.589844 14.101562 L 19.574219 14.097656 L 15.09375 14.097656 L 15.074219 14.09375 L 15.054688 14.09375 L 15.042969 14.089844 L 15.027344 14.089844 L 15.011719 14.085938 L 14.992188 14.082031 L 14.976562 14.078125 L 14.957031 14.070312 L 14.941406 14.066406 L 14.925781 14.058594 L 14.914062 14.054688 L 14.898438 14.046875 L 14.890625 14.039062 L 14.875 14.03125 L 14.863281 14.023438 L 14.847656 14.011719 L 14.835938 14.003906 L 14.824219 13.992188 L 14.8125 13.984375 L 14.773438 13.945312 L 14.757812 13.921875 L 14.738281 13.902344 L 14.722656 13.875 L 14.699219 13.824219 L 14.683594 13.78125 L 14.675781 13.753906 L 14.671875 13.726562 L 14.667969 13.710938 L 14.667969 13.695312 L 14.664062 13.679688 L 14.664062 13.628906 L 14.667969 13.609375 L 14.667969 13.585938 L 14.671875 13.566406 L 14.679688 13.542969 L 14.683594 13.519531 L 14.691406 13.496094 L 14.703125 13.472656 L 14.710938 13.449219 L 14.734375 13.410156 L 14.757812 13.382812 L 14.769531 13.367188 L 14.785156 13.351562 L 14.804688 13.328125 L 14.820312 13.3125 L 14.839844 13.300781 L 14.867188 13.28125 L 14.90625 13.257812 L 14.925781 13.25 L 14.953125 13.238281 L 14.972656 13.230469 L 15.050781 13.214844 L 15.074219 13.214844 L 15.101562 13.210938 L 19.667969 13.210938 L 19.746094 13.226562 L 19.785156 13.230469 L 19.824219 13.242188 L 19.859375 13.25 L 19.898438 13.261719 L 20.003906 13.296875 L 20.039062 13.3125 L 20.078125 13.328125 L 20.113281 13.34375 L 20.144531 13.367188 L 20.175781 13.382812 L 20.210938 13.402344 L 20.242188 13.425781 L 20.273438 13.445312 L 20.304688 13.46875 L 20.332031 13.492188 L 20.363281 13.515625 L 20.472656 13.625 L 20.496094 13.65625 L 20.523438 13.6875 L 20.542969 13.71875 L 20.589844 13.78125 L 20.628906 13.84375 L 20.648438 13.878906 L 20.710938 14.019531 L 20.734375 14.089844 L 20.746094 14.128906 L 20.761719 14.199219 L 20.777344 14.277344 L 20.78125 14.316406 L 20.785156 14.351562 L 20.789062 14.390625 L 20.789062 14.429688 Z M 25.640625 13.75 L 25.640625 13.777344 L 25.632812 13.832031 L 25.625 13.859375 L 25.605469 13.910156 L 25.589844 13.949219 L 25.574219 13.96875 L 25.5625 13.992188 L 25.546875 14.015625 L 25.527344 14.039062 L 25.5 14.070312 L 25.480469 14.085938 L 25.460938 14.105469 L 25.441406 14.121094 L 25.382812 14.160156 L 25.347656 14.175781 L 25.320312 14.1875 L 25.242188 14.210938 L 25.199219 14.214844 L 25.175781 14.21875 L 25.148438 14.21875 L 25.105469 14.214844 L 23.84375 14.214844 L 23.820312 14.21875 L 23.800781 14.222656 L 23.777344 14.222656 L 23.753906 14.226562 L 23.730469 14.226562 L 23.710938 14.230469 L 23.664062 14.238281 L 23.644531 14.242188 L 23.597656 14.257812 L 23.574219 14.261719 L 23.554688 14.269531 L 23.53125 14.277344 L 23.511719 14.285156 L 23.488281 14.292969 L 23.449219 14.3125 L 23.425781 14.320312 L 23.386719 14.34375 L 23.363281 14.355469 L 23.265625 14.414062 L 23.226562 14.445312 L 23.207031 14.457031 L 23.191406 14.472656 L 23.171875 14.488281 L 23.09375 14.566406 L 23.0625 14.605469 L 23.046875 14.621094 L 23.035156 14.640625 L 23.019531 14.660156 L 23.007812 14.679688 L 22.992188 14.699219 L 22.972656 14.738281 L 22.960938 14.757812 L 22.929688 14.820312 L 22.917969 14.839844 L 22.910156 14.859375 L 22.898438 14.882812 L 22.894531 14.902344 L 22.886719 14.925781 L 22.871094 14.964844 L 22.863281 15.011719 L 22.855469 15.035156 L 22.851562 15.054688 L 22.839844 15.125 L 22.839844 15.144531 L 22.835938 15.167969 L 22.835938 15.191406 L 22.832031 15.210938 L 22.832031 15.28125 L 22.835938 15.347656 L 22.84375 15.417969 L 22.855469 15.480469 L 22.871094 15.546875 L 22.894531 15.609375 L 22.917969 15.667969 L 22.980469 15.785156 L 23.019531 15.84375 L 23.058594 15.894531 L 23.101562 15.941406 L 23.148438 15.992188 L 23.199219 16.035156 L 23.253906 16.078125 L 23.363281 16.148438 L 23.425781 16.179688 L 23.484375 16.207031 L 23.550781 16.230469 L 23.617188 16.25 L 23.683594 16.265625 L 23.753906 16.277344 L 23.820312 16.28125 L 23.894531 16.285156 L 25.113281 16.285156 L 25.128906 16.289062 L 25.144531 16.289062 L 25.160156 16.292969 L 25.191406 16.296875 L 25.253906 16.3125 L 25.300781 16.335938 L 25.316406 16.339844 L 25.328125 16.347656 L 25.375 16.371094 L 25.386719 16.382812 L 25.398438 16.390625 L 25.425781 16.410156 L 25.496094 16.480469 L 25.503906 16.496094 L 25.515625 16.507812 L 25.523438 16.523438 L 25.53125 16.535156 L 25.546875 16.566406 L 25.550781 16.582031 L 25.566406 16.613281 L 25.570312 16.628906 L 25.578125 16.644531 L 25.582031 16.660156 L 25.582031 16.675781 L 25.589844 16.691406 L 25.589844 16.707031 L 25.59375 16.722656 L 25.59375 16.753906 L 25.597656 16.769531 L 25.597656 16.800781 L 25.59375 16.816406 L 25.59375 16.847656 L 25.589844 16.863281 L 25.589844 16.878906 L 25.582031 16.894531 L 25.582031 16.910156 L 25.578125 16.925781 L 25.570312 16.941406 L 25.566406 16.957031 L 25.550781 16.988281 L 25.546875 17.003906 L 25.539062 17.015625 L 25.523438 17.046875 L 25.515625 17.058594 L 25.503906 17.074219 L 25.496094 17.085938 L 25.484375 17.101562 L 25.425781 17.160156 L 25.414062 17.167969 L 25.398438 17.179688 L 25.390625 17.191406 L 25.375 17.199219 L 25.359375 17.210938 L 25.347656 17.214844 L 25.300781 17.238281 L 25.285156 17.242188 L 25.253906 17.257812 L 25.238281 17.261719 L 25.222656 17.269531 L 25.207031 17.269531 L 25.160156 17.28125 L 25.144531 17.28125 L 25.128906 17.285156 L 23.90625 17.285156 L 23.769531 17.28125 L 23.632812 17.269531 L 23.5 17.246094 L 23.371094 17.214844 L 23.246094 17.179688 L 23.125 17.132812 L 23.007812 17.078125 L 22.890625 17.015625 L 22.78125 16.953125 L 22.671875 16.878906 L 22.574219 16.800781 L 22.476562 16.714844 L 22.382812 16.625 L 22.300781 16.527344 L 22.222656 16.425781 L 22.148438 16.320312 L 22.085938 16.210938 L 22.027344 16.097656 L 21.976562 15.980469 L 21.933594 15.859375 L 21.898438 15.730469 L 21.871094 15.605469 L 21.855469 15.476562 L 21.84375 15.339844 L 21.84375 15.160156 L 21.847656 15.113281 L 21.851562 15.070312 L 21.859375 15.023438 L 21.863281 14.980469 L 21.871094 14.933594 L 21.878906 14.890625 L 21.890625 14.84375 L 21.914062 14.757812 L 21.921875 14.714844 L 21.9375 14.671875 L 21.949219 14.628906 L 21.980469 14.542969 L 21.996094 14.503906 L 22.015625 14.460938 L 22.074219 14.34375 L 22.097656 14.300781 L 22.167969 14.183594 L 22.191406 14.148438 L 22.242188 14.074219 L 22.269531 14.039062 L 22.296875 14 L 22.328125 13.964844 L 22.355469 13.933594 L 22.382812 13.898438 L 22.445312 13.835938 L 22.480469 13.804688 L 22.542969 13.742188 L 22.71875 13.605469 L 22.757812 13.582031 L 22.792969 13.558594 L 22.871094 13.511719 L 22.949219 13.472656 L 22.992188 13.449219 L 23.03125 13.429688 L 23.070312 13.414062 L 23.113281 13.394531 L 23.199219 13.363281 L 23.238281 13.347656 L 23.28125 13.335938 L 23.324219 13.320312 L 23.371094 13.308594 L 23.414062 13.296875 L 23.542969 13.273438 L 23.589844 13.265625 L 23.632812 13.261719 L 23.679688 13.257812 L 23.722656 13.25 L 23.769531 13.25 L 23.8125 13.246094 L 25.175781 13.246094 L 25.214844 13.25 L 25.242188 13.257812 L 25.285156 13.265625 L 25.3125 13.277344 L 25.335938 13.289062 L 25.371094 13.304688 L 25.394531 13.320312 L 25.429688 13.339844 L 25.449219 13.355469 L 25.527344 13.433594 L 25.542969 13.457031 L 25.5625 13.492188 L 25.578125 13.515625 L 25.589844 13.539062 L 25.601562 13.566406 L 25.609375 13.59375 L 25.625 13.644531 L 25.632812 13.699219 L 25.632812 13.738281 Z M 30.382812 15.308594 L 30.378906 15.375 L 30.378906 15.410156 L 30.375 15.445312 L 30.371094 15.476562 L 30.367188 15.511719 L 30.363281 15.542969 L 30.355469 15.574219 L 30.351562 15.609375 L 30.34375 15.644531 L 30.335938 15.675781 L 30.332031 15.707031 L 30.316406 15.769531 L 30.304688 15.800781 L 30.292969 15.835938 L 30.285156 15.867188 L 30.226562 16.023438 L 30.195312 16.085938 L 30.183594 16.117188 L 30.167969 16.144531 L 30.152344 16.179688 L 30.121094 16.234375 L 30.101562 16.265625 L 30.085938 16.292969 L 30.066406 16.320312 L 30.046875 16.351562 L 30.011719 16.40625 L 29.988281 16.433594 L 29.949219 16.488281 L 29.925781 16.511719 L 29.90625 16.539062 L 29.882812 16.566406 L 29.835938 16.613281 L 29.816406 16.640625 L 29.769531 16.6875 L 29.746094 16.707031 L 29.722656 16.730469 L 29.695312 16.753906 L 29.671875 16.777344 L 29.617188 16.816406 L 29.589844 16.839844 L 29.566406 16.859375 L 29.539062 16.878906 L 29.480469 16.917969 L 29.453125 16.9375 L 29.425781 16.953125 L 29.398438 16.972656 L 29.367188 16.988281 L 29.339844 17.007812 L 29.277344 17.039062 L 29.25 17.054688 L 29.1875 17.085938 L 29.15625 17.097656 L 29.125 17.113281 L 29.09375 17.121094 L 28.9375 17.179688 L 28.902344 17.1875 L 28.871094 17.195312 L 28.839844 17.207031 L 28.804688 17.210938 L 28.742188 17.226562 L 28.710938 17.230469 L 28.675781 17.238281 L 28.640625 17.242188 L 28.609375 17.246094 L 28.574219 17.25 L 28.542969 17.253906 L 28.511719 17.253906 L 28.472656 17.257812 L 28.441406 17.257812 L 28.40625 17.261719 L 27.113281 17.261719 L 27.09375 17.257812 L 27.078125 17.257812 L 27.0625 17.253906 L 27.046875 17.253906 L 26.984375 17.238281 L 26.96875 17.230469 L 26.953125 17.226562 L 26.921875 17.210938 L 26.894531 17.195312 L 26.878906 17.191406 L 26.863281 17.183594 L 26.851562 17.175781 L 26.835938 17.164062 L 26.824219 17.152344 L 26.8125 17.144531 L 26.742188 17.074219 L 26.734375 17.058594 L 26.722656 17.046875 L 26.710938 17.03125 L 26.695312 17.007812 L 26.679688 16.976562 L 26.675781 16.960938 L 26.652344 16.914062 L 26.636719 16.851562 L 26.636719 16.835938 L 26.632812 16.820312 L 26.632812 16.804688 L 26.628906 16.789062 L 26.628906 16.722656 L 26.632812 16.707031 L 26.632812 16.691406 L 26.636719 16.675781 L 26.636719 16.660156 L 26.652344 16.597656 L 26.675781 16.550781 L 26.679688 16.539062 L 26.703125 16.492188 L 26.710938 16.480469 L 26.722656 16.464844 L 26.734375 16.453125 L 26.742188 16.441406 L 26.8125 16.371094 L 26.824219 16.363281 L 26.835938 16.351562 L 26.863281 16.335938 L 26.878906 16.324219 L 26.894531 16.320312 L 26.921875 16.304688 L 26.96875 16.28125 L 27.03125 16.265625 L 27.046875 16.265625 L 27.0625 16.261719 L 27.078125 16.261719 L 27.09375 16.257812 L 28.335938 16.257812 L 28.40625 16.253906 L 28.46875 16.246094 L 28.601562 16.222656 L 28.664062 16.203125 L 28.722656 16.183594 L 28.839844 16.128906 L 28.894531 16.097656 L 28.949219 16.0625 L 29.050781 15.984375 L 29.140625 15.894531 L 29.21875 15.792969 L 29.253906 15.738281 L 29.285156 15.683594 L 29.3125 15.628906 L 29.335938 15.570312 L 29.355469 15.507812 L 29.371094 15.449219 L 29.382812 15.386719 L 29.390625 15.320312 L 29.398438 15.273438 L 29.398438 15.15625 L 29.390625 15.109375 L 29.390625 15.085938 L 29.386719 15.066406 L 29.382812 15.042969 L 29.375 15.019531 L 29.371094 14.996094 L 29.367188 14.976562 L 29.351562 14.929688 L 29.34375 14.910156 L 29.339844 14.886719 L 29.328125 14.863281 L 29.320312 14.839844 L 29.3125 14.820312 L 29.289062 14.773438 L 29.277344 14.753906 L 29.265625 14.730469 L 29.230469 14.671875 L 29.214844 14.652344 L 29.203125 14.628906 L 29.140625 14.550781 L 29.125 14.535156 L 29.109375 14.515625 L 29.074219 14.484375 L 29.054688 14.46875 L 29.039062 14.453125 L 28.941406 14.375 L 28.921875 14.363281 L 28.898438 14.347656 L 28.839844 14.3125 L 28.816406 14.300781 L 28.796875 14.289062 L 28.773438 14.277344 L 28.753906 14.269531 L 28.683594 14.246094 L 28.664062 14.238281 L 28.640625 14.230469 L 28.617188 14.226562 L 28.570312 14.214844 L 28.546875 14.210938 L 28.527344 14.207031 L 28.480469 14.199219 L 28.457031 14.199219 L 28.433594 14.195312 L 28.410156 14.195312 L 28.390625 14.191406 L 28.363281 14.191406 L 27.113281 14.195312 L 27.058594 14.195312 L 27.019531 14.191406 L 26.980469 14.183594 L 26.9375 14.175781 L 26.902344 14.160156 L 26.863281 14.144531 L 26.839844 14.128906 L 26.816406 14.117188 L 26.753906 14.0625 L 26.734375 14.046875 L 26.710938 14.027344 L 26.695312 14.007812 L 26.664062 13.960938 L 26.652344 13.9375 L 26.632812 13.902344 L 26.621094 13.878906 L 26.613281 13.851562 L 26.601562 13.8125 L 26.597656 13.785156 L 26.589844 13.757812 L 26.589844 13.664062 L 26.597656 13.609375 L 26.621094 13.527344 L 26.636719 13.492188 L 26.648438 13.46875 L 26.664062 13.445312 L 26.679688 13.425781 L 26.703125 13.394531 L 26.722656 13.371094 L 26.757812 13.335938 L 26.78125 13.320312 L 26.816406 13.292969 L 26.835938 13.28125 L 26.859375 13.265625 L 26.882812 13.257812 L 26.9375 13.234375 L 26.964844 13.230469 L 26.988281 13.222656 L 27.042969 13.214844 L 27.085938 13.214844 L 27.125 13.21875 L 28.316406 13.21875 L 28.453125 13.222656 L 28.585938 13.234375 L 28.714844 13.257812 L 28.847656 13.289062 L 28.972656 13.324219 L 29.09375 13.371094 L 29.214844 13.425781 L 29.328125 13.484375 L 29.4375 13.550781 L 29.546875 13.625 L 29.648438 13.703125 L 29.742188 13.785156 L 29.835938 13.878906 L 29.921875 13.976562 L 30 14.074219 L 30.074219 14.179688 L 30.136719 14.289062 L 30.195312 14.40625 L 30.246094 14.519531 L 30.289062 14.640625 L 30.324219 14.765625 L 30.351562 14.898438 L 30.371094 15.027344 L 30.382812 15.160156 Z M 37.664062 14.460938 L 37.664062 14.503906 L 37.660156 14.542969 L 37.660156 14.582031 L 37.652344 14.625 L 37.644531 14.660156 L 37.628906 14.738281 L 37.609375 14.8125 L 37.597656 14.851562 L 37.585938 14.886719 L 37.539062 14.992188 L 37.5 15.0625 L 37.480469 15.09375 L 37.460938 15.128906 L 37.4375 15.160156 L 37.417969 15.191406 L 37.390625 15.222656 L 37.371094 15.253906 L 37.34375 15.28125 L 37.316406 15.3125 L 37.289062 15.339844 L 37.261719 15.363281 L 37.199219 15.417969 L 37.136719 15.464844 L 37.105469 15.484375 L 37.070312 15.507812 L 37.039062 15.527344 L 37.003906 15.546875 L 36.933594 15.582031 L 36.828125 15.628906 L 36.792969 15.636719 L 36.753906 15.648438 L 36.71875 15.660156 L 36.640625 15.675781 L 36.605469 15.683594 L 36.5625 15.6875 L 36.527344 15.691406 L 36.484375 15.695312 L 36.007812 15.695312 L 37.183594 16.511719 L 37.203125 16.523438 L 37.222656 16.539062 L 37.269531 16.585938 L 37.28125 16.609375 L 37.296875 16.625 L 37.308594 16.644531 L 37.324219 16.675781 L 37.335938 16.695312 L 37.347656 16.730469 L 37.359375 16.761719 L 37.367188 16.808594 L 37.371094 16.828125 L 37.371094 16.894531 L 37.367188 16.933594 L 37.363281 16.953125 L 37.359375 16.976562 L 37.351562 17 L 37.34375 17.019531 L 37.335938 17.042969 L 37.328125 17.0625 L 37.304688 17.101562 L 37.285156 17.132812 L 37.269531 17.148438 L 37.246094 17.175781 L 37.222656 17.195312 L 37.183594 17.226562 L 37.125 17.261719 L 37.101562 17.273438 L 37.082031 17.28125 L 37.0625 17.285156 L 37.039062 17.292969 L 36.992188 17.300781 L 36.972656 17.300781 L 36.949219 17.304688 L 36.925781 17.304688 L 36.902344 17.300781 L 36.882812 17.300781 L 36.851562 17.292969 L 36.828125 17.289062 L 36.796875 17.277344 L 36.757812 17.261719 L 36.734375 17.253906 L 36.699219 17.230469 L 34.488281 15.695312 L 32.539062 15.695312 L 32.511719 15.707031 L 32.496094 15.710938 L 32.484375 15.71875 L 32.472656 15.730469 L 32.449219 15.746094 L 32.441406 15.757812 L 32.421875 15.78125 L 32.40625 15.804688 L 32.402344 15.824219 L 32.398438 15.839844 L 32.398438 16.875 L 32.390625 16.921875 L 32.386719 16.949219 L 32.378906 16.980469 L 32.371094 16.996094 L 32.367188 17.011719 L 32.359375 17.023438 L 32.355469 17.039062 L 32.339844 17.0625 L 32.335938 17.078125 L 32.324219 17.089844 L 32.320312 17.101562 L 32.308594 17.113281 L 32.300781 17.125 L 32.246094 17.179688 L 32.222656 17.199219 L 32.203125 17.214844 L 32.179688 17.230469 L 32.117188 17.261719 L 32.089844 17.273438 L 32.035156 17.289062 L 32.007812 17.292969 L 31.984375 17.296875 L 31.921875 17.296875 L 31.894531 17.292969 L 31.867188 17.285156 L 31.839844 17.28125 L 31.8125 17.269531 L 31.773438 17.253906 L 31.746094 17.242188 L 31.699219 17.210938 L 31.675781 17.191406 L 31.664062 17.183594 L 31.621094 17.140625 L 31.605469 17.117188 L 31.585938 17.097656 L 31.570312 17.074219 L 31.558594 17.046875 L 31.542969 17.023438 L 31.53125 16.996094 L 31.523438 16.953125 L 31.515625 16.929688 L 31.511719 16.898438 L 31.511719 16.882812 L 31.507812 16.867188 L 31.507812 15.773438 L 31.511719 15.757812 L 31.511719 15.726562 L 31.515625 15.707031 L 31.515625 15.691406 L 31.523438 15.660156 L 31.523438 15.644531 L 31.53125 15.613281 L 31.539062 15.578125 L 31.558594 15.5 L 31.574219 15.46875 L 31.578125 15.453125 L 31.59375 15.421875 L 31.601562 15.410156 L 31.605469 15.394531 L 31.628906 15.347656 L 31.636719 15.335938 L 31.640625 15.320312 L 31.652344 15.308594 L 31.65625 15.292969 L 31.664062 15.277344 L 31.671875 15.265625 L 31.683594 15.25 L 31.699219 15.222656 L 31.710938 15.210938 L 31.71875 15.199219 L 31.730469 15.1875 L 31.738281 15.175781 L 31.75 15.160156 L 31.761719 15.148438 L 31.792969 15.113281 L 31.804688 15.101562 L 31.816406 15.09375 L 31.824219 15.082031 L 31.859375 15.046875 L 31.871094 15.039062 L 31.894531 15.019531 L 31.910156 15.007812 L 31.921875 14.996094 L 31.933594 14.988281 L 31.960938 14.972656 L 31.972656 14.960938 L 31.988281 14.957031 L 32.003906 14.945312 L 32.015625 14.941406 L 32.0625 14.917969 L 32.074219 14.914062 L 32.105469 14.898438 L 32.121094 14.894531 L 32.167969 14.871094 L 32.183594 14.867188 L 32.199219 14.859375 L 32.230469 14.851562 L 32.246094 14.84375 L 32.277344 14.835938 L 32.292969 14.835938 L 32.308594 14.828125 L 32.324219 14.828125 L 32.339844 14.824219 L 32.355469 14.824219 L 32.375 14.820312 L 32.390625 14.820312 L 32.421875 14.8125 L 32.441406 14.8125 L 32.457031 14.808594 L 36.46875 14.808594 L 36.488281 14.804688 L 36.511719 14.796875 L 36.546875 14.789062 L 36.566406 14.777344 L 36.589844 14.769531 L 36.605469 14.757812 L 36.625 14.746094 L 36.640625 14.734375 L 36.691406 14.683594 L 36.726562 14.636719 L 36.746094 14.597656 L 36.769531 14.539062 L 36.773438 14.519531 L 36.78125 14.476562 L 36.78125 14.425781 L 36.773438 14.363281 L 36.742188 14.285156 L 36.710938 14.230469 L 36.695312 14.214844 L 36.683594 14.199219 L 36.667969 14.183594 L 36.652344 14.171875 L 36.628906 14.152344 L 36.601562 14.136719 L 36.582031 14.125 L 36.546875 14.105469 L 36.527344 14.101562 L 36.503906 14.09375 L 36.472656 14.085938 L 36.441406 14.085938 L 36.425781 14.082031 L 31.9375 14.082031 L 31.917969 14.078125 L 31.894531 14.078125 L 31.871094 14.074219 L 31.851562 14.070312 L 31.832031 14.0625 L 31.8125 14.058594 L 31.757812 14.035156 L 31.738281 14.023438 L 31.710938 14.003906 L 31.6875 13.988281 L 31.664062 13.96875 L 31.648438 13.953125 L 31.636719 13.9375 L 31.617188 13.917969 L 31.605469 13.902344 L 31.585938 13.875 L 31.570312 13.851562 L 31.558594 13.828125 L 31.535156 13.773438 L 31.53125 13.753906 L 31.523438 13.734375 L 31.523438 13.710938 L 31.515625 13.683594 L 31.515625 13.605469 L 31.523438 13.566406 L 31.523438 13.542969 L 31.53125 13.503906 L 31.542969 13.476562 L 31.550781 13.460938 L 31.5625 13.433594 L 31.574219 13.410156 L 31.585938 13.390625 L 31.605469 13.367188 L 31.617188 13.351562 L 31.636719 13.328125 L 31.671875 13.292969 L 31.6875 13.28125 L 31.710938 13.261719 L 31.730469 13.246094 L 31.753906 13.234375 L 31.792969 13.21875 L 31.824219 13.203125 L 31.847656 13.199219 L 31.867188 13.191406 L 31.890625 13.1875 L 31.910156 13.1875 L 31.929688 13.183594 L 36.519531 13.183594 L 36.636719 13.203125 L 36.714844 13.21875 L 36.75 13.226562 L 36.789062 13.238281 L 36.859375 13.261719 L 36.898438 13.277344 L 36.933594 13.292969 L 36.96875 13.3125 L 37.003906 13.328125 L 37.039062 13.347656 L 37.101562 13.386719 L 37.226562 13.480469 L 37.257812 13.507812 L 37.339844 13.589844 L 37.363281 13.617188 L 37.390625 13.648438 L 37.460938 13.742188 L 37.5 13.8125 L 37.519531 13.84375 L 37.539062 13.878906 L 37.554688 13.917969 L 37.570312 13.953125 L 37.59375 14.023438 L 37.609375 14.0625 L 37.621094 14.097656 L 37.632812 14.136719 L 37.640625 14.171875 L 37.648438 14.210938 L 37.652344 14.25 L 37.660156 14.289062 L 37.664062 14.328125 L 37.664062 14.367188 L 37.667969 14.40625 Z M 44.292969 13.660156 L 44.292969 13.691406 L 44.289062 13.71875 L 44.277344 13.761719 L 44.273438 13.785156 L 44.25 13.839844 L 44.230469 13.875 L 44.203125 13.910156 L 44.183594 13.933594 L 44.175781 13.945312 L 44.140625 13.980469 L 44.101562 14.011719 L 44.0625 14.035156 L 44.035156 14.046875 L 44.015625 14.058594 L 43.960938 14.074219 L 43.941406 14.078125 L 43.917969 14.082031 L 43.898438 14.085938 L 41.738281 14.085938 L 41.738281 16.859375 L 41.734375 16.890625 L 41.730469 16.933594 L 41.722656 16.960938 L 41.714844 16.984375 L 41.691406 17.039062 L 41.675781 17.0625 L 41.660156 17.089844 L 41.644531 17.113281 L 41.617188 17.144531 L 41.609375 17.15625 L 41.597656 17.167969 L 41.550781 17.207031 L 41.515625 17.226562 L 41.492188 17.242188 L 41.4375 17.265625 L 41.398438 17.277344 L 41.371094 17.285156 L 41.339844 17.289062 L 41.316406 17.289062 L 41.300781 17.292969 L 41.28125 17.289062 L 41.25 17.289062 L 41.234375 17.285156 L 41.207031 17.28125 L 41.152344 17.265625 L 41.097656 17.242188 L 41.058594 17.222656 L 41.023438 17.195312 L 41 17.179688 L 40.957031 17.136719 L 40.933594 17.101562 L 40.914062 17.078125 L 40.898438 17.054688 L 40.875 17 L 40.863281 16.960938 L 40.855469 16.933594 L 40.851562 16.90625 L 40.847656 16.890625 L 40.847656 16.875 L 40.84375 16.859375 L 40.84375 14.085938 L 38.691406 14.085938 L 38.664062 14.082031 L 38.625 14.074219 L 38.597656 14.066406 L 38.574219 14.058594 L 38.503906 14.023438 L 38.480469 14.007812 L 38.460938 13.992188 L 38.429688 13.964844 L 38.375 13.902344 L 38.359375 13.878906 L 38.339844 13.84375 L 38.328125 13.816406 L 38.3125 13.777344 L 38.296875 13.722656 L 38.292969 13.695312 L 38.292969 13.671875 L 38.289062 13.640625 L 38.300781 13.558594 L 38.3125 13.519531 L 38.320312 13.492188 L 38.332031 13.464844 L 38.34375 13.441406 L 38.382812 13.382812 L 38.410156 13.351562 L 38.457031 13.304688 L 38.472656 13.292969 L 38.496094 13.277344 L 38.515625 13.265625 L 38.546875 13.25 L 38.585938 13.234375 L 38.625 13.226562 L 38.644531 13.21875 L 38.671875 13.214844 L 43.871094 13.214844 L 43.902344 13.21875 L 43.925781 13.226562 L 43.96875 13.234375 L 43.996094 13.246094 L 44.035156 13.261719 L 44.058594 13.277344 L 44.085938 13.292969 L 44.105469 13.308594 L 44.128906 13.328125 L 44.167969 13.367188 L 44.1875 13.390625 L 44.21875 13.4375 L 44.242188 13.476562 L 44.257812 13.515625 L 44.265625 13.542969 L 44.273438 13.585938 L 44.28125 13.640625 L 44.28125 13.660156 Z M 44.292969 13.660156 "/>
<path style=" stroke:none;fill-rule:nonzero;fill:rgb(100%,100%,100%);fill-opacity:1;" d="M 36.703125 5.601562 L 36.707031 5.636719 L 36.707031 9.273438 L 36.703125 9.296875 L 36.703125 9.320312 L 36.699219 9.339844 L 36.695312 9.363281 L 36.6875 9.394531 L 36.683594 9.414062 L 36.679688 9.4375 L 36.664062 9.476562 L 36.652344 9.507812 L 36.640625 9.527344 L 36.625 9.566406 L 36.605469 9.59375 L 36.59375 9.609375 L 36.582031 9.628906 L 36.550781 9.667969 L 36.53125 9.6875 L 36.519531 9.703125 L 36.5 9.71875 L 36.480469 9.738281 L 36.445312 9.765625 L 36.425781 9.785156 L 36.398438 9.800781 L 36.375 9.8125 L 36.335938 9.835938 L 36.300781 9.851562 L 36.273438 9.863281 L 36.214844 9.878906 L 36.191406 9.886719 L 36.160156 9.894531 L 36.074219 9.902344 L 36.015625 9.902344 L 35.992188 9.898438 L 35.960938 9.898438 L 35.933594 9.894531 L 35.902344 9.886719 L 35.875 9.878906 L 35.832031 9.867188 L 35.808594 9.855469 L 35.78125 9.847656 L 35.753906 9.835938 L 35.726562 9.820312 L 35.691406 9.800781 L 35.667969 9.785156 L 35.621094 9.746094 L 35.59375 9.722656 L 35.550781 9.679688 L 35.539062 9.664062 L 35.523438 9.644531 L 35.503906 9.621094 L 35.492188 9.601562 L 35.480469 9.585938 L 35.449219 9.527344 L 35.433594 9.496094 L 35.417969 9.457031 L 35.414062 9.4375 L 35.398438 9.375 L 35.394531 9.339844 L 35.386719 9.308594 L 35.386719 5.601562 L 35.394531 5.5625 L 35.398438 5.539062 L 35.402344 5.519531 L 35.40625 5.496094 L 35.410156 5.476562 L 35.417969 5.457031 L 35.425781 5.433594 L 35.429688 5.414062 L 35.441406 5.394531 L 35.449219 5.375 L 35.480469 5.316406 L 35.492188 5.300781 L 35.503906 5.28125 L 35.523438 5.257812 L 35.539062 5.238281 L 35.550781 5.222656 L 35.566406 5.207031 L 35.582031 5.195312 L 35.601562 5.171875 L 35.628906 5.148438 L 35.652344 5.128906 L 35.691406 5.105469 L 35.707031 5.09375 L 35.726562 5.078125 L 35.753906 5.066406 L 35.785156 5.050781 L 35.804688 5.042969 L 35.835938 5.03125 L 35.855469 5.027344 L 35.886719 5.015625 L 35.933594 5.007812 L 35.953125 5.003906 L 35.972656 5.003906 L 35.996094 5 L 36.113281 5 L 36.144531 5.003906 L 36.167969 5.007812 L 36.199219 5.015625 L 36.21875 5.019531 L 36.246094 5.027344 L 36.269531 5.035156 L 36.289062 5.042969 L 36.3125 5.050781 L 36.328125 5.0625 L 36.351562 5.070312 L 36.378906 5.089844 L 36.398438 5.101562 L 36.421875 5.117188 L 36.445312 5.136719 L 36.464844 5.148438 L 36.480469 5.164062 L 36.5 5.179688 L 36.519531 5.199219 L 36.53125 5.214844 L 36.5625 5.246094 L 36.574219 5.265625 L 36.59375 5.292969 L 36.613281 5.316406 L 36.621094 5.335938 L 36.632812 5.355469 L 36.644531 5.382812 L 36.65625 5.402344 L 36.664062 5.425781 L 36.671875 5.445312 L 36.683594 5.488281 L 36.691406 5.515625 L 36.699219 5.5625 L 36.703125 5.582031 Z M 36.703125 5.601562 "/>
<path style=" stroke:none;fill-rule:nonzero;fill:rgb(100%,100%,100%);fill-opacity:1;" d="M 13.289062 5.613281 L 13.289062 5.746094 L 13.285156 5.761719 L 13.28125 5.78125 L 13.277344 5.796875 L 13.265625 5.855469 L 13.257812 5.871094 L 13.246094 5.90625 L 13.242188 5.921875 L 13.230469 5.941406 L 13.226562 5.960938 L 13.210938 5.992188 L 13.199219 6.007812 L 13.179688 6.039062 L 13.167969 6.054688 L 13.160156 6.070312 L 13.148438 6.085938 L 13.136719 6.097656 L 13.113281 6.128906 L 13.085938 6.152344 L 13.046875 6.191406 L 13.015625 6.214844 L 13 6.222656 L 12.984375 6.234375 L 12.953125 6.253906 L 12.9375 6.265625 L 12.921875 6.273438 L 12.902344 6.28125 L 12.886719 6.285156 L 12.871094 6.296875 L 12.851562 6.300781 L 12.816406 6.3125 L 12.800781 6.320312 L 12.78125 6.324219 L 12.765625 6.328125 L 12.726562 6.335938 L 12.707031 6.335938 L 12.691406 6.339844 L 12.671875 6.34375 L 9.828125 6.34375 L 9.828125 9.332031 L 9.824219 9.34375 L 9.824219 9.371094 L 9.820312 9.386719 L 9.816406 9.40625 L 9.8125 9.421875 L 9.804688 9.460938 L 9.796875 9.480469 L 9.792969 9.496094 L 9.785156 9.511719 L 9.78125 9.53125 L 9.757812 9.578125 L 9.75 9.597656 L 9.738281 9.613281 L 9.71875 9.644531 L 9.710938 9.660156 L 9.699219 9.675781 L 9.6875 9.6875 L 9.675781 9.707031 L 9.664062 9.722656 L 9.648438 9.730469 L 9.636719 9.746094 L 9.625 9.757812 L 9.613281 9.773438 L 9.582031 9.796875 L 9.570312 9.808594 L 9.539062 9.832031 L 9.523438 9.839844 L 9.507812 9.851562 L 9.476562 9.867188 L 9.460938 9.878906 L 9.445312 9.886719 L 9.40625 9.902344 L 9.390625 9.90625 L 9.375 9.914062 L 9.355469 9.921875 L 9.339844 9.925781 L 9.320312 9.929688 L 9.300781 9.9375 L 9.285156 9.9375 L 9.265625 9.941406 L 9.25 9.945312 L 9.230469 9.945312 L 9.210938 9.949219 L 9.191406 9.949219 L 9.175781 9.953125 L 9.136719 9.953125 L 9.117188 9.949219 L 9.097656 9.949219 L 9.082031 9.945312 L 9.0625 9.945312 L 9.046875 9.941406 L 9.027344 9.9375 L 9.007812 9.9375 L 8.988281 9.929688 L 8.957031 9.921875 L 8.917969 9.90625 L 8.902344 9.902344 L 8.867188 9.886719 L 8.820312 9.859375 L 8.804688 9.851562 L 8.785156 9.839844 L 8.773438 9.832031 L 8.726562 9.796875 L 8.714844 9.785156 L 8.699219 9.773438 L 8.671875 9.746094 L 8.660156 9.730469 L 8.648438 9.722656 L 8.636719 9.707031 L 8.625 9.6875 L 8.613281 9.675781 L 8.589844 9.644531 L 8.582031 9.628906 L 8.570312 9.613281 L 8.5625 9.597656 L 8.550781 9.578125 L 8.546875 9.5625 L 8.53125 9.53125 L 8.523438 9.511719 L 8.519531 9.496094 L 8.511719 9.480469 L 8.5 9.421875 L 8.496094 9.40625 L 8.488281 9.386719 L 8.488281 9.371094 L 8.484375 9.351562 L 8.484375 9.3125 L 8.480469 9.296875 L 8.480469 9.257812 L 8.484375 9.242188 L 8.484375 9.226562 L 8.46875 6.34375 L 5.734375 6.34375 L 5.6875 6.335938 L 5.628906 6.324219 L 5.605469 6.320312 L 5.589844 6.3125 L 5.53125 6.292969 L 5.511719 6.285156 L 5.472656 6.265625 L 5.453125 6.257812 L 5.4375 6.246094 L 5.382812 6.210938 L 5.367188 6.195312 L 5.351562 6.1875 L 5.320312 6.15625 L 5.304688 6.144531 L 5.292969 6.125 L 5.277344 6.113281 L 5.261719 6.097656 L 5.25 6.078125 L 5.238281 6.0625 L 5.226562 6.042969 L 5.214844 6.027344 L 5.207031 6.007812 L 5.195312 5.992188 L 5.183594 5.972656 L 5.167969 5.933594 L 5.152344 5.898438 L 5.144531 5.875 L 5.140625 5.855469 L 5.132812 5.835938 L 5.125 5.796875 L 5.121094 5.773438 L 5.121094 5.753906 L 5.117188 5.734375 L 5.117188 5.714844 L 5.113281 5.691406 L 5.113281 5.652344 L 5.117188 5.628906 L 5.117188 5.609375 L 5.121094 5.585938 L 5.121094 5.566406 L 5.125 5.546875 L 5.128906 5.523438 L 5.132812 5.503906 L 5.140625 5.484375 L 5.144531 5.464844 L 5.183594 5.367188 L 5.195312 5.351562 L 5.207031 5.332031 L 5.214844 5.316406 L 5.238281 5.277344 L 5.261719 5.246094 L 5.292969 5.214844 L 5.304688 5.199219 L 5.335938 5.167969 L 5.351562 5.15625 L 5.367188 5.140625 L 5.382812 5.132812 L 5.421875 5.105469 L 5.4375 5.097656 L 5.453125 5.085938 L 5.472656 5.074219 L 5.492188 5.066406 L 5.53125 5.046875 L 5.546875 5.042969 L 5.566406 5.03125 L 5.589844 5.027344 L 5.605469 5.019531 L 5.628906 5.015625 L 5.6875 5.003906 L 5.710938 5 L 12.582031 5 L 12.597656 4.996094 L 12.636719 4.996094 L 12.652344 5 L 12.691406 5 L 12.707031 5.003906 L 12.726562 5.003906 L 12.746094 5.011719 L 12.765625 5.011719 L 12.78125 5.015625 L 12.800781 5.019531 L 12.816406 5.027344 L 12.851562 5.039062 L 12.871094 5.046875 L 12.902344 5.0625 L 12.921875 5.070312 L 12.9375 5.078125 L 12.953125 5.089844 L 12.984375 5.105469 L 13 5.117188 L 13.015625 5.125 L 13.03125 5.136719 L 13.058594 5.164062 L 13.074219 5.175781 L 13.085938 5.1875 L 13.101562 5.199219 L 13.113281 5.214844 L 13.125 5.226562 L 13.160156 5.273438 L 13.167969 5.289062 L 13.179688 5.300781 L 13.199219 5.332031 L 13.210938 5.351562 L 13.226562 5.382812 L 13.230469 5.398438 L 13.242188 5.417969 L 13.246094 5.433594 L 13.257812 5.46875 L 13.265625 5.488281 L 13.269531 5.503906 L 13.273438 5.523438 L 13.277344 5.539062 L 13.28125 5.5625 L 13.285156 5.578125 L 13.289062 5.597656 Z M 13.289062 5.613281 "/>
<path style=" stroke:none;fill-rule:nonzero;fill:rgb(100%,100%,100%);fill-opacity:1;" d="M 34.25 9.1875 L 34.25 9.28125 L 34.246094 9.3125 L 34.246094 9.332031 L 34.238281 9.363281 L 34.238281 9.378906 L 34.234375 9.398438 L 34.226562 9.414062 L 34.222656 9.429688 L 34.21875 9.449219 L 34.210938 9.464844 L 34.203125 9.496094 L 34.171875 9.558594 L 34.164062 9.570312 L 34.15625 9.585938 L 34.144531 9.601562 L 34.136719 9.617188 L 34.128906 9.628906 L 34.117188 9.644531 L 34.097656 9.667969 L 34.085938 9.683594 L 34.070312 9.695312 L 34.058594 9.707031 L 34.050781 9.722656 L 34.035156 9.730469 L 34.011719 9.753906 L 33.996094 9.765625 L 33.984375 9.773438 L 33.972656 9.785156 L 33.957031 9.792969 L 33.925781 9.8125 L 33.910156 9.820312 L 33.898438 9.832031 L 33.882812 9.835938 L 33.851562 9.851562 L 33.835938 9.855469 L 33.820312 9.863281 L 33.800781 9.867188 L 33.785156 9.875 L 33.753906 9.882812 L 33.734375 9.890625 L 33.71875 9.890625 L 33.6875 9.898438 L 33.652344 9.902344 L 33.53125 9.902344 L 33.515625 9.898438 L 33.5 9.898438 L 33.484375 9.894531 L 33.464844 9.890625 L 33.449219 9.886719 L 33.429688 9.882812 L 33.414062 9.878906 L 33.398438 9.871094 L 33.382812 9.867188 L 33.363281 9.863281 L 33.351562 9.855469 L 33.320312 9.839844 L 33.304688 9.835938 L 33.242188 9.804688 L 33.230469 9.792969 L 33.214844 9.785156 L 33.199219 9.773438 L 33.1875 9.761719 L 33.175781 9.753906 L 33.164062 9.742188 L 33.148438 9.730469 L 33.125 9.707031 L 33.109375 9.695312 L 33.101562 9.683594 L 33.089844 9.667969 L 33.078125 9.65625 L 33.070312 9.640625 L 33.054688 9.625 L 33.023438 9.578125 L 30.753906 6.554688 L 30.742188 6.539062 L 30.730469 6.527344 L 30.71875 6.511719 L 30.675781 6.46875 L 30.652344 6.441406 L 30.628906 6.421875 L 30.609375 6.40625 L 30.597656 6.390625 L 30.589844 6.382812 L 30.554688 6.359375 L 30.539062 6.355469 L 30.515625 6.347656 L 30.492188 6.347656 L 30.476562 6.351562 L 30.46875 6.351562 L 30.460938 6.359375 L 30.4375 6.371094 L 30.429688 6.378906 L 30.421875 6.382812 L 30.40625 6.402344 L 30.382812 6.421875 L 30.371094 6.429688 L 30.304688 6.496094 L 30.292969 6.511719 L 30.277344 6.53125 L 30.269531 6.542969 L 27.933594 9.640625 L 27.914062 9.664062 L 27.867188 9.722656 L 27.839844 9.742188 L 27.808594 9.765625 L 27.789062 9.78125 L 27.75 9.808594 L 27.695312 9.835938 L 27.675781 9.847656 L 27.582031 9.878906 L 27.558594 9.882812 L 27.535156 9.890625 L 27.5 9.898438 L 27.476562 9.898438 L 27.453125 9.902344 L 27.363281 9.902344 L 27.328125 9.898438 L 27.304688 9.894531 L 27.277344 9.890625 L 27.25 9.882812 L 27.21875 9.875 L 27.199219 9.867188 L 27.171875 9.855469 L 27.148438 9.847656 L 27.121094 9.835938 L 27.089844 9.820312 L 27.074219 9.808594 L 27.046875 9.792969 L 27.027344 9.777344 L 27.011719 9.765625 L 26.992188 9.753906 L 26.960938 9.722656 L 26.949219 9.707031 L 26.933594 9.695312 L 26.917969 9.679688 L 26.90625 9.660156 L 26.890625 9.644531 L 26.875 9.625 L 26.859375 9.601562 L 26.847656 9.582031 L 26.832031 9.554688 L 26.820312 9.535156 L 26.808594 9.507812 L 26.800781 9.484375 L 26.785156 9.445312 L 26.78125 9.421875 L 26.773438 9.402344 L 26.769531 9.378906 L 26.765625 9.351562 L 26.757812 9.328125 L 26.757812 9.253906 L 26.753906 9.230469 L 26.753906 9.210938 L 26.757812 9.195312 L 26.757812 9.15625 L 26.761719 9.140625 L 26.769531 9.105469 L 26.773438 9.085938 L 26.777344 9.070312 L 26.78125 9.050781 L 26.785156 9.035156 L 26.792969 9.019531 L 26.796875 9 L 26.804688 8.984375 L 26.8125 8.964844 L 26.832031 8.933594 L 26.847656 8.902344 L 26.859375 8.890625 L 26.867188 8.871094 L 26.890625 8.847656 L 29.3125 5.585938 L 29.339844 5.554688 L 29.367188 5.519531 L 29.421875 5.457031 L 29.488281 5.398438 L 29.515625 5.371094 L 29.550781 5.34375 L 29.617188 5.292969 L 29.652344 5.265625 L 29.722656 5.21875 L 29.757812 5.199219 L 29.796875 5.179688 L 29.871094 5.140625 L 29.910156 5.121094 L 29.949219 5.105469 L 29.988281 5.09375 L 30.027344 5.078125 L 30.070312 5.066406 L 30.109375 5.054688 L 30.195312 5.03125 L 30.238281 5.023438 L 30.277344 5.015625 L 30.40625 5.003906 L 30.445312 5.003906 L 30.488281 5 L 30.53125 5 L 30.574219 5.003906 L 30.660156 5.007812 L 30.703125 5.015625 L 30.746094 5.019531 L 30.785156 5.027344 L 30.828125 5.035156 L 30.867188 5.046875 L 30.910156 5.058594 L 30.949219 5.066406 L 30.992188 5.082031 L 31.03125 5.097656 L 31.070312 5.109375 L 31.148438 5.148438 L 31.175781 5.160156 L 31.195312 5.171875 L 31.222656 5.183594 L 31.246094 5.199219 L 31.269531 5.210938 L 31.363281 5.273438 L 31.382812 5.289062 L 31.40625 5.304688 L 31.425781 5.324219 L 31.449219 5.339844 L 31.488281 5.378906 L 31.507812 5.394531 L 31.546875 5.433594 L 31.566406 5.457031 L 31.585938 5.472656 L 31.601562 5.496094 L 31.621094 5.515625 L 31.652344 5.5625 L 34.074219 8.796875 L 34.085938 8.808594 L 34.109375 8.839844 L 34.117188 8.855469 L 34.148438 8.902344 L 34.160156 8.921875 L 34.171875 8.9375 L 34.1875 8.972656 L 34.195312 8.992188 L 34.207031 9.011719 L 34.222656 9.066406 L 34.230469 9.089844 L 34.238281 9.121094 L 34.242188 9.15625 Z M 34.25 9.1875 "/>
<path style=" stroke:none;fill-rule:nonzero;fill:rgb(100%,100%,100%);fill-opacity:1;" d="M 26.789062 6.875 L 24.992188 9.296875 L 24.980469 9.3125 L 24.960938 9.335938 L 24.945312 9.355469 L 24.925781 9.378906 L 24.890625 9.421875 L 24.871094 9.441406 L 24.847656 9.460938 L 24.832031 9.480469 L 24.792969 9.519531 L 24.769531 9.539062 L 24.75 9.554688 L 24.726562 9.574219 L 24.703125 9.589844 L 24.683594 9.605469 L 24.660156 9.621094 L 24.636719 9.640625 L 24.613281 9.652344 L 24.566406 9.683594 L 24.539062 9.699219 L 24.515625 9.710938 L 24.492188 9.726562 L 24.441406 9.75 L 24.386719 9.773438 L 24.363281 9.789062 L 24.335938 9.800781 L 24.308594 9.808594 L 24.277344 9.820312 L 24.25 9.828125 L 24.226562 9.835938 L 24.195312 9.847656 L 24.167969 9.851562 L 24.136719 9.859375 L 24.109375 9.867188 L 24.078125 9.871094 L 24.050781 9.878906 L 24.023438 9.882812 L 23.996094 9.890625 L 23.964844 9.894531 L 23.90625 9.898438 L 23.875 9.898438 L 23.847656 9.902344 L 23.730469 9.902344 L 23.703125 9.898438 L 23.675781 9.898438 L 23.648438 9.894531 L 23.621094 9.894531 L 23.59375 9.890625 L 23.566406 9.882812 L 23.539062 9.882812 L 23.511719 9.875 L 23.484375 9.871094 L 23.429688 9.855469 L 23.402344 9.851562 L 23.347656 9.835938 L 23.269531 9.808594 L 23.246094 9.800781 L 23.191406 9.777344 L 23.144531 9.753906 L 23.117188 9.742188 L 23.066406 9.714844 L 23.046875 9.703125 L 23.019531 9.6875 L 22.996094 9.671875 L 22.976562 9.660156 L 22.929688 9.628906 L 22.910156 9.613281 L 22.886719 9.59375 L 22.863281 9.578125 L 22.84375 9.558594 L 22.804688 9.527344 L 22.78125 9.507812 L 22.761719 9.488281 L 22.746094 9.464844 L 22.726562 9.449219 L 22.707031 9.425781 L 22.6875 9.40625 L 22.671875 9.386719 L 22.652344 9.363281 L 22.636719 9.339844 L 20.867188 6.914062 L 19.128906 9.3125 L 19.109375 9.335938 L 19.089844 9.355469 L 19.074219 9.378906 L 19.054688 9.398438 L 19.039062 9.421875 L 19.015625 9.441406 L 18.9375 9.519531 L 18.914062 9.539062 L 18.910156 9.542969 L 18.894531 9.554688 L 18.871094 9.574219 L 18.851562 9.589844 L 18.804688 9.621094 L 18.78125 9.640625 L 18.761719 9.652344 L 18.738281 9.667969 L 18.710938 9.683594 L 18.6875 9.699219 L 18.664062 9.710938 L 18.640625 9.726562 L 18.585938 9.75 L 18.5625 9.761719 L 18.535156 9.773438 L 18.507812 9.789062 L 18.480469 9.800781 L 18.453125 9.808594 L 18.425781 9.820312 L 18.398438 9.828125 L 18.367188 9.835938 L 18.339844 9.847656 L 18.3125 9.851562 L 18.28125 9.859375 L 18.257812 9.867188 L 18.226562 9.871094 L 18.199219 9.878906 L 18.167969 9.882812 L 18.140625 9.890625 L 18.109375 9.894531 L 18.082031 9.894531 L 18.050781 9.898438 L 18.023438 9.898438 L 17.992188 9.902344 L 17.878906 9.902344 L 17.851562 9.898438 L 17.820312 9.898438 L 17.792969 9.894531 L 17.769531 9.894531 L 17.738281 9.890625 L 17.710938 9.882812 L 17.683594 9.882812 L 17.65625 9.875 L 17.632812 9.871094 L 17.601562 9.863281 L 17.546875 9.851562 L 17.523438 9.84375 L 17.496094 9.835938 L 17.46875 9.824219 L 17.417969 9.808594 L 17.390625 9.800781 L 17.363281 9.789062 L 17.339844 9.777344 L 17.3125 9.765625 L 17.265625 9.742188 L 17.238281 9.730469 L 17.214844 9.714844 L 17.191406 9.703125 L 17.167969 9.6875 L 17.121094 9.660156 L 17.074219 9.628906 L 17.054688 9.613281 L 17.035156 9.59375 L 17.011719 9.578125 L 16.992188 9.558594 L 16.972656 9.542969 L 16.949219 9.527344 L 16.910156 9.488281 L 16.890625 9.464844 L 16.871094 9.449219 L 16.851562 9.425781 L 16.820312 9.386719 L 16.800781 9.363281 L 16.785156 9.34375 L 14.785156 6.667969 L 14.484375 6.269531 L 14.375 6.121094 L 14.367188 6.109375 L 14.347656 6.089844 L 14.339844 6.074219 L 14.304688 6.027344 L 14.296875 6.011719 L 14.285156 5.992188 L 14.273438 5.976562 L 14.257812 5.945312 L 14.25 5.925781 L 14.234375 5.898438 L 14.226562 5.875 L 14.210938 5.835938 L 14.203125 5.800781 L 14.199219 5.777344 L 14.191406 5.738281 L 14.191406 5.710938 L 14.1875 5.6875 L 14.1875 5.625 L 14.191406 5.601562 L 14.191406 5.5625 L 14.195312 5.539062 L 14.203125 5.515625 L 14.207031 5.488281 L 14.226562 5.425781 L 14.238281 5.394531 L 14.25 5.375 L 14.257812 5.355469 L 14.28125 5.316406 L 14.300781 5.292969 L 14.316406 5.265625 L 14.339844 5.242188 L 14.351562 5.222656 L 14.367188 5.207031 L 14.390625 5.179688 L 14.425781 5.152344 L 14.464844 5.121094 L 14.488281 5.105469 L 14.527344 5.082031 L 14.558594 5.066406 L 14.601562 5.046875 L 14.628906 5.035156 L 14.65625 5.027344 L 14.6875 5.019531 L 14.738281 5.011719 L 14.78125 5.003906 L 14.8125 5 L 14.875 5 L 14.921875 5.003906 L 14.953125 5.007812 L 14.984375 5.015625 L 15.015625 5.019531 L 15.042969 5.03125 L 15.074219 5.042969 L 15.101562 5.050781 L 15.128906 5.0625 L 15.160156 5.078125 L 15.199219 5.101562 L 15.222656 5.121094 L 15.261719 5.148438 L 15.308594 5.1875 L 15.328125 5.210938 L 15.351562 5.234375 L 15.371094 5.257812 L 15.382812 5.273438 L 17.675781 8.335938 L 17.691406 8.355469 L 17.703125 8.367188 L 17.726562 8.398438 L 17.746094 8.414062 L 17.757812 8.429688 L 17.769531 8.441406 L 17.785156 8.453125 L 17.796875 8.46875 L 17.808594 8.480469 L 17.824219 8.492188 L 17.847656 8.511719 L 17.867188 8.53125 L 17.890625 8.542969 L 17.902344 8.546875 L 17.917969 8.550781 L 17.929688 8.554688 L 17.941406 8.554688 L 17.949219 8.550781 L 17.957031 8.550781 L 17.96875 8.546875 L 17.972656 8.542969 L 17.996094 8.535156 L 18.011719 8.519531 L 18.019531 8.515625 L 18.046875 8.488281 L 18.0625 8.476562 L 18.085938 8.453125 L 18.105469 8.4375 L 18.121094 8.414062 L 18.140625 8.398438 L 18.148438 8.382812 L 18.160156 8.371094 L 18.167969 8.359375 L 20.347656 5.402344 L 20.382812 5.367188 L 20.402344 5.351562 L 20.425781 5.332031 L 20.441406 5.316406 L 20.460938 5.300781 L 20.476562 5.289062 L 20.507812 5.273438 L 20.523438 5.261719 L 20.542969 5.25 L 20.574219 5.234375 L 20.59375 5.226562 L 20.628906 5.214844 L 20.648438 5.210938 L 20.671875 5.203125 L 20.691406 5.199219 L 20.714844 5.195312 L 20.738281 5.1875 L 20.761719 5.1875 L 20.796875 5.183594 L 20.875 5.183594 L 20.898438 5.179688 L 20.921875 5.183594 L 20.945312 5.183594 L 20.972656 5.1875 L 20.996094 5.1875 L 21.019531 5.195312 L 21.039062 5.199219 L 21.0625 5.203125 L 21.109375 5.21875 L 21.128906 5.226562 L 21.152344 5.234375 L 21.171875 5.246094 L 21.203125 5.265625 L 21.226562 5.277344 L 21.242188 5.289062 L 21.261719 5.304688 L 21.28125 5.316406 L 21.328125 5.363281 L 21.347656 5.378906 L 21.359375 5.398438 L 21.378906 5.417969 L 21.414062 5.460938 L 21.464844 5.53125 L 21.492188 5.566406 L 23.539062 8.347656 L 23.539062 8.351562 L 23.550781 8.363281 L 23.5625 8.378906 L 23.574219 8.390625 L 23.585938 8.40625 L 23.597656 8.414062 L 23.617188 8.4375 L 23.636719 8.457031 L 23.652344 8.46875 L 23.671875 8.484375 L 23.699219 8.511719 L 23.710938 8.519531 L 23.726562 8.535156 L 23.734375 8.539062 L 23.75 8.542969 L 23.753906 8.546875 L 23.773438 8.550781 L 23.78125 8.554688 L 23.796875 8.554688 L 23.808594 8.550781 L 23.816406 8.550781 L 23.832031 8.542969 L 23.835938 8.539062 L 23.851562 8.53125 L 23.878906 8.503906 L 23.910156 8.480469 L 23.921875 8.472656 L 23.988281 8.40625 L 24 8.390625 L 24.007812 8.378906 L 24.019531 8.363281 L 24.035156 8.34375 L 26.359375 5.261719 L 26.371094 5.246094 L 26.390625 5.21875 L 26.453125 5.15625 L 26.480469 5.136719 L 26.515625 5.109375 L 26.554688 5.085938 L 26.597656 5.066406 L 26.625 5.050781 L 26.652344 5.042969 L 26.679688 5.03125 L 26.726562 5.019531 L 26.753906 5.011719 L 26.785156 5.003906 L 26.832031 5 L 26.921875 5 L 27.015625 5.011719 L 27.042969 5.019531 L 27.085938 5.03125 L 27.117188 5.042969 L 27.171875 5.066406 L 27.214844 5.089844 L 27.238281 5.105469 L 27.277344 5.132812 L 27.300781 5.152344 L 27.335938 5.179688 L 27.351562 5.199219 L 27.375 5.222656 L 27.386719 5.242188 L 27.410156 5.265625 L 27.417969 5.285156 L 27.433594 5.300781 L 27.445312 5.320312 L 27.453125 5.335938 L 27.464844 5.355469 L 27.480469 5.382812 L 27.488281 5.40625 L 27.5 5.433594 L 27.503906 5.457031 L 27.515625 5.488281 L 27.519531 5.507812 L 27.523438 5.53125 L 27.527344 5.550781 L 27.53125 5.582031 L 27.535156 5.601562 L 27.535156 5.726562 L 27.53125 5.746094 L 27.53125 5.761719 L 27.527344 5.78125 L 27.523438 5.796875 L 27.519531 5.816406 L 27.507812 5.851562 L 27.503906 5.867188 L 27.496094 5.886719 L 27.492188 5.902344 L 27.476562 5.933594 L 27.46875 5.953125 L 27.457031 5.96875 L 27.449219 5.984375 L 27.4375 6 L 27.429688 6.015625 L 27.417969 6.027344 L 27.40625 6.042969 L 27.398438 6.054688 L 27.386719 6.070312 L 27.355469 6.113281 Z M 26.789062 6.875 "/>
<path style=" stroke:none;fill-rule:nonzero;fill:rgb(100%,100%,100%);fill-opacity:1;" d="M 45.886719 8.773438 L 45.886719 8.828125 L 45.882812 8.867188 L 45.882812 8.882812 L 45.878906 8.902344 L 45.878906 8.921875 L 45.871094 8.9375 L 45.871094 8.957031 L 45.863281 8.996094 L 45.859375 9.011719 L 45.855469 9.035156 L 45.851562 9.050781 L 45.847656 9.070312 L 45.839844 9.085938 L 45.835938 9.105469 L 45.832031 9.121094 L 45.824219 9.140625 L 45.820312 9.160156 L 45.8125 9.175781 L 45.804688 9.195312 L 45.789062 9.226562 L 45.773438 9.265625 L 45.769531 9.28125 L 45.757812 9.296875 L 45.75 9.3125 L 45.742188 9.332031 L 45.71875 9.363281 L 45.710938 9.378906 L 45.699219 9.394531 L 45.691406 9.410156 L 45.65625 9.457031 L 45.652344 9.460938 L 45.644531 9.472656 L 45.632812 9.488281 L 45.621094 9.5 L 45.597656 9.53125 L 45.570312 9.558594 L 45.546875 9.585938 L 45.53125 9.597656 L 45.519531 9.609375 L 45.503906 9.621094 L 45.492188 9.636719 L 45.460938 9.660156 L 45.449219 9.671875 L 45.402344 9.707031 L 45.386719 9.714844 L 45.371094 9.726562 L 45.339844 9.746094 L 45.320312 9.757812 L 45.304688 9.765625 L 45.300781 9.769531 L 45.289062 9.773438 L 45.257812 9.792969 L 45.238281 9.800781 L 45.222656 9.808594 L 45.152344 9.835938 L 45.132812 9.839844 L 45.097656 9.855469 L 45.082031 9.859375 L 45.0625 9.863281 L 45.042969 9.871094 L 45.027344 9.875 L 44.96875 9.886719 L 44.953125 9.890625 L 44.933594 9.894531 L 44.914062 9.894531 L 44.894531 9.898438 L 44.859375 9.898438 L 44.820312 9.902344 L 44.800781 9.902344 L 44.78125 9.90625 L 44.761719 9.90625 L 44.707031 9.902344 L 44.679688 9.902344 L 44.652344 9.898438 L 44.59375 9.894531 L 44.566406 9.890625 L 44.539062 9.882812 L 44.515625 9.878906 L 44.488281 9.871094 L 44.460938 9.867188 L 44.417969 9.855469 L 44.371094 9.839844 L 44.332031 9.824219 L 44.296875 9.808594 L 44.246094 9.789062 L 44.214844 9.773438 L 44.1875 9.757812 L 44.167969 9.746094 L 44.144531 9.730469 L 39.886719 7.027344 L 39.589844 6.859375 L 39.550781 6.839844 L 39.523438 6.828125 L 39.503906 6.820312 L 39.484375 6.816406 L 39.464844 6.808594 L 39.441406 6.804688 L 39.390625 6.804688 L 39.371094 6.816406 L 39.355469 6.824219 L 39.34375 6.847656 L 39.332031 6.863281 L 39.324219 6.882812 L 39.316406 6.90625 L 39.3125 6.921875 L 39.3125 6.941406 L 39.304688 6.964844 L 39.300781 6.988281 L 39.300781 7.007812 L 39.296875 7.03125 L 39.296875 7.050781 L 39.289062 7.097656 L 39.289062 7.121094 L 39.285156 7.140625 L 39.285156 7.164062 L 39.28125 7.1875 L 39.28125 7.253906 L 39.277344 7.277344 L 39.277344 9.253906 L 39.273438 9.285156 L 39.273438 9.332031 L 39.269531 9.351562 L 39.261719 9.375 L 39.257812 9.394531 L 39.25 9.425781 L 39.246094 9.449219 L 39.234375 9.476562 L 39.222656 9.507812 L 39.210938 9.527344 L 39.203125 9.546875 L 39.191406 9.566406 L 39.183594 9.585938 L 39.167969 9.601562 L 39.152344 9.628906 L 39.136719 9.648438 L 39.117188 9.671875 L 39.035156 9.753906 L 39.019531 9.765625 L 39 9.777344 L 38.976562 9.796875 L 38.9375 9.820312 L 38.898438 9.839844 L 38.878906 9.851562 L 38.839844 9.867188 L 38.808594 9.878906 L 38.789062 9.882812 L 38.765625 9.886719 L 38.734375 9.894531 L 38.714844 9.898438 L 38.679688 9.902344 L 38.550781 9.902344 L 38.496094 9.894531 L 38.464844 9.890625 L 38.445312 9.882812 L 38.425781 9.878906 L 38.382812 9.863281 L 38.34375 9.847656 L 38.304688 9.824219 L 38.285156 9.816406 L 38.257812 9.800781 L 38.238281 9.785156 L 38.222656 9.773438 L 38.203125 9.757812 L 38.1875 9.746094 L 38.15625 9.714844 L 38.140625 9.703125 L 38.128906 9.6875 L 38.113281 9.667969 L 38.097656 9.652344 L 38.085938 9.636719 L 38.066406 9.609375 L 38.058594 9.59375 L 38.042969 9.574219 L 38.035156 9.554688 L 38.019531 9.527344 L 38.011719 9.507812 L 38 9.476562 L 37.984375 9.4375 L 37.980469 9.414062 L 37.972656 9.394531 L 37.96875 9.359375 L 37.960938 9.332031 L 37.960938 9.308594 L 37.957031 9.273438 L 37.957031 6.269531 L 37.960938 6.234375 L 37.960938 6.214844 L 37.964844 6.195312 L 37.96875 6.179688 L 37.96875 6.160156 L 37.972656 6.136719 L 37.976562 6.121094 L 37.980469 6.101562 L 37.984375 6.085938 L 37.988281 6.066406 L 37.992188 6.050781 L 37.996094 6.027344 L 38 6.015625 L 38 6.011719 L 38.003906 5.992188 L 38.011719 5.976562 L 38.019531 5.957031 L 38.023438 5.949219 L 38.027344 5.9375 L 38.03125 5.921875 L 38.039062 5.90625 L 38.042969 5.886719 L 38.050781 5.871094 L 38.0625 5.851562 L 38.066406 5.835938 L 38.078125 5.820312 L 38.085938 5.800781 L 38.109375 5.753906 L 38.121094 5.734375 L 38.128906 5.71875 L 38.164062 5.671875 L 38.171875 5.660156 L 38.183594 5.644531 L 38.1875 5.640625 L 38.195312 5.628906 L 38.210938 5.613281 L 38.21875 5.597656 L 38.230469 5.585938 L 38.242188 5.570312 L 38.335938 5.476562 L 38.367188 5.453125 L 38.378906 5.441406 L 38.457031 5.382812 L 38.503906 5.355469 L 38.519531 5.347656 L 38.523438 5.34375 L 38.535156 5.335938 L 38.554688 5.324219 L 38.601562 5.300781 L 38.640625 5.285156 L 38.65625 5.277344 L 38.675781 5.269531 L 38.691406 5.265625 L 38.707031 5.257812 L 38.726562 5.25 L 38.746094 5.246094 L 38.761719 5.242188 L 38.765625 5.242188 L 38.78125 5.234375 L 38.800781 5.230469 L 38.816406 5.226562 L 38.875 5.214844 L 38.890625 5.210938 L 38.929688 5.207031 L 38.949219 5.203125 L 39.023438 5.199219 L 39.179688 5.199219 L 39.316406 5.21875 L 39.34375 5.226562 L 39.347656 5.226562 L 39.367188 5.230469 L 39.421875 5.246094 L 39.46875 5.261719 L 39.496094 5.269531 L 39.53125 5.285156 L 39.558594 5.292969 L 39.675781 5.351562 L 39.699219 5.367188 L 43.949219 8.074219 L 44.257812 8.246094 L 44.273438 8.257812 L 44.277344 8.257812 L 44.289062 8.265625 L 44.304688 8.273438 L 44.320312 8.277344 L 44.332031 8.285156 L 44.34375 8.289062 L 44.359375 8.289062 L 44.371094 8.292969 L 44.394531 8.296875 L 44.410156 8.300781 L 44.445312 8.300781 L 44.460938 8.296875 L 44.476562 8.289062 L 44.492188 8.273438 L 44.507812 8.242188 L 44.515625 8.222656 L 44.523438 8.199219 L 44.527344 8.183594 L 44.53125 8.164062 L 44.535156 8.140625 L 44.535156 8.117188 L 44.539062 8.09375 L 44.546875 8.054688 L 44.546875 8.03125 L 44.550781 8.007812 L 44.550781 7.984375 L 44.554688 7.964844 L 44.554688 7.941406 L 44.5625 7.894531 L 44.5625 7.855469 L 44.566406 7.828125 L 44.566406 5.824219 L 44.570312 5.800781 L 44.570312 5.78125 L 44.574219 5.761719 L 44.578125 5.738281 L 44.585938 5.699219 L 44.59375 5.675781 L 44.597656 5.65625 L 44.605469 5.636719 L 44.613281 5.613281 L 44.617188 5.59375 L 44.640625 5.554688 L 44.652344 5.527344 L 44.667969 5.507812 L 44.683594 5.484375 L 44.707031 5.445312 L 44.738281 5.414062 L 44.75 5.398438 L 44.769531 5.378906 L 44.792969 5.363281 L 44.824219 5.332031 L 44.882812 5.292969 L 44.917969 5.273438 L 44.945312 5.257812 L 45 5.234375 L 45.054688 5.21875 L 45.082031 5.214844 L 45.109375 5.207031 L 45.140625 5.203125 L 45.167969 5.199219 L 45.285156 5.199219 L 45.339844 5.207031 L 45.371094 5.214844 L 45.394531 5.21875 L 45.453125 5.234375 L 45.480469 5.246094 L 45.503906 5.257812 L 45.53125 5.273438 L 45.554688 5.289062 L 45.578125 5.300781 L 45.605469 5.316406 L 45.625 5.332031 L 45.671875 5.371094 L 45.707031 5.40625 L 45.71875 5.421875 L 45.75 5.453125 L 45.761719 5.472656 L 45.777344 5.5 L 45.792969 5.515625 L 45.804688 5.535156 L 45.8125 5.554688 L 45.828125 5.582031 L 45.835938 5.601562 L 45.84375 5.625 L 45.859375 5.664062 L 45.863281 5.683594 L 45.871094 5.71875 L 45.878906 5.75 L 45.882812 5.769531 L 45.882812 5.800781 L 45.886719 5.824219 Z M 45.886719 8.773438 "/>
</g>
</svg>
