<?xml version="1.0" encoding="UTF-8"?>
<svg xmlns="http://www.w3.org/2000/svg" xmlns:xlink="http://www.w3.org/1999/xlink" width="50px" height="23px" viewBox="0 0 49 23" version="1.1">
<defs>
<linearGradient id="linear0" gradientUnits="userSpaceOnUse" x1="24.610001" y1="-0.62" x2="24.610001" y2="16" gradientTransform="matrix(1.07716,0,0,1.083441,0,0.270139)">
<stop offset="0" style="stop-color:rgb(92.941176%,10.980392%,14.117647%);stop-opacity:1;"/>
<stop offset="1" style="stop-color:rgb(63.921569%,14.117647%,15.686275%);stop-opacity:1;"/>
</linearGradient>
<linearGradient id="linear1" gradientUnits="userSpaceOnUse" x1="24.610001" y1="-0.29" x2="24.610001" y2="15.1" gradientTransform="matrix(1.07716,0,0,1.083441,0,0.270139)">
<stop offset="0" style="stop-color:rgb(92.941176%,10.980392%,14.117647%);stop-opacity:1;"/>
<stop offset="1" style="stop-color:rgb(63.921569%,14.117647%,15.686275%);stop-opacity:1;"/>
</linearGradient>
<linearGradient id="linear2" gradientUnits="userSpaceOnUse" x1="16.059999" y1="-0.83" x2="16.059999" y2="14.96" gradientTransform="matrix(1.07716,0,0,1.083441,0,0.270139)">
<stop offset="0" style="stop-color:rgb(92.941176%,10.980392%,14.117647%);stop-opacity:1;"/>
<stop offset="1" style="stop-color:rgb(63.921569%,14.117647%,15.686275%);stop-opacity:1;"/>
</linearGradient>
<linearGradient id="linear3" gradientUnits="userSpaceOnUse" x1="36.57" y1="-0.83" x2="36.57" y2="14.96" gradientTransform="matrix(1.07716,0,0,1.083441,0,0.270139)">
<stop offset="0" style="stop-color:rgb(92.941176%,10.980392%,14.117647%);stop-opacity:1;"/>
<stop offset="1" style="stop-color:rgb(63.921569%,14.117647%,15.686275%);stop-opacity:1;"/>
</linearGradient>
</defs>
<g id="surface1">
<path style=" stroke:none;fill-rule:nonzero;fill:rgb(38.82353%,39.215687%,40.000001%);fill-opacity:1;" d="M 10.835938 22.71875 L 10.675781 22.71875 L 9.78125 20.054688 L 10.148438 20.054688 L 10.773438 21.992188 L 11.363281 20.054688 L 11.71875 20.054688 L 10.847656 22.71875 Z M 10.835938 22.71875 "/>
<path style=" stroke:none;fill-rule:nonzero;fill:rgb(38.82353%,39.215687%,40.000001%);fill-opacity:1;" d="M 12.042969 22.675781 L 12.042969 20.042969 L 12.375 20.042969 L 12.375 22.675781 Z M 12.042969 22.675781 "/>
<path style=" stroke:none;fill-rule:nonzero;fill:rgb(38.82353%,39.215687%,40.000001%);fill-opacity:1;" d="M 12.808594 22.554688 L 12.925781 22.21875 C 12.992188 22.273438 13.066406 22.308594 13.152344 22.339844 C 13.25 22.371094 13.324219 22.394531 13.398438 22.394531 C 13.527344 22.394531 13.625 22.351562 13.710938 22.273438 C 13.796875 22.199219 13.832031 22.101562 13.832031 21.980469 C 13.832031 21.894531 13.808594 21.808594 13.765625 21.734375 C 13.722656 21.65625 13.617188 21.570312 13.441406 21.484375 L 13.25 21.386719 C 13.085938 21.300781 12.96875 21.203125 12.90625 21.082031 C 12.839844 20.964844 12.808594 20.832031 12.808594 20.671875 C 12.808594 20.476562 12.871094 20.3125 13 20.183594 C 13.128906 20.054688 13.292969 19.988281 13.496094 19.988281 C 13.765625 19.988281 13.949219 20.03125 14.058594 20.128906 L 13.960938 20.445312 C 13.960938 20.445312 13.851562 20.378906 13.753906 20.347656 C 13.660156 20.3125 13.582031 20.304688 13.507812 20.304688 C 13.398438 20.304688 13.304688 20.335938 13.238281 20.410156 C 13.171875 20.476562 13.140625 20.574219 13.140625 20.683594 C 13.140625 20.746094 13.152344 20.8125 13.171875 20.867188 C 13.195312 20.921875 13.226562 20.964844 13.269531 21.007812 C 13.3125 21.039062 13.398438 21.09375 13.519531 21.160156 L 13.710938 21.257812 C 13.875 21.34375 13.992188 21.441406 14.058594 21.558594 C 14.121094 21.679688 14.152344 21.832031 14.152344 22.015625 C 14.152344 22.210938 14.078125 22.382812 13.9375 22.511719 C 13.789062 22.652344 13.59375 22.71875 13.355469 22.71875 C 13.140625 22.71875 12.957031 22.664062 12.808594 22.554688 Z M 12.808594 22.554688 "/>
<path style=" stroke:none;fill-rule:nonzero;fill:rgb(38.82353%,39.215687%,40.000001%);fill-opacity:1;" d="M 14.59375 22.675781 L 14.59375 20.042969 L 14.929688 20.042969 L 14.929688 22.675781 Z M 14.59375 22.675781 "/>
<path style=" stroke:none;fill-rule:nonzero;fill:rgb(38.82353%,39.215687%,40.000001%);fill-opacity:1;" d="M 15.359375 21.34375 C 15.359375 20.964844 15.445312 20.640625 15.617188 20.390625 C 15.792969 20.128906 16.027344 20 16.328125 20 C 16.664062 20 16.921875 20.117188 17.09375 20.355469 C 17.277344 20.59375 17.363281 20.921875 17.363281 21.34375 C 17.363281 21.765625 17.277344 22.113281 17.09375 22.363281 C 16.910156 22.609375 16.664062 22.730469 16.328125 22.730469 C 16.027344 22.730469 15.792969 22.601562 15.617188 22.339844 C 15.445312 22.078125 15.359375 21.742188 15.359375 21.34375 Z M 15.703125 21.34375 C 15.703125 21.644531 15.757812 21.894531 15.867188 22.101562 C 15.972656 22.308594 16.125 22.40625 16.328125 22.40625 C 16.554688 22.40625 16.726562 22.308594 16.847656 22.125 C 16.964844 21.9375 17.019531 21.679688 17.019531 21.34375 C 17.019531 20.660156 16.792969 20.324219 16.328125 20.324219 C 16.125 20.324219 15.972656 20.410156 15.867188 20.59375 C 15.757812 20.78125 15.703125 21.027344 15.703125 21.34375 Z M 15.703125 21.34375 "/>
<path style=" stroke:none;fill-rule:nonzero;fill:rgb(38.82353%,39.215687%,40.000001%);fill-opacity:1;" d="M 19.300781 22.71875 L 18.054688 20.789062 L 18.054688 22.675781 L 17.742188 22.675781 L 17.742188 20.042969 L 17.871094 20.042969 L 19.085938 21.863281 L 19.085938 20.042969 L 19.398438 20.042969 L 19.398438 22.707031 L 19.300781 22.707031 Z M 19.300781 22.71875 "/>
<path style=" stroke:none;fill-rule:nonzero;fill:rgb(38.82353%,39.215687%,40.000001%);fill-opacity:1;" d="M 21.261719 22.675781 L 21.101562 22.125 L 20.207031 22.125 L 20.035156 22.675781 L 19.667969 22.675781 L 20.648438 20.011719 L 20.734375 20.011719 L 21.640625 22.675781 Z M 20.660156 20.703125 L 20.28125 21.863281 L 20.992188 21.863281 L 20.648438 20.703125 Z M 20.660156 20.703125 "/>
<path style=" stroke:none;fill-rule:nonzero;fill:rgb(38.82353%,39.215687%,40.000001%);fill-opacity:1;" d="M 23.222656 22.675781 L 22.578125 21.550781 C 22.5 21.550781 22.382812 21.550781 22.234375 21.527344 L 22.234375 22.675781 L 21.898438 22.675781 L 21.898438 20.042969 C 21.898438 20.042969 21.996094 20.042969 22.15625 20.03125 C 22.320312 20.03125 22.425781 20.019531 22.5 20.019531 C 23.082031 20.019531 23.375 20.269531 23.375 20.78125 C 23.375 20.941406 23.332031 21.09375 23.234375 21.222656 C 23.136719 21.355469 23.03125 21.441406 22.902344 21.472656 L 23.601562 22.6875 L 23.222656 22.6875 Z M 22.234375 20.367188 L 22.234375 21.222656 C 22.308594 21.234375 22.382812 21.246094 22.457031 21.246094 C 22.652344 21.246094 22.804688 21.214844 22.890625 21.136719 C 22.976562 21.070312 23.03125 20.941406 23.03125 20.769531 C 23.03125 20.617188 22.988281 20.519531 22.890625 20.453125 C 22.792969 20.390625 22.640625 20.355469 22.4375 20.355469 C 22.40625 20.355469 22.339844 20.355469 22.242188 20.378906 Z M 22.234375 20.367188 "/>
<path style=" stroke:none;fill-rule:nonzero;fill:rgb(38.82353%,39.215687%,40.000001%);fill-opacity:1;" d="M 24.503906 21.503906 L 24.503906 22.6875 L 24.171875 22.6875 L 24.171875 21.503906 L 23.394531 20.054688 L 23.730469 20.054688 L 24.332031 21.203125 L 24.9375 20.054688 L 25.269531 20.054688 L 24.496094 21.503906 Z M 24.503906 21.503906 "/>
<path style=" stroke:none;fill-rule:nonzero;fill:rgb(75.686276%,15.294118%,17.647059%);fill-opacity:1;" d="M 26.628906 22.675781 L 26.628906 21.039062 L 26.390625 21.039062 L 26.390625 20.746094 L 26.941406 20.746094 L 26.941406 22.675781 Z M 26.800781 20.019531 C 26.800781 20.019531 26.898438 20.042969 26.941406 20.085938 C 26.984375 20.128906 26.992188 20.171875 26.992188 20.238281 C 26.992188 20.304688 26.972656 20.347656 26.941406 20.390625 C 26.898438 20.433594 26.855469 20.453125 26.800781 20.453125 C 26.746094 20.453125 26.703125 20.433594 26.660156 20.390625 C 26.617188 20.347656 26.605469 20.304688 26.605469 20.238281 C 26.605469 20.171875 26.628906 20.128906 26.660156 20.085938 C 26.691406 20.042969 26.746094 20.019531 26.800781 20.019531 Z M 26.800781 20.019531 "/>
<path style=" stroke:none;fill-rule:nonzero;fill:rgb(38.82353%,39.215687%,40.000001%);fill-opacity:1;" d="M 29.136719 20.226562 L 28.996094 20.519531 C 28.835938 20.390625 28.675781 20.3125 28.511719 20.3125 C 28.265625 20.3125 28.058594 20.410156 27.921875 20.605469 C 27.769531 20.800781 27.703125 21.0625 27.703125 21.375 C 27.703125 21.691406 27.78125 21.929688 27.921875 22.113281 C 28.058594 22.296875 28.253906 22.394531 28.5 22.394531 C 28.675781 22.394531 28.8125 22.339844 28.933594 22.21875 L 28.933594 21.601562 L 28.597656 21.601562 L 28.597656 21.300781 L 29.265625 21.300781 L 29.265625 22.449219 C 29.179688 22.535156 29.0625 22.601562 28.898438 22.644531 C 28.738281 22.699219 28.585938 22.71875 28.449219 22.71875 C 28.113281 22.71875 27.855469 22.601562 27.660156 22.351562 C 27.46875 22.101562 27.371094 21.777344 27.371094 21.363281 C 27.371094 20.953125 27.476562 20.628906 27.683594 20.367188 C 27.898438 20.117188 28.179688 19.988281 28.535156 19.988281 C 28.78125 19.988281 28.988281 20.066406 29.148438 20.214844 Z M 29.136719 20.226562 "/>
<path style=" stroke:none;fill-rule:nonzero;fill:rgb(38.82353%,39.215687%,40.000001%);fill-opacity:1;" d="M 31.109375 22.675781 L 30.945312 22.125 L 30.054688 22.125 L 29.871094 22.675781 L 29.503906 22.675781 L 30.484375 20.011719 L 30.570312 20.011719 L 31.472656 22.675781 Z M 30.515625 20.703125 L 30.140625 21.863281 L 30.851562 21.863281 L 30.503906 20.703125 Z M 30.515625 20.703125 "/>
<path style=" stroke:none;fill-rule:nonzero;fill:rgb(38.82353%,39.215687%,40.000001%);fill-opacity:1;" d="M 33.542969 22.675781 L 33.25 20.984375 L 32.722656 22.71875 L 32.636719 22.71875 L 32.097656 20.984375 L 31.820312 22.675781 L 31.507812 22.675781 L 31.960938 20.042969 L 32.109375 20.042969 L 32.679688 21.960938 L 33.207031 20.042969 L 33.359375 20.042969 L 33.84375 22.675781 L 33.53125 22.675781 Z M 33.542969 22.675781 "/>
<path style=" stroke:none;fill-rule:nonzero;fill:rgb(38.82353%,39.215687%,40.000001%);fill-opacity:1;" d="M 34.179688 22.675781 L 34.179688 20.042969 L 34.511719 20.042969 L 34.511719 22.675781 Z M 34.179688 22.675781 "/>
<path style=" stroke:none;fill-rule:nonzero;fill:rgb(38.82353%,39.215687%,40.000001%);fill-opacity:1;" d="M 36.613281 22.71875 L 35.363281 20.789062 L 35.363281 22.675781 L 35.050781 22.675781 L 35.050781 20.042969 L 35.179688 20.042969 L 36.398438 21.863281 L 36.398438 20.042969 L 36.710938 20.042969 L 36.710938 22.707031 L 36.613281 22.707031 Z M 36.613281 22.71875 "/>
<path style=" stroke:none;fill-rule:nonzero;fill:rgb(38.82353%,39.215687%,40.000001%);fill-opacity:1;" d="M 38.875 20.226562 L 38.734375 20.519531 C 38.574219 20.390625 38.410156 20.3125 38.25 20.3125 C 38.003906 20.3125 37.796875 20.410156 37.65625 20.605469 C 37.507812 20.800781 37.441406 21.0625 37.441406 21.375 C 37.441406 21.691406 37.515625 21.929688 37.65625 22.113281 C 37.796875 22.296875 37.992188 22.394531 38.238281 22.394531 C 38.410156 22.394531 38.550781 22.339844 38.671875 22.21875 L 38.671875 21.601562 L 38.335938 21.601562 L 38.335938 21.300781 L 39.003906 21.300781 L 39.003906 22.449219 C 38.917969 22.535156 38.800781 22.601562 38.636719 22.644531 C 38.476562 22.699219 38.324219 22.71875 38.183594 22.71875 C 37.851562 22.71875 37.59375 22.601562 37.398438 22.351562 C 37.207031 22.101562 37.109375 21.777344 37.109375 21.363281 C 37.109375 20.953125 37.214844 20.628906 37.421875 20.367188 C 37.636719 20.117188 37.917969 19.988281 38.273438 19.988281 C 38.519531 19.988281 38.722656 20.066406 38.886719 20.214844 Z M 38.875 20.226562 "/>
<path style=" stroke:none;fill-rule:nonzero;fill:url(#linear0);" d="M 28.242188 17.636719 L 24.765625 17.636719 L 24.765625 5.375 L 28.242188 5.375 Z M 28.242188 17.636719 "/>
<path style=" stroke:none;fill-rule:nonzero;fill:url(#linear1);" d="M 28.242188 4.429688 L 24.765625 4.429688 L 24.765625 0.269531 L 28.242188 0.269531 Z M 28.242188 4.429688 "/>
<path style=" stroke:none;fill-rule:nonzero;fill:rgb(73.725492%,74.509805%,75.294119%);fill-opacity:1;" d="M 3.878906 0.269531 L 0 0.269531 L 10.167969 16.425781 C 10.167969 16.425781 10.167969 16.425781 10.167969 16.433594 L 12.226562 13.175781 Z M 3.878906 0.269531 "/>
<path style=" stroke:none;fill-rule:nonzero;fill:url(#linear2);" d="M 20.347656 0.269531 L 12.238281 13.183594 C 12.238281 13.183594 10.179688 16.433594 10.179688 16.433594 C 10.664062 17.195312 11.300781 17.574219 12.085938 17.574219 C 12.871094 17.574219 13.527344 17.183594 14.046875 16.402344 L 24.417969 0.269531 Z M 20.347656 0.269531 "/>
<path style=" stroke:none;fill-rule:nonzero;fill:url(#linear3);" d="M 45.511719 7.289062 C 45.511719 7.289062 41.515625 7.289062 41.515625 7.289062 L 41.515625 11.050781 L 45.511719 11.050781 L 45.511719 13.066406 C 45.511719 13.433594 45.121094 13.738281 44.335938 13.988281 C 43.742188 14.171875 43.203125 14.269531 42.742188 14.269531 L 36.582031 14.269531 C 34.363281 14.269531 33.261719 13.84375 33.261719 13 L 33.261719 4.789062 C 33.261719 3.964844 34.15625 3.5625 35.957031 3.5625 L 45.714844 3.5625 L 45.714844 0.335938 L 36.570312 0.335938 C 34.878906 0.335938 33.425781 0.628906 32.21875 1.222656 C 30.589844 2.003906 29.785156 3.195312 29.785156 4.808594 L 29.785156 13.023438 C 29.785156 14.691406 30.582031 15.914062 32.175781 16.683594 C 33.347656 17.257812 34.804688 17.550781 36.546875 17.550781 L 42.753906 17.550781 C 44.390625 17.550781 45.757812 17.238281 46.867188 16.609375 C 48.289062 15.796875 49 14.59375 49 12.980469 L 49 7.3125 L 45.519531 7.3125 Z M 45.511719 7.289062 "/>
</g>
</svg>
