<?xml version="1.0" encoding="UTF-8"?>
<svg xmlns="http://www.w3.org/2000/svg" xmlns:xlink="http://www.w3.org/1999/xlink" width="50px" height="42px" viewBox="0 0 49 42" version="1.1">
<g id="surface1">
<path style=" stroke:none;fill-rule:evenodd;fill:rgb(100%,100%,100%);fill-opacity:1;" d="M 15.789062 19.375 C 16.949219 19.375 17.847656 18.699219 18.511719 17.347656 L 22.660156 4.492188 C 22.871094 3.882812 22.976562 3.253906 22.984375 2.613281 C 22.964844 1.964844 22.722656 1.34375 22.300781 0.863281 C 21.835938 0.277344 21.042969 0 19.90625 0 C 18.777344 0 17.996094 0.671875 17.574219 1.984375 L 15.429688 8.597656 L 14.132812 5.6875 C 13.542969 4.351562 12.664062 3.691406 11.515625 3.691406 C 10.367188 3.691406 9.480469 4.351562 8.867188 5.6875 L 7.539062 8.597656 L 5.417969 1.984375 C 4.996094 0.671875 4.214844 0 3.074219 0 C 1.933594 0 1.144531 0.277344 0.6875 0.851562 C 0.277344 1.332031 0.046875 1.953125 0.0234375 2.59375 C 0.0234375 3.230469 0.140625 3.871094 0.351562 4.492188 L 5.140625 19.375 L 7.15625 19.375 C 8.308594 19.375 9.183594 18.699219 9.796875 17.347656 L 11.484375 13.613281 L 13.171875 17.347656 L 14.101562 19.375 Z M 15.789062 19.375 "/>
<path style=" stroke:none;fill-rule:evenodd;fill:rgb(100%,100%,100%);fill-opacity:1;" d="M 15.789062 19.375 C 16.949219 19.375 17.847656 18.699219 18.511719 17.347656 L 22.660156 4.492188 C 22.871094 3.882812 22.976562 3.253906 22.984375 2.613281 C 22.964844 1.964844 22.722656 1.34375 22.300781 0.863281 C 21.835938 0.277344 21.042969 0 19.90625 0 C 18.777344 0 17.996094 0.671875 17.574219 1.984375 L 15.429688 8.597656 L 14.132812 5.6875 C 13.542969 4.351562 12.664062 3.691406 11.515625 3.691406 C 10.367188 3.691406 9.480469 4.351562 8.867188 5.6875 L 7.539062 8.597656 L 5.417969 1.984375 C 4.996094 0.671875 4.214844 0 3.074219 0 C 1.933594 0 1.144531 0.277344 0.6875 0.851562 C 0.277344 1.332031 0.046875 1.953125 0.0234375 2.59375 C 0.0234375 3.230469 0.140625 3.871094 0.351562 4.492188 L 5.140625 19.375 L 7.15625 19.375 C 8.308594 19.375 9.183594 18.699219 9.796875 17.347656 L 11.484375 13.613281 L 13.171875 17.347656 L 14.101562 19.375 Z M 15.789062 19.375 "/>
<path style=" stroke:none;fill-rule:evenodd;fill:rgb(100%,100%,100%);fill-opacity:1;" d="M 29.707031 0.0742188 L 26.921875 0.0742188 C 25.066406 0.0742188 24.136719 0.894531 24.136719 2.550781 L 24.136719 19.308594 L 26.921875 19.308594 C 28.777344 19.308594 29.707031 18.488281 29.707031 16.835938 Z M 29.707031 0.0742188 "/>
<path style=" stroke:none;fill-rule:evenodd;fill:rgb(100%,100%,100%);fill-opacity:1;" d="M 29.707031 0.0742188 L 26.921875 0.0742188 C 25.066406 0.0742188 24.136719 0.894531 24.136719 2.550781 L 24.136719 19.308594 L 26.921875 19.308594 C 28.777344 19.308594 29.707031 18.488281 29.707031 16.835938 Z M 29.707031 0.0742188 "/>
<path style=" stroke:none;fill-rule:evenodd;fill:rgb(100%,100%,100%);fill-opacity:1;" d="M 37.253906 1.238281 C 36.734375 0.449219 35.878906 0.0625 34.6875 0.0625 L 31.902344 0.0625 L 31.902344 19.296875 L 34.6875 19.296875 C 36.546875 19.296875 37.472656 18.476562 37.472656 16.824219 L 37.472656 10.699219 L 43.730469 18.222656 C 44.027344 18.582031 44.40625 18.859375 44.828125 19.054688 C 45.25 19.246094 45.714844 19.332031 46.179688 19.308594 C 48.035156 19.308594 48.964844 18.488281 48.964844 16.835938 L 48.964844 0.0742188 L 46.179688 0.0742188 C 44.320312 0.0742188 43.394531 0.894531 43.394531 2.550781 L 43.394531 8.652344 L 37.242188 1.238281 Z M 37.253906 1.238281 "/>
<path style=" stroke:none;fill-rule:evenodd;fill:rgb(100%,100%,100%);fill-opacity:1;" d="M 37.253906 1.238281 C 36.734375 0.449219 35.878906 0.0625 34.6875 0.0625 L 31.902344 0.0625 L 31.902344 19.296875 L 34.6875 19.296875 C 36.546875 19.296875 37.472656 18.476562 37.472656 16.824219 L 37.472656 10.699219 L 43.730469 18.222656 C 44.027344 18.582031 44.40625 18.859375 44.828125 19.054688 C 45.25 19.246094 45.714844 19.332031 46.179688 19.308594 C 48.035156 19.308594 48.964844 18.488281 48.964844 16.835938 L 48.964844 0.0742188 L 46.179688 0.0742188 C 44.320312 0.0742188 43.394531 0.894531 43.394531 2.550781 L 43.394531 8.652344 L 37.242188 1.238281 Z M 37.253906 1.238281 "/>
<path style=" stroke:none;fill-rule:evenodd;fill:rgb(100%,100%,100%);fill-opacity:1;" d="M 48.679688 38.875 C 48.699219 39.652344 48.4375 40.421875 47.921875 41.007812 C 47.667969 41.285156 47.351562 41.507812 47.003906 41.660156 C 46.652344 41.808594 46.273438 41.871094 45.894531 41.859375 C 45.515625 41.871094 45.144531 41.808594 44.785156 41.667969 C 44.4375 41.53125 44.121094 41.304688 43.859375 41.027344 C 43.339844 40.453125 43.054688 39.683594 43.085938 38.894531 C 43.054688 38.105469 43.339844 37.339844 43.859375 36.75 C 44.394531 36.207031 45.125 35.910156 45.882812 35.910156 C 46.644531 35.910156 47.371094 36.21875 47.910156 36.75 C 48.425781 37.339844 48.699219 38.09375 48.667969 38.886719 Z M 48.679688 38.875 "/>
<path style=" stroke:none;fill-rule:evenodd;fill:rgb(89.411765%,78.039217%,24.313726%);fill-opacity:1;" d="M 48.679688 38.875 C 48.699219 39.652344 48.4375 40.421875 47.921875 41.007812 C 47.667969 41.285156 47.351562 41.507812 47.003906 41.660156 C 46.652344 41.808594 46.273438 41.871094 45.894531 41.859375 C 45.515625 41.871094 45.144531 41.808594 44.785156 41.667969 C 44.4375 41.53125 44.121094 41.304688 43.859375 41.027344 C 43.339844 40.453125 43.054688 39.683594 43.085938 38.894531 C 43.054688 38.105469 43.339844 37.339844 43.859375 36.75 C 44.394531 36.207031 45.125 35.910156 45.882812 35.910156 C 46.644531 35.910156 47.371094 36.21875 47.910156 36.75 C 48.425781 37.339844 48.699219 38.09375 48.667969 38.886719 Z M 48.679688 38.875 "/>
<path style=" stroke:none;fill-rule:evenodd;fill:rgb(100%,100%,100%);fill-opacity:1;" d="M 48.679688 22.59375 L 45.894531 22.59375 C 44.039062 22.59375 43.109375 23.417969 43.109375 25.070312 L 43.109375 34.703125 L 45.894531 34.703125 C 47.75 34.703125 48.679688 33.882812 48.679688 32.226562 Z M 48.679688 22.59375 "/>
<path style=" stroke:none;fill-rule:evenodd;fill:rgb(89.411765%,78.039217%,24.313726%);fill-opacity:1;" d="M 48.679688 22.59375 L 45.894531 22.59375 C 44.039062 22.59375 43.109375 23.417969 43.109375 25.070312 L 43.109375 34.703125 L 45.894531 34.703125 C 47.75 34.703125 48.679688 33.882812 48.679688 32.226562 Z M 48.679688 22.59375 "/>
<path style=" stroke:none;fill-rule:evenodd;fill:rgb(100%,100%,100%);fill-opacity:1;" d="M 20.15625 30.03125 L 20.15625 37.839844 C 20.15625 39.011719 19.535156 40.003906 18.300781 40.804688 C 17.066406 41.605469 15.03125 42 12.191406 42 C 9.363281 42 7 41.082031 5.109375 39.246094 C 3.222656 37.414062 2.273438 35 2.273438 32.027344 C 2.273438 29.050781 3.210938 26.636719 5.089844 24.792969 C 5.976562 23.894531 7.03125 23.191406 8.191406 22.710938 C 9.351562 22.230469 10.597656 21.996094 11.851562 22.019531 C 14.492188 22.019531 16.496094 22.433594 17.867188 23.277344 C 19.238281 24.109375 19.945312 24.898438 19.957031 25.625 C 19.976562 26.351562 19.726562 27.042969 19.25 27.585938 C 18.753906 28.164062 18.269531 28.453125 17.792969 28.453125 C 17.320312 28.453125 16.632812 28.21875 15.738281 27.757812 C 14.839844 27.300781 13.636719 27.054688 12.117188 27.042969 C 10.609375 27.023438 9.480469 27.492188 8.75 28.453125 C 7.992188 29.488281 7.613281 30.757812 7.652344 32.046875 C 7.601562 33.347656 8.035156 34.605469 8.867188 35.597656 C 9.269531 36.058594 9.765625 36.421875 10.324219 36.65625 C 10.882812 36.890625 11.484375 36.996094 12.085938 36.964844 C 13.414062 36.941406 14.257812 36.75 14.597656 36.367188 L 14.597656 34.832031 L 13.722656 34.832031 C 12.03125 34.832031 11.1875 34.03125 11.1875 32.441406 L 11.1875 30.050781 L 20.125 30.050781 Z M 20.15625 30.03125 "/>
<path style=" stroke:none;fill-rule:evenodd;fill:rgb(89.411765%,78.039217%,24.313726%);fill-opacity:1;" d="M 20.15625 30.03125 L 20.15625 37.839844 C 20.15625 39.011719 19.535156 40.003906 18.300781 40.804688 C 17.066406 41.605469 15.03125 42 12.191406 42 C 9.363281 42 7 41.082031 5.109375 39.246094 C 3.222656 37.414062 2.273438 35 2.273438 32.027344 C 2.273438 29.050781 3.210938 26.636719 5.089844 24.792969 C 5.976562 23.894531 7.03125 23.191406 8.191406 22.710938 C 9.351562 22.230469 10.597656 21.996094 11.851562 22.019531 C 14.492188 22.019531 16.496094 22.433594 17.867188 23.277344 C 19.238281 24.109375 19.945312 24.898438 19.957031 25.625 C 19.976562 26.351562 19.726562 27.042969 19.25 27.585938 C 18.753906 28.164062 18.269531 28.453125 17.792969 28.453125 C 17.320312 28.453125 16.632812 28.21875 15.738281 27.757812 C 14.839844 27.300781 13.636719 27.054688 12.117188 27.042969 C 10.609375 27.023438 9.480469 27.492188 8.75 28.453125 C 7.992188 29.488281 7.613281 30.757812 7.652344 32.046875 C 7.601562 33.347656 8.035156 34.605469 8.867188 35.597656 C 9.269531 36.058594 9.765625 36.421875 10.324219 36.65625 C 10.882812 36.890625 11.484375 36.996094 12.085938 36.964844 C 13.414062 36.941406 14.257812 36.75 14.597656 36.367188 L 14.597656 34.832031 L 13.722656 34.832031 C 12.03125 34.832031 11.1875 34.03125 11.1875 32.441406 L 11.1875 30.050781 L 20.125 30.050781 Z M 20.15625 30.03125 "/>
<path style=" stroke:none;fill-rule:evenodd;fill:rgb(100%,100%,100%);fill-opacity:1;" d="M 38.855469 24.792969 C 36.976562 22.945312 34.5625 22.019531 31.597656 22.019531 C 28.632812 22.019531 26.203125 22.945312 24.324219 24.792969 C 22.449219 26.636719 21.507812 29.050781 21.507812 32.027344 C 21.507812 35 22.457031 37.402344 24.347656 39.246094 C 26.234375 41.082031 28.640625 42 31.566406 42 C 34.488281 42 36.902344 41.082031 38.8125 39.246094 C 40.722656 37.414062 41.671875 35 41.671875 32.027344 C 41.671875 29.050781 40.734375 26.636719 38.867188 24.792969 Z M 38.855469 24.792969 "/>
<path style=" stroke:none;fill-rule:evenodd;fill:rgb(89.411765%,78.039217%,24.313726%);fill-opacity:1;" d="M 38.855469 24.792969 C 36.976562 22.945312 34.5625 22.019531 31.597656 22.019531 C 28.632812 22.019531 26.203125 22.945312 24.324219 24.792969 C 22.449219 26.636719 21.507812 29.050781 21.507812 32.027344 C 21.507812 35 22.457031 37.402344 24.347656 39.246094 C 26.234375 41.082031 28.640625 42 31.566406 42 C 34.488281 42 36.902344 41.082031 38.8125 39.246094 C 40.722656 37.414062 41.671875 35 41.671875 32.027344 C 41.671875 29.050781 40.734375 26.636719 38.867188 24.792969 Z M 38.855469 24.792969 "/>
<path style=" stroke:none;fill-rule:evenodd;fill:rgb(100%,100%,100%);fill-opacity:1;" d="M 36.261719 32.015625 C 36.300781 33.328125 35.847656 34.597656 34.984375 35.578125 C 34.550781 36.046875 34.035156 36.421875 33.441406 36.65625 C 32.863281 36.902344 32.230469 37.007812 31.597656 36.984375 C 30.964844 37.007812 30.339844 36.902344 29.75 36.65625 C 29.167969 36.410156 28.640625 36.046875 28.210938 35.589844 C 27.34375 34.617188 26.878906 33.335938 26.921875 32.035156 C 26.878906 30.722656 27.332031 29.445312 28.210938 28.460938 C 29.105469 27.554688 30.328125 27.042969 31.597656 27.042969 C 32.863281 27.042969 34.085938 27.542969 34.984375 28.453125 C 35.847656 29.433594 36.300781 30.703125 36.25 32.015625 Z M 36.261719 32.015625 "/>
</g>
</svg>
