<?xml version="1.0" encoding="UTF-8"?>
<svg xmlns="http://www.w3.org/2000/svg" xmlns:xlink="http://www.w3.org/1999/xlink" width="50px" height="44px" viewBox="0 0 49 44" version="1.1">
<g id="surface1">
<path style=" stroke:none;fill-rule:nonzero;fill:rgb(13.725491%,12.156863%,12.54902%);fill-opacity:1;" d="M 14.777344 0.0429688 L 24.589844 9.832031 L 34.234375 0.0429688 L 45.582031 0.0429688 L 49 0.226562 L 49 7.027344 L 34.597656 22.085938 L 49 37.144531 L 49 43.945312 L 34.675781 43.945312 L 24.558594 33.800781 L 14.28125 43.902344 C 9.570312 44.03125 4.863281 43.914062 0.183594 43.761719 L 0 42.304688 L 0 37.046875 L 14.59375 22.085938 L 0 6.941406 L 0 0.0429688 Z M 14.777344 0.0429688 "/>
<path style=" stroke:none;fill-rule:nonzero;fill:rgb(13.725491%,12.156863%,12.54902%);fill-opacity:1;" d="M 43.867188 14.378906 C 44.210938 14.269531 44.296875 14.433594 44.457031 14.691406 C 44.777344 15.210938 45.21875 16.742188 45.378906 17.390625 C 46.203125 20.640625 46.105469 23.425781 44.992188 26.589844 C 44.820312 27.074219 43.855469 29.554688 43.320312 29.4375 C 43.074219 29.265625 43.03125 29.09375 43.03125 28.8125 C 43.03125 28.28125 44.101562 26.414062 44.351562 25.59375 C 45.066406 23.242188 45.175781 21.339844 44.757812 18.921875 C 44.53125 17.640625 43.726562 15.976562 43.609375 14.984375 C 43.589844 14.746094 43.609375 14.464844 43.855469 14.398438 Z M 43.867188 14.378906 "/>
<path style=" stroke:none;fill-rule:nonzero;fill:rgb(13.725491%,12.156863%,12.54902%);fill-opacity:1;" d="M 30.207031 40.339844 L 30.632812 40.773438 C 30.632812 41.117188 30.324219 41.195312 30.097656 41.324219 C 26.636719 43.308594 21.398438 43.460938 18.023438 41.3125 C 17.96875 41.0625 18.226562 40.871094 18.460938 40.871094 C 18.761719 40.871094 20.453125 41.570312 21.054688 41.710938 C 24.367188 42.5 27.269531 42.015625 30.214844 40.339844 Z M 30.207031 40.339844 "/>
<path style=" stroke:none;fill-rule:nonzero;fill:rgb(13.725491%,12.156863%,12.54902%);fill-opacity:1;" d="M 41.980469 26.890625 C 41.585938 26.621094 42.347656 24.859375 42.441406 24.363281 C 42.890625 21.804688 42.796875 19.324219 42.003906 16.839844 L 42.441406 16.546875 C 42.796875 16.546875 43 17.054688 43.105469 17.335938 C 43.910156 19.472656 43.78125 23.984375 42.925781 26.113281 C 42.796875 26.425781 42.421875 27.191406 41.992188 26.890625 Z M 41.980469 26.890625 "/>
<path style=" stroke:none;fill-rule:nonzero;fill:rgb(13.725491%,12.156863%,12.54902%);fill-opacity:1;" d="M 20.046875 40.277344 C 19.953125 40.191406 19.738281 39.671875 19.824219 39.597656 C 21.675781 39.886719 23.1875 40.285156 25.117188 40.113281 C 26.125 40.027344 27.035156 39.617188 27.921875 39.488281 C 28.8125 39.359375 28.921875 39.832031 28.105469 40.234375 C 26.617188 40.957031 23.550781 41.097656 21.933594 40.816406 C 21.601562 40.761719 20.21875 40.425781 20.046875 40.277344 Z M 20.046875 40.277344 "/>
<path style=" stroke:none;fill-rule:nonzero;fill:rgb(13.725491%,12.156863%,12.54902%);fill-opacity:1;" d="M 5.582031 14.378906 C 5.699219 15.535156 5.035156 16.558594 4.769531 17.640625 C 4.136719 20.261719 4.105469 22.746094 4.855469 25.355469 C 5.144531 26.359375 6.152344 28.003906 6.269531 28.660156 C 6.417969 29.523438 5.9375 29.675781 5.433594 28.953125 C 3.730469 26.5 3.171875 22.667969 3.429688 19.734375 C 3.515625 18.695312 4.296875 15.449219 4.886719 14.671875 C 5.121094 14.367188 5.175781 14.3125 5.582031 14.378906 Z M 5.582031 14.378906 "/>
<path style=" stroke:none;fill-rule:nonzero;fill:rgb(13.725491%,12.156863%,12.54902%);fill-opacity:1;" d="M 7.199219 16.546875 C 6.78125 18.988281 6.300781 21.007812 6.6875 23.511719 C 6.816406 24.363281 7.351562 25.59375 7.382812 26.273438 C 7.394531 26.609375 7.328125 26.878906 6.933594 26.890625 C 6.40625 26.890625 6.128906 25.3125 6.03125 24.894531 C 5.527344 22.703125 5.324219 19.375 6.214844 17.273438 C 6.40625 16.828125 6.652344 16.453125 7.199219 16.546875 Z M 7.199219 16.546875 "/>
<path style=" stroke:none;fill-rule:nonzero;fill:rgb(13.725491%,12.156863%,12.54902%);fill-opacity:1;" d="M 22.664062 0.464844 C 24.207031 0.324219 25.75 0.429688 27.238281 0.820312 C 27.871094 0.980469 29.863281 1.726562 30.335938 2.0625 C 30.804688 2.394531 30.699219 3.03125 30.078125 2.871094 C 29.175781 2.632812 28.085938 1.867188 27.023438 1.585938 C 23.894531 0.753906 21.28125 1.339844 18.300781 2.394531 L 18.011719 1.953125 C 18.140625 1.328125 21.933594 0.527344 22.664062 0.464844 Z M 22.664062 0.464844 "/>
<path style=" stroke:none;fill-rule:nonzero;fill:rgb(13.725491%,12.156863%,12.54902%);fill-opacity:1;" d="M 19.824219 3.671875 C 19.746094 2.632812 21.804688 2.460938 22.609375 2.394531 C 24.121094 2.277344 26.433594 2.375 27.847656 2.9375 C 28.40625 3.164062 29.199219 3.757812 28.203125 3.851562 C 27.804688 3.898438 25.875 3.214844 25.117188 3.140625 C 23.21875 2.96875 21.65625 3.398438 19.824219 3.660156 Z M 19.824219 3.671875 "/>
<path style=" stroke:none;fill-rule:nonzero;fill:rgb(100%,100%,100%);fill-opacity:1;" d="M 14.777344 0.0429688 L 24.589844 9.832031 L 34.234375 0.0429688 L 45.582031 0.0429688 L 49 0.226562 L 49 7.027344 L 34.597656 22.085938 L 49 37.144531 L 49 43.945312 L 34.675781 43.945312 L 24.558594 33.800781 L 14.28125 43.902344 C 9.570312 44.03125 4.863281 43.914062 0.183594 43.761719 L 0 42.304688 L 0 37.046875 L 14.59375 22.085938 L 0 6.941406 L 0 0.0429688 Z M 14.777344 0.0429688 "/>
<path style=" stroke:none;fill-rule:nonzero;fill:rgb(100%,100%,100%);fill-opacity:1;" d="M 43.867188 14.378906 C 44.210938 14.269531 44.296875 14.433594 44.457031 14.691406 C 44.777344 15.210938 45.21875 16.742188 45.378906 17.390625 C 46.203125 20.640625 46.105469 23.425781 44.992188 26.589844 C 44.820312 27.074219 43.855469 29.554688 43.320312 29.4375 C 43.074219 29.265625 43.03125 29.09375 43.03125 28.8125 C 43.03125 28.28125 44.101562 26.414062 44.351562 25.59375 C 45.066406 23.242188 45.175781 21.339844 44.757812 18.921875 C 44.53125 17.640625 43.726562 15.976562 43.609375 14.984375 C 43.589844 14.746094 43.609375 14.464844 43.855469 14.398438 Z M 43.867188 14.378906 "/>
<path style=" stroke:none;fill-rule:nonzero;fill:rgb(100%,100%,100%);fill-opacity:1;" d="M 30.207031 40.339844 L 30.632812 40.773438 C 30.632812 41.117188 30.324219 41.195312 30.097656 41.324219 C 26.636719 43.308594 21.398438 43.460938 18.023438 41.3125 C 17.96875 41.0625 18.226562 40.871094 18.460938 40.871094 C 18.761719 40.871094 20.453125 41.570312 21.054688 41.710938 C 24.367188 42.5 27.269531 42.015625 30.214844 40.339844 Z M 30.207031 40.339844 "/>
<path style=" stroke:none;fill-rule:nonzero;fill:rgb(100%,100%,100%);fill-opacity:1;" d="M 41.980469 26.890625 C 41.585938 26.621094 42.347656 24.859375 42.441406 24.363281 C 42.890625 21.804688 42.796875 19.324219 42.003906 16.839844 L 42.441406 16.546875 C 42.796875 16.546875 43 17.054688 43.105469 17.335938 C 43.910156 19.472656 43.78125 23.984375 42.925781 26.113281 C 42.796875 26.425781 42.421875 27.191406 41.992188 26.890625 Z M 41.980469 26.890625 "/>
<path style=" stroke:none;fill-rule:nonzero;fill:rgb(100%,100%,100%);fill-opacity:1;" d="M 20.046875 40.277344 C 19.953125 40.191406 19.738281 39.671875 19.824219 39.597656 C 21.675781 39.886719 23.1875 40.285156 25.117188 40.113281 C 26.125 40.027344 27.035156 39.617188 27.921875 39.488281 C 28.8125 39.359375 28.921875 39.832031 28.105469 40.234375 C 26.617188 40.957031 23.550781 41.097656 21.933594 40.816406 C 21.601562 40.761719 20.21875 40.425781 20.046875 40.277344 Z M 20.046875 40.277344 "/>
<path style=" stroke:none;fill-rule:nonzero;fill:rgb(100%,100%,100%);fill-opacity:1;" d="M 5.582031 14.378906 C 5.699219 15.535156 5.035156 16.558594 4.769531 17.640625 C 4.136719 20.261719 4.105469 22.746094 4.855469 25.355469 C 5.144531 26.359375 6.152344 28.003906 6.269531 28.660156 C 6.417969 29.523438 5.9375 29.675781 5.433594 28.953125 C 3.730469 26.5 3.171875 22.667969 3.429688 19.734375 C 3.515625 18.695312 4.296875 15.449219 4.886719 14.671875 C 5.121094 14.367188 5.175781 14.3125 5.582031 14.378906 Z M 5.582031 14.378906 "/>
<path style=" stroke:none;fill-rule:nonzero;fill:rgb(100%,100%,100%);fill-opacity:1;" d="M 7.199219 16.546875 C 6.78125 18.988281 6.300781 21.007812 6.6875 23.511719 C 6.816406 24.363281 7.351562 25.59375 7.382812 26.273438 C 7.394531 26.609375 7.328125 26.878906 6.933594 26.890625 C 6.40625 26.890625 6.128906 25.3125 6.03125 24.894531 C 5.527344 22.703125 5.324219 19.375 6.214844 17.273438 C 6.40625 16.828125 6.652344 16.453125 7.199219 16.546875 Z M 7.199219 16.546875 "/>
<path style=" stroke:none;fill-rule:nonzero;fill:rgb(100%,100%,100%);fill-opacity:1;" d="M 22.664062 0.464844 C 24.207031 0.324219 25.75 0.429688 27.238281 0.820312 C 27.871094 0.980469 29.863281 1.726562 30.335938 2.0625 C 30.804688 2.394531 30.699219 3.03125 30.078125 2.871094 C 29.175781 2.632812 28.085938 1.867188 27.023438 1.585938 C 23.894531 0.753906 21.28125 1.339844 18.300781 2.394531 L 18.011719 1.953125 C 18.140625 1.328125 21.933594 0.527344 22.664062 0.464844 Z M 22.664062 0.464844 "/>
<path style=" stroke:none;fill-rule:nonzero;fill:rgb(100%,100%,100%);fill-opacity:1;" d="M 19.824219 3.671875 C 19.746094 2.632812 21.804688 2.460938 22.609375 2.394531 C 24.121094 2.277344 26.433594 2.375 27.847656 2.9375 C 28.40625 3.164062 29.199219 3.757812 28.203125 3.851562 C 27.804688 3.898438 25.875 3.214844 25.117188 3.140625 C 23.21875 2.96875 21.65625 3.398438 19.824219 3.660156 Z M 19.824219 3.671875 "/>
</g>
</svg>
