<svg width="24" height="24" viewBox="0 0 24 24" fill="none" xmlns="http://www.w3.org/2000/svg">
<path fill-rule="evenodd" clip-rule="evenodd" d="M5 19.0215C5 20.3238 6.05565 21.3794 7.35766 21.3794H16.4092C17.7113 21.3794 18.7671 20.3238 18.7671 19.0215V4.82554C18.7671 3.52374 17.7113 2.46799 16.4092 2.50074H7.35766C6.05565 2.46799 5 3.52374 5 4.82554V19.0215V19.0215Z" fill="#1A3B73"/>
<path fill-rule="evenodd" clip-rule="evenodd" d="M7.35728 3.00586C6.35255 3.00586 5.53809 3.82032 5.53809 4.82505V19.021C5.53809 20.0258 6.35244 20.8402 7.35728 20.8402H16.4088C17.4136 20.8402 18.2282 20.0258 18.2282 19.021V4.82505C18.2282 3.82032 17.4136 3.00586 16.4088 3.00586H7.35728V3.00586Z" fill="white"/>
<path fill-rule="evenodd" clip-rule="evenodd" d="M7.35744 3.2832C6.50546 3.2832 5.81445 3.97389 5.81445 4.82597V19.0219C5.81445 19.8741 6.50546 20.5649 7.35744 20.5649H16.409C17.2614 20.5649 17.9517 19.874 17.9517 19.0219V4.82597C17.9517 3.97389 17.2613 3.2832 16.409 3.2832H7.35744Z" fill="#1A3B73"/>
<path fill-rule="evenodd" clip-rule="evenodd" d="M8.85638 13.7204C9.76954 13.7204 10.5102 13.2262 10.5102 12.0931C10.5102 10.999 9.76954 10.4658 8.85638 10.4658C7.94321 10.4658 7.20313 10.999 7.20313 12.0931C7.20302 13.2262 7.9431 13.7204 8.85638 13.7204Z" fill="white"/>
<path fill-rule="evenodd" clip-rule="evenodd" d="M10.1151 10.6429V9.95416H9.66871C9.53887 9.95416 9.49585 9.90346 9.49585 9.72919V8.42372C9.49585 8.32653 9.52795 8.30664 9.58536 8.30664C9.75508 8.30664 9.83465 8.60058 9.83465 8.9597L10.5826 8.96132V7.55596H7.18164V8.96132L7.92389 8.9597C7.92389 8.57896 8.05264 8.30664 8.21102 8.30664C8.27966 8.30664 8.30107 8.32653 8.30107 8.42372V9.72919C8.30107 9.88714 8.25794 9.95416 8.12864 9.95416H7.69276V10.6429H10.1151V10.6429ZM9.21996 19.4422V19.7992H7.20964V19.0532H7.46898C7.54985 19.0532 7.56606 19.0047 7.56606 18.9339V17.4754C7.56606 17.4158 7.55525 17.3451 7.46898 17.3451H7.1878V16.594H8.09037C7.67406 16.4211 7.56077 16.1457 7.56077 15.8157V14.4271C7.56077 14.3459 7.54487 14.2972 7.45266 14.2972L7.19342 14.2981V13.5397H10.6221V14.2981L10.3624 14.2972C10.2705 14.2972 10.2543 14.3459 10.2543 14.4271V15.8157C10.2543 16.1673 10.0849 16.5293 9.72806 16.6265C10.0577 16.6917 10.2525 16.8485 10.3841 17.1704C10.514 17.4947 10.3994 17.8348 10.1703 18.0726C10.1252 18.1138 10.0674 18.144 10.0674 18.144C10.2013 18.1983 10.2783 18.4318 10.2783 18.688L10.2889 19.0165C10.2956 19.0586 10.3187 19.0844 10.4198 19.0844L10.6651 19.0856V19.8357H10.1279C9.85227 19.8356 9.36072 19.7938 9.21996 19.4422V19.4422ZM7.90984 6.61815C7.90984 6.77749 7.91254 6.82733 8.22323 6.84106V7.02711H7.20553V6.84106C7.40682 6.82733 7.47536 6.7816 7.47536 6.61815V5.89146C7.47536 5.7279 7.47277 5.68466 7.26867 5.66671V5.46726L7.61125 5.48726C7.85514 5.48726 8.35188 5.39494 8.58798 5.53299C8.74019 5.62239 8.83619 5.77579 8.83619 5.93935C8.83619 6.32972 8.46009 6.4268 8.1187 6.4268H7.90984V6.61815V6.61815ZM10.281 6.01816C10.1936 5.78584 10.087 5.69882 9.78805 5.69882C9.48633 5.69882 9.41358 6.07049 9.41358 6.30161C9.41358 6.55339 9.54536 6.8616 9.85822 6.8616C10.0092 6.8616 10.086 6.75068 10.086 6.59652C10.086 6.47177 9.98081 6.42464 9.86557 6.42464V6.2588H10.6973V6.42464L10.6644 6.42918C10.4996 6.45177 10.5135 6.52615 10.5135 6.66679V7.01068C10.5135 7.07651 10.4247 7.09056 10.3274 7.03727L10.2003 6.96073C10.1317 6.99932 10.0849 7.03727 10.0246 7.06094C9.94816 7.09057 9.80438 7.09078 9.71725 7.09078C9.23283 7.09078 8.91554 6.7256 8.91554 6.28367C8.91554 5.82119 9.2698 5.47018 9.75973 5.47018C9.89205 5.47018 10.0993 5.51299 10.2123 5.57428L10.3152 5.48791H10.466L10.4772 5.96119C10.477 6.07697 10.3326 6.09665 10.281 6.01816V6.01816ZM12.4424 6.63328C12.5101 6.77555 12.5154 6.81349 12.6949 6.84236L12.7234 6.84463V7.02711H11.7773V6.84463C11.8316 6.83781 11.9928 6.84236 11.9928 6.77338C11.9928 6.74225 11.9669 6.68431 11.9564 6.65306L11.8862 6.48842H11.3274L11.2545 6.65306C11.2414 6.68225 11.2234 6.72636 11.2234 6.75522C11.2234 6.83349 11.3664 6.83349 11.4287 6.84236L11.4547 6.84463V7.02711H10.6515V6.84463C10.8802 6.82452 10.9296 6.70193 11.0074 6.54409L11.5116 5.46531H11.9151L12.4424 6.63328Z" fill="white"/>
<path fill-rule="evenodd" clip-rule="evenodd" d="M7.99464 5.68457C7.93486 5.68457 7.90773 5.70652 7.90924 5.73765V6.16002H7.97313C8.06167 6.16002 8.13994 6.15904 8.20112 6.13256C8.27636 6.09969 8.28912 6.01213 8.28912 5.93732C8.28923 5.74197 8.17648 5.68457 7.99464 5.68457ZM11.7998 6.29504L11.6074 5.86348L11.4069 6.29504H11.7998Z" fill="#1A3B73"/>
<path fill-rule="evenodd" clip-rule="evenodd" d="M9.90722 10.4748V10.1305H9.43091C9.3441 10.1305 9.27686 10.0299 9.27686 9.92939V8.23301C9.27686 8.14598 9.39102 8.12814 9.51155 8.12814C9.75955 8.12814 10.014 8.33992 10.014 8.77915L10.4017 8.78034V7.71875H7.36523V8.78034L7.75355 8.77915C7.75355 8.33992 8.00738 8.12814 8.25537 8.12814C8.37612 8.12814 8.48996 8.14598 8.48996 8.23301V9.92939C8.48996 10.03 8.42304 10.1305 8.33591 10.1305H7.85992V10.4748H9.90722V10.4748ZM8.85633 13.5437C9.67187 13.5437 10.3329 13.1025 10.3329 12.0908C10.3329 11.1139 9.67198 10.6379 8.85633 10.6379C8.04122 10.6379 7.38026 11.1139 7.38026 12.0908C7.38026 13.1025 8.04122 13.5437 8.85633 13.5437V13.5437Z" fill="#CF4044"/>
<path fill-rule="evenodd" clip-rule="evenodd" d="M8.87247 13.1622C9.1996 13.1622 9.46478 12.892 9.46478 12.0915C9.46478 11.1861 9.19971 11.0205 8.87247 11.0205C8.54535 11.0205 8.28027 11.2556 8.28027 12.0915C8.28038 12.9621 8.54535 13.1622 8.87247 13.1622Z" fill="white"/>
<path fill-rule="evenodd" clip-rule="evenodd" d="M8.87024 12.9588C9.07834 12.9588 9.24666 12.7402 9.24666 12.0917C9.24666 11.3582 9.07834 11.2246 8.87024 11.2246C8.66257 11.2246 8.49414 11.415 8.49414 12.0917C8.49414 12.7967 8.66257 12.9588 8.87024 12.9588Z" fill="#1A3B73"/>
<path fill-rule="evenodd" clip-rule="evenodd" d="M10.0533 14.3235C10.0533 14.1505 10.1327 14.1263 10.2194 14.1263H10.4092L10.4064 13.7188H9.19434V14.125H9.41369C9.63282 14.125 9.60633 14.224 9.60633 14.3501V15.8522C9.58633 16.0119 9.45163 16.198 9.06624 16.198C8.68074 16.198 8.50312 16.045 8.50312 15.8322V14.3235C8.50312 14.1505 8.58269 14.1263 8.66906 14.1263H8.9337V13.7188H7.38672V14.125H7.55255C7.77222 14.125 7.74584 14.224 7.74584 14.3501V15.8456C7.74584 16.251 8.12443 16.6032 8.995 16.6032C9.91876 16.6032 10.0536 16.1682 10.0536 15.7588V14.3235H10.0533V14.3235Z" fill="#CF4044"/>
<path fill-rule="evenodd" clip-rule="evenodd" d="M9.30085 14.3076C9.3549 14.3076 9.39176 14.3684 9.39176 14.4436V15.7548C9.39176 15.894 9.24452 16.0071 9.06291 16.0071C8.88183 16.0071 8.73438 15.894 8.73438 15.7548V14.4436C8.73438 14.3684 8.7707 14.3076 8.82508 14.3076H9.30085V14.3076Z" fill="#1A3B73"/>
<path fill-rule="evenodd" clip-rule="evenodd" d="M10.4759 19.2515C10.3591 19.2515 10.1679 19.2642 10.1154 19.1727C10.0274 18.9724 10.1379 18.6076 10.0117 18.3725C9.95103 18.2431 9.80044 18.1689 9.70358 18.1255C9.81925 18.093 9.94898 18.0214 10.0417 17.949C10.2731 17.7512 10.2749 17.3738 10.1324 17.0971C10.003 16.881 9.7759 16.7802 9.42889 16.7802L7.375 16.7773L7.37402 17.1751L7.62958 17.1704C7.69499 17.1704 7.76526 17.2432 7.76526 17.3198L7.76623 19.0852C7.76623 19.1616 7.6951 19.2347 7.62958 19.2347L7.37402 19.23L7.375 19.6274H9.02673L9.02728 19.23H8.71236C8.64685 19.23 8.56794 19.1439 8.56794 19.0671L8.5674 18.3402L8.99009 18.3404C9.11938 18.3404 9.249 18.424 9.27181 18.6382C9.28954 18.9185 9.25689 19.059 9.35429 19.3068C9.48369 19.5734 9.72466 19.6469 9.98411 19.6469H10.4758V19.2515H10.4759V19.2515Z" fill="#CF4044"/>
<path fill-rule="evenodd" clip-rule="evenodd" d="M8.77441 18.9346C8.77441 18.9346 8.77441 18.8647 8.77441 18.9346C8.77441 19.0053 8.82847 19.027 8.86911 19.027H9.08835L9.07732 18.6701C9.0743 18.5729 9.05808 18.5352 8.9823 18.5352H8.7796L8.77441 18.9346Z" fill="#1A3B73"/>
<path fill-rule="evenodd" clip-rule="evenodd" d="M8.99721 17.1734C9.14759 17.1734 9.36455 17.2433 9.40347 17.4256C9.42509 17.5679 9.41244 17.7107 9.29818 17.8263C9.24456 17.8726 9.15029 17.9081 9.04035 17.9081L8.56858 17.9085L8.56836 17.1719L8.99721 17.1734V17.1734Z" fill="white"/>
<path fill-rule="evenodd" clip-rule="evenodd" d="M9.20105 17.5545C9.20105 17.665 9.10127 17.7349 9.01738 17.7349H8.76074V17.3457H8.95241C9.04181 17.3457 9.09608 17.3674 9.13889 17.4086C9.17435 17.4404 9.20105 17.4893 9.20105 17.5545Z" fill="#1A3B73"/>
<path fill-rule="evenodd" clip-rule="evenodd" d="M12.2806 4.2389L15.9158 6.52824C15.8044 6.96034 16.1251 7.32022 15.9745 7.73275C15.9353 8.35468 15.2608 8.479 14.8945 8.86558C14.554 9.19909 14.1026 9.24525 13.6965 9.41551L13.6507 9.402C13.5525 9.07477 13.2645 8.82634 13.1467 8.50549C12.8519 8.39425 12.5048 8.36798 12.2236 8.51813C11.962 8.71488 11.8175 9.02904 11.8636 9.32373C11.8702 9.6247 12.1906 9.83431 12.4133 9.96534C12.1253 10.168 12.2953 10.5935 12.2691 10.8623C12.2235 11.7723 13.3364 12.1581 13.3034 13.0619C13.2186 13.6507 13.1597 14.3316 13.5393 14.8028C13.847 15.032 13.8402 15.4116 14.0302 15.6999C14.0501 15.9681 14.351 16.1518 14.2203 16.4393C14.4035 16.6422 14.0761 16.6624 14.0761 16.8454C14.1025 17.009 13.9188 16.9832 13.8402 17.0549C13.6178 17.0351 13.4869 17.2776 13.3364 17.3953L12.9764 17.8076C12.5181 17.9977 12.0993 18.2726 11.7064 18.6259C11.5493 18.6718 11.3464 18.6652 11.2809 18.8616C11.2284 18.9402 11.2479 19.0254 11.2347 19.1105C10.9992 19.3398 10.8159 19.6145 10.8096 19.9415C10.8159 20.1712 10.9143 20.3606 10.9666 20.5702L15.0844 20.57C15.2218 20.4781 15.4967 20.4655 15.4767 20.2233C15.3785 20.0794 15.1429 20.007 15.0972 19.8172C15.2085 19.7127 15.4308 19.7843 15.5225 19.6273C15.5688 18.5539 15.7126 17.4737 15.8832 16.4265C15.732 15.2742 15.464 14.1744 15.1429 13.0944C15.0514 12.4858 14.8943 11.8966 14.6914 11.3335L14.7043 11.2222C15.2284 10.6263 15.4902 9.91928 15.994 9.30395C16.3673 8.57727 16.5901 7.7787 16.8387 6.99958C16.8125 6.80986 16.8649 6.57419 16.655 6.47581C16.4393 6.29917 16.1772 6.43008 15.9486 6.35149L12.0661 3.98183C11.7904 3.90324 11.4877 4.30031 11.2938 4.51219C11.2544 4.57857 11.3853 4.68235 11.4706 4.73489C11.7979 4.82645 11.8652 4.39252 12.0879 4.22874C12.119 4.20874 12.219 4.20117 12.2806 4.2389V4.2389Z" fill="white"/>
<path fill-rule="evenodd" clip-rule="evenodd" d="M14.7954 9.79492C14.658 10.0108 14.4744 10.2399 14.2781 10.4038C14.2194 10.3319 14.1474 10.2597 14.1542 10.1551C14.3632 10.0173 14.5794 9.89978 14.7954 9.79492V9.79492ZM14.3761 20.3802C14.4417 20.4654 14.5542 20.4702 14.5872 20.562L11.1328 20.5655C11.1328 20.5655 11.1491 20.4848 11.1687 20.4328C11.3323 19.9677 11.7185 19.6601 12.0984 19.3133C12.3343 19.3788 12.5303 19.5555 12.7724 19.6144C13.3157 18.9204 14.0948 18.3706 14.671 17.6963C14.4289 18.5345 14.2847 19.4707 14.3761 20.3802V20.3802ZM18.8534 21.0064C18.8534 20.7362 19.074 20.5154 19.3465 20.5154C19.4767 20.5155 19.6015 20.5672 19.6935 20.6593C19.7855 20.7514 19.8372 20.8762 19.8372 21.0064C19.8372 21.279 19.6183 21.4998 19.3465 21.4998C19.2817 21.4998 19.2176 21.487 19.1577 21.4623C19.0979 21.4375 19.0435 21.4011 18.9977 21.3553C18.9519 21.3095 18.9156 21.2551 18.8908 21.1952C18.866 21.1353 18.8533 21.0712 18.8534 21.0064V21.0064ZM19.7596 21.0064C19.7596 20.7676 19.5859 20.5805 19.3466 20.5805C19.1065 20.5805 18.9311 20.7676 18.9311 21.0064C18.9311 21.2478 19.1065 21.4348 19.3466 21.4348C19.5859 21.4347 19.7596 21.2478 19.7596 21.0064ZM19.5924 21.2816H19.5117L19.3544 21.0281H19.2309V21.2816H19.1635V20.7323H19.404C19.5496 20.7323 19.599 20.7866 19.599 20.8775C19.599 20.9856 19.5236 21.0256 19.4258 21.0282L19.5924 21.2816V21.2816ZM19.3338 20.975C19.4117 20.975 19.5261 20.9879 19.5261 20.8763C19.5261 20.7906 19.456 20.7802 19.3885 20.7802H19.231V20.975H19.3338V20.975Z" fill="#1A3B73"/>
</svg>
