<svg width="20" height="20" viewBox="0 0 20 20" fill="none" xmlns="http://www.w3.org/2000/svg">
<path d="M10 1C14.9571 1 19 5.04326 19 10C19 14.9571 14.9571 19.0003 10 19.0003C5.04294 19.0003 1 14.9571 1 10C1 5.04326 5.04294 1 10 1Z" fill="#005335"/>
<path d="M9.99962 1.28418C14.8042 1.28418 18.7151 5.19502 18.7151 9.99962C18.7151 14.8042 14.8042 18.7151 9.99962 18.7151C5.19469 18.7151 1.28418 14.8042 1.28418 9.99962C1.28418 5.19502 5.19469 1.28418 9.99962 1.28418Z" fill="white"/>
<path d="M10.0005 1.47656C14.6934 1.47656 18.5231 5.30592 18.5231 10.009C18.5231 14.7022 14.6934 18.5319 10.0005 18.5319C5.29746 18.5319 1.46777 14.7022 1.46777 10.009C1.46777 5.30592 5.29746 1.47656 10.0005 1.47656Z" fill="#005335"/>
<path d="M10.0004 4.5957C12.9767 4.5957 15.4043 7.02363 15.4043 9.99965C15.4043 12.9865 12.9767 15.4141 10.0004 15.4141C7.01387 15.4141 4.58594 12.9865 4.58594 9.99965C4.58594 7.02363 7.01387 4.5957 10.0004 4.5957Z" fill="white"/>
<path d="M9.9999 4.77832C12.8747 4.77832 15.2211 7.12509 15.2211 10.0094C15.2211 12.8842 12.8747 15.231 9.9999 15.231C7.12509 15.231 4.77832 12.8842 4.77832 10.0094C4.77832 7.12509 7.12509 4.77832 9.9999 4.77832Z" fill="#D5622A"/>
<path d="M6.27246 12.3153L8.75099 10.1417L8.78155 9.08496L9.81759 10.6898L6.27246 13.8491" fill="white"/>
<path d="M8.31318 6.41423L8.61778 6.37348L10.6189 4.6875L11.3605 4.85015L12.021 5.07359L8.1709 8.39528" fill="white"/>
<path d="M9.63477 7.57235L12.3367 5.22559L12.9157 5.48977L13.3931 5.87586L10.1832 8.61858" fill="white"/>
<path d="M7.63281 13.2193L10.3857 10.8223L10.8428 11.97L7.63281 14.7633" fill="white"/>
<path d="M9.69552 10.8944C9.4517 8.62881 11.5136 7.73505 13.3018 8.74086L13.261 9.37043H13.1187L12.9765 9.17755C12.9459 9.14732 12.8851 8.8322 12.1231 8.8322C11.3105 8.8322 10.701 9.69573 10.7112 10.366C10.7214 11.0975 10.9855 12.3369 11.9707 12.3369C12.0623 12.3369 12.1435 12.3264 12.296 12.2147V11.2398C12.174 11.1382 12.1333 11.0262 11.9707 10.9858V10.7929H13.6671V10.9654C13.5048 11.0669 13.4339 11.1179 13.4339 11.5036V12.4079C11.3411 13.3526 9.8884 12.611 9.69552 10.8944Z" fill="white"/>
<path d="M7.29785 11.219V6.48535H8.96379C10.1828 6.48535 10.589 7.2572 10.589 7.75501C10.589 8.60835 10.0406 8.78086 9.57332 8.89258L10.6501 10.8023L10.843 10.9854L10.9448 11.2288C10.4773 11.1884 10.0304 11.1884 9.5122 11.2288L8.43575 9.05523V10.2332" fill="#D5622A"/>
<path d="M8.54785 8.85211C9.0151 8.85211 9.5231 8.75058 9.5231 8.03952C9.5231 7.15562 8.86264 7.25748 8.54785 7.25748" fill="white"/>
<path d="M17.3847 11.3104H17.6791C17.73 11.2089 17.7809 11.1277 17.7908 10.9246C17.8112 10.6706 17.7198 10.3861 17.3538 10.3355C17.1001 10.3151 16.9782 10.5179 16.8057 10.762C16.6329 10.9956 16.6125 11.1073 16.44 11.1478C16.2162 11.1987 16.0946 10.9549 16.115 10.7216C16.1249 10.5691 16.1758 10.4268 16.4502 10.3046L16.4604 10.2441C16.3381 10.2441 16.2773 10.2441 16.1456 10.2642C16.0946 10.3453 15.9931 10.4574 15.9727 10.6401C15.9422 11.016 16.0841 11.3206 16.5211 11.3512C16.8156 11.3715 16.8869 11.1783 17.0699 10.9145C17.2424 10.6503 17.2118 10.6601 17.3643 10.5691C17.5473 10.4676 17.6893 10.6907 17.6791 10.8635C17.6689 11.0466 17.6081 11.1987 17.3847 11.2496" fill="white"/>
<path d="M16.877 9.62409V9.88828C17.009 9.89814 17.1411 9.87776 17.2732 9.82716C17.8013 9.63428 17.9541 9.13647 17.7609 8.60843C17.5982 8.16122 17.2529 7.91741 16.877 7.90723V8.17141C17.2124 8.12048 17.5069 8.2529 17.6386 8.63866C17.7911 9.1161 17.5578 9.44107 17.0803 9.58335C17.009 9.60372 16.9483 9.62409 16.877 9.62409Z" fill="white"/>
<path d="M16.8763 8.17141V7.90723C16.7649 7.90723 16.6529 7.9276 16.5412 7.95816C16.0029 8.15104 15.7999 8.66922 15.9826 9.17722C16.135 9.59354 16.4906 9.85772 16.8763 9.88828V9.62409C16.531 9.66484 16.2362 9.52256 16.1245 9.15684C15.952 8.64885 16.3381 8.31369 16.7544 8.19178C16.7952 8.1816 16.8359 8.17141 16.8763 8.17141Z" fill="white"/>
<path d="M15.5767 4.60595C15.7699 4.78897 16.0235 5.0226 15.7492 5.27627C15.5362 5.46915 15.2822 5.30683 15.1193 5.13399L15.0789 5.14418C15.0181 5.45929 14.9165 5.91603 14.8758 6.29226C14.9165 6.34319 14.9569 6.37342 15.0079 6.41384C15.0381 6.45491 15.0585 6.49533 15.0992 6.54593C15.1502 6.58667 15.1906 6.54593 15.16 6.48514C15.1298 6.43454 15.1298 6.37342 15.1403 6.34319L15.2721 5.54045C15.2622 5.46915 15.2822 5.42873 15.323 5.43892C15.5665 5.55064 15.7801 5.6318 15.9828 5.43892C16.1155 5.31701 16.1964 5.10376 15.9118 4.79883C15.8205 4.6973 15.7088 4.58558 15.6072 4.47386C15.5057 4.37233 15.4853 4.33158 15.4038 4.24023L15.343 4.29117C15.3733 4.33158 15.394 4.34177 15.3733 4.3927C15.3733 4.42293 15.2921 4.49423 15.2412 4.53498L14.4089 5.31701C14.3579 5.35776 14.2561 5.41855 14.2459 5.42873C14.236 5.42873 14.1851 5.41855 14.1545 5.39818L14.0938 5.44878C14.1956 5.55064 14.1746 5.52008 14.2663 5.61143C14.3477 5.7031 14.3678 5.73333 14.4493 5.8352L14.5101 5.78427C14.4795 5.75371 14.4493 5.68273 14.4697 5.66236C14.4697 5.66236 14.5203 5.5812 14.5916 5.50989" fill="white"/>
<path d="M16.8668 6.37446C16.9887 6.60809 17.1714 6.9025 16.826 7.06548C16.5619 7.18706 16.3792 6.94325 16.2678 6.72999H16.2369C16.0746 7.01455 15.8409 7.4105 15.6783 7.76603C15.7088 7.81696 15.7391 7.85771 15.7696 7.91849C15.7903 7.96942 15.7903 8.01017 15.8206 8.07096C15.8613 8.13175 15.9017 8.10119 15.9017 8.0404C15.8813 7.97928 15.9017 7.91849 15.9221 7.88794L16.2878 7.16669C16.3082 7.09571 16.3286 7.06548 16.369 7.08553C16.5619 7.26855 16.7449 7.4105 16.9989 7.28859C17.1615 7.21729 17.3038 7.03459 17.131 6.65902C17.0702 6.52693 16.9989 6.39484 16.9381 6.26274C16.8668 6.12079 16.8668 6.08991 16.8158 5.97852L16.7449 6.00875C16.7551 6.04949 16.7652 6.06986 16.7347 6.10009C16.7245 6.14084 16.6332 6.18158 16.5724 6.21181L15.5363 6.68925C15.4752 6.70962 15.3635 6.74018 15.3533 6.74018C15.3431 6.75037 15.2922 6.71981 15.2718 6.68925L15.2012 6.71981C15.262 6.84171 15.262 6.81148 15.3129 6.93306C15.3533 7.03459 15.3737 7.07534 15.4144 7.19725L15.4956 7.16669C15.4752 7.12627 15.465 7.05497 15.4854 7.03459C15.4956 7.03459 15.5666 6.97381 15.6579 6.93306" fill="white"/>
<path d="M13.667 5.00285V5.1448C13.6972 5.15499 13.7179 5.16517 13.7488 5.17536C13.8395 5.23615 13.9006 5.29726 14.0025 5.35838C14.033 5.33801 14.0633 5.29726 14.0025 5.24666C13.9818 5.23615 13.9614 5.16517 13.9614 5.12443C13.9719 5.07383 13.9719 4.98215 13.9818 4.93155L14.2361 3.37733L14.1648 3.33691C14.0123 3.44863 13.8198 3.58073 13.667 3.67207V3.82421L13.9315 3.6517L13.8395 4.27142L13.667 4.16955V4.32202L13.7991 4.39332L13.7383 4.81983C13.7383 4.86057 13.7077 4.96211 13.6972 4.99234C13.6874 5.00285 13.6775 5.00285 13.667 5.00285Z" fill="white"/>
<path d="M13.667 3.82401L13.6775 3.67188L12.7328 4.30178C12.7121 4.33201 12.6004 4.35238 12.5803 4.33201C12.5494 4.32182 12.4785 4.31163 12.4686 4.32182L12.4482 4.37275C12.5294 4.43354 12.5803 4.4641 12.6717 4.51503C12.7328 4.55545 12.7223 4.55545 12.834 4.61656C12.8646 4.59619 12.8849 4.55545 12.8445 4.51503C12.8136 4.49466 12.7732 4.47428 12.8034 4.42335L13.3114 4.08819L13.667 4.32182V4.16936L13.4133 3.99685" fill="white"/>
<path d="M13.6665 5.14372V5.00177C13.6359 5.01163 13.5856 4.99126 13.5856 4.99126C13.5347 4.98107 13.5347 5.01163 13.5146 5.04219C13.5856 5.09279 13.626 5.11316 13.6665 5.14372Z" fill="white"/>
<path d="M12.2141 3.99632C12.2039 4.03674 12.1839 4.09819 12.1737 4.09819C12.062 4.11823 12.0216 4.12842 11.8283 4.08767C11.2898 3.97595 11.1373 3.56982 11.2796 3.0822C11.4015 2.6455 11.7064 2.40136 12.1737 2.53345C12.5289 2.62513 12.5798 2.77759 12.6206 2.97048H12.6814L12.6915 2.63532C12.6104 2.56401 12.5391 2.51341 12.245 2.43192C11.6555 2.26927 11.0966 2.49304 10.9546 3.03126C10.7719 3.65098 11.0256 3.99632 11.7367 4.1892C11.8993 4.24014 12.1839 4.24014 12.407 4.24014L12.519 3.83367C12.5391 3.7627 12.5696 3.75251 12.6002 3.75251H12.6814V3.69172C12.5798 3.66117 12.4583 3.63061 12.3564 3.60005C12.265 3.56982 12.2549 3.56982 12.1635 3.54945L12.1431 3.62042C12.2243 3.65098 12.3055 3.67135 12.2752 3.77289" fill="white"/>
<path d="M3.18359 9.32968V9.61424C3.56968 9.61424 3.89466 9.37043 4.04712 8.97415C4.26037 8.42574 3.99619 7.84644 3.48819 7.65356C3.37647 7.623 3.28513 7.60296 3.18359 7.59277V7.877C3.27494 7.88719 3.37647 7.91775 3.47801 7.95849C3.88447 8.15137 4.10791 8.48653 3.92521 8.90318C3.78294 9.25871 3.48819 9.36024 3.18359 9.32968Z" fill="white"/>
<path d="M3.18391 7.87615V7.59192C2.79782 7.57155 2.48303 7.8354 2.32038 8.25205C2.10713 8.84121 2.34075 9.35939 2.82838 9.54209C2.95028 9.59302 3.07219 9.61339 3.18391 9.61339V9.32883C3.062 9.31865 2.9401 9.2779 2.82838 9.2273C2.46266 9.06465 2.25959 8.74986 2.44262 8.31317C2.58457 7.94745 2.85894 7.81536 3.18391 7.87615Z" fill="white"/>
<path d="M2.37101 10.9958C2.34045 10.7316 2.27966 10.3866 2.65557 10.3659C2.93979 10.3455 3.03114 10.6301 3.06203 10.8739L3.09226 10.8844C3.34626 10.681 3.70179 10.3866 3.97583 10.1221C3.97583 10.0613 3.95578 10.0104 3.95578 9.94957C3.9456 9.88878 3.96597 9.84803 3.95578 9.78692C3.9456 9.71561 3.88448 9.72613 3.87462 9.78692C3.86411 9.84803 3.82369 9.89864 3.80332 9.91901L3.19379 10.4576C3.15305 10.518 3.11263 10.5387 3.09226 10.5082C2.98054 10.2644 2.85863 10.0715 2.58426 10.0918C2.39138 10.102 2.1985 10.2236 2.22873 10.6301C2.23892 10.7724 2.25929 10.9248 2.26948 11.0773C2.27966 11.2196 2.26948 11.26 2.27966 11.3819H2.35064C2.35064 11.3411 2.35064 11.3106 2.39138 11.2902C2.42161 11.26 2.52347 11.26 2.58426 11.2498L3.72216 11.1785C3.78295 11.1785 3.90485 11.1887 3.91504 11.1887C3.93541 11.1989 3.96597 11.2396 3.96597 11.2698H4.05732C4.03695 11.1279 4.02676 11.1581 4.02676 11.0365C4.01657 10.9248 4.01657 10.8739 4.01657 10.7421L3.93541 10.752C3.93541 10.7927 3.92523 10.8637 3.89467 10.8637C3.88448 10.8739 3.80332 10.8943 3.70179 10.9044" fill="white"/>
<path d="M4.8291 5.69238V6.05777L4.92012 6.26117C4.94082 6.29173 4.94082 6.40345 4.92012 6.42349C4.90008 6.44386 4.8797 6.52535 4.88989 6.52535L4.93063 6.56577C5.00161 6.49446 5.04235 6.44386 5.11333 6.37289C5.16426 6.32228 5.16426 6.32228 5.24542 6.24047C5.23524 6.20038 5.20501 6.17968 5.1544 6.21024C5.1337 6.22042 5.09296 6.26117 5.0624 6.22042" fill="white"/>
<path d="M4.8291 5.46873V5.65175L5.23524 5.24529L5.6417 5.38756C5.67193 5.39775 5.77379 5.44835 5.79416 5.46873C5.81453 5.4891 5.77379 5.57059 5.77379 5.57059C5.74323 5.63138 5.78398 5.63138 5.81453 5.66161C5.90555 5.56007 5.92625 5.51966 5.98704 5.45854C6.0682 5.37738 6.12932 5.32678 6.21048 5.24529C6.2003 5.20487 6.17007 5.16412 6.10895 5.22491C6.08858 5.2351 6.0176 5.24529 5.97686 5.2351C5.93644 5.21506 5.84476 5.19468 5.79416 5.17431L4.8291 4.80859V5.07278L5.12352 5.17431" fill="white"/>
<path d="M4.82943 5.0737V4.80951L4.33163 4.60645L4.27051 4.66723C4.352 4.84007 4.43316 5.053 4.50446 5.21597L4.82943 6.0588V5.46964L4.76832 5.54095L4.53502 4.96198" fill="white"/>
<path d="M8.72949 3.94465V4.06656C8.73968 4.06656 8.74986 4.06656 8.76005 4.05637C8.98349 3.99525 9.13595 3.92428 9.27823 3.82242C9.55227 3.61968 9.70474 3.21322 9.59302 2.80708C9.48163 2.40062 9.17637 2.17718 8.72949 2.22778V2.41081C8.99368 2.42099 9.20693 2.55276 9.30879 2.94903C9.39981 3.28419 9.33902 3.58912 9.1054 3.77214C8.98349 3.87335 8.86158 3.91409 8.72949 3.94465Z" fill="white"/>
<path d="M8.72968 2.41056V2.22754C8.66889 2.23773 8.59759 2.24824 8.52661 2.26828C8.42508 2.28866 8.2322 2.36982 8.05903 2.42075C7.89671 2.46149 7.82574 2.47168 7.66309 2.51242L7.68346 2.5834C7.74425 2.57321 7.77481 2.57321 7.79551 2.60344C7.80536 2.62382 7.81555 2.70498 7.84611 2.79665L8.14052 3.95459C8.16122 4.00552 8.17108 4.08668 8.14052 4.10706L8.06955 4.16785L8.08992 4.22896C8.21183 4.1984 8.32355 4.15766 8.42508 4.12743C8.5368 4.10706 8.64885 4.09687 8.72968 4.06664V3.94441H8.70931C8.62815 3.96478 8.45531 3.99534 8.39452 3.8938L8.07941 2.66456C8.07941 2.55284 8.24206 2.47168 8.32355 2.45131C8.46582 2.42075 8.60777 2.40038 8.72968 2.41056Z" fill="white"/>
<path d="M6.3427 4.78868C6.36308 4.8291 6.41368 4.95101 6.41368 4.96119C6.42419 4.97138 6.35289 5.05254 6.32233 5.06272L6.36308 5.13403C6.44424 5.09328 6.43405 5.0831 6.51521 5.04268C6.5967 4.99175 6.65749 4.97138 6.74917 4.92045L6.70842 4.8498C6.67819 4.86984 6.56647 4.89022 6.56647 4.86984C6.56647 4.86984 6.49517 4.80906 6.44424 4.72757L5.91587 3.79306L7.51083 4.33129C7.54139 4.34148 7.61269 4.36185 7.62255 4.37203C7.74446 4.41278 7.71423 4.32143 7.67348 4.25013L7.00284 3.09219C6.95223 3.00084 6.93186 2.91935 6.93186 2.91935C6.91149 2.88912 6.99298 2.81782 7.03339 2.79777L7.00284 2.73633C6.91149 2.78759 6.88126 2.80796 6.79977 2.85856C6.72879 2.89931 6.68805 2.90916 6.60689 2.96042L6.64731 3.02121C6.69824 3.00084 6.78958 2.97028 6.79977 2.99065C6.79977 2.99065 6.88126 3.10237 6.91149 3.14312L7.3587 3.94553L5.78411 3.42735C5.74336 3.45791 5.69243 3.48846 5.65201 3.50851C5.58071 3.55944 5.48936 3.60018 5.4082 3.65079L5.43876 3.7119C5.48936 3.69153 5.60108 3.6406 5.65201 3.68134C5.68257 3.69153 5.75355 3.75265 5.77392 3.80325" fill="white"/>
<path d="M3.24408 6.6782C3.14222 6.6276 3.08143 6.57667 3.08143 6.57667C3.07125 6.52607 3.07125 6.47514 3.1018 6.43472L3.0305 6.40416C2.9799 6.51588 2.95953 6.5563 2.90859 6.65783C2.84781 6.78007 2.85799 6.76988 2.79688 6.89146L2.85799 6.92201C2.88822 6.8609 2.88822 6.85104 2.94934 6.85104C2.96971 6.84085 3.05087 6.8816 3.13236 6.91183L4.20914 7.43987C4.24956 7.46057 4.32053 7.53154 4.31035 7.5621L4.32053 7.64326L4.38165 7.67382C4.40202 7.62289 4.43258 7.55192 4.473 7.48061C4.5443 7.32848 4.5949 7.17601 4.70662 6.98313C4.79797 6.83067 4.82853 6.78992 4.78778 6.70876C4.73718 6.60723 4.68658 6.50569 4.61528 6.38379C4.55416 6.39365 4.5443 6.45509 4.58472 6.52607C4.65602 6.6782 4.62546 6.91183 4.53411 7.09485C4.50356 7.15564 4.41221 7.26736 4.27979 7.17601" fill="white"/>
<path d="M10.0918 17.293L10.102 17.3133C10.102 17.3133 10.1122 17.3133 10.1122 17.3032C10.1122 17.3032 10.102 17.3032 10.0918 17.293Z" fill="white"/>
<path d="M10.0918 16.8459V17.0693C10.1325 17.1104 10.173 17.161 10.214 17.1915C10.2847 17.2625 10.356 17.3641 10.5183 17.3437C10.5594 17.3335 10.4168 17.2724 10.3764 17.2116C10.3152 17.161 10.2748 17.0795 10.2643 17.0493C10.2341 17.0289 10.1831 16.9172 10.1628 16.8764C10.214 16.8561 10.2952 16.7953 10.3254 16.7545C10.356 16.7141 10.3764 16.6734 10.3764 16.6224C10.3764 16.5515 10.3458 16.5009 10.2952 16.4601C10.2341 16.4292 10.173 16.4092 10.0918 16.4092V16.4805C10.1224 16.4903 10.1427 16.5009 10.1628 16.5107C10.1933 16.5413 10.214 16.5919 10.214 16.653C10.214 16.7647 10.173 16.8156 10.0918 16.8459Z" fill="white"/>
<path d="M10.091 16.4809V16.4096C10.0808 16.4096 10.0707 16.3994 10.0608 16.3994C10.0201 16.3994 9.97931 16.4096 9.92871 16.4096H9.76606C9.7355 16.4096 9.71513 16.3994 9.71513 16.3994C9.70527 16.3994 9.69509 16.4096 9.69509 16.4096L9.68457 16.4198C9.68457 16.43 9.69509 16.4402 9.69509 16.4402H9.71513C9.72532 16.4402 9.7355 16.4503 9.74569 16.4503C9.75587 16.4503 9.76606 16.4605 9.76606 16.4605C9.76606 16.4605 9.79662 16.4809 9.79662 16.5013C9.79662 16.5013 9.8068 16.542 9.8068 16.5824V17.141C9.8068 17.1716 9.79662 17.2123 9.79662 17.2225C9.79662 17.2327 9.76606 17.2531 9.76606 17.2531C9.76606 17.2531 9.75587 17.2731 9.74569 17.2731C9.7355 17.2731 9.72532 17.2833 9.71513 17.2833C9.69509 17.2833 9.68457 17.2935 9.68457 17.3037C9.68457 17.3139 9.69509 17.3139 9.69509 17.3139C9.69509 17.3139 9.70527 17.3241 9.71513 17.3241H9.72532C9.76606 17.3241 9.85774 17.3139 9.91852 17.3139H10.0201C10.0503 17.3139 10.0707 17.3241 10.0808 17.3241L10.091 17.3139V17.2833H10.0608C10.0503 17.2833 10.0095 17.2629 10.0095 17.2629C9.99969 17.2629 9.96913 17.2327 9.96913 17.2225V16.9991C9.96913 16.9991 9.96913 16.9278 9.97931 16.9179C9.97931 16.9179 10.0299 16.9886 10.091 17.0697V16.8463H10.0095C9.9895 16.8463 9.96913 16.8364 9.96913 16.8364C9.95894 16.8364 9.95894 16.8262 9.95894 16.8262V16.5013C9.95894 16.4911 9.95894 16.4809 9.96913 16.4707C9.96913 16.4605 9.9895 16.4605 10.0095 16.4605C10.0401 16.4605 10.0707 16.4707 10.091 16.4809Z" fill="white"/>
<path d="M5.80469 15.4343V15.5565C5.84543 15.5664 5.88585 15.5664 5.94697 15.546C5.9772 15.5362 6.03798 15.475 6.06854 15.4445C6.11947 15.3935 6.13985 15.3226 6.11947 15.2618C6.11947 15.2109 6.06854 15.1297 5.99757 15.0686C5.96701 15.0383 5.93678 15.018 5.89603 14.9874C5.87566 14.9565 5.84543 14.9365 5.83492 14.9266C5.82506 14.9266 5.81487 14.9164 5.80469 14.9062V15.1093L5.84543 15.0686C5.85529 15.0587 5.86548 15.0485 5.87566 15.0587C5.88585 15.0587 5.90622 15.0587 5.91608 15.0686C5.96701 15.1195 5.98771 15.1701 5.98771 15.2109C5.99757 15.2618 5.96701 15.3124 5.92659 15.3531C5.88585 15.4037 5.84543 15.4343 5.80469 15.4343Z" fill="white"/>
<path d="M5.80439 15.1088V14.9057C5.79421 14.8955 5.78402 14.8853 5.77383 14.865C5.75346 14.8446 5.74327 14.8242 5.74327 14.8242H5.71272C5.70286 14.8347 5.70286 14.8446 5.70286 14.8446C5.70286 14.8446 5.70286 14.8551 5.71272 14.8551C5.7229 14.865 5.7229 14.8755 5.73342 14.8853V14.9057C5.73342 14.9057 5.74327 14.9461 5.73342 14.9563C5.73342 14.9665 5.71272 14.9971 5.68249 15.0276L5.30658 15.4337C5.27602 15.4643 5.24547 15.4745 5.23561 15.485L5.19486 15.4949H5.1643C5.1643 15.485 5.14393 15.485 5.14393 15.4745C5.12389 15.4643 5.11337 15.4643 5.10352 15.4745V15.485C5.10352 15.485 5.10352 15.4949 5.11337 15.5051H5.12389C5.15445 15.5458 5.22542 15.5964 5.26584 15.627C5.28621 15.6473 5.31677 15.6877 5.33714 15.7081C5.36737 15.7285 5.37789 15.7489 5.37789 15.7489C5.37789 15.759 5.39793 15.759 5.39793 15.759C5.39793 15.759 5.40812 15.7692 5.4183 15.759V15.7387C5.4183 15.7387 5.40812 15.7285 5.39793 15.7183C5.38774 15.6979 5.36737 15.6677 5.36737 15.6575V15.6066C5.37789 15.5964 5.4183 15.5458 5.4183 15.5458L5.51984 15.4443C5.51984 15.4443 5.57077 15.3831 5.58062 15.3933C5.66211 15.4541 5.71272 15.5356 5.80439 15.556V15.4337C5.76365 15.4443 5.71272 15.4236 5.66211 15.373L5.65193 15.3628C5.64174 15.3427 5.63188 15.3325 5.6217 15.322C5.6217 15.3122 5.63188 15.3017 5.63188 15.3017" fill="white"/>
<path d="M14.4486 15.6367V15.6265H14.4687L14.489 15.6367C14.4992 15.6571 14.5502 15.6873 14.5502 15.6873C14.611 15.6978 14.6721 15.6672 14.7227 15.6265C14.7634 15.5959 14.7838 15.5453 14.7838 15.5148C14.7936 15.474 14.7634 15.4333 14.7329 15.4031C14.7125 15.3827 14.6721 15.3623 14.6517 15.3521C14.6415 15.3423 14.5909 15.3321 14.5804 15.3423C14.5502 15.3321 14.4992 15.3521 14.4789 15.3423L14.3875 15.3521C14.286 15.3521 14.2048 15.3725 14.1131 15.271C14.0625 15.2098 14.0422 15.1287 14.0524 15.0679C14.0625 15.0173 14.103 14.9358 14.1641 14.875C14.1844 14.8546 14.2354 14.8343 14.2452 14.8238C14.2656 14.8037 14.3165 14.8037 14.3264 14.8037L14.3366 14.8139L14.4279 14.9154L14.4384 14.9256C14.4486 14.9256 14.4384 14.9457 14.4384 14.9457L14.4181 14.9558C14.4181 14.9558 14.4079 14.966 14.3977 14.9558L14.3773 14.9457C14.2962 14.8645 14.2354 14.8951 14.1844 14.9358C14.1131 14.9966 14.1233 15.0883 14.1743 15.1491C14.215 15.1898 14.2758 15.2 14.3264 15.1898C14.3366 15.1898 14.3977 15.1898 14.4279 15.1796C14.5097 15.1589 14.6211 15.1694 14.6721 15.1898C14.7026 15.2 14.7634 15.22 14.7936 15.271C14.8449 15.3216 14.8548 15.3929 14.8649 15.4333C14.8649 15.4438 14.8649 15.5046 14.8548 15.5148C14.8449 15.5351 14.8344 15.5857 14.8245 15.6061C14.7936 15.6265 14.7736 15.6672 14.743 15.6873C14.7227 15.7077 14.6819 15.7382 14.6721 15.7382L14.6211 15.7688L14.5603 15.799C14.5603 15.799 14.54 15.799 14.5298 15.7888L14.4486 15.6873L14.4384 15.6774L14.4279 15.6672V15.6571" fill="white"/>
<path d="M11.9912 16.1045V16.0943H12.0014L12.0116 16.0841L12.0927 16.0539L12.2045 16.0128L12.3162 15.9727L12.4075 15.9316H12.4279L12.4381 15.9418V15.9622C12.4381 15.9622 12.4279 15.9727 12.4177 15.9727L12.3773 15.9928C12.3467 16.0026 12.3264 16.023 12.3162 16.0335C12.306 16.0539 12.306 16.0637 12.3162 16.1045L12.3366 16.1452L12.5498 16.7038C12.56 16.7344 12.5702 16.7751 12.58 16.7751C12.6109 16.7955 12.6415 16.7955 12.6819 16.7751L12.7223 16.7646C12.7325 16.7548 12.7529 16.7646 12.7529 16.7646V16.8054H12.7325C12.7223 16.8155 12.6918 16.8257 12.6513 16.8359C12.6109 16.856 12.58 16.8661 12.5294 16.8865C12.489 16.8967 12.4585 16.9174 12.4279 16.9273C12.3875 16.9374 12.3467 16.9578 12.3366 16.9578H12.3264L12.3162 16.9476V16.9374C12.3162 16.9273 12.3162 16.9174 12.3264 16.9174C12.3264 16.9174 12.3467 16.9069 12.3773 16.8967C12.4279 16.8763 12.4486 16.8458 12.4381 16.7955L12.4177 16.7446L12.2045 16.1856C12.2045 16.1758 12.1943 16.1656 12.1841 16.1452C12.1742 16.1248 12.1637 16.1147 12.1433 16.1045C12.1335 16.1045 12.1029 16.1045 12.0826 16.1147C12.052 16.1147 12.0421 16.1147 12.032 16.1248H12.0116C12.0014 16.135 12.0014 16.1248 12.0014 16.1248" fill="white"/>
<path d="M7.61328 16.9277L7.62314 16.9685C7.6537 16.9885 7.76542 17.0292 7.80616 17.0394C7.82621 17.0496 7.85709 17.0595 7.85709 17.0595C7.89751 17.0798 7.91788 17.09 7.92807 17.09H7.93825V17.0798L7.94844 17.0697L7.9583 17.0595L7.94844 17.0496C7.93825 17.0496 7.92807 17.0394 7.91788 17.0394C7.87714 17.0191 7.86728 16.9685 7.85709 16.9481V16.0438L7.84658 16.0234L7.61328 16.2571V16.3589L7.70463 16.2672L7.69444 16.5416L7.61328 16.5212V16.5922L7.68426 16.6129L7.6744 16.8462V16.8768C7.6744 16.8768 7.6744 16.887 7.66388 16.8972C7.66388 16.9175 7.64351 16.9277 7.61328 16.9277Z" fill="white"/>
<path d="M7.61273 16.3587V16.2568L7.26706 16.6229L7.20627 16.6837C7.17571 16.7244 7.13496 16.7244 7.07418 16.704H7.06432L7.0538 16.7142V16.7244L7.04395 16.7346V16.7448L7.06432 16.755L7.11492 16.7753L7.17571 16.7957L7.2572 16.8259L7.33836 16.8562H7.34822L7.36892 16.8361C7.36892 16.8361 7.35873 16.8158 7.34822 16.8158L7.32817 16.8056C7.28743 16.7855 7.27724 16.755 7.28743 16.7244L7.3078 16.6939L7.33836 16.6531L7.45008 16.5213L7.61273 16.592V16.5213L7.51087 16.4704" fill="white"/>
<path d="M7.61319 16.9678V16.927C7.603 16.927 7.59282 16.9172 7.58263 16.9067L7.57244 16.8965L7.56226 16.9067L7.55207 16.927V16.9372C7.54188 16.9372 7.55207 16.9474 7.56226 16.9474C7.57244 16.9474 7.59282 16.9576 7.62305 16.9678" fill="white"/>
</svg>
