<svg width="24" height="24" viewBox="0 0 24 24" fill="none" xmlns="http://www.w3.org/2000/svg">
<path d="M15.6806 8.76855C15.7029 8.79453 15.7159 8.81864 15.7224 8.83487C15.7465 8.89655 15.7488 8.94432 15.7567 8.9907C15.7729 9.08159 15.7905 9.09504 15.7794 9.16507C15.7585 9.30003 15.7335 9.28704 15.6927 9.36634C15.65 9.44797 15.624 9.53979 15.6166 9.56669C15.6157 9.57086 15.6185 9.57411 15.6231 9.57365C15.638 9.57225 15.6686 9.57596 15.6695 9.62188C15.6709 9.68263 15.6009 9.80182 15.5818 9.83521C15.5619 9.8686 15.5174 9.93863 15.4798 9.95996C15.4149 9.99845 15.3949 9.97573 15.3852 9.9952C15.3755 10.0147 15.311 10.1367 15.3013 10.17C15.2887 10.2122 15.2832 10.2633 15.2804 10.3008C15.2804 10.3078 15.2836 10.3129 15.2892 10.3152C15.42 10.3662 15.7604 10.4868 15.8425 10.6259L14.6914 11.0002C14.8523 10.9807 15.029 10.9589 15.1853 10.9413C15.4 10.9172 15.7465 10.8777 15.8587 10.8796C15.9686 10.8805 16.1054 10.9088 16.1458 10.9139C16.2807 10.9315 16.4004 10.9371 16.5469 10.9663C16.6925 10.9955 16.7329 11.0466 16.7607 11.066C16.7672 11.0702 16.7955 11.0939 16.7955 11.0939C16.9736 11.0813 17.2486 11.0632 17.3066 11.0586C17.3363 11.0568 17.397 11.0535 17.4091 11.0512C17.9633 10.9807 18.2666 10.7159 18.5314 10.5554C18.8235 10.376 19.2636 10.2313 19.5785 10.2224C19.9857 10.2113 20.2784 10.2804 20.4731 10.458C20.6679 10.6357 20.7444 10.8699 20.6656 11.2237C20.59 11.565 20.4806 11.7223 20.2297 11.879C19.9774 12.0353 19.7 12.0863 19.3712 12.0557C18.8245 12.0056 18.3357 11.6643 18.1423 11.553C17.9762 11.4574 17.7481 11.3559 17.4911 11.3336C17.4666 11.3308 17.3924 11.329 17.3404 11.3336C17.3228 11.3345 17.1141 11.3494 16.9824 11.3587C16.9977 11.4088 17.0005 11.4472 16.9996 11.457C16.9958 11.5233 16.9587 11.5553 16.9175 11.5507C16.8804 11.5451 16.7862 11.4751 16.7593 11.4171C16.7565 11.4115 16.7482 11.4088 16.7477 11.4185C16.7477 11.4292 16.7491 11.4398 16.7477 11.4496C16.7454 11.4676 16.7343 11.5238 16.6953 11.5349C16.6624 11.5442 16.6114 11.5358 16.5748 11.5061C16.5636 11.4978 16.5479 11.502 16.5432 11.515C16.5288 11.5553 16.521 11.5799 16.444 11.5646C16.3916 11.5595 16.4022 11.5803 16.3684 11.5859C16.2868 11.6017 16.2473 11.5585 16.1824 11.5279C16.117 11.4983 16.1384 11.4366 16.0739 11.425C16.0614 11.4236 16.04 11.4194 16.0275 11.4176C16.0595 11.5303 16.1003 11.6666 16.13 11.886C16.1309 11.8929 16.1268 11.8985 16.1203 11.8989L16.0549 11.9068C16.0484 11.9078 16.0437 11.9138 16.0447 11.9194C16.0614 12.0047 16.1022 12.1651 16.1119 12.2802C16.1277 12.4893 16.1249 12.551 16.111 12.6549C16.1101 12.6614 16.1166 12.6683 16.1235 12.6669C16.1439 12.6623 16.1806 12.6516 16.2 12.6368C16.201 12.5904 16.2195 12.5204 16.2237 12.5158C16.2302 12.5065 16.2381 12.4981 16.245 12.4898C16.2506 12.4838 16.2543 12.4763 16.2571 12.4689L16.2738 12.4091C16.2766 12.3998 16.2798 12.3915 16.2849 12.3831L16.3753 12.2203C16.3753 12.2203 16.3953 12.1753 16.4328 12.186C16.4328 12.186 16.4922 12.2185 16.4903 12.2806C16.489 12.3428 16.4472 12.4184 16.4472 12.4184L16.4862 12.4796C16.4862 12.4796 16.5548 12.5023 16.6225 12.4536C16.6225 12.4536 16.6411 12.4415 16.68 12.41C16.6633 12.3646 16.7028 12.3066 16.8127 12.3275C16.8507 12.3432 16.9578 12.4295 16.8238 12.5167C16.8187 12.5204 16.8219 12.5283 16.828 12.5283C16.9745 12.5195 16.956 12.6962 16.8567 12.7486C16.8474 12.7541 16.8456 12.7653 16.8512 12.7727C16.8665 12.7945 16.8887 12.8325 16.8845 12.8673C16.8845 12.8673 16.8855 12.9146 16.7431 12.9628C16.7431 12.9628 16.699 12.9804 16.7167 13.0129C16.7338 13.0189 16.7528 13.0259 16.7751 13.0319C16.7751 13.0319 16.904 13.0616 16.879 13.133C16.879 13.133 16.8581 13.1924 16.7352 13.153C16.7352 13.153 16.661 13.1576 16.6156 13.1492C16.5938 13.1567 16.4964 13.1873 16.3832 13.2068C16.3568 13.2114 16.335 13.2262 16.3174 13.2466C16.3164 13.2466 16.316 13.2466 16.316 13.2476C16.2371 13.338 15.996 13.4628 15.8879 13.4637C15.7683 13.466 15.7534 13.3728 15.6658 13.281C15.497 13.1038 15.4678 12.8826 15.4422 12.6632C15.4409 12.6475 15.4191 12.6475 15.4177 12.6632C15.3875 12.9202 15.3722 13.153 15.2294 13.28C15.1431 13.3579 15.0068 13.4178 14.7846 13.4706C13.9466 13.6691 13.0432 14.1844 13.1462 14.3017C13.1865 14.3481 13.2811 14.2553 13.4467 14.1793C14.0723 13.8913 14.8816 13.8338 15.1427 13.8546C15.1617 13.8569 15.1765 13.8713 15.1784 13.8903C15.1811 13.9219 15.1914 13.9785 15.2183 14.0758C15.241 14.1561 15.2674 14.2998 15.3527 14.3805C15.5086 14.5257 15.4872 14.5795 15.4506 14.7757C15.4265 14.9032 15.6013 15.0099 15.606 15.0145H17.41L17.6878 13.6761H19.5192C21.3914 13.6761 22.2229 12.8214 22.5397 11.1852C22.6881 10.4237 22.683 8.76855 20.2371 8.76855H15.6806ZM8.76176 8.76855L9.09103 10.3523H11.3662L11.1158 11.5678H12.8294L9.33033 12.2022L10.9855 12.1985L10.4058 15.014H12.1936C12.2186 14.9862 12.2479 14.9556 12.2822 14.9199C12.3615 14.8387 12.2993 14.6347 12.3146 14.5563C12.3346 14.4529 12.5122 14.3982 12.5405 14.298C12.5781 14.1607 12.3068 14.1834 12.4361 14.0387C12.5178 13.9483 12.6351 13.9803 12.6272 13.8903C12.6142 13.7456 12.7557 13.6473 12.815 13.6023C13.0738 13.4057 13.6554 13.0955 14.0078 12.993C14.3765 12.8854 13.8682 12.8951 13.4467 13.0495C13.065 13.1896 13.942 12.6396 14.6358 12.4657C15.1301 12.3423 14.2726 12.3173 13.4824 12.6646C13.2315 12.775 13.0919 12.8432 12.9913 12.9081C12.9871 12.9109 12.982 12.9067 12.9843 12.9021C13.0233 12.8223 13.1049 12.6846 13.0812 12.544C13.0655 12.4508 13.0757 12.3479 13.1132 12.2774C13.1434 12.2203 13.1253 12.0673 13.1587 11.9889C13.161 11.9834 13.1684 11.9801 13.1749 11.982L13.5988 12.1155L15.2581 11.5497L13.6781 11.7839L13.1299 11.316C13.0529 11.2334 12.9723 10.9102 13.0529 10.7901C13.1689 10.618 13.2867 10.4868 13.3377 10.4418C13.4124 10.3764 13.6405 10.3491 13.7532 10.2915C13.8339 10.2507 13.9049 10.2544 13.9693 10.2586C14.0046 10.26 14.0375 10.2628 14.0686 10.2568C14.1562 10.2391 14.3107 10.1849 14.3566 10.1677C14.3594 10.1663 14.3608 10.1645 14.3608 10.1617C14.3608 10.145 14.3575 10.081 14.3515 10.0527C14.3264 9.93677 14.313 9.82779 14.3199 9.74895C14.3301 9.65063 14.4159 9.56391 14.4201 9.49852C14.4243 9.43313 14.3765 9.36634 14.4127 9.30234C14.4466 9.24298 14.4554 9.19661 14.4943 9.07093C14.4841 8.99673 14.4373 8.97075 14.4711 8.8947C14.4888 8.85435 14.5203 8.79731 14.5337 8.76902H8.76176V8.76855ZM6.47031 8.76902L4.66118 11.5664L7.06161 11.5678L6.66695 11.4236L7.00967 10.8518L7.17198 11.6583L7.36537 12.558L1.20801 13.6738L3.29725 13.6756L2.43188 15.014H4.51648L5.31786 13.6756H7.59262L7.87041 15.014H9.7556L8.45058 8.76902H6.47031V8.76902ZM18.363 10.9144C18.1084 11.0521 17.9224 11.1096 17.8116 11.1337C17.7991 11.137 17.7791 11.1518 17.7791 11.1741C17.7791 11.1963 17.7926 11.2098 17.8037 11.2121C17.9118 11.2386 18.0769 11.2896 18.287 11.3976C18.3245 11.4171 18.3709 11.3874 18.3709 11.3387C18.3728 11.1815 18.4015 11.1092 18.4349 10.9835C18.4456 10.9427 18.4201 10.9088 18.3876 10.9088C18.3793 10.9088 18.3709 10.9107 18.3626 10.9153" fill="#5AA8DC"/>
</svg>
