<svg width="24" height="24" viewBox="0 0 24 24" fill="none" xmlns="http://www.w3.org/2000/svg">
<path d="M5.50125 8H2.692L1.04126 14.6681C0.862762 15.3786 1.28019 15.9597 1.96884 15.9597H6.27879C6.85827 15.9597 7.45527 15.4706 7.60551 14.873L9.30764 8L6.81656 8.00006L5.34238 13.3981C5.23903 13.7698 4.86661 14.0765 4.50482 14.0765C4.14315 14.0765 3.92362 13.7698 4.02709 13.3981L5.50125 8Z" fill="#C5000C"/>
<path d="M9.72001 10.9934L8.39388 15.9599H11.106L11.9071 12.8284H14.7929L15.3169 10.9934L9.72001 10.9934Z" fill="#C5000C"/>
<path d="M18.0452 8.01901H21.714C22.2507 8.01901 23.1617 8.47877 22.9753 9.20992L22.9018 9.49779H19.6279C19.4598 9.49779 19.2848 9.64197 19.2393 9.8181L18.2218 13.7577C18.1764 13.9339 18.2768 14.078 18.445 14.078H21.7337L21.4952 15.0129C21.3572 15.5545 20.813 16 20.2766 16H16.4034C15.7207 16 15.3013 15.4348 15.4715 14.7442L16.8999 8.94646C17.0256 8.4363 17.541 8.01901 18.0452 8.01901Z" fill="#C5000C"/>
<path d="M12.7277 9.92228H15.6066L16.126 8H10.536L10.0142 9.92757H12.7262L12.7277 9.92228Z" fill="#C5000C"/>
</svg>
