<svg width="24" height="24" viewBox="0 0 24 24" fill="none" xmlns="http://www.w3.org/2000/svg">
<g clip-path="url(#clip0_2021_26806)">
<path d="M7.52178 8.90225C7.20243 9.93723 7.08769 11.0103 7.18118 12.0944C7.27468 13.1784 7.57225 14.2167 8.06329 15.181C8.57214 16.1795 9.2688 17.0555 10.1339 17.7833C10.9991 18.511 11.9815 19.0474 13.0523 19.3778C14.0873 19.6972 15.161 19.8111 16.2444 19.7184C17.3277 19.6242 18.366 19.3281 19.3311 18.8363C20.3302 18.3266 21.2056 17.6308 21.9333 16.7656C22.6611 15.9005 23.1975 14.9181 23.5279 13.8473C23.8472 12.8123 23.9612 11.7386 23.8685 10.6552C23.7743 9.5719 23.4782 8.53354 22.9864 7.56852C22.4775 6.57005 21.7808 5.69402 20.9157 4.96625C20.0505 4.23848 19.0689 3.7013 17.9973 3.37172C16.9632 3.05304 15.8886 2.93843 14.8052 3.03112C13.722 3.12529 12.6836 3.42138 11.7186 3.91323C10.7201 4.42208 9.84408 5.11874 9.11631 5.98389C8.38855 6.84903 7.85284 7.83061 7.52178 8.90225Z" fill="#FB6E51"/>
<path opacity="0.1" d="M7.78133 8.18018C9.24247 8.36636 12.2582 8.95512 14.6745 10.7674C18.5368 13.6641 19.1983 16.9876 19.2055 18.8988C18.2762 19.3532 17.2809 19.6281 16.2444 19.7182C15.161 19.8109 14.0873 19.697 13.0523 19.3776C11.9815 19.0472 10.9991 18.5108 10.1339 17.7831C9.2688 17.0553 8.57214 16.1793 8.06329 15.1808C7.57225 14.2165 7.27468 13.1782 7.18118 12.0942C7.08769 11.0101 7.20243 9.93704 7.52179 8.90206C7.59761 8.6566 7.68418 8.41587 7.78133 8.18018Z" fill="#080808"/>
<path d="M14.4673 6.89242C13.6121 6.44389 12.735 6.08492 11.8603 5.8238C10.8468 5.52116 10.0746 5.42282 9.66755 5.38958C9.47501 5.5778 9.29075 5.77572 9.11554 5.98399C9.17735 6.03735 9.25748 6.07056 9.34594 6.07111C9.35559 6.07102 10.281 6.07664 11.6922 6.50175C12.4213 6.72118 13.3693 7.08222 14.4317 7.66816C13.4895 8.46785 12.4827 8.77682 11.3537 9.12383C10.0913 9.51056 8.66991 9.94816 7.15182 11.1772C7.14576 11.4429 7.15244 11.7098 7.17184 11.9778C7.24584 11.9744 7.31995 11.9465 7.3801 11.8945C8.87229 10.615 10.2373 10.1956 11.5583 9.79117C12.7902 9.41301 13.9634 9.05254 15.067 8.03982C15.6326 8.38703 16.2246 8.79883 16.8267 9.28479L9.87046 17.5542C9.95521 17.6323 10.0428 17.7087 10.1325 17.7842C10.2222 17.8596 10.3125 17.9328 10.404 18.003L17.3602 9.73359C17.9485 10.249 18.4589 10.7659 18.9012 11.2679C18.0916 12.5279 17.9341 13.7428 17.7699 15.0178C17.5936 16.3851 17.4109 17.7991 16.4065 19.4875C16.3656 19.5557 16.3507 19.6335 16.36 19.707C16.6274 19.6802 16.8915 19.6411 17.1523 19.5896C18.1034 17.885 18.2937 16.4132 18.4625 15.1066C18.6135 13.9368 18.748 12.894 19.3746 11.8303C20.1282 12.772 20.6428 13.6385 20.9828 14.3157C21.6433 15.6347 21.8073 16.5455 21.8096 16.5542C21.8244 16.6406 21.8701 16.7132 21.9324 16.7643C22.1076 16.556 22.2725 16.3404 22.425 16.1185C22.3231 15.7209 22.0927 14.9785 21.6211 14.0333C21.2148 13.2154 20.7094 12.4128 20.1211 11.647C20.0123 11.5049 19.8991 11.3646 19.7845 11.2244C19.8413 11.1504 19.9003 11.0769 19.9616 11.004C20.4691 10.4008 21.2363 10.1229 22.2416 10.1752C23.0327 10.2169 23.6752 10.4564 23.6814 10.4589C23.7374 10.48 23.7952 10.4862 23.8495 10.4785C23.8229 10.2305 23.7846 9.98487 23.7376 9.74152C23.465 9.65582 22.929 9.51408 22.2996 9.47847C21.0715 9.40979 20.0783 9.78075 19.428 10.5538C19.3909 10.5978 19.3552 10.6403 19.3204 10.6849C18.8553 10.1678 18.3503 9.67048 17.8096 9.1978L21.1768 5.19489C21.0913 5.11608 21.0037 5.03968 20.9148 4.96488C20.8259 4.89009 20.7348 4.81622 20.6433 4.7461L17.2761 8.74901C16.7226 8.3012 16.1516 7.89204 15.5672 7.52491C15.6029 7.48245 15.6396 7.44215 15.6759 7.39889C16.3262 6.62586 16.5199 5.58092 16.2365 4.3795C16.0912 3.76349 15.8559 3.25778 15.7247 3.00238C15.4768 2.99628 15.2284 3.0021 14.9786 3.01769C14.9812 3.07319 14.9971 3.12902 15.0276 3.18063C15.0311 3.18628 15.3811 3.78165 15.5608 4.55664C15.7892 5.54215 15.6484 6.34703 15.1416 6.94942C15.0803 7.02232 15.0187 7.09227 14.9562 7.16007C14.7937 7.0671 14.6306 6.97641 14.4665 6.89175L14.4673 6.89242Z" fill="#B14E44"/>
<path opacity="0.2" d="M20.0839 4.28538C19.1669 3.70903 18.1601 3.32047 17.0887 3.1302C16.0174 2.93994 14.9375 2.95865 13.879 3.18337C12.7828 3.41646 11.7563 3.86265 10.8294 4.50996C10.7333 4.57708 10.6393 4.64533 10.5479 4.71555C11.3968 4.17244 12.3237 3.792 13.3074 3.58255C14.3668 3.35722 15.4473 3.33937 16.5172 3.52938C17.5876 3.72025 18.5961 4.1076 19.5123 4.68455C20.4618 5.28169 21.2704 6.05379 21.9177 6.98068C22.565 7.90756 23.0121 8.93345 23.2452 10.0296C23.4705 11.089 23.4877 12.1687 23.2983 13.2394C23.1083 14.3092 22.7195 15.3175 22.1432 16.2346C21.6078 17.086 20.9323 17.8245 20.1292 18.4352C20.2275 18.373 20.3239 18.3081 20.4192 18.2416C21.3461 17.5943 22.1191 16.7851 22.7147 15.8354C23.2902 14.9189 23.679 13.9107 23.8699 12.8402C24.0593 11.7695 24.0421 10.6899 23.8167 9.63043C23.5837 8.53428 23.1375 7.50779 22.4902 6.5809C21.8428 5.65402 21.0334 4.88252 20.0839 4.28538Z" fill="white"/>
<path d="M10.6207 21.7234C11.7877 21.8429 13.0067 21.8056 14.1464 21.6174C16.334 21.2546 18.035 20.3783 18.482 19.3862C18.9277 18.3935 18.4542 16.5385 17.2741 14.6611C16.6593 13.6823 15.8773 12.7459 15.014 11.9531C14.0263 11.0463 12.9387 10.3228 11.7815 9.80159C10.6242 9.28039 9.36033 8.9471 8.02693 8.8108C6.86093 8.69101 5.6415 8.72734 4.50128 8.91686C2.31365 9.27963 0.611385 10.1553 0.165693 11.1481C-0.28092 12.1411 0.193096 13.9948 1.37327 15.8722C1.98807 16.851 2.76967 17.7865 3.63334 18.5802C4.62099 19.487 5.70863 20.2105 6.86587 20.7317C8.02403 21.2526 9.28664 21.5853 10.6204 21.7225L10.6207 21.7234Z" fill="#A3685B"/>
<path d="M5.71006 13.6412C5.7843 13.4761 5.97853 13.4024 6.14362 13.4767L12.7243 16.4362C12.8894 16.5104 12.9631 16.7047 12.8889 16.8697C12.8146 17.0348 12.6204 17.1086 12.4553 17.0343L5.87462 14.0748C5.70954 14.0005 5.63581 13.8063 5.71006 13.6412Z" fill="#774746"/>
<path d="M14.146 21.6161C13.5059 21.7222 12.8405 21.7809 12.1731 21.7899L16.0949 13.0695C16.531 13.5748 16.9286 14.1116 17.2743 14.6617C17.4006 14.8613 17.5185 15.0609 17.6276 15.2596L14.8276 21.4837C14.6062 21.533 14.3787 21.5773 14.146 21.6161Z" fill="#E8E8E8"/>
<path d="M11.6312 14.8659C11.4661 14.7917 11.2719 14.8654 11.1976 15.0305L10.3906 16.8249C10.3164 16.9899 10.3901 17.1842 10.5552 17.2584C10.7203 17.3327 10.9145 17.2589 10.9888 17.0939L11.7957 15.2995C11.87 15.1344 11.7963 14.9402 11.6312 14.8659Z" fill="#E8E8E8"/>
<path d="M8.59624 16.0179L9.40414 14.2231C9.47839 14.058 9.67262 13.9843 9.8377 14.0586C10.0028 14.1328 10.0765 14.327 10.0023 14.4921L9.19528 16.2865C9.12104 16.4516 8.92681 16.5253 8.76172 16.4511C8.59663 16.3768 8.52291 16.1826 8.59716 16.0175L8.59624 16.0179Z" fill="#E8E8E8"/>
<path d="M6.80093 15.2112L7.60757 13.4159C7.68181 13.2508 7.87604 13.1771 8.04113 13.2514C8.20622 13.3256 8.27994 13.5198 8.20569 13.6849L7.39871 15.4793C7.32446 15.6444 7.13023 15.7181 6.96515 15.6439C6.80006 15.5696 6.72633 15.3754 6.80058 15.2103L6.80093 15.2112Z" fill="#E8E8E8"/>
<path d="M6.47406 8.74268C5.80699 8.7526 5.14125 8.81047 4.50026 8.91686C4.26751 8.9557 4.03998 8.99994 3.81857 9.04923L1.01953 15.2731C1.12957 15.4714 1.24653 15.6713 1.37318 15.8718C1.7189 16.422 2.11701 16.9575 2.55221 17.4632L6.47406 8.74268Z" fill="#E8E8E8"/>
<path opacity="0.1" d="M10.6208 21.7232C11.7878 21.8426 13.0068 21.8053 14.1465 21.6171C16.3341 21.2543 18.0351 20.3781 18.4821 19.3859C18.5255 19.2894 18.5599 19.1858 18.5864 19.0725C17.9696 19.9448 16.3911 20.6914 14.4164 21.0186C13.2762 21.2081 12.0577 21.2441 10.8907 21.1247C9.557 20.9875 8.29311 20.6542 7.13622 20.1339C5.97806 19.613 4.89134 18.8892 3.90369 17.9824C3.04038 17.1896 2.25843 16.2531 1.64363 15.2743C0.578154 13.5799 0.0883698 11.9038 0.332664 10.8633C0.266085 10.957 0.210807 11.0528 0.167402 11.1493C-0.279211 12.1423 0.194805 13.996 1.37498 15.8734C1.98978 16.8522 2.77138 17.7877 3.63505 18.5815C4.6227 19.4882 5.71034 20.2117 6.86757 20.7329C8.02538 21.2529 9.28835 21.5865 10.6221 21.7237L10.6208 21.7232Z" fill="#080808"/>
</g>
<defs>
<clipPath id="clip0_2021_26806">
<rect width="24" height="24" fill="white"/>
</clipPath>
</defs>
</svg>
