<svg width="24" height="24" viewBox="0 0 24 24" fill="none" xmlns="http://www.w3.org/2000/svg">
<path d="M12 21C16.9706 21 21 16.9706 21 12C21 7.02944 16.9706 3 12 3C7.02944 3 3 7.02944 3 12C3 16.9706 7.02944 21 12 21Z" fill="#E8E8E8"/>
<path d="M11.9074 3.01312C11.9082 3.0103 11.9091 3.00749 11.9091 3.00468H11.908C12.1802 3.00243 12.4525 3.01368 12.7236 3.03505C12.748 3.83668 12.6687 4.63278 12.4932 5.40415C12.7709 5.36954 12.9701 5.27242 12.9743 5.2703C13.1768 5.16905 13.4221 5.25118 13.5233 5.45368C13.6246 5.65618 13.5425 5.90143 13.34 6.00268L13.3392 6.00303C13.3012 6.0214 12.8557 6.23668 12.2858 6.23668L12.2633 6.23657C12.0808 6.79667 11.8463 7.33911 11.5628 7.85591C11.5712 7.85396 11.5769 7.85241 11.5797 7.85162L11.5816 7.85106C11.7976 7.77906 12.0282 7.89494 12.0991 8.10981C12.1711 8.32469 12.0552 8.55531 11.8404 8.62731C11.8223 8.63406 11.6345 8.69369 11.3476 8.69369C11.2598 8.69369 11.1628 8.68804 11.0586 8.67345C10.7393 9.1364 10.3773 9.57223 9.9752 9.97405C9.66037 10.2891 9.32465 10.5796 8.97135 10.8442C9.01339 11.2483 8.9238 11.5287 8.91648 11.5512C8.85911 11.7222 8.69936 11.8313 8.52836 11.8313C8.48561 11.8313 8.44173 11.8246 8.39898 11.8099C8.22449 11.7518 8.11516 11.5875 8.11948 11.4124C7.61045 11.7132 7.07429 11.9655 6.51904 12.166C6.48345 12.6573 6.30548 13.0224 6.29071 13.0519C6.21871 13.1948 6.07471 13.2781 5.92396 13.2781L5.92508 13.2769C5.86321 13.2769 5.80133 13.2634 5.74283 13.2342C5.54146 13.1341 5.45933 12.8888 5.55833 12.6874C5.56438 12.6753 5.60975 12.5795 5.64859 12.4339C4.89146 12.6276 4.10821 12.7281 3.31745 12.7281C3.22295 12.7281 3.12958 12.7269 3.03508 12.7236C3.01258 12.4524 3.00245 12.1802 3.0047 11.9079C3.00751 11.9079 3.01033 11.9074 3.01314 11.9068C3.01595 11.9062 3.01876 11.9057 3.02158 11.9057C3.91125 11.9356 4.79351 11.8265 5.63717 11.5903C5.58292 11.4342 5.49168 11.2775 5.34683 11.1327C5.18708 10.9729 5.18708 10.7142 5.34683 10.5544C5.50658 10.3947 5.76533 10.3947 5.92508 10.5544C6.17398 10.8033 6.32806 11.0692 6.41768 11.3313C6.98456 11.1128 7.52813 10.8347 8.03794 10.5011C7.96153 10.3361 7.84279 10.1569 7.66098 9.97505C7.50123 9.8153 7.50123 9.55656 7.66098 9.39681C7.82073 9.23705 8.07948 9.23705 8.23923 9.39681C8.44632 9.60389 8.59823 9.81256 8.70865 10.0142C8.94823 9.82186 9.1781 9.61592 9.39695 9.39693C9.71016 9.08351 9.99677 8.74755 10.2553 8.39292C10.0686 8.28505 9.87657 8.14101 9.68598 7.95006C9.52622 7.79031 9.52622 7.53156 9.68598 7.37181C9.84573 7.21206 10.1045 7.21206 10.2642 7.37181C10.4156 7.52322 10.5655 7.6308 10.7069 7.7066C11.0141 7.1872 11.2661 6.63688 11.4586 6.0658C11.2496 5.97247 11.041 5.83433 10.8436 5.63593C10.6838 5.47618 10.6838 5.21743 10.8436 5.05768C11.0033 4.89793 11.2621 4.89793 11.4218 5.05768C11.5071 5.14277 11.5964 5.20934 11.6873 5.26076C11.8566 4.53251 11.9319 3.77967 11.9057 3.02155C11.9057 3.01874 11.9065 3.01593 11.9074 3.01312Z" fill="#EC5564"/>
<path d="M16.1443 12.4369C16.6613 12.1535 17.2039 11.919 17.7642 11.7365C17.7584 11.1512 17.982 10.6923 17.9986 10.6591C18.0998 10.4577 18.3451 10.3756 18.5476 10.4757C18.749 10.5769 18.8311 10.8211 18.731 11.0236C18.7211 11.0438 18.6293 11.2393 18.5959 11.507C19.3672 11.3316 20.1634 11.2523 20.9652 11.2767L20.9663 11.2756C20.9888 11.5478 20.999 11.8189 20.9967 12.0912C20.9949 12.0912 20.9931 12.0915 20.9914 12.092L20.9883 12.0929C20.9855 12.0937 20.9827 12.0946 20.9798 12.0946C20.222 12.0691 19.4688 12.1447 18.74 12.3141C18.7913 12.4045 18.8577 12.4934 18.9425 12.5783C19.1022 12.7381 19.1022 12.9968 18.9425 13.1566C18.8626 13.2364 18.758 13.2769 18.6533 13.2769C18.5487 13.2769 18.4441 13.2364 18.3642 13.1566C18.1667 12.9591 18.0289 12.7509 17.9357 12.5424C17.3641 12.7349 16.8133 12.9867 16.2935 13.2941C16.3694 13.4351 16.477 13.5846 16.6283 13.7359C16.7881 13.8957 16.7881 14.1544 16.6283 14.3142C16.5485 14.3941 16.4438 14.4346 16.3392 14.4346C16.2346 14.4346 16.13 14.3941 16.0501 14.3142C15.8595 14.1236 15.7156 13.9317 15.6079 13.7451C15.2533 14.0035 14.9176 14.29 14.6045 14.6033C14.3858 14.8221 14.1801 15.0519 13.9879 15.2914C14.189 15.4018 14.3969 15.5534 14.6033 15.7598C14.7631 15.9196 14.7631 16.1783 14.6033 16.3381C14.5235 16.4179 14.4188 16.4584 14.3142 16.4584C14.2096 16.4584 14.105 16.4179 14.0251 16.3381C13.8442 16.1571 13.6654 16.0388 13.5007 15.9625C13.1674 16.4717 12.8894 17.0145 12.6708 17.5806C12.9329 17.6701 13.1989 17.8241 13.448 18.0728C13.6077 18.2326 13.6077 18.4913 13.448 18.6511C13.3681 18.7309 13.2635 18.7714 13.1588 18.7714L13.1577 18.7726C13.0531 18.7726 12.9485 18.7321 12.8686 18.6522C12.7237 18.5076 12.567 18.4165 12.4108 18.3623C12.1741 19.2063 12.065 20.0889 12.0957 20.9787C12.0957 20.9815 12.0949 20.9843 12.094 20.9871C12.0932 20.9899 12.0923 20.9928 12.0923 20.9956C11.8201 20.9978 11.5478 20.9866 11.2767 20.9652C11.2497 20.0783 11.3497 19.1982 11.5664 18.3507C11.415 18.391 11.3186 18.4381 11.3161 18.4396C11.1136 18.5408 10.8683 18.4587 10.7671 18.2562C10.6658 18.0537 10.748 17.8084 10.9505 17.7072C10.98 17.6924 11.3442 17.5152 11.8346 17.4794C12.035 16.9245 12.2872 16.3887 12.5878 15.88C12.4129 15.8842 12.2489 15.7742 12.1902 15.6001C12.1182 15.3852 12.2341 15.1546 12.449 15.0826C12.4715 15.0747 12.7521 14.985 13.1566 15.0273C13.4207 14.6747 13.7107 14.3395 14.0251 14.0251C14.4273 13.6226 14.8635 13.2603 15.327 12.9408C15.2649 12.4972 15.3651 12.1837 15.3728 12.1598C15.4437 11.9461 15.6755 11.8291 15.8903 11.9011C16.103 11.9719 16.2188 12.2003 16.1502 12.4141C16.1492 12.4173 16.147 12.425 16.1443 12.4369Z" fill="#EC5564"/>
<path opacity="0.49" d="M18.3642 5.63575C17.1875 4.459 15.7643 3.68612 14.2613 3.29688C15.3065 3.73562 16.2863 4.37575 17.1368 5.22625C20.6514 8.74075 20.6514 14.4389 17.1368 17.9545C14.7991 20.2922 11.4972 21.0662 8.51147 20.2934C11.783 21.6681 15.7002 21.028 18.3642 18.364C21.8787 14.8495 21.8787 9.15025 18.3642 5.63575Z" fill="white"/>
</svg>
