<svg xmlns="http://www.w3.org/2000/svg" xmlns:xlink="http://www.w3.org/1999/xlink" width="50" height="50" viewBox="0 0 50 50"><defs><linearGradient id="b" x1="50%" x2="50%" y1="0%" y2="100%"><stop offset="0%" stop-color="#FFF"/><stop offset="100%" stop-color="#E4E4E4"/></linearGradient><circle id="a" cx="25" cy="25" r="25"/><path id="d" d="M42.678 42.678c9.763-9.763 9.763-25.593 0-35.356 7.406 21.805-11.266 42.926-35.356 35.356 9.763 9.763 25.593 9.763 35.356 0Z"/></defs><g fill="none" fill-rule="evenodd"><mask id="c" fill="#fff"><use xlink:href="#a"/></mask><use xlink:href="#a" fill="url(#b)"/><g fill="#EC5A53" fill-rule="nonzero" mask="url(#c)"><g transform="translate(5.913 5.397)"><path d="m35.976 0 2.291 2.32-.385.414c-.165.188-.365.425-.593.71-.776.967-1.555 2.102-2.283 3.39-5.003 8.848-5.003 19.208 3.428 30.65l-2.625 1.934c-9.243-12.544-9.243-24.282-3.642-34.19 1.407-2.487 2.825-4.257 3.81-5.228Zm-33.518 0-2.29 2.32c.177.176.521.554.977 1.123.776.968 1.555 2.103 2.283 3.39 5.003 8.849 5.003 19.209-3.428 30.651l2.625 1.934c9.244-12.544 9.244-24.282 3.642-34.19-1.407-2.487-2.825-4.257-3.809-5.228Z"/><path d="m29.45 8.08 5.332 2.082c.839.328 1.253 1.274.926 2.112-.328.839-1.273 1.253-2.112.926l-5.333-2.083c-.839-.328-1.253-1.273-.926-2.112.328-.839 1.274-1.253 2.112-.925Zm4.644 11.702c.019.9-.696 1.645-1.596 1.664l-5.238.107c-.9.019-1.645-.696-1.663-1.596-.019-.9.696-1.645 1.596-1.664l5.238-.108c.825-.017 1.52.583 1.644 1.376l.02.22Zm.931 6.923c.565.7.455 1.727-.246 2.292l-4.093 3.3c-.701.564-1.727.454-2.293-.247-.565-.701-.454-1.728.247-2.293l4.093-3.299c.7-.565 1.727-.454 2.292.247Zm-26.04-18.625-5.333 2.082c-.839.328-1.253 1.274-.926 2.112.328.839 1.274 1.253 2.112.926l5.333-2.083c.839-.328 1.253-1.273.926-2.112-.328-.839-1.273-1.253-2.112-.925Zm-4.645 11.702c-.019.9.696 1.645 1.596 1.664l5.238.107c.9.019 1.645-.696 1.663-1.596.019-.9-.696-1.645-1.596-1.664l-5.237-.108c-.826-.017-1.52.583-1.645 1.376l-.02.22Zm-.931 6.923c-.565.7-.455 1.727.246 2.292l4.093 3.3c.701.564 1.728.454 2.293-.247.565-.701.455-1.728-.246-2.293l-4.093-3.299c-.701-.565-1.728-.454-2.293.247Z"/></g></g><use xlink:href="#d" fill="#000" opacity=".288"/></g></svg>