<svg width="24" height="24" viewBox="0 0 24 24" fill="none" xmlns="http://www.w3.org/2000/svg">
<path d="M8.49675 3.70762C7.42462 4.161 6.46275 4.809 5.63587 5.63587C4.809 6.46275 4.161 7.42575 3.70762 8.49675C3.2385 9.606 3 10.785 3 12C3 13.215 3.2385 14.394 3.70762 15.5032C4.161 16.5754 4.81012 17.5373 5.63587 18.3641C6.46275 19.1899 7.42462 19.839 8.49675 20.2924C9.60712 20.7615 10.785 21 12 21C13.215 21 14.394 20.7615 15.5032 20.2924C16.5754 19.839 17.5373 19.1899 18.3641 18.3641C19.1899 17.5373 19.839 16.5754 20.2924 15.5032C20.7615 14.394 21 13.215 21 12C21 10.785 20.7626 9.606 20.2924 8.49675C19.839 7.42575 19.1899 6.46275 18.3641 5.63587C17.5373 4.81012 16.5754 4.161 15.5032 3.70762C14.394 3.2385 13.215 3 12 3C10.785 3 9.60712 3.2385 8.49675 3.70762Z" fill="#FB6E51"/>
<path d="M14.9565 8.02987C14.7338 7.01625 14.4221 6.0465 14.0318 5.1465C13.5795 4.10362 13.1261 3.4005 12.8719 3.04275C12.5839 3.01462 12.2936 3 12.0011 3C12 3.08775 12.0281 3.17663 12.0889 3.24975C12.0956 3.25762 12.7313 4.02262 13.3579 5.47725C13.6819 6.22875 14.0408 7.25813 14.2939 8.53725C12.9844 8.31562 12.0338 7.70137 10.9673 7.01287C9.77588 6.24225 8.43263 5.376 6.37163 4.97775C6.14888 5.15662 5.934 5.34675 5.727 5.54812C5.781 5.60662 5.85525 5.64825 5.93963 5.66175C8.02425 6.00375 9.3135 6.83625 10.56 7.64287C11.7233 8.39437 12.8314 9.10988 14.4278 9.31688C14.5335 10.0222 14.6044 10.794 14.6213 11.6254H3.00788C3.00225 11.7491 3 11.874 3 12C3 12.126 3.00225 12.2509 3.00788 12.3746H14.6213C14.6044 13.215 14.5324 13.9924 14.4255 14.7034C12.8291 14.9092 11.721 15.6202 10.5589 16.3672C9.31238 17.1682 8.02313 17.9962 5.93963 18.3382C5.85525 18.3517 5.781 18.3934 5.727 18.4519C5.934 18.6533 6.14888 18.8434 6.37163 19.0222C8.4315 18.6251 9.77363 17.7634 10.965 16.9984C12.0315 16.3132 12.9821 15.7024 14.2905 15.4819C14.0374 16.7531 13.6808 17.7758 13.359 18.5239C12.7313 19.9796 12.0956 20.7446 12.09 20.7525C12.0293 20.8245 12.0011 20.9123 12.0022 20.9989C12.2947 20.9989 12.5861 20.9854 12.8741 20.9572C13.1306 20.5984 13.5818 19.8952 14.0329 18.8535C14.4244 17.9535 14.7349 16.9826 14.9576 15.969C14.9993 15.7811 15.0364 15.591 15.0724 15.3997C15.1725 15.3952 15.2738 15.393 15.3761 15.393C16.2233 15.393 16.9826 15.8318 17.6351 16.6946C18.1481 17.3741 18.3956 18.0682 18.3979 18.075C18.4193 18.1357 18.4541 18.1875 18.498 18.2269C18.6836 18.0334 18.8591 17.832 19.0268 17.625C18.9086 17.3415 18.6544 16.8026 18.2482 16.2604C17.4551 15.2029 16.4629 14.6426 15.3773 14.6426C15.3154 14.6426 15.2558 14.6426 15.195 14.6449C15.2985 13.9046 15.3581 13.1452 15.3728 12.3735H20.9944C21 12.2486 21.0023 12.1237 21.0023 11.9989C21.0023 11.874 21 11.748 20.9944 11.6243H15.3728C15.3581 10.8593 15.2996 10.1066 15.1973 9.372C15.2569 9.372 15.3154 9.37425 15.3761 9.37425C16.4618 9.37425 17.4551 8.81062 18.2471 7.74637C18.6533 7.20075 18.9064 6.65737 19.0256 6.37275C18.8591 6.16462 18.6825 5.96438 18.4969 5.76975C18.453 5.81025 18.4181 5.862 18.3968 5.92275C18.3945 5.9295 18.147 6.62925 17.634 7.31325C16.9815 8.18287 16.2221 8.62388 15.3761 8.62388C15.2738 8.62388 15.1736 8.62162 15.0746 8.61712C15.0386 8.41912 15.0004 8.22225 14.9565 8.02875V8.02987Z" fill="#B14E44"/>
<path opacity="0.2" d="M8.49675 3.70762C7.42462 4.161 6.46275 4.809 5.63587 5.63587C4.809 6.46275 4.161 7.42575 3.70762 8.49675C3.2385 9.606 3 10.785 3 12C3 12.126 3.00225 12.2509 3.00788 12.3746C3.05175 11.2924 3.28687 10.2416 3.70762 9.246C4.161 8.17387 4.81012 7.21087 5.63587 6.38512C6.46275 5.55937 7.42462 4.90912 8.49675 4.45687C9.60712 3.98775 10.785 3.75037 12 3.75037C13.215 3.75037 14.394 3.98775 15.5032 4.45687C16.5754 4.91025 17.5373 5.55937 18.3641 6.38512C19.1899 7.21087 19.839 8.17387 20.2924 9.246C20.7131 10.2416 20.9482 11.2913 20.9921 12.3746C20.9977 12.2498 21 12.1249 21 12C21 10.785 20.7626 9.606 20.2924 8.49675C19.839 7.42575 19.1899 6.46275 18.3641 5.63587C17.5373 4.81012 16.5754 4.161 15.5032 3.70762C14.394 3.2385 13.215 3 12 3C10.785 3 9.60712 3.2385 8.49675 3.70762Z" fill="white"/>
</svg>
