<svg xmlns="http://www.w3.org/2000/svg" width="50" height="50" viewBox="0 0 50 50"><g fill="none" fill-rule="evenodd"><path fill="#F0AD7A" d="m41.372 43.96-.084.073c-3.993 3.421-9.076 5.608-14.656 5.967l0-18.486c3.329-.086 6.656-.436 9.98-1.05.507 4.52 2.098 9.02 4.76 13.495Zm-18.006-12.446 0 18.486c-5.62-.362-10.734-2.577-14.74-6.04 2.664-4.475 4.255-8.975 4.762-13.495 3.324.613 6.65.963 9.978 1.05Zm-23.367-4.945c3.391 1.348 6.784 2.422 10.18 3.222-.39 3.913-1.702 7.846-3.946 11.802-3.57-4.035-5.859-9.229-6.23-14.946l-.004-.078Zm50.001-.002c-.355 5.748-2.647 10.971-6.232 15.025-2.245-3.956-3.557-7.889-3.948-11.802 3.35-.788 6.696-1.844 10.04-3.166l.14-.057Zm-23.368-26.567c6.519.42 12.358 3.332 16.575 7.795-4.473 6.41-6.743 12.873-6.772 19.376-3.269.628-6.536.985-9.802 1.074l0-28.245Zm-3.267 0 0 28.245c-3.265-.089-6.532-.446-9.8-1.072-.029-6.505-2.299-12.968-6.771-19.379 4.215-4.462 10.054-7.374 16.571-7.794Zm-18.731 10.412c3.601 5.388 5.477 10.733 5.656 16.044-3.42-.841-6.84-1.976-10.265-3.405.36-4.677 2.004-8.994 4.58-12.6Zm45.34 12.637c-3.424 1.43-6.845 2.565-10.263 3.407.178-5.311 2.054-10.656 5.655-16.043 2.592 3.613 4.246 7.944 4.608 12.636Z"/><path fill="#000" d="m32.697 33.484-.165.141c-4.218 3.585-9.344 5.545-14.555 5.88l0-7.313c4.297-1.541 8.015-4.116 10.919-7.406.817 2.909 2.086 5.808 3.8 8.698Zm-32.272-.75c5.101 1.327 9.93 1.37 14.285.402l0 6.366c-5.277-.348-10.464-2.36-14.707-6.04l.294-.505Zm40.888-16.598c-.339 5.385-2.412 10.68-6.22 14.98l.019.032c-1.857-3.271-3.075-6.528-3.662-9.77.5-.789.96-1.605 1.376-2.446 2.794-.73 5.587-1.648 8.378-2.752Zm-4.622-16.138c2.72 3.788 4.253 8.167 4.597 12.62l.03-.012c-2.316.967-4.631 1.8-6.945 2.497 1.277-4.008 1.664-8.41.967-12.941.322-.557.665-1.114 1.026-1.671Zm-2.65-3.12c.166.167.329.335.49.504l-.222.324c-.085-.276-.175-.551-.269-.827Z" opacity=".302" transform="translate(8.656 10.444)"/></g></svg>