<svg width="24" height="24" viewBox="0 0 24 24" fill="none" xmlns="http://www.w3.org/2000/svg">
<path d="M20.3846 6.68954C20.4079 6.63628 20.9327 5.366 19.5337 3.96591C18.1347 2.56693 16.8645 3.09279 16.8101 3.11498C16.7679 3.13273 16.7291 3.15936 16.6969 3.19153L7.15591 12.7348C7.05052 12.8402 7.01945 12.9988 7.07825 13.1364C7.0838 13.1508 7.66735 14.5176 7.65182 15.444C7.65071 15.5405 7.68732 15.6337 7.75389 15.7036C7.755 15.7036 7.75611 15.7058 7.75833 15.708C7.82489 15.7746 7.91586 15.8123 8.01017 15.8145C8.97314 15.8289 10.3488 16.4158 10.3632 16.4225C10.5008 16.4813 10.6595 16.4513 10.7649 16.3448L20.3081 6.8027C20.3403 6.77052 20.3669 6.73169 20.3846 6.68954Z" fill="#FFD1A5"/>
<path d="M9.2183 15.314L8.18654 14.2823C8.11776 14.2135 8.02567 14.1758 7.92916 14.1758C7.83264 14.1758 7.73944 14.2146 7.67066 14.2823L3.1065 18.8464C3.03772 18.9152 3 19.0073 3 19.1038C3 19.2003 3.03883 19.2935 3.1065 19.3623L4.13827 20.3941C4.28027 20.5372 4.51103 20.5372 4.65415 20.3941L9.2183 15.8299C9.36142 15.6868 9.36142 15.4561 9.2183 15.314V15.314Z" fill="#A75D5D"/>
<path d="M11.7968 11.7019C11.6537 11.5588 11.6537 11.328 11.7968 11.186L19.018 3.96588C19.16 3.82387 19.3908 3.82387 19.5339 3.96588C19.677 4.10789 19.677 4.33864 19.5339 4.48176L12.3127 11.7019C12.1696 11.8439 11.9388 11.8439 11.7968 11.7019Z" fill="#EC5564"/>
<path d="M9.28327 15.7424L10.4681 13.5258C10.5436 13.3838 10.5181 13.2096 10.4038 13.0953C10.2906 12.981 10.1153 12.9555 9.97443 13.0321L7.75781 14.2169L9.28327 15.7413V15.7424Z" fill="#A75D5D"/>
<path d="M3.63672 18.3169H6.73089L7.46089 17.587H4.36561L3.63672 18.3169Z" fill="#7F4545"/>
<path d="M5.09672 16.8558C5.1067 16.8558 5.11669 16.857 5.12667 16.857H8.18978L8.91978 16.127H5.8245L5.09672 16.8547V16.8558Z" fill="#7F4545"/>
<path d="M19.0505 16.8574C19.0505 16.2728 18.8231 15.7236 18.4092 15.3098C17.5561 14.4566 16.1682 14.4566 15.3151 15.3098C14.9013 15.7225 14.6738 16.2728 14.6738 16.8574C14.6738 17.4421 14.9013 17.9912 15.3151 18.4051C16.1682 19.2582 17.5561 19.2582 18.4092 18.4051C18.8231 17.9912 19.0505 17.4421 19.0505 16.8574V16.8574Z" fill="#EC5564"/>
<path d="M17.6353 16.0848C17.4922 15.9417 17.4922 15.711 17.6353 15.569L17.8927 15.3105C18.0358 15.1673 18.2665 15.1673 18.4085 15.3105C18.5517 15.4536 18.5517 15.6843 18.4085 15.8263L18.15 16.0848C18.008 16.2268 17.7773 16.2268 17.6342 16.0848H17.6353Z" fill="#E5E8EC"/>
<path d="M16.3983 17.3218C16.2552 17.1787 16.2552 16.9491 16.3983 16.806L16.811 16.3933C16.9541 16.2501 17.1849 16.2501 17.3269 16.3933C17.47 16.5364 17.47 16.7671 17.3269 16.9091L16.9142 17.3218C16.771 17.465 16.5403 17.465 16.3983 17.3218Z" fill="#E5E8EC"/>
<path d="M15.3144 17.8888C15.1713 18.0319 15.1713 18.2615 15.3144 18.4047V18.4035C15.4564 18.5467 15.6871 18.5467 15.8302 18.4035L16.0887 18.1462C16.2307 18.0042 16.2307 17.7734 16.0887 17.6303C15.9467 17.4883 15.7149 17.4883 15.5729 17.6303L15.3144 17.8888Z" fill="#E5E8EC"/>
</svg>
