<svg xmlns="http://www.w3.org/2000/svg" width="50" height="50" viewBox="0 0 50 50"><g fill="none" fill-rule="evenodd"><path fill="#d57566" d="M.075 37.87c3.765 4.914 7.487 8.84 11.368 12.098-5.382.187-9.439-.479-10.24-1.336C.46 47.835-.115 44.177.02 39.27zm1.427-10.077C8.163 37.511 14.5 43.901 21.596 48.686c-2.376.525-4.721.87-6.929 1.075C9.737 45.939 5.11 41.11.345 34.579c.22-2.014.557-4.127 1.036-6.266zM24.291 2.387c7.404 10.854 14.397 17.586 22.462 22.556l.896.54c-1.609 5.352-4.239 10.587-8.285 14.495-4.075 3.936-9.443 6.456-14.866 7.984l-.302-.187c-7.564-4.81-14.185-11.324-21.26-21.76l-.692-1.032c1.62-5.477 4.257-10.847 8.351-14.802 3.72-3.593 8.407-6.044 13.204-7.638zm-9.085 22.597a1.64 1.64 0 0 0-2.733 1.808c.676 1.13 1.627 2.363 2.855 3.71a17 17 0 0 0 4.314 3.44l.134.068a1.64 1.64 0 0 0 1.463-2.932 13.8 13.8 0 0 1-3.487-2.785c-1.09-1.197-1.912-2.262-2.464-3.184Zm6.049-6.295a1.64 1.64 0 0 0-2.734 1.807c.676 1.13 1.628 2.364 2.856 3.711a17 17 0 0 0 4.314 3.44l.134.067a1.64 1.64 0 0 0 1.463-2.931 13.8 13.8 0 0 1-3.487-2.786c-1.091-1.196-1.913-2.261-2.464-3.184ZM31.632.65C37.42 8.615 43.04 14.154 49.219 18.424a52 52 0 0 1-.968 4.87c-7.808-4.74-14.566-11.143-21.754-21.556A51 51 0 0 1 31.304.7zm-4.47 12.525a1.64 1.64 0 0 0-2.733 1.808c.675 1.13 1.627 2.364 2.855 3.711a17 17 0 0 0 4.314 3.44l.134.067a1.64 1.64 0 0 0 1.463-2.932 13.8 13.8 0 0 1-3.487-2.785c-1.091-1.196-1.913-2.261-2.464-3.184ZM48.18 1.586c1.27 1.258 2.098 7.204 1.352 14.38C44.161 12.102 39.2 7.173 34.1.314c7.022-.787 12.8 0 14.081 1.271"/><path fill="#000" d="m11.441 49.967-.27.009c-2.736.082-5.115-.058-6.877-.33a19.088 19.088 0 0 1-.621-.106 14 14 0 0 1-.776-.168 9 9 0 0 1-.664-.192 6 6 0 0 1-.467-.182 3 3 0 0 1-.244-.125l.068.038a2 2 0 0 1-.118-.067l.05.029a2 2 0 0 1-.083-.05l.033.02a2 2 0 0 1-.091-.06l.058.04a2 2 0 0 1-.096-.067l.038.027a1 1 0 0 1-.084-.064l.046.037a1 1 0 0 1-.074-.06l-.066-.064a70 70 0 0 0 7.639-.973 63 63 0 0 0 2.599 2.308m10.155-1.28a55 55 0 0 1-3.55.66l.053-.008c-.286.044-.57.085-.854.124l.801-.116c-.303.046-.605.09-.905.13l.104-.014c-.285.04-.57.077-.852.112l.748-.097c-.288.039-.573.076-.857.11l.109-.013a58 58 0 0 1-1.009.115l-.717.07a61 61 0 0 1-3.184-2.648 58 58 0 0 0 5.775-1.634 62 62 0 0 0 4.338 3.208m25.157-23.744.896.54-.015.05a45 45 0 0 1-.836 2.502l.133-.366a42 42 0 0 1-.625 1.639l.085-.213c-.042.106-.085.212-.128.318l.043-.105c-.067.163-.135.327-.203.49l.16-.385c-.069.167-.138.333-.209.499l.049-.114a36.785 36.785 0 0 1-1.765 3.623l.131-.237c-.077.14-.155.28-.234.42l.102-.183a33 33 0 0 1-1.273 2.085c-.233.35-.473.695-.72 1.034l.231-.321a29 29 0 0 1-1.01 1.339l.107-.134c-.114.144-.23.287-.346.429l.24-.295c-.115.143-.232.285-.35.426l.11-.131c-.113.136-.227.272-.342.406l.232-.275c-.122.146-.245.291-.37.434l.138-.159c-.11.128-.221.254-.333.38l.195-.22a26 26 0 0 1-1.482 1.559l-.395.373c-.136.126-.273.25-.412.373l.26-.234a26 26 0 0 1-.442.394l.182-.16c-.136.12-.273.24-.411.357l.229-.197c-.135.117-.27.233-.407.347l.178-.15a27 27 0 0 1-.446.37l.268-.22c-.142.118-.284.235-.428.35l.16-.13c-.155.127-.31.25-.468.373l.308-.243a28 28 0 0 1-1.459 1.092c-.465.326-.94.64-1.424.94l.135-.085c-.146.091-.292.181-.438.27l.303-.186c-.162.1-.325.2-.49.298l.187-.112c-.171.104-.344.205-.517.306l.33-.194c-.155.092-.31.184-.468.274l.138-.08a33 33 0 0 1-1.237.683c-.342.18-.687.354-1.035.523l.126-.061c-.15.073-.3.146-.45.217l.324-.156c-.195.095-.39.187-.586.278l.261-.122c-.156.074-.313.147-.47.219l.21-.097c-.165.076-.33.151-.495.225l.284-.128c-.165.075-.33.15-.497.222l.213-.094a41.578 41.578 0 0 1-2.775 1.118l.264-.096a44 44 0 0 1-.587.212l.323-.115c-.153.055-.307.11-.461.164l.138-.049c-.197.07-.395.138-.593.205l.455-.156a45 45 0 0 1-.55.188l.095-.032c-.157.053-.315.106-.473.157l.379-.125c-.183.061-.367.121-.55.18l.171-.055a47 47 0 0 1-1.825.553l-.3-.187a60 60 0 0 1-4.531-3.181c10.513-4.146 18.916-11.365 23.812-21.812a63 63 0 0 0 3.276 2.16m2.466-6.519a53 53 0 0 1-.75 3.961l.149-.666c-.059.27-.12.54-.183.81l.034-.144c-.066.287-.135.574-.206.861l.172-.716c-.059.255-.12.51-.184.765a61 61 0 0 1-3.878-2.56c.615-1.5 1.16-3.063 1.634-4.689a62 62 0 0 0 3.212 2.378M48.18 1.586c.051.05.102.11.151.175.036.047.071.098.106.152.11.173.216.383.316.628.11.268.213.576.31.922.115.414.22.883.312 1.4a21 21 0 0 1 .152.984 29 29 0 0 1 .199 2.025 39 39 0 0 1 .086 2.31c.012 1.15-.02 2.377-.101 3.659-.044.679-.101 1.373-.174 2.08l.034-.346c-.012.13-.025.26-.039.39a59 59 0 0 1-2.913-2.234c.9-3.738 1.434-7.785 1.561-12.145" opacity=".302"/><path fill="#fff" d="M1.502 27.793C8.163 37.511 14.5 43.901 21.596 48.686c-2.376.525-4.721.87-6.929 1.075C9.737 45.939 5.11 41.11.345 34.579c.22-2.014.557-4.127 1.036-6.266zM31.632.65c5.617 7.728 11.074 13.172 17.038 17.39l.54.422.01-.038a52 52 0 0 1-.97 4.87c-7.108-4.316-13.347-10.01-19.833-18.856a88 88 0 0 1-1.88-2.709l-.04.009A51 51 0 0 1 31.304.7z"/></g></svg>