<svg width="24" height="24" viewBox="0 0 24 24" fill="none" xmlns="http://www.w3.org/2000/svg">
<path d="M19.4284 13.2332C20.0295 12.0343 20.4844 10.716 20.7455 9.42136C21.2454 6.93565 20.9988 4.76178 20.1196 3.88142C19.2393 3.00219 17.0643 2.75565 14.5785 3.25549C13.2828 3.51555 11.9645 3.97149 10.7667 4.57265C9.39661 5.2605 8.1819 6.12959 7.15519 7.15517C6.12849 8.18075 5.25939 9.39659 4.57267 10.7667C3.9715 11.9645 3.51557 13.2828 3.25551 14.5785C2.75567 17.0642 3.00109 19.2392 3.88144 20.1185C4.7618 20.9988 6.93567 21.2442 9.42138 20.7444C10.7171 20.4843 12.0343 20.0284 13.2332 19.4272C14.6033 18.7394 15.818 17.8703 16.8447 16.8447C17.8714 15.818 18.7394 14.6033 19.4273 13.2332H19.4284Z" fill="#A3685B"/>
<path d="M8.79653 15.2033C8.65018 15.0569 8.65018 14.8194 8.79653 14.673L14.6303 8.83926C14.7766 8.6929 15.0142 8.6929 15.1605 8.83926C15.3069 8.98561 15.3069 9.22314 15.1605 9.3695L9.32677 15.2033C9.18042 15.3496 8.94288 15.3496 8.79653 15.2033Z" fill="#774746"/>
<path d="M20.7444 9.42156C20.598 10.1488 20.3909 10.8839 20.1297 11.6011L12.399 3.87037C13.1161 3.60919 13.8513 3.40205 14.5796 3.2557C14.8442 3.20166 15.1054 3.15663 15.362 3.12061L20.8795 8.63915C20.8423 8.89583 20.7973 9.15701 20.7444 9.42156Z" fill="#E8E8E8"/>
<path d="M12.5082 9.3709C12.3618 9.51725 12.3618 9.75479 12.5082 9.90114L14.0989 11.4919C14.2453 11.6382 14.4828 11.6382 14.6292 11.4919C14.7755 11.3455 14.7755 11.108 14.6292 10.9616L13.0384 9.3709C12.8921 9.22455 12.6546 9.22455 12.5082 9.3709Z" fill="#E8E8E8"/>
<path d="M12.5082 13.0826L10.9175 11.4907C10.7711 11.3444 10.7711 11.1069 10.9175 10.9605C11.0638 10.8142 11.3014 10.8142 11.4477 10.9605L13.0384 12.5512C13.1848 12.6976 13.1848 12.9351 13.0384 13.0815C12.8921 13.2278 12.6545 13.2278 12.5082 13.0815V13.0826Z" fill="#E8E8E8"/>
<path d="M10.9175 14.6744L9.32563 13.0837C9.17928 12.9374 9.17928 12.6998 9.32563 12.5535C9.47198 12.4071 9.70952 12.4071 9.85587 12.5535L11.4466 14.1442C11.5929 14.2905 11.5929 14.5281 11.4466 14.6744C11.3002 14.8208 11.0627 14.8208 10.9163 14.6744H10.9175Z" fill="#E8E8E8"/>
<path d="M3.87013 12.3992C3.61007 13.1163 3.4018 13.8515 3.25545 14.5799C3.20254 14.8444 3.15751 15.1056 3.12036 15.3623L8.63778 20.8797C8.89446 20.8425 9.15564 20.7986 9.42132 20.7446C10.1497 20.5982 10.8837 20.39 11.6008 20.1299L3.87013 12.3992Z" fill="#E8E8E8"/>
<path opacity="0.1" d="M19.4284 13.233C20.0295 12.0341 20.4843 10.7158 20.7455 9.42118C21.2454 6.93547 20.9988 4.7616 20.1196 3.88124C20.034 3.79568 19.9372 3.71688 19.8269 3.64258C20.5091 4.65577 20.6667 6.64614 20.2153 8.88981C19.9552 10.1856 19.4993 11.5027 18.8981 12.7017C18.2103 14.0717 17.3412 15.2876 16.3156 16.3132C15.2889 17.3399 14.0742 18.2078 12.7041 18.8957C11.5063 19.4969 10.188 19.9528 8.89225 20.2128C6.64858 20.6643 4.65822 20.5078 3.64502 19.8245C3.71819 19.9337 3.79812 20.0316 3.88368 20.1172C4.76404 20.9975 6.93791 21.2429 9.42362 20.7431C10.7194 20.483 12.0365 20.0271 13.2355 19.4259C14.6056 18.7381 15.8203 17.869 16.847 16.8434C17.8726 15.8167 18.7416 14.602 19.4295 13.2319L19.4284 13.233Z" fill="#080808"/>
</svg>
