<svg width="24" height="24" viewBox="0 0 24 24" fill="none" xmlns="http://www.w3.org/2000/svg">
<path d="M16.0005 14.1875L15.9765 14.3246L15.7164 15.8483C15.5846 16.6119 15.0002 17.2283 14.2279 17.4155L13.5002 17.5928L13.2871 20.5009H10.7134L10.5003 17.5928L9.77268 17.4155C8.99921 17.2283 8.41481 16.6119 8.28418 15.8483L8.02406 14.3257L8 14.1875H16.0005Z" fill="#EC5564"/>
<path d="M16.0002 14.1875L15.9761 14.3246L15.716 15.8483C15.5842 16.6119 14.9998 17.2283 14.2275 17.4155L13.4999 17.5928L13.2868 20.5009H12.3242L12.5683 17.5571C12.5855 17.3498 12.7367 17.1748 12.9453 17.1246L13.3246 17.0321C14.0969 16.8448 14.6813 16.2284 14.8119 15.4649L14.8818 14.9923L14.9804 14.319L14.9998 14.1875H16.0002V14.1875Z" fill="#D94453"/>
<path d="M12.0006 15.6468C15.5907 15.6468 18.5011 12.8157 18.5011 9.32341C18.5011 5.83109 15.5907 3 12.0006 3C8.41041 3 5.5 5.83109 5.5 9.32341C5.5 12.8157 8.41041 15.6468 12.0006 15.6468Z" fill="#E9EBEE"/>
<path d="M11.9996 3C11.8312 3 11.665 3.01226 11.5 3.02452C14.8551 3.2742 17.4998 5.99506 17.4998 9.32341C17.4998 12.6518 14.8551 15.3726 11.5 15.6223C11.665 15.6346 11.8312 15.6468 11.9996 15.6468C15.5896 15.6468 18.5002 12.8156 18.5002 9.32341C18.5002 5.83121 15.5896 3 11.9996 3Z" fill="#CECFD0"/>
<path d="M8.00095 12.7926C8.27371 12.7926 8.49482 12.5776 8.49482 12.3122C8.49482 12.0469 8.27371 11.8318 8.00095 11.8318C7.72819 11.8318 7.50707 12.0469 7.50707 12.3122C7.50707 12.5776 7.72819 12.7926 8.00095 12.7926Z" fill="#6E7075"/>
<path d="M8.99557 10.8097C9.26833 10.8097 9.48945 10.5946 9.48945 10.3293C9.48945 10.0639 9.26833 9.84886 8.99557 9.84886C8.72281 9.84886 8.5017 10.0639 8.5017 10.3293C8.5017 10.5946 8.72281 10.8097 8.99557 10.8097Z" fill="#6E7075"/>
<path d="M8.00095 8.90809C8.27371 8.90809 8.49482 8.69301 8.49482 8.42768C8.49482 8.16235 8.27371 7.94727 8.00095 7.94727C7.72819 7.94727 7.50707 8.16235 7.50707 8.42768C7.50707 8.69301 7.72819 8.90809 8.00095 8.90809Z" fill="#6E7075"/>
<path d="M6.93528 10.8632C7.20804 10.8632 7.42915 10.6481 7.42915 10.3828C7.42915 10.1174 7.20804 9.90236 6.93528 9.90236C6.66252 9.90236 6.44141 10.1174 6.44141 10.3828C6.44141 10.6481 6.66252 10.8632 6.93528 10.8632Z" fill="#6E7075"/>
</svg>
