<svg width="24" height="24" viewBox="0 0 24 24" fill="none" xmlns="http://www.w3.org/2000/svg">
<path d="M18.1758 4C13.6046 10.4295 11.7195 12.4681 10.8912 13.0964C10.8595 13.1211 10.6581 13.2436 9.8887 13.2436C8.82395 13.2436 7.32583 13.0109 6.12191 12.8255C5.2631 12.6918 4.58533 12.5873 4.21532 12.5873C4.15309 12.5873 4.09878 12.5906 4.04899 12.5951C3.58394 12.6491 3.20376 13.0593 3.05666 13.6639C2.89599 14.327 3.03969 15.3216 3.97658 15.9419C4.15535 16.061 4.70187 16.4229 7.43672 16.4229C8.463 16.4229 9.59337 16.369 10.5393 16.2735C11.0055 16.2274 11.3925 16.1746 11.6867 16.1161C12.1438 16.0273 12.3644 15.9307 12.4991 15.761C16.4367 10.815 20.8937 4.15284 21.0001 4" fill="#5D9BEB"/>
<path d="M15.1195 12.3068C15.3164 12.0326 15.5144 11.7775 15.7124 11.4999L13.7651 9.92653C13.5592 10.2109 13.3193 10.4615 13.127 10.7256L15.1195 12.3068Z" fill="#434A54"/>
<path d="M16.2329 10.7863C16.4298 10.5121 16.6233 10.2524 16.8213 9.97598L14.9238 8.44531C14.7179 8.72964 14.4904 8.987 14.2969 9.24998L16.2329 10.7863Z" fill="#434A54"/>
<path opacity="0.2" d="M12.5 15.2553C12.3653 15.4238 12.1447 15.5205 11.6876 15.6104C11.3934 15.6688 11.0064 15.7205 10.5402 15.7677C9.59428 15.8621 8.4639 15.9172 7.43763 15.9172C4.70164 15.9172 4.15626 15.5553 3.97748 15.4362C3.35063 15.0204 3.07906 14.4371 3.01683 13.8988C2.93989 14.5461 3.14695 15.3912 3.97748 15.943C4.15626 16.0622 4.70278 16.4241 7.43763 16.4241C8.4639 16.4241 9.59428 16.3701 10.5402 16.2746C11.0064 16.2285 11.3934 16.1757 11.6876 16.1172C12.1447 16.0285 12.3653 15.9318 12.5 15.7621C15.3242 12.2141 19.0457 6.8568 21.001 4" fill="white"/>
<path d="M15.0613 15.9551V17.9814C15.0613 18.5129 14.5861 18.9175 13.6458 19.1839C12.9284 19.3884 11.9825 19.4997 10.9834 19.4997C9.98426 19.4997 9.03719 19.3873 8.31981 19.1839C7.38066 18.9175 6.9043 18.5129 6.9043 17.9814V15.9551C6.9043 16.4867 7.38066 16.8912 8.31981 17.1587C9.03832 17.3632 9.98426 17.4745 10.9834 17.4745C11.9825 17.4745 12.9284 17.3621 13.6458 17.1587C14.585 16.8924 15.0613 16.4867 15.0613 15.9551V15.9551Z" fill="#656D78"/>
<path d="M15.0613 15.9527C15.0613 16.4866 14.5861 16.8911 13.6458 17.1575C12.9284 17.362 11.9825 17.4733 10.9834 17.4733C9.98426 17.4733 9.03719 17.3609 8.31981 17.1575C7.38066 16.8911 6.9043 16.4854 6.9043 15.9539C6.9043 15.9359 6.90543 15.9168 6.90769 15.8988C6.93937 15.3942 7.41347 15.0076 8.31981 14.7513C9.03832 14.5468 9.98426 14.4355 10.9834 14.4355C11.9825 14.4355 12.9284 14.5479 13.6458 14.7513C14.5521 15.0076 15.0262 15.3942 15.0579 15.8977C15.0602 15.9156 15.0613 15.9336 15.0613 15.9527V15.9527Z" fill="#434A54"/>
</svg>
