<svg width="16" height="16" viewBox="0 0 16 16" fill="none" xmlns="http://www.w3.org/2000/svg">
<g clip-path="url(#clip0_1138_151324)">
<g clip-path="url(#clip1_1138_151324)">
<path d="M1.57812 7.4673C1.93546 6.1633 3.86346 4.65397 3.86346 4.65397C7.92746 1.30997 13.5301 2.6433 13.5301 2.6433C13.7995 2.6913 13.7168 2.85397 13.6688 2.9713C13.6208 3.08863 13.0395 3.9393 13.0395 3.9393L8.11679 4.4113L5.05279 5.16597L2.51413 7.02197L1.74879 7.50463L1.57812 7.4673Z" fill="#878687"/>
<path d="M15.9867 11.1821C16.0293 11.4195 15.976 11.6248 15.8373 11.7795C15.688 11.9261 15.4293 12.2675 15.4293 12.2675C15.4053 12.2968 15.376 12.3288 15.352 12.3581C15.12 12.6248 14.8987 12.7715 14.5333 12.7981C14.5147 12.7981 14.488 12.8035 14.4693 12.7981C14.0987 12.7875 13.792 12.4541 13.7147 12.2835C13.6267 12.0995 13.6347 11.9635 13.576 11.8008C13.5173 11.6461 13.408 11.5101 13.336 11.3661C13.3013 11.3075 13.2853 11.2648 13.2693 11.2141C13.2427 11.1448 13.2213 11.0595 13.1733 10.9208C13.096 10.6968 12.84 10.2035 12.84 10.2035L10.0187 8.80347C10.0187 8.80347 9.62667 9.14747 9.208 9.55547C8.95467 9.80614 8.69067 10.0861 8.49867 10.3208C7.984 10.9421 7.704 11.7715 7.55733 12.5661C7.45333 13.1101 7.4 13.6221 7.4 13.6221C6.65333 13.4941 5.93333 13.2808 5.23467 12.9928H5.22667C4.74133 12.8008 4.26933 12.5715 3.81867 12.3128C2.31467 11.4701 1 10.2968 0 8.88347C0.357333 8.55547 0.821333 8.13947 1.40267 7.6168C1.90933 7.12347 2.39733 6.69414 2.85867 6.33414C3.22933 6.02214 3.58667 5.76347 3.92267 5.5288C6.28267 3.90214 7.97333 3.7288 9.25067 3.61147C10.936 3.44614 12.68 3.7848 13.056 3.8408C13.432 3.8968 14.5093 3.95014 14.5707 4.05947C14.5813 4.07547 14.592 4.09147 14.5893 4.1208C14.5867 4.15814 14.5387 4.2088 14.4907 4.24347C14.4347 4.28614 13.9067 4.63014 13.9067 4.63014C13.7253 4.75547 13.4587 4.89147 13.4213 5.00347C13.376 5.12614 13.3707 5.16347 13.664 5.50747C13.9547 5.85414 14.1627 6.23814 14.2613 6.43014C14.36 6.62214 14.5333 6.96614 14.736 7.81947C14.8027 8.0968 14.8907 8.4008 14.9733 8.67547C15.1307 9.22747 15.2853 9.6728 15.2853 9.6728C15.3013 9.71547 15.3253 9.75814 15.3493 9.8168C15.5493 10.2115 15.96 10.9715 15.992 11.1821H15.9867Z" fill="#CC9466"/>
<path d="M15.0097 11.3994C14.8844 11.1007 14.5457 10.5061 14.1484 9.95408C13.7537 9.40208 13.1537 8.86341 12.9191 8.68208C12.6844 8.50074 12.4071 8.39407 12.0871 8.26074C11.7644 8.12474 11.4097 7.88741 11.1991 7.66341C10.9884 7.43941 10.8151 7.26874 10.6284 7.30074C10.4417 7.33274 10.3777 7.54607 10.1617 8.12207C9.94306 8.69807 10.0124 8.79941 10.0124 8.79941L12.8337 10.2021C12.8337 10.2021 13.0951 10.6954 13.1724 10.9221C13.2497 11.1487 13.2551 11.2207 13.3297 11.3621C13.4044 11.5034 13.5164 11.6394 13.5751 11.7994C13.6337 11.9621 13.6231 12.0954 13.7084 12.2767C13.7937 12.4581 14.1324 12.8261 14.5351 12.7914C14.9377 12.7594 15.0817 12.6447 15.2151 12.4901C15.2151 12.4901 15.3591 12.2314 15.0097 11.3967V11.3994Z" fill="#BA8053"/>
<path d="M12.9573 11.3445C12.8373 11.3605 12.7146 11.3445 12.6026 11.2858L2.85326 6.32851C2.55726 6.17918 2.43993 5.81918 2.59193 5.52318C2.74126 5.22718 3.10126 5.10985 3.39726 5.26185L12.8319 10.0592L14.7733 8.75518C15.0479 8.57118 15.4186 8.64318 15.6053 8.91785C15.7893 9.19251 15.7173 9.56318 15.4426 9.74985L13.2106 11.2512C13.1333 11.3018 13.0479 11.3338 12.9599 11.3472L12.9573 11.3445Z" fill="#E9E2DB"/>
<path d="M12.9566 11.3442C12.7379 11.3762 12.5086 11.2829 12.3753 11.0855C12.1913 10.8109 12.2633 10.4402 12.5379 10.2535L14.7699 8.7522C15.0446 8.5682 15.4153 8.6402 15.6019 8.91487C15.7859 9.18954 15.7139 9.5602 15.4393 9.74687L13.2073 11.2482C13.1299 11.3015 13.0446 11.3309 12.9566 11.3442Z" fill="#D2D2D2"/>
<path d="M13.0377 7.8371C13.2969 7.8371 13.507 7.62698 13.507 7.36777C13.507 7.10856 13.2969 6.89844 13.0377 6.89844C12.7785 6.89844 12.5684 7.10856 12.5684 7.36777C12.5684 7.62698 12.7785 7.8371 13.0377 7.8371Z" fill="#515151"/>
</g>
</g>
<defs>
<clipPath id="clip0_1138_151324">
<rect width="16" height="16" fill="white"/>
</clipPath>
<clipPath id="clip1_1138_151324">
<rect width="16" height="16" fill="white"/>
</clipPath>
</defs>
</svg>
