<svg width="24" height="24" viewBox="0 0 24 24" fill="none" xmlns="http://www.w3.org/2000/svg">
<path d="M3.93712 21C3.68625 21 3.45112 20.9021 3.2745 20.7255C3.09787 20.5488 3 20.3137 3 20.0628C3 19.8119 3.09675 19.5768 3.2745 19.399L12.837 9.83705C12.873 9.80105 12.8032 10.6493 13.152 10.9824C13.4816 11.2963 14.2343 11.0915 14.1622 11.1624L4.59975 20.7255C4.42313 20.9021 4.188 21 3.93712 21Z" fill="#E5E8EC"/>
<path fill-rule="evenodd" clip-rule="evenodd" d="M16.9567 3.48047H17.7059V4.7923H18.4563V4.30063H19.2055V4.7923H19.6702V5.54272H19.2055V6.29315H20.6028V7.04245H19.2055V7.79285H20.0594V8.54214H19.2055V8.81891H18.4563V8.54214H17.7059V9.37809H16.996V10.0419H16.2063V10.7293H15.457V10.0419H14.7067V11.1422H13.9563V10.0419H12.8313V9.29257H13.9563V8.54214H13.3241V7.79285H13.9563V7.10883H14.7067V7.79285H15.457V7.04245H14.6212V6.29315H15.457V5.54272H15.2084V4.7923H15.457V3.91473H16.2063V4.7923H16.9567V3.48047ZM14.7067 8.54214V9.29257H15.457V8.54214H14.7067ZM16.9567 9.29257H16.2063V8.54214H16.9567V9.29257ZM16.9567 7.79285H16.2063V7.04245H16.9567V7.79285ZM16.9567 6.29315H16.2063V5.54272H16.9567V6.29315ZM17.7059 5.54272V6.29315H18.4563V5.54272H17.7059ZM17.7059 7.04245V7.79285H18.4563V7.04245H17.7059Z" fill="#F5BA42"/>
<path d="M13.8045 11.5528C13.2375 11.5528 12.8392 11.4538 12.8223 11.4493C12.6885 11.4155 12.5838 11.3109 12.5501 11.177C12.5433 11.1534 12.396 10.556 12.4657 9.77405C12.558 8.72323 12.9978 7.8288 13.7381 7.18751C14.2938 6.70486 14.4851 6.10182 14.6887 5.4639C14.9013 4.79561 15.1218 4.10482 15.7417 3.48491C16.0635 3.16314 16.4538 3 16.9005 3C18.138 3 19.407 4.31183 19.542 4.45584C19.6837 4.58972 20.9741 5.8363 20.9977 7.06263C21.0067 7.52503 20.8436 7.92668 20.5128 8.25633C19.893 8.87737 19.2022 9.09788 18.534 9.31052C17.8961 9.51416 17.2931 9.70654 16.8105 10.2612C15.8846 11.3278 14.664 11.5517 13.8022 11.5517L13.8045 11.5528ZM13.2363 10.763C13.377 10.7832 13.5738 10.8024 13.8045 10.8024C14.5098 10.8024 15.5055 10.6235 16.2457 9.77067C16.8656 9.05625 17.5991 8.82224 18.3078 8.59722C18.9176 8.40259 19.4936 8.2192 19.9852 7.72755C20.1686 7.54416 20.2552 7.33152 20.2496 7.07838C20.2338 6.28633 19.3597 5.30752 19.0233 4.99812C19.0166 4.99137 19.0087 4.98462 19.002 4.97675C18.9997 4.97337 18.7016 4.65385 18.2797 4.34221C17.7566 3.95518 17.2796 3.75042 16.9016 3.75042C16.6563 3.75042 16.4516 3.83705 16.2727 4.01481C15.7811 4.50647 15.5977 5.08251 15.4031 5.69229C15.177 6.40109 14.943 7.13463 14.2297 7.75455C13.0856 8.74686 13.1576 10.2038 13.2363 10.763Z" fill="#FFCD54"/>
<path d="M5.26367 20.0625L4.59961 20.7256C4.4231 20.902 4.18813 20.9999 3.9375 21C3.6878 21 3.45215 20.9022 3.27441 20.7256C3.09779 20.549 3 20.3134 3 20.0625C3.00003 19.8116 3.09669 19.5762 3.27441 19.3984L3.9375 18.7363L5.26367 20.0625ZM11.7334 13.5928L11.2021 14.1221L9.87598 12.7969L10.4072 12.2666L11.7334 13.5928ZM12.793 12.5312L12.2637 13.0625L10.9385 11.7363L11.4678 11.2061L12.793 12.5312Z" fill="#EC5564"/>
<path d="M18.1999 15.549C17.8466 15.1946 17.3753 15 16.8746 15C16.374 15 15.9026 15.1946 15.5483 15.549C15.195 15.9023 14.9993 16.3737 14.9993 16.8744C14.9993 17.375 15.195 17.8464 15.5483 18.2008C15.9026 18.5552 16.3729 18.7499 16.8746 18.7499C17.3764 18.7499 17.8466 18.5552 18.1999 18.2008C18.5543 17.8476 18.7489 17.3761 18.7489 16.8744C18.7489 16.3748 18.5543 15.9034 18.1999 15.549Z" fill="#EC5564"/>
<path d="M18.4733 15.8955C18.3968 15.7717 18.3057 15.6547 18.1999 15.5489C18.1167 15.4657 18.0278 15.3914 17.9322 15.3262C17.7938 15.6007 17.481 16.0687 16.7745 16.7753C16.0692 17.4807 15.6012 17.7935 15.3267 17.933C15.3919 18.0275 15.4662 18.1175 15.5483 18.1996C15.654 18.3054 15.7699 18.3965 15.8948 18.473C16.2559 18.2536 16.7194 17.8902 17.3055 17.3052C17.8917 16.719 18.2539 16.2544 18.4744 15.8943L18.4733 15.8955Z" fill="#D94453"/>
</svg>
