<svg width="24" height="24" viewBox="0 0 24 24" fill="none" xmlns="http://www.w3.org/2000/svg">
<path fill-rule="evenodd" clip-rule="evenodd" d="M17.1283 6.31858L12.1407 3.36785C12.0497 3.31402 11.9486 3.31402 11.8576 3.36785L6.87002 6.31858H17.1283ZM6.96037 17.7349L11.8576 20.6321C11.9486 20.686 12.0497 20.686 12.1407 20.6321L17.0379 17.7349H6.96037ZM11.536 2.13212C11.8337 1.95596 12.1646 1.95596 12.4624 2.13212L19.7658 6.45292C20.2513 6.74013 20.5706 7.44616 20.5706 8.23237V15.7677C20.5706 16.5539 20.2513 17.2599 19.7658 17.5471L12.4624 21.8679C12.1646 22.044 11.8337 22.044 11.536 21.8679L4.23252 17.5471C3.74705 17.2599 3.42773 16.5539 3.42773 15.7677V8.23237C3.42773 7.44616 3.74705 6.74013 4.23252 6.45292L11.536 2.13212ZM11.142 4.77778C11.142 4.47096 11.1813 4.22223 11.2298 4.22223H12.7685C12.817 4.22223 12.8563 4.47096 12.8563 4.77778C12.8563 5.0846 12.817 5.33334 12.7685 5.33334H11.2298C11.1813 5.33334 11.142 5.0846 11.142 4.77778ZM11.2298 18.6667C11.1813 18.6667 11.142 18.9155 11.142 19.2222C11.142 19.529 11.1813 19.7778 11.2298 19.7778H12.7685C12.817 19.7778 12.8563 19.529 12.8563 19.2222C12.8563 18.9155 12.817 18.6667 12.7685 18.6667H11.2298Z" fill="#FFD72A"/>
<path d="M18.6662 10.7864C18.6662 11.5312 18.4492 12.1073 18.0154 12.5146C17.5846 12.9189 16.9712 13.1211 16.1752 13.1211H15.3329V15.3327H13.9043V8.66602H16.1752C17.0041 8.66602 17.6265 8.84994 18.0424 9.21777C18.4583 9.5856 18.6662 10.1085 18.6662 10.7864ZM15.3329 11.6528H16.0003C16.2666 11.6528 16.4775 11.5768 16.6331 11.4248C16.7916 11.2728 16.871 11.063 16.871 10.7955C16.871 10.3456 16.6256 10.1206 16.1349 10.1206H15.3329V11.6528Z" fill="black"/>
<path d="M8.83571 15.3327L7.63851 10.531H7.60247C7.65853 11.3488 7.68656 11.9841 7.68656 12.4371V15.3327H6.28516V8.66602H8.39126L9.61248 13.3992H9.64452L10.8417 8.66602H12.9518V15.3327H11.4984V12.4097C11.4984 12.2577 11.4997 12.089 11.5024 11.9036C11.5077 11.7181 11.5264 11.2637 11.5584 10.5402H11.5224L10.3412 15.3327H8.83571Z" fill="black"/>
</svg>
