<svg xmlns="http://www.w3.org/2000/svg" width="50" height="50" viewBox="0 0 50 50"><g fill="none" fill-rule="evenodd" transform="translate(6)"><path fill="#F7D0A9" d="M9.064 1.56c1.756 0 3.18 1.421 3.18 3.174l0 2.87c-1.793.315-3.553.721-5.27 1.221l-1.089.33 0-4.42c0-1.687 1.316-3.066 2.978-3.17l.201-.005Zm24.642 2.365c.145 0 .29.013.432.04l.212.049c1.812.506 3.095 2.115 3.184 3.992l.038.788c-2.062-.53-4.153-.958-6.254-1.28l-.002-1.202c0-1.318 1.07-2.387 2.39-2.387Zm-7.298-2.7c1.755 0 3.179 1.422 3.179 3.175l0 2.872c-2.118-.266-4.243-.424-6.358-.471l0-2.4c0-1.754 1.423-3.176 3.179-3.176Zm-8.756-1.225c1.755 0 3.179 1.421 3.179 3.175l0 3.62c-2.142.038-4.267.193-6.356.468l-.002-4.088c0-1.754 1.423-3.175 3.179-3.175Z"/><path fill="#EB5556" d="m37.657 11.319.164 1.583c.935 9.457.878 18.057-2.618 23.683-.869-.584-1.913-.924-3.038-.924l-18.694 0c-1.28 0-2.457.44-3.388 1.178-1.798-2.141-8.523-5.771-10.03-15.085-.326-4.745.864-6.206 3.724-7.083.75-.23.693 7.682 4.431 10.697-1.606-5.916-2.167-11.811-1.527-13.925 10.157-3.215 21.432-2.696 30.976-.124Z"/><path fill="#000" d="M31.316 10.012c2.1.341 4.364.774 6.34 1.307l.165 1.583c.935 9.457.878 18.057-2.618 23.683-.869-.584-1.914-.924-3.038-.924l-2.874 0c2.87-7.097 4.553-17.715 2.025-25.65Z" opacity=".295"/><rect width="24.763" height="11.919" x="10.437" y="38.081" fill="#EB5556" rx="1.879"/><path fill="#000" d="m29.037 38.08 4.284 0c1.038 0 1.879.842 1.879 1.88l0 8.161c0 1.038-.841 1.879-1.88 1.879-1.427 0-2.855 0-4.283 0 0-2.414 0-6.387 0-11.92Z" opacity=".297"/></g></svg>