<svg width="24" height="24" viewBox="0 0 24 24" fill="none" xmlns="http://www.w3.org/2000/svg">
<path d="M7.14097 7.15541C4.55737 9.37449 4.93079 13.6109 4.93079 13.6109C4.93079 13.6109 4.45148 13.5479 2.04954 11.8836C-0.352404 10.2193 0.0210058 7.45552 0.0210058 7.45552C0.757736 2.84587 3.71474 1 7.39839 1C11.082 1 13.6 4.19999 13.6 4.19999C13.6 4.19999 9.72457 4.93633 7.14097 7.15541Z" fill="#636363"/>
<path d="M7.14124 7.1557C4.55764 9.37478 4.93106 13.6112 4.93106 13.6112C4.93106 13.6112 4.45174 13.5482 2.0498 11.8839C2.0498 11.8839 3.11627 7.52619 5.60019 5.80019C8.17861 4.00852 13.6002 4.20028 13.6002 4.20028C13.6002 4.20028 9.72484 4.93661 7.14124 7.1557Z" fill="#595959"/>
<path d="M4.99146 16.5883C4.79592 18.4168 5.58894 19.326 5.58894 19.326C7.77246 21.5142 9.76044 21.1346 9.76044 21.1346V18.0471C9.3585 16.2186 5.78448 14.7598 5.78448 14.7598C5.78448 14.7598 5.15441 15.1295 4.99146 16.5883Z" fill="#CC9466"/>
<path d="M9.5998 20.9998L9.76014 18.0471C9.3582 16.2186 5.78418 14.7598 5.78418 14.7598C5.78418 14.7598 7.99208 16.3356 8.7998 17.7998C9.45439 18.9865 9.5998 20.9998 9.5998 20.9998Z" fill="#BA8053"/>
<path d="M5.83289 8.499C5.27782 8.31743 4.99644 9.66475 4.81478 10.7743L4.80469 13.4473C4.80469 13.4775 4.80469 13.4977 4.81478 13.528C4.85515 13.7499 5.13773 14.7989 6.37907 15.2528C7.77179 15.7571 9.437 17.4215 9.437 18.1578V21.5066C9.437 21.5974 9.46727 21.6881 9.52783 21.7487C9.54223 21.7655 9.55852 21.785 9.5767 21.8067C9.86444 22.1512 10.6243 23.0608 11.8389 22.7573C14.0491 22.2026 14.2409 21.093 14.4225 19.9936C14.6042 18.8941 15.5226 17.4215 15.351 19.6002C15.351 19.6103 15.351 19.6304 15.3409 19.6405C15.339 19.6526 15.3362 19.6698 15.3326 19.6913C15.2798 20.01 15.0687 21.2847 15.3712 21.2847C15.7143 21.2847 17.5612 20.9115 17.7429 19.812C17.8128 19.3846 17.8289 18.8764 17.8435 18.4131C17.8669 17.6735 17.8867 17.0482 18.1163 17.0482C18.419 17.0482 18.3484 18.4301 18.3181 18.9143C18.308 19.0757 18.3282 19.2371 18.3787 19.3884C18.3888 19.4186 18.3989 19.4489 18.419 19.4892C18.4594 19.5901 18.5401 19.7111 18.6512 19.7313C19.2264 19.8221 19.5998 19.6405 19.7815 19.4489C20.4375 18.7933 20.6999 17.7846 20.6999 16.6851C20.6999 16.1303 21.0733 16.3119 21.0733 16.6851V18.2486C21.0733 18.2486 21.0733 19.0757 21.9917 18.1578C22.9101 17.2399 24 15.7571 24 13.0842C24 10.4112 23.2835 9.31171 22.355 8.20217C21.4366 7.09263 20.0528 5.92688 18.9426 5.92688C17.8325 5.92688 14.8856 6.10844 12.857 7.59119C12.6473 7.74448 12.4474 7.89173 12.2566 8.03234C10.6011 9.25182 9.62342 9.97202 8.79999 9.80019C8.23483 9.67915 5.83289 8.499 5.83289 8.499Z" fill="#636363"/>
<path d="M10.3999 9.79979C10.3999 9.79979 9.84482 10.5361 9.10809 10.3546L5.60004 8.99979C5.60004 8.99979 4.99644 7.26359 11.082 4.49982C11.082 4.49982 14.584 3.40037 17.7227 4.87303C20.8614 6.3457 18.3888 6.33561 18.3888 6.33561C18.3888 6.33561 13.5386 6.56195 10.3999 9.79979Z" fill="#EC5564"/>
<path d="M10.3997 9.80012C10.3997 9.80012 9.84464 10.5365 9.10791 10.3549C9.10791 10.3549 10.9326 8.26197 12.7997 7.40019C14.7836 6.4845 18.3886 6.33594 18.3886 6.33594C18.3886 6.33594 13.5384 6.56228 10.3997 9.80012Z" fill="#D94453"/>
</svg>
