<svg width="24" height="24" viewBox="0 0 24 24" fill="none" xmlns="http://www.w3.org/2000/svg">
<path d="M20.5 11.7506C20.5 16.1998 17.179 19.8746 12.8796 20.4277C12.8641 20.431 12.8507 20.4332 12.8351 20.4332C12.7817 20.441 12.7272 20.4477 12.6726 20.4521C12.6181 20.4577 12.5647 20.4633 12.5113 20.4677C12.3855 20.4789 12.2608 20.4855 12.1373 20.4922C12.0716 20.4944 12.0082 20.4978 11.9437 20.4978C11.8802 20.5 11.8168 20.5011 11.7511 20.5011C11.7333 20.5011 11.7166 20.5 11.6988 20.5C11.5831 20.5 11.4684 20.4967 11.3538 20.4911C11.3171 20.49 11.2814 20.4878 11.2447 20.4855C11.119 20.4789 10.9943 20.47 10.8697 20.4566C10.8018 20.4499 10.7339 20.4421 10.6671 20.4343C10.6571 20.4321 10.646 20.431 10.6359 20.4299C10.4256 20.4032 10.2186 20.3687 10.0138 20.3275C9.94368 20.313 9.87468 20.2986 9.80457 20.2819C9.73556 20.2663 9.66656 20.2496 9.59756 20.2318C9.49071 20.2051 9.38498 20.175 9.28037 20.1439C9.21582 20.125 9.15127 20.1038 9.08671 20.0838C9.04442 20.0704 9.00324 20.0571 8.96095 20.0437C8.89529 20.0215 8.83074 19.9981 8.76619 19.9747C8.72501 19.9603 8.68383 19.9447 8.64376 19.9291C8.58032 19.9046 8.518 19.8801 8.45567 19.8545C8.43564 19.8467 8.41561 19.839 8.39557 19.8312C8.3978 19.8312 8.40002 19.8323 8.40336 19.8334C5.23257 18.5213 3 15.3963 3 11.7506C3 6.91733 6.91758 3 11.7511 3C12.4979 3 13.2202 3.09348 13.9125 3.27043C13.9726 3.28601 14.0304 3.30048 14.0894 3.31717C14.1484 3.33386 14.2063 3.35056 14.2641 3.36725C14.3231 3.38394 14.3799 3.40286 14.4378 3.42178C14.6693 3.49412 14.8963 3.5787 15.1178 3.67107C15.1723 3.69444 15.228 3.71892 15.2825 3.7434C15.3348 3.76677 15.3871 3.79014 15.4405 3.81463C15.445 3.81685 15.4472 3.81908 15.4506 3.82019C15.5029 3.84467 15.5563 3.87027 15.6086 3.89587C15.662 3.92258 15.7154 3.94928 15.7689 3.97711C15.8735 4.03164 15.9792 4.08839 16.0827 4.14849C16.1217 4.17075 16.1617 4.193 16.1996 4.21638C16.3231 4.28871 16.4433 4.3655 16.5613 4.4434C16.6036 4.47122 16.6447 4.49905 16.687 4.52687C16.7371 4.56025 16.785 4.59475 16.8339 4.62925C16.9297 4.69936 17.0265 4.76948 17.12 4.84293C17.1667 4.87965 17.2123 4.91526 17.258 4.9531C17.3003 4.98649 17.3415 5.02099 17.3837 5.0566C17.4194 5.08665 17.4561 5.11781 17.4906 5.14897C17.5295 5.18124 17.5674 5.21574 17.6063 5.25135C17.7132 5.34706 17.8178 5.44499 17.9191 5.54626C17.9469 5.57297 17.9736 5.59968 17.9992 5.6275C18.0849 5.71431 18.1684 5.80334 18.2496 5.89348C18.2808 5.92687 18.3108 5.96137 18.3409 5.99587C18.4388 6.10938 18.5345 6.22401 18.628 6.34197C18.6503 6.36979 18.6725 6.39873 18.6948 6.42655C18.7894 6.55119 18.8818 6.67695 18.9697 6.80604C18.992 6.83831 19.0142 6.8717 19.0365 6.90397C19.1867 7.131 19.3292 7.36471 19.4583 7.6062C19.4839 7.65183 19.5084 7.69857 19.5306 7.7442C19.5395 7.76089 19.5484 7.7787 19.5573 7.79539C19.5774 7.83434 19.5963 7.8744 19.6163 7.91335C19.7209 8.1248 19.8155 8.33959 19.9012 8.56105C19.9257 8.62226 19.9491 8.68347 19.9713 8.74467C19.9914 8.80143 20.0114 8.85707 20.0314 8.91383C20.0593 8.99285 20.0849 9.07297 20.1094 9.15199C20.1305 9.21987 20.1505 9.28887 20.1706 9.35787C20.1706 9.35787 20.1706 9.35787 20.1706 9.3601C20.1895 9.42909 20.2084 9.49809 20.2262 9.56598C20.2429 9.63609 20.2607 9.7062 20.2774 9.77742C20.3408 10.0534 20.392 10.3361 20.4288 10.6232C20.4288 10.6321 20.431 10.641 20.4321 10.6499C20.4499 10.7924 20.4644 10.9359 20.4755 11.0806C20.4811 11.1541 20.4855 11.2297 20.49 11.3043C20.4967 11.4534 20.5011 11.6037 20.5011 11.7539L20.5 11.7506Z" fill="#EC5564"/>
<path d="M20.4999 11.7504C20.4999 16.1997 17.1789 19.8744 12.8795 20.4275C12.864 20.4309 12.8506 20.4331 12.835 20.4331C12.7816 20.4409 12.7271 20.4476 12.6725 20.452C12.618 20.4576 12.5646 20.4631 12.5112 20.4676C12.3854 20.4787 12.2607 20.4854 12.1372 20.4921C12.0715 20.4943 12.0081 20.4976 11.9436 20.4976C11.5807 20.5054 11.2224 20.4921 10.8707 20.4565C10.8028 20.4498 10.7349 20.442 10.6681 20.4342C10.6581 20.432 10.647 20.4309 10.637 20.4298C10.4277 20.4019 10.2207 20.3685 10.0148 20.3274C9.9447 20.3129 9.8757 20.2984 9.80558 20.2817C9.73658 20.2662 9.66758 20.2495 9.59858 20.2317C9.18567 20.1259 8.78501 19.9935 8.39771 19.8321C9.19235 20.0336 10.0304 20.1282 10.8952 20.0948C15.5039 19.9212 19.2178 16.1363 19.3079 11.5256C19.3803 7.80749 17.1321 4.60575 13.9135 3.26807C13.9736 3.28365 14.0314 3.29811 14.0904 3.31481C14.1494 3.3315 14.2073 3.34819 14.2652 3.36489C14.3242 3.38158 14.3809 3.4005 14.4388 3.41942C14.6692 3.49287 14.8962 3.57745 15.1188 3.6687C15.1733 3.69207 15.229 3.71656 15.2835 3.74104C15.3358 3.76441 15.3881 3.78778 15.4416 3.81226C15.446 3.81449 15.4482 3.81672 15.4516 3.81783C15.5039 3.84231 15.5573 3.86791 15.6096 3.8935C15.6519 3.91465 15.6953 3.93579 15.7376 3.95805C15.8322 4.0059 15.9268 4.05598 16.0192 4.1094C16.0793 4.1439 16.1416 4.1784 16.2006 4.21401C16.3241 4.28635 16.4443 4.36314 16.5623 4.44104C16.6046 4.46886 16.6458 4.49668 16.6881 4.52451C16.7381 4.55789 16.786 4.59239 16.835 4.62689C16.9307 4.697 17.0275 4.76711 17.121 4.84056C17.1677 4.87729 17.2134 4.9129 17.259 4.95074C17.3013 4.98412 17.3425 5.01862 17.3848 5.05423C17.4204 5.08428 17.4571 5.11544 17.4916 5.1466C17.5306 5.17888 17.5684 5.21338 17.6074 5.24899C17.7142 5.3447 17.8188 5.44263 17.9201 5.5439C17.9479 5.57172 17.9735 5.59732 18.0002 5.62514C18.0859 5.71195 18.1694 5.80098 18.2506 5.89112C18.2818 5.92451 18.3118 5.959 18.3419 5.9935C18.4398 6.10702 18.5356 6.22164 18.629 6.33961C18.6513 6.36743 18.6736 6.39637 18.6958 6.42419C18.7904 6.54883 18.8828 6.67458 18.9707 6.80368C18.993 6.83595 19.0152 6.86934 19.0375 6.90161C19.1877 7.12864 19.3302 7.36234 19.4593 7.60384C19.4849 7.64947 19.5094 7.69621 19.5316 7.74183C19.5405 7.75853 19.5494 7.77633 19.5584 7.79303C19.5784 7.83198 19.5973 7.87204 19.6173 7.91099C19.722 8.12244 19.8166 8.33722 19.9023 8.55869C19.9267 8.61989 19.9501 8.6811 19.9724 8.74231C19.9924 8.79907 20.0124 8.85471 20.0325 8.91147C20.0603 8.99048 20.0859 9.07061 20.1104 9.14962C20.1315 9.21751 20.1516 9.28651 20.1716 9.35551C20.1716 9.35551 20.1716 9.35551 20.1716 9.35773C20.1905 9.42673 20.2094 9.49573 20.2272 9.56361C20.2439 9.63373 20.2617 9.70384 20.2784 9.77506C20.343 10.0522 20.3942 10.3337 20.4298 10.6208C20.4298 10.6298 20.432 10.6387 20.4331 10.6476C20.4509 10.79 20.4665 10.9336 20.4765 11.0782C20.4821 11.1517 20.4866 11.2274 20.491 11.3019C20.4977 11.4511 20.5021 11.6013 20.5021 11.7515L20.4999 11.7504Z" fill="#D94453"/>
<path d="M11.7511 16.9209C14.6068 16.9209 16.9218 14.6061 16.9218 11.7505C16.9218 8.89496 14.6068 6.58008 11.7511 6.58008C8.89535 6.58008 6.58032 8.89496 6.58032 11.7505C6.58032 14.6061 8.89535 16.9209 11.7511 16.9209Z" fill="white"/>
<path d="M10.1986 13.8059C10.1374 13.7113 10.1018 13.6133 10.0907 13.5098C10.0795 13.4074 10.0929 13.3129 10.1318 13.226C10.1708 13.1404 10.2331 13.0714 10.3199 13.0224C10.4056 12.9723 10.5102 12.9534 10.6327 12.9645C10.7662 12.9756 10.8797 13.0213 10.9743 13.1025C11.0689 13.1826 11.1646 13.2583 11.2615 13.3273C11.3583 13.3963 11.4629 13.4442 11.5742 13.4687C11.6855 13.4931 11.8213 13.4564 11.9827 13.3563C12.0216 13.3284 12.055 13.2995 12.0828 13.2683C12.1107 13.2383 12.1385 13.206 12.1663 13.1726C12.1997 13.1281 12.2253 13.0903 12.2409 13.0602C12.2576 13.0302 12.2743 12.989 12.291 12.9389C12.3243 12.8443 12.3466 12.7553 12.3577 12.6718C12.3689 12.5884 12.3689 12.4993 12.3577 12.4047C12.2743 12.2489 12.1696 12.1466 12.045 12.0965C11.9203 12.0464 11.789 12.0141 11.6532 12.0008C11.5175 11.9874 11.3828 11.9718 11.2492 11.9551C11.1157 11.9384 11.0022 11.8884 10.9076 11.8049C10.8241 11.7326 10.7729 11.6491 10.7529 11.5545C10.7328 11.4599 10.7384 11.3698 10.7695 11.2841C10.8007 11.1984 10.853 11.1216 10.9276 11.0548C11.0022 10.988 11.0923 10.9469 11.198 10.9302C11.2815 10.9135 11.3717 10.8979 11.4685 10.8846C11.5653 10.8712 11.6588 10.8489 11.7478 10.8178C11.8369 10.7877 11.9203 10.7466 11.9982 10.6965C12.0762 10.6464 12.1396 10.5796 12.1897 10.4962C12.1952 10.4349 12.1963 10.3749 12.1941 10.317C12.1908 10.2591 12.1763 10.2012 12.1485 10.1456C12.0928 10.0955 12.0138 10.061 11.9114 10.041C11.809 10.0221 11.7 10.0132 11.5865 10.0165C11.4729 10.0198 11.365 10.0321 11.2659 10.0543C11.1658 10.0766 11.0856 10.1011 11.0244 10.1289C10.8909 10.2625 10.7551 10.3248 10.616 10.317C10.4768 10.3081 10.36 10.2602 10.2665 10.1712C10.1719 10.0822 10.114 9.97088 10.0918 9.83845C10.0695 9.7049 10.1085 9.58582 10.2086 9.4801C10.2865 9.39107 10.3733 9.32096 10.4713 9.26754C10.5681 9.21524 10.6749 9.17183 10.7918 9.13845C11.0756 9.06055 11.3705 9.02048 11.6788 9.01714C11.9871 9.01492 12.2743 9.0828 12.5414 9.2208C12.7584 9.33209 12.9209 9.47899 13.0288 9.66261C13.1368 9.84624 13.198 10.041 13.2125 10.2458C13.2258 10.4516 13.1947 10.6553 13.1168 10.8578C13.0389 11.0604 12.9198 11.2396 12.7584 11.3954C12.9587 11.5345 13.1101 11.6936 13.2125 11.8739C13.3149 12.0542 13.3794 12.2411 13.4039 12.4326C13.4295 12.624 13.4173 12.8187 13.3705 13.0157C13.3238 13.2127 13.2436 13.3974 13.1335 13.5699C13.0222 13.7424 12.8853 13.8993 12.7205 14.0407C12.5569 14.182 12.3722 14.2944 12.1663 14.3779C11.9882 14.4502 11.8135 14.4836 11.641 14.478C11.4685 14.4725 11.3004 14.4424 11.1368 14.3868C10.9732 14.3311 10.8141 14.2543 10.6616 14.1575C10.508 14.0607 10.3655 13.9539 10.232 13.837L10.1986 13.8036V13.8059Z" fill="#505572"/>
</svg>
