<svg width="24" height="24" viewBox="0 0 24 24" fill="none" xmlns="http://www.w3.org/2000/svg">
<path d="M20.7454 9.42042C20.4842 10.7164 20.0292 12.0338 19.4279 13.233C18.7399 14.6033 17.8706 15.8183 16.8447 16.844C15.8189 17.8698 14.6028 18.7391 13.2335 19.4271C12.193 19.9484 11.0636 20.3594 9.9364 20.6307H9.93302C9.76186 20.6724 9.59183 20.7107 9.42179 20.7445C6.93546 21.2433 4.76217 20.9978 3.88047 20.1184C3.85795 20.0959 3.83655 20.0734 3.81629 20.0497C3.79602 20.0272 3.77687 20.0047 3.75773 19.981C3.73746 19.9563 3.71832 19.9326 3.69918 19.9056C3.69129 19.8966 3.68566 19.8887 3.67891 19.8786C3.67665 19.8786 3.67553 19.8786 3.67665 19.8763C3.66765 19.8651 3.66089 19.8538 3.65301 19.8425C3.644 19.8313 3.63724 19.82 3.62936 19.8088C3.62936 19.8088 3.62711 19.8065 3.62711 19.8043C3.12151 19.0341 2.91319 17.7178 3.03255 16.1572C3.03593 16.1043 3.04156 16.0525 3.04606 15.9996C3.0562 15.8836 3.06971 15.7699 3.0821 15.6595C3.08773 15.6167 3.09223 15.5739 3.09786 15.5323C3.10687 15.4557 3.11813 15.3803 3.12827 15.3071C3.13502 15.2587 3.14178 15.2102 3.14966 15.1641C3.15867 15.1112 3.16655 15.0605 3.17556 15.0087C3.20146 14.8544 3.22736 14.7103 3.25438 14.5774C3.2679 14.5088 3.28254 14.4401 3.2983 14.3714C3.30618 14.332 3.31407 14.2926 3.3242 14.2532C3.35348 14.1225 3.38613 13.9919 3.41766 13.8613C3.41766 13.8568 3.41991 13.8523 3.42217 13.8467C3.44356 13.7645 3.46496 13.6845 3.48635 13.6023C3.50324 13.5415 3.52013 13.4807 3.53702 13.4199C3.55391 13.3591 3.57193 13.2994 3.58995 13.2375C3.61585 13.1542 3.64062 13.0697 3.66877 12.9875C3.70931 12.8581 3.7521 12.7308 3.79602 12.6047C4.0156 11.973 4.27684 11.3549 4.57187 10.7649C5.25989 9.39453 6.1292 8.17959 7.15504 7.15382C7.31381 6.99618 7.47822 6.84079 7.64488 6.68991L7.65163 6.68315C8.56486 5.86006 9.61097 5.15069 10.7663 4.57081C11.9656 3.96953 13.2842 3.51351 14.5791 3.2534C16.3482 2.89759 17.9607 2.92011 19.0597 3.28043C19.0597 3.28043 19.0631 3.28043 19.0653 3.28268C19.3604 3.37951 19.6148 3.50225 19.8288 3.6475C19.8288 3.64525 19.8265 3.64412 19.8254 3.64187C19.8536 3.65988 19.8795 3.67903 19.9054 3.69817C19.9324 3.71731 19.956 3.73645 19.9808 3.75672C20.0056 3.77586 20.027 3.795 20.0495 3.81527C20.0743 3.83666 20.0957 3.85806 20.1182 3.87945C20.5934 4.35462 20.8839 5.20924 20.9706 6.28681C21.0461 7.20111 20.974 8.27755 20.7443 9.4193L20.7454 9.42042Z" fill="white"/>
<path d="M19.2646 7.62677C17.5744 10.5194 12.9565 14.4108 11.4881 15.5672C10.0197 16.7213 5.57181 19.8403 3.64175 19.8268C3.63724 19.8212 3.63274 19.8156 3.62936 19.8099C3.62936 19.8099 3.62711 19.8077 3.62711 19.8054C3.12151 19.0341 2.91319 17.7178 3.03255 16.1572C3.03593 16.1043 3.04156 16.0525 3.04606 15.9996C3.0562 15.8836 3.06971 15.7699 3.0821 15.6595C3.08773 15.6168 3.09223 15.574 3.09786 15.5323C3.10687 15.4557 3.11813 15.3803 3.12827 15.3071C3.13502 15.2587 3.14178 15.2103 3.14966 15.1641C3.15867 15.1112 3.16655 15.0605 3.17556 15.0087C3.20146 14.8545 3.22736 14.7103 3.25438 14.5775C3.26339 14.5336 3.27127 14.493 3.28028 14.4525C3.28591 14.4255 3.29154 14.3984 3.2983 14.3714C3.30618 14.332 3.31407 14.2926 3.3242 14.2532C3.35348 14.1226 3.38613 13.992 3.41766 13.8613C3.41766 13.8568 3.41991 13.8523 3.42217 13.8467C3.44356 13.7645 3.46496 13.6846 3.48635 13.6024C3.50324 13.5416 3.52013 13.4808 3.53702 13.42C3.55391 13.3592 3.57193 13.2995 3.58995 13.2376C3.61585 13.1542 3.64062 13.0698 3.66877 12.9876C3.70931 12.8581 3.7521 12.7309 3.79602 12.6047C4.0156 11.9731 4.27684 11.3549 4.57187 10.7649C5.25989 9.39456 6.1292 8.17963 7.15504 7.15385C7.31381 6.99621 7.47822 6.84083 7.64488 6.68995C7.1359 7.18651 5.63712 9.77402 5.1608 11.4596C4.68222 13.152 4.25207 15.7744 5.04932 16.5783C5.8004 17.3361 10.0175 16.0548 14.6906 12.0451C20.3986 7.14822 19.0879 3.35928 19.062 3.28271C19.0642 3.28271 19.0653 3.28271 19.0676 3.28271C19.3626 3.37955 19.6171 3.50228 19.831 3.64753C19.831 3.64528 19.8288 3.64416 19.8277 3.6419C19.8558 3.65992 19.8817 3.67906 19.9076 3.6982C19.9346 3.71735 19.9583 3.73649 19.9831 3.75675C20.0078 3.7759 20.0292 3.79504 20.0518 3.81531C20.0765 3.8367 20.0979 3.85809 20.1204 3.87949C20.1362 3.90651 20.1644 4.07541 20.1677 4.3479C20.1801 5.02236 20.0529 6.324 19.2658 7.62451L19.2646 7.62677Z" fill="#EC5564"/>
<path d="M20.9718 6.28807C20.9065 6.38152 20.723 6.63487 20.4572 7.00081C19.2366 8.67178 16.248 12.6837 14.452 14.3603C12.1548 16.5064 9.29127 18.943 8.6359 19.4598C8.00531 19.9575 7.74294 20.1974 7.82514 20.3843C7.82739 20.391 7.83077 20.3978 7.83415 20.4045C7.95464 20.6151 8.51091 20.6737 9.93199 20.632C9.76083 20.6737 9.5908 20.7119 9.42076 20.7457C6.93443 21.2445 4.76115 20.9991 3.87944 20.1197C3.85692 20.0971 3.83553 20.0746 3.81526 20.051C3.79499 20.0285 3.77585 20.0059 3.7567 19.9823C3.73643 19.9575 3.71729 19.9339 3.69815 19.9069C3.69027 19.8978 3.68464 19.89 3.67788 19.8798C3.67563 19.8798 3.6745 19.8798 3.67563 19.8776C3.66662 19.8663 3.65986 19.8551 3.65198 19.8438C3.6486 19.8382 3.6441 19.8325 3.64185 19.8269C3.64185 19.8269 6.98623 18.9453 10.6898 16.1247C14.6062 13.1431 16.5307 11.0713 18.2457 8.9589C20.0169 6.77787 20.1678 5.04498 20.1442 4.28944C20.1374 4.04623 20.1127 3.90436 20.1172 3.88184C20.5924 4.357 20.8829 5.21162 20.9696 6.28919L20.9718 6.28807Z" fill="#5D9BEB"/>
<path opacity="0.2" d="M20.7456 9.4205C20.4844 10.7165 20.0294 12.0339 19.4281 13.2331C18.7401 14.6034 17.8708 15.8183 16.8449 16.8441C15.8191 17.8699 14.603 18.7391 13.2337 19.4271C12.1932 19.9485 11.0638 20.3594 9.93659 20.6308H9.93321C9.76205 20.6725 9.59202 20.7107 9.42198 20.7445C6.93565 21.2433 4.76237 20.9979 3.88066 20.1185C3.85814 20.096 3.83675 20.0734 3.81648 20.0498C3.79621 20.0273 3.77707 20.0048 3.75792 19.9811C3.73766 19.9563 3.71851 19.9327 3.69937 19.9057C3.68023 19.8798 3.66108 19.8539 3.64307 19.8257C4.49324 20.3988 6.02918 20.6004 7.82524 20.3842C8.17094 20.3448 8.5279 20.2874 8.89049 20.2142C10.1855 19.9541 11.5041 19.4992 12.7022 18.8968C14.0726 18.2088 15.2876 17.3396 16.3134 16.3138C17.3393 15.288 18.2086 14.0719 18.8966 12.7027C19.4979 11.5036 19.954 10.185 20.2141 8.89128C20.347 8.23371 20.4258 7.59753 20.4562 7.00075C20.508 5.96372 20.4089 5.0483 20.1668 4.35019C20.16 4.32879 20.1533 4.30852 20.1454 4.28826C20.0576 4.04504 19.9517 3.83111 19.829 3.6487C19.829 3.64644 19.8267 3.64532 19.8256 3.64307C19.8538 3.66108 19.8797 3.68022 19.9056 3.69937C19.9326 3.71851 19.9562 3.73765 19.981 3.75792C20.0058 3.77706 20.0272 3.7962 20.0497 3.81647C20.0745 3.83786 20.0959 3.85926 20.1184 3.88065C20.5936 4.35581 20.8841 5.21044 20.9708 6.28801C21.0463 7.20231 20.9742 8.27875 20.7445 9.4205H20.7456Z" fill="#080808"/>
</svg>
