<svg width="24" height="24" viewBox="0 0 24 24" fill="none" xmlns="http://www.w3.org/2000/svg">
<path fill-rule="evenodd" clip-rule="evenodd" d="M6.31067 4.83203C5.12642 4.83203 4.10799 5.67066 3.8808 6.83293L2.0468 16.2152C1.74791 17.7443 2.91869 19.166 4.47668 19.166H17.6893C18.8736 19.166 19.892 18.3274 20.1192 17.1652L21.9532 7.78288C22.2521 6.25383 21.0813 4.83203 19.5233 4.83203H6.31067ZM4.64812 6.98293C4.80357 6.18768 5.5004 5.61388 6.31067 5.61388H19.5233C20.5893 5.61388 21.3904 6.58671 21.1859 7.63291L19.3519 17.0152C19.1964 17.8104 18.4996 18.3842 17.6893 18.3842H4.47668C3.41069 18.3842 2.60962 17.4114 2.81413 16.3652L4.64812 6.98293ZM6.6023 6.26555C5.9808 6.26555 5.44577 6.70447 5.32432 7.314L3.55877 16.175C3.39815 16.9811 4.01481 17.7328 4.83672 17.7328H17.4255C18.047 17.7328 18.582 17.2939 18.7035 16.6843L20.4691 7.82327C20.6297 7.0172 20.013 6.26555 19.1911 6.26555H6.6023ZM11.7571 11.6144H13.6585L13.138 14.0924C12.6184 14.2608 12.0771 14.3449 11.514 14.3449C10.9716 14.3449 10.5508 14.187 10.2516 13.8711C9.95233 13.5553 9.80273 13.1074 9.80273 12.5277C9.80273 11.9729 9.91701 11.472 10.1456 11.0253C10.3742 10.5785 10.6869 10.2388 11.0838 10.006C11.4828 9.77121 11.9462 9.65381 12.474 9.65381C13.0267 9.65381 13.4922 9.76498 13.8705 9.98733L13.4122 10.9504C13.0943 10.7634 12.7764 10.6699 12.4584 10.6699C12.1842 10.6699 11.941 10.7458 11.7291 10.8975C11.5192 11.0471 11.3508 11.2694 11.2241 11.5645C11.0994 11.8596 11.0371 12.1744 11.0371 12.509C11.0371 13.0576 11.2542 13.3319 11.6885 13.3319C11.8194 13.3319 11.9577 13.3174 12.1031 13.2883L12.2621 12.5651H11.5482L11.7571 11.6144ZM9.02588 12.8829C9.02588 13.3443 8.87316 13.7038 8.56768 13.9614C8.26221 14.217 7.83621 14.3448 7.28968 14.3448C7.06111 14.3448 6.84501 14.3199 6.64136 14.27C6.43771 14.218 6.26211 14.1433 6.11458 14.0456V12.9546C6.28913 13.0648 6.48861 13.1572 6.71303 13.232C6.93956 13.3069 7.14423 13.3443 7.32711 13.3443C7.48088 13.3443 7.59723 13.312 7.67621 13.2476C7.75516 13.1832 7.79466 13.0918 7.79466 12.9733C7.79466 12.9172 7.78218 12.8653 7.75726 12.8174C7.73231 12.7676 7.69698 12.7188 7.65126 12.6709C7.60556 12.6211 7.48296 12.513 7.28346 12.3468C7.04033 12.1514 6.86371 11.9519 6.75356 11.7483C6.64343 11.5447 6.58836 11.3213 6.58836 11.0782C6.58836 10.8059 6.65591 10.5618 6.79096 10.3457C6.92811 10.1275 7.12033 9.95913 7.36761 9.84071C7.61698 9.72018 7.89543 9.65991 8.20298 9.65991C8.69963 9.65991 9.14641 9.77108 9.54331 9.99343L9.12251 10.9192C8.76716 10.7364 8.46481 10.6449 8.21546 10.6449C8.08246 10.6449 7.97961 10.674 7.90686 10.7322C7.83621 10.7904 7.80088 10.8755 7.80088 10.9878C7.80088 11.0896 7.83518 11.1852 7.90376 11.2745C7.97441 11.3618 8.10738 11.4792 8.30273 11.6268C8.54793 11.8075 8.72976 11.9977 8.84821 12.1972C8.96666 12.3967 9.02588 12.6253 9.02588 12.8829ZM17.2982 12.325C17.6556 12.0258 17.8343 11.6144 17.8343 11.0907C17.8343 10.6522 17.6899 10.3156 17.4011 10.0808C17.1142 9.84387 16.7017 9.72542 16.1636 9.72542H15.0009L14.0377 14.2825H15.2565L15.5682 12.7708H15.8363C16.4556 12.7708 16.9428 12.6222 17.2982 12.325ZM15.9828 11.7734H15.7864L16.0108 10.7198H16.1947C16.3257 10.7198 16.4285 10.7572 16.5033 10.8319C16.5782 10.9068 16.6156 11.0055 16.6156 11.1281C16.6156 11.3151 16.5573 11.4699 16.441 11.5925C16.3247 11.713 16.1719 11.7734 15.9828 11.7734Z" fill="black" fill-opacity="0.56"/>
</svg>
