<svg width="24" height="24" viewBox="0 0 24 24" fill="none" xmlns="http://www.w3.org/2000/svg">
<path d="M12.0021 21C10.7871 21 9.60927 20.7615 8.49889 20.2924C7.42789 19.839 6.46489 19.1899 5.63914 18.3641C4.81227 17.5373 4.16314 16.5754 3.71089 15.5032C3.24289 14.394 3.00439 13.2139 3.00439 12C3.00439 10.7861 3.24177 9.60712 3.71089 8.49675C4.16427 7.42462 4.81227 6.46275 5.63914 5.63587C6.46489 4.809 7.42677 4.15987 8.49889 3.70762C9.60927 3.2385 10.7883 3 12.0021 3C13.2171 3 14.395 3.2385 15.5054 3.70762C16.5764 4.161 17.5394 4.809 18.3651 5.63587C19.1909 6.46275 19.84 7.42462 20.2923 8.49675C20.7614 9.60712 20.9988 10.785 20.9988 12C20.9988 13.215 20.7614 14.394 20.2923 15.5032C19.8389 16.5742 19.1909 17.5373 18.3651 18.3641C17.5383 19.191 16.5764 19.839 15.5054 20.2924C14.3961 20.7615 13.2171 21 12.0021 21Z" fill="#E8E8E8"/>
<path d="M14.5988 9.74648L10.9898 8.57423C10.8357 8.52473 10.667 8.57873 10.5713 8.71035L8.34158 11.7794C8.24596 11.911 8.24596 12.0887 8.34158 12.2204L10.5713 15.2905C10.6433 15.3895 10.757 15.4457 10.874 15.4457C10.9133 15.4457 10.9516 15.439 10.9898 15.4266L14.5988 14.2544C14.753 14.2037 14.8576 14.0597 14.8576 13.8977V10.1031C14.8576 9.93998 14.753 9.79598 14.5988 9.74648Z" fill="#434A54"/>
<path d="M4.22521 8.9421C4.12958 8.81048 3.96083 8.75535 3.80558 8.80598L3.73471 8.8296C3.62221 8.8656 3.53446 8.95223 3.49621 9.0636C3.47821 9.11535 3.46133 9.1671 3.44446 9.21773C2.83471 11.0965 2.85271 13.0731 3.49621 14.935C3.53446 15.0464 3.62333 15.133 3.73471 15.169L3.80558 15.1926C3.84383 15.205 3.88208 15.2117 3.92146 15.2117C4.03958 15.2117 4.15321 15.1555 4.22521 15.0565L6.28621 12.2192C6.38183 12.0876 6.38183 11.9099 6.28621 11.7782L4.22521 8.9421Z" fill="#434A54"/>
<path d="M10.4453 17.5056C10.3497 17.374 10.181 17.3189 10.0257 17.3695L6.69121 18.4529C6.53708 18.5024 6.43246 18.6464 6.43246 18.8095V18.8837C6.43246 19.0019 6.48758 19.1121 6.58208 19.183C6.62596 19.2156 6.66871 19.2482 6.71371 19.2797C8.26058 20.4047 10.0876 20.9987 11.9956 20.9987C12.0518 20.9987 12.1092 20.9987 12.1666 20.9987C12.2847 20.9965 12.3938 20.9391 12.4625 20.8435L12.5063 20.7827C12.602 20.6511 12.602 20.4734 12.5063 20.3417L10.4453 17.5045V17.5056Z" fill="#434A54"/>
<path d="M20.5546 14.296L20.5107 14.2352C20.4151 14.1036 20.2463 14.0485 20.0911 14.098L16.7577 15.1825C16.6025 15.232 16.499 15.376 16.499 15.538V19.0446C16.499 19.2077 16.6036 19.3517 16.7577 19.4012L16.8286 19.4249C16.8668 19.4372 16.9051 19.4429 16.9445 19.4429C17.0198 19.4429 17.0952 19.4192 17.1593 19.3754C17.2043 19.3439 17.2482 19.3124 17.2932 19.2809C18.8907 18.1199 20.0382 16.51 20.6108 14.6256C20.6457 14.512 20.6243 14.3905 20.5557 14.296H20.5546Z" fill="#434A54"/>
<path d="M16.7566 8.81723L20.0911 9.9006C20.1293 9.91298 20.1676 9.9186 20.207 9.9186C20.3251 9.9186 20.4387 9.86235 20.5107 9.76335L20.5546 9.70373C20.6243 9.60923 20.6446 9.4866 20.6097 9.3741C20.594 9.32235 20.5782 9.2706 20.5613 9.21885C19.9516 7.3401 18.7748 5.7516 17.1593 4.62323C17.0637 4.55573 16.9411 4.53773 16.8297 4.57373L16.7588 4.59735C16.6047 4.64798 16.5001 4.79198 16.5001 4.95398V8.4606C16.5001 8.6226 16.6047 8.76773 16.7588 8.81723H16.7566Z" fill="#434A54"/>
<path d="M6.69121 5.54685L10.0257 6.63023C10.064 6.6426 10.1033 6.64823 10.1416 6.64823C10.2597 6.64823 10.3733 6.59198 10.4453 6.4941L12.5063 3.65685C12.602 3.52523 12.602 3.34748 12.5063 3.21585L12.4625 3.15623C12.3927 3.06173 12.2836 3.00435 12.1655 3.0021C12.1115 3.0021 12.0563 3.00098 12.0023 3.00098C10.028 2.99985 8.15371 3.6276 6.58208 4.8156C6.48758 4.88648 6.43358 4.99673 6.43358 5.11485V5.1891C6.43358 5.35223 6.53821 5.49623 6.69233 5.54573L6.69121 5.54685Z" fill="#434A54"/>
<path opacity="0.2" d="M20.2936 8.49675C19.8402 7.42462 19.1922 6.46275 18.3664 5.63587C17.5396 4.809 16.5777 4.161 15.5067 3.70762C14.3952 3.2385 13.2173 3 12.0023 3C11.8763 3 11.7526 3.00225 11.6277 3.00788C12.7099 3.05175 13.7607 3.28687 14.7563 3.70762C15.8273 4.161 16.7903 4.809 17.6161 5.63587C18.4418 6.46275 19.0909 7.42462 19.5443 8.49675C20.0134 9.60712 20.2519 10.785 20.2519 12C20.2519 13.215 20.0146 14.394 19.5443 15.5032C19.0909 16.5742 18.4429 17.5373 17.6161 18.3641C16.7903 19.191 15.8273 19.839 14.7563 20.2924C13.7607 20.7131 12.7111 20.9482 11.6277 20.9921C11.7526 20.9966 11.8774 21 12.0023 21C13.2173 21 14.3952 20.7615 15.5056 20.2924C16.5766 19.839 17.5396 19.1899 18.3653 18.3641C19.1911 17.5373 19.8402 16.5754 20.2924 15.5032C20.7616 14.3929 20.9989 13.2139 20.9989 12C20.9989 10.785 20.7616 9.60712 20.2924 8.49675H20.2936Z" fill="white"/>
</svg>
