<svg width="24" height="24" viewBox="0 0 24 24" fill="none" xmlns="http://www.w3.org/2000/svg">
<path d="M17.6744 4.82429C16.4974 3.64838 14.9013 3 13.1809 3C12.2581 3 11.3476 3.18299 10.4767 3.54446C9.57642 3.91836 8.76425 4.46395 8.06164 5.16542C6.7355 6.49043 5.96851 8.21757 5.90074 10.0283C5.83183 11.8492 6.47909 13.5357 7.72051 14.7782C8.89754 15.9553 10.4936 16.6025 12.214 16.6025C13.1369 16.6025 14.0473 16.4195 14.9182 16.058C15.8185 15.6842 16.6307 15.1386 17.3333 14.4371C18.6594 13.1109 19.4264 11.3838 19.4942 9.57308C19.5631 7.75218 18.9159 6.0657 17.6744 4.82316V4.82429Z" fill="#EC5564"/>
<path d="M11.8899 4.60965C12.0367 4.75536 12.0367 4.99258 11.8899 5.13942C11.743 5.28627 11.5058 5.28627 11.3589 5.13942C11.2121 4.99258 11.2121 4.75536 11.3589 4.60965C11.5058 4.4628 11.743 4.4628 11.8899 4.60965Z" fill="#D94453"/>
<path d="M10.3898 6.10971C10.5366 6.25656 10.5366 6.49377 10.3898 6.64062C10.2429 6.78634 10.0057 6.78634 9.85885 6.64062C9.71201 6.49377 9.71201 6.25656 9.85885 6.10971C10.0057 5.964 10.2429 5.964 10.3898 6.10971Z" fill="#D94453"/>
<path d="M13.39 6.64062C13.5357 6.49377 13.5357 6.25656 13.39 6.10971C13.2431 5.964 13.0059 5.964 12.859 6.10971C12.7133 6.25656 12.7133 6.49377 12.859 6.64062C13.0059 6.78634 13.2431 6.78634 13.39 6.64062Z" fill="#D94453"/>
<path d="M14.8901 4.60965C15.0369 4.75536 15.0369 4.99258 14.8901 5.13942C14.7443 5.28627 14.506 5.28627 14.3603 5.13942C14.2134 4.99258 14.2134 4.75536 14.3603 4.60965C14.506 4.4628 14.7443 4.4628 14.8901 4.60965Z" fill="#D94453"/>
<path d="M16.3901 6.64062C16.5359 6.49377 16.5359 6.25656 16.3901 6.10971C16.2433 5.964 16.0061 5.964 15.8592 6.10971C15.7135 6.25656 15.7135 6.49377 15.8592 6.64062C16.0061 6.78634 16.2433 6.78634 16.3901 6.64062Z" fill="#D94453"/>
<path d="M7.38958 9.10992C7.53642 9.25564 7.53642 9.49285 7.38958 9.6397C7.24273 9.78654 7.00552 9.78654 6.85867 9.6397C6.71182 9.49285 6.71182 9.25564 6.85867 9.10992C7.00552 8.96307 7.24273 8.96307 7.38958 9.10992Z" fill="#D94453"/>
<path d="M8.88967 8.13961C9.03652 7.99389 9.03652 7.75668 8.88967 7.60983C8.74282 7.46298 8.50561 7.46298 8.35876 7.60983C8.21192 7.75668 8.21192 7.99389 8.35876 8.13961C8.50561 8.28645 8.74282 8.28645 8.88967 8.13961Z" fill="#D94453"/>
<path d="M10.3898 9.10992C10.5366 9.25564 10.5366 9.49285 10.3898 9.6397C10.2429 9.78654 10.0057 9.78654 9.85885 9.6397C9.71201 9.49285 9.71201 9.25564 9.85885 9.10992C10.0057 8.96307 10.2429 8.96307 10.3898 9.10992Z" fill="#D94453"/>
<path d="M11.8899 8.13961C12.0367 7.99389 12.0367 7.75668 11.8899 7.60983C11.743 7.46298 11.5058 7.46298 11.3589 7.60983C11.2121 7.75668 11.2121 7.99389 11.3589 8.13961C11.5058 8.28645 11.743 8.28645 11.8899 8.13961Z" fill="#D94453"/>
<path d="M13.3899 9.10992C13.5357 9.25564 13.5357 9.49285 13.3899 9.6397C13.2431 9.78654 13.0059 9.78654 12.859 9.6397C12.7122 9.49285 12.7133 9.25564 12.859 9.10992C13.0059 8.96307 13.2431 8.96307 13.3899 9.10992Z" fill="#D94453"/>
<path d="M14.8901 8.13961C15.0369 7.99389 15.0369 7.75668 14.8901 7.60983C14.7443 7.46298 14.506 7.46298 14.3603 7.60983C14.2134 7.75668 14.2134 7.99389 14.3603 8.13961C14.506 8.28645 14.7443 8.28645 14.8901 8.13961Z" fill="#D94453"/>
<path d="M16.3901 9.10992C16.5359 9.25564 16.5359 9.49285 16.3901 9.6397C16.2433 9.78654 16.0061 9.78654 15.8592 9.6397C15.7135 9.49285 15.7135 9.25564 15.8592 9.10992C16.0061 8.96307 16.2433 8.96307 16.3901 9.10992Z" fill="#D94453"/>
<path d="M17.8903 8.13961C18.036 7.99389 18.036 7.75668 17.8903 7.60983C17.7434 7.46298 17.5062 7.46298 17.3593 7.60983C17.2136 7.75668 17.2136 7.99389 17.3593 8.13961C17.5062 8.28645 17.7434 8.28645 17.8903 8.13961Z" fill="#D94453"/>
<path d="M8.88967 10.61C9.03652 10.7569 9.03652 10.9941 8.88967 11.1409C8.74282 11.2866 8.50561 11.2866 8.35876 11.1409C8.21192 10.9941 8.21192 10.7569 8.35876 10.61C8.50561 10.4643 8.74282 10.4643 8.88967 10.61Z" fill="#D94453"/>
<path d="M10.3898 12.6399C10.5366 12.4942 10.5366 12.257 10.3898 12.1101C10.2429 11.9633 10.0057 11.9633 9.85885 12.1101C9.71201 12.257 9.71201 12.4942 9.85885 12.6399C10.0057 12.7867 10.2429 12.7867 10.3898 12.6399Z" fill="#D94453"/>
<path d="M11.8899 10.61C12.0367 10.7569 12.0367 10.9941 11.8899 11.1409C11.743 11.2866 11.5058 11.2866 11.3589 11.1409C11.2121 10.9941 11.2121 10.7569 11.3589 10.61C11.5058 10.4643 11.743 10.4643 11.8899 10.61Z" fill="#D94453"/>
<path d="M13.3899 12.6399C13.5357 12.4942 13.5357 12.257 13.3899 12.1101C13.2431 11.9633 13.0059 11.9633 12.859 12.1101C12.7122 12.257 12.7122 12.4942 12.859 12.6399C13.0059 12.7867 13.2431 12.7867 13.3899 12.6399Z" fill="#D94453"/>
<path d="M14.8901 10.61C15.0369 10.7569 15.0369 10.9941 14.8901 11.1409C14.7443 11.2866 14.506 11.2866 14.3603 11.1409C14.2134 10.9941 14.2134 10.7569 14.3603 10.61C14.506 10.4643 14.7443 10.4643 14.8901 10.61Z" fill="#D94453"/>
<path d="M16.3901 12.6399C16.5359 12.4942 16.5359 12.257 16.3901 12.1101C16.2433 11.9633 16.0061 11.9633 15.8592 12.1101C15.7135 12.257 15.7135 12.4942 15.8592 12.6399C16.0061 12.7867 16.2433 12.7867 16.3901 12.6399Z" fill="#D94453"/>
<path d="M17.8903 10.61C18.036 10.7569 18.036 10.9941 17.8903 11.1409C17.7434 11.2866 17.5062 11.2866 17.3593 11.1409C17.2136 10.9941 17.2136 10.7569 17.3593 10.61C17.5062 10.4643 17.7434 10.4643 17.8903 10.61Z" fill="#D94453"/>
<path d="M11.8899 14.14C12.0367 13.9943 12.0367 13.7559 11.8899 13.6102C11.743 13.4633 11.5058 13.4633 11.3589 13.6102C11.2121 13.7559 11.2121 13.9943 11.3589 14.14C11.5058 14.2868 11.743 14.2868 11.8899 14.14Z" fill="#D94453"/>
<path d="M13.3899 15.1092C13.5357 15.256 13.5357 15.4932 13.3899 15.6401C13.2431 15.7858 13.0059 15.7858 12.859 15.6401C12.7122 15.4932 12.7122 15.256 12.859 15.1092C13.0059 14.9634 13.2431 14.9634 13.3899 15.1092Z" fill="#D94453"/>
<path d="M14.8901 14.14C15.0369 13.9943 15.0369 13.7559 14.8901 13.6102C14.7443 13.4633 14.506 13.4633 14.3603 13.6102C14.2134 13.7559 14.2134 13.9943 14.3603 14.14C14.506 14.2868 14.7443 14.2868 14.8901 14.14Z" fill="#D94453"/>
<path d="M5.95387 11.1704L6.34923 13.9119L3.1412 16.5574C3.06777 16.6184 3.02033 16.7043 3.0079 16.7992C3.00226 16.8421 2.88478 17.8519 3.76586 18.733C4.4583 19.4243 5.23207 19.4989 5.53367 19.4989C5.62629 19.4989 5.6839 19.4932 5.69972 19.491C5.7946 19.4785 5.88045 19.4311 5.94145 19.3577L8.58694 16.1496L11.3285 16.545L5.95387 11.1704Z" fill="#F3BD8D"/>
<path opacity="0.2" d="M19.4942 9.57421C19.5631 7.75331 18.9158 6.06684 17.6744 4.82429C17.5863 4.73618 17.4948 4.65033 17.4022 4.56787C18.4753 5.77879 19.0277 7.35344 18.9644 9.0433C18.8966 10.854 18.1285 12.5812 16.8035 13.9062C16.1009 14.6077 15.2887 15.1532 14.3884 15.5271C13.5175 15.8886 12.6071 16.0716 11.6842 16.0716C11.3849 16.0716 11.0889 16.0513 10.7986 16.0129L10.7794 16.0106C10.7455 16.0061 10.7105 16.0016 10.6766 15.9959L8.05709 15.6175L5.41159 18.8255C5.35059 18.899 5.26475 18.9464 5.16986 18.9588C5.15405 18.9611 5.09531 18.9679 5.00381 18.9679C4.74401 18.9679 4.12951 18.9114 3.51953 18.4483C3.59182 18.5431 3.67316 18.638 3.76691 18.7307C4.45935 19.422 5.23312 19.4965 5.53472 19.4965C5.62734 19.4965 5.68495 19.4909 5.70077 19.4886C5.79565 19.4762 5.8815 19.4287 5.9425 19.3553L8.588 16.1473L11.2075 16.5257C11.2414 16.5302 11.2764 16.5359 11.3103 16.5404L11.3295 16.5426C11.6198 16.581 11.9158 16.6014 12.2151 16.6014C13.138 16.6014 14.0484 16.4184 14.9193 16.0569C15.8196 15.683 16.6318 15.1374 17.3344 14.436C18.6605 13.1098 19.4275 11.3827 19.4953 9.57195L19.4942 9.57421Z" fill="white"/>
<path d="M18.7499 16.4995C17.5085 16.4995 16.4998 17.5082 16.4998 18.7497C16.4998 19.9911 17.5085 20.9998 18.7499 20.9998C19.9913 20.9998 21 19.9911 21 18.7497C21 17.5082 19.9902 16.4995 18.7499 16.4995Z" fill="#E5E8EC"/>
<path opacity="0.3" d="M18.7498 16.4995C18.6865 16.4995 18.6244 16.5018 18.5623 16.5074C19.7156 16.6034 20.6249 17.5715 20.6249 18.7497C20.6249 19.9278 19.7156 20.8959 18.5623 20.9919C18.6244 20.9964 18.6865 20.9998 18.7498 20.9998C19.9901 20.9998 20.9999 19.9911 20.9999 18.7497C20.9999 17.5082 19.9901 16.4995 18.7498 16.4995Z" fill="white"/>
</svg>
