<svg width="24" height="24" viewBox="0 0 24 24" fill="none" xmlns="http://www.w3.org/2000/svg">
<path d="M22.0001 12.359C22.0048 14.7736 21.1246 17.1062 19.526 18.9158C19.3491 19.1297 19.1602 19.3335 18.9602 19.526C18.7605 19.7258 18.5497 19.9143 18.3389 20.0919C16.513 21.5839 14.2177 22.3813 11.86 22.3427C9.50231 22.3042 7.23439 21.4321 5.45825 19.8811C5.31402 19.759 5.18089 19.637 5.04769 19.5039L4.84799 19.3042C4.65124 19.1079 4.46603 18.9005 4.29327 18.6829C2.76182 16.8159 1.95942 14.4569 2.03491 12.0434C2.1104 9.62992 3.05864 7.32569 4.70376 5.55812C4.88864 5.3548 5.08496 5.16218 5.29177 4.9812C5.50256 4.7815 5.72445 4.61509 5.93525 4.44867C7.71916 3.07366 9.91589 2.34282 12.168 2.37505C14.4201 2.40728 16.595 3.20069 18.3389 4.62618C18.5496 4.80369 18.7604 4.9923 18.9601 5.192C19.1601 5.38458 19.349 5.5883 19.526 5.80219C21.1246 7.61182 22.0047 9.94443 22.0001 12.359Z" fill="#B7DB38"/>
<path d="M8.9427 11.9253C8.9427 12.0839 8.9427 12.2426 8.93435 12.3928C8.87745 13.8091 8.5405 15.2001 7.94296 16.4855C7.34541 17.7709 6.49912 18.9251 5.45296 19.8815C5.31095 19.7647 5.17744 19.6394 5.04389 19.5059L4.84348 19.3055C4.64877 19.1068 4.46484 18.8977 4.29248 18.6793C5.18584 17.8715 5.9089 16.8934 6.41927 15.8024C6.92963 14.7114 7.21703 13.5295 7.26461 12.326C7.27296 12.1924 7.27296 12.0588 7.27296 11.9252C7.28028 9.55009 6.35725 7.26652 4.70156 5.56357C4.89356 5.36321 5.08561 5.16285 5.29433 4.97916C5.50305 4.78714 5.72013 4.61181 5.93715 4.44482C7.87402 6.45234 8.95217 9.13573 8.9427 11.9253Z" fill="#EBEBF0"/>
<path d="M16.7574 12.3593C16.753 13.5835 16.9963 14.7959 17.4726 15.9236C17.9489 17.0513 18.6485 18.071 19.5291 18.9214C19.3509 19.1345 19.1614 19.3379 18.9614 19.5308C18.7628 19.7282 18.5538 19.915 18.3353 20.0902C17.307 19.0823 16.4902 17.8794 15.9325 16.552C15.3749 15.2245 15.0876 13.7991 15.0876 12.3593C15.0876 10.9195 15.3749 9.4941 15.9325 8.16664C16.4902 6.83918 17.307 5.6363 18.3353 4.62842C18.5538 4.80362 18.7628 4.99033 18.9614 5.18776C19.1614 5.38066 19.3509 5.58412 19.5291 5.79725C18.6485 6.64758 17.9489 7.66728 17.4726 8.79499C16.9963 9.9227 16.753 11.1351 16.7574 12.3593Z" fill="#EBEBF0"/>
</svg>
