<svg xmlns="http://www.w3.org/2000/svg" width="50" height="50" viewBox="0 0 50 50"><g fill="none" fill-rule="evenodd" transform="translate(0 1)"><path fill="#F6D551" d="M21.732 39.6c4.833 3.258 10.683 4.97 16.577 4.939-4.945 3.059-11.086 4.163-16.26 3.482-.018-.099-.04-.236-.067-.412l-.042-.294c-.044-.323-.097-.734-.158-1.233-.308-2.175-.314-4.353-.05-6.481Zm6.438-24.504c.715 1.226 1.336 2.556 1.87 3.999-8.308 6.093-13.176 16.79-11.66 27.468l.111.798-.049-.011c-3.052-.793-5.487-2.028-7.66-3.452-.033-.11-.06-.856-.08-2.235-.376-13.01 6.26-22.432 16.082-26.056l1.386-.511Zm3.846 6.809.43.224c5.329 2.764 11.54 3.77 17.554 2.935-.058 1.91-.356 3.752-.865 5.546-7.435 2.17-15.664.845-21.893-3.422l-.336-.23c1.46-1.918 3.18-3.629 5.11-5.053Zm-20.857-18.016 1.657.47c1.66.471 3.19 1.004 4.6 1.606-8.855 4.138-15.142 12.692-16.613 24.179-2.276-8.4.015-19.392 10.356-26.255Zm33.177 4.021c3.289 4.167 5.351 8.712 5.55 13.83l-1.528.172c-.138-5.895-1.84-10.193-4.022-14.002Zm-25.119-7.43c.567.034 1.53.276 2.89.726 9.698 3.19 16.165 10.918 17.125 19.615l.023.257-.9-.25c-1.195-.357-2.362-.801-3.488-1.331l-.836-.414-.424-.22c-2.963-8.749-8.583-14.144-18.018-17.245 1.128-.455 2.359-.838 3.628-1.138Z"/><path fill="#000" d="m25.197 41.588.335.163c3.96 1.854 8.356 2.811 12.777 2.788-4.945 3.059-11.086 4.163-16.26 3.482l-.077-.48c-.05-.35-.114-.836-.19-1.46-.173-1.223-.251-2.449-.239-3.666.942-.147 1.862-.34 2.762-.576l.892-.25Zm-14.485.542c2.548.51 5.021.703 7.394.616.002 1.267.092 2.542.273 3.817l.112.798-.049-.011c-3.052-.793-5.487-2.028-7.66-3.452l-.017-.123c-.02-.218-.036-.692-.05-1.423l-.003-.222Zm39.288-17.066c-.058 1.91-.356 3.752-.865 5.546-3.186.93-6.518 1.218-9.776.908 1.399-1.938 2.544-4.065 3.403-6.33 2.398.25 4.834.21 7.238-.124Zm-5.664-17.154c3.289 4.167 5.351 8.712 5.55 13.83l-1.528.172c-.138-5.895-1.84-10.193-4.022-14.002Z" opacity=".297"/><path fill="#74A7F8" d="M21.349 8.021c1.858 1.186 3.44 2.566 4.784 4.169l-.54.197c-11.182 4.126-18.746 14.866-18.326 29.375l-.019-.75c-1.342-1.277-2.438-2.654-3.384-4.091l-.001-.083 0-.205c.001-.46.023-1.23.063-2.309.346-12.7 6.697-21.855 15.95-25.692l1.473-.61Zm3.66 21.8.289.198c6.363 4.359 14.528 6.013 22.24 4.509-1.18 2.45-2.963 4.58-4.453 6.106-6.789 1.31-13.988-.15-19.577-3.978l-1.049-.716c.59-2.144 1.453-4.203 2.55-6.119Zm3.031-29.821c1.544.164 3.108.473 4.705.98l.042.018c8.067 3.445 12.378 10.486 13.256 20.128l.07.789c-1.12.01-2.24-.05-3.35-.18l-.045-.564c-.7-8.775-6.188-16.709-14.678-21.171Z"/><path fill="#000" d="M47.539 34.528c-1.18 2.45-2.964 4.58-4.454 6.106-4.448.859-9.072.528-13.305-.88 2.612-1.338 4.955-3.075 6.964-5.128 3.543.618 7.218.6 10.795-.098Zm-1.496-13.402.07.789c-.775.007-1.55-.02-2.32-.08.616-2.556.881-5.245.754-8.007.76 2.225 1.256 4.664 1.496 7.298Z" opacity=".295"/></g></svg>