<svg width="24" height="24" viewBox="0 0 24 24" fill="none" xmlns="http://www.w3.org/2000/svg">
<path d="M18.3452 18.3777C21.1675 15.5685 21.8703 11.1124 19.7856 7.50005C18.5465 5.35242 16.5562 3.90905 14.3377 3.31055C14.1421 3.36005 7.61132 5.06105 11.9955 11.9989C20.3006 11.6637 18.3519 18.3495 18.3441 18.3765L18.3452 18.3777Z" fill="#F5BA42"/>
<path d="M10.6157 7.00146L10.5359 7.04084C10.3425 8.28059 10.6685 9.90059 11.9954 11.9998C20.3005 11.6646 18.3518 18.3505 18.344 18.3775C19.411 17.3155 20.1745 16.0183 20.5996 14.62C20.6232 14.287 21.0359 7.00146 10.6146 7.00146H10.6157Z" fill="#4A88DB"/>
<path d="M3.30127 14.3128C4.32113 18.1626 7.82713 20.9998 11.9965 20.9998C14.4748 20.9998 16.7192 19.9963 18.3462 18.3741C18.4013 18.1795 20.1937 11.6702 11.9965 12.001C8.13298 19.3641 3.32038 14.332 3.30127 14.3128Z" fill="#5D9BEB"/>
<path d="M18.3452 18.3777C21.1675 15.5685 21.8703 11.1124 19.7856 7.50005C18.5465 5.35242 16.5562 3.90905 14.3377 3.31055C14.1421 3.36005 7.61132 5.06105 11.9955 11.9989C20.3006 11.6637 18.3519 18.3495 18.3441 18.3765L18.3452 18.3777Z" fill="#F5BA42"/>
<path d="M10.6157 7.00146L10.5359 7.04084C10.3425 8.28059 10.6685 9.90059 11.9954 11.9998C20.3005 11.6646 18.3518 18.3505 18.344 18.3775C19.411 17.3155 20.1745 16.0183 20.5996 14.62C20.6232 14.287 21.0359 7.00146 10.6146 7.00146H10.6157Z" fill="#4A88DB"/>
<path d="M3.30127 14.3128C4.32113 18.1626 7.82713 20.9998 11.9965 20.9998C14.4748 20.9998 16.7192 19.9963 18.3462 18.3741C18.4013 18.1795 20.1937 11.6702 11.9965 12.001C8.13298 19.3641 3.32038 14.332 3.30127 14.3128Z" fill="#5D9BEB"/>
<path d="M17.0127 13.3039L17.0172 13.215C16.0411 12.4264 14.4759 11.8999 11.9954 12C8.13298 19.3642 3.32038 14.3321 3.30127 14.313C3.68695 15.7687 4.42796 17.0782 5.42533 18.1459C5.70194 18.3337 11.802 22.3331 17.0127 13.305V13.3039Z" fill="#F5BA42"/>
<path d="M14.3423 3.31057C10.5001 2.26994 6.29131 3.88882 4.2066 7.50119C2.96747 9.64882 2.71335 12.0946 3.3048 14.3164C3.44536 14.4604 8.18374 19.2687 11.9967 12.0012C7.55405 4.97107 14.3153 3.31732 14.3423 3.31057Z" fill="#FFCD54"/>
<path d="M8.35909 15.6956L8.4333 15.744C9.60384 15.2917 10.8418 14.1994 11.9955 12C7.55399 4.971 14.3152 3.31725 14.3422 3.3105C12.8894 2.91675 11.385 2.90325 9.96141 3.234C9.66119 3.37912 3.14844 6.66525 8.35909 15.6945V15.6956Z" fill="#5D9BEB"/>
<path opacity="0.49" d="M18.3644 5.62906C17.1871 4.45119 15.7636 3.67719 14.2614 3.28906C15.306 3.72781 16.2865 4.36906 17.1377 5.22069C20.6527 8.73744 20.6527 14.4401 17.1377 17.9568C14.8 20.2957 11.4964 21.0697 8.51099 20.2968C11.7831 21.6727 15.7006 21.0314 18.3644 18.3652C21.8794 14.8484 21.8794 9.14581 18.3644 5.62906Z" fill="white"/>
</svg>
