<svg width="24" height="24" viewBox="0 0 24 24" fill="none" xmlns="http://www.w3.org/2000/svg">
<path d="M7.78356 18.5918H16.3436C16.7053 18.5918 17.0002 18.882 17.0002 19.2405V20.0007H7.12695V19.2405C7.12695 18.8831 7.4207 18.5918 7.78356 18.5918V18.5918Z" fill="#F5B656"/>
<path d="M8.60375 17.7441H15.5096C15.7515 17.7441 15.9474 17.9376 15.9474 18.1766V18.592H8.16602V18.1766C8.16602 17.9376 8.36185 17.7441 8.60375 17.7441V17.7441Z" fill="#F9C67D"/>
<path d="M14.9237 17.2348C14.9871 17.4134 15.0689 17.583 15.1714 17.7446H10.6973C10.6973 17.7446 12.8364 16.8945 14.782 13.6634C14.9952 13.3072 15.1841 12.9669 15.3546 12.6426H15.3649C15.3649 12.6426 14.9825 13.5519 14.797 14.6866C14.6622 15.5071 14.6323 16.4404 14.9237 17.2348V17.2348Z" fill="#F5B656"/>
<path d="M11.8239 12.4259C14.3165 12.4259 16.3372 10.4295 16.3372 7.96684C16.3372 5.50419 14.3165 3.50781 11.8239 3.50781C9.33122 3.50781 7.31055 5.50419 7.31055 7.96684C7.31055 10.4295 9.33122 12.4259 11.8239 12.4259Z" fill="#F5B656"/>
<path d="M14.4901 4.36476C14.0178 4.02334 13.4902 3.77865 12.92 3.63639C12.3498 3.49413 11.768 3.4634 11.1886 3.54306C10.5884 3.62501 10.0182 3.82417 9.4941 4.13373C9.43996 4.1656 9.38697 4.1986 9.33398 4.23275C9.81204 3.97554 10.3258 3.80824 10.8638 3.73426C11.4432 3.6546 12.0261 3.68646 12.5951 3.82759C13.1642 3.96985 13.6929 4.21454 14.1652 4.55596C14.6536 4.90991 15.0603 5.35149 15.3736 5.86932C15.6869 6.38715 15.8885 6.9505 15.9715 7.54344C16.0521 8.1159 16.0198 8.69178 15.877 9.25399C15.733 9.81621 15.4853 10.3386 15.1398 10.8052C14.8184 11.2388 14.4256 11.6064 13.9705 11.9C14.0258 11.8705 14.08 11.8397 14.1341 11.8079C14.6583 11.4983 15.1064 11.0966 15.4635 10.614C15.809 10.1474 16.0567 9.62615 16.2007 9.06279C16.3447 8.49944 16.3758 7.9247 16.2952 7.35225C16.2111 6.7593 16.0106 6.19595 15.6973 5.67812C15.384 5.16029 14.9773 4.71871 14.4889 4.36476H14.4901Z" fill="#F9C67D"/>
<path d="M11.8635 13.3221C11.8635 15.7667 10.3775 17.1256 9.77618 17.5751C9.6725 17.6537 9.59417 17.7037 9.55731 17.7276C9.54925 17.7322 9.54233 17.7367 9.53427 17.7413C9.53427 17.7413 9.53081 17.7436 9.52966 17.7447H8.94563C9.49626 17.2633 10.245 14.9632 8.75095 12.6427C7.79138 11.1506 7 10.2595 7 9.74964C7 9.32855 7.326 9.07703 7.45271 9.07021C7.45271 9.07021 7.48151 9.1954 7.55869 9.37749C7.79254 9.92832 8.36044 11.0266 9.52966 10.7705C9.68057 10.7375 9.80958 10.6897 9.92017 10.6305C10.7496 10.1867 10.4869 9.0998 10.3614 8.70488C10.3579 8.6935 10.3533 8.68326 10.351 8.67188C10.5284 9.1237 10.7357 9.5721 10.9408 10.0285C11.4131 11.0835 11.8646 12.1647 11.8646 13.3232L11.8635 13.3221Z" fill="#FFECDB"/>
<path d="M16.7263 7.87846C16.7263 8.38946 16.7263 10.43 14.7818 13.6622C13.54 15.7233 12.221 16.8159 11.4273 17.3371C11.0092 17.6125 10.7373 17.7275 10.7028 17.7411C10.7028 17.7411 10.6993 17.7434 10.6982 17.7434H9.53125C9.53125 17.7434 10.0035 17.468 10.5231 16.8841C11.1589 16.174 11.8651 15.0029 11.8651 13.3208C11.8651 12.7791 11.766 12.2544 11.614 11.7423C11.2857 10.6451 10.7062 9.60152 10.3088 8.55903C10.2443 8.38832 10.2431 8.24264 10.2835 8.13111C10.3606 7.90805 10.6003 7.81017 10.8433 7.9126C11.0034 7.97861 11.1624 8.13111 11.281 8.38832C11.7153 9.33635 12.0598 10.9399 13.8107 10.9399C14.2461 10.9399 14.586 10.7817 14.8509 10.5359C15.6469 9.79386 15.7552 8.26199 15.7552 7.87846C15.7552 7.49492 16.0846 7.31738 16.3577 7.38225C16.4164 7.39477 16.4728 7.41753 16.5212 7.45167C16.641 7.53475 16.7263 7.67588 16.7263 7.87846V7.87846Z" fill="white"/>
<path d="M16.7266 7.87739C16.7266 8.38839 16.7266 10.429 14.7821 13.6612C13.5404 15.7222 12.2214 16.8148 11.4277 17.336C11.0095 17.6115 10.7377 17.7264 10.7031 17.7401C10.9427 17.6069 11.1616 17.451 11.3747 17.2894C11.377 17.286 11.3805 17.2848 11.3828 17.2825C11.3828 17.2825 11.3851 17.2825 11.3851 17.2803C11.589 17.1232 11.7848 16.9616 11.9703 16.7898C13.1879 15.6869 14.1002 14.3588 14.8662 12.9874C15.395 12.0348 15.8569 11.0504 16.1979 10.0329C16.4214 9.35349 16.593 8.65812 16.6575 7.95136C16.6967 7.72602 16.631 7.46426 16.3592 7.37891C16.4179 7.39143 16.4744 7.41419 16.5227 7.44833C16.6425 7.53141 16.7278 7.67253 16.7278 7.87511L16.7266 7.87739Z" fill="#FFECDB"/>
<path d="M14.9751 8.93311C14.9751 9.67287 14.3658 10.2783 13.6135 10.2783C12.8613 10.2783 12.252 9.67287 12.252 8.93311C12.252 8.19335 12.8648 7.58789 13.6135 7.58789C14.3623 7.58789 14.9751 8.18994 14.9751 8.93311Z" fill="white"/>
<path d="M13.9248 7.62591C13.6806 7.57014 13.4364 7.58494 13.2129 7.65436C13.3822 7.62705 13.5585 7.6316 13.7347 7.67143C14.4651 7.83873 14.9201 8.55914 14.7519 9.28069C14.639 9.76096 14.2784 10.1195 13.8349 10.2572C14.3637 10.1729 14.8141 9.78258 14.942 9.23516C15.1113 8.51362 14.6563 7.79207 13.9248 7.62591Z" fill="#FFECDB"/>
<path d="M11.8644 13.3221C11.8644 15.7667 10.3784 17.1256 9.77706 17.5751C9.67339 17.6537 9.59506 17.7037 9.5582 17.7276C9.55013 17.7322 9.54322 17.7367 9.53516 17.7413C10.2482 17.1996 10.6721 16.5099 11.0373 15.7701C11.7826 14.2633 11.7204 12.5698 11.1191 11.0254C10.8357 10.2561 10.6226 9.48333 10.3611 8.70488C10.3576 8.6935 10.353 8.68326 10.3507 8.67188C10.5281 9.1237 10.7355 9.5721 10.9405 10.0285C11.4128 11.0835 11.8644 12.1647 11.8644 13.3232V13.3221Z" fill="#F5B656"/>
<path d="M14.9229 17.2348C14.9863 17.4134 15.0681 17.583 15.1706 17.7446C14.0578 16.3482 14.6004 14.0527 15.3538 12.6426H15.3641C15.3641 12.6426 14.9817 13.5519 14.7962 14.6866C14.6614 15.5071 14.6315 16.4404 14.9229 17.2348V17.2348Z" fill="#F9C67D"/>
</svg>
