<svg xmlns="http://www.w3.org/2000/svg" width="50" height="50" viewBox="0 0 50 50"><g fill="none" fill-rule="evenodd" transform="rotate(24 25 25)"><circle cx="25" cy="25" r="25" fill="#1A1A1A"/><circle cx="24.999" cy="25.062" r="21.29" fill="#6D6570"/><path fill="#EB5556" fill-rule="nonzero" d="M24.9991684,3.77174221 C36.757424,3.77174221 46.2893734,13.3036916 46.2893734,25.0619472 C46.2893734,36.8202027 36.757424,46.3521521 24.9991684,46.3521521 C13.2409129,46.3521521 3.70896349,36.8202027 3.70896349,25.0619472 C3.70896349,13.3036916 13.2409129,3.77174221 24.9991684,3.77174221 Z M24.9991684,8.58348906 C15.8983673,8.58348906 8.52071035,15.9611461 8.52071035,25.0619472 C8.52071035,34.1627483 15.8983673,41.5404053 24.9991684,41.5404053 C34.0999695,41.5404053 41.4776265,34.1627483 41.4776265,25.0619472 C41.4776265,15.9611461 34.0999695,8.58348906 24.9991684,8.58348906 Z"/><path fill="#FAF8F8" d="M25.9724191,29.8294738 L29.0479356,45.967908 C28.3374583,46.1046458 27.6144119,46.2060651 26.8806952,46.2702673 C26.2468134,46.3225655 25.6135295,46.3495866 24.9807498,46.351987 C23.6024807,46.3508735 22.2551646,46.2186955 20.9502601,45.9673747 L24.0305804,29.8294738 L25.9724191,29.8294738 Z M21.0891584,27.956543 L22.5322258,29.2558868 L14.0201612,43.305872 C13.3839683,42.9221487 12.7694778,42.5060888 12.1789659,42.0599683 C11.6968243,41.6926161 11.2315363,41.3086194 10.78151,40.9083553 C9.76222727,39.9929036 8.83183511,38.9808745 8.00471387,37.8864447 L21.0891584,27.956543 Z M29.1495612,27.601347 L43.0502479,36.3579307 C42.678512,36.9506733 42.2783881,37.5238014 41.8517818,38.0754096 C41.4376528,38.6038679 41.0037754,39.1126175 40.5502484,39.6022767 L40.231478,39.9377667 C39.3979952,40.7910241 38.4934045,41.5745185 37.527286,42.2786694 L27.8252304,29.021518 L29.1495612,27.601347 Z M4.02764003,21.3791631 L20.2154637,24.1767115 L20.2493535,26.1182544 L4.1683906,29.4757683 C4.01581452,28.7520572 3.89999806,28.014798 3.82298577,27.266035 C3.76395474,26.6723694 3.7279568,26.078709 3.71363816,25.4851141 L3.71313017,25.4140196 L3.71027789,25.0619472 C3.71027789,23.8059835 3.81903311,22.575421 4.02764003,21.3791631 Z M45.8335698,20.6596845 C46.1069856,21.993986 46.2578477,23.3403301 46.2861561,24.6987168 L46.2900903,25.2231487 C46.2897861,25.2641641 46.289366,25.3051519 46.2888302,25.3461118 L46.2793079,25.7647125 C46.2671786,26.1387098 46.2454033,26.5102689 46.2142228,26.8791492 L46.2307956,26.6865809 C46.2219033,26.8006792 46.2120208,26.9144915 46.2011481,27.0280179 C46.1484374,27.578395 46.0724541,28.1220522 45.9731982,28.6589896 L29.7827389,25.9389761 L29.7496714,24.0445405 L45.8335698,20.6596845 Z M12.4103188,7.90441108 L22.1672804,21.1078631 L20.8750816,22.4935766 L6.95637058,13.7569551 C7.06514324,13.5837065 7.17634188,13.4121355 7.28991887,13.2422896 C7.91403608,12.3159143 8.60348577,11.4412304 9.35818015,10.6182364 C10.0418813,9.87900733 10.7772484,9.18769759 11.5586868,8.550757 C11.8373392,8.32604896 12.1212752,8.11078779 12.4103188,7.90441108 Z M35.9890117,6.82297504 C36.0071048,6.83389915 36.0251804,6.84484942 36.0432384,6.8558258 L35.988474,6.82203969 C37.1507895,7.53206744 38.238331,8.33993835 39.2510984,9.2456524 L39.6218877,9.58649506 C40.0850224,10.024225 40.5285162,10.4825188 40.9509084,10.9599157 L41.2399985,11.2949582 C41.4810098,11.5826643 41.7123508,11.8761565 41.9340218,12.1754349 L28.9028632,22.1613425 L27.4948087,20.8935245 Z M25.0054933,3.77174278 C25.0091676,3.77174363 25.0128416,3.77174541 25.0165154,3.77174811 L25.4549016,3.77649565 C26.0992424,3.78998759 26.7365443,3.83210521 27.3655869,3.90162811 C27.9048546,3.96305949 28.4367114,4.04733221 28.9617103,4.1538889 L25.9595486,20.2944115 L24.0648244,20.2944115 L20.9602601,4.15459611 C20.9865957,4.14953707 21.0129486,4.14452655 21.0393186,4.13956466 L20.9611867,4.1538889 C22.1087896,3.93952826 23.2636673,3.81534778 24.42582,3.78134747 Z"/><path fill="#68D977" d="M28.1465163,41.2401768 L29.0476182,45.9677161 C28.7012362,46.0343977 28.3518664,46.0926843 27.9997287,46.1423561 L28.4310807,46.0772028 C28.2680496,46.1036127 28.1043979,46.1281712 27.9401478,46.1508561 L27.9997287,46.1423561 C27.83515,46.1655712 27.6699667,46.1869045 27.5042012,46.2063335 C27.3168355,46.2282942 27.1287261,46.2478221 26.9399054,46.2648847 L26.8376473,46.273878 L26.8806952,46.2702673 C26.2488161,46.3224003 25.6175313,46.3494156 24.9867477,46.3519636 L24.9572779,46.3517422 L24.3919915,46.3435202 C24.1805425,46.3376027 23.9698707,46.3286001 23.7600184,46.316556 L23.8547763,46.3219202 C23.6497322,46.3110599 23.4454576,46.2972984 23.2419928,46.280676 L23.7600184,46.316556 C23.5708427,46.3056987 23.3823329,46.2923699 23.1945199,46.2766016 L23.2419928,46.280676 C23.0649054,46.2662086 22.8884314,46.249574 22.7125974,46.2307988 L23.1945199,46.2766016 C22.9973416,46.2600471 22.8009315,46.2408039 22.6053251,46.2189092 C22.2541774,46.1796044 21.9056202,46.1317548 21.5598606,46.0755757 C21.5182929,46.0690384 21.476871,46.0621842 21.4354897,46.0552106 L20.9502601,45.9673747 L21.8518206,41.2401768 C22.8705982,41.4372111 23.9228322,41.5404053 24.9991684,41.5404053 C26.0755047,41.5404053 27.1277387,41.4372111 28.1465163,41.2401768 Z M16.5135024,39.1904524 L14.0201612,43.305872 L13.9754806,43.279645 L14.0201612,43.305872 C13.3839683,42.9221487 12.7694778,42.5060888 12.1789659,42.0599683 C11.6968243,41.6926161 11.2315363,41.3086194 10.78151,40.9083553 C9.76222727,39.9929036 8.83183511,38.9808745 8.00471387,37.8864447 L11.8363898,34.9771766 C13.1084249,36.663182 14.6968961,38.097041 16.5135024,39.1904524 Z M38.977276,33.7926226 L43.0489335,36.3579307 C42.8002328,36.7544904 42.5388259,37.1422708 42.2652832,37.5207012 C42.1607234,37.6653535 42.0543906,37.8086397 41.9463164,37.950528 L41.8226957,38.1112401 L41.8517818,38.0754096 C41.4376528,38.6038679 41.0037754,39.1126175 40.5502484,39.6022767 L40.3925448,39.7697089 C40.3080229,39.8581458 40.2227466,39.9458555 40.136726,40.0328277 L39.8940467,40.2743021 C39.7467001,40.4185927 39.5972658,40.5607597 39.4457935,40.7007536 L39.7772324,40.3890945 C39.6376205,40.5237236 39.496174,40.6564629 39.352934,40.7872713 L39.4457935,40.7007536 C39.309946,40.8263067 39.1724593,40.9501118 39.033369,41.0721334 L39.352934,40.7872713 C39.1962881,40.930322 39.0374973,41.0710635 38.8766156,41.2094418 L39.033369,41.0721334 C38.8814325,41.2054248 38.7275825,41.3365878 38.5718656,41.4655761 L38.8766156,41.2094418 C38.7156385,41.3479021 38.552568,41.4839964 38.3874579,41.6176708 L38.5718656,41.4655761 C38.4083568,41.6010188 38.2427895,41.7340636 38.0752178,41.8646566 L38.3874579,41.6176708 C38.2274925,41.74718 38.0656128,41.8744177 37.9018677,41.9993349 L38.0752178,41.8646566 C37.9237855,41.9826716 37.7707163,42.0986844 37.6160499,42.212655 C37.5864728,42.2344499 37.5568372,42.25617 37.5271436,42.2778152 L34.6853344,38.3944685 C36.3934553,37.1513679 37.8535159,35.5880058 38.977276,33.7926226 Z M4.02764003,21.3791631 L8.76874559,22.1977755 C8.60572007,23.1279817 8.52071035,24.0850369 8.52071035,25.0619472 C8.52071035,26.2386378 8.64404463,27.3865222 8.87849117,28.4933783 L4.1683906,29.4757683 C4.01581452,28.7520572 3.89999806,28.014798 3.82298577,27.266035 C3.76395474,26.6723694 3.7279568,26.078709 3.71363816,25.4851141 L3.71313017,25.4140196 L3.71027789,25.0619472 C3.71027789,23.8059835 3.81903311,22.575421 4.02764003,21.3791631 Z M45.848103,20.7287914 L45.8335698,20.6596845 C46.1069856,21.993986 46.2578477,23.3403301 46.2861561,24.6987168 L46.2882779,25.1377422 L46.2865211,25.4140196 C46.2772184,25.9877868 46.2452182,26.5560365 46.1913795,27.1179099 L46.2011481,27.0280179 C46.1484374,27.578395 46.0724541,28.1220522 45.9731982,28.6589896 L41.240323,27.8641881 C41.3963457,26.9534512 41.4776265,26.0171912 41.4776265,25.0619472 C41.4776265,23.8923237 41.3557693,22.7511616 41.1240579,21.6504638 L45.8335423,20.6589625 C45.8384339,20.6822248 45.8432875,20.7055011 45.848103,20.7287914 Z M12.4103188,7.90441108 L15.264185,11.7650899 C13.5824161,12.9984441 12.1432735,14.5431643 11.0316815,16.3143265 L6.95637058,13.7569551 C7.06514324,13.5837065 7.17634188,13.4121355 7.28991887,13.2422896 C7.90979208,12.3222136 8.59411228,11.4531285 9.34279344,10.6350327 L9.39887778,10.5737588 L9.35818015,10.6182364 C10.0418813,9.87900733 10.7772484,9.18769759 11.5586868,8.550757 C11.8373392,8.32604896 12.1212752,8.11078779 12.4103188,7.90441108 Z M35.9890117,6.82297504 L36.0760125,6.87658999 L35.988474,6.82203969 C37.1413121,7.52627792 38.2205905,8.32677018 39.2263093,9.22351649 L39.2799738,9.27149174 L39.5832957,9.55134655 C39.6260087,9.59152358 39.6685557,9.63187507 39.7109356,9.67239986 L40.0138796,9.9678657 C40.1484068,10.1016899 40.2811552,10.2373006 40.4120862,10.374659 C40.5717186,10.5421278 40.7286495,10.7121947 40.882809,10.8847899 C40.9313997,10.9391915 40.9797151,10.9938442 41.0277529,11.048746 L41.2399985,11.2949582 C41.4810098,11.5826643 41.7123508,11.8761565 41.9340218,12.1754349 L38.122768,15.0949995 C36.8613575,13.436644 35.2927973,12.0246167 33.5018934,10.9437237 L35.9890117,6.82297504 Z M25.0032779,3.77174221 L25.0462779,3.77174221 L25.415289,3.7757276 C25.4503028,3.77639881 25.4852958,3.77715456 25.5202679,3.77799463 L26.0672266,3.7980669 C26.2828215,3.80871879 26.4975728,3.82257766 26.7114337,3.83959682 L26.1731153,3.80348851 C26.3627004,3.81377985 26.5516256,3.82655152 26.7398591,3.84177163 L26.7114337,3.83959682 C26.8980797,3.85445019 27.0840475,3.87171068 27.2693062,3.89134726 L27.4072161,3.90641832 L27.3655869,3.90162811 C27.9048546,3.96305949 28.4367114,4.04733221 28.9617103,4.1538889 L28.0845675,8.87185998 C27.0851016,8.68254506 26.0537029,8.58348906 24.9991684,8.58348906 C23.928837,8.58348906 22.8823397,8.68553502 21.8688748,8.88042854 L20.959692,4.15445275 C20.9793019,4.15068644 20.9989214,4.14694704 21.0185504,4.14323458 L20.9611867,4.1538889 C22.1087896,3.93952826 23.2636673,3.81534778 24.42582,3.78134747 L25.0032779,3.77174221 Z"/><circle cx="25" cy="25" r="6.164" fill="#68D977"/><circle cx="24.999" cy="25" r="3.202" fill="#EB5556"/></g></svg>