<svg viewBox="0 0 48 52" xmlns="http://www.w3.org/2000/svg" xmlns:xlink="http://www.w3.org/1999/xlink" sport="soccer" title="Arsenal_HomeFront_25/26">
                        <defs>
                            <path id="kit" d="M10.22 50.435c.079-8.326.118-13.766.118-16.32 0-2.553-.161-6.661-.484-12.324l-1.63 3.825c-1.213.21-2.806-.165-4.778-1.125-1.92-.933-3.059-1.912-3.418-2.937L0 21.469 4.725 9.66c.809-2.154 1.936-3.546 3.381-4.176l8.278-3.621c.72-.393 3.26-.588 7.617-.586 4.357.003 6.894.198 7.613.586l8.162 3.572c1.502.604 2.669 2.013 3.499 4.225L48 21.47c-.325 1.055-1.473 2.063-3.446 3.022-1.972.96-3.565 1.335-4.778 1.125l-1.63-3.825c-.323 5.467-.484 9.575-.484 12.325s.04 8.19.119 16.319c-.535.464-7.158 1.065-13.78 1.065-6.623 0-13.246-.6-13.78-1.065Z"></path>
                            
                        </defs>
                        <mask id="kitMask" fill="#fff">
                            <use xlink:href="#kit"></use>
                        </mask>
                        <g fill="none" fill-rule="evenodd">
                            
            <path fill="#e61717" d="M10.22 50.435c.079-8.326.118-13.766.118-16.32 0-2.553-.161-6.661-.484-12.324l-1.63 3.825c-1.213.21-2.806-.165-4.778-1.125-1.92-.933-3.059-1.912-3.418-2.937L0 21.469 4.725 9.66c.809-2.154 1.936-3.546 3.381-4.176l8.278-3.621c.72-.393 3.26-.588 7.617-.586 4.357.003 6.894.198 7.613.586l8.162 3.572c1.502.604 2.669 2.013 3.499 4.225L48 21.47c-.325 1.055-1.473 2.063-3.446 3.022-1.972.96-3.565 1.335-4.778 1.125l-1.63-3.825c-.323 5.467-.484 9.575-.484 12.325s.04 8.19.119 16.319c-.535.464-7.158 1.065-13.78 1.065-6.623 0-13.246-.6-13.78-1.065Z" coloured="" opacity="1" id="soccer-base" mask="url(#kitMask)" sport="soccer"></path><path fill="#de1616" fill-rule="evenodd" d="M31.1920941,46.4 L36.6189223,50.2 L37.762782,48.5657817 L37.7808063,50.4349257 C37.5130976,50.6672315 35.7223645,50.9336179 33.1704181,51.1418689 L31.8589223,50.223 L31.11402,51.2864135 C30.0258631,51.351708 28.8567362,51.4054465 27.6474543,51.4426883 L31.1789034,46.4 L31.1879223,46.407 L31.1920941,46.4 Z M31.1920941,36.68 L36.6189223,40.48 L37.6823294,38.960806 L37.7188012,43.7033653 L37.2940189,44.3096055 L31.8589223,40.503 L29.448,43.9442404 L29.4729223,43.9615129 L25.2940189,49.9296055 L19.8589223,46.123 L17.455,49.5542404 L17.4729223,49.5663579 L16.2936555,51.249147 L15.3045417,51.1791977 C14.5053278,51.1184368 13.7715458,51.0518415 13.1242905,50.9819654 L15.017,48.2792404 L15,48.2680926 L19.1789034,42.3 L24.6189223,46.1 L27.024,42.6642404 L27,42.6480926 L31.1789034,36.68 L31.1879223,36.687 L31.1920941,36.68 Z M10.224,50.0272404 L11.2159717,50.7227365 C10.6747681,50.625277 10.3268543,50.5274011 10.2202858,50.4349257 L10.224,50.0272404 Z M31.1920941,26.95 L36.6189223,30.75 L37.7779298,29.0961459 L37.7399833,30.1390493 C37.6886628,31.6563401 37.6625391,32.961841 37.6616124,34.055552 L37.2940189,34.5796055 L31.8589223,30.773 L29.458,34.2012404 L29.4729223,34.2115129 L25.2940189,40.1796055 L19.8589223,36.373 L17.445,39.8202404 L17.4729223,39.8401466 L13.2940189,45.8082392 L10.2807311,43.6968663 L10.3070677,40.3594341 L12.6189223,41.9786337 L15.028,38.5362404 L15,38.5180926 L19.1789034,32.55 L24.6189223,36.35 L27.015,32.9272404 L27,32.9180926 L31.1789034,26.95 L31.1879223,26.957 L31.1920941,26.95 Z M31.1920941,17.2 L36.6189223,21 L38.399,18.4562404 L38.2935188,19.8667554 L38.1908532,21.3576423 L38.1621857,21.8171378 L38.1503424,21.7912482 L38.1523424,21.8028102 L38.1463424,21.7912482 L38.0328106,23.7759561 L37.2940189,24.8296055 L31.8589223,21.023 L29.2525752,24.7453627 L29.219,24.7222404 L25.2940189,30.3296055 L19.8589223,26.523 L17.434,29.9852404 L17.4729223,30.0115129 L13.2940189,35.9796055 L10.337,33.9092404 L10.3378368,33.8459728 C10.3339588,32.9200486 10.3105128,31.8058606 10.2674989,30.503409 L12.6189223,32.15 L15.038,28.6942404 L15,28.6680926 L19.1789034,22.7 L24.6189223,26.5 L27.2203471,22.7842427 L27.252,22.8062404 L31.1789034,17.2 L31.1879223,17.207 L31.1920941,17.2 Z M31.1920941,7.2 L36.6189223,11 L39.2203471,7.28424275 L39.66,7.59224044 L39.5633857,8.148801 L39.4649458,8.7495788 L39.320983,9.69905543 L39.1814544,10.7065104 L39.0908978,11.4103607 L38.968,12.4372404 L38.8712891,12.5770302 L37.2940189,14.8296055 L31.8589223,11.023 L29.2525752,14.7453627 L29.219,14.7222404 L25.2940189,20.3296055 L19.8589223,16.523 L17.2525752,20.2453627 L17.219,20.2222404 L13.2940189,25.8296055 L9.94811941,23.4868599 L9.85365765,21.7912482 L9.84181434,21.8171378 L9.81314683,21.3576423 L9.717,19.9672404 L12.6189223,22 L15.2203471,18.2842427 L15.252,18.3072404 L19.1789034,12.7 L24.6189223,16.5 L27.2203471,12.7842427 L27.252,12.8072404 L31.1789034,7.2 L31.1879223,7.207 L31.1920941,7.2 Z M31.6139292,1.86290579 L31.779,1.93524044 L29.458,5.25124044 L29.4729223,5.26151291 L25.2940189,11.2296055 L19.8589223,7.423 L17.458,10.8512404 L17.4729223,10.8615129 L13.2940189,16.8296055 L9.201,13.9622404 L9.1308806,13.2827501 L9.00168981,12.1399845 L8.91310224,11.4103607 L8.82254557,10.7065104 L8.767,10.3012404 L12.6189223,13 L15.015,9.57724044 L15,9.56809257 L19.1789034,3.6 L24.6189223,7.4 L27.015,3.97724044 L27,3.96809257 L28.7998013,1.39924044 C30.2826574,1.49613994 31.2207,1.65069505 31.6139292,1.86290579 Z M32.418,2.21424044 L37.98,4.64924044 L37.2940189,5.62960548 L32.418,2.21424044 Z M11.17,4.14324044 L15.732,2.14724044 L13.2940189,5.62960548 L11.17,4.14324044 Z" coloured="" opacity="1" id="soccer-zigzag-03" mask="url(#kitMask)" sport="soccer"></path><path fill="#f4f0f5" fill-rule="evenodd" d="M30.2990606,-0.5 L31.6139292,0.86290579 L31.677,0.89 L31.5968671,0.912541872 C31.5316206,1.17861032 31.4207871,1.45032548 31.2643667,1.72768735 C31.4081345,1.76984334 31.5249726,1.81489928 31.6139292,1.86290579 L39.7758433,5.4345938 C41.2783083,6.03937373 42.4446058,7.44786812 43.274736,9.66007698 L48,21.4685118 C47.6754097,22.5241513 46.5267953,23.531758 44.5541569,24.4913321 C42.5815184,25.4509062 40.9887472,25.8258129 39.7758433,25.6160522 L38.1463424,21.7912482 C38.1098249,22.4089307 38.0753706,23.0092712 38.0429795,23.5922698 L38.0894472,52.1208952 L9.68043146,52.1208952 L9.74115765,22.4121434 L9.716,22.113 L9.85365765,21.7912482 C10.1656842,27.2587363 10.3270772,31.2769778 10.3378368,33.8459728 L10.3384132,34.1156766 L10.3381798,34.4732508 C10.3348353,37.1584412 10.2955373,42.4789995 10.2202858,50.4349257 C10.7554932,50.899355 17.3780196,51.5 24.000546,51.5 L24.3617382,51.4994087 C30.8618793,51.4782034 37.25533,50.8909108 37.7808063,50.4349257 C37.7050234,42.6835002 37.6653695,37.3774743 37.6618447,34.5168481 L37.6615868,34.1156766 C37.6615868,31.6764597 37.7887177,28.1686574 38.0429795,23.5922698 L38.0412513,22.4121434 L38.782409,13.6152189 C37.3203415,10.0358496 36.1754379,7.95538028 35.3476983,7.37381095 C34.9916182,7.12362931 34.0134552,6.59738337 32.4132093,5.79507313 L31.8871899,5.53253535 C31.4316081,5.30610666 30.9329458,5.06055993 30.391203,4.79589519 C29.9520795,4.60376416 29.4334797,4.41221854 28.8354036,4.22125832 C30.0116769,3.34509006 30.8210809,2.51371374 31.2643667,1.72768735 C30.2391395,1.42973018 27.818193,1.27952695 24.0005758,1.27712829 L23.5974326,1.27747024 C19.9880317,1.28583027 17.6939626,1.43729579 16.7152251,1.7318668 C17.1567028,2.51070685 17.9571946,3.33473644 19.117579,4.20334481 C18.4754482,4.40037373 17.9005104,4.59782338 17.391206,4.79589519 C14.233056,6.41179955 12.5808909,7.2711048 12.4347107,7.37381095 C11.6069711,7.95538028 10.4620675,10.0358496 9,13.6152189 L9.716,22.113 L8.2241567,25.6160522 C7.01125281,25.8258129 5.41848163,25.4509062 3.44584315,24.4913321 C1.52651922,23.5576924 0.387279465,22.5785814 0.0281238815,21.553999 L1.13686838e-13,21.4685118 L4.72526396,9.66007698 C5.53354862,7.50608415 6.66054046,6.1140616 8.10623945,5.48400935 L16.3835008,1.86290579 C16.4686956,1.81646483 16.5792703,1.77278517 16.7152251,1.7318668 C16.5556716,1.44744094 16.442956,1.16953631 16.3779567,0.897542151 L16.3325465,0.885881383 L16.3835008,0.86290579 L17.7009394,-0.5 C20.0542672,0.0215379365 22.154146,0.282865363 24.0005758,0.283982281 C25.8380118,0.285093757 27.9375067,0.0237663306 30.2990606,-0.5 Z" coloured="" opacity="1" id="soccer-shoulder-01" mask="url(#kitMask)" sport="soccer"></path><g fill="none" fill-rule="evenodd" mask="url(#kitMask)" id="soccer-shoulder-02" sport="soccer"><path fill="#e61717" fill-opacity=".5" d="M16.7161775,1.73138707 C16.7796549,1.84367345 16.850601,1.95688496 16.9290158,2.07102158 L17.7182455,3.8397491 L8.469,7.95711273 L8.3541902,7.31038844 L8.25105389,6.76962646 L8.19874728,6.50898072 L8.09265715,6.00715978 L7.98639107,5.53832989 L16.3835008,1.86290579 C16.4510987,1.82605717 16.5346749,1.79094697 16.6342294,1.75757517 L16.7161775,1.73138707 Z M31.6139292,1.86290579 L39.7758433,5.4345938 C39.8783466,5.47585397 39.9792853,5.52085497 40.0786593,5.56959682 L39.9768771,6.00329659 L39.8705431,6.50103593 L39.7661836,7.02453169 L39.6637981,7.573786 L39.6178375,7.83125604 L30.6502025,3.8397491 L31.5454936,1.82904728 L31.6139292,1.86290579 Z" coloured="" opacity="1" id="soccer-shoulder-02"></path><path fill="#e61717" d="M17.0631247,2.25745554 C17.1699585,2.39964132 17.2881819,2.54323789 17.4177949,2.68824524 L8.26549606,6.76442476 L8.23626003,6.699 L8.19874728,6.50898072 L8.13926003,6.23 L17.0631247,2.25745554 Z M31.0046565,2.13516159 L39.9518375,6.11868989 L39.8388375,6.65768989 L30.6614178,2.57312771 C30.7456272,2.47481914 30.8245471,2.37716574 30.8981777,2.28016753 L31.0046565,2.13516159 Z M16.7167061,1.73232179 C16.7683279,1.82358125 16.8248827,1.91545173 16.8863705,2.00793325 L8.07526003,5.931 L7.98639107,5.53832989 L16.3835008,1.86290579 C16.4510987,1.82605717 16.5346749,1.79094697 16.6342294,1.75757517 L16.7167061,1.73232179 Z M31.6139292,1.86290579 L39.7758433,5.4345938 C39.8783466,5.47585397 39.9792853,5.52085497 40.0786593,5.56959682 L40.0188375,5.82068989 L31.1725237,1.88276573 L31.2643837,1.72765716 C31.4081129,1.76983501 31.5249643,1.81489484 31.6139292,1.86290579 Z" coloured="" opacity="1" id="soccer-shoulder-02"></path></g><path d="M47.56 20.365 48 21.47c-.325 1.055-1.473 2.063-3.446 3.022-1.972.96-3.565 1.335-4.778 1.125l-.464-1.088.261-.038c1.596-.263 3.05-.728 4.364-1.398a13.078 13.078 0 0 0 3.622-2.727Zm-47.118.001a13.078 13.078 0 0 0 3.62 2.726c1.315.67 2.77 1.135 4.365 1.398l.26.038-.463 1.088c-1.213.21-2.806-.165-4.778-1.125-1.92-.933-3.059-1.912-3.418-2.937L0 21.469l.442-1.103Z" fill="#e61717" fill-rule="nonzero" coloured="" opacity="1" id="soccer-trim-01" mask="url(#kitMask)" sport="soccer"></path><path fill="#f4f0f5" d="M31.0713059,11.6 C31.9555171,11.6 32.5342363,11.6642145 33.1040233,11.8204815 L33.3584071,11.8962073 L33.6156629,11.9831126 L34.3027849,12.2411068 L34.399917,12.6144352 C34.7578905,14.1036212 34.6894945,15.4106176 34.1901022,16.5306227 C33.6407232,17.7627348 32.6229074,18.7394827 31.1448108,19.4597222 L30.9805586,19.4597222 C29.5022114,18.7394895 28.4842673,17.7627408 27.9348856,16.5306227 C27.4396549,15.419951 27.3682671,14.1253915 27.7162103,12.6516269 L27.8222029,12.2411068 L28.4590623,12.0018343 L28.683453,11.9243192 L28.9859901,11.8318626 C29.2045989,11.7707588 29.4236396,11.7230391 29.6591577,11.6871981 L30.0002649,11.6447286 L30.3495035,11.6180432 C30.5683621,11.6057706 30.8063638,11.6 31.0713059,11.6 Z M31.0713059,11.975 C30.1180043,11.975 29.5412462,12.0505466 28.9361328,12.2374084 L28.6593067,12.3286603 L28.1352439,12.5225 L28.0904382,12.6989197 C27.7711367,14.0248818 27.8073045,15.1841766 28.1951291,16.1807607 L28.2773817,16.3779092 C28.7545561,17.4480853 29.6166116,18.316075 30.8701821,18.9828103 L31.063,19.081 L31.2234373,18.9995818 C32.3229307,18.4207032 33.1243137,17.688568 33.6319931,16.8025548 L33.7527967,16.5778453 L33.8476061,16.3779092 C34.3074172,15.3466743 34.3740458,14.1336786 34.0429801,12.7342392 L33.9889939,12.5225 L33.4933084,12.3376404 L33.2446747,12.2535506 L33.0343069,12.190303 C32.4893534,12.0375582 31.9393634,11.975 31.0713059,11.975 Z" coloured="" opacity="1" id="soccer-badge-07" mask="url(#kitMask)" sport="soccer"></path><path fill="#f4f0f5" d="M31.150354,13.6 C32.0065909,13.6 32.700708,14.2807687 32.700708,15.1205395 C32.700708,15.9603103 32.0065909,16.641079 31.150354,16.641079 C30.2941171,16.641079 29.6,15.9603103 29.6,15.1205395 C29.6,14.2807687 30.2941171,13.6 31.150354,13.6 Z" coloured="" opacity="1" id="soccer-badge-05" mask="url(#kitMask)" sport="soccer"></path><path id="kit-outline" stroke="rgba(255,255,255,0.3)" stroke-width=".75" d="M23.5972439,1.65247019 C28.2695525,1.6548216 30.7628201,1.81564155 31.4481987,2.19971541 L39.630739,5.78042954 C41.0555869,6.35178651 42.1401622,7.70393642 42.9265765,9.79939653 L47.6002981,21.4790269 C47.2451532,22.4229315 46.1494091,23.2983207 44.3901194,24.154113 C42.6185393,25.0158838 41.1685064,25.4024043 40.0380612,25.2747748 L37.868054,20.1812813 C37.4802197,26.4558273 37.2865868,31.1005844 37.2865871,34.1161115 C37.2903357,37.3484873 37.3292984,42.5879818 37.4037132,50.2238215 C36.3455177,50.6518503 30.3745012,51.1047915 24.3617064,51.1244087 L23.6014087,51.1223585 C17.4071181,51.0885873 11.6343002,50.643568 10.5972999,50.2234737 C10.6712421,42.3850844 10.7098646,37.1351619 10.7131798,34.4732809 C10.7134349,31.2905086 10.5208336,26.6792554 10.1351381,20.1737887 L7.96193877,25.2747748 C6.83149362,25.4024043 5.38146065,25.0158838 3.60988064,24.154113 C1.89858905,23.321669 0.816962859,22.4703287 0.43061824,21.5557427 L5.0763586,9.79182506 C5.83900262,7.75945969 6.88671108,6.4245588 8.25653961,5.82757137 L16.5500075,2.19937783 C17.2138802,1.82288528 19.5728011,1.66179303 23.5972439,1.65247019 Z"></path><g fill="none" fill-rule="evenodd" id="soccer-collar-03" sport="soccer"><path fill="#000" fill-opacity=".5" d="M30.75,2.18 C29.7749023,4.9032666 27.5249023,6.2648999 24,6.2648999 C20.4750977,6.2648999 18.2250977,4.9032666 17.25,2.18 L30.75,2.18 Z"></path><path fill="#f4f0f5" d="M30.4486804,0.4 L31.5001582,1.58466392 L31.692,1.67 L31.6990485,1.89423218 C29.1024722,2.61826803 26.5203857,2.98028596 23.9527893,2.98028596 C21.3851929,2.98028596 18.8509298,2.63393881 16.35,1.94124451 L16.343,1.845 L16.5331206,1.76290579 L17.8505592,0.4 C20.203887,0.921537936 22.3037658,1.18286536 24.1501956,1.18398228 C25.9876316,1.18509376 28.0871265,0.923766331 30.4486804,0.4 Z" coloured="" opacity="1" id="soccer-collar-03"></path><path fill="#000" fill-opacity=".5" d="M30.4486804,0.4 L31.5001582,1.58466392 L31.692,1.67 L31.6990485,1.89423218 C29.1024722,2.61826803 26.5203857,2.98028596 23.9527893,2.98028596 C21.3851929,2.98028596 18.8509298,2.63393881 16.35,1.94124451 L16.343,1.845 L16.5331206,1.76290579 L17.8505592,0.4 C20.203887,0.921537936 22.3037658,1.18286536 24.1501956,1.18398228 C25.9876316,1.18509376 28.0871265,0.923766331 30.4486804,0.4 Z"></path><path fill="#f4f0f5" d="M30.4437289,0.4 L31.699,1.701 L31.6957612,1.83431122 C31.5537677,4.64845237 28.1727723,6.9 24.0227263,6.9 C19.8756383,6.9 16.4965049,4.65166085 16.35,1.84032777 L16.5281691,1.76290579 L17.8456077,0.4 L18.2233174,0.4813756 C18.0099312,0.856479063 17.8950485,1.25116377 17.8950485,1.65 C17.8950485,3.57326891 20.5664871,5.4 24.0727263,5.4 C27.5789655,5.4 30.2504041,3.57326891 30.2504041,1.65 C30.2504041,1.26076701 30.1409872,0.875488012 29.9373775,0.508504815 L30.4437289,0.4 Z" coloured="" opacity="1" id="soccer-collar-03"></path><path fill="#000" fill-opacity=".5" d="M31.8415564,1.58 C31.8415564,4.79060313 28.3626159,7.03999025 24.0245,7.03999025 C19.7277272,7.03999025 16.2365265,4.63545577 16.2365265,1.78785812 L16.343,1.73485702 C16.4912222,4.60474766 19.7228934,6.88985702 24.0245,6.88985702 C28.3261066,6.88985702 31.699,4.54348023 31.6990485,1.58 L31.8415564,1.58 Z"></path></g>
        
                            <path fill-opacity="0.15" fill="#000000" fill-rule="nonzero" d="m10.234 48.926-1.257-.15a120.817 120.817 0 0 0 28.788.145l.016 1.514a.67.67 0 0 1-.206.101l-.168.052-.21.052-.25.052-.288.053-.324.052-.752.103-.879.1-.734.072-.791.07-.845.064-1.197.079-1.267.07-.988.044-.674.025-1.376.041-.698.015-1.411.018L24 51.5l-1.076-.005-1.057-.015-1.046-.024-1.029-.032-1.006-.04-.656-.03-1.267-.069-1.197-.079-.844-.065-.792-.069-.734-.072-.878-.1-.577-.077-.5-.078-.288-.053-.25-.052-.21-.052-.168-.052a.67.67 0 0 1-.206-.101l.014-1.509Zm37.19-28.899.144.361a13.074 13.074 0 0 1-3.592 2.696c-1.314.67-2.769 1.136-4.364 1.398l-.3.045-.142-.331c1.555-.22 2.974-.632 4.258-1.234l.389-.19a12.714 12.714 0 0 0 3.426-2.55l.18-.195Zm-46.99.357.144-.361-.112-.121a12.762 12.762 0 0 0 3.724 2.87c1.383.706 2.93 1.18 4.64 1.423l-.142.331-.293-.044c-1.596-.262-3.05-.728-4.364-1.398a13.074 13.074 0 0 1-3.597-2.7ZM7.926 5.567l.101.436.106.498.105.524.102.549.1.575.1.6.143.95.14 1.008.09.703.089.73.129 1.143.125 1.2.08.833.08.859.114 1.336.11 1.394.07.962.103 1.49.029.46-.262.614-.03-.511-.1-1.478-.103-1.423-.107-1.366-.111-1.311-.116-1.256-.08-.806-.08-.781-.084-.756-.128-1.089-.088-.694-.09-.67-.091-.645-.093-.62-.096-.596-.097-.57-.099-.546-.1-.521-.103-.497-.13-.583.135-.075.137-.07Zm32.148 0c.092.045.183.094.273.145l-.079.344-.103.484-.102.51-.1.533-.098.558-.096.583-.095.608-.092.632-.09.658-.09.682-.129 1.07-.084.744-.123 1.162-.08.806-.115 1.256-.111 1.31-.107 1.367-.137 1.91-.098 1.497-.26-.61.097-1.459.105-1.452.073-.936.113-1.355.078-.872.12-1.258.083-.807.085-.782.086-.755.134-1.085.091-.69.094-.666.095-.64.098-.613.15-.872.102-.55.13-.65.135-.61.047-.197Z"></path>                            
                        </g>
                    </svg>