<svg viewBox="0 0 48 52" xmlns="http://www.w3.org/2000/svg" xmlns:xlink="http://www.w3.org/1999/xlink" sport="soccer" title="Atalanta_Home_Front_25_26">
                        <defs>
                            <path id="kit" d="M10.22 50.435c.079-8.326.118-13.766.118-16.32 0-2.553-.161-6.661-.484-12.324l-1.63 3.825c-1.213.21-2.806-.165-4.778-1.125-1.92-.933-3.059-1.912-3.418-2.937L0 21.469 4.725 9.66c.809-2.154 1.936-3.546 3.381-4.176l8.278-3.621c.72-.393 3.26-.588 7.617-.586 4.357.003 6.894.198 7.613.586l8.162 3.572c1.502.604 2.669 2.013 3.499 4.225L48 21.47c-.325 1.055-1.473 2.063-3.446 3.022-1.972.96-3.565 1.335-4.778 1.125l-1.63-3.825c-.323 5.467-.484 9.575-.484 12.325s.04 8.19.119 16.319c-.535.464-7.158 1.065-13.78 1.065-6.623 0-13.246-.6-13.78-1.065Z"></path>
                            <linearGradient x1="0%" y1="0%" x2="100%" y2="100%" id="soccer-badge-01"><stop stop-color="#489bfa" offset="51.6983695652174%"></stop><stop stop-color="#343e4f" offset="53.147644927536234%"></stop></linearGradient>
                        </defs>
                        <mask id="kitMask" fill="#fff">
                            <use xlink:href="#kit"></use>
                        </mask>
                        <g fill="none" fill-rule="evenodd">
                            
            <path fill="#343e4f" d="M10.22 50.435c.079-8.326.118-13.766.118-16.32 0-2.553-.161-6.661-.484-12.324l-1.63 3.825c-1.213.21-2.806-.165-4.778-1.125-1.92-.933-3.059-1.912-3.418-2.937L0 21.469 4.725 9.66c.809-2.154 1.936-3.546 3.381-4.176l8.278-3.621c.72-.393 3.26-.588 7.617-.586 4.357.003 6.894.198 7.613.586l8.162 3.572c1.502.604 2.669 2.013 3.499 4.225L48 21.47c-.325 1.055-1.473 2.063-3.446 3.022-1.972.96-3.565 1.335-4.778 1.125l-1.63-3.825c-.323 5.467-.484 9.575-.484 12.325s.04 8.19.119 16.319c-.535.464-7.158 1.065-13.78 1.065-6.623 0-13.246-.6-13.78-1.065Z" coloured="" opacity="1" id="soccer-base" mask="url(#kitMask)" sport="soccer"></path><path fill="#489bfa" fill-rule="evenodd" d="M25.7989739 1.290737 25.7981218 51.4857242C25.3214575 51.4931871 24.8418889 51.4978424 24.3617382 51.4994087L24.000546 51.5C23.3584738 51.5 22.7164015 51.494354 22.0798769 51.4837336L22.0801917 1.29060317 23.0724487 1.27975494 24.0005758 1.27712829C24.6391156 1.27712829 25.2385816 1.28206573 25.7989739 1.290737ZM31.6139292 1.86290579 32.4974118 2.24912829 32.4978742 51.1940821 31.3248427 51.2735564C30.5179458 51.3235617 29.6641539 51.3672659 28.7806088 51.4025942L28.7807691 1.39800185 29.3490094 1.43983064C30.5167016 1.53717916 31.2716748 1.67820421 31.6139292 1.86290579ZM19.1072659 1.4015278 19.1075541 51.3980266C17.7790901 51.3436813 16.5199454 51.2704912 15.3888974 51.185571L15.3894118 2.29712829 16.3835008 1.86290579C16.7697489 1.65235607 17.6776706 1.49856341 19.1072659 1.4015278ZM35.4694118 3.55012829 39.1874118 5.17712829 39.1874118 10.6621283 39.0908978 11.4103607 39.0023102 12.1399845 38.8731194 13.2827501 38.7483552 14.4835179 38.6676372 15.3162568 38.5888849 16.1747798 38.4744406 17.5109141 38.3644152 18.9050747 38.2935188 19.8667554 38.1908532 21.3576423 38.1621857 21.8171378 38.1503424 21.7912482 38.1523424 21.8028102 38.1463424 21.7912482 37.9546039 25.238708C37.7682326 28.8450343 37.6707664 31.7040788 37.6622051 33.8158414L37.6659894 35.9990101C37.6783277 39.0556356 37.7166 43.8676075 37.7808063 50.4349257 37.6037013 50.5886096 36.7600298 50.7572092 35.4703648 50.9140245L35.4694118 3.55012829ZM12.4174118 3.59712829 12.4171569 50.9000408 11.9779406 50.8422959C11.0015429 50.7066481 10.3706564 50.5654107 10.2202858 50.4349257L10.3261266 37.486866 10.3384132 34.1156766 10.3332255 33.2732915C10.3032525 30.6955492 10.1433966 26.8682014 9.85365765 21.7912482L9.84181434 21.8171378 9.81314683 21.3576423 9.71048124 19.8667554 9.63958482 18.9050747 9.52955944 17.5109141 9.41511511 16.1747798 9.33636278 15.3162568 9.25564477 14.4835179 9.1308806 13.2827501 9.00168981 12.1399845 8.91310224 11.4103607 8.82254557 10.7065104 8.69941183 9.81412829 8.69941183 5.22412829 12.4174118 3.59712829Z" coloured="" opacity="1" id="soccer-vertical-stripe-09" mask="url(#kitMask)" sport="soccer"></path><path fill="#489bfa" fill-rule="evenodd" d="M8.606,9.19078706 L8.68301703,9.69905543 L8.82254557,10.7065104 L8.91310224,11.4103607 L9.00168981,12.1399845 L9.1308806,13.2827501 L9.25564477,14.4835179 L9.33636278,15.3162568 L9.41511511,16.1747798 L9.487,17.0197871 L6.07126959,25.4805928 C5.2872767,25.2911303 4.41213455,24.9613768 3.44584315,24.4913321 C3.1457851,24.3453713 2.86479287,24.1982991 2.60286646,24.0501156 L8.606,9.19078706 Z M7.47118935,5.82278706 L0.688235479,22.609056 C0.373377912,22.2628974 0.153340712,21.9112117 0.0281238815,21.553999 L1.13686838e-13,21.4685118 L4.72526396,9.66007698 C5.41110847,7.83237417 6.32641693,6.55327753 7.47118935,5.82278706 Z M39.429,8.97705602 L45.4980196,23.9924402 C45.2077272,24.1601556 44.8931062,24.3264529 44.5541569,24.4913321 C43.6338867,24.9389901 42.7962902,25.259402 42.0413675,25.4525678 L38.537,16.779056 L38.5888849,16.1747798 L38.6676372,15.3162568 L38.7483552,14.4835179 L38.8731194,13.2827501 L39.0023102,12.1399845 L39.0908978,11.4103607 L39.1814544,10.7065104 L39.320983,9.69905543 L39.429,8.97705602 Z M43.274736,9.66007698 L48,21.4685118 C47.8911358,21.8225623 47.6895803,22.1712098 47.3953334,22.5144543 L40.6972119,5.93536002 C41.7636843,6.68132162 42.622859,7.92289394 43.274736,9.66007698 Z" coloured="" opacity="1" id="soccer-sleeve-03" mask="url(#kitMask)" sport="soccer"></path><path d="M47.56 20.365 48 21.47c-.325 1.055-1.473 2.063-3.446 3.022-1.972.96-3.565 1.335-4.778 1.125l-.464-1.088.261-.038c1.596-.263 3.05-.728 4.364-1.398a13.078 13.078 0 0 0 3.622-2.727Zm-47.118.001a13.078 13.078 0 0 0 3.62 2.726c1.315.67 2.77 1.135 4.365 1.398l.26.038-.463 1.088c-1.213.21-2.806-.165-4.778-1.125-1.92-.933-3.059-1.912-3.418-2.937L0 21.469l.442-1.103Z" fill="#1f1f1f" fill-rule="nonzero" coloured="" opacity="1" id="soccer-trim-01" mask="url(#kitMask)" sport="soccer"></path><path fill="url(#soccer-badge-01)" d="M31.125,10.75 C33.5412458,10.75 35.5,12.7087542 35.5,15.125 C35.5,17.5412458 33.5412458,19.5 31.125,19.5 C28.7087542,19.5 26.75,17.5412458 26.75,15.125 C26.75,12.7087542 28.7087542,10.75 31.125,10.75 Z" coloured="" opacity="1" id="soccer-badge-01" mask="url(#kitMask)" sport="soccer"></path><path fill="#fafafa" d="M31.125,10.75 C33.5412458,10.75 35.5,12.7087542 35.5,15.125 C35.5,17.5412458 33.5412458,19.5 31.125,19.5 C28.7087542,19.5 26.75,17.5412458 26.75,15.125 C26.75,12.7087542 28.7087542,10.75 31.125,10.75 Z M31.125,11.25 C28.9848966,11.25 27.25,12.9848966 27.25,15.125 C27.25,17.2651034 28.9848966,19 31.125,19 C33.2651034,19 35,17.2651034 35,15.125 C35,12.9848966 33.2651034,11.25 31.125,11.25 Z" coloured="" opacity="1" id="soccer-badge-03" mask="url(#kitMask)" sport="soccer"></path><path fill="#fafafa" d="M31.150354,13.6 C32.0065909,13.6 32.700708,14.2807687 32.700708,15.1205395 C32.700708,15.9603103 32.0065909,16.641079 31.150354,16.641079 C30.2941171,16.641079 29.6,15.9603103 29.6,15.1205395 C29.6,14.2807687 30.2941171,13.6 31.150354,13.6 Z" coloured="" opacity="1" id="soccer-badge-05" mask="url(#kitMask)" sport="soccer"></path><path id="kit-outline" stroke="rgba(255,255,255,0.3)" stroke-width=".75" d="M23.5972439,1.65247019 C28.2695525,1.6548216 30.7628201,1.81564155 31.4481987,2.19971541 L39.630739,5.78042954 C41.0555869,6.35178651 42.1401622,7.70393642 42.9265765,9.79939653 L47.6002981,21.4790269 C47.2451532,22.4229315 46.1494091,23.2983207 44.3901194,24.154113 C42.6185393,25.0158838 41.1685064,25.4024043 40.0380612,25.2747748 L37.868054,20.1812813 C37.4802197,26.4558273 37.2865868,31.1005844 37.2865871,34.1161115 C37.2903357,37.3484873 37.3292984,42.5879818 37.4037132,50.2238215 C36.3455177,50.6518503 30.3745012,51.1047915 24.3617064,51.1244087 L23.6014087,51.1223585 C17.4071181,51.0885873 11.6343002,50.643568 10.5972999,50.2234737 C10.6712421,42.3850844 10.7098646,37.1351619 10.7131798,34.4732809 C10.7134349,31.2905086 10.5208336,26.6792554 10.1351381,20.1737887 L7.96193877,25.2747748 C6.83149362,25.4024043 5.38146065,25.0158838 3.60988064,24.154113 C1.89858905,23.321669 0.816962859,22.4703287 0.43061824,21.5557427 L5.0763586,9.79182506 C5.83900262,7.75945969 6.88671108,6.4245588 8.25653961,5.82757137 L16.5500075,2.19937783 C17.2138802,1.82288528 19.5728011,1.66179303 23.5972439,1.65247019 Z"></path><g fill="none" fill-rule="evenodd" transform="translate(16.045 .5)" id="soccer-collar-02" sport="soccer"><path fill="#4791e6" fill-rule="nonzero" d="M14.2541675,4.54747351e-13 L15.5690362,1.36290579 L15.6321069,1.39 L15.5519741,1.41254187 C15.2369041,2.69736396 13.8588181,4.11385855 11.417716,5.66202565 L10.8303736,6.02472742 L10.2046429,6.39218424 L9.67641864,6.68957333 L9.12362584,6.99000565 L8.54626447,7.29348121 L7.94433453,7.6 L7.3424046,7.29348121 L6.76504323,6.99000565 L6.21225043,6.68957333 L5.6840262,6.39218424 L4.93775592,5.95180666 L4.47095311,5.66202565 C2.02034758,4.10783143 0.641051073,2.68633693 0.333063579,1.39754215 L0.287653461,1.38588138 L0.338607734,1.36290579 L1.65604634,4.54747351e-13 C4.00937412,0.521537936 6.10925292,0.782865363 7.95568272,0.783982281 C9.79311871,0.785093757 11.8926136,0.523766331 14.2541675,4.54747351e-13 Z M2.19335393,1.85283543 L2.26058125,1.94167362 C2.55417079,2.31372292 2.97943596,2.72645731 3.53849481,3.17319292 L3.8480933,3.41368277 C4.00919766,3.53548993 4.17976851,3.65961258 4.35984556,3.78592548 L4.82986571,4.1061982 L5.33963282,4.43516196 L6.00401342,4.8407782 L6.47895926,5.11742274 L6.9796078,5.39879442 L7.5060296,5.68467057 L7.94463467,5.91475 L8.38277883,5.68459613 L8.90945934,5.39857453 L9.16312023,5.25724078 L9.65112747,4.97806675 L10.1134409,4.70373656 L10.5501311,4.43447326 C10.7620822,4.30114551 10.9644512,4.16980148 11.1572777,4.04056663 L11.5302193,3.78494635 L11.8777851,3.5351736 C12.6254512,2.98425029 13.1839349,2.47871089 13.5567754,2.02972325 L13.6878954,1.86402556 C11.9921488,2.21776871 10.2982572,2.41375448 8.60457168,2.45293967 L7.96944607,2.46028596 C6.25801136,2.46028596 4.54657665,2.30029899 2.83514195,1.98032504 L2.19335393,1.85283543 Z" coloured="" opacity="1" id="soccer-collar-02"></path><path fill="#000" fill-opacity=".5" fill-rule="nonzero" d="M2.19335393,1.85283543 C4.11871798,2.25780245 6.04408202,2.46028596 7.96944607,2.46028596 C9.87481326,2.46028596 11.7801804,2.2619866 13.6878954,1.86402556 C13.3205999,2.35303517 12.7189094,2.91538487 11.8777851,3.5351736 L11.5302193,3.78494635 L11.1572777,4.04056663 C10.9644512,4.16980148 10.7620822,4.30114551 10.5501311,4.43447326 L10.1134409,4.70373656 L9.65112747,4.97806675 L9.16312023,5.25724078 L8.90945934,5.39857453 L8.38277883,5.68459613 L7.94463467,5.91475 L7.5060296,5.68467057 L6.9796078,5.39879442 L6.47895926,5.11742274 L6.00401342,4.8407782 L5.33963282,4.43516196 L4.82986571,4.1061982 L4.35984556,3.78592548 C4.17976851,3.65961258 4.00919766,3.53548993 3.8480933,3.41368277 L3.53849481,3.17319292 C2.97943596,2.72645731 2.55417079,2.31372292 2.26058125,1.94167362 Z"></path><path fill="#000" fill-opacity=".5" fill-rule="nonzero" d="M1.40510693,0.875 C1.40510693,1.7002084 2.35320575,2.8570684 4.23674601,4.17218112 L4.45218732,4.32059671 L4.8691424,4.59733493 L5.29927842,4.87032175 L5.76147627,5.15155461 L6.25457818,5.43981765 L6.76291499,5.72612723 L7.30646151,6.02159644 L7.8666047,6.31610436 L7.95635693,6.3613889 L8.46477274,6.09841189 L9.14420902,5.73076619 L9.40317146,5.58630499 L9.64979812,5.446275 L10.2622895,5.08669773 L10.8271705,4.73791648 L11.0334851,4.60577775 L11.4531903,4.32743842 C13.486418,2.94639211 14.5104625,1.73367919 14.5104625,0.875 C14.5104625,0.63111541 14.4746131,0.390606886 14.4059087,0.155723436 L15.2534187,1.03612342 C15.1537463,2.1849716 13.9976168,3.50581699 11.8711663,4.95015743 L11.4430675,5.23403497 L11.2272426,5.37227707 L10.6461579,5.7309973 L10.0248648,6.09573321 L9.50538609,6.38805447 L8.8158805,6.76111816 L7.95925822,7.20533479 L7.5216902,6.98207196 L6.95288453,6.68300128 L6.39983194,6.38235813 L5.88134522,6.09032583 L5.37735561,5.795688 L4.90348471,5.50734397 L4.46091708,5.22645611 L4.03218876,4.94193358 L3.80939328,4.78851195 C1.83125328,3.4073586 0.753580243,2.13836331 0.661543885,1.02902422 L1.51202916,0.147672497 C1.44178041,0.385109989 1.40510693,0.628328158 1.40510693,0.875 Z"></path><path fill="#000" fill-rule="nonzero" d="M1.26360852,0.405013913 C1.23487029,0.563823028 1.22010693,0.724840789 1.22010693,0.8875 C1.22010693,1.7927436 2.20217478,2.99105224 4.13290887,4.33911124 L4.35102518,4.48933502 L4.77119188,4.7681572 L5.20433208,5.04301058 L5.66936228,5.32593248 L6.16507569,5.61569388 L6.67587595,5.90336645 L7.22171205,6.20005964 L7.7838969,6.49562496 L7.95960693,6.5853889 L8.55651071,6.2758144 L9.23805959,5.90700782 L9.74723179,5.6204656 L10.36179,5.25965692 L10.9308261,4.90828921 L11.1396207,4.77453363 L11.5610426,4.49504205 C13.6417474,3.0817475 14.7004625,1.82797631 14.7004625,0.8875 C14.7004625,0.730136084 14.6866447,0.574308483 14.6597231,0.420530785 L15.0741069,0.850013913 L15.0754625,0.8875 C15.0754625,1.94556761 14.0394525,3.21653676 12.0367317,4.62228515 L11.7700306,4.80640155 L11.344412,5.08866224 L11.1308621,5.22546951 L10.6683009,5.51256101 L9.9347651,5.94519471 L9.41864813,6.23565196 L8.73206458,6.60716753 L7.96105757,7.00698685 L7.61143965,6.82860876 L7.04492356,6.53076206 L6.49433443,6.2314819 L5.97845921,5.94094797 L5.47730195,5.64799917 L5.00643523,5.36152169 L4.56707922,5.08271779 L4.1410259,4.80000346 L3.9192325,4.64727665 C1.89511285,3.23401994 0.845106928,1.95281399 0.845106928,0.8875 C0.845106928,0.870801445 0.8452421,0.854122103 0.845511759,0.837462428 Z" opacity=".5"></path><path fill="#000" fill-rule="nonzero" d="M15.5650382,1.35660401 L15.8904034,1.50347579 C15.5595957,2.84029208 14.2244354,4.24866589 11.9097767,5.76147062 L11.602312,5.95938791 L11.1327508,6.25086362 L10.8848981,6.40001813 L10.3787547,6.69580417 L9.84354893,6.99709157 L9.28857813,7.29869764 L9.00064017,7.45128498 L8.70508717,7.60537118 L7.94433453,7.99276672 L7.18160323,7.60435566 L6.59791294,7.29752389 L6.04286973,6.99585781 L5.773016,6.84528603 L5.50742666,6.69436399 L4.87744662,6.32437937 L4.28350035,5.95759538 C1.78602974,4.37367893 0.348219546,2.90330924 0,1.51047315 L0.326090708,1.36757863 C0.607485463,2.610265 1.88809463,3.97672095 4.1679182,5.4669465 L4.47095311,5.66202565 L4.93775592,5.95180666 L5.6840262,6.39218424 L6.21225043,6.68957333 L6.76504323,6.99000565 L7.3424046,7.29348121 L7.94433453,7.6 L8.54626447,7.29348121 L9.12362584,6.99000565 L9.67641864,6.68957333 L10.2046429,6.39218424 L10.8303736,6.02472742 L11.417716,5.66202565 C13.8942974,4.09135729 15.2767381,2.65621674 15.5650382,1.35660401 Z M1.91625566,0.056 L2.26333097,0.129969652 C2.16679536,0.364136497 2.11665676,0.605933775 2.11665676,0.85 C2.11665676,1.27150559 2.60119833,1.93939387 3.55598012,2.73582154 L3.75320212,2.89678602 L4.05917738,3.13449913 L4.30301875,3.31529135 L4.55769975,3.49721504 L5.11771727,3.87677965 L5.52331735,4.1372358 L6.18017477,4.53834279 L6.65043813,4.81230801 L7.14663702,5.09122128 L7.66861718,5.37472657 L7.94410693,5.519 L8.21574737,5.3770242 L8.8663401,5.02224729 L9.47251997,4.67706947 L9.92974417,4.40581791 L10.3637696,4.13821431 L10.7677526,3.87887763 L10.9594013,3.75187143 L11.3259683,3.5007254 L11.6701626,3.25340612 C12.9382796,2.3189847 13.6466775,1.51522748 13.7562744,0.996169362 L13.7693911,0.907557576 L13.7720123,0.85 C13.7720123,0.607681308 13.7225891,0.367599189 13.6289316,0.133736444 L13.9698385,0.0620648665 C14.0526324,0.271042451 14.1014389,0.485760594 14.1167742,0.702275815 L14.1220123,0.85 L14.1191038,0.921736626 C14.0703709,1.53157497 13.4089581,2.36677787 12.1130632,3.3585447 L11.8777851,3.5351736 L11.5302193,3.78494635 L11.1572777,4.04056663 L10.8608761,4.23598511 L10.5501311,4.43447326 L10.1134409,4.70373656 L9.65112747,4.97806675 L9.16312023,5.25724078 L8.90945934,5.39857453 L8.38277883,5.68459613 L7.94463467,5.91475 L7.5060296,5.68467057 L6.9796078,5.39879442 L6.47895926,5.11742274 L5.77615695,4.70429821 L5.33963282,4.43516196 L4.82986571,4.1061982 L4.35984556,3.78592548 L4.09685467,3.59811447 L3.8480933,3.41368277 L3.53849481,3.17319292 C2.35049476,2.22387975 1.76665676,1.42810336 1.76665676,0.85 C1.76665676,0.649046739 1.79582131,0.449147398 1.85205539,0.25227558 L1.91625566,0.056 Z" opacity=".15"></path><path fill="#000" fill-rule="nonzero" d="M1.90702438,0.052973964 L1.65604634,0 C4.00937412,0.521537936 6.10925292,0.782865363 7.95568272,0.783982281 C9.71642801,0.785047367 11.7178132,0.54512366 13.9598382,0.0642111609 C14.0345747,0.256423882 14.0819326,0.452882311 14.1009405,0.651179304 L14.1104625,0.85 L14.1075539,0.921736626 C14.085861,1.19319992 13.9427659,1.50931907 13.6763456,1.86402556 C11.7699024,2.26185422 9.86389931,2.46028596 7.95789623,2.46028596 C6.03253219,2.46028596 4.10716814,2.25780245 2.1818041,1.85283543 C1.89597268,1.47044551 1.75510693,1.13396318 1.75510693,0.85 C1.75510693,0.580853483 1.80742391,0.313597547 1.90702438,0.052973964 Z" opacity=".5"></path><path fill="#000" d="M14.1009405,0.314646584 C14.175677,0.506859305 14.0819326,0.452882311 14.1009405,0.651179304 L14.1104625,0.85 L14.1075539,0.921736626 C14.0974765,1.04784497 14.0611996,1.18359036 13.9985305,1.3283644 C11.8926781,1.81397982 9.78767564,2.0560098 7.68267317,2.0560098 C5.76430802,2.0560098 3.84594287,1.85499571 1.92757773,1.45296753 C1.81176838,1.23142856 1.75505406,1.03014581 1.75505406,0.85 C1.75505406,0.670568989 1.75892163,0.522240293 1.76665676,0.405013913 C4.11998455,0.92655185 6.09877188,1.10282384 7.94520169,1.10394076 C9.70594697,1.10500585 11.8589155,0.795559083 14.1009405,0.314646584 Z" opacity=".3"></path><path fill="#000" d="M14.1009405,0.574390086 C14.0984836,0.584031901 14.0961885,0.601605056 14.1009405,0.651179304 L14.1104625,0.85 L14.1075539,0.921736626 L14.0950541,1.00839009 L13.4620226,1.14007225 C11.5421176,1.52206064 9.59603341,1.77742339 7.68267317,1.77742339 C5.74408291,1.77742339 3.71958901,1.44348499 1.78058823,1.06534608 C1.76332897,0.990706492 1.75505406,0.918811253 1.75505406,0.85 L1.76405406,0.652390086 L2.29074343,0.76551638 C4.40458007,1.19909577 6.17885766,1.35107736 7.88325441,1.35210836 C9.64399969,1.35317345 11.8589155,1.05530259 14.1009405,0.574390086 Z" opacity=".4"></path></g>
        
                            <path fill-opacity="0.15" fill="#000000" fill-rule="nonzero" d="m10.234 48.926-1.257-.15a120.817 120.817 0 0 0 28.788.145l.016 1.514a.67.67 0 0 1-.206.101l-.168.052-.21.052-.25.052-.288.053-.324.052-.752.103-.879.1-.734.072-.791.07-.845.064-1.197.079-1.267.07-.988.044-.674.025-1.376.041-.698.015-1.411.018L24 51.5l-1.076-.005-1.057-.015-1.046-.024-1.029-.032-1.006-.04-.656-.03-1.267-.069-1.197-.079-.844-.065-.792-.069-.734-.072-.878-.1-.577-.077-.5-.078-.288-.053-.25-.052-.21-.052-.168-.052a.67.67 0 0 1-.206-.101l.014-1.509Zm37.19-28.899.144.361a13.074 13.074 0 0 1-3.592 2.696c-1.314.67-2.769 1.136-4.364 1.398l-.3.045-.142-.331c1.555-.22 2.974-.632 4.258-1.234l.389-.19a12.714 12.714 0 0 0 3.426-2.55l.18-.195Zm-46.99.357.144-.361-.112-.121a12.762 12.762 0 0 0 3.724 2.87c1.383.706 2.93 1.18 4.64 1.423l-.142.331-.293-.044c-1.596-.262-3.05-.728-4.364-1.398a13.074 13.074 0 0 1-3.597-2.7ZM7.926 5.567l.101.436.106.498.105.524.102.549.1.575.1.6.143.95.14 1.008.09.703.089.73.129 1.143.125 1.2.08.833.08.859.114 1.336.11 1.394.07.962.103 1.49.029.46-.262.614-.03-.511-.1-1.478-.103-1.423-.107-1.366-.111-1.311-.116-1.256-.08-.806-.08-.781-.084-.756-.128-1.089-.088-.694-.09-.67-.091-.645-.093-.62-.096-.596-.097-.57-.099-.546-.1-.521-.103-.497-.13-.583.135-.075.137-.07Zm32.148 0c.092.045.183.094.273.145l-.079.344-.103.484-.102.51-.1.533-.098.558-.096.583-.095.608-.092.632-.09.658-.09.682-.129 1.07-.084.744-.123 1.162-.08.806-.115 1.256-.111 1.31-.107 1.367-.137 1.91-.098 1.497-.26-.61.097-1.459.105-1.452.073-.936.113-1.355.078-.872.12-1.258.083-.807.085-.782.086-.755.134-1.085.091-.69.094-.666.095-.64.098-.613.15-.872.102-.55.13-.65.135-.61.047-.197Z"></path>                            
                        </g>
                    </svg>