<svg viewBox="0 0 48 52" xmlns="http://www.w3.org/2000/svg" xmlns:xlink="http://www.w3.org/1999/xlink" sport="soccer" title="BARCELONA_HOME_FRONT_2526">
                        <defs>
                            <path id="kit" d="M10.22 50.435c.079-8.326.118-13.766.118-16.32 0-2.553-.161-6.661-.484-12.324l-1.63 3.825c-1.213.21-2.806-.165-4.778-1.125-1.92-.933-3.059-1.912-3.418-2.937L0 21.469 4.725 9.66c.809-2.154 1.936-3.546 3.381-4.176l8.278-3.621c.72-.393 3.26-.588 7.617-.586 4.357.003 6.894.198 7.613.586l8.162 3.572c1.502.604 2.669 2.013 3.499 4.225L48 21.47c-.325 1.055-1.473 2.063-3.446 3.022-1.972.96-3.565 1.335-4.778 1.125l-1.63-3.825c-.323 5.467-.484 9.575-.484 12.325s.04 8.19.119 16.319c-.535.464-7.158 1.065-13.78 1.065-6.623 0-13.246-.6-13.78-1.065Z"></path>
                            
                        </defs>
                        <mask id="kitMask" fill="#fff">
                            <use xlink:href="#kit"></use>
                        </mask>
                        <g fill="none" fill-rule="evenodd">
                            
            <path fill="#1b2047" d="M10.22 50.435c.079-8.326.118-13.766.118-16.32 0-2.553-.161-6.661-.484-12.324l-1.63 3.825c-1.213.21-2.806-.165-4.778-1.125-1.92-.933-3.059-1.912-3.418-2.937L0 21.469 4.725 9.66c.809-2.154 1.936-3.546 3.381-4.176l8.278-3.621c.72-.393 3.26-.588 7.617-.586 4.357.003 6.894.198 7.613.586l8.162 3.572c1.502.604 2.669 2.013 3.499 4.225L48 21.47c-.325 1.055-1.473 2.063-3.446 3.022-1.972.96-3.565 1.335-4.778 1.125l-1.63-3.825c-.323 5.467-.484 9.575-.484 12.325s.04 8.19.119 16.319c-.535.464-7.158 1.065-13.78 1.065-6.623 0-13.246-.6-13.78-1.065Z" coloured="" opacity="1" id="soccer-base" mask="url(#kitMask)" sport="soccer"></path><path fill="#991c3b" fill-rule="evenodd" d="M26.5285476 1.30487937 26.527623 51.472092C25.8123429 51.487611 25.0877059 51.4970404 24.3617382 51.4994087L24.000546 51.5C23.1356322 51.5 22.2707184 51.4897549 21.419365 51.4709062L21.4199624 1.3034444C22.0829953 1.28795487 22.8088187 1.27929681 23.5974326 1.27712829L24.0005758 1.27712829C24.9251544 1.27770922 25.7678116 1.28695958 26.5285476 1.30487937ZM31.6293941 1.86912829 36.7373941 4.10412829 36.7389468 50.7309677C35.6549 50.9222912 33.8307422 51.1113772 31.63035 51.2541788L31.6293941 1.86912829ZM16.3073941 1.89512829 16.3072055 51.2500357 15.1728818 51.1690897C13.4710738 51.0371518 12.0767987 50.8789219 11.1993941 50.7197401L11.1993941 4.13012829 16.3073941 1.89512829Z" coloured="" opacity="1" id="soccer-vertical-stripe-11" mask="url(#kitMask)" sport="soccer"></path><path fill="#fac941" d="M28.2686616,12.0919859 L29.400708,11.35 L30.4432138,11.7766915 C30.8384909,11.9384761 31.2815091,11.9384761 31.6767862,11.7766915 L32.719292,11.35 L33.8513384,12.0919859 C33.9744574,12.1726827 34.0281323,12.3259389 33.9822661,12.4658194 L33.5764524,13.7034492 C33.5103583,13.9050199 33.4924444,14.1192792 33.5241489,14.3290267 L33.9501537,17.1473465 C34.0158912,17.5822461 33.7985567,18.0109747 33.4089151,18.2150299 L31.06,19.4451562 L28.7110849,18.2150299 C28.3214433,18.0109747 28.1041088,17.5822461 28.1698463,17.1473465 L28.5958511,14.3290267 C28.6275556,14.1192792 28.6096417,13.9050199 28.5435476,13.7034492 L28.1377339,12.4658194 C28.0918677,12.3259389 28.1455426,12.1726827 28.2686616,12.0919859 Z M32.7196811,11.35 L33.8559809,12.0947737 C33.9769555,12.174065 34.0296584,12.3224711 33.9851006,12.4583614 L33.5733037,13.7142385 C33.5095038,13.908812 33.4922148,14.1151866 33.5227761,14.3173713 L33.9537647,17.1686621 C34.0177062,17.5916798 33.8037301,18.0084691 33.4192397,18.2098266 L31.060389,19.4451562 L28.7015383,18.2098266 C28.3170479,18.0084691 28.1030719,17.5916798 28.1670134,17.1686621 L28.5980019,14.3173713 C28.6285633,14.1151866 28.6112742,13.908812 28.5474743,13.7142385 L28.1356775,12.4583614 C28.0911196,12.3224711 28.1438225,12.174065 28.2647971,12.0947737 L29.401097,11.35 L30.4335394,11.7725726 C30.8346894,11.936761 31.2860887,11.936761 31.6872386,11.7725726 L32.7196811,11.35 Z M32.678139,11.7650607 L31.831604,12.1121745 C31.3874216,12.2939757 30.8931634,12.3121559 30.4389659,12.1667149 L30.2891741,12.1121745 L29.441889,11.7650607 L28.503639,12.3795567 L28.9044525,13.6015395 C28.9695979,13.8002168 28.99675,14.008534 28.9850332,14.2160411 L28.9689441,14.3713563 L28.5379555,17.2226471 C28.5017866,17.4619298 28.6053562,17.6980809 28.8006618,17.8375992 L28.8781077,17.8852063 L31.060389,19.0271518 L33.2426703,17.8852063 C33.4601598,17.7713071 33.5919137,17.5490875 33.5899294,17.3120487 L33.5828225,17.2226471 L33.151834,14.3713563 C33.1206281,14.1649073 33.1285099,13.9550358 33.1746039,13.7521916 L33.2163256,13.6015395 L33.616389,12.3795567 L32.678139,11.7650607 Z" coloured="" opacity="1" id="soccer-badge-14" mask="url(#kitMask)" sport="soccer"></path><path fill="#1b2047" fill-rule="evenodd" d="M30.2990606,-0.5 L31.6139292,0.86290579 L31.677,0.89 L31.5968671,0.912541872 C31.5316206,1.17861032 31.4207871,1.45032548 31.2643667,1.72768735 C31.4081345,1.76984334 31.5249726,1.81489928 31.6139292,1.86290579 L39.7758433,5.4345938 C41.2783083,6.03937373 42.4446058,7.44786812 43.274736,9.66007698 L48,21.4685118 C47.6754097,22.5241513 46.5267953,23.531758 44.5541569,24.4913321 C42.5815184,25.4509062 40.9887472,25.8258129 39.7758433,25.6160522 L38.1463424,21.7912482 C38.1098249,22.4089307 38.0753706,23.0092712 38.0429795,23.5922698 L38.0894472,52.1208952 L9.68043146,52.1208952 L9.74115765,22.4121434 L9.716,22.113 L9.85365765,21.7912482 C10.1656842,27.2587363 10.3270772,31.2769778 10.3378368,33.8459728 L10.3384132,34.1156766 L10.3381798,34.4732508 C10.3348353,37.1584412 10.2955373,42.4789995 10.2202858,50.4349257 C10.7554932,50.899355 17.3780196,51.5 24.000546,51.5 L24.3617382,51.4994087 C30.8618793,51.4782034 37.25533,50.8909108 37.7808063,50.4349257 C37.7050234,42.6835002 37.6653695,37.3774743 37.6618447,34.5168481 L37.6615868,34.1156766 C37.6615868,31.6764597 37.7887177,28.1686574 38.0429795,23.5922698 L38.0412513,22.4121434 L38.782409,13.6152189 C37.3203415,10.0358496 36.1754379,7.95538028 35.3476983,7.37381095 C34.9916182,7.12362931 34.0134552,6.59738337 32.4132093,5.79507313 L31.8871899,5.53253535 C31.4316081,5.30610666 30.9329458,5.06055993 30.391203,4.79589519 C29.9520795,4.60376416 29.4334797,4.41221854 28.8354036,4.22125832 C30.0116769,3.34509006 30.8210809,2.51371374 31.2643667,1.72768735 C30.2391395,1.42973018 27.818193,1.27952695 24.0005758,1.27712829 L23.5974326,1.27747024 C19.9880317,1.28583027 17.6939626,1.43729579 16.7152251,1.7318668 C17.1567028,2.51070685 17.9571946,3.33473644 19.117579,4.20334481 C18.4754482,4.40037373 17.9005104,4.59782338 17.391206,4.79589519 C14.233056,6.41179955 12.5808909,7.2711048 12.4347107,7.37381095 C11.6069711,7.95538028 10.4620675,10.0358496 9,13.6152189 L9.716,22.113 L8.2241567,25.6160522 C7.01125281,25.8258129 5.41848163,25.4509062 3.44584315,24.4913321 C1.52651922,23.5576924 0.387279465,22.5785814 0.0281238815,21.553999 L1.13686838e-13,21.4685118 L4.72526396,9.66007698 C5.53354862,7.50608415 6.66054046,6.1140616 8.10623945,5.48400935 L16.3835008,1.86290579 C16.4686956,1.81646483 16.5792703,1.77278517 16.7152251,1.7318668 C16.5556716,1.44744094 16.442956,1.16953631 16.3779567,0.897542151 L16.3325465,0.885881383 L16.3835008,0.86290579 L17.7009394,-0.5 C20.0542672,0.0215379365 22.154146,0.282865363 24.0005758,0.283982281 C25.8380118,0.285093757 27.9375067,0.0237663306 30.2990606,-0.5 Z" coloured="" opacity="1" id="soccer-shoulder-01" mask="url(#kitMask)" sport="soccer"></path><path id="kit-outline" stroke="rgba(255,255,255,0.3)" stroke-width=".75" d="M23.5972439,1.65247019 C28.2695525,1.6548216 30.7628201,1.81564155 31.4481987,2.19971541 L39.630739,5.78042954 C41.0555869,6.35178651 42.1401622,7.70393642 42.9265765,9.79939653 L47.6002981,21.4790269 C47.2451532,22.4229315 46.1494091,23.2983207 44.3901194,24.154113 C42.6185393,25.0158838 41.1685064,25.4024043 40.0380612,25.2747748 L37.868054,20.1812813 C37.4802197,26.4558273 37.2865868,31.1005844 37.2865871,34.1161115 C37.2903357,37.3484873 37.3292984,42.5879818 37.4037132,50.2238215 C36.3455177,50.6518503 30.3745012,51.1047915 24.3617064,51.1244087 L23.6014087,51.1223585 C17.4071181,51.0885873 11.6343002,50.643568 10.5972999,50.2234737 C10.6712421,42.3850844 10.7098646,37.1351619 10.7131798,34.4732809 C10.7134349,31.2905086 10.5208336,26.6792554 10.1351381,20.1737887 L7.96193877,25.2747748 C6.83149362,25.4024043 5.38146065,25.0158838 3.60988064,24.154113 C1.89858905,23.321669 0.816962859,22.4703287 0.43061824,21.5557427 L5.0763586,9.79182506 C5.83900262,7.75945969 6.88671108,6.4245588 8.25653961,5.82757137 L16.5500075,2.19937783 C17.2138802,1.82288528 19.5728011,1.66179303 23.5972439,1.65247019 Z"></path><g fill="none" fill-rule="evenodd" id="soccer-collar-03" sport="soccer"><path fill="#000" fill-opacity=".5" d="M30.75,2.18 C29.7749023,4.9032666 27.5249023,6.2648999 24,6.2648999 C20.4750977,6.2648999 18.2250977,4.9032666 17.25,2.18 L30.75,2.18 Z"></path><path fill="#1b2047" d="M30.4486804,0.4 L31.5001582,1.58466392 L31.692,1.67 L31.6990485,1.89423218 C29.1024722,2.61826803 26.5203857,2.98028596 23.9527893,2.98028596 C21.3851929,2.98028596 18.8509298,2.63393881 16.35,1.94124451 L16.343,1.845 L16.5331206,1.76290579 L17.8505592,0.4 C20.203887,0.921537936 22.3037658,1.18286536 24.1501956,1.18398228 C25.9876316,1.18509376 28.0871265,0.923766331 30.4486804,0.4 Z" coloured="" opacity="1" id="soccer-collar-03"></path><path fill="#000" fill-opacity=".5" d="M30.4486804,0.4 L31.5001582,1.58466392 L31.692,1.67 L31.6990485,1.89423218 C29.1024722,2.61826803 26.5203857,2.98028596 23.9527893,2.98028596 C21.3851929,2.98028596 18.8509298,2.63393881 16.35,1.94124451 L16.343,1.845 L16.5331206,1.76290579 L17.8505592,0.4 C20.203887,0.921537936 22.3037658,1.18286536 24.1501956,1.18398228 C25.9876316,1.18509376 28.0871265,0.923766331 30.4486804,0.4 Z"></path><path fill="#1b2047" d="M30.4437289,0.4 L31.699,1.701 L31.6957612,1.83431122 C31.5537677,4.64845237 28.1727723,6.9 24.0227263,6.9 C19.8756383,6.9 16.4965049,4.65166085 16.35,1.84032777 L16.5281691,1.76290579 L17.8456077,0.4 L18.2233174,0.4813756 C18.0099312,0.856479063 17.8950485,1.25116377 17.8950485,1.65 C17.8950485,3.57326891 20.5664871,5.4 24.0727263,5.4 C27.5789655,5.4 30.2504041,3.57326891 30.2504041,1.65 C30.2504041,1.26076701 30.1409872,0.875488012 29.9373775,0.508504815 L30.4437289,0.4 Z" coloured="" opacity="1" id="soccer-collar-03"></path><path fill="#000" fill-opacity=".5" d="M31.8415564,1.58 C31.8415564,4.79060313 28.3626159,7.03999025 24.0245,7.03999025 C19.7277272,7.03999025 16.2365265,4.63545577 16.2365265,1.78785812 L16.343,1.73485702 C16.4912222,4.60474766 19.7228934,6.88985702 24.0245,6.88985702 C28.3261066,6.88985702 31.699,4.54348023 31.6990485,1.58 L31.8415564,1.58 Z"></path></g><path fill="#991c3b" fill-rule="evenodd" d="M24.073 5.4c1.862 0 3.49-.516 4.605-1.287l-1.132 2.263a10.614 10.614 0 0 1-3.493.574 10.54 10.54 0 0 1-3.694-.647L19.14 3.868c1.112.906 2.879 1.532 4.932 1.532Z" coloured="" opacity="1" id="soccer-collar-09" sport="soccer"></path>
        
                            <path fill-opacity="0.15" fill="#000000" fill-rule="nonzero" d="m10.234 48.926-1.257-.15a120.817 120.817 0 0 0 28.788.145l.016 1.514a.67.67 0 0 1-.206.101l-.168.052-.21.052-.25.052-.288.053-.324.052-.752.103-.879.1-.734.072-.791.07-.845.064-1.197.079-1.267.07-.988.044-.674.025-1.376.041-.698.015-1.411.018L24 51.5l-1.076-.005-1.057-.015-1.046-.024-1.029-.032-1.006-.04-.656-.03-1.267-.069-1.197-.079-.844-.065-.792-.069-.734-.072-.878-.1-.577-.077-.5-.078-.288-.053-.25-.052-.21-.052-.168-.052a.67.67 0 0 1-.206-.101l.014-1.509Zm37.19-28.899.144.361a13.074 13.074 0 0 1-3.592 2.696c-1.314.67-2.769 1.136-4.364 1.398l-.3.045-.142-.331c1.555-.22 2.974-.632 4.258-1.234l.389-.19a12.714 12.714 0 0 0 3.426-2.55l.18-.195Zm-46.99.357.144-.361-.112-.121a12.762 12.762 0 0 0 3.724 2.87c1.383.706 2.93 1.18 4.64 1.423l-.142.331-.293-.044c-1.596-.262-3.05-.728-4.364-1.398a13.074 13.074 0 0 1-3.597-2.7ZM7.926 5.567l.101.436.106.498.105.524.102.549.1.575.1.6.143.95.14 1.008.09.703.089.73.129 1.143.125 1.2.08.833.08.859.114 1.336.11 1.394.07.962.103 1.49.029.46-.262.614-.03-.511-.1-1.478-.103-1.423-.107-1.366-.111-1.311-.116-1.256-.08-.806-.08-.781-.084-.756-.128-1.089-.088-.694-.09-.67-.091-.645-.093-.62-.096-.596-.097-.57-.099-.546-.1-.521-.103-.497-.13-.583.135-.075.137-.07Zm32.148 0c.092.045.183.094.273.145l-.079.344-.103.484-.102.51-.1.533-.098.558-.096.583-.095.608-.092.632-.09.658-.09.682-.129 1.07-.084.744-.123 1.162-.08.806-.115 1.256-.111 1.31-.107 1.367-.137 1.91-.098 1.497-.26-.61.097-1.459.105-1.452.073-.936.113-1.355.078-.872.12-1.258.083-.807.085-.782.086-.755.134-1.085.091-.69.094-.666.095-.64.098-.613.15-.872.102-.55.13-.65.135-.61.047-.197Z"></path>                            
                        </g>
                    </svg>