<svg viewBox="0 0 48 52" xmlns="http://www.w3.org/2000/svg" xmlns:xlink="http://www.w3.org/1999/xlink" sport="soccer" title="BAYERLEVERKUSSEN_HOME_FRONT_2526">
                        <defs>
                            <path id="kit" d="M10.22 50.435c.079-8.326.118-13.766.118-16.32 0-2.553-.161-6.661-.484-12.324l-1.63 3.825c-1.213.21-2.806-.165-4.778-1.125-1.92-.933-3.059-1.912-3.418-2.937L0 21.469 4.725 9.66c.809-2.154 1.936-3.546 3.381-4.176l8.278-3.621c.72-.393 3.26-.588 7.617-.586 4.357.003 6.894.198 7.613.586l8.162 3.572c1.502.604 2.669 2.013 3.499 4.225L48 21.47c-.325 1.055-1.473 2.063-3.446 3.022-1.972.96-3.565 1.335-4.778 1.125l-1.63-3.825c-.323 5.467-.484 9.575-.484 12.325s.04 8.19.119 16.319c-.535.464-7.158 1.065-13.78 1.065-6.623 0-13.246-.6-13.78-1.065Z"></path>
                            
                        </defs>
                        <mask id="kitMask" fill="#fff">
                            <use xlink:href="#kit"></use>
                        </mask>
                        <g fill="none" fill-rule="evenodd">
                            
            <path fill="#262529" d="M10.22 50.435c.079-8.326.118-13.766.118-16.32 0-2.553-.161-6.661-.484-12.324l-1.63 3.825c-1.213.21-2.806-.165-4.778-1.125-1.92-.933-3.059-1.912-3.418-2.937L0 21.469 4.725 9.66c.809-2.154 1.936-3.546 3.381-4.176l8.278-3.621c.72-.393 3.26-.588 7.617-.586 4.357.003 6.894.198 7.613.586l8.162 3.572c1.502.604 2.669 2.013 3.499 4.225L48 21.47c-.325 1.055-1.473 2.063-3.446 3.022-1.972.96-3.565 1.335-4.778 1.125l-1.63-3.825c-.323 5.467-.484 9.575-.484 12.325s.04 8.19.119 16.319c-.535.464-7.158 1.065-13.78 1.065-6.623 0-13.246-.6-13.78-1.065Z" coloured="" opacity="1" id="soccer-base" mask="url(#kitMask)" sport="soccer"></path><path fill="#323136" fill-rule="evenodd" d="M8.606,9.19078706 L8.68301703,9.69905543 L8.82254557,10.7065104 L8.91310224,11.4103607 L9.00168981,12.1399845 L9.1308806,13.2827501 L9.25564477,14.4835179 L9.33636278,15.3162568 L9.41511511,16.1747798 L9.487,17.0197871 L6.07126959,25.4805928 C5.2872767,25.2911303 4.41213455,24.9613768 3.44584315,24.4913321 C3.1457851,24.3453713 2.86479287,24.1982991 2.60286646,24.0501156 L8.606,9.19078706 Z M7.47118935,5.82278706 L0.688235479,22.609056 C0.373377912,22.2628974 0.153340712,21.9112117 0.0281238815,21.553999 L1.13686838e-13,21.4685118 L4.72526396,9.66007698 C5.41110847,7.83237417 6.32641693,6.55327753 7.47118935,5.82278706 Z M39.429,8.97705602 L45.4980196,23.9924402 C45.2077272,24.1601556 44.8931062,24.3264529 44.5541569,24.4913321 C43.6338867,24.9389901 42.7962902,25.259402 42.0413675,25.4525678 L38.537,16.779056 L38.5888849,16.1747798 L38.6676372,15.3162568 L38.7483552,14.4835179 L38.8731194,13.2827501 L39.0023102,12.1399845 L39.0908978,11.4103607 L39.1814544,10.7065104 L39.320983,9.69905543 L39.429,8.97705602 Z M43.274736,9.66007698 L48,21.4685118 C47.8911358,21.8225623 47.6895803,22.1712098 47.3953334,22.5144543 L40.6972119,5.93536002 C41.7636843,6.68132162 42.622859,7.92289394 43.274736,9.66007698 Z" coloured="" opacity="1" id="soccer-sleeve-03" mask="url(#kitMask)" sport="soccer"></path><path fill="#963839" fill-rule="evenodd" d="M10.3285484,32.9279602 L25.8992064,51.4840988 L25.5121936,51.4898575 L10.3346207,33.4016049 L10.3285484,32.9279602 Z M10.3255249,37.5907453 L21.9812845,51.4820481 L21.5832342,51.4744241 L10.3227506,38.0531853 L10.3255249,37.5907453 Z M10.1741481,28.0759102 L29.7127604,51.3617434 L29.3356518,51.3791369 L10.1949289,28.5674491 L10.1741481,28.0759102 Z M10.2928079,42.2183784 L17.9501437,51.3451267 L17.5399582,51.3236556 L10.2890896,42.6811717 L10.2928079,42.2183784 Z M9.92790259,23.1165733 L33.4275613,51.1204705 L33.0618542,51.1506562 L9.95498588,23.6136562 L9.92790259,23.1165733 Z M9.569,18.018673 L36.9799739,50.6859717 C36.8754495,50.706686 36.7619227,50.7274146 36.639855,50.7481015 L9.61,18.534673 L9.569,18.018673 Z M9.071,12.758673 L37.7475012,46.9341574 L37.7518724,47.4059804 L9.132,13.298673 L9.071,12.758673 Z M8.256,7.12067302 L37.7064915,42.2181826 L37.7103235,42.6891718 L8.366,7.71967302 L8.34020192,7.573786 L8.256,7.12067302 Z M10.075,4.62267302 L37.6733941,37.5111187 L37.6761417,37.9833787 L9.789,4.74767302 L10.075,4.62267302 Z M12.94,3.36967302 L37.671625,32.8441347 L37.6658575,33.305434 L12.653,3.49467302 L12.94,3.36967302 Z M15.804,2.11567302 L37.8084593,28.3401101 L37.7902002,28.7852209 L15.518,2.24167302 L15.804,2.11567302 Z M19.1200851,1.40066015 L38.024293,23.930853 L38.0005464,24.3680111 L18.7494642,1.42786544 L19.1200851,1.40066015 Z M22.934244,1.2807288 L38.312,19.605673 L38.281,20.035673 L22.5456958,1.28436431 L22.934244,1.2807288 Z M26.8799601,1.31393719 L38.663,15.356673 L38.625,15.777673 L26.4808534,1.30376972 L26.8799601,1.31393719 Z M31.1099305,1.68674606 L39.114,11.226673 L39.063,11.633673 L30.6381842,1.59160205 C30.8152061,1.6212242 30.9724549,1.65293887 31.1099305,1.68674606 Z M36.618,4.05267302 L37.237,4.32267302 L39.718,7.27967302 L39.647,7.66267302 L36.618,4.05267302 Z" coloured="" opacity="1" id="soccer-angled-stripe-10" mask="url(#kitMask)" sport="soccer"></path><path fill="#963839" fill-rule="evenodd" d="M37.6650543,35.7573269 L24.4577614,51.4990544 L24.0645864,51.4999813 L37.6635049,35.2919242 L37.6650543,35.7573269 Z M37.7118962,31.035081 L20.5822802,51.4495184 L20.2005049,51.4378776 L37.7264616,30.5523485 L37.7118962,31.035081 Z M37.6923774,40.392328 L28.4434439,51.4156123 L28.039543,51.4299919 L37.689016,39.9293444 L37.6923774,40.392328 Z M37.9094469,26.1331729 L16.8062827,51.2815355 L16.4350494,51.2583322 L37.9342618,25.6363357 L37.9094469,26.1331729 Z M37.7301644,45.0143289 L32.5491238,51.1902844 L32.1305483,51.2204748 L37.726101,44.551098 L37.7301644,45.0143289 Z M38.242,20.600673 L38.207,21.109673 L13.141555,50.9838262 L12.7814277,50.9437116 L38.242,20.600673 Z M38.655,15.441673 L38.607,15.965673 L10.2263662,49.7894829 L10.2307781,49.3177306 L38.655,15.441673 Z M39.273,10.038673 L39.196,10.597673 L10.269041,45.071175 L10.2730844,44.6011479 L39.273,10.038673 Z M39.37,5.25667302 L39.656,5.38167302 L10.3070677,40.3594341 L10.310483,39.8879217 L39.37,5.25667302 Z M36.506,4.00367302 L36.792,4.12867302 L10.3350339,35.6590543 L10.3366233,35.1898336 L36.506,4.00367302 Z M33.641,2.74967302 L33.927,2.87567302 L10.2848722,31.0546439 L10.2707548,30.6027886 L33.641,2.74967302 Z M31.0261831,1.66696488 L10.1070527,26.5974435 L10.0857945,26.1551213 L30.6909821,1.60060087 L31.0261831,1.66696488 Z M27.3935177,1.33023789 L9.87717086,22.205568 L9.85365765,21.7912482 L9.84181434,21.8171378 L9.839,21.782673 L27.0112188,1.31774011 L27.3935177,1.33023789 Z M23.5186863,1.27767594 L9.561,17.912673 L9.527,17.486673 L23.1259027,1.27942131 L23.5186863,1.27767594 Z M19.5206499,1.37587141 L9.174,13.706673 L9.131,13.291673 L19.108251,1.40146095 L19.5206499,1.37587141 Z M14.507,2.68367302 L8.673,9.63567302 L8.614,9.24067302 L13.889,2.95367302 L14.507,2.68367302 Z" coloured="" opacity="1" id="soccer-angled-stripe-09" mask="url(#kitMask)" sport="soccer"></path><path fill="#323136" fill-rule="evenodd" d="M25.8701493,1.29186398 L25.86885,51 L22.11885,51 L22.1189649,1.2899999 L23.0864,1.27966558 L24.0005758,1.27712829 C24.6662295,1.27712829 25.2894207,1.28245843 25.8701493,1.29186398 Z M31.6139292,1.86290579 L33.4526908,2.66712829 L33.4532751,51 L29.7032751,51 L29.7045176,1.4720717 C30.671282,1.56739594 31.3077526,1.69767397 31.6139292,1.86290579 Z M18.2827419,1.46946111 L18.284425,51 L14.534425,51 L14.5336908,2.67112829 L16.3835008,1.86290579 C16.6893917,1.69616 17.3224721,1.56501177 18.2827419,1.46946111 Z M10.6996908,4.34812829 L10.6995192,50.6152899 L10.4799841,50.5542741 C10.3529583,50.5138225 10.2651935,50.4738946 10.2202858,50.4349257 L10.3260636,37.4978155 L10.3384132,34.1156766 L10.3332255,33.2732915 C10.3032525,30.6955492 10.1433966,26.8682014 9.85365765,21.7912482 L9.84181434,21.8171378 L9.81314683,21.3576423 L9.71048124,19.8667554 L9.63958482,18.9050747 L9.52955944,17.5109141 L9.41511511,16.1747798 L9.33636278,15.3162568 L9.25564477,14.4835179 L9.1308806,13.2827501 L9.00168981,12.1399845 L8.91310224,11.4103607 L8.82254557,10.7065104 L8.68301703,9.69905543 L8.53905418,8.7495788 L8.4406143,8.148801 L8.34020192,7.573786 L8.23781635,7.02453169 L8.13345691,6.50103593 L8.0271229,6.00329659 L7.9226908,5.56893489 L8.10623945,5.48400935 L10.6996908,4.34812829 Z M38.1523424,21.8028102 L38.1463424,21.7912482 L38.0177337,24.0508068 C37.8099814,27.8595142 37.6931207,30.9042413 37.6671516,33.1849881 L37.6618447,34.5168481 L37.6939874,40.6095136 C37.7138211,43.2683206 37.7427608,46.543458 37.7808063,50.4349257 C37.7122622,50.4944053 37.543874,50.556119 37.2884289,50.6185191 L37.2876908,4.34512829 L39.7758433,5.4345938 C39.8783466,5.47585397 39.9792853,5.52085497 40.0786593,5.56959682 L39.9768771,6.00329659 L39.8705431,6.50103593 L39.7661836,7.02453169 L39.6637981,7.573786 L39.5633857,8.148801 L39.4649458,8.7495788 L39.320983,9.69905543 L39.1814544,10.7065104 L39.0908978,11.4103607 L39.0023102,12.1399845 L38.8731194,13.2827501 L38.7483552,14.4835179 L38.6676372,15.3162568 L38.5888849,16.1747798 L38.4744406,17.5109141 L38.3644152,18.9050747 L38.2935188,19.8667554 L38.1908532,21.3576423 L38.1621857,21.8171378 L38.1503424,21.7912482 L38.1523424,21.8028102 Z" coloured="" opacity="1" id="soccer-vertical-stripe-01" mask="url(#kitMask)" sport="soccer"></path><path d="M47.56 20.365 48 21.47c-.325 1.055-1.473 2.063-3.446 3.022-1.972.96-3.565 1.335-4.778 1.125l-.464-1.088.261-.038c1.596-.263 3.05-.728 4.364-1.398a13.078 13.078 0 0 0 3.622-2.727Zm-47.118.001a13.078 13.078 0 0 0 3.62 2.726c1.315.67 2.77 1.135 4.365 1.398l.26.038-.463 1.088c-1.213.21-2.806-.165-4.778-1.125-1.92-.933-3.059-1.912-3.418-2.937L0 21.469l.442-1.103Z" fill="#cf2e2b" fill-rule="nonzero" coloured="" opacity="1" id="soccer-trim-01" mask="url(#kitMask)" sport="soccer"></path><path fill="#cf2e2b" d="M31.125,12.3392255 C32.6635408,12.3392255 33.9107745,13.5864592 33.9107745,15.125 C33.9107745,16.6635408 32.6635408,17.9107745 31.125,17.9107745 C29.5864592,17.9107745 28.3392255,16.6635408 28.3392255,15.125 C28.3392255,13.5864592 29.5864592,12.3392255 31.125,12.3392255 Z" coloured="" opacity="1" id="soccer-badge-04" mask="url(#kitMask)" sport="soccer"></path><path id="kit-outline" stroke="rgba(255,255,255,0.3)" stroke-width=".75" d="M23.5972439,1.65247019 C28.2695525,1.6548216 30.7628201,1.81564155 31.4481987,2.19971541 L39.630739,5.78042954 C41.0555869,6.35178651 42.1401622,7.70393642 42.9265765,9.79939653 L47.6002981,21.4790269 C47.2451532,22.4229315 46.1494091,23.2983207 44.3901194,24.154113 C42.6185393,25.0158838 41.1685064,25.4024043 40.0380612,25.2747748 L37.868054,20.1812813 C37.4802197,26.4558273 37.2865868,31.1005844 37.2865871,34.1161115 C37.2903357,37.3484873 37.3292984,42.5879818 37.4037132,50.2238215 C36.3455177,50.6518503 30.3745012,51.1047915 24.3617064,51.1244087 L23.6014087,51.1223585 C17.4071181,51.0885873 11.6343002,50.643568 10.5972999,50.2234737 C10.6712421,42.3850844 10.7098646,37.1351619 10.7131798,34.4732809 C10.7134349,31.2905086 10.5208336,26.6792554 10.1351381,20.1737887 L7.96193877,25.2747748 C6.83149362,25.4024043 5.38146065,25.0158838 3.60988064,24.154113 C1.89858905,23.321669 0.816962859,22.4703287 0.43061824,21.5557427 L5.0763586,9.79182506 C5.83900262,7.75945969 6.88671108,6.4245588 8.25653961,5.82757137 L16.5500075,2.19937783 C17.2138802,1.82288528 19.5728011,1.66179303 23.5972439,1.65247019 Z"></path><g fill="none" fill-rule="evenodd" id="soccer-collar-03" sport="soccer"><path fill="#000" fill-opacity=".5" d="M30.75,2.18 C29.7749023,4.9032666 27.5249023,6.2648999 24,6.2648999 C20.4750977,6.2648999 18.2250977,4.9032666 17.25,2.18 L30.75,2.18 Z"></path><path fill="#262529" d="M30.4486804,0.4 L31.5001582,1.58466392 L31.692,1.67 L31.6990485,1.89423218 C29.1024722,2.61826803 26.5203857,2.98028596 23.9527893,2.98028596 C21.3851929,2.98028596 18.8509298,2.63393881 16.35,1.94124451 L16.343,1.845 L16.5331206,1.76290579 L17.8505592,0.4 C20.203887,0.921537936 22.3037658,1.18286536 24.1501956,1.18398228 C25.9876316,1.18509376 28.0871265,0.923766331 30.4486804,0.4 Z" coloured="" opacity="1" id="soccer-collar-03"></path><path fill="#000" fill-opacity=".5" d="M30.4486804,0.4 L31.5001582,1.58466392 L31.692,1.67 L31.6990485,1.89423218 C29.1024722,2.61826803 26.5203857,2.98028596 23.9527893,2.98028596 C21.3851929,2.98028596 18.8509298,2.63393881 16.35,1.94124451 L16.343,1.845 L16.5331206,1.76290579 L17.8505592,0.4 C20.203887,0.921537936 22.3037658,1.18286536 24.1501956,1.18398228 C25.9876316,1.18509376 28.0871265,0.923766331 30.4486804,0.4 Z"></path><path fill="#262529" d="M30.4437289,0.4 L31.699,1.701 L31.6957612,1.83431122 C31.5537677,4.64845237 28.1727723,6.9 24.0227263,6.9 C19.8756383,6.9 16.4965049,4.65166085 16.35,1.84032777 L16.5281691,1.76290579 L17.8456077,0.4 L18.2233174,0.4813756 C18.0099312,0.856479063 17.8950485,1.25116377 17.8950485,1.65 C17.8950485,3.57326891 20.5664871,5.4 24.0727263,5.4 C27.5789655,5.4 30.2504041,3.57326891 30.2504041,1.65 C30.2504041,1.26076701 30.1409872,0.875488012 29.9373775,0.508504815 L30.4437289,0.4 Z" coloured="" opacity="1" id="soccer-collar-03"></path><path fill="#000" fill-opacity=".5" d="M31.8415564,1.58 C31.8415564,4.79060313 28.3626159,7.03999025 24.0245,7.03999025 C19.7277272,7.03999025 16.2365265,4.63545577 16.2365265,1.78785812 L16.343,1.73485702 C16.4912222,4.60474766 19.7228934,6.88985702 24.0245,6.88985702 C28.3261066,6.88985702 31.699,4.54348023 31.6990485,1.58 L31.8415564,1.58 Z"></path></g>
        
                            <path fill-opacity="0.15" fill="#000000" fill-rule="nonzero" d="m10.234 48.926-1.257-.15a120.817 120.817 0 0 0 28.788.145l.016 1.514a.67.67 0 0 1-.206.101l-.168.052-.21.052-.25.052-.288.053-.324.052-.752.103-.879.1-.734.072-.791.07-.845.064-1.197.079-1.267.07-.988.044-.674.025-1.376.041-.698.015-1.411.018L24 51.5l-1.076-.005-1.057-.015-1.046-.024-1.029-.032-1.006-.04-.656-.03-1.267-.069-1.197-.079-.844-.065-.792-.069-.734-.072-.878-.1-.577-.077-.5-.078-.288-.053-.25-.052-.21-.052-.168-.052a.67.67 0 0 1-.206-.101l.014-1.509Zm37.19-28.899.144.361a13.074 13.074 0 0 1-3.592 2.696c-1.314.67-2.769 1.136-4.364 1.398l-.3.045-.142-.331c1.555-.22 2.974-.632 4.258-1.234l.389-.19a12.714 12.714 0 0 0 3.426-2.55l.18-.195Zm-46.99.357.144-.361-.112-.121a12.762 12.762 0 0 0 3.724 2.87c1.383.706 2.93 1.18 4.64 1.423l-.142.331-.293-.044c-1.596-.262-3.05-.728-4.364-1.398a13.074 13.074 0 0 1-3.597-2.7ZM7.926 5.567l.101.436.106.498.105.524.102.549.1.575.1.6.143.95.14 1.008.09.703.089.73.129 1.143.125 1.2.08.833.08.859.114 1.336.11 1.394.07.962.103 1.49.029.46-.262.614-.03-.511-.1-1.478-.103-1.423-.107-1.366-.111-1.311-.116-1.256-.08-.806-.08-.781-.084-.756-.128-1.089-.088-.694-.09-.67-.091-.645-.093-.62-.096-.596-.097-.57-.099-.546-.1-.521-.103-.497-.13-.583.135-.075.137-.07Zm32.148 0c.092.045.183.094.273.145l-.079.344-.103.484-.102.51-.1.533-.098.558-.096.583-.095.608-.092.632-.09.658-.09.682-.129 1.07-.084.744-.123 1.162-.08.806-.115 1.256-.111 1.31-.107 1.367-.137 1.91-.098 1.497-.26-.61.097-1.459.105-1.452.073-.936.113-1.355.078-.872.12-1.258.083-.807.085-.782.086-.755.134-1.085.091-.69.094-.666.095-.64.098-.613.15-.872.102-.55.13-.65.135-.61.047-.197Z"></path>                            
                        </g>
                    </svg>