<svg viewBox="0 0 48 52" xmlns="http://www.w3.org/2000/svg" xmlns:xlink="http://www.w3.org/1999/xlink" sport="soccer" title="Bayern_Munich_UCL_Front_25-26">
                        <defs>
                            <path id="kit" d="M10.22 50.435c.079-8.326.118-13.766.118-16.32 0-2.553-.161-6.661-.484-12.324l-1.63 3.825c-1.213.21-2.806-.165-4.778-1.125-1.92-.933-3.059-1.912-3.418-2.937L0 21.469 4.725 9.66c.809-2.154 1.936-3.546 3.381-4.176l8.278-3.621c.72-.393 3.26-.588 7.617-.586 4.357.003 6.894.198 7.613.586l8.162 3.572c1.502.604 2.669 2.013 3.499 4.225L48 21.47c-.325 1.055-1.473 2.063-3.446 3.022-1.972.96-3.565 1.335-4.778 1.125l-1.63-3.825c-.323 5.467-.484 9.575-.484 12.325s.04 8.19.119 16.319c-.535.464-7.158 1.065-13.78 1.065-6.623 0-13.246-.6-13.78-1.065Z"></path>
                            
                        </defs>
                        <mask id="kitMask" fill="#fff">
                            <use xlink:href="#kit"></use>
                        </mask>
                        <g fill="none" fill-rule="evenodd">
                            
            <path fill="#050505" d="M10.22 50.435c.079-8.326.118-13.766.118-16.32 0-2.553-.161-6.661-.484-12.324l-1.63 3.825c-1.213.21-2.806-.165-4.778-1.125-1.92-.933-3.059-1.912-3.418-2.937L0 21.469 4.725 9.66c.809-2.154 1.936-3.546 3.381-4.176l8.278-3.621c.72-.393 3.26-.588 7.617-.586 4.357.003 6.894.198 7.613.586l8.162 3.572c1.502.604 2.669 2.013 3.499 4.225L48 21.47c-.325 1.055-1.473 2.063-3.446 3.022-1.972.96-3.565 1.335-4.778 1.125l-1.63-3.825c-.323 5.467-.484 9.575-.484 12.325s.04 8.19.119 16.319c-.535.464-7.158 1.065-13.78 1.065-6.623 0-13.246-.6-13.78-1.065Z" coloured="" opacity="1" id="soccer-base" mask="url(#kitMask)" sport="soccer"></path><path fill="#121212" fill-rule="evenodd" d="M20.4997911,1.33079397 L20.5,3 L24.7,3 L24.7,6 L20.5,6 L20.5,9 L24.7,9 L24.7,12 L20.5,12 L20.5,15 L24.7,15 L24.7,18 L20.5,18 L20.5,21 L24.7,21 L24.7,24 L20.5,24 L20.5,27 L24.7,27 L24.7,30 L20.5,30 L20.5,33 L24.7,33 L24.7,36 L20.5,36 L20.5,39 L24.7,39 L24.7,42 L20.5,42 L20.5,45 L24.7,45 L24.7,48 L20.5,48 L20.5,51 L24.7,51 L24.7007228,51.4977926 L24.000546,51.5 C22.78817,51.5 21.575794,51.4798699 20.4007659,51.4441307 L20.4,51 L16.2,51 L16.1999738,51.2429534 L15.2987797,51.1787595 C14.5687952,51.1232143 13.8934833,51.062803 13.288937,50.9994738 L16.2,51 L16.2,48 L20.4,48 L20.4,45 L16.2,45 L16.2,48 L11.9,48 L11.9,45 L16.2,45 L16.2,42 L20.4,42 L20.4,39 L16.2,39 L16.2,42 L11.9,42 L11.9,39 L16.2,39 L16.2,36 L20.4,36 L20.4,33 L16.2,33 L16.2,36 L11.9,36 L11.9,33 L16.2,33 L16.2,30 L20.4,30 L20.4,27 L16.2,27 L16.2,30 L11.9,30 L11.9,27 L16.2,27 L16.2,24 L20.4,24 L20.4,21 L16.2,21 L16.2,24 L11.9,24 L11.9,21 L16.2,21 L16.2,18 L20.4,18 L20.4,15 L16.2,15 L16.2,18 L11.9,18 L11.9,15 L16.2,15 L16.2,12 L20.4,12 L20.4,9 L16.2,9 L16.2,12 L11.9,12 L11.9,9 L16.2,9 L16.2,6 L20.4,6 L20.4,3 L16.2,3 L16.2,6 L11.9,6 L11.9,3.82331755 L13.784,2.99931755 L16.2,3 L16.2,1.94231755 L16.3835008,1.86290579 C16.883035,1.5906021 18.2551318,1.41323149 20.4997911,1.33079397 Z M33.3,51 L33.3008785,51.131117 C32.0309116,51.2368194 30.5651829,51.3282224 29.000544,51.3936023 L29,51 L33.3,51 Z M29,48 L29,51 L24.7,51 L24.7,48 L29,48 Z M37.6,48 L37.602221,50.526547 C37.1776618,50.6833144 36.1431596,50.8495689 34.7121551,50.9994738 L33.3,51 L33.3,48 L37.6,48 Z M11.9,48 L11.8999062,50.8313385 L11.3090561,50.7391657 C10.7146422,50.6362971 10.3328443,50.532599 10.2202858,50.4349257 L10.2429588,47.9987034 L11.9,48 Z M33.3,45 L33.3,48 L29,48 L29,45 L33.3,45 Z M37.6,42 L37.6,45 L33.3,45 L33.3,42 L37.6,42 Z M29,42 L29,45 L24.7,45 L24.7,42 L29,42 Z M11.9,42 L11.9,45 L10.269667,44.9987417 L10.2945502,41.9988566 L11.9,42 Z M33.3,39 L33.3,42 L29,42 L29,39 L33.3,39 Z M37.6,36 L37.6,39 L33.3,39 L33.3,36 L37.6,36 Z M29,36 L29,39 L24.7,39 L24.7,36 L29,36 Z M11.9,36 L11.9,39 L10.3166514,38.9988175 L10.333663,36 L11.9,36 Z M33.3,33 L33.3,36 L29,36 L29,33 L33.3,33 Z M37.6,6 L37.599,4.48231755 L39.7758433,5.4345938 C40.1320979,5.57799522 40.4694522,5.7665837 40.7879063,6.00035923 L37.6,6 L37.6,9 L41.9,9 L41.9,12 L37.6,12 L37.6,15 L41.9,15 L41.9,18 L37.6,18 L37.6,21 L41.9,21 L41.9,24 L39.087,23.9993176 L38.1463424,21.7912482 L38.0204961,24.000217 L37.6,24 L37.6,27 L37.8678249,27.0010787 L37.8119761,28.2565066 C37.7862518,28.8657279 37.7638276,29.4472103 37.7447036,30.0009538 L37.6,30 L37.6,33 L33.3,33 L33.3,30 L37.6,30 L37.6,27 L33.3,27 L33.3,30 L29,30 L29,27 L33.3,27 L33.3,24 L37.6,24 L37.6,21 L33.3,21 L33.3,24 L29,24 L29,21 L33.3,21 L33.3,18 L37.6,18 L37.6,15 L33.3,15 L33.3,18 L29,18 L29,15 L33.3,15 L33.3,12 L37.6,12 L37.6,9 L33.3,9 L33.3,12 L29,12 L29,9 L33.3,9 L33.3,6 L37.6,6 Z M29,30 L29,33 L24.7,33 L24.7,30 L29,30 Z M11.9,30 L11.9,33 L10.3296416,33.0008066 L10.3153941,32.2248692 C10.3007116,31.5512244 10.2790054,30.8100038 10.2502754,30.0012073 L11.9,30 Z M29,24 L29,27 L24.7,27 L24.7,24 L29,24 Z M11.9,24 L11.9,27 L10.1259829,27.0007028 L10.0406267,25.2464948 C10.0200608,24.8412975 9.99842958,24.4258514 9.97573314,24.0001566 L11.9,24 Z M8.912,23.9993176 L8.2241567,25.6160522 C8.0265796,25.6502214 7.81892268,25.6688763 7.60118596,25.6720171 L7.6,24 L8.912,23.9993176 Z M44.5541569,24.4913321 C43.57589,24.9672021 42.6910457,25.2992822 41.899624,25.4875723 L41.9,23.9999922 L45.48493,23.9999922 C45.1982758,24.165148 44.8880181,24.328928 44.5541569,24.4913321 Z M3.4,12.9713176 L3.4,15 L7.6,15 L7.6,18 L3.4,18 L3.4,21 L7.6,21 L7.6,24 L3.4,24 L3.4,24.4693176 L3.1492747,24.3435374 C2.92627595,24.2296322 2.71477009,24.115057 2.5147571,23.9998119 L3.3,24 L3.3,21 L0.189,20.9993176 L1.389,17.9993176 L3.3,18 L3.3,15 L2.589,14.9993176 L3.4,12.9713176 Z M46.199,16.9683176 L46.612,17.9993176 L46.2,18 L46.2,21 L47.812,20.9993176 L48,21.4685118 C47.7797315,22.1848737 47.1799964,22.8791162 46.2007947,23.5512396 L46.2,21 L41.9,21 L41.9,18 L46.2,18 L46.199,16.9683176 Z M29,18 L29,21 L24.7,21 L24.7,18 L29,18 Z M11.9,18 L11.9,21 L7.6,21 L7.6,18 L11.9,18 Z M45.411,14.9993176 L41.9,15 L41.9,12 L44.21,11.9993176 L45.411,14.9993176 Z M29,12 L29,15 L24.7,15 L24.7,12 L29,12 Z M11.9,12 L11.9,15 L7.6,15 L7.6,12 L11.9,12 Z M4.99375409,8.99917094 L7.6,9 L7.6,12 L3.789,11.9993176 L4.72526396,9.66007698 C4.81116133,9.43116961 4.90065804,9.2108676 4.99375409,8.99917094 Z M43.0062402,8.999158 L41.9,9 L41.9003195,7.09754741 C42.3127776,7.62665721 42.6814178,8.26052741 43.0062402,8.999158 Z M11.9,6 L11.9,9 L7.6,9 L7.6,6 L11.9,6 Z M29,6 L29,9 L24.7,9 L24.7,6 L29,6 Z M33.3,2.60031755 L34.211,2.99931755 L33.3,3 L33.3,6 L29,6 L29,3 L33.3,3 L33.3,2.60031755 Z M29.0016063,1.41302346 L29,3 L24.7,3 L24.7013064,1.27931755 L25.5537444,1.28723897 C26.9292341,1.30522896 28.0785214,1.34715712 29.0016063,1.41302346 Z" coloured="" opacity="1" id="soccer-square-02" mask="url(#kitMask)" sport="soccer"></path><g fill="none" fill-rule="evenodd" mask="url(#kitMask)" id="soccer-shoulder-02" sport="soccer"><path fill="#ebdbce" fill-opacity=".5" d="M16.7161775,1.73138707 C16.7796549,1.84367345 16.850601,1.95688496 16.9290158,2.07102158 L17.7182455,3.8397491 L8.469,7.95711273 L8.3541902,7.31038844 L8.25105389,6.76962646 L8.19874728,6.50898072 L8.09265715,6.00715978 L7.98639107,5.53832989 L16.3835008,1.86290579 C16.4510987,1.82605717 16.5346749,1.79094697 16.6342294,1.75757517 L16.7161775,1.73138707 Z M31.6139292,1.86290579 L39.7758433,5.4345938 C39.8783466,5.47585397 39.9792853,5.52085497 40.0786593,5.56959682 L39.9768771,6.00329659 L39.8705431,6.50103593 L39.7661836,7.02453169 L39.6637981,7.573786 L39.6178375,7.83125604 L30.6502025,3.8397491 L31.5454936,1.82904728 L31.6139292,1.86290579 Z" coloured="" opacity="1" id="soccer-shoulder-02"></path><path fill="#ebdbce" d="M17.0631247,2.25745554 C17.1699585,2.39964132 17.2881819,2.54323789 17.4177949,2.68824524 L8.26549606,6.76442476 L8.23626003,6.699 L8.19874728,6.50898072 L8.13926003,6.23 L17.0631247,2.25745554 Z M31.0046565,2.13516159 L39.9518375,6.11868989 L39.8388375,6.65768989 L30.6614178,2.57312771 C30.7456272,2.47481914 30.8245471,2.37716574 30.8981777,2.28016753 L31.0046565,2.13516159 Z M16.7167061,1.73232179 C16.7683279,1.82358125 16.8248827,1.91545173 16.8863705,2.00793325 L8.07526003,5.931 L7.98639107,5.53832989 L16.3835008,1.86290579 C16.4510987,1.82605717 16.5346749,1.79094697 16.6342294,1.75757517 L16.7167061,1.73232179 Z M31.6139292,1.86290579 L39.7758433,5.4345938 C39.8783466,5.47585397 39.9792853,5.52085497 40.0786593,5.56959682 L40.0188375,5.82068989 L31.1725237,1.88276573 L31.2643837,1.72765716 C31.4081129,1.76983501 31.5249643,1.81489484 31.6139292,1.86290579 Z" coloured="" opacity="1" id="soccer-shoulder-02"></path></g><path d="M47.56 20.365 48 21.47c-.325 1.055-1.473 2.063-3.446 3.022-1.972.96-3.565 1.335-4.778 1.125l-.464-1.088.261-.038c1.596-.263 3.05-.728 4.364-1.398a13.078 13.078 0 0 0 3.622-2.727Zm-47.118.001a13.078 13.078 0 0 0 3.62 2.726c1.315.67 2.77 1.135 4.365 1.398l.26.038-.463 1.088c-1.213.21-2.806-.165-4.778-1.125-1.92-.933-3.059-1.912-3.418-2.937L0 21.469l.442-1.103Z" fill="#5b6b4c" fill-rule="nonzero" coloured="" opacity="1" id="soccer-trim-01" mask="url(#kitMask)" sport="soccer"></path><path fill="#a12531" fill-rule="evenodd" d="M46.8294415,18.69 L47.015,19.008 L48,21.4685118 C47.6754097,22.5241513 46.5267953,23.531758 44.5541569,24.4913321 C44.1905002,24.6682299 43.8397534,24.8252578 43.5019164,24.9624158 L44.419995,21.5199894 L46.8294415,18.69 Z M1.184,18.51 L4.01513678,22.5244294 L4.32747546,24.891923 C4.04255031,24.7721715 3.74867287,24.6386412 3.44584315,24.4913321 C1.52651922,23.5576924 0.387279465,22.5785814 0.0281238815,21.553999 L-1.13686838e-13,21.4685118 L1.184,18.51 Z" coloured="" opacity="1" id="soccer-trim-02" mask="url(#kitMask)" sport="soccer"></path><path fill="#ebdbce" d="M32.5726359,13.2 L33.1029034,13.71266 L31.6567156,15.1108316 L33.1029034,16.5089872 L32.5726359,17.0216471 L31.12646,15.6234801 L29.6802675,17.0216471 L29.15,16.5089872 L30.5962044,15.1108316 L29.15,13.71266 L29.6802675,13.2 L31.12646,14.5981831 L32.5726359,13.2 Z" coloured="" opacity="1" id="soccer-badge-09" mask="url(#kitMask)" sport="soccer"></path><g fill="none" fill-rule="evenodd" mask="url(#kitMask)" id="soccer-collar-05" sport="soccer"><path fill="#000" fill-opacity=".5" fill-rule="nonzero" d="M17,1.6 L17.0818808,1.72029058 C17.4394639,2.2240607 17.9574239,2.78292009 18.6383405,3.38781854 L19.0154219,3.71345174 C19.2116421,3.87838365 19.4193922,4.04645085 19.6387205,4.21748372 L20.2111907,4.65114621 L20.8320715,5.09657671 L21.6412667,5.64579786 L22.2197362,6.02038598 L22.8295108,6.40137485 L23.4706765,6.78846295 L24.0048841,7.1 L24.5385303,6.78836216 L25.180011,6.40107711 L25.4889622,6.20970537 L26.0833401,5.83169221 L26.6464237,5.46023781 L27.1782991,5.09564419 C27.436449,4.91511291 27.6829282,4.73726767 27.917785,4.56227835 L28.3720165,4.21615794 L28.795341,3.87795533 C29.8198047,3.03873581 30.5526453,2.2772911 31,1.6151519 C28.6764615,2.15400758 26.3557826,2.4225131 24.0351036,2.4225131 C21.6900691,2.4225131 19.3450345,2.14834207 17,1.6 Z"></path><path fill="#a12531" fill-rule="nonzero" d="M16.6275639,2.5883774 L16.515443,2.34809849 L16.4297032,2.11979081 L16.3788874,1.94758056 L16.3368388,1.75625226 C16.3152093,1.63564961 16.3031045,1.51622675 16.3005242,1.39798368 L16.3835008,1.36290579 L17.7009394,0 L18.2839912,0.124963432 C20.4024869,0.56328549 22.3080151,0.78295844 24.0005758,0.783982281 C25.7214721,0.785023262 27.6722392,0.555860081 29.8528773,0.0964927384 L30.2990606,0 L31.6139292,1.36290579 L31.6535415,1.379 L31.648684,1.52176956 L31.6366536,1.63852427 L31.6097184,1.80274226 L31.5594155,2.010126 L31.5060278,2.17723444 L31.4174652,2.40023319 L31.2901219,2.66004057 L31.1753121,2.85949382 L31.0661222,3.02948771 L30.978939,3.15503792 L30.8162307,3.37106596 L30.7331605,3.47401 L30.5420259,3.69616003 L30.5278585,3.71192085 C30.3921063,3.86251766 30.2440956,4.01463291 30.0838263,4.16826658 C29.5563377,4.67383362 28.8969902,5.19524411 28.1051973,5.7330602 L27.6752474,6.01827636 L27.4510592,6.16202565 L26.8637168,6.52472742 L26.2379861,6.89218424 L25.7097619,7.18957333 L25.1569691,7.49000565 L24.8713595,7.64136303 L24.2817138,7.9463602 L23.9776778,8.1 L23.3757478,7.79348121 L22.7983865,7.49000565 L22.2455937,7.18957333 L21.7173694,6.89218424 L21.2137138,6.59783838 L20.7346267,6.30653575 C20.5790257,6.20994208 20.4275196,6.11385562 20.2801082,6.01827636 L19.8501582,5.7330602 C19.2890355,5.35192412 18.7944292,4.97902722 18.3663395,4.61436952 L18.1970732,4.46755183 L17.9934761,4.2832629 L17.699503,3.99920212 L17.5559358,3.8509914 L17.2999471,3.56665134 L17.0696766,3.281417 L16.8735888,3.00607859 L16.840231,2.95516753 C16.7604672,2.83171832 16.6896085,2.70950198 16.6275639,2.5883774 Z M18.1789135,2.28860946 L18.3246468,2.47971113 C18.5498362,2.75237241 18.6632729,3.08291457 18.6677223,3.41362106 C18.9119565,3.63146485 19.1895021,3.85765439 19.4990022,4.09166 L19.960954,4.42980344 L20.4661828,4.77802 L20.6804256,4.92002057 L21.1297952,5.20850679 L21.7307639,5.57721023 L22.3754917,5.95446499 L22.922882,6.26210618 L23.4984517,6.57467236 L23.9777862,6.82623254 L24.4570562,6.57459098 L25.3102521,6.10733676 L25.8438208,5.80209841 L26.3492968,5.50215613 L26.8267574,5.2077538 L27.27628,4.91913528 L27.4905886,4.77707115 L27.8983488,4.49758558 L28.2783642,4.22449348 L28.6307119,3.95803872 L28.9554692,3.69846515 C29.0726574,3.60197832 29.1839854,3.5070091 29.2894719,3.41361621 C29.2910169,3.13155077 29.3744949,2.8486728 29.5395303,2.60207742 L29.6572448,2.44697015 C29.8423456,2.213154 29.9755441,1.99536089 30.0573644,1.79524465 C28.1599292,2.19155107 25.9087924,2.46028596 24.0027893,2.46028596 C22.0774253,2.46028596 19.8386344,2.19868943 17.9132703,1.79372241 L17.8743062,1.733871 C17.9365403,1.90552529 18.0379595,2.09080588 18.1789135,2.28860946 Z" coloured="" opacity="1" id="soccer-collar-05"></path><path fill="#000" fill-opacity=".2" fill-rule="nonzero" d="M18.1756135.101109656 18.4057633.149965372C18.1750701.514520549 18.05.903665474 18.05 1.3 18.05 1.51238473 18.1603022 1.78334255 18.3871084 2.099973L18.6168478 2.40315364C19.047767 3.03833518 19.0146258 3.88931312 18.5161077 4.49918765L18.2482419 4.79514513 17.8345584 4.42683113C16.7324968 3.40692883 16.1351106 2.43514132 16.0584565 1.50457663L16.3005414 1.39876461C16.3217203 2.35383345 16.9642354 3.38586528 18.2280867 4.49486011L18.3307533 4.38142669C18.7783468 3.83342592 18.7841426 3.03607261 18.3246468 2.47971113L18.1789135 2.28860946C17.9256283 1.9331693 17.8 1.61816558 17.8 1.35 17.8.922606908 17.9319229.499981116 18.1756135.101109656ZM29.5565928.157100904 29.7852244.110118306C30.0254106.506341975 30.1553555.925823077 30.1553555 1.35L30.152447 1.42173663C30.1324157 1.67240567 30.0088689 1.96115126 29.7802925 2.28319535L29.5395303 2.60207742C29.1458502 3.19031316 29.2162534 3.98500674 29.7272688 4.49486011 30.9370487 3.43331149 31.5775204 2.44228131 31.648684 1.52176956L31.6535415 1.379 31.8983119 1.48664793C31.8232052 2.48505848 31.1478656 3.53092492 29.892158 4.63277384L29.7163088 4.78707665 29.5506935 4.62183791C28.9493947 4.02190644 28.8709113 3.08399481 29.3433225 2.39595901L29.572131 2.09456101C29.7778042 1.8063494 29.8869052 1.55659732 29.9026522 1.36160873L29.9053555 1.3C29.9053555.906905667 29.7823221.52088386 29.5565928.157100904Z"></path><path fill="#000" fill-opacity=".5" fill-rule="nonzero" d="M18.1756135,0.100792529 L17.7009394,0 C20.0542672,0.521537936 22.154146,0.782865363 24.0005758,0.783982281 C25.7613211,0.785047367 27.5525208,0.561630249 29.8133207,0.100792529 C29.8880572,0.29300525 29.9773893,0.467529297 30.0663724,0.711380005 C30.1553555,0.955230713 30.2071838,1.32400513 30.0663724,1.79372241 C28.1599292,2.19155107 25.9087924,2.46028596 24.0027893,2.46028596 C22.0774253,2.46028596 19.8107095,2.19868943 17.8853455,1.79372241 C17.7720751,1.37692604 17.7720751,1.19929504 17.8500519,0.835525513 C17.9280286,0.471755981 18.0536499,0.345687866 18.1756135,0.100792529 Z"></path></g><path id="kit-outline" stroke="rgba(255,255,255,0.3)" stroke-width=".75" d="M23.5972439,1.65247019 C28.2695525,1.6548216 30.7628201,1.81564155 31.4481987,2.19971541 L39.630739,5.78042954 C41.0555869,6.35178651 42.1401622,7.70393642 42.9265765,9.79939653 L47.6002981,21.4790269 C47.2451532,22.4229315 46.1494091,23.2983207 44.3901194,24.154113 C42.6185393,25.0158838 41.1685064,25.4024043 40.0380612,25.2747748 L37.868054,20.1812813 C37.4802197,26.4558273 37.2865868,31.1005844 37.2865871,34.1161115 C37.2903357,37.3484873 37.3292984,42.5879818 37.4037132,50.2238215 C36.3455177,50.6518503 30.3745012,51.1047915 24.3617064,51.1244087 L23.6014087,51.1223585 C17.4071181,51.0885873 11.6343002,50.643568 10.5972999,50.2234737 C10.6712421,42.3850844 10.7098646,37.1351619 10.7131798,34.4732809 C10.7134349,31.2905086 10.5208336,26.6792554 10.1351381,20.1737887 L7.96193877,25.2747748 C6.83149362,25.4024043 5.38146065,25.0158838 3.60988064,24.154113 C1.89858905,23.321669 0.816962859,22.4703287 0.43061824,21.5557427 L5.0763586,9.79182506 C5.83900262,7.75945969 6.88671108,6.4245588 8.25653961,5.82757137 L16.5500075,2.19937783 C17.2138802,1.82288528 19.5728011,1.66179303 23.5972439,1.65247019 Z"></path>
        
                            <path fill-opacity="0.15" fill="#000000" fill-rule="nonzero" d="m10.234 48.926-1.257-.15a120.817 120.817 0 0 0 28.788.145l.016 1.514a.67.67 0 0 1-.206.101l-.168.052-.21.052-.25.052-.288.053-.324.052-.752.103-.879.1-.734.072-.791.07-.845.064-1.197.079-1.267.07-.988.044-.674.025-1.376.041-.698.015-1.411.018L24 51.5l-1.076-.005-1.057-.015-1.046-.024-1.029-.032-1.006-.04-.656-.03-1.267-.069-1.197-.079-.844-.065-.792-.069-.734-.072-.878-.1-.577-.077-.5-.078-.288-.053-.25-.052-.21-.052-.168-.052a.67.67 0 0 1-.206-.101l.014-1.509Zm37.19-28.899.144.361a13.074 13.074 0 0 1-3.592 2.696c-1.314.67-2.769 1.136-4.364 1.398l-.3.045-.142-.331c1.555-.22 2.974-.632 4.258-1.234l.389-.19a12.714 12.714 0 0 0 3.426-2.55l.18-.195Zm-46.99.357.144-.361-.112-.121a12.762 12.762 0 0 0 3.724 2.87c1.383.706 2.93 1.18 4.64 1.423l-.142.331-.293-.044c-1.596-.262-3.05-.728-4.364-1.398a13.074 13.074 0 0 1-3.597-2.7ZM7.926 5.567l.101.436.106.498.105.524.102.549.1.575.1.6.143.95.14 1.008.09.703.089.73.129 1.143.125 1.2.08.833.08.859.114 1.336.11 1.394.07.962.103 1.49.029.46-.262.614-.03-.511-.1-1.478-.103-1.423-.107-1.366-.111-1.311-.116-1.256-.08-.806-.08-.781-.084-.756-.128-1.089-.088-.694-.09-.67-.091-.645-.093-.62-.096-.596-.097-.57-.099-.546-.1-.521-.103-.497-.13-.583.135-.075.137-.07Zm32.148 0c.092.045.183.094.273.145l-.079.344-.103.484-.102.51-.1.533-.098.558-.096.583-.095.608-.092.632-.09.658-.09.682-.129 1.07-.084.744-.123 1.162-.08.806-.115 1.256-.111 1.31-.107 1.367-.137 1.91-.098 1.497-.26-.61.097-1.459.105-1.452.073-.936.113-1.355.078-.872.12-1.258.083-.807.085-.782.086-.755.134-1.085.091-.69.094-.666.095-.64.098-.613.15-.872.102-.55.13-.65.135-.61.047-.197Z"></path>                            
                        </g>
                    </svg>