<svg width="88" height="10" viewbox="0 0 88 10" version="1.1" xmlns="http://www.w3.org/2000/svg" xmlns:xlink="http://www.w3.org/1999/xlink"><title>Bet-Builder-Plus-en</title><g id="Bet-Builder-Plus-en" stroke="none" stroke-width="1" fill="none" fill-rule="evenodd"><g id="{word-1}" transform="translate(.546 .329)" fill="#FFFFFF" fill-rule="nonzero"><path d="m0 8.671 3.445 0c.819 0 1.248-.052 1.677-.221 1.001-.39 1.651-1.339 1.651-2.392 0-.611-.208-1.118-.585-1.443-.273-.234-.481-.325-1.027-.455.559-.247.767-.416 1.027-.793.247-.364.39-.858.39-1.352 0-.65-.247-1.235-.689-1.573-.416-.325-.936-.442-2.054-.442l-2.769 0-1.066 8.671Zm3.445-6.942c.819 0 1.053.169 1.053.754 0 .676-.39.962-1.352.962l-.312 0 .208-1.716.403 0Zm-.156 3.341c.949 0 1.209.182 1.209.819 0 .741-.416 1.053-1.495 1.053l-.598 0 .221-1.872.663 0Z" id="Shape"/><polygon id="Path" points="8.905 0 7.839 8.671 12.688 8.671 12.922 6.76 10.27 6.76 10.452 5.252 12.922 5.252 13.156 3.354 10.686 3.354 10.868 1.911 13.416 1.911 13.65 0"/><polygon id="Path" points="20.345 1.911 20.579 0 14.69 0 14.456 1.911 16.302 1.911 15.47 8.671 17.654 8.671 18.499 1.911"/></g><g id="{word-2}" transform="translate(24.546 .329)" fill="#28FFBB" fill-rule="nonzero"><path d="m0 8.671 3.445 0c.819 0 1.248-.052 1.677-.221 1.001-.39 1.651-1.339 1.651-2.392 0-.611-.208-1.118-.585-1.443-.273-.234-.481-.325-1.027-.455.559-.247.767-.416 1.027-.793.247-.364.39-.858.39-1.352 0-.65-.247-1.235-.689-1.573-.416-.325-.936-.442-2.054-.442l-2.769 0-1.066 8.671Zm3.445-6.942c.819 0 1.053.169 1.053.754 0 .676-.39.962-1.352.962l-.312 0 .208-1.716.403 0Zm-.156 3.341c.949 0 1.209.182 1.209.819 0 .741-.416 1.053-1.495 1.053l-.598 0 .221-1.872.663 0Z" id="Shape"/><path d="m14.209 0-.598 4.94c-.104.78-.195 1.079-.468 1.391-.26.286-.689.429-1.235.429-.962 0-1.43-.442-1.43-1.352 0-.221.013-.468.039-.728l.572-4.68-2.184 0-.572 4.68c-.065.533-.104.936-.104 1.196 0 1.859 1.365 2.964 3.614 2.964 1.274 0 2.314-.338 2.964-.962.559-.533.78-1.196.988-2.86l.611-5.018-2.197 0Z" id="Path"/><polygon id="Path" points="18.226 0 17.16 8.671 19.357 8.671 20.423 0"/><polygon id="Path" points="22.243 0 21.177 8.671 26.13 8.671 26.377 6.76 23.608 6.76 24.44 0"/><path d="m27.313 8.671 2.86 0c.884 0 2.457-.039 3.77-1.118.767-.637 1.456-1.664 1.456-3.549 0-1.261-.351-2.236-1.092-2.925-.936-.871-2.249-1.079-3.471-1.079l-2.457 0-1.066 8.671Zm3.627-6.76c.481 0 1.105.065 1.573.494.377.351.624.936.624 1.703 0 .819-.299 1.547-.78 1.989-.221.208-.819.663-1.95.663l-.663 0 .598-4.849.598 0Z" id="Shape"/><polygon id="Path" points="37.401 0 36.335 8.671 41.184 8.671 41.418 6.76 38.766 6.76 38.948 5.252 41.418 5.252 41.652 3.354 39.182 3.354 39.364 1.911 41.912 1.911 42.146 0"/><path d="M48.867 4.615c.468-.494.702-1.144.702-1.924 0-.78-.247-1.495-.663-1.937-.494-.52-1.222-.754-2.405-.754l-2.821 0-1.066 8.671 2.197 0 .416-3.445 1.976 3.445 2.548 0-2.028-3.367c.598-.208.832-.351 1.144-.689Zm-2.795-2.873c.923 0 1.235.26 1.235 1.014 0 .819-.481 1.209-1.534 1.209l-.39 0 .273-2.223.416 0Z" id="Shape"/></g><path d="m84.208.345-.106.606-.348 2.737 3.414.001-.254 1.925-3.403 0-.428 3.385-2.146.001.428-3.387-3.365 0 .254-1.924 3.355 0 .347-2.738.093-.606 2.159 0Z" id="Combined-Shape" fill="#28FFBB" fill-rule="nonzero"/></g></svg>