<svg viewBox="0 0 48 52" xmlns="http://www.w3.org/2000/svg" xmlns:xlink="http://www.w3.org/1999/xlink" sport="soccer" title="Chelsea_Home_Front_2526">
                        <defs>
                            <path id="kit" d="M10.22 50.435c.079-8.326.118-13.766.118-16.32 0-2.553-.161-6.661-.484-12.324l-1.63 3.825c-1.213.21-2.806-.165-4.778-1.125-1.92-.933-3.059-1.912-3.418-2.937L0 21.469 4.725 9.66c.809-2.154 1.936-3.546 3.381-4.176l8.278-3.621c.72-.393 3.26-.588 7.617-.586 4.357.003 6.894.198 7.613.586l8.162 3.572c1.502.604 2.669 2.013 3.499 4.225L48 21.47c-.325 1.055-1.473 2.063-3.446 3.022-1.972.96-3.565 1.335-4.778 1.125l-1.63-3.825c-.323 5.467-.484 9.575-.484 12.325s.04 8.19.119 16.319c-.535.464-7.158 1.065-13.78 1.065-6.623 0-13.246-.6-13.78-1.065Z"></path>
                            
                        </defs>
                        <mask id="kitMask" fill="#fff">
                            <use xlink:href="#kit"></use>
                        </mask>
                        <g fill="none" fill-rule="evenodd">
                            
            <path fill="#274fab" d="M10.22 50.435c.079-8.326.118-13.766.118-16.32 0-2.553-.161-6.661-.484-12.324l-1.63 3.825c-1.213.21-2.806-.165-4.778-1.125-1.92-.933-3.059-1.912-3.418-2.937L0 21.469 4.725 9.66c.809-2.154 1.936-3.546 3.381-4.176l8.278-3.621c.72-.393 3.26-.588 7.617-.586 4.357.003 6.894.198 7.613.586l8.162 3.572c1.502.604 2.669 2.013 3.499 4.225L48 21.47c-.325 1.055-1.473 2.063-3.446 3.022-1.972.96-3.565 1.335-4.778 1.125l-1.63-3.825c-.323 5.467-.484 9.575-.484 12.325s.04 8.19.119 16.319c-.535.464-7.158 1.065-13.78 1.065-6.623 0-13.246-.6-13.78-1.065Z" coloured="" opacity="1" id="soccer-base" mask="url(#kitMask)" sport="soccer"></path><path d="M47.56 20.365 48 21.47c-.325 1.055-1.473 2.063-3.446 3.022-1.972.96-3.565 1.335-4.778 1.125l-.464-1.088.261-.038c1.596-.263 3.05-.728 4.364-1.398a13.078 13.078 0 0 0 3.622-2.727Zm-47.118.001a13.078 13.078 0 0 0 3.62 2.726c1.315.67 2.77 1.135 4.365 1.398l.26.038-.463 1.088c-1.213.21-2.806-.165-4.778-1.125-1.92-.933-3.059-1.912-3.418-2.937L0 21.469l.442-1.103Z" fill="#1a2387" fill-rule="nonzero" coloured="" opacity="1" id="soccer-trim-01" mask="url(#kitMask)" sport="soccer"></path><path fill="#2740a3" fill-rule="evenodd" d="M20.6770599,3.77930076 L20.6432235,4.07535979 C20.5170752,5.27093341 20.6807027,5.35901504 22.0540599,5.43330076 C22.0880599,6.67130076 22.4310599,7.74630076 23.4150599,8.65730076 L23.7837514,8.99281233 C25.0783585,10.1451133 25.7709765,10.4400508 26.7820599,9.86530076 L24.2140599,7.12130076 L23.9710599,7.92230076 C22.2840599,6.48130076 22.3380599,4.51630076 22.0480599,2.69430076 C23.7070599,2.12330076 24.6730599,4.04830076 26.2240599,3.62730076 C26.2900599,3.60930076 26.5200599,4.10630076 26.6340599,4.37930076 C26.8430599,4.87730076 27.0220599,5.38730076 27.2130599,5.89330076 L27.5030599,5.87430076 L28.1560599,1.43530076 C28.7570599,1.49630076 29.6250599,1.76730076 30.4140599,1.62030076 C31.4836599,1.41963409 32.2980243,1.87665631 33.1563508,2.25963409 L33.3410599,2.34030076 C35.2070599,3.13430076 37.0320599,4.03630076 38.9280599,4.74930076 C40.8200599,5.46130076 41.8110599,6.94930076 42.6780599,8.60130076 C42.7880599,8.81230076 42.8150599,9.06730076 42.8610599,9.23230076 C42.3630599,9.17030076 41.6700599,8.93930076 41.5670599,9.09630076 C41.1800599,9.68530076 40.9860599,10.4003008 40.7190599,11.0693008 L41.9290599,11.5273008 L39.4420599,13.8593008 L43.1590599,14.2073008 L43.6780599,11.4973008 L43.9970599,11.4403008 L44.9122451,14.5894119 C45.0627265,15.1148563 45.2107265,15.6409674 45.3540599,16.1683008 C45.5140599,16.7563008 45.5750599,17.3703008 45.6810599,17.9733008 L45.6810599,19.5733008 L45.1039481,19.669896 C44.2629721,19.8182102 43.5051339,20.0684489 43.6110599,21.3803008 L43.5116826,20.9822657 C43.2891623,20.1345456 43.1725799,20.1794608 42.2010599,20.5473008 C42.1090599,20.5823008 42.0050599,20.5853008 41.9100599,20.6143008 L36.3490599,22.3373008 L36.5050599,23.3363008 C35.8730599,23.3763008 35.2820599,23.4843008 34.7050599,23.4363008 C33.916354,23.3694772 33.6848246,23.6870966 33.73118,24.3533095 L33.7430599,24.4823008 C33.8380599,25.3313008 33.8730599,26.1883008 33.9380599,27.0803008 L32.3440599,26.9583008 C32.6003456,27.6071579 32.8426721,28.1406681 33.0275876,28.6747031 L33.1150599,28.9423008 C33.2544445,29.3992238 33.4832966,29.6516499 33.9203817,29.5981169 L34.0340599,29.5783008 C35.0440599,29.3555735 35.3763739,29.8592925 35.4765317,30.6446794 L35.5000599,30.8883008 C35.5210599,31.1843008 35.5670599,31.4883008 35.6600599,31.7683008 C35.9040599,32.4963008 36.2900599,33.1933008 36.4240599,33.9383008 C36.9680599,36.9643008 36.3080599,39.9403008 35.9000599,42.9193008 C35.8760599,43.0923008 35.3300599,43.3793008 35.1290599,43.3113008 C34.0580599,42.9493008 33.7440599,43.6953008 33.5080599,44.4083008 C33.2380599,45.2263008 33.9270599,46.8663008 34.5630599,47.1223008 L36.4680599,42.6923008 C37.7781015,43.7320924 37.5011432,44.9831167 37.3279261,46.188374 L37.3060599,46.3453008 C37.1410599,47.5803008 36.9140599,48.8073008 36.6720599,50.2993008 L32.5481751,50.7192623 C32.3621463,50.7377082 32.1756154,50.7560785 31.9890599,50.7743008 C30.5540599,50.9143008 29.1170599,51.0403008 27.6810599,51.1733008 L26.4810599,51.1733008 C25.4610599,50.3543008 24.4440599,49.5313008 23.4160599,48.7223008 C23.3330599,48.6573008 23.1460599,48.6343008 23.0570599,48.6833008 C21.8240599,49.3643008 20.4050599,49.8013008 19.6810599,51.1733008 L19.0810599,51.1733008 L18.5775599,51.0494258 C18.4095599,51.0088008 18.2410599,50.9738008 18.0710599,50.9593008 C16.8250599,50.8563008 15.5770599,50.7813008 14.1330599,50.6813008 L15.0190599,49.8663008 L14.7320803,49.5367069 C13.6768153,48.3453953 12.5723294,47.3708847 10.8857115,47.5243032 L10.6520599,47.5523008 C10.5880599,47.5613008 10.4960599,47.5663008 10.4570599,47.5303008 C10.2680599,47.3533008 9.94105987,47.1653008 9.93705987,46.9753008 L9.90363955,45.8306316 C9.87366667,44.4575957 9.96240769,43.1059964 11.0580599,41.9853008 C11.1620599,41.8783008 11.2070599,41.7133008 11.1590599,41.8053008 C10.7100599,41.4333008 10.0310599,41.1283008 10.0360599,40.8323008 C10.0530599,39.6213008 9.62005987,38.3173008 10.2740599,37.5493008 L9.96605987,34.8453008 L10.7022821,34.7506341 C10.804171,34.7368563 10.8997265,34.7229674 10.9950599,34.7073008 C11.9950599,34.5433008 12.5240599,33.8703008 12.2200599,32.8933008 C11.9380599,31.9873008 11.9190599,31.3043008 12.9820599,30.9513008 C12.7170599,30.5323008 12.4520599,30.2183008 12.3030599,29.8563008 C12.0630599,29.2753008 11.7040599,28.6423008 11.7600599,28.0673008 C11.8120599,27.5373008 12.2380599,26.8843008 12.6950599,26.5963008 C13.1780599,26.2923008 14.8680599,27.1033008 15.1530599,27.4993008 C15.2770599,27.6703008 15.5590599,27.7273008 15.8970599,27.9033008 L15.7690599,26.8753008 L16.7920599,26.8253008 L13.7260599,22.6183008 L11.5740599,24.2773008 C11.1350599,24.6123008 10.6380599,25.2013008 10.1190599,24.7103008 C9.78305987,24.3923008 9.70805987,23.7103008 9.68905987,23.1863008 C9.68030987,22.9413008 9.94718487,22.6825195 10.1480247,22.4334043 L10.2290599,22.3273008 C10.4340599,22.0403008 10.7710599,21.7933008 10.8470599,21.4793008 C11.0638099,20.5830508 11.2198099,19.6727383 11.4002786,18.7677695 L11.5920599,17.8653008 C11.7150599,17.3273008 11.5000599,17.2943008 11.0930599,17.3863008 L11.0680599,17.3603008 C11.0570599,17.0023008 11.1530599,16.5953008 11.0150599,16.2963008 C10.6050599,15.4083008 10.1030599,14.5623008 9.62305987,13.6753008 L10.2116535,13.5168534 C11.5449312,13.1690138 11.6589445,13.2741469 12.6470599,14.1853008 L11.4410599,10.4203008 L10.0690599,11.8703008 L9.28005987,11.0143008 L2.19105987,15.2813008 L2.1540103,15.0375136 C2.14085414,14.9639742 2.13563129,14.9288722 2.14705987,14.9003008 C2.69905987,13.5083008 3.23505987,12.1093008 3.82005987,10.7313008 C4.11305987,10.0423008 4.64905987,9.42630076 4.81005987,8.71830076 C5.23376357,6.85689335 6.65523956,5.32653121 8.40209401,5.00677335 L8.60505987,4.97530076 C8.76505987,4.95530076 8.93505987,4.93130076 9.07605987,4.86230076 C11.1550599,3.83530076 13.2110599,2.76030076 15.3150599,1.78830076 C16.1160599,1.41930076 17.0110599,1.19730076 17.8860599,1.05730076 C19.8850599,0.736300756 20.9180599,1.78030076 20.6770599,3.77930076 Z M13.2940599,33.4403008 C14.3931799,34.0431008 14.1270327,34.8000064 13.7883706,35.5794935 L13.6490599,35.8993008 C13.2271508,36.8882098 13.6498842,37.7759805 14.6737329,38.1486161 L14.8240599,38.1983008 C16.2360599,38.6193008 16.5420599,39.4593008 15.7730599,40.7403008 C15.4020599,41.3583008 15.0720599,42.0013008 14.6470599,42.7723008 L17.9480599,41.9283008 C18.0860599,42.7433008 18.0410599,43.5203008 18.3560599,44.1033008 C18.9360599,45.1783008 18.6640599,46.1973008 17.5120599,46.5173008 L15.4740599,47.0793008 C17.1350599,49.0153008 17.7810599,49.1323008 19.6820599,47.9663008 C19.7573932,47.9203008 19.8318376,47.8703008 19.9092451,47.8269674 L20.0280599,47.7683008 C20.6190599,47.5233008 20.8160599,47.0783008 20.9010599,46.4513008 C21.0293932,45.4921341 21.1868932,44.5281063 21.4291154,43.5922035 L21.5850599,43.0343008 C21.8160599,42.2703008 21.6250599,41.8883008 20.9940599,41.4933008 C19.8140599,40.7543008 18.6810599,39.9393008 17.6140599,39.2143008 C17.9480599,38.8323008 18.2000599,38.3783008 18.5860599,38.1393008 C19.3366599,37.6749008 19.0950099,37.3854608 18.6549909,37.0508228 L18.5020599,36.9373008 C17.9680599,36.5459674 17.4438376,36.1408563 16.9225784,35.7317452 L16.1420599,35.1163008 C15.9940599,34.9993008 15.7980599,34.8453008 15.7730599,34.6853008 C15.5560599,33.3053008 14.7510599,32.8613008 13.2940599,33.4403008 Z M25.4260599,47.3093008 L25.5250599,45.9023008 L24.0100599,46.6013008 L24.0590599,46.9743008 L25.4260599,47.3093008 Z M26.1830599,26.9363008 L25.9130599,26.9903008 C26.1300599,28.6183008 26.3500599,30.2463008 26.5580599,31.8763008 C26.5810599,32.0543008 26.5860599,32.2713008 26.5050599,32.4183008 C26.1260599,33.1083008 25.7140599,33.7803008 25.2840599,34.5103008 C25.5510599,35.4133008 25.9170599,36.4183008 26.1160599,37.4553008 C26.1800599,37.7863008 25.8990599,38.4163008 25.6120599,38.5433008 L25.3240304,38.6749483 C24.3522682,39.1344466 24.2995599,39.3698008 24.8770599,40.4093008 L26.1390599,41.1983008 C26.5740599,40.1763008 27.2260599,39.2233008 27.0770599,37.9073008 C26.9260599,36.5813008 27.0430599,35.2243008 27.0430599,33.8233008 C27.2880599,33.9013008 27.5020599,34.0153008 27.7230599,34.0313008 C28.7750599,34.1113008 29.1830599,34.6543008 29.1610599,35.7073008 C29.1452265,36.4506341 29.3217543,37.199523 29.3549951,37.9423933 L29.3550599,38.3873008 C29.3471849,38.5423508 29.3721705,38.7102939 29.4091259,38.883702 L29.5423565,39.4458336 C29.6841169,40.0909449 29.6895773,40.7037181 28.5410599,40.9223008 L28.5251339,40.93956 L27.4200599,44.0923008 L31.2890599,45.9063008 L31.2890599,41.0903008 L33.6200599,42.3063008 L33.9044389,40.7396448 C34.0356925,40.0118314 34.1683456,39.2498722 34.2820599,38.4853008 C34.3130599,38.2743008 34.0760599,38.0243008 33.9630599,37.7933008 C33.7710599,37.9403008 33.5740599,38.0813008 33.3880599,38.2353008 C33.1810599,38.4053008 33.0100599,38.6423008 32.7780599,38.7533008 C32.3060599,38.9793008 31.8040599,39.1403008 31.2840599,39.3383008 L30.2410599,36.2653008 L30.9654349,36.0470508 C31.1943099,35.9778008 31.4130599,35.9093008 31.6290599,35.8333008 C32.1647932,35.6447674 32.1813443,35.3438608 31.9266895,34.9313938 L31.8680599,34.8413008 C31.3600599,34.0963008 30.9070599,33.3153008 30.4220599,32.5543008 C30.1900599,32.1923008 29.9370599,31.8423008 29.6770599,31.4623008 L28.7120599,32.8833008 L26.1830599,26.9363008 Z M14.7720599,43.5063008 L13.0000599,43.0563008 L11.7560599,45.2053008 L11.9490599,45.5533008 L15.1600599,44.8713008 L14.7720599,43.5063008 Z M13.3570599,40.7763008 L12.3130599,39.3193008 L11.8100599,40.5443008 L13.3570599,40.7763008 Z M21.0630599,35.8853008 L21.0630599,33.4423008 L20.6765728,34.1188453 C19.9681132,35.387603 20.0975932,35.4554341 21.0630599,35.8853008 Z M32.0380599,30.2843008 L33.1380599,32.9733008 C33.6320599,31.3343008 33.3050599,30.4873008 32.0380599,30.2843008 Z M22.3740599,21.5983008 C22.1180599,23.5583008 22.6630599,25.5673008 21.3920599,27.3363008 L22.3840599,28.1593008 L22.3300599,27.8963008 L23.8860599,27.4433008 C23.7619219,26.912818 23.7428018,26.354711 23.7383874,25.7902457 L23.7364227,25.3660368 C23.7299957,24.021038 23.6791633,22.6701628 22.3740599,21.5983008 Z M28.2200599,16.6253008 L28.2200599,13.5433008 L27.4827381,13.5934887 C26.9684075,13.6400508 26.5224349,13.7589883 26.2130599,14.2863008 L25.9540599,14.0613008 L25.9930599,13.9133008 L25.8770599,13.9673008 C24.9480599,14.4003008 23.9910599,14.7833008 23.0960599,15.2763008 C21.7450228,16.0197082 21.662529,16.5173817 22.530687,17.6801337 L22.6350599,17.8173008 C23.5290599,18.9723008 24.3450599,20.1883008 25.1770599,21.3893008 C25.5900599,21.9853008 25.5710599,22.4463008 24.7940599,22.7923008 C24.5160599,22.9153008 24.2420599,23.3763008 24.2400599,23.6843008 C24.2382821,23.890523 24.5778376,24.1046464 24.830304,24.3056012 L24.9200599,24.3803008 C25.1960599,24.6243008 25.5370599,24.8133008 25.7550599,25.0983008 C25.9190599,25.3123008 25.9330599,25.6403008 26.0290599,25.9673008 L27.8780599,25.8683008 L28.0190359,24.7061728 C28.0888999,24.1303408 28.1654599,23.5625008 28.2830599,23.0033008 C28.3280599,22.7863008 28.7380599,22.6023008 29.0150599,22.4923008 C29.1710599,22.4313008 29.4000599,22.5543008 29.8160599,22.6383008 C28.4850599,20.9333008 30.7660599,20.9183008 30.7900599,19.8963008 L30.4349817,19.501416 C29.6071957,18.5589304 29.7265043,18.415523 30.6580599,17.0253008 C31.0690599,16.4103008 31.3700599,15.7213008 31.7590599,14.9953008 L30.3637596,14.984432 C30.0410803,14.9833824 29.7322027,14.9868722 29.4240599,15.0023008 C28.3700599,15.0543008 28.6160599,16.0313008 28.2200599,16.6253008 Z M31.8740599,22.3543008 C30.6600599,23.0493008 30.1640599,24.0933008 30.5150599,24.9073008 L31.2570599,25.0003008 L31.8740599,22.3543008 Z M5.84164851,16.7022797 L5.88555987,16.8335008 C6.13455987,17.6535008 6.71055987,17.7815008 7.43155987,17.3235008 C7.76855987,17.1095008 8.06455987,16.7715008 8.42755987,16.6745008 C8.74355987,16.5905008 9.37455987,16.6685008 9.44355987,16.8425008 C9.80155987,17.7505008 10.4495599,17.4525008 11.0685599,17.3605008 L11.0925599,17.3865008 C8.62355987,19.7505008 5.69655987,21.3145008 2.43055987,22.4235008 L2.43919987,21.2012288 C2.43919987,21.0719248 2.43823987,20.9440928 2.43567987,20.8170368 L2.40852862,20.1164226 C2.39305987,19.7897508 2.36155987,19.4567508 2.20855987,19.2115008 C1.8510932,18.6393674 1.97447987,18.2867541 2.41611246,17.9528406 L2.51555987,17.8815008 C3.22855987,17.3945008 3.91755987,16.8705008 4.64155987,16.3995008 C5.17517098,16.0519452 5.58390554,16.0032014 5.84164851,16.7022797 L5.84164851,16.7022797 Z M17.9950599,12.5443008 C17.8880599,13.0143008 17.6120599,13.5313008 17.6990599,13.9773008 C17.9460599,15.2413008 18.3200599,16.4823008 18.6830599,17.7213008 C19.0640599,19.0243008 19.4900599,20.3143008 19.8970599,21.6103008 L20.0380599,21.5673008 L19.7890599,16.6273008 L19.1990599,17.1873008 L19.5432839,14.9380208 C19.5697399,14.7601808 19.5956599,14.5833008 19.6210599,14.4063008 L19.6577049,14.1279604 C19.7895905,12.996913 19.5476313,12.8154436 17.9950599,12.5443008 Z M33.0290599,21.0113008 L31.9180599,19.4343008 L31.5550599,19.5103008 C31.6730599,19.8633008 31.7180599,20.2723008 31.9290599,20.5563008 C32.1500599,20.8523008 32.5310599,21.0293008 32.8410599,21.2573008 L33.0290599,21.0113008 Z M38.4570599,19.2603008 L41.4720599,18.4923008 C39.5210599,18.1983008 39.1050599,18.2843008 38.4570599,19.2603008 Z M35.5380599,13.9623008 C34.6840599,14.3673008 33.6310599,14.2563008 32.8680599,14.8973008 L33.0220599,15.3123008 L35.6600599,14.3573008 L35.5380599,13.9623008 Z M14.0590599,11.3343008 L14.9140599,13.5533008 L16.0190599,11.5233008 C15.3040599,11.3233008 14.7990599,10.5243008 14.0590599,11.3343008 Z M32.7740599,4.20730076 L32.5050599,5.35130076 L32.3910599,5.46430076 L31.2640599,4.84330076 L30.4670599,12.8113008 L31.2995599,12.6947226 C31.3661849,12.6839258 31.4283099,12.6725508 31.4900599,12.6593008 C32.6760599,12.4063008 33.8600599,12.1453008 35.0440599,11.8863008 L35.1693191,12.3669674 C35.1883932,12.4473008 35.2050599,12.5279674 35.2170599,12.6093008 C35.3370599,13.4053008 35.8570599,13.6783008 36.5350599,13.2063008 L35.0690599,11.6033008 C34.8910599,11.3653008 34.7600599,11.0583008 34.5280599,10.8993008 C32.8560599,9.75930076 33.1510599,8.23230076 33.6480599,6.65430076 C33.7280599,6.40130076 33.7880599,6.14230076 33.8610599,5.88730076 C34.1240599,4.96330076 33.8300599,4.48730076 32.7740599,4.20730076 Z M38.1290599,11.4103008 L38.9830599,9.16930076 L36.4870599,9.50430076 L38.1290599,11.4103008 Z M15.9140599,2.28930076 C15.8710599,3.22430076 15.8580599,4.21130076 15.7590599,5.18830076 C15.7340599,5.43030076 15.4610599,5.67830076 15.2500599,5.86430076 C14.2550599,6.73930076 13.2230599,7.57230076 12.2500599,8.46930076 C12.0030599,8.69730076 11.9230599,9.10530076 11.7660599,9.43030076 L12.1200599,9.56230076 L14.8084349,8.06217576 C15.7033099,7.56030076 16.5950599,7.05330076 17.4780599,6.53130076 C17.6950599,6.40330076 17.8520599,5.93630076 17.8140599,5.65630076 C17.7156599,4.92270076 17.5186999,4.20126076 17.3824119,3.47252476 L17.2940599,2.92430076 C17.1770599,2.03230076 16.7750599,1.86630076 15.9140599,2.28930076 Z M10.3540599,6.92530076 L9.35605987,5.85930076 L7.99405987,6.64230076 L9.18205987,7.94130076 L10.3540599,6.92530076 Z M39.7770599,6.04630076 L37.0880599,6.55930076 C38.1660599,7.15830076 39.5480599,6.84130076 39.7770599,6.04630076 Z" coloured="" opacity="1" id="soccer-miscellaneous-06" mask="url(#kitMask)" sport="soccer"></path><path fill="#fafafa" fill-rule="evenodd" d="M24.0727263,5.4 C25.9353297,5.4 27.562352,4.88449567 28.678459,4.11286383 L27.5457211,6.37647331 C26.4979172,6.7431473 25.3106801,6.95 24.0527893,6.95 C22.7136733,6.95 21.4546302,6.71557078 20.358642,6.30345554 L19.1408669,3.86834425 C20.2527526,4.77365528 22.0196224,5.4 24.0727263,5.4 Z" coloured="" opacity="1" id="soccer-collar-08" mask="url(#kitMask)" sport="soccer"></path><path fill="#fafafa" d="M31.125,12.3392255 C32.6635408,12.3392255 33.9107745,13.5864592 33.9107745,15.125 C33.9107745,16.6635408 32.6635408,17.9107745 31.125,17.9107745 C29.5864592,17.9107745 28.3392255,16.6635408 28.3392255,15.125 C28.3392255,13.5864592 29.5864592,12.3392255 31.125,12.3392255 Z" coloured="" opacity="1" id="soccer-badge-04" mask="url(#kitMask)" sport="soccer"></path><path id="kit-outline" stroke="rgba(255,255,255,0.3)" stroke-width=".75" d="M23.5972439,1.65247019 C28.2695525,1.6548216 30.7628201,1.81564155 31.4481987,2.19971541 L39.630739,5.78042954 C41.0555869,6.35178651 42.1401622,7.70393642 42.9265765,9.79939653 L47.6002981,21.4790269 C47.2451532,22.4229315 46.1494091,23.2983207 44.3901194,24.154113 C42.6185393,25.0158838 41.1685064,25.4024043 40.0380612,25.2747748 L37.868054,20.1812813 C37.4802197,26.4558273 37.2865868,31.1005844 37.2865871,34.1161115 C37.2903357,37.3484873 37.3292984,42.5879818 37.4037132,50.2238215 C36.3455177,50.6518503 30.3745012,51.1047915 24.3617064,51.1244087 L23.6014087,51.1223585 C17.4071181,51.0885873 11.6343002,50.643568 10.5972999,50.2234737 C10.6712421,42.3850844 10.7098646,37.1351619 10.7131798,34.4732809 C10.7134349,31.2905086 10.5208336,26.6792554 10.1351381,20.1737887 L7.96193877,25.2747748 C6.83149362,25.4024043 5.38146065,25.0158838 3.60988064,24.154113 C1.89858905,23.321669 0.816962859,22.4703287 0.43061824,21.5557427 L5.0763586,9.79182506 C5.83900262,7.75945969 6.88671108,6.4245588 8.25653961,5.82757137 L16.5500075,2.19937783 C17.2138802,1.82288528 19.5728011,1.66179303 23.5972439,1.65247019 Z"></path>
        
                            <path fill-opacity="0.15" fill="#000000" fill-rule="nonzero" d="m10.234 48.926-1.257-.15a120.817 120.817 0 0 0 28.788.145l.016 1.514a.67.67 0 0 1-.206.101l-.168.052-.21.052-.25.052-.288.053-.324.052-.752.103-.879.1-.734.072-.791.07-.845.064-1.197.079-1.267.07-.988.044-.674.025-1.376.041-.698.015-1.411.018L24 51.5l-1.076-.005-1.057-.015-1.046-.024-1.029-.032-1.006-.04-.656-.03-1.267-.069-1.197-.079-.844-.065-.792-.069-.734-.072-.878-.1-.577-.077-.5-.078-.288-.053-.25-.052-.21-.052-.168-.052a.67.67 0 0 1-.206-.101l.014-1.509Zm37.19-28.899.144.361a13.074 13.074 0 0 1-3.592 2.696c-1.314.67-2.769 1.136-4.364 1.398l-.3.045-.142-.331c1.555-.22 2.974-.632 4.258-1.234l.389-.19a12.714 12.714 0 0 0 3.426-2.55l.18-.195Zm-46.99.357.144-.361-.112-.121a12.762 12.762 0 0 0 3.724 2.87c1.383.706 2.93 1.18 4.64 1.423l-.142.331-.293-.044c-1.596-.262-3.05-.728-4.364-1.398a13.074 13.074 0 0 1-3.597-2.7ZM7.926 5.567l.101.436.106.498.105.524.102.549.1.575.1.6.143.95.14 1.008.09.703.089.73.129 1.143.125 1.2.08.833.08.859.114 1.336.11 1.394.07.962.103 1.49.029.46-.262.614-.03-.511-.1-1.478-.103-1.423-.107-1.366-.111-1.311-.116-1.256-.08-.806-.08-.781-.084-.756-.128-1.089-.088-.694-.09-.67-.091-.645-.093-.62-.096-.596-.097-.57-.099-.546-.1-.521-.103-.497-.13-.583.135-.075.137-.07Zm32.148 0c.092.045.183.094.273.145l-.079.344-.103.484-.102.51-.1.533-.098.558-.096.583-.095.608-.092.632-.09.658-.09.682-.129 1.07-.084.744-.123 1.162-.08.806-.115 1.256-.111 1.31-.107 1.367-.137 1.91-.098 1.497-.26-.61.097-1.459.105-1.452.073-.936.113-1.355.078-.872.12-1.258.083-.807.085-.782.086-.755.134-1.085.091-.69.094-.666.095-.64.098-.613.15-.872.102-.55.13-.65.135-.61.047-.197Z"></path>                            
                        </g>
                    </svg>