<svg viewBox="0 0 48 52" xmlns="http://www.w3.org/2000/svg" xmlns:xlink="http://www.w3.org/1999/xlink" sport="soccer" title="Real_Madrid_Away_Front_25/26">
                        <defs>
                            <path id="kit" d="M10.22 50.435c.079-8.326.118-13.766.118-16.32 0-2.553-.161-6.661-.484-12.324l-1.63 3.825c-1.213.21-2.806-.165-4.778-1.125-1.92-.933-3.059-1.912-3.418-2.937L0 21.469 4.725 9.66c.809-2.154 1.936-3.546 3.381-4.176l8.278-3.621c.72-.393 3.26-.588 7.617-.586 4.357.003 6.894.198 7.613.586l8.162 3.572c1.502.604 2.669 2.013 3.499 4.225L48 21.47c-.325 1.055-1.473 2.063-3.446 3.022-1.972.96-3.565 1.335-4.778 1.125l-1.63-3.825c-.323 5.467-.484 9.575-.484 12.325s.04 8.19.119 16.319c-.535.464-7.158 1.065-13.78 1.065-6.623 0-13.246-.6-13.78-1.065Z"></path>
                            <linearGradient x1="0%" y1="0%" x2="100%" y2="100%" id="soccer-base"><stop stop-color="#333f63" offset="0%"></stop><stop stop-color="#445382" offset="26.53985507246377%"></stop><stop stop-color="#333f63" offset="49.72826086956522%"></stop><stop stop-color="#4c5d91" offset="79.07608695652173%"></stop><stop stop-color="#333f63" offset="100%"></stop><linearGradient x1="0%" y1="0%" x2="100%" y2="100%" id="soccer-horizontal-stripe-01"><stop stop-color="#5a678f" offset="0%"></stop><stop stop-color="#5c637a" offset="0%"></stop><stop stop-color="#404d7a" offset="43.20652173913043%"></stop><stop stop-color="#354269" offset="72.55434782608695%"></stop><stop stop-color="#5a678f" offset="100%"></stop></linearGradient></linearGradient>
                        </defs>
                        <mask id="kitMask" fill="#fff">
                            <use xlink:href="#kit"></use>
                        </mask>
                        <g fill="none" fill-rule="evenodd">
                            
            <path fill="url(#soccer-base)" d="M10.22 50.435c.079-8.326.118-13.766.118-16.32 0-2.553-.161-6.661-.484-12.324l-1.63 3.825c-1.213.21-2.806-.165-4.778-1.125-1.92-.933-3.059-1.912-3.418-2.937L0 21.469 4.725 9.66c.809-2.154 1.936-3.546 3.381-4.176l8.278-3.621c.72-.393 3.26-.588 7.617-.586 4.357.003 6.894.198 7.613.586l8.162 3.572c1.502.604 2.669 2.013 3.499 4.225L48 21.47c-.325 1.055-1.473 2.063-3.446 3.022-1.972.96-3.565 1.335-4.778 1.125l-1.63-3.825c-.323 5.467-.484 9.575-.484 12.325s.04 8.19.119 16.319c-.535.464-7.158 1.065-13.78 1.065-6.623 0-13.246-.6-13.78-1.065Z" coloured="" opacity="1" id="soccer-base" mask="url(#kitMask)" sport="soccer"></path><path fill="url(#soccer-horizontal-stripe-01)" fill-rule="evenodd" d="M37.7717179,49.4990927 L10.2290853,49.499086 L10.2380987,48.5280791 L37.7624208,48.527758 L37.7717179,49.4990927 Z M37.7532912,47.5582006 L10.2469753,47.5578628 L10.2557151,46.5870467 L37.7443106,46.5869326 L37.7532912,47.5582006 Z M37.7355265,45.6172784 L10.264293,45.6167749 L10.2727033,44.645667 L37.7269334,44.646472 L37.7355265,45.6172784 Z M37.7185619,43.6752038 L10.2809144,43.6749196 L10.2888958,42.705087 L37.7104549,42.7051714 L37.7185619,43.6752038 Z M37.7026286,41.734055 L10.2966299,41.7344091 L10.3040642,40.7643323 L37.6951474,40.7643459 L37.7026286,41.734055 Z M37.6880444,39.7928686 L10.3111568,39.7933311 L10.3178234,38.8231434 L37.6814185,38.8227419 L37.6880444,39.7928686 Z M37.6753617,37.8522866 L10.3239744,37.8522869 L10.3294583,36.8812621 L37.6700228,36.8812023 L37.6753617,37.8522866 Z M37.6656415,35.9115368 L10.3340358,35.9112103 L10.3373095,34.9370347 L37.6625908,34.940688 L37.6656415,35.9115368 Z M37.6694183,33.0012592 L37.6617313,33.9720541 L10.336907,33.9704872 L10.3378368,33.8459728 C10.336722,33.5798074 10.3339903,33.2980854 10.3296416,33.0008066 L37.6694183,33.0012592 Z M37.6866338,32.0298817 L10.3109801,32.0293647 L10.2850336,31.0600348 L37.7112061,31.0591727 L37.6866338,32.0298817 Z M37.7416839,30.0889638 L10.2533734,30.0889354 L10.2172046,29.118922 L37.7770347,29.1192487 L37.7416839,30.0889638 Z M37.8165939,28.1476781 L10.1772678,28.1484739 L10.1340971,27.1765645 L37.8596858,27.1767398 L37.8165939,28.1476781 Z M37.9058354,26.2066649 L10.088295,26.2066172 L10.0401137,25.2363905 L37.9547358,25.2361551 L37.9058354,26.2066649 Z M38.0060477,24.2660128 L9.98984004,24.2660239 L9.93767488,23.2950064 L38.0595992,23.2948362 L38.0060477,24.2660128 Z M38.189907,21.3524872 L38.1621857,21.8171378 L38.1503424,21.7912482 L38.1523424,21.8028102 L38.1463424,21.7912482 L38.114907,22.3234872 L9.88384199,22.3239866 L9.85365765,21.7912482 L9.84181434,21.8171378 L9.81290696,21.3524872 L38.189907,21.3524872 Z M9.67590696,19.4114872 L38.326907,19.4114872 L38.256907,20.3814872 L9.74590696,20.3814872 L9.71048124,19.8667554 L9.67590696,19.4114872 Z M9.52590696,17.4704872 L38.476907,17.4704872 L38.400907,18.4404872 L9.60190696,18.4404872 L9.52590696,17.4704872 Z M9.35590696,15.5284872 L38.646907,15.5284872 L38.559907,16.4994872 L9.44290696,16.4994872 L9.41511511,16.1747798 L9.35590696,15.5284872 Z M9.16190696,13.5874872 L38.840907,13.5874872 L38.740907,14.5584872 L9.26190696,14.5584872 L9.25564477,14.4835179 L9.16190696,13.5874872 Z M8.94190696,11.6464872 L39.060907,11.6464872 L38.947907,12.6174872 L9.05490696,12.6174872 L9.00168981,12.1399845 L8.94190696,11.6464872 Z M39.319907,9.70548717 L39.184907,10.6754872 L8.81790696,10.6754872 L8.68390696,9.70548717 L39.319907,9.70548717 Z M39.629907,7.76448717 L39.5633857,8.148801 L39.466907,8.73448717 L8.53690696,8.73448717 L8.4406143,8.148801 L8.37290696,7.76448717 L39.629907,7.76448717 Z M40.017907,5.82348717 L39.9768771,6.00329659 L39.8705431,6.50103593 L39.811907,6.79348717 L8.19090696,6.79348717 L8.13345691,6.50103593 L8.0271229,6.00329659 L7.98490696,5.82348717 L40.017907,5.82348717 Z M36.225907,3.88148717 L38.444907,4.85248717 L9.54890696,4.85248717 L11.768907,3.88148717 L36.225907,3.88148717 Z M31.791907,1.94148717 L34.008907,2.91148717 L13.986907,2.91148717 L16.204907,1.94148717 L31.791907,1.94148717 Z" coloured="" opacity="1" id="soccer-horizontal-stripe-01" mask="url(#kitMask)" sport="soccer"></path><path fill="#fafafa" fill-rule="nonzero" d="M41.403 10.363c-.575-1.532-1.281-2.486-2.083-2.933l-.152-.078-8.13-3.565c.186-.285.336-.584.446-.893l8.085 3.541c1.147.542 2.07 1.71 2.77 3.577l-.936.351Zm-34.727 0C7.251 8.831 7.957 7.877 8.76 7.43l.152-.078 8.13-3.565a4.223 4.223 0 0 1-.446-.893L8.51 6.435c-1.147.542-2.07 1.71-2.77 3.577l.936.351Z" coloured="" opacity="1" id="soccer-shoulder-06" mask="url(#kitMask)" sport="soccer"></path><path fill="#fafafa" fill-rule="evenodd" d="M9.723,20.049 L10.8949249,22.6172119 L11.5403682,40.6508511 L10.3138289,39.4124305 L10.3381798,34.4732508 L10.3361076,33.5651777 C10.315357,30.988112 10.1545404,27.0634689 9.85365765,21.7912482 L9.84181434,21.8171378 L9.81314683,21.3576423 L9.723,20.049 Z M38.2555782,20 L38.252,20.467 L38.1908532,21.3576423 L38.1621857,21.8171378 L38.1503424,21.7912482 L38.1523424,21.8028102 L38.1463424,21.7912482 L38.0177337,24.0508068 C37.7803025,28.4036153 37.6615868,31.7585719 37.6615868,34.1156766 L37.6849785,39.3532457 L36.41521,40.6508511 L37.0606533,22.6172119 L38.2555782,20 Z" coloured="" opacity="1" id="soccer-side-02" mask="url(#kitMask)" sport="soccer"></path><path d="M47.56 20.365 48 21.47c-.325 1.055-1.473 2.063-3.446 3.022-1.972.96-3.565 1.335-4.778 1.125l-.464-1.088.261-.038c1.596-.263 3.05-.728 4.364-1.398a13.078 13.078 0 0 0 3.622-2.727Zm-47.118.001a13.078 13.078 0 0 0 3.62 2.726c1.315.67 2.77 1.135 4.365 1.398l.26.038-.463 1.088c-1.213.21-2.806-.165-4.778-1.125-1.92-.933-3.059-1.912-3.418-2.937L0 21.469l.442-1.103Z" fill="#fafafa" fill-rule="nonzero" coloured="" opacity="1" id="soccer-trim-01" mask="url(#kitMask)" sport="soccer"></path><path fill="#fafafa" d="M31.125,12.3392255 C32.6635408,12.3392255 33.9107745,13.5864592 33.9107745,15.125 C33.9107745,16.6635408 32.6635408,17.9107745 31.125,17.9107745 C29.5864592,17.9107745 28.3392255,16.6635408 28.3392255,15.125 C28.3392255,13.5864592 29.5864592,12.3392255 31.125,12.3392255 Z" coloured="" opacity="1" id="soccer-badge-04" mask="url(#kitMask)" sport="soccer"></path><path fill="#344166" d="M31.150354,13.6 C32.0065909,13.6 32.700708,14.2807687 32.700708,15.1205395 C32.700708,15.9603103 32.0065909,16.641079 31.150354,16.641079 C30.2941171,16.641079 29.6,15.9603103 29.6,15.1205395 C29.6,14.2807687 30.2941171,13.6 31.150354,13.6 Z" coloured="" opacity="1" id="soccer-badge-05" mask="url(#kitMask)" sport="soccer"></path><path fill="#fafafa" d="M32.5726359,13.2 L33.1029034,13.71266 L31.6567156,15.1108316 L33.1029034,16.5089872 L32.5726359,17.0216471 L31.12646,15.6234801 L29.6802675,17.0216471 L29.15,16.5089872 L30.5962044,15.1108316 L29.15,13.71266 L29.6802675,13.2 L31.12646,14.5981831 L32.5726359,13.2 Z" coloured="" opacity="1" id="soccer-badge-09" mask="url(#kitMask)" sport="soccer"></path><path id="kit-outline" stroke="rgba(255,255,255,0.3)" stroke-width=".75" d="M23.5972439,1.65247019 C28.2695525,1.6548216 30.7628201,1.81564155 31.4481987,2.19971541 L39.630739,5.78042954 C41.0555869,6.35178651 42.1401622,7.70393642 42.9265765,9.79939653 L47.6002981,21.4790269 C47.2451532,22.4229315 46.1494091,23.2983207 44.3901194,24.154113 C42.6185393,25.0158838 41.1685064,25.4024043 40.0380612,25.2747748 L37.868054,20.1812813 C37.4802197,26.4558273 37.2865868,31.1005844 37.2865871,34.1161115 C37.2903357,37.3484873 37.3292984,42.5879818 37.4037132,50.2238215 C36.3455177,50.6518503 30.3745012,51.1047915 24.3617064,51.1244087 L23.6014087,51.1223585 C17.4071181,51.0885873 11.6343002,50.643568 10.5972999,50.2234737 C10.6712421,42.3850844 10.7098646,37.1351619 10.7131798,34.4732809 C10.7134349,31.2905086 10.5208336,26.6792554 10.1351381,20.1737887 L7.96193877,25.2747748 C6.83149362,25.4024043 5.38146065,25.0158838 3.60988064,24.154113 C1.89858905,23.321669 0.816962859,22.4703287 0.43061824,21.5557427 L5.0763586,9.79182506 C5.83900262,7.75945969 6.88671108,6.4245588 8.25653961,5.82757137 L16.5500075,2.19937783 C17.2138802,1.82288528 19.5728011,1.66179303 23.5972439,1.65247019 Z"></path><g fill="none" fill-rule="evenodd" id="soccer-collar-03" sport="soccer"><path fill="#000" fill-opacity=".5" d="M30.75,2.18 C29.7749023,4.9032666 27.5249023,6.2648999 24,6.2648999 C20.4750977,6.2648999 18.2250977,4.9032666 17.25,2.18 L30.75,2.18 Z"></path><path fill="#505c80" d="M30.4486804,0.4 L31.5001582,1.58466392 L31.692,1.67 L31.6990485,1.89423218 C29.1024722,2.61826803 26.5203857,2.98028596 23.9527893,2.98028596 C21.3851929,2.98028596 18.8509298,2.63393881 16.35,1.94124451 L16.343,1.845 L16.5331206,1.76290579 L17.8505592,0.4 C20.203887,0.921537936 22.3037658,1.18286536 24.1501956,1.18398228 C25.9876316,1.18509376 28.0871265,0.923766331 30.4486804,0.4 Z" coloured="" opacity="1" id="soccer-collar-03"></path><path fill="#000" fill-opacity=".5" d="M30.4486804,0.4 L31.5001582,1.58466392 L31.692,1.67 L31.6990485,1.89423218 C29.1024722,2.61826803 26.5203857,2.98028596 23.9527893,2.98028596 C21.3851929,2.98028596 18.8509298,2.63393881 16.35,1.94124451 L16.343,1.845 L16.5331206,1.76290579 L17.8505592,0.4 C20.203887,0.921537936 22.3037658,1.18286536 24.1501956,1.18398228 C25.9876316,1.18509376 28.0871265,0.923766331 30.4486804,0.4 Z"></path><path fill="#505c80" d="M30.4437289,0.4 L31.699,1.701 L31.6957612,1.83431122 C31.5537677,4.64845237 28.1727723,6.9 24.0227263,6.9 C19.8756383,6.9 16.4965049,4.65166085 16.35,1.84032777 L16.5281691,1.76290579 L17.8456077,0.4 L18.2233174,0.4813756 C18.0099312,0.856479063 17.8950485,1.25116377 17.8950485,1.65 C17.8950485,3.57326891 20.5664871,5.4 24.0727263,5.4 C27.5789655,5.4 30.2504041,3.57326891 30.2504041,1.65 C30.2504041,1.26076701 30.1409872,0.875488012 29.9373775,0.508504815 L30.4437289,0.4 Z" coloured="" opacity="1" id="soccer-collar-03"></path><path fill="#000" fill-opacity=".5" d="M31.8415564,1.58 C31.8415564,4.79060313 28.3626159,7.03999025 24.0245,7.03999025 C19.7277272,7.03999025 16.2365265,4.63545577 16.2365265,1.78785812 L16.343,1.73485702 C16.4912222,4.60474766 19.7228934,6.88985702 24.0245,6.88985702 C28.3261066,6.88985702 31.699,4.54348023 31.6990485,1.58 L31.8415564,1.58 Z"></path></g>
        
                            <path fill-opacity="0.15" fill="#000000" fill-rule="nonzero" d="m10.234 48.926-1.257-.15a120.817 120.817 0 0 0 28.788.145l.016 1.514a.67.67 0 0 1-.206.101l-.168.052-.21.052-.25.052-.288.053-.324.052-.752.103-.879.1-.734.072-.791.07-.845.064-1.197.079-1.267.07-.988.044-.674.025-1.376.041-.698.015-1.411.018L24 51.5l-1.076-.005-1.057-.015-1.046-.024-1.029-.032-1.006-.04-.656-.03-1.267-.069-1.197-.079-.844-.065-.792-.069-.734-.072-.878-.1-.577-.077-.5-.078-.288-.053-.25-.052-.21-.052-.168-.052a.67.67 0 0 1-.206-.101l.014-1.509Zm37.19-28.899.144.361a13.074 13.074 0 0 1-3.592 2.696c-1.314.67-2.769 1.136-4.364 1.398l-.3.045-.142-.331c1.555-.22 2.974-.632 4.258-1.234l.389-.19a12.714 12.714 0 0 0 3.426-2.55l.18-.195Zm-46.99.357.144-.361-.112-.121a12.762 12.762 0 0 0 3.724 2.87c1.383.706 2.93 1.18 4.64 1.423l-.142.331-.293-.044c-1.596-.262-3.05-.728-4.364-1.398a13.074 13.074 0 0 1-3.597-2.7ZM7.926 5.567l.101.436.106.498.105.524.102.549.1.575.1.6.143.95.14 1.008.09.703.089.73.129 1.143.125 1.2.08.833.08.859.114 1.336.11 1.394.07.962.103 1.49.029.46-.262.614-.03-.511-.1-1.478-.103-1.423-.107-1.366-.111-1.311-.116-1.256-.08-.806-.08-.781-.084-.756-.128-1.089-.088-.694-.09-.67-.091-.645-.093-.62-.096-.596-.097-.57-.099-.546-.1-.521-.103-.497-.13-.583.135-.075.137-.07Zm32.148 0c.092.045.183.094.273.145l-.079.344-.103.484-.102.51-.1.533-.098.558-.096.583-.095.608-.092.632-.09.658-.09.682-.129 1.07-.084.744-.123 1.162-.08.806-.115 1.256-.111 1.31-.107 1.367-.137 1.91-.098 1.497-.26-.61.097-1.459.105-1.452.073-.936.113-1.355.078-.872.12-1.258.083-.807.085-.782.086-.755.134-1.085.091-.69.094-.666.095-.64.098-.613.15-.872.102-.55.13-.65.135-.61.047-.197Z"></path>                            
                        </g>
                    </svg>