<svg viewBox="0 0 48 52" xmlns="http://www.w3.org/2000/svg" xmlns:xlink="http://www.w3.org/1999/xlink" sport="soccer" title="Galatasaray_Away_Front_25_26">
                        <defs>
                            <path id="kit" d="M10.22 50.435c.079-8.326.118-13.766.118-16.32 0-2.553-.161-6.661-.484-12.324l-1.63 3.825c-1.213.21-2.806-.165-4.778-1.125-1.92-.933-3.059-1.912-3.418-2.937L0 21.469 4.725 9.66c.809-2.154 1.936-3.546 3.381-4.176l8.278-3.621c.72-.393 3.26-.588 7.617-.586 4.357.003 6.894.198 7.613.586l8.162 3.572c1.502.604 2.669 2.013 3.499 4.225L48 21.47c-.325 1.055-1.473 2.063-3.446 3.022-1.972.96-3.565 1.335-4.778 1.125l-1.63-3.825c-.323 5.467-.484 9.575-.484 12.325s.04 8.19.119 16.319c-.535.464-7.158 1.065-13.78 1.065-6.623 0-13.246-.6-13.78-1.065Z"></path>
                            
                        </defs>
                        <mask id="kitMask" fill="#fff">
                            <use xlink:href="#kit"></use>
                        </mask>
                        <g fill="none" fill-rule="evenodd">
                            
            <path fill="#e9e8eb" d="M10.22 50.435c.079-8.326.118-13.766.118-16.32 0-2.553-.161-6.661-.484-12.324l-1.63 3.825c-1.213.21-2.806-.165-4.778-1.125-1.92-.933-3.059-1.912-3.418-2.937L0 21.469 4.725 9.66c.809-2.154 1.936-3.546 3.381-4.176l8.278-3.621c.72-.393 3.26-.588 7.617-.586 4.357.003 6.894.198 7.613.586l8.162 3.572c1.502.604 2.669 2.013 3.499 4.225L48 21.47c-.325 1.055-1.473 2.063-3.446 3.022-1.972.96-3.565 1.335-4.778 1.125l-1.63-3.825c-.323 5.467-.484 9.575-.484 12.325s.04 8.19.119 16.319c-.535.464-7.158 1.065-13.78 1.065-6.623 0-13.246-.6-13.78-1.065Z" coloured="" opacity="1" id="soccer-base" mask="url(#kitMask)" sport="soccer"></path><path d="M47.56 20.365 48 21.47c-.325 1.055-1.473 2.063-3.446 3.022-1.972.96-3.565 1.335-4.778 1.125l-.464-1.088.261-.038c1.596-.263 3.05-.728 4.364-1.398a13.078 13.078 0 0 0 3.622-2.727Zm-47.118.001a13.078 13.078 0 0 0 3.62 2.726c1.315.67 2.77 1.135 4.365 1.398l.26.038-.463 1.088c-1.213.21-2.806-.165-4.778-1.125-1.92-.933-3.059-1.912-3.418-2.937L0 21.469l.442-1.103Z" fill="#82262c" fill-rule="nonzero" coloured="" opacity="1" id="soccer-trim-01" mask="url(#kitMask)" sport="soccer"></path><path fill="#f58a38" fill-rule="evenodd" d="M9.15678824,13.5348413 L9.25564477,14.4835179 L9.33636278,15.3162568 L9.41511511,16.1747798 L9.52955944,17.5109141 L9.63958482,18.9050747 L9.71048124,19.8667554 L9.81314683,21.3576423 L9.84181434,21.8171378 L8.2241567,25.6160522 C7.18209357,25.7962675 5.85963741,25.5449199 4.25678824,24.8620093 L9.15678824,13.5348413 Z M38.8623424,13.3838413 L43.8162443,24.8306782 C42.1804919,25.5372061 40.8336915,25.7989974 39.7758433,25.6160522 L38.1523424,21.8028102 L38.1503424,21.7912482 L38.1621857,21.8171378 L38.1908532,21.3576423 L38.2935188,19.8667554 L38.3644152,18.9050747 L38.4744406,17.5109141 L38.5888849,16.1747798 L38.6676372,15.3162568 L38.7483552,14.4835179 L38.8623424,13.3838413 Z" coloured="" opacity="1" id="soccer-sleeve-04" mask="url(#kitMask)" sport="soccer"></path><path fill="#82262c" d="M31.125,12.3392255 C32.6635408,12.3392255 33.9107745,13.5864592 33.9107745,15.125 C33.9107745,16.6635408 32.6635408,17.9107745 31.125,17.9107745 C29.5864592,17.9107745 28.3392255,16.6635408 28.3392255,15.125 C28.3392255,13.5864592 29.5864592,12.3392255 31.125,12.3392255 Z" coloured="" opacity="1" id="soccer-badge-04" mask="url(#kitMask)" sport="soccer"></path><path fill="#f58a38" d="M31.150354,13.6 C32.0065909,13.6 32.700708,14.2807687 32.700708,15.1205395 C32.700708,15.9603103 32.0065909,16.641079 31.150354,16.641079 C30.2941171,16.641079 29.6,15.9603103 29.6,15.1205395 C29.6,14.2807687 30.2941171,13.6 31.150354,13.6 Z" coloured="" opacity="1" id="soccer-badge-05" mask="url(#kitMask)" sport="soccer"></path><path fill="#f58a38" d="M31.125,10.75 C33.5412458,10.75 35.5,12.7087542 35.5,15.125 C35.5,17.5412458 33.5412458,19.5 31.125,19.5 C28.7087542,19.5 26.75,17.5412458 26.75,15.125 C26.75,12.7087542 28.7087542,10.75 31.125,10.75 Z M31.125,11.25 C28.9848966,11.25 27.25,12.9848966 27.25,15.125 C27.25,17.2651034 28.9848966,19 31.125,19 C33.2651034,19 35,17.2651034 35,15.125 C35,12.9848966 33.2651034,11.25 31.125,11.25 Z" coloured="" opacity="1" id="soccer-badge-03" mask="url(#kitMask)" sport="soccer"></path><path id="kit-outline" stroke="rgba(255,255,255,0.3)" stroke-width=".75" d="M23.5972439,1.65247019 C28.2695525,1.6548216 30.7628201,1.81564155 31.4481987,2.19971541 L39.630739,5.78042954 C41.0555869,6.35178651 42.1401622,7.70393642 42.9265765,9.79939653 L47.6002981,21.4790269 C47.2451532,22.4229315 46.1494091,23.2983207 44.3901194,24.154113 C42.6185393,25.0158838 41.1685064,25.4024043 40.0380612,25.2747748 L37.868054,20.1812813 C37.4802197,26.4558273 37.2865868,31.1005844 37.2865871,34.1161115 C37.2903357,37.3484873 37.3292984,42.5879818 37.4037132,50.2238215 C36.3455177,50.6518503 30.3745012,51.1047915 24.3617064,51.1244087 L23.6014087,51.1223585 C17.4071181,51.0885873 11.6343002,50.643568 10.5972999,50.2234737 C10.6712421,42.3850844 10.7098646,37.1351619 10.7131798,34.4732809 C10.7134349,31.2905086 10.5208336,26.6792554 10.1351381,20.1737887 L7.96193877,25.2747748 C6.83149362,25.4024043 5.38146065,25.0158838 3.60988064,24.154113 C1.89858905,23.321669 0.816962859,22.4703287 0.43061824,21.5557427 L5.0763586,9.79182506 C5.83900262,7.75945969 6.88671108,6.4245588 8.25653961,5.82757137 L16.5500075,2.19937783 C17.2138802,1.82288528 19.5728011,1.66179303 23.5972439,1.65247019 Z"></path><g fill="none" fill-rule="evenodd" id="soccer-collar-11" sport="soccer"><path fill="#000" fill-opacity=".5" fill-rule="nonzero" d="M18.238 2.353c1.926.405 3.851.607 5.776.607 1.906 0 3.811-.198 5.719-.596-.368.489-.97 1.051-1.81 1.671l-.348.25-.373.256c-.193.129-.395.26-.607.393l-.437.27-.462.274-.488.28-.254.14-.526.287-.438.23-.44-.23-.525-.286-.501-.282-.475-.276-.664-.406-.51-.329-.47-.32c-.18-.126-.35-.25-.512-.372l-.31-.24c-.559-.448-.984-.86-1.278-1.232Z"></path><path fill="#000" fill-opacity=".2" fill-rule="nonzero" d="m16.677 1.744-.078-.106c1.06 1.458 3.528 3.608 7.401 6.45 3.78-2.773 6.22-4.888 7.321-6.343.119.037.216.077.293.118l.088.038-.098.132c-1.148 1.494-3.598 3.612-7.367 6.378L24 8.585l-.237-.174c-3.882-2.849-6.366-5.01-7.468-6.51l.089-.038c.077-.042.174-.082.293-.12Z"></path><path fill="#000" fill-opacity=".2" d="m17.673 1.54.12.004.698.813.468.533c1.252 1.404 2.554 2.642 4.089 3.106l-2.773 2.902c-1.707-1.94-3.289-4.051-4.4-6.812l.509-.223c.235-.129.665-.236 1.289-.322Zm13.94.323.43.188c-1.112 2.778-2.7 4.9-4.413 6.847l-2.773-2.902c1.727-.522 3.158-2.024 4.556-3.639l.698-.813.18-.004c.643.086 1.084.194 1.323.323Z"></path><path fill="#82262c" fill-rule="nonzero" d="m30.3.5.613.637 1.023.842c-.988 2.276-2.293 4.231-3.908 5.873l-.35.347-1.841-1.487c-.573.44-1.185.898-1.837 1.377-.664-.488-1.287-.955-1.87-1.402L20.26 8.2C18.48 6.49 17.059 4.417 16 1.98L17.326.886 17.701.5c2.353.522 4.453.783 6.3.784 1.837.001 3.937-.26 6.298-.784ZM19.09 2.519l.075.097c.96 1.231 2.15 2.254 3.532 3.1l.328.183.526.286.439.23.438-.23.451-.246c1.563-.91 2.9-2.027 3.954-3.402a27.744 27.744 0 0 1-4.819.423c-1.641 0-3.282-.147-4.924-.441Z" coloured="" opacity="1" id="soccer-collar-11"></path><path fill="#000" fill-opacity=".2" fill-rule="nonzero" d="M17.952.553 17.7.5c2.353.522 4.453.783 6.3.784 1.76.001 3.737-.316 6.014-.728 0 .263-.272.595-.427.884-.155.29-.486.761-.752 1.116-1.906.398-2.927.404-4.833.404-1.926 0-2.981-.04-4.907-.444-.286-.383-.609-.827-.808-1.169-.199-.342-.306-.53-.336-.794Z"></path></g>
        
                            <path fill-opacity="0.15" fill="#000000" fill-rule="nonzero" d="m10.234 48.926-1.257-.15a120.817 120.817 0 0 0 28.788.145l.016 1.514a.67.67 0 0 1-.206.101l-.168.052-.21.052-.25.052-.288.053-.324.052-.752.103-.879.1-.734.072-.791.07-.845.064-1.197.079-1.267.07-.988.044-.674.025-1.376.041-.698.015-1.411.018L24 51.5l-1.076-.005-1.057-.015-1.046-.024-1.029-.032-1.006-.04-.656-.03-1.267-.069-1.197-.079-.844-.065-.792-.069-.734-.072-.878-.1-.577-.077-.5-.078-.288-.053-.25-.052-.21-.052-.168-.052a.67.67 0 0 1-.206-.101l.014-1.509Zm37.19-28.899.144.361a13.074 13.074 0 0 1-3.592 2.696c-1.314.67-2.769 1.136-4.364 1.398l-.3.045-.142-.331c1.555-.22 2.974-.632 4.258-1.234l.389-.19a12.714 12.714 0 0 0 3.426-2.55l.18-.195Zm-46.99.357.144-.361-.112-.121a12.762 12.762 0 0 0 3.724 2.87c1.383.706 2.93 1.18 4.64 1.423l-.142.331-.293-.044c-1.596-.262-3.05-.728-4.364-1.398a13.074 13.074 0 0 1-3.597-2.7ZM7.926 5.567l.101.436.106.498.105.524.102.549.1.575.1.6.143.95.14 1.008.09.703.089.73.129 1.143.125 1.2.08.833.08.859.114 1.336.11 1.394.07.962.103 1.49.029.46-.262.614-.03-.511-.1-1.478-.103-1.423-.107-1.366-.111-1.311-.116-1.256-.08-.806-.08-.781-.084-.756-.128-1.089-.088-.694-.09-.67-.091-.645-.093-.62-.096-.596-.097-.57-.099-.546-.1-.521-.103-.497-.13-.583.135-.075.137-.07Zm32.148 0c.092.045.183.094.273.145l-.079.344-.103.484-.102.51-.1.533-.098.558-.096.583-.095.608-.092.632-.09.658-.09.682-.129 1.07-.084.744-.123 1.162-.08.806-.115 1.256-.111 1.31-.107 1.367-.137 1.91-.098 1.497-.26-.61.097-1.459.105-1.452.073-.936.113-1.355.078-.872.12-1.258.083-.807.085-.782.086-.755.134-1.085.091-.69.094-.666.095-.64.098-.613.15-.872.102-.55.13-.65.135-.61.047-.197Z"></path>                            
                        </g>
                    </svg>