<svg viewBox="0 0 48 52" xmlns="http://www.w3.org/2000/svg" xmlns:xlink="http://www.w3.org/1999/xlink" sport="soccer" title="Newcastle United_25/26_New Kit_Front">
                        <defs>
                            <path id="kit" d="M10.22 50.435c.079-8.326.118-13.766.118-16.32 0-2.553-.161-6.661-.484-12.324l-1.63 3.825c-1.213.21-2.806-.165-4.778-1.125-1.92-.933-3.059-1.912-3.418-2.937L0 21.469 4.725 9.66c.809-2.154 1.936-3.546 3.381-4.176l8.278-3.621c.72-.393 3.26-.588 7.617-.586 4.357.003 6.894.198 7.613.586l8.162 3.572c1.502.604 2.669 2.013 3.499 4.225L48 21.47c-.325 1.055-1.473 2.063-3.446 3.022-1.972.96-3.565 1.335-4.778 1.125l-1.63-3.825c-.323 5.467-.484 9.575-.484 12.325s.04 8.19.119 16.319c-.535.464-7.158 1.065-13.78 1.065-6.623 0-13.246-.6-13.78-1.065Z"></path>
                            
                        </defs>
                        <mask id="kitMask" fill="#fff">
                            <use xlink:href="#kit"></use>
                        </mask>
                        <g fill="none" fill-rule="evenodd">
                            
            <path fill="#dedede" d="M10.22 50.435c.079-8.326.118-13.766.118-16.32 0-2.553-.161-6.661-.484-12.324l-1.63 3.825c-1.213.21-2.806-.165-4.778-1.125-1.92-.933-3.059-1.912-3.418-2.937L0 21.469 4.725 9.66c.809-2.154 1.936-3.546 3.381-4.176l8.278-3.621c.72-.393 3.26-.588 7.617-.586 4.357.003 6.894.198 7.613.586l8.162 3.572c1.502.604 2.669 2.013 3.499 4.225L48 21.47c-.325 1.055-1.473 2.063-3.446 3.022-1.972.96-3.565 1.335-4.778 1.125l-1.63-3.825c-.323 5.467-.484 9.575-.484 12.325s.04 8.19.119 16.319c-.535.464-7.158 1.065-13.78 1.065-6.623 0-13.246-.6-13.78-1.065Z" coloured="" opacity="1" id="soccer-base" mask="url(#kitMask)" sport="soccer"></path><path fill="#222426" fill-rule="evenodd" d="M26.5285476 1.30487937 26.527623 51.472092C25.8123429 51.487611 25.0877059 51.4970404 24.3617382 51.4994087L24.000546 51.5C23.1356322 51.5 22.2707184 51.4897549 21.419365 51.4709062L21.4199624 1.3034444C22.0829953 1.28795487 22.8088187 1.27929681 23.5974326 1.27712829L24.0005758 1.27712829C24.9251544 1.27770922 25.7678116 1.28695958 26.5285476 1.30487937ZM31.6293941 1.86912829 36.7373941 4.10412829 36.7389468 50.7309677C35.6549 50.9222912 33.8307422 51.1113772 31.63035 51.2541788L31.6293941 1.86912829ZM16.3073941 1.89512829 16.3072055 51.2500357 15.1728818 51.1690897C13.4710738 51.0371518 12.0767987 50.8789219 11.1993941 50.7197401L11.1993941 4.13012829 16.3073941 1.89512829Z" coloured="" opacity="1" id="soccer-vertical-stripe-11" mask="url(#kitMask)" sport="soccer"></path><path fill="#78d0eb" fill-rule="evenodd" d="M21.9321163,1.2930542 L21.9329339,51.481192 L21.4804852,51.4722441 L21.4793796,1.30207841 L21.9321163,1.2930542 Z M26.9232842,1.31516616 L26.9227982,51.4628797 L26.4697355,51.4733342 L26.4712684,1.30355003 L26.9232842,1.31516616 Z M16.9416504,1.67174368 L16.942499,51.2897252 L16.4898705,51.2618413 L16.48897,1.81228576 C16.6071337,1.76187746 16.7580272,1.71503011 16.9416504,1.67174368 Z M31.6139292,1.86290579 L31.9125858,1.9930542 L31.9130902,51.2354361 L31.4606636,51.2650519 L31.4600136,1.79327498 C31.5182549,1.81575123 31.5695602,1.83896149 31.6139292,1.86290579 Z M11.9525858,3.8000542 L11.9520751,50.8386899 L11.4985652,50.7707782 L11.4995858,3.9980542 L11.9525858,3.8000542 Z M36.4495858,3.9780542 L36.9025858,4.1770542 L36.9033414,50.7008545 L36.6106384,50.7530247 C36.5588095,50.761709 36.5054809,50.7703852 36.4506867,50.7790491 L36.4495858,3.9780542 Z" coloured="" opacity="1" id="soccer-vertical-stripe-05" mask="url(#kitMask)" sport="soccer"></path><g fill="none" fill-rule="evenodd" mask="url(#kitMask)" id="soccer-shoulder-02" sport="soccer"><path fill="#222426" fill-opacity=".5" d="M16.7161775,1.73138707 C16.7796549,1.84367345 16.850601,1.95688496 16.9290158,2.07102158 L17.7182455,3.8397491 L8.469,7.95711273 L8.3541902,7.31038844 L8.25105389,6.76962646 L8.19874728,6.50898072 L8.09265715,6.00715978 L7.98639107,5.53832989 L16.3835008,1.86290579 C16.4510987,1.82605717 16.5346749,1.79094697 16.6342294,1.75757517 L16.7161775,1.73138707 Z M31.6139292,1.86290579 L39.7758433,5.4345938 C39.8783466,5.47585397 39.9792853,5.52085497 40.0786593,5.56959682 L39.9768771,6.00329659 L39.8705431,6.50103593 L39.7661836,7.02453169 L39.6637981,7.573786 L39.6178375,7.83125604 L30.6502025,3.8397491 L31.5454936,1.82904728 L31.6139292,1.86290579 Z" coloured="" opacity="1" id="soccer-shoulder-02"></path><path fill="#222426" d="M17.0631247,2.25745554 C17.1699585,2.39964132 17.2881819,2.54323789 17.4177949,2.68824524 L8.26549606,6.76442476 L8.23626003,6.699 L8.19874728,6.50898072 L8.13926003,6.23 L17.0631247,2.25745554 Z M31.0046565,2.13516159 L39.9518375,6.11868989 L39.8388375,6.65768989 L30.6614178,2.57312771 C30.7456272,2.47481914 30.8245471,2.37716574 30.8981777,2.28016753 L31.0046565,2.13516159 Z M16.7167061,1.73232179 C16.7683279,1.82358125 16.8248827,1.91545173 16.8863705,2.00793325 L8.07526003,5.931 L7.98639107,5.53832989 L16.3835008,1.86290579 C16.4510987,1.82605717 16.5346749,1.79094697 16.6342294,1.75757517 L16.7167061,1.73232179 Z M31.6139292,1.86290579 L39.7758433,5.4345938 C39.8783466,5.47585397 39.9792853,5.52085497 40.0786593,5.56959682 L40.0188375,5.82068989 L31.1725237,1.88276573 L31.2643837,1.72765716 C31.4081129,1.76983501 31.5249643,1.81489484 31.6139292,1.86290579 Z" coloured="" opacity="1" id="soccer-shoulder-02"></path></g><path fill="#050505" d="M31.063812,11.6 L31.385152,11.602984 C32.0881153,11.6170432 32.5902101,11.6816347 33.0828954,11.8147304 L33.3584071,11.8962073 L33.6156629,11.9831126 L34.3027849,12.2411068 L34.399917,12.6144352 C34.7578905,14.1036212 34.6894945,15.4106176 34.1901022,16.5306227 C33.6407232,17.7627348 32.6229074,18.7394827 31.1448108,19.4597222 L30.9805586,19.4597222 C29.5022114,18.7394895 28.4842673,17.7627408 27.9348856,16.5306227 C27.4396549,15.419951 27.3682671,14.1253915 27.7162103,12.6516269 L27.8222029,12.2411068 L28.4590623,12.0018343 L28.683453,11.9243192 L28.9859901,11.8318626 C29.2045989,11.7707588 29.4236396,11.7230391 29.6591577,11.6871981 L30.0002649,11.6447286 L30.3582537,11.6176474 L30.6293297,11.6061574 C30.7645262,11.6020653 30.9090748,11.6 31.063812,11.6 Z" coloured="" opacity="1" id="soccer-badge-06" mask="url(#kitMask)" sport="soccer"></path><path fill="#fafafa" d="M31.0713059,11.6 C31.9555171,11.6 32.5342363,11.6642145 33.1040233,11.8204815 L33.3584071,11.8962073 L33.6156629,11.9831126 L34.3027849,12.2411068 L34.399917,12.6144352 C34.7578905,14.1036212 34.6894945,15.4106176 34.1901022,16.5306227 C33.6407232,17.7627348 32.6229074,18.7394827 31.1448108,19.4597222 L30.9805586,19.4597222 C29.5022114,18.7394895 28.4842673,17.7627408 27.9348856,16.5306227 C27.4396549,15.419951 27.3682671,14.1253915 27.7162103,12.6516269 L27.8222029,12.2411068 L28.4590623,12.0018343 L28.683453,11.9243192 L28.9859901,11.8318626 C29.2045989,11.7707588 29.4236396,11.7230391 29.6591577,11.6871981 L30.0002649,11.6447286 L30.3495035,11.6180432 C30.5683621,11.6057706 30.8063638,11.6 31.0713059,11.6 Z M31.0713059,11.975 C30.1180043,11.975 29.5412462,12.0505466 28.9361328,12.2374084 L28.6593067,12.3286603 L28.1352439,12.5225 L28.0904382,12.6989197 C27.7711367,14.0248818 27.8073045,15.1841766 28.1951291,16.1807607 L28.2773817,16.3779092 C28.7545561,17.4480853 29.6166116,18.316075 30.8701821,18.9828103 L31.063,19.081 L31.2234373,18.9995818 C32.3229307,18.4207032 33.1243137,17.688568 33.6319931,16.8025548 L33.7527967,16.5778453 L33.8476061,16.3779092 C34.3074172,15.3466743 34.3740458,14.1336786 34.0429801,12.7342392 L33.9889939,12.5225 L33.4933084,12.3376404 L33.2446747,12.2535506 L33.0343069,12.190303 C32.4893534,12.0375582 31.9393634,11.975 31.0713059,11.975 Z" coloured="" opacity="1" id="soccer-badge-07" mask="url(#kitMask)" sport="soccer"></path><path fill="#222426" fill-rule="evenodd" d="M8.606,9.19078706 L8.68301703,9.69905543 L8.82254557,10.7065104 L8.91310224,11.4103607 L9.00168981,12.1399845 L9.1308806,13.2827501 L9.25564477,14.4835179 L9.33636278,15.3162568 L9.41511511,16.1747798 L9.487,17.0197871 L6.07126959,25.4805928 C5.2872767,25.2911303 4.41213455,24.9613768 3.44584315,24.4913321 C3.1457851,24.3453713 2.86479287,24.1982991 2.60286646,24.0501156 L8.606,9.19078706 Z M7.47118935,5.82278706 L0.688235479,22.609056 C0.373377912,22.2628974 0.153340712,21.9112117 0.0281238815,21.553999 L1.13686838e-13,21.4685118 L4.72526396,9.66007698 C5.41110847,7.83237417 6.32641693,6.55327753 7.47118935,5.82278706 Z M39.429,8.97705602 L45.4980196,23.9924402 C45.2077272,24.1601556 44.8931062,24.3264529 44.5541569,24.4913321 C43.6338867,24.9389901 42.7962902,25.259402 42.0413675,25.4525678 L38.537,16.779056 L38.5888849,16.1747798 L38.6676372,15.3162568 L38.7483552,14.4835179 L38.8731194,13.2827501 L39.0023102,12.1399845 L39.0908978,11.4103607 L39.1814544,10.7065104 L39.320983,9.69905543 L39.429,8.97705602 Z M43.274736,9.66007698 L48,21.4685118 C47.8911358,21.8225623 47.6895803,22.1712098 47.3953334,22.5144543 L40.6972119,5.93536002 C41.7636843,6.68132162 42.622859,7.92289394 43.274736,9.66007698 Z" coloured="" opacity="1" id="soccer-sleeve-03" mask="url(#kitMask)" sport="soccer"></path><path fill="#dedede" fill-rule="evenodd" d="M9.15678824,13.5348413 L9.25564477,14.4835179 L9.33636278,15.3162568 L9.41511511,16.1747798 L9.52955944,17.5109141 L9.63958482,18.9050747 L9.71048124,19.8667554 L9.81314683,21.3576423 L9.84181434,21.8171378 L8.2241567,25.6160522 C7.18209357,25.7962675 5.85963741,25.5449199 4.25678824,24.8620093 L9.15678824,13.5348413 Z M38.8623424,13.3838413 L43.8162443,24.8306782 C42.1804919,25.5372061 40.8336915,25.7989974 39.7758433,25.6160522 L38.1523424,21.8028102 L38.1503424,21.7912482 L38.1621857,21.8171378 L38.1908532,21.3576423 L38.2935188,19.8667554 L38.3644152,18.9050747 L38.4744406,17.5109141 L38.5888849,16.1747798 L38.6676372,15.3162568 L38.7483552,14.4835179 L38.8623424,13.3838413 Z" coloured="" opacity="1" id="soccer-sleeve-04" mask="url(#kitMask)" sport="soccer"></path><path d="M47.56 20.365 48 21.47c-.325 1.055-1.473 2.063-3.446 3.022-1.972.96-3.565 1.335-4.778 1.125l-.464-1.088.261-.038c1.596-.263 3.05-.728 4.364-1.398a13.078 13.078 0 0 0 3.622-2.727Zm-47.118.001a13.078 13.078 0 0 0 3.62 2.726c1.315.67 2.77 1.135 4.365 1.398l.26.038-.463 1.088c-1.213.21-2.806-.165-4.778-1.125-1.92-.933-3.059-1.912-3.418-2.937L0 21.469l.442-1.103Z" fill="#78d0eb" fill-rule="nonzero" coloured="" opacity="1" id="soccer-trim-01" mask="url(#kitMask)" sport="soccer"></path><path id="kit-outline" stroke="rgba(255,255,255,0.3)" stroke-width=".75" d="M23.5972439,1.65247019 C28.2695525,1.6548216 30.7628201,1.81564155 31.4481987,2.19971541 L39.630739,5.78042954 C41.0555869,6.35178651 42.1401622,7.70393642 42.9265765,9.79939653 L47.6002981,21.4790269 C47.2451532,22.4229315 46.1494091,23.2983207 44.3901194,24.154113 C42.6185393,25.0158838 41.1685064,25.4024043 40.0380612,25.2747748 L37.868054,20.1812813 C37.4802197,26.4558273 37.2865868,31.1005844 37.2865871,34.1161115 C37.2903357,37.3484873 37.3292984,42.5879818 37.4037132,50.2238215 C36.3455177,50.6518503 30.3745012,51.1047915 24.3617064,51.1244087 L23.6014087,51.1223585 C17.4071181,51.0885873 11.6343002,50.643568 10.5972999,50.2234737 C10.6712421,42.3850844 10.7098646,37.1351619 10.7131798,34.4732809 C10.7134349,31.2905086 10.5208336,26.6792554 10.1351381,20.1737887 L7.96193877,25.2747748 C6.83149362,25.4024043 5.38146065,25.0158838 3.60988064,24.154113 C1.89858905,23.321669 0.816962859,22.4703287 0.43061824,21.5557427 L5.0763586,9.79182506 C5.83900262,7.75945969 6.88671108,6.4245588 8.25653961,5.82757137 L16.5500075,2.19937783 C17.2138802,1.82288528 19.5728011,1.66179303 23.5972439,1.65247019 Z"></path><g fill="none" fill-rule="evenodd" id="soccer-collar-03" sport="soccer"><path fill="#000" fill-opacity=".5" d="M30.75,2.18 C29.7749023,4.9032666 27.5249023,6.2648999 24,6.2648999 C20.4750977,6.2648999 18.2250977,4.9032666 17.25,2.18 L30.75,2.18 Z"></path><path fill="#222426" d="M30.4486804,0.4 L31.5001582,1.58466392 L31.692,1.67 L31.6990485,1.89423218 C29.1024722,2.61826803 26.5203857,2.98028596 23.9527893,2.98028596 C21.3851929,2.98028596 18.8509298,2.63393881 16.35,1.94124451 L16.343,1.845 L16.5331206,1.76290579 L17.8505592,0.4 C20.203887,0.921537936 22.3037658,1.18286536 24.1501956,1.18398228 C25.9876316,1.18509376 28.0871265,0.923766331 30.4486804,0.4 Z" coloured="" opacity="1" id="soccer-collar-03"></path><path fill="#000" fill-opacity=".5" d="M30.4486804,0.4 L31.5001582,1.58466392 L31.692,1.67 L31.6990485,1.89423218 C29.1024722,2.61826803 26.5203857,2.98028596 23.9527893,2.98028596 C21.3851929,2.98028596 18.8509298,2.63393881 16.35,1.94124451 L16.343,1.845 L16.5331206,1.76290579 L17.8505592,0.4 C20.203887,0.921537936 22.3037658,1.18286536 24.1501956,1.18398228 C25.9876316,1.18509376 28.0871265,0.923766331 30.4486804,0.4 Z"></path><path fill="#222426" d="M30.4437289,0.4 L31.699,1.701 L31.6957612,1.83431122 C31.5537677,4.64845237 28.1727723,6.9 24.0227263,6.9 C19.8756383,6.9 16.4965049,4.65166085 16.35,1.84032777 L16.5281691,1.76290579 L17.8456077,0.4 L18.2233174,0.4813756 C18.0099312,0.856479063 17.8950485,1.25116377 17.8950485,1.65 C17.8950485,3.57326891 20.5664871,5.4 24.0727263,5.4 C27.5789655,5.4 30.2504041,3.57326891 30.2504041,1.65 C30.2504041,1.26076701 30.1409872,0.875488012 29.9373775,0.508504815 L30.4437289,0.4 Z" coloured="" opacity="1" id="soccer-collar-03"></path><path fill="#000" fill-opacity=".5" d="M31.8415564,1.58 C31.8415564,4.79060313 28.3626159,7.03999025 24.0245,7.03999025 C19.7277272,7.03999025 16.2365265,4.63545577 16.2365265,1.78785812 L16.343,1.73485702 C16.4912222,4.60474766 19.7228934,6.88985702 24.0245,6.88985702 C28.3261066,6.88985702 31.699,4.54348023 31.6990485,1.58 L31.8415564,1.58 Z"></path></g>
        
                            <path fill-opacity="0.15" fill="#000000" fill-rule="nonzero" d="m10.234 48.926-1.257-.15a120.817 120.817 0 0 0 28.788.145l.016 1.514a.67.67 0 0 1-.206.101l-.168.052-.21.052-.25.052-.288.053-.324.052-.752.103-.879.1-.734.072-.791.07-.845.064-1.197.079-1.267.07-.988.044-.674.025-1.376.041-.698.015-1.411.018L24 51.5l-1.076-.005-1.057-.015-1.046-.024-1.029-.032-1.006-.04-.656-.03-1.267-.069-1.197-.079-.844-.065-.792-.069-.734-.072-.878-.1-.577-.077-.5-.078-.288-.053-.25-.052-.21-.052-.168-.052a.67.67 0 0 1-.206-.101l.014-1.509Zm37.19-28.899.144.361a13.074 13.074 0 0 1-3.592 2.696c-1.314.67-2.769 1.136-4.364 1.398l-.3.045-.142-.331c1.555-.22 2.974-.632 4.258-1.234l.389-.19a12.714 12.714 0 0 0 3.426-2.55l.18-.195Zm-46.99.357.144-.361-.112-.121a12.762 12.762 0 0 0 3.724 2.87c1.383.706 2.93 1.18 4.64 1.423l-.142.331-.293-.044c-1.596-.262-3.05-.728-4.364-1.398a13.074 13.074 0 0 1-3.597-2.7ZM7.926 5.567l.101.436.106.498.105.524.102.549.1.575.1.6.143.95.14 1.008.09.703.089.73.129 1.143.125 1.2.08.833.08.859.114 1.336.11 1.394.07.962.103 1.49.029.46-.262.614-.03-.511-.1-1.478-.103-1.423-.107-1.366-.111-1.311-.116-1.256-.08-.806-.08-.781-.084-.756-.128-1.089-.088-.694-.09-.67-.091-.645-.093-.62-.096-.596-.097-.57-.099-.546-.1-.521-.103-.497-.13-.583.135-.075.137-.07Zm32.148 0c.092.045.183.094.273.145l-.079.344-.103.484-.102.51-.1.533-.098.558-.096.583-.095.608-.092.632-.09.658-.09.682-.129 1.07-.084.744-.123 1.162-.08.806-.115 1.256-.111 1.31-.107 1.367-.137 1.91-.098 1.497-.26-.61.097-1.459.105-1.452.073-.936.113-1.355.078-.872.12-1.258.083-.807.085-.782.086-.755.134-1.085.091-.69.094-.666.095-.64.098-.613.15-.872.102-.55.13-.65.135-.61.047-.197Z"></path>                            
                        </g>
                    </svg>