<svg viewBox="0 0 48 52" xmlns="http://www.w3.org/2000/svg" xmlns:xlink="http://www.w3.org/1999/xlink" sport="soccer" title="SPORTINGCP_HOME_FRONT_2526">
                        <defs>
                            <path id="kit" d="M10.22 50.435c.079-8.326.118-13.766.118-16.32 0-2.553-.161-6.661-.484-12.324l-1.63 3.825c-1.213.21-2.806-.165-4.778-1.125-1.92-.933-3.059-1.912-3.418-2.937L0 21.469 4.725 9.66c.809-2.154 1.936-3.546 3.381-4.176l8.278-3.621c.72-.393 3.26-.588 7.617-.586 4.357.003 6.894.198 7.613.586l8.162 3.572c1.502.604 2.669 2.013 3.499 4.225L48 21.47c-.325 1.055-1.473 2.063-3.446 3.022-1.972.96-3.565 1.335-4.778 1.125l-1.63-3.825c-.323 5.467-.484 9.575-.484 12.325s.04 8.19.119 16.319c-.535.464-7.158 1.065-13.78 1.065-6.623 0-13.246-.6-13.78-1.065Z"></path>
                            
                        </defs>
                        <mask id="kitMask" fill="#fff">
                            <use xlink:href="#kit"></use>
                        </mask>
                        <g fill="none" fill-rule="evenodd">
                            
            <path fill="#fafafa" d="M10.22 50.435c.079-8.326.118-13.766.118-16.32 0-2.553-.161-6.661-.484-12.324l-1.63 3.825c-1.213.21-2.806-.165-4.778-1.125-1.92-.933-3.059-1.912-3.418-2.937L0 21.469 4.725 9.66c.809-2.154 1.936-3.546 3.381-4.176l8.278-3.621c.72-.393 3.26-.588 7.617-.586 4.357.003 6.894.198 7.613.586l8.162 3.572c1.502.604 2.669 2.013 3.499 4.225L48 21.47c-.325 1.055-1.473 2.063-3.446 3.022-1.972.96-3.565 1.335-4.778 1.125l-1.63-3.825c-.323 5.467-.484 9.575-.484 12.325s.04 8.19.119 16.319c-.535.464-7.158 1.065-13.78 1.065-6.623 0-13.246-.6-13.78-1.065Z" coloured="" opacity="1" id="soccer-base" mask="url(#kitMask)" sport="soccer"></path><path fill="#0d8255" fill-rule="evenodd" d="M0.220285835,51.4349257 L0.251771259,47.0271869 L47.74836,47.0271869 L47.7808063,51.4349257 L0.220285835,51.4349257 Z M0.295113829,41.9274582 L0.329737859,36.8275823 L47.6697523,36.8274078 L47.7041618,41.9274582 L0.295113829,41.9274582 Z M0.303644719,31.729565 L0.2631373,30.3726855 L0.207176542,28.8671293 L0.108523667,26.6284461 L47.885412,26.6285073 L47.8277963,27.8878836 L47.7787385,29.0753273 L47.7211979,30.7216194 L47.6935348,31.7292318 L0.303644719,31.729565 Z M3.173,13.5388814 L9.45410939,16.6600537 L9.456,16.6898814 L38.547693,16.6880675 L44.868,13.6418814 L46.484,17.6808814 L38.158,21.7848814 L38.148,21.7898814 L9.85365765,21.79 L9.486,17.0888814 L9.84181434,21.8171378 L1.546,17.6048814 L3.173,13.5388814 Z M36.613,6.22788138 L37.747,4.54688138 L39.7758433,5.4345938 C40.5726357,5.75532278 41.2748834,6.30209079 41.8825864,7.07489784 L39.116,11.2408814 L39.1038188,11.3287192 L8.92720337,11.3287192 L8.923,11.2998814 L8.90733948,11.3103831 L6.10482186,7.09096027 C6.68531952,6.34816597 7.35245872,5.81251566 8.10623945,5.48400935 L10.234,4.55288138 L11.364,6.22788138 L36.613,6.22788138 Z" coloured="" opacity="1" id="soccer-horizontal-stripe-02" mask="url(#kitMask)" sport="soccer"></path><path fill="#0d8255" d="M31.063812,11.6 L31.385152,11.602984 C32.0881153,11.6170432 32.5902101,11.6816347 33.0828954,11.8147304 L33.3584071,11.8962073 L33.6156629,11.9831126 L34.3027849,12.2411068 L34.399917,12.6144352 C34.7578905,14.1036212 34.6894945,15.4106176 34.1901022,16.5306227 C33.6407232,17.7627348 32.6229074,18.7394827 31.1448108,19.4597222 L30.9805586,19.4597222 C29.5022114,18.7394895 28.4842673,17.7627408 27.9348856,16.5306227 C27.4396549,15.419951 27.3682671,14.1253915 27.7162103,12.6516269 L27.8222029,12.2411068 L28.4590623,12.0018343 L28.683453,11.9243192 L28.9859901,11.8318626 C29.2045989,11.7707588 29.4236396,11.7230391 29.6591577,11.6871981 L30.0002649,11.6447286 L30.3582537,11.6176474 L30.6293297,11.6061574 C30.7645262,11.6020653 30.9090748,11.6 31.063812,11.6 Z" coloured="" opacity="1" id="soccer-badge-06" mask="url(#kitMask)" sport="soccer"></path><path fill="#fafafa" d="M31.0713059,11.6 C31.9555171,11.6 32.5342363,11.6642145 33.1040233,11.8204815 L33.3584071,11.8962073 L33.6156629,11.9831126 L34.3027849,12.2411068 L34.399917,12.6144352 C34.7578905,14.1036212 34.6894945,15.4106176 34.1901022,16.5306227 C33.6407232,17.7627348 32.6229074,18.7394827 31.1448108,19.4597222 L30.9805586,19.4597222 C29.5022114,18.7394895 28.4842673,17.7627408 27.9348856,16.5306227 C27.4396549,15.419951 27.3682671,14.1253915 27.7162103,12.6516269 L27.8222029,12.2411068 L28.4590623,12.0018343 L28.683453,11.9243192 L28.9859901,11.8318626 C29.2045989,11.7707588 29.4236396,11.7230391 29.6591577,11.6871981 L30.0002649,11.6447286 L30.3495035,11.6180432 C30.5683621,11.6057706 30.8063638,11.6 31.0713059,11.6 Z M31.0713059,11.975 C30.1180043,11.975 29.5412462,12.0505466 28.9361328,12.2374084 L28.6593067,12.3286603 L28.1352439,12.5225 L28.0904382,12.6989197 C27.7711367,14.0248818 27.8073045,15.1841766 28.1951291,16.1807607 L28.2773817,16.3779092 C28.7545561,17.4480853 29.6166116,18.316075 30.8701821,18.9828103 L31.063,19.081 L31.2234373,18.9995818 C32.3229307,18.4207032 33.1243137,17.688568 33.6319931,16.8025548 L33.7527967,16.5778453 L33.8476061,16.3779092 C34.3074172,15.3466743 34.3740458,14.1336786 34.0429801,12.7342392 L33.9889939,12.5225 L33.4933084,12.3376404 L33.2446747,12.2535506 L33.0343069,12.190303 C32.4893534,12.0375582 31.9393634,11.975 31.0713059,11.975 Z" coloured="" opacity="1" id="soccer-badge-07" mask="url(#kitMask)" sport="soccer"></path><path id="kit-outline" stroke="rgba(255,255,255,0.3)" stroke-width=".75" d="M23.5972439,1.65247019 C28.2695525,1.6548216 30.7628201,1.81564155 31.4481987,2.19971541 L39.630739,5.78042954 C41.0555869,6.35178651 42.1401622,7.70393642 42.9265765,9.79939653 L47.6002981,21.4790269 C47.2451532,22.4229315 46.1494091,23.2983207 44.3901194,24.154113 C42.6185393,25.0158838 41.1685064,25.4024043 40.0380612,25.2747748 L37.868054,20.1812813 C37.4802197,26.4558273 37.2865868,31.1005844 37.2865871,34.1161115 C37.2903357,37.3484873 37.3292984,42.5879818 37.4037132,50.2238215 C36.3455177,50.6518503 30.3745012,51.1047915 24.3617064,51.1244087 L23.6014087,51.1223585 C17.4071181,51.0885873 11.6343002,50.643568 10.5972999,50.2234737 C10.6712421,42.3850844 10.7098646,37.1351619 10.7131798,34.4732809 C10.7134349,31.2905086 10.5208336,26.6792554 10.1351381,20.1737887 L7.96193877,25.2747748 C6.83149362,25.4024043 5.38146065,25.0158838 3.60988064,24.154113 C1.89858905,23.321669 0.816962859,22.4703287 0.43061824,21.5557427 L5.0763586,9.79182506 C5.83900262,7.75945969 6.88671108,6.4245588 8.25653961,5.82757137 L16.5500075,2.19937783 C17.2138802,1.82288528 19.5728011,1.66179303 23.5972439,1.65247019 Z"></path><g fill="none" fill-rule="evenodd" id="soccer-collar-04" sport="soccer"><path fill="#000" fill-opacity=".5" d="M30.75,2.18 C29.7749023,4.9032666 27.5249023,6.2648999 24,6.2648999 C20.4750977,6.2648999 18.2250977,4.9032666 17.25,2.18 L30.75,2.18 Z"></path><path fill="#0d8255" d="M30.4486804,0.4 L31.5001582,1.58466392 L31.692,1.67 L31.6990485,1.89423218 C29.1024722,2.61826803 26.5203857,2.98028596 23.9527893,2.98028596 C21.3851929,2.98028596 18.8509298,2.63393881 16.35,1.94124451 L16.343,1.845 L16.5331206,1.76290579 L17.8505592,0.4 C20.203887,0.921537936 22.3037658,1.18286536 24.1501956,1.18398228 C25.9876316,1.18509376 28.0871265,0.923766331 30.4486804,0.4 Z" coloured="" opacity="1" id="soccer-collar-04"></path><path fill="#000" fill-opacity=".5" d="M30.4486804,0.4 L31.5001582,1.58466392 L31.692,1.67 L31.6990485,1.89423218 C29.1024722,2.61826803 26.5203857,2.98028596 23.9527893,2.98028596 C21.3851929,2.98028596 18.8509298,2.63393881 16.35,1.94124451 L16.343,1.845 L16.5331206,1.76290579 L17.8505592,0.4 C20.203887,0.921537936 22.3037658,1.18286536 24.1501956,1.18398228 C25.9876316,1.18509376 28.0871265,0.923766331 30.4486804,0.4 Z"></path><path fill="#0d8255" d="M30.4437289,0.4 L31.699,1.701 L31.6957612,1.83431122 C31.5537677,4.64845237 28.1727723,6.9 24.0227263,6.9 C19.8756383,6.9 16.4965049,4.65166085 16.35,1.84032777 L16.5281691,1.76290579 L17.8456077,0.4 L18.2233174,0.4813756 C18.0099312,0.856479063 17.8950485,1.25116377 17.8950485,1.65 L17.8967837,1.73497405 L17.9,1.75 C17.9,2.7302403 18.5939534,3.68540319 19.738695,4.38641656 C20.301235,4.73090309 20.9726341,5.01401608 21.724036,5.20857172 C22.0873533,5.30264313 22.4693745,5.37601063 22.8668377,5.42560132 L22.9627026,5.45097854 C23.5362512,5.60466041 23.9551597,6.02412005 24.0785447,6.50284022 C24.2001958,6.02412005 24.6191044,5.60466041 25.1926529,5.45097854 L25.294547,5.42687669 L25.3961382,5.40911678 C25.7557493,5.36240807 26.101253,5.29403374 26.4313196,5.20857172 C27.1827215,5.01401608 27.8541205,4.73090309 28.4166606,4.38641656 C29.5614022,3.68540319 30.2553555,2.7302403 30.2553555,1.75 L30.2504041,1.65 C30.2504041,1.26076701 30.1409872,0.875488012 29.9373775,0.508504815 L30.4437289,0.4 Z" coloured="" opacity="1" id="soccer-collar-04"></path><path fill="#000" fill-opacity=".5" d="M31.8415564,1.58 C31.8415564,4.79060313 28.3626159,7.03999025 24.0245,7.03999025 C19.7277272,7.03999025 16.2365265,4.63545577 16.2365265,1.78785812 L16.343,1.73485702 C16.4912222,4.60474766 19.7228934,6.88985702 24.0245,6.88985702 C28.3261066,6.88985702 31.699,4.54348023 31.6990485,1.58 L31.8415564,1.58 Z"></path></g>
        
                            <path fill-opacity="0.15" fill="#000000" fill-rule="nonzero" d="m10.234 48.926-1.257-.15a120.817 120.817 0 0 0 28.788.145l.016 1.514a.67.67 0 0 1-.206.101l-.168.052-.21.052-.25.052-.288.053-.324.052-.752.103-.879.1-.734.072-.791.07-.845.064-1.197.079-1.267.07-.988.044-.674.025-1.376.041-.698.015-1.411.018L24 51.5l-1.076-.005-1.057-.015-1.046-.024-1.029-.032-1.006-.04-.656-.03-1.267-.069-1.197-.079-.844-.065-.792-.069-.734-.072-.878-.1-.577-.077-.5-.078-.288-.053-.25-.052-.21-.052-.168-.052a.67.67 0 0 1-.206-.101l.014-1.509Zm37.19-28.899.144.361a13.074 13.074 0 0 1-3.592 2.696c-1.314.67-2.769 1.136-4.364 1.398l-.3.045-.142-.331c1.555-.22 2.974-.632 4.258-1.234l.389-.19a12.714 12.714 0 0 0 3.426-2.55l.18-.195Zm-46.99.357.144-.361-.112-.121a12.762 12.762 0 0 0 3.724 2.87c1.383.706 2.93 1.18 4.64 1.423l-.142.331-.293-.044c-1.596-.262-3.05-.728-4.364-1.398a13.074 13.074 0 0 1-3.597-2.7ZM7.926 5.567l.101.436.106.498.105.524.102.549.1.575.1.6.143.95.14 1.008.09.703.089.73.129 1.143.125 1.2.08.833.08.859.114 1.336.11 1.394.07.962.103 1.49.029.46-.262.614-.03-.511-.1-1.478-.103-1.423-.107-1.366-.111-1.311-.116-1.256-.08-.806-.08-.781-.084-.756-.128-1.089-.088-.694-.09-.67-.091-.645-.093-.62-.096-.596-.097-.57-.099-.546-.1-.521-.103-.497-.13-.583.135-.075.137-.07Zm32.148 0c.092.045.183.094.273.145l-.079.344-.103.484-.102.51-.1.533-.098.558-.096.583-.095.608-.092.632-.09.658-.09.682-.129 1.07-.084.744-.123 1.162-.08.806-.115 1.256-.111 1.31-.107 1.367-.137 1.91-.098 1.497-.26-.61.097-1.459.105-1.452.073-.936.113-1.355.078-.872.12-1.258.083-.807.085-.782.086-.755.134-1.085.091-.69.094-.666.095-.64.098-.613.15-.872.102-.55.13-.65.135-.61.047-.197Z"></path>                            
                        </g>
                    </svg>